<?xml version="1.0" encoding="utf-8"?>
<svg xmlns="http://www.w3.org/2000/svg" xmlns:xlink="http://www.w3.org/1999/xlink" width="600" height="400" viewBox="0 0 2400 1600">
<defs>
  <clipPath id="clip480">
    <rect x="0" y="0" width="2400" height="1600"/>
  </clipPath>
</defs>
<path clip-path="url(#clip480)" d="
M0 1600 L2400 1600 L2400 0 L0 0  Z
  " fill="#ffffff" fill-rule="evenodd" fill-opacity="1"/>
<defs>
  <clipPath id="clip481">
    <rect x="480" y="0" width="1681" height="1600"/>
  </clipPath>
</defs>
<path clip-path="url(#clip480)" d="
M156.112 1423.18 L2352.76 1423.18 L2352.76 47.2441 L156.112 47.2441  Z
  " fill="#ffffff" fill-rule="evenodd" fill-opacity="1"/>
<defs>
  <clipPath id="clip482">
    <rect x="156" y="47" width="2198" height="1377"/>
  </clipPath>
</defs>
<polyline clip-path="url(#clip482)" style="stroke:#000000; stroke-linecap:butt; stroke-linejoin:round; stroke-width:2; stroke-opacity:0.1; fill:none" points="
  218.281,1423.18 218.281,47.2441 
  "/>
<polyline clip-path="url(#clip482)" style="stroke:#000000; stroke-linecap:butt; stroke-linejoin:round; stroke-width:2; stroke-opacity:0.1; fill:none" points="
  736.358,1423.18 736.358,47.2441 
  "/>
<polyline clip-path="url(#clip482)" style="stroke:#000000; stroke-linecap:butt; stroke-linejoin:round; stroke-width:2; stroke-opacity:0.1; fill:none" points="
  1254.43,1423.18 1254.43,47.2441 
  "/>
<polyline clip-path="url(#clip482)" style="stroke:#000000; stroke-linecap:butt; stroke-linejoin:round; stroke-width:2; stroke-opacity:0.1; fill:none" points="
  1772.51,1423.18 1772.51,47.2441 
  "/>
<polyline clip-path="url(#clip482)" style="stroke:#000000; stroke-linecap:butt; stroke-linejoin:round; stroke-width:2; stroke-opacity:0.1; fill:none" points="
  2290.59,1423.18 2290.59,47.2441 
  "/>
<polyline clip-path="url(#clip480)" style="stroke:#000000; stroke-linecap:butt; stroke-linejoin:round; stroke-width:4; stroke-opacity:1; fill:none" points="
  156.112,1423.18 2352.76,1423.18 
  "/>
<polyline clip-path="url(#clip480)" style="stroke:#000000; stroke-linecap:butt; stroke-linejoin:round; stroke-width:4; stroke-opacity:1; fill:none" points="
  218.281,1423.18 218.281,1404.28 
  "/>
<polyline clip-path="url(#clip480)" style="stroke:#000000; stroke-linecap:butt; stroke-linejoin:round; stroke-width:4; stroke-opacity:1; fill:none" points="
  736.358,1423.18 736.358,1404.28 
  "/>
<polyline clip-path="url(#clip480)" style="stroke:#000000; stroke-linecap:butt; stroke-linejoin:round; stroke-width:4; stroke-opacity:1; fill:none" points="
  1254.43,1423.18 1254.43,1404.28 
  "/>
<polyline clip-path="url(#clip480)" style="stroke:#000000; stroke-linecap:butt; stroke-linejoin:round; stroke-width:4; stroke-opacity:1; fill:none" points="
  1772.51,1423.18 1772.51,1404.28 
  "/>
<polyline clip-path="url(#clip480)" style="stroke:#000000; stroke-linecap:butt; stroke-linejoin:round; stroke-width:4; stroke-opacity:1; fill:none" points="
  2290.59,1423.18 2290.59,1404.28 
  "/>
<path clip-path="url(#clip480)" d="M195.666 1454.1 Q192.055 1454.1 190.226 1457.66 Q188.42 1461.2 188.42 1468.33 Q188.42 1475.44 190.226 1479.01 Q192.055 1482.55 195.666 1482.55 Q199.3 1482.55 201.105 1479.01 Q202.934 1475.44 202.934 1468.33 Q202.934 1461.2 201.105 1457.66 Q199.3 1454.1 195.666 1454.1 M195.666 1450.39 Q201.476 1450.39 204.531 1455 Q207.61 1459.58 207.61 1468.33 Q207.61 1477.06 204.531 1481.67 Q201.476 1486.25 195.666 1486.25 Q189.856 1486.25 186.777 1481.67 Q183.721 1477.06 183.721 1468.33 Q183.721 1459.58 186.777 1455 Q189.856 1450.39 195.666 1450.39 Z" fill="#000000" fill-rule="evenodd" fill-opacity="1" /><path clip-path="url(#clip480)" d="M215.828 1479.7 L220.712 1479.7 L220.712 1485.58 L215.828 1485.58 L215.828 1479.7 Z" fill="#000000" fill-rule="evenodd" fill-opacity="1" /><path clip-path="url(#clip480)" d="M240.897 1454.1 Q237.286 1454.1 235.457 1457.66 Q233.652 1461.2 233.652 1468.33 Q233.652 1475.44 235.457 1479.01 Q237.286 1482.55 240.897 1482.55 Q244.531 1482.55 246.337 1479.01 Q248.165 1475.44 248.165 1468.33 Q248.165 1461.2 246.337 1457.66 Q244.531 1454.1 240.897 1454.1 M240.897 1450.39 Q246.707 1450.39 249.763 1455 Q252.841 1459.58 252.841 1468.33 Q252.841 1477.06 249.763 1481.67 Q246.707 1486.25 240.897 1486.25 Q235.087 1486.25 232.008 1481.67 Q228.953 1477.06 228.953 1468.33 Q228.953 1459.58 232.008 1455 Q235.087 1450.39 240.897 1450.39 Z" fill="#000000" fill-rule="evenodd" fill-opacity="1" /><path clip-path="url(#clip480)" d="M708.094 1481.64 L724.413 1481.64 L724.413 1485.58 L702.469 1485.58 L702.469 1481.64 Q705.131 1478.89 709.714 1474.26 Q714.321 1469.61 715.501 1468.27 Q717.747 1465.74 718.626 1464.01 Q719.529 1462.25 719.529 1460.56 Q719.529 1457.8 717.585 1456.07 Q715.663 1454.33 712.561 1454.33 Q710.362 1454.33 707.909 1455.09 Q705.478 1455.86 702.7 1457.41 L702.7 1452.69 Q705.524 1451.55 707.978 1450.97 Q710.432 1450.39 712.469 1450.39 Q717.839 1450.39 721.034 1453.08 Q724.228 1455.77 724.228 1460.26 Q724.228 1462.39 723.418 1464.31 Q722.631 1466.2 720.524 1468.8 Q719.946 1469.47 716.844 1472.69 Q713.742 1475.88 708.094 1481.64 Z" fill="#000000" fill-rule="evenodd" fill-opacity="1" /><path clip-path="url(#clip480)" d="M734.228 1479.7 L739.112 1479.7 L739.112 1485.58 L734.228 1485.58 L734.228 1479.7 Z" fill="#000000" fill-rule="evenodd" fill-opacity="1" /><path clip-path="url(#clip480)" d="M749.344 1451.02 L767.7 1451.02 L767.7 1454.96 L753.626 1454.96 L753.626 1463.43 Q754.645 1463.08 755.663 1462.92 Q756.682 1462.73 757.7 1462.73 Q763.487 1462.73 766.867 1465.9 Q770.246 1469.08 770.246 1474.49 Q770.246 1480.07 766.774 1483.17 Q763.302 1486.25 756.983 1486.25 Q754.807 1486.25 752.538 1485.88 Q750.293 1485.51 747.885 1484.77 L747.885 1480.07 Q749.969 1481.2 752.191 1481.76 Q754.413 1482.32 756.89 1482.32 Q760.895 1482.32 763.233 1480.21 Q765.57 1478.1 765.57 1474.49 Q765.57 1470.88 763.233 1468.77 Q760.895 1466.67 756.89 1466.67 Q755.015 1466.67 753.14 1467.08 Q751.288 1467.5 749.344 1468.38 L749.344 1451.02 Z" fill="#000000" fill-rule="evenodd" fill-opacity="1" /><path clip-path="url(#clip480)" d="M1221.6 1451.02 L1239.95 1451.02 L1239.95 1454.96 L1225.88 1454.96 L1225.88 1463.43 Q1226.9 1463.08 1227.92 1462.92 Q1228.94 1462.73 1229.95 1462.73 Q1235.74 1462.73 1239.12 1465.9 Q1242.5 1469.08 1242.5 1474.49 Q1242.5 1480.07 1239.03 1483.17 Q1235.56 1486.25 1229.24 1486.25 Q1227.06 1486.25 1224.79 1485.88 Q1222.55 1485.51 1220.14 1484.77 L1220.14 1480.07 Q1222.22 1481.2 1224.45 1481.76 Q1226.67 1482.32 1229.14 1482.32 Q1233.15 1482.32 1235.49 1480.21 Q1237.83 1478.1 1237.83 1474.49 Q1237.83 1470.88 1235.49 1468.77 Q1233.15 1466.67 1229.14 1466.67 Q1227.27 1466.67 1225.39 1467.08 Q1223.54 1467.5 1221.6 1468.38 L1221.6 1451.02 Z" fill="#000000" fill-rule="evenodd" fill-opacity="1" /><path clip-path="url(#clip480)" d="M1251.71 1479.7 L1256.6 1479.7 L1256.6 1485.58 L1251.71 1485.58 L1251.71 1479.7 Z" fill="#000000" fill-rule="evenodd" fill-opacity="1" /><path clip-path="url(#clip480)" d="M1276.78 1454.1 Q1273.17 1454.1 1271.34 1457.66 Q1269.54 1461.2 1269.54 1468.33 Q1269.54 1475.44 1271.34 1479.01 Q1273.17 1482.55 1276.78 1482.55 Q1280.42 1482.55 1282.22 1479.01 Q1284.05 1475.44 1284.05 1468.33 Q1284.05 1461.2 1282.22 1457.66 Q1280.42 1454.1 1276.78 1454.1 M1276.78 1450.39 Q1282.59 1450.39 1285.65 1455 Q1288.73 1459.58 1288.73 1468.33 Q1288.73 1477.06 1285.65 1481.67 Q1282.59 1486.25 1276.78 1486.25 Q1270.97 1486.25 1267.89 1481.67 Q1264.84 1477.06 1264.84 1468.33 Q1264.84 1459.58 1267.89 1455 Q1270.97 1450.39 1276.78 1450.39 Z" fill="#000000" fill-rule="evenodd" fill-opacity="1" /><path clip-path="url(#clip480)" d="M1738.83 1451.02 L1761.05 1451.02 L1761.05 1453.01 L1748.51 1485.58 L1743.62 1485.58 L1755.43 1454.96 L1738.83 1454.96 L1738.83 1451.02 Z" fill="#000000" fill-rule="evenodd" fill-opacity="1" /><path clip-path="url(#clip480)" d="M1770.17 1479.7 L1775.06 1479.7 L1775.06 1485.58 L1770.17 1485.58 L1770.17 1479.7 Z" fill="#000000" fill-rule="evenodd" fill-opacity="1" /><path clip-path="url(#clip480)" d="M1785.29 1451.02 L1803.64 1451.02 L1803.64 1454.96 L1789.57 1454.96 L1789.57 1463.43 Q1790.59 1463.08 1791.61 1462.92 Q1792.63 1462.73 1793.64 1462.73 Q1799.43 1462.73 1802.81 1465.9 Q1806.19 1469.08 1806.19 1474.49 Q1806.19 1480.07 1802.72 1483.17 Q1799.25 1486.25 1792.93 1486.25 Q1790.75 1486.25 1788.48 1485.88 Q1786.24 1485.51 1783.83 1484.77 L1783.83 1480.07 Q1785.91 1481.2 1788.14 1481.76 Q1790.36 1482.32 1792.83 1482.32 Q1796.84 1482.32 1799.18 1480.21 Q1801.51 1478.1 1801.51 1474.49 Q1801.51 1470.88 1799.18 1468.77 Q1796.84 1466.67 1792.83 1466.67 Q1790.96 1466.67 1789.08 1467.08 Q1787.23 1467.5 1785.29 1468.38 L1785.29 1451.02 Z" fill="#000000" fill-rule="evenodd" fill-opacity="1" /><path clip-path="url(#clip480)" d="M2242.66 1481.64 L2250.3 1481.64 L2250.3 1455.28 L2241.99 1456.95 L2241.99 1452.69 L2250.25 1451.02 L2254.93 1451.02 L2254.93 1481.64 L2262.57 1481.64 L2262.57 1485.58 L2242.66 1485.58 L2242.66 1481.64 Z" fill="#000000" fill-rule="evenodd" fill-opacity="1" /><path clip-path="url(#clip480)" d="M2282.01 1454.1 Q2278.4 1454.1 2276.57 1457.66 Q2274.77 1461.2 2274.77 1468.33 Q2274.77 1475.44 2276.57 1479.01 Q2278.4 1482.55 2282.01 1482.55 Q2285.64 1482.55 2287.45 1479.01 Q2289.28 1475.44 2289.28 1468.33 Q2289.28 1461.2 2287.45 1457.66 Q2285.64 1454.1 2282.01 1454.1 M2282.01 1450.39 Q2287.82 1450.39 2290.88 1455 Q2293.95 1459.58 2293.95 1468.33 Q2293.95 1477.06 2290.88 1481.67 Q2287.82 1486.25 2282.01 1486.25 Q2276.2 1486.25 2273.12 1481.67 Q2270.07 1477.06 2270.07 1468.33 Q2270.07 1459.58 2273.12 1455 Q2276.2 1450.39 2282.01 1450.39 Z" fill="#000000" fill-rule="evenodd" fill-opacity="1" /><path clip-path="url(#clip480)" d="M2302.17 1479.7 L2307.06 1479.7 L2307.06 1485.58 L2302.17 1485.58 L2302.17 1479.7 Z" fill="#000000" fill-rule="evenodd" fill-opacity="1" /><path clip-path="url(#clip480)" d="M2327.24 1454.1 Q2323.63 1454.1 2321.8 1457.66 Q2320 1461.2 2320 1468.33 Q2320 1475.44 2321.8 1479.01 Q2323.63 1482.55 2327.24 1482.55 Q2330.88 1482.55 2332.68 1479.01 Q2334.51 1475.44 2334.51 1468.33 Q2334.51 1461.2 2332.68 1457.66 Q2330.88 1454.1 2327.24 1454.1 M2327.24 1450.39 Q2333.05 1450.39 2336.11 1455 Q2339.19 1459.58 2339.19 1468.33 Q2339.19 1477.06 2336.11 1481.67 Q2333.05 1486.25 2327.24 1486.25 Q2321.43 1486.25 2318.35 1481.67 Q2315.3 1477.06 2315.3 1468.33 Q2315.3 1459.58 2318.35 1455 Q2321.43 1450.39 2327.24 1450.39 Z" fill="#000000" fill-rule="evenodd" fill-opacity="1" /><path clip-path="url(#clip480)" d="M1253.5 1522.27 L1253.5 1532.4 L1265.56 1532.4 L1265.56 1536.95 L1253.5 1536.95 L1253.5 1556.3 Q1253.5 1560.66 1254.67 1561.9 Q1255.88 1563.14 1259.54 1563.14 L1265.56 1563.14 L1265.56 1568.04 L1259.54 1568.04 Q1252.76 1568.04 1250.18 1565.53 Q1247.61 1562.98 1247.61 1556.3 L1247.61 1536.95 L1243.31 1536.95 L1243.31 1532.4 L1247.61 1532.4 L1247.61 1522.27 L1253.5 1522.27 Z" fill="#000000" fill-rule="evenodd" fill-opacity="1" /><polyline clip-path="url(#clip482)" style="stroke:#000000; stroke-linecap:butt; stroke-linejoin:round; stroke-width:2; stroke-opacity:0.1; fill:none" points="
  156.112,1384.24 2352.76,1384.24 
  "/>
<polyline clip-path="url(#clip482)" style="stroke:#000000; stroke-linecap:butt; stroke-linejoin:round; stroke-width:2; stroke-opacity:0.1; fill:none" points="
  156.112,946.642 2352.76,946.642 
  "/>
<polyline clip-path="url(#clip482)" style="stroke:#000000; stroke-linecap:butt; stroke-linejoin:round; stroke-width:2; stroke-opacity:0.1; fill:none" points="
  156.112,509.045 2352.76,509.045 
  "/>
<polyline clip-path="url(#clip482)" style="stroke:#000000; stroke-linecap:butt; stroke-linejoin:round; stroke-width:2; stroke-opacity:0.1; fill:none" points="
  156.112,71.4483 2352.76,71.4483 
  "/>
<polyline clip-path="url(#clip480)" style="stroke:#000000; stroke-linecap:butt; stroke-linejoin:round; stroke-width:4; stroke-opacity:1; fill:none" points="
  156.112,1423.18 156.112,47.2441 
  "/>
<polyline clip-path="url(#clip480)" style="stroke:#000000; stroke-linecap:butt; stroke-linejoin:round; stroke-width:4; stroke-opacity:1; fill:none" points="
  156.112,1384.24 175.01,1384.24 
  "/>
<polyline clip-path="url(#clip480)" style="stroke:#000000; stroke-linecap:butt; stroke-linejoin:round; stroke-width:4; stroke-opacity:1; fill:none" points="
  156.112,946.642 175.01,946.642 
  "/>
<polyline clip-path="url(#clip480)" style="stroke:#000000; stroke-linecap:butt; stroke-linejoin:round; stroke-width:4; stroke-opacity:1; fill:none" points="
  156.112,509.045 175.01,509.045 
  "/>
<polyline clip-path="url(#clip480)" style="stroke:#000000; stroke-linecap:butt; stroke-linejoin:round; stroke-width:4; stroke-opacity:1; fill:none" points="
  156.112,71.4483 175.01,71.4483 
  "/>
<path clip-path="url(#clip480)" d="M62.9365 1370.04 Q59.3254 1370.04 57.4967 1373.6 Q55.6912 1377.14 55.6912 1384.27 Q55.6912 1391.38 57.4967 1394.94 Q59.3254 1398.49 62.9365 1398.49 Q66.5707 1398.49 68.3763 1394.94 Q70.205 1391.38 70.205 1384.27 Q70.205 1377.14 68.3763 1373.6 Q66.5707 1370.04 62.9365 1370.04 M62.9365 1366.33 Q68.7467 1366.33 71.8022 1370.94 Q74.8809 1375.52 74.8809 1384.27 Q74.8809 1393 71.8022 1397.61 Q68.7467 1402.19 62.9365 1402.19 Q57.1264 1402.19 54.0477 1397.61 Q50.9921 1393 50.9921 1384.27 Q50.9921 1375.52 54.0477 1370.94 Q57.1264 1366.33 62.9365 1366.33 Z" fill="#000000" fill-rule="evenodd" fill-opacity="1" /><path clip-path="url(#clip480)" d="M83.0984 1395.64 L87.9827 1395.64 L87.9827 1401.52 L83.0984 1401.52 L83.0984 1395.64 Z" fill="#000000" fill-rule="evenodd" fill-opacity="1" /><path clip-path="url(#clip480)" d="M108.168 1370.04 Q104.557 1370.04 102.728 1373.6 Q100.922 1377.14 100.922 1384.27 Q100.922 1391.38 102.728 1394.94 Q104.557 1398.49 108.168 1398.49 Q111.802 1398.49 113.608 1394.94 Q115.436 1391.38 115.436 1384.27 Q115.436 1377.14 113.608 1373.6 Q111.802 1370.04 108.168 1370.04 M108.168 1366.33 Q113.978 1366.33 117.033 1370.94 Q120.112 1375.52 120.112 1384.27 Q120.112 1393 117.033 1397.61 Q113.978 1402.19 108.168 1402.19 Q102.358 1402.19 99.2789 1397.61 Q96.2234 1393 96.2234 1384.27 Q96.2234 1375.52 99.2789 1370.94 Q102.358 1366.33 108.168 1366.33 Z" fill="#000000" fill-rule="evenodd" fill-opacity="1" /><path clip-path="url(#clip480)" d="M63.9319 932.44 Q60.3208 932.44 58.4921 936.005 Q56.6865 939.547 56.6865 946.676 Q56.6865 953.783 58.4921 957.348 Q60.3208 960.889 63.9319 960.889 Q67.5661 960.889 69.3717 957.348 Q71.2004 953.783 71.2004 946.676 Q71.2004 939.547 69.3717 936.005 Q67.5661 932.44 63.9319 932.44 M63.9319 928.737 Q69.742 928.737 72.7976 933.343 Q75.8763 937.926 75.8763 946.676 Q75.8763 955.403 72.7976 960.01 Q69.742 964.593 63.9319 964.593 Q58.1217 964.593 55.043 960.01 Q51.9875 955.403 51.9875 946.676 Q51.9875 937.926 55.043 933.343 Q58.1217 928.737 63.9319 928.737 Z" fill="#000000" fill-rule="evenodd" fill-opacity="1" /><path clip-path="url(#clip480)" d="M84.0938 958.042 L88.978 958.042 L88.978 963.922 L84.0938 963.922 L84.0938 958.042 Z" fill="#000000" fill-rule="evenodd" fill-opacity="1" /><path clip-path="url(#clip480)" d="M99.2095 929.362 L117.566 929.362 L117.566 933.297 L103.492 933.297 L103.492 941.769 Q104.51 941.422 105.529 941.26 Q106.547 941.075 107.566 941.075 Q113.353 941.075 116.733 944.246 Q120.112 947.417 120.112 952.834 Q120.112 958.412 116.64 961.514 Q113.168 964.593 106.848 964.593 Q104.672 964.593 102.404 964.223 Q100.159 963.852 97.7511 963.111 L97.7511 958.412 Q99.8345 959.547 102.057 960.102 Q104.279 960.658 106.756 960.658 Q110.76 960.658 113.098 958.551 Q115.436 956.445 115.436 952.834 Q115.436 949.223 113.098 947.116 Q110.76 945.01 106.756 945.01 Q104.881 945.01 103.006 945.426 Q101.154 945.843 99.2095 946.723 L99.2095 929.362 Z" fill="#000000" fill-rule="evenodd" fill-opacity="1" /><path clip-path="url(#clip480)" d="M53.7467 522.39 L61.3856 522.39 L61.3856 496.024 L53.0754 497.691 L53.0754 493.432 L61.3393 491.765 L66.0152 491.765 L66.0152 522.39 L73.654 522.39 L73.654 526.325 L53.7467 526.325 L53.7467 522.39 Z" fill="#000000" fill-rule="evenodd" fill-opacity="1" /><path clip-path="url(#clip480)" d="M83.0984 520.445 L87.9827 520.445 L87.9827 526.325 L83.0984 526.325 L83.0984 520.445 Z" fill="#000000" fill-rule="evenodd" fill-opacity="1" /><path clip-path="url(#clip480)" d="M108.168 494.844 Q104.557 494.844 102.728 498.408 Q100.922 501.95 100.922 509.08 Q100.922 516.186 102.728 519.751 Q104.557 523.293 108.168 523.293 Q111.802 523.293 113.608 519.751 Q115.436 516.186 115.436 509.08 Q115.436 501.95 113.608 498.408 Q111.802 494.844 108.168 494.844 M108.168 491.14 Q113.978 491.14 117.033 495.746 Q120.112 500.33 120.112 509.08 Q120.112 517.806 117.033 522.413 Q113.978 526.996 108.168 526.996 Q102.358 526.996 99.2789 522.413 Q96.2234 517.806 96.2234 509.08 Q96.2234 500.33 99.2789 495.746 Q102.358 491.14 108.168 491.14 Z" fill="#000000" fill-rule="evenodd" fill-opacity="1" /><path clip-path="url(#clip480)" d="M54.7421 84.7931 L62.381 84.7931 L62.381 58.4275 L54.0708 60.0942 L54.0708 55.835 L62.3347 54.1683 L67.0106 54.1683 L67.0106 84.7931 L74.6494 84.7931 L74.6494 88.7283 L54.7421 88.7283 L54.7421 84.7931 Z" fill="#000000" fill-rule="evenodd" fill-opacity="1" /><path clip-path="url(#clip480)" d="M84.0938 82.8487 L88.978 82.8487 L88.978 88.7283 L84.0938 88.7283 L84.0938 82.8487 Z" fill="#000000" fill-rule="evenodd" fill-opacity="1" /><path clip-path="url(#clip480)" d="M99.2095 54.1683 L117.566 54.1683 L117.566 58.1035 L103.492 58.1035 L103.492 66.5756 Q104.51 66.2284 105.529 66.0664 Q106.547 65.8812 107.566 65.8812 Q113.353 65.8812 116.733 69.0525 Q120.112 72.2238 120.112 77.6404 Q120.112 83.2191 116.64 86.3209 Q113.168 89.3996 106.848 89.3996 Q104.672 89.3996 102.404 89.0292 Q100.159 88.6589 97.7511 87.9181 L97.7511 83.2191 Q99.8345 84.3533 102.057 84.9089 Q104.279 85.4644 106.756 85.4644 Q110.76 85.4644 113.098 83.358 Q115.436 81.2515 115.436 77.6404 Q115.436 74.0293 113.098 71.9228 Q110.76 69.8164 106.756 69.8164 Q104.881 69.8164 103.006 70.233 Q101.154 70.6497 99.2095 71.5293 L99.2095 54.1683 Z" fill="#000000" fill-rule="evenodd" fill-opacity="1" /><polyline clip-path="url(#clip482)" style="stroke:#009af9; stroke-linecap:butt; stroke-linejoin:round; stroke-width:4; stroke-opacity:1; fill:none" points="
  218.281,1384.24 218.302,1384.24 218.509,1384.24 219.238,1384.24 220.307,1384.24 221.675,1384.23 223.419,1384.2 225.517,1384.13 227.991,1383.99 230.846,1383.72 
  234.127,1383.23 237.885,1382.39 242.197,1381.03 247.152,1378.85 252.854,1375.46 259.422,1370.34 266.998,1362.73 275.739,1351.67 285.83,1335.95 297.466,1314.09 
  310.847,1284.51 326.14,1245.71 343.454,1196.63 362.838,1137.02 384.325,1067.55 407.924,989.919 433.688,906.518 461.742,820.125 492.319,733.469 525.719,649.016 
  562.231,568.86 602.113,494.445 645.973,426.016 695.363,362.63 753.06,303.215 827.483,244.74 893.743,205.927 980.914,168.862 1071.66,142.351 1195.66,119.232 
  1301.29,107.154 1425.87,98.4221 1539.02,93.5907 1643.74,90.8134 1748.41,89.0655 1857.31,87.8178 1955.68,87.1743 2053.75,86.7436 2158.36,86.3759 2259.99,86.2265 
  2290.59,86.1857 
  "/>
<polyline clip-path="url(#clip482)" style="stroke:#e26f46; stroke-linecap:butt; stroke-linejoin:round; stroke-width:4; stroke-opacity:1; fill:none" points="
  218.281,1384.24 218.302,1383.89 218.509,1380.4 219.238,1368.23 220.307,1350.73 221.675,1328.87 223.419,1301.9 225.517,1270.75 227.991,1235.75 230.846,1197.61 
  234.127,1156.65 237.885,1113.26 242.197,1067.84 247.152,1021 252.854,973.563 259.422,926.652 266.998,881.638 275.739,840.133 285.83,803.899 297.466,774.702 
  310.847,754.075 326.14,742.977 343.454,741.423 362.838,748.288 384.325,761.47 407.924,778.303 433.688,796.103 461.742,812.629 492.319,826.395 525.719,836.775 
  562.231,843.955 602.113,848.725 645.973,852.093 695.363,854.867 753.06,857.446 827.483,859.979 893.743,861.57 980.914,863.01 1071.66,863.995 1195.66,864.851 
  1301.29,865.277 1425.87,865.571 1539.02,865.79 1643.74,865.838 1748.41,865.902 1857.31,866.006 1955.68,865.952 2053.75,865.995 2158.36,866.043 2259.99,865.983 
  2290.59,865.997 
  "/>
<path clip-path="url(#clip480)" d="
M1467.39 248.629 L2279.53 248.629 L2279.53 93.1086 L1467.39 93.1086  Z
  " fill="#ffffff" fill-rule="evenodd" fill-opacity="1"/>
<polyline clip-path="url(#clip480)" style="stroke:#000000; stroke-linecap:butt; stroke-linejoin:round; stroke-width:4; stroke-opacity:1; fill:none" points="
  1467.39,248.629 2279.53,248.629 2279.53,93.1086 1467.39,93.1086 1467.39,248.629 
  "/>
<polyline clip-path="url(#clip480)" style="stroke:#009af9; stroke-linecap:butt; stroke-linejoin:round; stroke-width:4; stroke-opacity:1; fill:none" points="
  1491.79,144.949 1638.24,144.949 
  "/>
<path clip-path="url(#clip480)" d="M1667.32 131.511 L1667.32 144.497 L1673.2 144.497 Q1676.46 144.497 1678.25 142.807 Q1680.03 141.118 1680.03 137.993 Q1680.03 134.891 1678.25 133.201 Q1676.46 131.511 1673.2 131.511 L1667.32 131.511 M1662.64 127.669 L1673.2 127.669 Q1679.01 127.669 1681.97 130.307 Q1684.96 132.923 1684.96 137.993 Q1684.96 143.108 1681.97 145.724 Q1679.01 148.34 1673.2 148.34 L1667.32 148.34 L1667.32 162.229 L1662.64 162.229 L1662.64 127.669 Z" fill="#000000" fill-rule="evenodd" fill-opacity="1" /><path clip-path="url(#clip480)" d="M1712.6 146.581 L1712.6 162.229 L1708.34 162.229 L1708.34 146.719 Q1708.34 143.039 1706.9 141.21 Q1705.47 139.382 1702.6 139.382 Q1699.15 139.382 1697.16 141.581 Q1695.17 143.78 1695.17 147.576 L1695.17 162.229 L1690.89 162.229 L1690.89 126.21 L1695.17 126.21 L1695.17 140.331 Q1696.7 137.993 1698.76 136.835 Q1700.84 135.678 1703.55 135.678 Q1708.01 135.678 1710.31 138.456 Q1712.6 141.21 1712.6 146.581 Z" fill="#000000" fill-rule="evenodd" fill-opacity="1" /><path clip-path="url(#clip480)" d="M1731.14 139.289 Q1727.71 139.289 1725.72 141.974 Q1723.73 144.636 1723.73 149.289 Q1723.73 153.942 1725.7 156.627 Q1727.69 159.289 1731.14 159.289 Q1734.54 159.289 1736.53 156.604 Q1738.52 153.918 1738.52 149.289 Q1738.52 144.682 1736.53 141.997 Q1734.54 139.289 1731.14 139.289 M1731.14 135.678 Q1736.7 135.678 1739.87 139.289 Q1743.04 142.9 1743.04 149.289 Q1743.04 155.655 1739.87 159.289 Q1736.7 162.9 1731.14 162.9 Q1725.56 162.9 1722.39 159.289 Q1719.24 155.655 1719.24 149.289 Q1719.24 142.9 1722.39 139.289 Q1725.56 135.678 1731.14 135.678 Z" fill="#000000" fill-rule="evenodd" fill-opacity="1" /><path clip-path="url(#clip480)" d="M1754.31 128.942 L1754.31 136.303 L1763.08 136.303 L1763.08 139.613 L1754.31 139.613 L1754.31 153.687 Q1754.31 156.858 1755.17 157.761 Q1756.05 158.664 1758.71 158.664 L1763.08 158.664 L1763.08 162.229 L1758.71 162.229 Q1753.78 162.229 1751.9 160.4 Q1750.03 158.548 1750.03 153.687 L1750.03 139.613 L1746.9 139.613 L1746.9 136.303 L1750.03 136.303 L1750.03 128.942 L1754.31 128.942 Z" fill="#000000" fill-rule="evenodd" fill-opacity="1" /><path clip-path="url(#clip480)" d="M1778.73 139.289 Q1775.31 139.289 1773.32 141.974 Q1771.32 144.636 1771.32 149.289 Q1771.32 153.942 1773.29 156.627 Q1775.28 159.289 1778.73 159.289 Q1782.13 159.289 1784.13 156.604 Q1786.12 153.918 1786.12 149.289 Q1786.12 144.682 1784.13 141.997 Q1782.13 139.289 1778.73 139.289 M1778.73 135.678 Q1784.29 135.678 1787.46 139.289 Q1790.63 142.9 1790.63 149.289 Q1790.63 155.655 1787.46 159.289 Q1784.29 162.9 1778.73 162.9 Q1773.15 162.9 1769.98 159.289 Q1766.83 155.655 1766.83 149.289 Q1766.83 142.9 1769.98 139.289 Q1773.15 135.678 1778.73 135.678 Z" fill="#000000" fill-rule="evenodd" fill-opacity="1" /><path clip-path="url(#clip480)" d="M1819.24 146.581 L1819.24 162.229 L1814.98 162.229 L1814.98 146.719 Q1814.98 143.039 1813.55 141.21 Q1812.11 139.382 1809.24 139.382 Q1805.79 139.382 1803.8 141.581 Q1801.81 143.78 1801.81 147.576 L1801.81 162.229 L1797.53 162.229 L1797.53 136.303 L1801.81 136.303 L1801.81 140.331 Q1803.34 137.993 1805.4 136.835 Q1807.48 135.678 1810.19 135.678 Q1814.66 135.678 1816.95 138.456 Q1819.24 141.21 1819.24 146.581 Z" fill="#000000" fill-rule="evenodd" fill-opacity="1" /><path clip-path="url(#clip480)" d="M1864.36 146.581 L1864.36 162.229 L1860.1 162.229 L1860.1 146.719 Q1860.1 143.039 1858.66 141.21 Q1857.23 139.382 1854.36 139.382 Q1850.91 139.382 1848.92 141.581 Q1846.93 143.78 1846.93 147.576 L1846.93 162.229 L1842.64 162.229 L1842.64 136.303 L1846.93 136.303 L1846.93 140.331 Q1848.45 137.993 1850.51 136.835 Q1852.6 135.678 1855.31 135.678 Q1859.77 135.678 1862.06 138.456 Q1864.36 141.21 1864.36 146.581 Z" fill="#000000" fill-rule="evenodd" fill-opacity="1" /><path clip-path="url(#clip480)" d="M1872.41 151.997 L1872.41 136.303 L1876.67 136.303 L1876.67 151.835 Q1876.67 155.516 1878.11 157.368 Q1879.54 159.196 1882.41 159.196 Q1885.86 159.196 1887.85 156.997 Q1889.87 154.798 1889.87 151.002 L1889.87 136.303 L1894.12 136.303 L1894.12 162.229 L1889.87 162.229 L1889.87 158.247 Q1888.31 160.608 1886.25 161.766 Q1884.22 162.9 1881.51 162.9 Q1877.04 162.9 1874.73 160.122 Q1872.41 157.344 1872.41 151.997 M1883.13 135.678 L1883.13 135.678 Z" fill="#000000" fill-rule="evenodd" fill-opacity="1" /><path clip-path="url(#clip480)" d="M1923.08 141.28 Q1924.68 138.409 1926.9 137.044 Q1929.12 135.678 1932.13 135.678 Q1936.18 135.678 1938.38 138.525 Q1940.58 141.349 1940.58 146.581 L1940.58 162.229 L1936.3 162.229 L1936.3 146.719 Q1936.3 142.993 1934.98 141.187 Q1933.66 139.382 1930.95 139.382 Q1927.64 139.382 1925.72 141.581 Q1923.8 143.78 1923.8 147.576 L1923.8 162.229 L1919.52 162.229 L1919.52 146.719 Q1919.52 142.969 1918.2 141.187 Q1916.88 139.382 1914.12 139.382 Q1910.86 139.382 1908.94 141.604 Q1907.02 143.803 1907.02 147.576 L1907.02 162.229 L1902.74 162.229 L1902.74 136.303 L1907.02 136.303 L1907.02 140.331 Q1908.48 137.946 1910.51 136.812 Q1912.55 135.678 1915.35 135.678 Q1918.18 135.678 1920.14 137.113 Q1922.13 138.548 1923.08 141.28 Z" fill="#000000" fill-rule="evenodd" fill-opacity="1" /><path clip-path="url(#clip480)" d="M1967.69 149.289 Q1967.69 144.59 1965.74 141.928 Q1963.82 139.243 1960.44 139.243 Q1957.06 139.243 1955.12 141.928 Q1953.2 144.59 1953.2 149.289 Q1953.2 153.988 1955.12 156.673 Q1957.06 159.335 1960.44 159.335 Q1963.82 159.335 1965.74 156.673 Q1967.69 153.988 1967.69 149.289 M1953.2 140.238 Q1954.54 137.923 1956.58 136.812 Q1958.64 135.678 1961.49 135.678 Q1966.21 135.678 1969.15 139.428 Q1972.11 143.178 1972.11 149.289 Q1972.11 155.4 1969.15 159.15 Q1966.21 162.9 1961.49 162.9 Q1958.64 162.9 1956.58 161.789 Q1954.54 160.655 1953.2 158.34 L1953.2 162.229 L1948.92 162.229 L1948.92 126.21 L1953.2 126.21 L1953.2 140.238 Z" fill="#000000" fill-rule="evenodd" fill-opacity="1" /><path clip-path="url(#clip480)" d="M2001.35 148.201 L2001.35 150.284 L1981.76 150.284 Q1982.04 154.682 1984.4 156.997 Q1986.79 159.289 1991.02 159.289 Q1993.48 159.289 1995.77 158.687 Q1998.08 158.085 2000.35 156.881 L2000.35 160.909 Q1998.06 161.881 1995.65 162.391 Q1993.24 162.9 1990.77 162.9 Q1984.56 162.9 1980.93 159.289 Q1977.32 155.678 1977.32 149.52 Q1977.32 143.155 1980.74 139.428 Q1984.19 135.678 1990.03 135.678 Q1995.26 135.678 1998.29 139.057 Q2001.35 142.414 2001.35 148.201 M1997.09 146.951 Q1997.04 143.456 1995.12 141.372 Q1993.22 139.289 1990.07 139.289 Q1986.51 139.289 1984.36 141.303 Q1982.23 143.317 1981.9 146.974 L1997.09 146.951 Z" fill="#000000" fill-rule="evenodd" fill-opacity="1" /><path clip-path="url(#clip480)" d="M2023.36 140.284 Q2022.64 139.868 2021.79 139.682 Q2020.95 139.474 2019.93 139.474 Q2016.32 139.474 2014.38 141.835 Q2012.46 144.173 2012.46 148.571 L2012.46 162.229 L2008.18 162.229 L2008.18 136.303 L2012.46 136.303 L2012.46 140.331 Q2013.8 137.969 2015.95 136.835 Q2018.11 135.678 2021.18 135.678 Q2021.62 135.678 2022.16 135.747 Q2022.69 135.794 2023.34 135.909 L2023.36 140.284 Z" fill="#000000" fill-rule="evenodd" fill-opacity="1" /><polyline clip-path="url(#clip480)" style="stroke:#e26f46; stroke-linecap:butt; stroke-linejoin:round; stroke-width:4; stroke-opacity:1; fill:none" points="
  1491.79,196.789 1638.24,196.789 
  "/>
<path clip-path="url(#clip480)" d="M1662.64 179.509 L1684.5 179.509 L1684.5 183.444 L1667.32 183.444 L1667.32 193.675 L1683.78 193.675 L1683.78 197.61 L1667.32 197.61 L1667.32 210.133 L1684.91 210.133 L1684.91 214.069 L1662.64 214.069 L1662.64 179.509 Z" fill="#000000" fill-rule="evenodd" fill-opacity="1" /><path clip-path="url(#clip480)" d="M1713.96 188.143 L1704.59 200.759 L1714.45 214.069 L1709.43 214.069 L1701.88 203.883 L1694.33 214.069 L1689.31 214.069 L1699.38 200.504 L1690.17 188.143 L1695.19 188.143 L1702.07 197.379 L1708.94 188.143 L1713.96 188.143 Z" fill="#000000" fill-rule="evenodd" fill-opacity="1" /><path clip-path="url(#clip480)" d="M1738.29 189.138 L1738.29 193.12 Q1736.49 192.124 1734.66 191.638 Q1732.85 191.129 1731 191.129 Q1726.86 191.129 1724.57 193.768 Q1722.27 196.384 1722.27 201.129 Q1722.27 205.874 1724.57 208.513 Q1726.86 211.129 1731 211.129 Q1732.85 211.129 1734.66 210.643 Q1736.49 210.133 1738.29 209.138 L1738.29 213.073 Q1736.51 213.907 1734.59 214.323 Q1732.69 214.74 1730.54 214.74 Q1724.68 214.74 1721.23 211.059 Q1717.78 207.379 1717.78 201.129 Q1717.78 194.786 1721.26 191.152 Q1724.75 187.518 1730.82 187.518 Q1732.78 187.518 1734.66 187.935 Q1736.53 188.328 1738.29 189.138 Z" fill="#000000" fill-rule="evenodd" fill-opacity="1" /><path clip-path="url(#clip480)" d="M1745.7 188.143 L1749.96 188.143 L1749.96 214.069 L1745.7 214.069 L1745.7 188.143 M1745.7 178.05 L1749.96 178.05 L1749.96 183.444 L1745.7 183.444 L1745.7 178.05 Z" fill="#000000" fill-rule="evenodd" fill-opacity="1" /><path clip-path="url(#clip480)" d="M1763.08 180.782 L1763.08 188.143 L1771.86 188.143 L1771.86 191.453 L1763.08 191.453 L1763.08 205.527 Q1763.08 208.698 1763.94 209.601 Q1764.82 210.504 1767.48 210.504 L1771.86 210.504 L1771.86 214.069 L1767.48 214.069 Q1762.55 214.069 1760.68 212.24 Q1758.8 210.388 1758.8 205.527 L1758.8 191.453 L1755.68 191.453 L1755.68 188.143 L1758.8 188.143 L1758.8 180.782 L1763.08 180.782 Z" fill="#000000" fill-rule="evenodd" fill-opacity="1" /><path clip-path="url(#clip480)" d="M1799.63 200.041 L1799.63 202.124 L1780.05 202.124 Q1780.33 206.522 1782.69 208.837 Q1785.07 211.129 1789.31 211.129 Q1791.76 211.129 1794.06 210.527 Q1796.37 209.925 1798.64 208.721 L1798.64 212.749 Q1796.35 213.721 1793.94 214.231 Q1791.53 214.74 1789.06 214.74 Q1782.85 214.74 1779.22 211.129 Q1775.61 207.518 1775.61 201.36 Q1775.61 194.995 1779.03 191.268 Q1782.48 187.518 1788.32 187.518 Q1793.55 187.518 1796.58 190.897 Q1799.63 194.254 1799.63 200.041 M1795.38 198.791 Q1795.33 195.296 1793.41 193.212 Q1791.51 191.129 1788.36 191.129 Q1784.8 191.129 1782.64 193.143 Q1780.51 195.157 1780.19 198.814 L1795.38 198.791 Z" fill="#000000" fill-rule="evenodd" fill-opacity="1" /><path clip-path="url(#clip480)" d="M1823.69 192.078 L1823.69 178.05 L1827.94 178.05 L1827.94 214.069 L1823.69 214.069 L1823.69 210.18 Q1822.34 212.495 1820.28 213.629 Q1818.25 214.74 1815.38 214.74 Q1810.68 214.74 1807.71 210.99 Q1804.77 207.24 1804.77 201.129 Q1804.77 195.018 1807.71 191.268 Q1810.68 187.518 1815.38 187.518 Q1818.25 187.518 1820.28 188.652 Q1822.34 189.763 1823.69 192.078 M1809.17 201.129 Q1809.17 205.828 1811.09 208.513 Q1813.04 211.175 1816.42 211.175 Q1819.8 211.175 1821.74 208.513 Q1823.69 205.828 1823.69 201.129 Q1823.69 196.43 1821.74 193.768 Q1819.8 191.083 1816.42 191.083 Q1813.04 191.083 1811.09 193.768 Q1809.17 196.43 1809.17 201.129 Z" fill="#000000" fill-rule="evenodd" fill-opacity="1" /><path clip-path="url(#clip480)" d="M1868.31 188.907 L1868.31 192.934 Q1866.51 192.009 1864.56 191.546 Q1862.62 191.083 1860.54 191.083 Q1857.37 191.083 1855.77 192.055 Q1854.19 193.027 1854.19 194.971 Q1854.19 196.453 1855.33 197.309 Q1856.46 198.143 1859.89 198.907 L1861.35 199.231 Q1865.88 200.203 1867.78 201.985 Q1869.7 203.745 1869.7 206.916 Q1869.7 210.527 1866.83 212.633 Q1863.99 214.74 1858.99 214.74 Q1856.9 214.74 1854.63 214.323 Q1852.39 213.93 1849.89 213.12 L1849.89 208.721 Q1852.25 209.948 1854.54 210.573 Q1856.83 211.175 1859.08 211.175 Q1862.09 211.175 1863.71 210.157 Q1865.33 209.115 1865.33 207.24 Q1865.33 205.504 1864.15 204.578 Q1862.99 203.652 1859.03 202.796 L1857.55 202.448 Q1853.59 201.615 1851.83 199.902 Q1850.07 198.166 1850.07 195.157 Q1850.07 191.499 1852.67 189.509 Q1855.26 187.518 1860.03 187.518 Q1862.39 187.518 1864.47 187.865 Q1866.56 188.212 1868.31 188.907 Z" fill="#000000" fill-rule="evenodd" fill-opacity="1" /><path clip-path="url(#clip480)" d="M1880.7 180.782 L1880.7 188.143 L1889.47 188.143 L1889.47 191.453 L1880.7 191.453 L1880.7 205.527 Q1880.7 208.698 1881.56 209.601 Q1882.43 210.504 1885.1 210.504 L1889.47 210.504 L1889.47 214.069 L1885.1 214.069 Q1880.17 214.069 1878.29 212.24 Q1876.42 210.388 1876.42 205.527 L1876.42 191.453 L1873.29 191.453 L1873.29 188.143 L1876.42 188.143 L1876.42 180.782 L1880.7 180.782 Z" fill="#000000" fill-rule="evenodd" fill-opacity="1" /><path clip-path="url(#clip480)" d="M1906.86 201.036 Q1901.69 201.036 1899.7 202.217 Q1897.71 203.397 1897.71 206.245 Q1897.71 208.513 1899.19 209.856 Q1900.7 211.175 1903.27 211.175 Q1906.81 211.175 1908.94 208.675 Q1911.09 206.152 1911.09 201.985 L1911.09 201.036 L1906.86 201.036 M1915.35 199.277 L1915.35 214.069 L1911.09 214.069 L1911.09 210.133 Q1909.63 212.495 1907.46 213.629 Q1905.28 214.74 1902.13 214.74 Q1898.15 214.74 1895.79 212.518 Q1893.45 210.272 1893.45 206.522 Q1893.45 202.147 1896.37 199.925 Q1899.31 197.703 1905.12 197.703 L1911.09 197.703 L1911.09 197.286 Q1911.09 194.347 1909.15 192.749 Q1907.23 191.129 1903.73 191.129 Q1901.51 191.129 1899.4 191.661 Q1897.3 192.194 1895.35 193.259 L1895.35 189.323 Q1897.69 188.421 1899.89 187.981 Q1902.09 187.518 1904.17 187.518 Q1909.8 187.518 1912.57 190.434 Q1915.35 193.351 1915.35 199.277 Z" fill="#000000" fill-rule="evenodd" fill-opacity="1" /><path clip-path="url(#clip480)" d="M1928.34 180.782 L1928.34 188.143 L1937.11 188.143 L1937.11 191.453 L1928.34 191.453 L1928.34 205.527 Q1928.34 208.698 1929.19 209.601 Q1930.07 210.504 1932.74 210.504 L1937.11 210.504 L1937.11 214.069 L1932.74 214.069 Q1927.81 214.069 1925.93 212.24 Q1924.06 210.388 1924.06 205.527 L1924.06 191.453 L1920.93 191.453 L1920.93 188.143 L1924.06 188.143 L1924.06 180.782 L1928.34 180.782 Z" fill="#000000" fill-rule="evenodd" fill-opacity="1" /><path clip-path="url(#clip480)" d="M1964.89 200.041 L1964.89 202.124 L1945.31 202.124 Q1945.58 206.522 1947.94 208.837 Q1950.33 211.129 1954.56 211.129 Q1957.02 211.129 1959.31 210.527 Q1961.62 209.925 1963.89 208.721 L1963.89 212.749 Q1961.6 213.721 1959.19 214.231 Q1956.79 214.74 1954.31 214.74 Q1948.11 214.74 1944.47 211.129 Q1940.86 207.518 1940.86 201.36 Q1940.86 194.995 1944.29 191.268 Q1947.74 187.518 1953.57 187.518 Q1958.8 187.518 1961.83 190.897 Q1964.89 194.254 1964.89 200.041 M1960.63 198.791 Q1960.58 195.296 1958.66 193.212 Q1956.76 191.129 1953.62 191.129 Q1950.05 191.129 1947.9 193.143 Q1945.77 195.157 1945.44 198.814 L1960.63 198.791 Z" fill="#000000" fill-rule="evenodd" fill-opacity="1" /><path clip-path="url(#clip480)" d="M1991.07 210.18 L1991.07 223.93 L1986.79 223.93 L1986.79 188.143 L1991.07 188.143 L1991.07 192.078 Q1992.41 189.763 1994.45 188.652 Q1996.51 187.518 1999.36 187.518 Q2004.08 187.518 2007.02 191.268 Q2009.98 195.018 2009.98 201.129 Q2009.98 207.24 2007.02 210.99 Q2004.08 214.74 1999.36 214.74 Q1996.51 214.74 1994.45 213.629 Q1992.41 212.495 1991.07 210.18 M2005.56 201.129 Q2005.56 196.43 2003.61 193.768 Q2001.69 191.083 1998.31 191.083 Q1994.93 191.083 1992.99 193.768 Q1991.07 196.43 1991.07 201.129 Q1991.07 205.828 1992.99 208.513 Q1994.93 211.175 1998.31 211.175 Q2001.69 211.175 2003.61 208.513 Q2005.56 205.828 2005.56 201.129 Z" fill="#000000" fill-rule="evenodd" fill-opacity="1" /><path clip-path="url(#clip480)" d="M2027.09 191.129 Q2023.66 191.129 2021.67 193.814 Q2019.68 196.476 2019.68 201.129 Q2019.68 205.782 2021.65 208.467 Q2023.64 211.129 2027.09 211.129 Q2030.49 211.129 2032.48 208.444 Q2034.47 205.758 2034.47 201.129 Q2034.47 196.522 2032.48 193.837 Q2030.49 191.129 2027.09 191.129 M2027.09 187.518 Q2032.64 187.518 2035.81 191.129 Q2038.99 194.74 2038.99 201.129 Q2038.99 207.495 2035.81 211.129 Q2032.64 214.74 2027.09 214.74 Q2021.51 214.74 2018.34 211.129 Q2015.19 207.495 2015.19 201.129 Q2015.19 194.74 2018.34 191.129 Q2021.51 187.518 2027.09 187.518 Z" fill="#000000" fill-rule="evenodd" fill-opacity="1" /><path clip-path="url(#clip480)" d="M2050.17 210.18 L2050.17 223.93 L2045.88 223.93 L2045.88 188.143 L2050.17 188.143 L2050.17 192.078 Q2051.51 189.763 2053.55 188.652 Q2055.61 187.518 2058.45 187.518 Q2063.17 187.518 2066.11 191.268 Q2069.08 195.018 2069.08 201.129 Q2069.08 207.24 2066.11 210.99 Q2063.17 214.74 2058.45 214.74 Q2055.61 214.74 2053.55 213.629 Q2051.51 212.495 2050.17 210.18 M2064.66 201.129 Q2064.66 196.43 2062.71 193.768 Q2060.79 191.083 2057.41 191.083 Q2054.03 191.083 2052.09 193.768 Q2050.17 196.43 2050.17 201.129 Q2050.17 205.828 2052.09 208.513 Q2054.03 211.175 2057.41 211.175 Q2060.79 211.175 2062.71 208.513 Q2064.66 205.828 2064.66 201.129 Z" fill="#000000" fill-rule="evenodd" fill-opacity="1" /><path clip-path="url(#clip480)" d="M2075.7 203.837 L2075.7 188.143 L2079.96 188.143 L2079.96 203.675 Q2079.96 207.356 2081.39 209.208 Q2082.83 211.036 2085.7 211.036 Q2089.15 211.036 2091.14 208.837 Q2093.15 206.638 2093.15 202.842 L2093.15 188.143 L2097.41 188.143 L2097.41 214.069 L2093.15 214.069 L2093.15 210.087 Q2091.6 212.448 2089.54 213.606 Q2087.5 214.74 2084.79 214.74 Q2080.33 214.74 2078.01 211.962 Q2075.7 209.184 2075.7 203.837 M2086.42 187.518 L2086.42 187.518 Z" fill="#000000" fill-rule="evenodd" fill-opacity="1" /><path clip-path="url(#clip480)" d="M2106.18 178.05 L2110.44 178.05 L2110.44 214.069 L2106.18 214.069 L2106.18 178.05 Z" fill="#000000" fill-rule="evenodd" fill-opacity="1" /><path clip-path="url(#clip480)" d="M2131.14 201.036 Q2125.98 201.036 2123.98 202.217 Q2121.99 203.397 2121.99 206.245 Q2121.99 208.513 2123.48 209.856 Q2124.98 211.175 2127.55 211.175 Q2131.09 211.175 2133.22 208.675 Q2135.37 206.152 2135.37 201.985 L2135.37 201.036 L2131.14 201.036 M2139.63 199.277 L2139.63 214.069 L2135.37 214.069 L2135.37 210.133 Q2133.92 212.495 2131.74 213.629 Q2129.56 214.74 2126.42 214.74 Q2122.43 214.74 2120.07 212.518 Q2117.73 210.272 2117.73 206.522 Q2117.73 202.147 2120.65 199.925 Q2123.59 197.703 2129.4 197.703 L2135.37 197.703 L2135.37 197.286 Q2135.37 194.347 2133.43 192.749 Q2131.51 191.129 2128.01 191.129 Q2125.79 191.129 2123.68 191.661 Q2121.58 192.194 2119.63 193.259 L2119.63 189.323 Q2121.97 188.421 2124.17 187.981 Q2126.37 187.518 2128.45 187.518 Q2134.08 187.518 2136.85 190.434 Q2139.63 193.351 2139.63 199.277 Z" fill="#000000" fill-rule="evenodd" fill-opacity="1" /><path clip-path="url(#clip480)" d="M2152.62 180.782 L2152.62 188.143 L2161.39 188.143 L2161.39 191.453 L2152.62 191.453 L2152.62 205.527 Q2152.62 208.698 2153.48 209.601 Q2154.35 210.504 2157.02 210.504 L2161.39 210.504 L2161.39 214.069 L2157.02 214.069 Q2152.09 214.069 2150.21 212.24 Q2148.34 210.388 2148.34 205.527 L2148.34 191.453 L2145.21 191.453 L2145.21 188.143 L2148.34 188.143 L2148.34 180.782 L2152.62 180.782 Z" fill="#000000" fill-rule="evenodd" fill-opacity="1" /><path clip-path="url(#clip480)" d="M2166.99 188.143 L2171.25 188.143 L2171.25 214.069 L2166.99 214.069 L2166.99 188.143 M2166.99 178.05 L2171.25 178.05 L2171.25 183.444 L2166.99 183.444 L2166.99 178.05 Z" fill="#000000" fill-rule="evenodd" fill-opacity="1" /><path clip-path="url(#clip480)" d="M2190.21 191.129 Q2186.79 191.129 2184.79 193.814 Q2182.8 196.476 2182.8 201.129 Q2182.8 205.782 2184.77 208.467 Q2186.76 211.129 2190.21 211.129 Q2193.61 211.129 2195.6 208.444 Q2197.6 205.758 2197.6 201.129 Q2197.6 196.522 2195.6 193.837 Q2193.61 191.129 2190.21 191.129 M2190.21 187.518 Q2195.77 187.518 2198.94 191.129 Q2202.11 194.74 2202.11 201.129 Q2202.11 207.495 2198.94 211.129 Q2195.77 214.74 2190.21 214.74 Q2184.63 214.74 2181.46 211.129 Q2178.31 207.495 2178.31 201.129 Q2178.31 194.74 2181.46 191.129 Q2184.63 187.518 2190.21 187.518 Z" fill="#000000" fill-rule="evenodd" fill-opacity="1" /><path clip-path="url(#clip480)" d="M2230.72 198.421 L2230.72 214.069 L2226.46 214.069 L2226.46 198.559 Q2226.46 194.879 2225.03 193.05 Q2223.59 191.222 2220.72 191.222 Q2217.27 191.222 2215.28 193.421 Q2213.29 195.62 2213.29 199.416 L2213.29 214.069 L2209.01 214.069 L2209.01 188.143 L2213.29 188.143 L2213.29 192.171 Q2214.82 189.833 2216.88 188.675 Q2218.96 187.518 2221.67 187.518 Q2226.14 187.518 2228.43 190.296 Q2230.72 193.05 2230.72 198.421 Z" fill="#000000" fill-rule="evenodd" fill-opacity="1" /></svg>
