<?xml version="1.0" encoding="utf-8"?>
<svg xmlns="http://www.w3.org/2000/svg" xmlns:xlink="http://www.w3.org/1999/xlink" width="600" height="400" viewBox="0 0 2400 1600">
<defs>
  <clipPath id="clip770">
    <rect x="0" y="0" width="2400" height="1600"/>
  </clipPath>
</defs>
<path clip-path="url(#clip770)" d="
M0 1600 L2400 1600 L2400 0 L0 0  Z
  " fill="#ffffff" fill-rule="evenodd" fill-opacity="1"/>
<defs>
  <clipPath id="clip771">
    <rect x="480" y="0" width="1681" height="1600"/>
  </clipPath>
</defs>
<path clip-path="url(#clip770)" d="
M86.9921 1505.26 L2352.76 1505.26 L2352.76 47.2441 L86.9921 47.2441  Z
  " fill="#ffffff" fill-rule="evenodd" fill-opacity="1"/>
<defs>
  <clipPath id="clip772">
    <rect x="86" y="47" width="2267" height="1459"/>
  </clipPath>
</defs>
<polyline clip-path="url(#clip772)" style="stroke:#000000; stroke-width:2; stroke-opacity:0.1; fill:none" points="
  369.385,1505.26 369.385,47.2441 
  "/>
<polyline clip-path="url(#clip772)" style="stroke:#000000; stroke-width:2; stroke-opacity:0.1; fill:none" points="
  652.881,1505.26 652.881,47.2441 
  "/>
<polyline clip-path="url(#clip772)" style="stroke:#000000; stroke-width:2; stroke-opacity:0.1; fill:none" points="
  936.378,1505.26 936.378,47.2441 
  "/>
<polyline clip-path="url(#clip772)" style="stroke:#000000; stroke-width:2; stroke-opacity:0.1; fill:none" points="
  1219.87,1505.26 1219.87,47.2441 
  "/>
<polyline clip-path="url(#clip772)" style="stroke:#000000; stroke-width:2; stroke-opacity:0.1; fill:none" points="
  1503.37,1505.26 1503.37,47.2441 
  "/>
<polyline clip-path="url(#clip772)" style="stroke:#000000; stroke-width:2; stroke-opacity:0.1; fill:none" points="
  1786.87,1505.26 1786.87,47.2441 
  "/>
<polyline clip-path="url(#clip772)" style="stroke:#000000; stroke-width:2; stroke-opacity:0.1; fill:none" points="
  2070.36,1505.26 2070.36,47.2441 
  "/>
<polyline clip-path="url(#clip770)" style="stroke:#000000; stroke-width:4; stroke-opacity:1; fill:none" points="
  86.9921,1505.26 2352.76,1505.26 
  "/>
<polyline clip-path="url(#clip770)" style="stroke:#000000; stroke-width:4; stroke-opacity:1; fill:none" points="
  369.385,1505.26 369.385,1487.76 
  "/>
<polyline clip-path="url(#clip770)" style="stroke:#000000; stroke-width:4; stroke-opacity:1; fill:none" points="
  652.881,1505.26 652.881,1487.76 
  "/>
<polyline clip-path="url(#clip770)" style="stroke:#000000; stroke-width:4; stroke-opacity:1; fill:none" points="
  936.378,1505.26 936.378,1487.76 
  "/>
<polyline clip-path="url(#clip770)" style="stroke:#000000; stroke-width:4; stroke-opacity:1; fill:none" points="
  1219.87,1505.26 1219.87,1487.76 
  "/>
<polyline clip-path="url(#clip770)" style="stroke:#000000; stroke-width:4; stroke-opacity:1; fill:none" points="
  1503.37,1505.26 1503.37,1487.76 
  "/>
<polyline clip-path="url(#clip770)" style="stroke:#000000; stroke-width:4; stroke-opacity:1; fill:none" points="
  1786.87,1505.26 1786.87,1487.76 
  "/>
<polyline clip-path="url(#clip770)" style="stroke:#000000; stroke-width:4; stroke-opacity:1; fill:none" points="
  2070.36,1505.26 2070.36,1487.76 
  "/>
<path clip-path="url(#clip770)" d="M 0 0 M323.945 1549.1 L353.621 1549.1 L353.621 1553.04 L323.945 1553.04 L323.945 1549.1 Z" fill="#000000" fill-rule="evenodd" fill-opacity="1" /><path clip-path="url(#clip770)" d="M 0 0 M364.524 1562 L372.162 1562 L372.162 1535.63 L363.852 1537.3 L363.852 1533.04 L372.116 1531.37 L376.792 1531.37 L376.792 1562 L384.431 1562 L384.431 1565.93 L364.524 1565.93 L364.524 1562 Z" fill="#000000" fill-rule="evenodd" fill-opacity="1" /><path clip-path="url(#clip770)" d="M 0 0 M393.922 1531.37 L412.278 1531.37 L412.278 1535.31 L398.204 1535.31 L398.204 1543.78 Q399.222 1543.43 400.241 1543.27 Q401.259 1543.08 402.278 1543.08 Q408.065 1543.08 411.445 1546.26 Q414.824 1549.43 414.824 1554.84 Q414.824 1560.42 411.352 1563.52 Q407.88 1566.6 401.56 1566.6 Q399.384 1566.6 397.116 1566.23 Q394.871 1565.86 392.463 1565.12 L392.463 1560.42 Q394.547 1561.56 396.769 1562.11 Q398.991 1562.67 401.468 1562.67 Q405.472 1562.67 407.81 1560.56 Q410.148 1558.46 410.148 1554.84 Q410.148 1551.23 407.81 1549.13 Q405.472 1547.02 401.468 1547.02 Q399.593 1547.02 397.718 1547.44 Q395.866 1547.85 393.922 1548.73 L393.922 1531.37 Z" fill="#000000" fill-rule="evenodd" fill-opacity="1" /><path clip-path="url(#clip770)" d="M 0 0 M606.944 1549.1 L636.62 1549.1 L636.62 1553.04 L606.944 1553.04 L606.944 1549.1 Z" fill="#000000" fill-rule="evenodd" fill-opacity="1" /><path clip-path="url(#clip770)" d="M 0 0 M647.522 1562 L655.161 1562 L655.161 1535.63 L646.851 1537.3 L646.851 1533.04 L655.115 1531.37 L659.791 1531.37 L659.791 1562 L667.43 1562 L667.43 1565.93 L647.522 1565.93 L647.522 1562 Z" fill="#000000" fill-rule="evenodd" fill-opacity="1" /><path clip-path="url(#clip770)" d="M 0 0 M686.874 1534.45 Q683.263 1534.45 681.434 1538.02 Q679.629 1541.56 679.629 1548.69 Q679.629 1555.79 681.434 1559.36 Q683.263 1562.9 686.874 1562.9 Q690.508 1562.9 692.314 1559.36 Q694.142 1555.79 694.142 1548.69 Q694.142 1541.56 692.314 1538.02 Q690.508 1534.45 686.874 1534.45 M686.874 1530.75 Q692.684 1530.75 695.74 1535.35 Q698.818 1539.94 698.818 1548.69 Q698.818 1557.41 695.74 1562.02 Q692.684 1566.6 686.874 1566.6 Q681.064 1566.6 677.985 1562.02 Q674.93 1557.41 674.93 1548.69 Q674.93 1539.94 677.985 1535.35 Q681.064 1530.75 686.874 1530.75 Z" fill="#000000" fill-rule="evenodd" fill-opacity="1" /><path clip-path="url(#clip770)" d="M 0 0 M906.019 1549.1 L935.695 1549.1 L935.695 1553.04 L906.019 1553.04 L906.019 1549.1 Z" fill="#000000" fill-rule="evenodd" fill-opacity="1" /><path clip-path="url(#clip770)" d="M 0 0 M945.834 1531.37 L964.19 1531.37 L964.19 1535.31 L950.116 1535.31 L950.116 1543.78 Q951.134 1543.43 952.153 1543.27 Q953.171 1543.08 954.19 1543.08 Q959.977 1543.08 963.357 1546.26 Q966.736 1549.43 966.736 1554.84 Q966.736 1560.42 963.264 1563.52 Q959.792 1566.6 953.472 1566.6 Q951.296 1566.6 949.028 1566.23 Q946.783 1565.86 944.375 1565.12 L944.375 1560.42 Q946.459 1561.56 948.681 1562.11 Q950.903 1562.67 953.38 1562.67 Q957.384 1562.67 959.722 1560.56 Q962.06 1558.46 962.06 1554.84 Q962.06 1551.23 959.722 1549.13 Q957.384 1547.02 953.38 1547.02 Q951.505 1547.02 949.63 1547.44 Q947.778 1547.85 945.834 1548.73 L945.834 1531.37 Z" fill="#000000" fill-rule="evenodd" fill-opacity="1" /><path clip-path="url(#clip770)" d="M 0 0 M1219.87 1534.45 Q1216.26 1534.45 1214.43 1538.02 Q1212.63 1541.56 1212.63 1548.69 Q1212.63 1555.79 1214.43 1559.36 Q1216.26 1562.9 1219.87 1562.9 Q1223.51 1562.9 1225.31 1559.36 Q1227.14 1555.79 1227.14 1548.69 Q1227.14 1541.56 1225.31 1538.02 Q1223.51 1534.45 1219.87 1534.45 M1219.87 1530.75 Q1225.68 1530.75 1228.74 1535.35 Q1231.82 1539.94 1231.82 1548.69 Q1231.82 1557.41 1228.74 1562.02 Q1225.68 1566.6 1219.87 1566.6 Q1214.06 1566.6 1210.99 1562.02 Q1207.93 1557.41 1207.93 1548.69 Q1207.93 1539.94 1210.99 1535.35 Q1214.06 1530.75 1219.87 1530.75 Z" fill="#000000" fill-rule="evenodd" fill-opacity="1" /><path clip-path="url(#clip770)" d="M 0 0 M1493.65 1531.37 L1512 1531.37 L1512 1535.31 L1497.93 1535.31 L1497.93 1543.78 Q1498.95 1543.43 1499.97 1543.27 Q1500.99 1543.08 1502 1543.08 Q1507.79 1543.08 1511.17 1546.26 Q1514.55 1549.43 1514.55 1554.84 Q1514.55 1560.42 1511.08 1563.52 Q1507.61 1566.6 1501.29 1566.6 Q1499.11 1566.6 1496.84 1566.23 Q1494.6 1565.86 1492.19 1565.12 L1492.19 1560.42 Q1494.27 1561.56 1496.5 1562.11 Q1498.72 1562.67 1501.19 1562.67 Q1505.2 1562.67 1507.54 1560.56 Q1509.88 1558.46 1509.88 1554.84 Q1509.88 1551.23 1507.54 1549.13 Q1505.2 1547.02 1501.19 1547.02 Q1499.32 1547.02 1497.44 1547.44 Q1495.59 1547.85 1493.65 1548.73 L1493.65 1531.37 Z" fill="#000000" fill-rule="evenodd" fill-opacity="1" /><path clip-path="url(#clip770)" d="M 0 0 M1761.55 1562 L1769.19 1562 L1769.19 1535.63 L1760.88 1537.3 L1760.88 1533.04 L1769.15 1531.37 L1773.82 1531.37 L1773.82 1562 L1781.46 1562 L1781.46 1565.93 L1761.55 1565.93 L1761.55 1562 Z" fill="#000000" fill-rule="evenodd" fill-opacity="1" /><path clip-path="url(#clip770)" d="M 0 0 M1800.91 1534.45 Q1797.3 1534.45 1795.47 1538.02 Q1793.66 1541.56 1793.66 1548.69 Q1793.66 1555.79 1795.47 1559.36 Q1797.3 1562.9 1800.91 1562.9 Q1804.54 1562.9 1806.35 1559.36 Q1808.17 1555.79 1808.17 1548.69 Q1808.17 1541.56 1806.35 1538.02 Q1804.54 1534.45 1800.91 1534.45 M1800.91 1530.75 Q1806.72 1530.75 1809.77 1535.35 Q1812.85 1539.94 1812.85 1548.69 Q1812.85 1557.41 1809.77 1562.02 Q1806.72 1566.6 1800.91 1566.6 Q1795.1 1566.6 1792.02 1562.02 Q1788.96 1557.41 1788.96 1548.69 Q1788.96 1539.94 1792.02 1535.35 Q1795.1 1530.75 1800.91 1530.75 Z" fill="#000000" fill-rule="evenodd" fill-opacity="1" /><path clip-path="url(#clip770)" d="M 0 0 M2045.55 1562 L2053.19 1562 L2053.19 1535.63 L2044.88 1537.3 L2044.88 1533.04 L2053.14 1531.37 L2057.82 1531.37 L2057.82 1562 L2065.46 1562 L2065.46 1565.93 L2045.55 1565.93 L2045.55 1562 Z" fill="#000000" fill-rule="evenodd" fill-opacity="1" /><path clip-path="url(#clip770)" d="M 0 0 M2074.95 1531.37 L2093.3 1531.37 L2093.3 1535.31 L2079.23 1535.31 L2079.23 1543.78 Q2080.25 1543.43 2081.27 1543.27 Q2082.28 1543.08 2083.3 1543.08 Q2089.09 1543.08 2092.47 1546.26 Q2095.85 1549.43 2095.85 1554.84 Q2095.85 1560.42 2092.38 1563.52 Q2088.9 1566.6 2082.59 1566.6 Q2080.41 1566.6 2078.14 1566.23 Q2075.9 1565.86 2073.49 1565.12 L2073.49 1560.42 Q2075.57 1561.56 2077.79 1562.11 Q2080.02 1562.67 2082.49 1562.67 Q2086.5 1562.67 2088.84 1560.56 Q2091.17 1558.46 2091.17 1554.84 Q2091.17 1551.23 2088.84 1549.13 Q2086.5 1547.02 2082.49 1547.02 Q2080.62 1547.02 2078.74 1547.44 Q2076.89 1547.85 2074.95 1548.73 L2074.95 1531.37 Z" fill="#000000" fill-rule="evenodd" fill-opacity="1" /><path clip-path="url(#clip770)" d="M 0 0 M1136.67 1651.05 Q1123.47 1651.05 1123.47 1632.14 Q1123.47 1624.66 1128.4 1614.48 L1134.7 1614.48 Q1130.15 1624.66 1130.15 1632.3 Q1130.15 1646.08 1137.22 1646.08 Q1143.68 1646.08 1143.68 1628.96 L1149.09 1628.96 Q1149.09 1646.08 1155.55 1646.08 Q1162.61 1646.08 1162.61 1632.3 Q1162.61 1624.66 1158.06 1614.48 L1164.37 1614.48 Q1169.3 1624.66 1169.3 1632.14 Q1169.3 1651.05 1156.09 1651.05 Q1147.43 1651.05 1146.38 1641.53 Q1145.08 1651.05 1136.67 1651.05 Z" fill="#000000" fill-rule="evenodd" fill-opacity="1" /><path clip-path="url(#clip770)" d="M 0 0 M1197.66 1629.66 L1214.81 1629.66 L1214.81 1634.88 L1197.66 1634.88 L1197.66 1629.66 Z" fill="#000000" fill-rule="evenodd" fill-opacity="1" /><path clip-path="url(#clip770)" d="M 0 0 M1256.22 1651.05 Q1243.01 1651.05 1243.01 1632.14 Q1243.01 1624.66 1247.95 1614.48 L1254.25 1614.48 Q1249.7 1624.66 1249.7 1632.3 Q1249.7 1646.08 1256.76 1646.08 Q1263.22 1646.08 1263.22 1628.96 L1268.64 1628.96 Q1268.64 1646.08 1275.1 1646.08 Q1282.16 1646.08 1282.16 1632.3 Q1282.16 1624.66 1277.61 1614.48 L1283.91 1614.48 Q1288.85 1624.66 1288.85 1632.14 Q1288.85 1651.05 1275.64 1651.05 Q1266.98 1651.05 1265.93 1641.53 Q1264.62 1651.05 1256.22 1651.05 Z" fill="#000000" fill-rule="evenodd" fill-opacity="1" /><path clip-path="url(#clip770)" d="M 0 0 M1302.98 1641.59 Q1304.28 1647.96 1307.05 1647.96 Q1308.9 1647.96 1311.29 1644.3 L1315.52 1644.3 Q1313.61 1647.55 1311.38 1649.23 Q1308.96 1651.05 1306.73 1651.05 Q1301.77 1651.05 1299.76 1646.62 L1297.38 1650.12 L1292.41 1650.12 Q1295.85 1645.45 1298.4 1641.08 Q1298.08 1638.6 1298.08 1635.9 Q1298.08 1631.06 1299.06 1626.22 Q1302.79 1608.05 1306.1 1604.32 Q1308.39 1601.74 1312.3 1601.74 Q1316.28 1601.74 1316.28 1607.25 Q1316.25 1609.73 1315.68 1612.69 Q1313.39 1624.82 1302.98 1641.59 M1302.95 1633.25 Q1308.9 1622.18 1310.71 1613.33 Q1311.67 1608.65 1311.67 1607.44 Q1311.67 1605.25 1310.87 1605.25 Q1307.4 1608.01 1304.32 1624.5 Q1303.46 1629.12 1302.95 1633.25 Z" fill="#000000" fill-rule="evenodd" fill-opacity="1" /><polyline clip-path="url(#clip772)" style="stroke:#000000; stroke-width:2; stroke-opacity:0.1; fill:none" points="
  86.9921,1464.09 2352.76,1464.09 
  "/>
<polyline clip-path="url(#clip772)" style="stroke:#000000; stroke-width:2; stroke-opacity:0.1; fill:none" points="
  86.9921,1127.04 2352.76,1127.04 
  "/>
<polyline clip-path="url(#clip772)" style="stroke:#000000; stroke-width:2; stroke-opacity:0.1; fill:none" points="
  86.9921,789.992 2352.76,789.992 
  "/>
<polyline clip-path="url(#clip772)" style="stroke:#000000; stroke-width:2; stroke-opacity:0.1; fill:none" points="
  86.9921,452.944 2352.76,452.944 
  "/>
<polyline clip-path="url(#clip772)" style="stroke:#000000; stroke-width:2; stroke-opacity:0.1; fill:none" points="
  86.9921,115.896 2352.76,115.896 
  "/>
<polyline clip-path="url(#clip770)" style="stroke:#000000; stroke-width:4; stroke-opacity:1; fill:none" points="
  86.9921,1505.26 86.9921,47.2441 
  "/>
<polyline clip-path="url(#clip770)" style="stroke:#000000; stroke-width:4; stroke-opacity:1; fill:none" points="
  86.9921,1464.09 114.181,1464.09 
  "/>
<polyline clip-path="url(#clip770)" style="stroke:#000000; stroke-width:4; stroke-opacity:1; fill:none" points="
  86.9921,1127.04 114.181,1127.04 
  "/>
<polyline clip-path="url(#clip770)" style="stroke:#000000; stroke-width:4; stroke-opacity:1; fill:none" points="
  86.9921,789.992 114.181,789.992 
  "/>
<polyline clip-path="url(#clip770)" style="stroke:#000000; stroke-width:4; stroke-opacity:1; fill:none" points="
  86.9921,452.944 114.181,452.944 
  "/>
<polyline clip-path="url(#clip770)" style="stroke:#000000; stroke-width:4; stroke-opacity:1; fill:none" points="
  86.9921,115.896 114.181,115.896 
  "/>
<path clip-path="url(#clip770)" d="M 0 0 M-36.3454 1449.89 Q-39.9565 1449.89 -41.7852 1453.45 Q-43.5907 1456.99 -43.5907 1464.12 Q-43.5907 1471.23 -41.7852 1474.79 Q-39.9565 1478.34 -36.3454 1478.34 Q-32.7111 1478.34 -30.9056 1474.79 Q-29.0769 1471.23 -29.0769 1464.12 Q-29.0769 1456.99 -30.9056 1453.45 Q-32.7111 1449.89 -36.3454 1449.89 M-36.3454 1446.18 Q-30.5352 1446.18 -27.4797 1450.79 Q-24.401 1455.37 -24.401 1464.12 Q-24.401 1472.85 -27.4797 1477.46 Q-30.5352 1482.04 -36.3454 1482.04 Q-42.1555 1482.04 -45.2342 1477.46 Q-48.2897 1472.85 -48.2897 1464.12 Q-48.2897 1455.37 -45.2342 1450.79 Q-42.1555 1446.18 -36.3454 1446.18 Z" fill="#000000" fill-rule="evenodd" fill-opacity="1" /><path clip-path="url(#clip770)" d="M 0 0 M-16.1834 1475.49 L-11.2992 1475.49 L-11.2992 1481.37 L-16.1834 1481.37 L-16.1834 1475.49 Z" fill="#000000" fill-rule="evenodd" fill-opacity="1" /><path clip-path="url(#clip770)" d="M 0 0 M8.88587 1449.89 Q5.27478 1449.89 3.44608 1453.45 Q1.64054 1456.99 1.64054 1464.12 Q1.64054 1471.23 3.44608 1474.79 Q5.27478 1478.34 8.88587 1478.34 Q12.5201 1478.34 14.3257 1474.79 Q16.1543 1471.23 16.1543 1464.12 Q16.1543 1456.99 14.3257 1453.45 Q12.5201 1449.89 8.88587 1449.89 M8.88587 1446.18 Q14.696 1446.18 17.7516 1450.79 Q20.8303 1455.37 20.8303 1464.12 Q20.8303 1472.85 17.7516 1477.46 Q14.696 1482.04 8.88587 1482.04 Q3.07572 1482.04 -0.00297114 1477.46 Q-3.05851 1472.85 -3.05851 1464.12 Q-3.05851 1455.37 -0.00297114 1450.79 Q3.07572 1446.18 8.88587 1446.18 Z" fill="#000000" fill-rule="evenodd" fill-opacity="1" /><path clip-path="url(#clip770)" d="M 0 0 M39.0477 1449.89 Q35.4367 1449.89 33.608 1453.45 Q31.8024 1456.99 31.8024 1464.12 Q31.8024 1471.23 33.608 1474.79 Q35.4367 1478.34 39.0477 1478.34 Q42.682 1478.34 44.4875 1474.79 Q46.3162 1471.23 46.3162 1464.12 Q46.3162 1456.99 44.4875 1453.45 Q42.682 1449.89 39.0477 1449.89 M39.0477 1446.18 Q44.8579 1446.18 47.9134 1450.79 Q50.9921 1455.37 50.9921 1464.12 Q50.9921 1472.85 47.9134 1477.46 Q44.8579 1482.04 39.0477 1482.04 Q33.2376 1482.04 30.1589 1477.46 Q27.1034 1472.85 27.1034 1464.12 Q27.1034 1455.37 30.1589 1450.79 Q33.2376 1446.18 39.0477 1446.18 Z" fill="#000000" fill-rule="evenodd" fill-opacity="1" /><path clip-path="url(#clip770)" d="M 0 0 M-35.35 1112.84 Q-38.9611 1112.84 -40.7898 1116.4 Q-42.5953 1119.95 -42.5953 1127.07 Q-42.5953 1134.18 -40.7898 1137.75 Q-38.9611 1141.29 -35.35 1141.29 Q-31.7158 1141.29 -29.9102 1137.75 Q-28.0815 1134.18 -28.0815 1127.07 Q-28.0815 1119.95 -29.9102 1116.4 Q-31.7158 1112.84 -35.35 1112.84 M-35.35 1109.13 Q-29.5398 1109.13 -26.4843 1113.74 Q-23.4056 1118.32 -23.4056 1127.07 Q-23.4056 1135.8 -26.4843 1140.41 Q-29.5398 1144.99 -35.35 1144.99 Q-41.1602 1144.99 -44.2388 1140.41 Q-47.2944 1135.8 -47.2944 1127.07 Q-47.2944 1118.32 -44.2388 1113.74 Q-41.1602 1109.13 -35.35 1109.13 Z" fill="#000000" fill-rule="evenodd" fill-opacity="1" /><path clip-path="url(#clip770)" d="M 0 0 M-15.1881 1138.44 L-10.3038 1138.44 L-10.3038 1144.32 L-15.1881 1144.32 L-15.1881 1138.44 Z" fill="#000000" fill-rule="evenodd" fill-opacity="1" /><path clip-path="url(#clip770)" d="M 0 0 M3.90904 1140.38 L20.2284 1140.38 L20.2284 1144.32 L-1.71592 1144.32 L-1.71592 1140.38 Q0.946098 1137.63 5.52941 1133 Q10.1359 1128.35 11.3164 1127.01 Q13.5618 1124.48 14.4414 1122.75 Q15.3442 1120.99 15.3442 1119.3 Q15.3442 1116.54 13.3997 1114.81 Q11.4784 1113.07 8.37661 1113.07 Q6.17755 1113.07 3.72386 1113.83 Q1.29332 1114.6 -1.48444 1116.15 L-1.48444 1111.43 Q1.33961 1110.29 3.7933 1109.71 Q6.247 1109.13 8.28402 1109.13 Q13.6544 1109.13 16.8488 1111.82 Q20.0432 1114.51 20.0432 1119 Q20.0432 1121.13 19.233 1123.05 Q18.446 1124.94 16.3395 1127.54 Q15.7608 1128.21 12.659 1131.43 Q9.55716 1134.62 3.90904 1140.38 Z" fill="#000000" fill-rule="evenodd" fill-opacity="1" /><path clip-path="url(#clip770)" d="M 0 0 M30.0895 1109.76 L48.4458 1109.76 L48.4458 1113.7 L34.3718 1113.7 L34.3718 1122.17 Q35.3904 1121.82 36.4089 1121.66 Q37.4274 1121.47 38.4459 1121.47 Q44.2329 1121.47 47.6125 1124.64 Q50.9921 1127.82 50.9921 1133.23 Q50.9921 1138.81 47.5199 1141.91 Q44.0477 1144.99 37.7283 1144.99 Q35.5524 1144.99 33.2839 1144.62 Q31.0385 1144.25 28.6311 1143.51 L28.6311 1138.81 Q30.7145 1139.94 32.9367 1140.5 Q35.1589 1141.06 37.6357 1141.06 Q41.6403 1141.06 43.9783 1138.95 Q46.3162 1136.84 46.3162 1133.23 Q46.3162 1129.62 43.9783 1127.51 Q41.6403 1125.41 37.6357 1125.41 Q35.7607 1125.41 33.8857 1125.82 Q32.0339 1126.24 30.0895 1127.12 L30.0895 1109.76 Z" fill="#000000" fill-rule="evenodd" fill-opacity="1" /><path clip-path="url(#clip770)" d="M 0 0 M-36.3454 775.791 Q-39.9565 775.791 -41.7852 779.355 Q-43.5907 782.897 -43.5907 790.027 Q-43.5907 797.133 -41.7852 800.698 Q-39.9565 804.24 -36.3454 804.24 Q-32.7111 804.24 -30.9056 800.698 Q-29.0769 797.133 -29.0769 790.027 Q-29.0769 782.897 -30.9056 779.355 Q-32.7111 775.791 -36.3454 775.791 M-36.3454 772.087 Q-30.5352 772.087 -27.4797 776.693 Q-24.401 781.277 -24.401 790.027 Q-24.401 798.753 -27.4797 803.36 Q-30.5352 807.943 -36.3454 807.943 Q-42.1555 807.943 -45.2342 803.36 Q-48.2897 798.753 -48.2897 790.027 Q-48.2897 781.277 -45.2342 776.693 Q-42.1555 772.087 -36.3454 772.087 Z" fill="#000000" fill-rule="evenodd" fill-opacity="1" /><path clip-path="url(#clip770)" d="M 0 0 M-16.1834 801.392 L-11.2992 801.392 L-11.2992 807.272 L-16.1834 807.272 L-16.1834 801.392 Z" fill="#000000" fill-rule="evenodd" fill-opacity="1" /><path clip-path="url(#clip770)" d="M 0 0 M-1.06778 772.712 L17.2886 772.712 L17.2886 776.647 L3.2146 776.647 L3.2146 785.119 Q4.23312 784.772 5.25163 784.61 Q6.27014 784.425 7.28866 784.425 Q13.0757 784.425 16.4553 787.596 Q19.8349 790.767 19.8349 796.184 Q19.8349 801.763 16.3627 804.865 Q12.8905 807.943 6.57107 807.943 Q4.39515 807.943 2.12665 807.573 Q-0.118711 807.202 -2.52611 806.462 L-2.52611 801.763 Q-0.442784 802.897 1.77943 803.452 Q4.00164 804.008 6.47848 804.008 Q10.4831 804.008 12.821 801.902 Q15.159 799.795 15.159 796.184 Q15.159 792.573 12.821 790.466 Q10.4831 788.36 6.47848 788.36 Q4.60349 788.36 2.7285 788.777 Q0.876654 789.193 -1.06778 790.073 L-1.06778 772.712 Z" fill="#000000" fill-rule="evenodd" fill-opacity="1" /><path clip-path="url(#clip770)" d="M 0 0 M39.0477 775.791 Q35.4367 775.791 33.608 779.355 Q31.8024 782.897 31.8024 790.027 Q31.8024 797.133 33.608 800.698 Q35.4367 804.24 39.0477 804.24 Q42.682 804.24 44.4875 800.698 Q46.3162 797.133 46.3162 790.027 Q46.3162 782.897 44.4875 779.355 Q42.682 775.791 39.0477 775.791 M39.0477 772.087 Q44.8579 772.087 47.9134 776.693 Q50.9921 781.277 50.9921 790.027 Q50.9921 798.753 47.9134 803.36 Q44.8579 807.943 39.0477 807.943 Q33.2376 807.943 30.1589 803.36 Q27.1034 798.753 27.1034 790.027 Q27.1034 781.277 30.1589 776.693 Q33.2376 772.087 39.0477 772.087 Z" fill="#000000" fill-rule="evenodd" fill-opacity="1" /><path clip-path="url(#clip770)" d="M 0 0 M-35.35 438.743 Q-38.9611 438.743 -40.7898 442.307 Q-42.5953 445.849 -42.5953 452.979 Q-42.5953 460.085 -40.7898 463.65 Q-38.9611 467.192 -35.35 467.192 Q-31.7158 467.192 -29.9102 463.65 Q-28.0815 460.085 -28.0815 452.979 Q-28.0815 445.849 -29.9102 442.307 Q-31.7158 438.743 -35.35 438.743 M-35.35 435.039 Q-29.5398 435.039 -26.4843 439.645 Q-23.4056 444.229 -23.4056 452.979 Q-23.4056 461.705 -26.4843 466.312 Q-29.5398 470.895 -35.35 470.895 Q-41.1602 470.895 -44.2388 466.312 Q-47.2944 461.705 -47.2944 452.979 Q-47.2944 444.229 -44.2388 439.645 Q-41.1602 435.039 -35.35 435.039 Z" fill="#000000" fill-rule="evenodd" fill-opacity="1" /><path clip-path="url(#clip770)" d="M 0 0 M-15.1881 464.344 L-10.3038 464.344 L-10.3038 470.224 L-15.1881 470.224 L-15.1881 464.344 Z" fill="#000000" fill-rule="evenodd" fill-opacity="1" /><path clip-path="url(#clip770)" d="M 0 0 M-1.29926 435.664 L20.9228 435.664 L20.9228 437.655 L8.37661 470.224 L3.49238 470.224 L15.2979 439.599 L-1.29926 439.599 L-1.29926 435.664 Z" fill="#000000" fill-rule="evenodd" fill-opacity="1" /><path clip-path="url(#clip770)" d="M 0 0 M30.0895 435.664 L48.4458 435.664 L48.4458 439.599 L34.3718 439.599 L34.3718 448.071 Q35.3904 447.724 36.4089 447.562 Q37.4274 447.377 38.4459 447.377 Q44.2329 447.377 47.6125 450.548 Q50.9921 453.719 50.9921 459.136 Q50.9921 464.715 47.5199 467.817 Q44.0477 470.895 37.7283 470.895 Q35.5524 470.895 33.2839 470.525 Q31.0385 470.154 28.6311 469.414 L28.6311 464.715 Q30.7145 465.849 32.9367 466.404 Q35.1589 466.96 37.6357 466.96 Q41.6403 466.96 43.9783 464.854 Q46.3162 462.747 46.3162 459.136 Q46.3162 455.525 43.9783 453.418 Q41.6403 451.312 37.6357 451.312 Q35.7607 451.312 33.8857 451.729 Q32.0339 452.145 30.0895 453.025 L30.0895 435.664 Z" fill="#000000" fill-rule="evenodd" fill-opacity="1" /><path clip-path="url(#clip770)" d="M 0 0 M-45.5351 129.241 L-37.8963 129.241 L-37.8963 102.875 L-46.2064 104.542 L-46.2064 100.283 L-37.9426 98.6159 L-33.2667 98.6159 L-33.2667 129.241 L-25.6278 129.241 L-25.6278 133.176 L-45.5351 133.176 L-45.5351 129.241 Z" fill="#000000" fill-rule="evenodd" fill-opacity="1" /><path clip-path="url(#clip770)" d="M 0 0 M-16.1834 127.296 L-11.2992 127.296 L-11.2992 133.176 L-16.1834 133.176 L-16.1834 127.296 Z" fill="#000000" fill-rule="evenodd" fill-opacity="1" /><path clip-path="url(#clip770)" d="M 0 0 M8.88587 101.695 Q5.27478 101.695 3.44608 105.259 Q1.64054 108.801 1.64054 115.931 Q1.64054 123.037 3.44608 126.602 Q5.27478 130.144 8.88587 130.144 Q12.5201 130.144 14.3257 126.602 Q16.1543 123.037 16.1543 115.931 Q16.1543 108.801 14.3257 105.259 Q12.5201 101.695 8.88587 101.695 M8.88587 97.9909 Q14.696 97.9909 17.7516 102.597 Q20.8303 107.181 20.8303 115.931 Q20.8303 124.657 17.7516 129.264 Q14.696 133.847 8.88587 133.847 Q3.07572 133.847 -0.00297114 129.264 Q-3.05851 124.657 -3.05851 115.931 Q-3.05851 107.181 -0.00297114 102.597 Q3.07572 97.9909 8.88587 97.9909 Z" fill="#000000" fill-rule="evenodd" fill-opacity="1" /><path clip-path="url(#clip770)" d="M 0 0 M39.0477 101.695 Q35.4367 101.695 33.608 105.259 Q31.8024 108.801 31.8024 115.931 Q31.8024 123.037 33.608 126.602 Q35.4367 130.144 39.0477 130.144 Q42.682 130.144 44.4875 126.602 Q46.3162 123.037 46.3162 115.931 Q46.3162 108.801 44.4875 105.259 Q42.682 101.695 39.0477 101.695 M39.0477 97.9909 Q44.8579 97.9909 47.9134 102.597 Q50.9921 107.181 50.9921 115.931 Q50.9921 124.657 47.9134 129.264 Q44.8579 133.847 39.0477 133.847 Q33.2376 133.847 30.1589 129.264 Q27.1034 124.657 27.1034 115.931 Q27.1034 107.181 30.1589 102.597 Q33.2376 97.9909 39.0477 97.9909 Z" fill="#000000" fill-rule="evenodd" fill-opacity="1" /><polyline clip-path="url(#clip772)" style="stroke:#009af9; stroke-width:4; stroke-opacity:1; fill:none" points="
  151.118,1464 153.255,1463.99 155.393,1463.99 157.53,1463.99 159.668,1463.99 161.805,1463.99 163.943,1463.99 166.08,1463.99 168.218,1463.99 170.355,1463.99 
  172.493,1463.99 174.63,1463.99 176.768,1463.99 178.905,1463.98 181.043,1463.98 183.18,1463.98 185.318,1463.98 187.455,1463.98 189.593,1463.98 191.73,1463.98 
  193.868,1463.98 196.005,1463.98 198.143,1463.98 200.28,1463.97 202.418,1463.97 204.555,1463.97 206.693,1463.97 208.83,1463.97 210.968,1463.97 213.105,1463.97 
  215.243,1463.97 217.38,1463.97 219.518,1463.97 221.655,1463.96 223.793,1463.96 225.93,1463.96 228.068,1463.96 230.205,1463.96 232.343,1463.96 234.481,1463.96 
  236.618,1463.96 238.756,1463.95 240.893,1463.95 243.031,1463.95 245.168,1463.95 247.306,1463.95 249.443,1463.95 251.581,1463.95 253.718,1463.95 255.856,1463.94 
  257.993,1463.94 260.131,1463.94 262.268,1463.94 264.406,1463.94 266.543,1463.94 268.681,1463.94 270.818,1463.93 272.956,1463.93 275.093,1463.93 277.231,1463.93 
  279.368,1463.93 281.506,1463.93 283.643,1463.92 285.781,1463.92 287.918,1463.92 290.056,1463.92 292.193,1463.92 294.331,1463.92 296.468,1463.92 298.606,1463.91 
  300.743,1463.91 302.881,1463.91 305.018,1463.91 307.156,1463.91 309.293,1463.9 311.431,1463.9 313.569,1463.9 315.706,1463.9 317.844,1463.9 319.981,1463.89 
  322.119,1463.89 324.256,1463.89 326.394,1463.89 328.531,1463.89 330.669,1463.88 332.806,1463.88 334.944,1463.88 337.081,1463.88 339.219,1463.88 341.356,1463.87 
  343.494,1463.87 345.631,1463.87 347.769,1463.87 349.906,1463.86 352.044,1463.86 354.181,1463.86 356.319,1463.86 358.456,1463.85 360.594,1463.85 362.731,1463.85 
  364.869,1463.85 367.006,1463.84 369.144,1463.84 371.281,1463.84 373.419,1463.84 375.556,1463.83 377.694,1463.83 379.831,1463.83 381.969,1463.82 384.106,1463.82 
  386.244,1463.82 388.381,1463.82 390.519,1463.81 392.656,1463.81 394.794,1463.81 396.932,1463.8 399.069,1463.8 401.207,1463.8 403.344,1463.79 405.482,1463.79 
  407.619,1463.79 409.757,1463.78 411.894,1463.78 414.032,1463.78 416.169,1463.77 418.307,1463.77 420.444,1463.76 422.582,1463.76 424.719,1463.76 426.857,1463.75 
  428.994,1463.75 431.132,1463.74 433.269,1463.74 435.407,1463.74 437.544,1463.73 439.682,1463.73 441.819,1463.72 443.957,1463.72 446.094,1463.71 448.232,1463.71 
  450.369,1463.7 452.507,1463.7 454.644,1463.69 456.782,1463.69 458.919,1463.68 461.057,1463.68 463.194,1463.67 465.332,1463.67 467.469,1463.66 469.607,1463.66 
  471.744,1463.65 473.882,1463.65 476.019,1463.64 478.157,1463.64 480.295,1463.63 482.432,1463.62 484.57,1463.62 486.707,1463.61 488.845,1463.61 490.982,1463.6 
  493.12,1463.59 495.257,1463.59 497.395,1463.58 499.532,1463.57 501.67,1463.56 503.807,1463.56 505.945,1463.55 508.082,1463.54 510.22,1463.54 512.357,1463.53 
  514.495,1463.52 516.632,1463.51 518.77,1463.5 520.907,1463.5 523.045,1463.49 525.182,1463.48 527.32,1463.47 529.457,1463.46 531.595,1463.45 533.732,1463.44 
  535.87,1463.44 538.007,1463.43 540.145,1463.42 542.282,1463.41 544.42,1463.4 546.557,1463.39 548.695,1463.38 550.832,1463.37 552.97,1463.35 555.107,1463.34 
  557.245,1463.33 559.382,1463.32 561.52,1463.31 563.658,1463.3 565.795,1463.29 567.933,1463.27 570.07,1463.26 572.208,1463.25 574.345,1463.24 576.483,1463.22 
  578.62,1463.21 580.758,1463.19 582.895,1463.18 585.033,1463.17 587.17,1463.15 589.308,1463.14 591.445,1463.12 593.583,1463.11 595.72,1463.09 597.858,1463.07 
  599.995,1463.06 602.133,1463.04 604.27,1463.02 606.408,1463.01 608.545,1462.99 610.683,1462.97 612.82,1462.95 614.958,1462.93 617.095,1462.91 619.233,1462.89 
  621.37,1462.87 623.508,1462.85 625.645,1462.83 627.783,1462.81 629.92,1462.78 632.058,1462.76 634.195,1462.74 636.333,1462.71 638.47,1462.69 640.608,1462.66 
  642.746,1462.64 644.883,1462.61 647.021,1462.59 649.158,1462.56 651.296,1462.53 653.433,1462.5 655.571,1462.47 657.708,1462.44 659.846,1462.41 661.983,1462.38 
  664.121,1462.35 666.258,1462.31 668.396,1462.28 670.533,1462.24 672.671,1462.21 674.808,1462.17 676.946,1462.13 679.083,1462.1 681.221,1462.06 683.358,1462.01 
  685.496,1461.97 687.633,1461.93 689.771,1461.89 691.908,1461.84 694.046,1461.8 696.183,1461.75 698.321,1461.7 700.458,1461.65 702.596,1461.6 704.733,1461.55 
  706.871,1461.49 709.008,1461.44 711.146,1461.38 713.283,1461.32 715.421,1461.26 717.558,1461.2 719.696,1461.13 721.833,1461.07 723.971,1461 726.109,1460.93 
  728.246,1460.86 730.384,1460.78 732.521,1460.71 734.659,1460.63 736.796,1460.55 738.934,1460.47 741.071,1460.38 743.209,1460.29 745.346,1460.2 747.484,1460.11 
  749.621,1460.01 751.759,1459.91 753.896,1459.81 756.034,1459.7 758.171,1459.59 760.309,1459.48 762.446,1459.36 764.584,1459.24 766.721,1459.11 768.859,1458.98 
  770.996,1458.85 773.134,1458.71 775.271,1458.57 777.409,1458.42 779.546,1458.26 781.684,1458.1 783.821,1457.94 785.959,1457.77 788.096,1457.59 790.234,1457.41 
  792.371,1457.22 794.509,1457.02 796.646,1456.82 798.784,1456.61 800.921,1456.39 803.059,1456.16 805.196,1455.92 807.334,1455.67 809.472,1455.41 811.609,1455.15 
  813.747,1454.87 815.884,1454.58 818.022,1454.28 820.159,1453.96 822.297,1453.64 824.434,1453.3 826.572,1452.94 828.709,1452.57 830.847,1452.18 832.984,1451.78 
  835.122,1451.36 837.259,1450.92 839.397,1450.45 841.534,1449.97 843.672,1449.47 845.809,1448.94 847.947,1448.38 850.084,1447.8 852.222,1447.2 854.359,1446.56 
  856.497,1445.89 858.634,1445.18 860.772,1444.44 862.909,1443.67 865.047,1442.85 867.184,1441.99 869.322,1441.08 871.459,1440.13 873.597,1439.12 875.734,1438.06 
  877.872,1436.94 880.009,1435.75 882.147,1434.5 884.284,1433.18 886.422,1431.78 888.56,1430.29 890.697,1428.72 892.835,1427.05 894.972,1425.28 897.11,1423.4 
  899.247,1421.4 901.385,1419.27 903.522,1417.01 905.66,1414.6 907.797,1412.03 909.935,1409.29 912.072,1406.37 914.21,1403.25 916.347,1399.91 918.485,1396.34 
  920.622,1392.52 922.76,1388.43 924.897,1384.05 927.035,1379.36 929.172,1374.33 931.31,1368.93 933.447,1363.13 935.585,1356.91 937.722,1350.24 939.86,1343.08 
  941.997,1335.4 944.135,1327.16 946.272,1318.34 948.41,1308.88 950.547,1298.78 952.685,1287.99 954.822,1276.49 956.96,1264.27 959.097,1251.32 961.235,1237.65 
  963.372,1223.27 965.51,1208.23 967.647,1192.6 969.785,1176.46 971.923,1159.93 974.06,1143.16 976.198,1126.34 978.335,1109.69 980.473,1093.45 982.61,1077.88 
  984.748,1063.26 986.885,1049.86 989.023,1037.95 991.16,1027.75 993.298,1019.46 995.435,1013.21 997.573,1009.07 999.71,1007.06 1001.85,1007.13 1003.99,1009.15 
  1006.12,1012.98 1008.26,1018.42 1010.4,1025.26 1012.54,1033.28 1014.67,1042.24 1016.81,1051.92 1018.95,1062.13 1021.09,1072.69 1023.22,1083.43 1025.36,1094.21 
  1027.5,1104.93 1029.64,1115.48 1031.77,1125.79 1033.91,1135.8 1036.05,1145.47 1038.19,1154.76 1040.32,1163.65 1042.46,1172.14 1044.6,1180.21 1046.74,1187.87 
  1048.87,1195.11 1051.01,1201.95 1053.15,1208.39 1055.29,1214.44 1057.42,1220.11 1059.56,1225.43 1061.7,1230.39 1063.84,1235.02 1065.97,1239.32 1068.11,1243.3 
  1070.25,1246.98 1072.39,1250.37 1074.52,1253.48 1076.66,1256.32 1078.8,1258.89 1080.94,1261.2 1083.07,1263.26 1085.21,1265.08 1087.35,1266.65 1089.49,1268 
  1091.62,1269.1 1093.76,1269.98 1095.9,1270.64 1098.04,1271.06 1100.17,1271.26 1102.31,1271.22 1104.45,1270.96 1106.59,1270.46 1108.72,1269.73 1110.86,1268.75 
  1113,1267.51 1115.14,1266.02 1117.27,1264.27 1119.41,1262.23 1121.55,1259.91 1123.69,1257.28 1125.82,1254.33 1127.96,1251.04 1130.1,1247.4 1132.24,1243.37 
  1134.37,1238.94 1136.51,1234.08 1138.65,1228.76 1140.79,1222.94 1142.92,1216.58 1145.06,1209.64 1147.2,1202.07 1149.34,1193.82 1151.47,1184.83 1153.61,1175.03 
  1155.75,1164.34 1157.89,1152.69 1160.02,1139.97 1162.16,1126.08 1164.3,1110.92 1166.44,1094.34 1168.57,1076.21 1170.71,1056.37 1172.85,1034.65 1174.99,1010.86 
  1177.12,984.786 1179.26,956.223 1181.4,924.937 1183.54,890.695 1185.67,853.266 1187.81,812.436 1189.95,768.023 1192.09,719.911 1194.22,668.075 1196.36,612.636 
  1198.5,553.907 1200.64,492.466 1202.77,429.216 1204.91,365.442 1207.05,302.851 1209.19,243.547 1211.32,189.96 1213.46,144.668 1215.6,110.154 1217.74,88.5087 
  1219.87,117.145 1222.01,88.5087 1224.15,110.154 1226.29,144.668 1228.42,189.96 1230.56,243.547 1232.7,302.851 1234.84,365.442 1236.97,429.216 1239.11,492.466 
  1241.25,553.907 1243.39,612.636 1245.52,668.075 1247.66,719.911 1249.8,768.023 1251.94,812.436 1254.07,853.266 1256.21,890.695 1258.35,924.937 1260.49,956.223 
  1262.62,984.786 1264.76,1010.86 1266.9,1034.65 1269.04,1056.37 1271.17,1076.21 1273.31,1094.34 1275.45,1110.92 1277.59,1126.08 1279.72,1139.97 1281.86,1152.69 
  1284,1164.34 1286.14,1175.03 1288.27,1184.83 1290.41,1193.82 1292.55,1202.07 1294.69,1209.64 1296.82,1216.58 1298.96,1222.94 1301.1,1228.76 1303.24,1234.08 
  1305.37,1238.94 1307.51,1243.37 1309.65,1247.4 1311.79,1251.04 1313.92,1254.33 1316.06,1257.28 1318.2,1259.91 1320.34,1262.23 1322.47,1264.27 1324.61,1266.02 
  1326.75,1267.51 1328.89,1268.75 1331.02,1269.73 1333.16,1270.46 1335.3,1270.96 1337.44,1271.22 1339.57,1271.26 1341.71,1271.06 1343.85,1270.64 1345.99,1269.98 
  1348.12,1269.1 1350.26,1268 1352.4,1266.65 1354.54,1265.08 1356.67,1263.26 1358.81,1261.2 1360.95,1258.89 1363.09,1256.32 1365.22,1253.48 1367.36,1250.37 
  1369.5,1246.98 1371.64,1243.3 1373.77,1239.32 1375.91,1235.02 1378.05,1230.39 1380.19,1225.43 1382.33,1220.11 1384.46,1214.44 1386.6,1208.39 1388.74,1201.95 
  1390.88,1195.11 1393.01,1187.87 1395.15,1180.21 1397.29,1172.14 1399.43,1163.65 1401.56,1154.76 1403.7,1145.47 1405.84,1135.8 1407.98,1125.79 1410.11,1115.48 
  1412.25,1104.93 1414.39,1094.21 1416.53,1083.43 1418.66,1072.69 1420.8,1062.13 1422.94,1051.92 1425.08,1042.24 1427.21,1033.28 1429.35,1025.26 1431.49,1018.42 
  1433.63,1012.98 1435.76,1009.15 1437.9,1007.13 1440.04,1007.06 1442.18,1009.07 1444.31,1013.21 1446.45,1019.46 1448.59,1027.75 1450.73,1037.95 1452.86,1049.86 
  1455,1063.26 1457.14,1077.88 1459.28,1093.45 1461.41,1109.69 1463.55,1126.34 1465.69,1143.16 1467.83,1159.93 1469.96,1176.46 1472.1,1192.6 1474.24,1208.23 
  1476.38,1223.27 1478.51,1237.65 1480.65,1251.32 1482.79,1264.27 1484.93,1276.49 1487.06,1287.99 1489.2,1298.78 1491.34,1308.88 1493.48,1318.34 1495.61,1327.16 
  1497.75,1335.4 1499.89,1343.08 1502.03,1350.24 1504.16,1356.91 1506.3,1363.13 1508.44,1368.93 1510.58,1374.33 1512.71,1379.36 1514.85,1384.05 1516.99,1388.43 
  1519.13,1392.52 1521.26,1396.34 1523.4,1399.91 1525.54,1403.25 1527.68,1406.37 1529.81,1409.29 1531.95,1412.03 1534.09,1414.6 1536.23,1417.01 1538.36,1419.27 
  1540.5,1421.4 1542.64,1423.4 1544.78,1425.28 1546.91,1427.05 1549.05,1428.72 1551.19,1430.29 1553.33,1431.78 1555.46,1433.18 1557.6,1434.5 1559.74,1435.75 
  1561.88,1436.94 1564.01,1438.06 1566.15,1439.12 1568.29,1440.13 1570.43,1441.08 1572.56,1441.99 1574.7,1442.85 1576.84,1443.67 1578.98,1444.44 1581.11,1445.18 
  1583.25,1445.89 1585.39,1446.56 1587.53,1447.2 1589.66,1447.8 1591.8,1448.38 1593.94,1448.94 1596.08,1449.47 1598.21,1449.97 1600.35,1450.45 1602.49,1450.92 
  1604.63,1451.36 1606.76,1451.78 1608.9,1452.18 1611.04,1452.57 1613.18,1452.94 1615.31,1453.3 1617.45,1453.64 1619.59,1453.96 1621.73,1454.28 1623.86,1454.58 
  1626,1454.87 1628.14,1455.15 1630.28,1455.41 1632.41,1455.67 1634.55,1455.92 1636.69,1456.16 1638.83,1456.39 1640.96,1456.61 1643.1,1456.82 1645.24,1457.02 
  1647.38,1457.22 1649.51,1457.41 1651.65,1457.59 1653.79,1457.77 1655.93,1457.94 1658.06,1458.1 1660.2,1458.26 1662.34,1458.42 1664.48,1458.57 1666.61,1458.71 
  1668.75,1458.85 1670.89,1458.98 1673.03,1459.11 1675.16,1459.24 1677.3,1459.36 1679.44,1459.48 1681.58,1459.59 1683.71,1459.7 1685.85,1459.81 1687.99,1459.91 
  1690.13,1460.01 1692.26,1460.11 1694.4,1460.2 1696.54,1460.29 1698.68,1460.38 1700.81,1460.47 1702.95,1460.55 1705.09,1460.63 1707.23,1460.71 1709.36,1460.78 
  1711.5,1460.86 1713.64,1460.93 1715.78,1461 1717.91,1461.07 1720.05,1461.13 1722.19,1461.2 1724.33,1461.26 1726.46,1461.32 1728.6,1461.38 1730.74,1461.44 
  1732.88,1461.49 1735.01,1461.55 1737.15,1461.6 1739.29,1461.65 1741.43,1461.7 1743.56,1461.75 1745.7,1461.8 1747.84,1461.84 1749.98,1461.89 1752.11,1461.93 
  1754.25,1461.97 1756.39,1462.01 1758.53,1462.06 1760.66,1462.1 1762.8,1462.13 1764.94,1462.17 1767.08,1462.21 1769.21,1462.24 1771.35,1462.28 1773.49,1462.31 
  1775.63,1462.35 1777.76,1462.38 1779.9,1462.41 1782.04,1462.44 1784.18,1462.47 1786.31,1462.5 1788.45,1462.53 1790.59,1462.56 1792.73,1462.59 1794.87,1462.61 
  1797,1462.64 1799.14,1462.66 1801.28,1462.69 1803.42,1462.71 1805.55,1462.74 1807.69,1462.76 1809.83,1462.78 1811.97,1462.81 1814.1,1462.83 1816.24,1462.85 
  1818.38,1462.87 1820.52,1462.89 1822.65,1462.91 1824.79,1462.93 1826.93,1462.95 1829.07,1462.97 1831.2,1462.99 1833.34,1463.01 1835.48,1463.02 1837.62,1463.04 
  1839.75,1463.06 1841.89,1463.07 1844.03,1463.09 1846.17,1463.11 1848.3,1463.12 1850.44,1463.14 1852.58,1463.15 1854.72,1463.17 1856.85,1463.18 1858.99,1463.19 
  1861.13,1463.21 1863.27,1463.22 1865.4,1463.24 1867.54,1463.25 1869.68,1463.26 1871.82,1463.27 1873.95,1463.29 1876.09,1463.3 1878.23,1463.31 1880.37,1463.32 
  1882.5,1463.33 1884.64,1463.34 1886.78,1463.35 1888.92,1463.37 1891.05,1463.38 1893.19,1463.39 1895.33,1463.4 1897.47,1463.41 1899.6,1463.42 1901.74,1463.43 
  1903.88,1463.44 1906.02,1463.44 1908.15,1463.45 1910.29,1463.46 1912.43,1463.47 1914.57,1463.48 1916.7,1463.49 1918.84,1463.5 1920.98,1463.5 1923.12,1463.51 
  1925.25,1463.52 1927.39,1463.53 1929.53,1463.54 1931.67,1463.54 1933.8,1463.55 1935.94,1463.56 1938.08,1463.56 1940.22,1463.57 1942.35,1463.58 1944.49,1463.59 
  1946.63,1463.59 1948.77,1463.6 1950.9,1463.61 1953.04,1463.61 1955.18,1463.62 1957.32,1463.62 1959.45,1463.63 1961.59,1463.64 1963.73,1463.64 1965.87,1463.65 
  1968,1463.65 1970.14,1463.66 1972.28,1463.66 1974.42,1463.67 1976.55,1463.67 1978.69,1463.68 1980.83,1463.68 1982.97,1463.69 1985.1,1463.69 1987.24,1463.7 
  1989.38,1463.7 1991.52,1463.71 1993.65,1463.71 1995.79,1463.72 1997.93,1463.72 2000.07,1463.73 2002.2,1463.73 2004.34,1463.74 2006.48,1463.74 2008.62,1463.74 
  2010.75,1463.75 2012.89,1463.75 2015.03,1463.76 2017.17,1463.76 2019.3,1463.76 2021.44,1463.77 2023.58,1463.77 2025.72,1463.78 2027.85,1463.78 2029.99,1463.78 
  2032.13,1463.79 2034.27,1463.79 2036.4,1463.79 2038.54,1463.8 2040.68,1463.8 2042.82,1463.8 2044.95,1463.81 2047.09,1463.81 2049.23,1463.81 2051.37,1463.82 
  2053.5,1463.82 2055.64,1463.82 2057.78,1463.82 2059.92,1463.83 2062.05,1463.83 2064.19,1463.83 2066.33,1463.84 2068.47,1463.84 2070.6,1463.84 2072.74,1463.84 
  2074.88,1463.85 2077.02,1463.85 2079.15,1463.85 2081.29,1463.85 2083.43,1463.86 2085.57,1463.86 2087.7,1463.86 2089.84,1463.86 2091.98,1463.87 2094.12,1463.87 
  2096.25,1463.87 2098.39,1463.87 2100.53,1463.88 2102.67,1463.88 2104.8,1463.88 2106.94,1463.88 2109.08,1463.88 2111.22,1463.89 2113.35,1463.89 2115.49,1463.89 
  2117.63,1463.89 2119.77,1463.89 2121.9,1463.9 2124.04,1463.9 2126.18,1463.9 2128.32,1463.9 2130.45,1463.9 2132.59,1463.91 2134.73,1463.91 2136.87,1463.91 
  2139,1463.91 2141.14,1463.91 2143.28,1463.92 2145.42,1463.92 2147.55,1463.92 2149.69,1463.92 2151.83,1463.92 2153.97,1463.92 2156.1,1463.92 2158.24,1463.93 
  2160.38,1463.93 2162.52,1463.93 2164.65,1463.93 2166.79,1463.93 2168.93,1463.93 2171.07,1463.94 2173.2,1463.94 2175.34,1463.94 2177.48,1463.94 2179.62,1463.94 
  2181.75,1463.94 2183.89,1463.94 2186.03,1463.95 2188.17,1463.95 2190.3,1463.95 2192.44,1463.95 2194.58,1463.95 2196.72,1463.95 2198.85,1463.95 2200.99,1463.95 
  2203.13,1463.96 2205.27,1463.96 2207.41,1463.96 2209.54,1463.96 2211.68,1463.96 2213.82,1463.96 2215.96,1463.96 2218.09,1463.96 2220.23,1463.97 2222.37,1463.97 
  2224.51,1463.97 2226.64,1463.97 2228.78,1463.97 2230.92,1463.97 2233.06,1463.97 2235.19,1463.97 2237.33,1463.97 2239.47,1463.97 2241.61,1463.98 2243.74,1463.98 
  2245.88,1463.98 2248.02,1463.98 2250.16,1463.98 2252.29,1463.98 2254.43,1463.98 2256.57,1463.98 2258.71,1463.98 2260.84,1463.98 2262.98,1463.99 2265.12,1463.99 
  2267.26,1463.99 2269.39,1463.99 2271.53,1463.99 2273.67,1463.99 2275.81,1463.99 2277.94,1463.99 2280.08,1463.99 2282.22,1463.99 2284.36,1463.99 2286.49,1463.99 
  2288.63,1464 
  "/>
<path clip-path="url(#clip770)" d="
M1536.71 216.805 L2277.23 216.805 L2277.23 95.8446 L1536.71 95.8446  Z
  " fill="#ffffff" fill-rule="evenodd" fill-opacity="1"/>
<polyline clip-path="url(#clip770)" style="stroke:#000000; stroke-width:4; stroke-opacity:1; fill:none" points="
  1536.71,216.805 2277.23,216.805 2277.23,95.8446 1536.71,95.8446 1536.71,216.805 
  "/>
<polyline clip-path="url(#clip770)" style="stroke:#009af9; stroke-width:4; stroke-opacity:1; fill:none" points="
  1561.88,156.325 1712.93,156.325 
  "/>
<path clip-path="url(#clip770)" d="M 0 0 M1754.5 157.401 Q1756 157.91 1757.42 159.577 Q1758.85 161.244 1760.29 164.16 L1765.03 173.605 L1760.01 173.605 L1755.59 164.739 Q1753.87 161.267 1752.25 160.132 Q1750.66 158.998 1747.88 158.998 L1742.79 158.998 L1742.79 173.605 L1738.11 173.605 L1738.11 139.045 L1748.67 139.045 Q1754.59 139.045 1757.51 141.521 Q1760.42 143.998 1760.42 148.998 Q1760.42 152.262 1758.9 154.415 Q1757.39 156.568 1754.5 157.401 M1742.79 142.887 L1742.79 155.156 L1748.67 155.156 Q1752.04 155.156 1753.76 153.605 Q1755.49 152.031 1755.49 148.998 Q1755.49 145.966 1753.76 144.438 Q1752.04 142.887 1748.67 142.887 L1742.79 142.887 Z" fill="#000000" fill-rule="evenodd" fill-opacity="1" /><path clip-path="url(#clip770)" d="M 0 0 M1790.91 159.577 L1790.91 161.66 L1771.33 161.66 Q1771.6 166.058 1773.97 168.373 Q1776.35 170.665 1780.59 170.665 Q1783.04 170.665 1785.33 170.063 Q1787.65 169.461 1789.91 168.257 L1789.91 172.285 Q1787.62 173.257 1785.22 173.767 Q1782.81 174.276 1780.33 174.276 Q1774.13 174.276 1770.49 170.665 Q1766.88 167.054 1766.88 160.896 Q1766.88 154.531 1770.31 150.804 Q1773.76 147.054 1779.59 147.054 Q1784.82 147.054 1787.85 150.433 Q1790.91 153.79 1790.91 159.577 M1786.65 158.327 Q1786.6 154.832 1784.68 152.748 Q1782.79 150.665 1779.64 150.665 Q1776.07 150.665 1773.92 152.679 Q1771.79 154.693 1771.47 158.35 L1786.65 158.327 Z" fill="#000000" fill-rule="evenodd" fill-opacity="1" /><path clip-path="url(#clip770)" d="M 0 0 M1814.43 148.443 L1814.43 152.47 Q1812.62 151.545 1810.68 151.082 Q1808.73 150.619 1806.65 150.619 Q1803.48 150.619 1801.88 151.591 Q1800.31 152.563 1800.31 154.507 Q1800.31 155.989 1801.44 156.845 Q1802.58 157.679 1806 158.443 L1807.46 158.767 Q1812 159.739 1813.9 161.521 Q1815.82 163.281 1815.82 166.452 Q1815.82 170.063 1812.95 172.169 Q1810.1 174.276 1805.1 174.276 Q1803.02 174.276 1800.75 173.859 Q1798.5 173.466 1796 172.656 L1796 168.257 Q1798.36 169.484 1800.66 170.109 Q1802.95 170.711 1805.19 170.711 Q1808.2 170.711 1809.82 169.693 Q1811.44 168.651 1811.44 166.776 Q1811.44 165.04 1810.26 164.114 Q1809.1 163.188 1805.15 162.332 L1803.66 161.984 Q1799.71 161.151 1797.95 159.438 Q1796.19 157.702 1796.19 154.693 Q1796.19 151.035 1798.78 149.045 Q1801.37 147.054 1806.14 147.054 Q1808.5 147.054 1810.59 147.401 Q1812.67 147.748 1814.43 148.443 Z" fill="#000000" fill-rule="evenodd" fill-opacity="1" /><path clip-path="url(#clip770)" d="M 0 0 M1832.65 150.665 Q1829.22 150.665 1827.23 153.35 Q1825.24 156.012 1825.24 160.665 Q1825.24 165.318 1827.21 168.003 Q1829.2 170.665 1832.65 170.665 Q1836.05 170.665 1838.04 167.98 Q1840.03 165.294 1840.03 160.665 Q1840.03 156.058 1838.04 153.373 Q1836.05 150.665 1832.65 150.665 M1832.65 147.054 Q1838.2 147.054 1841.37 150.665 Q1844.54 154.276 1844.54 160.665 Q1844.54 167.031 1841.37 170.665 Q1838.2 174.276 1832.65 174.276 Q1827.07 174.276 1823.9 170.665 Q1820.75 167.031 1820.75 160.665 Q1820.75 154.276 1823.9 150.665 Q1827.07 147.054 1832.65 147.054 Z" fill="#000000" fill-rule="evenodd" fill-opacity="1" /><path clip-path="url(#clip770)" d="M 0 0 M1873.16 157.957 L1873.16 173.605 L1868.9 173.605 L1868.9 158.095 Q1868.9 154.415 1867.46 152.586 Q1866.03 150.758 1863.16 150.758 Q1859.71 150.758 1857.72 152.957 Q1855.72 155.156 1855.72 158.952 L1855.72 173.605 L1851.44 173.605 L1851.44 147.679 L1855.72 147.679 L1855.72 151.707 Q1857.25 149.369 1859.31 148.211 Q1861.4 147.054 1864.1 147.054 Q1868.57 147.054 1870.86 149.832 Q1873.16 152.586 1873.16 157.957 Z" fill="#000000" fill-rule="evenodd" fill-opacity="1" /><path clip-path="url(#clip770)" d="M 0 0 M1893.43 160.572 Q1888.27 160.572 1886.28 161.753 Q1884.29 162.933 1884.29 165.781 Q1884.29 168.049 1885.77 169.392 Q1887.28 170.711 1889.84 170.711 Q1893.39 170.711 1895.52 168.211 Q1897.67 165.688 1897.67 161.521 L1897.67 160.572 L1893.43 160.572 M1901.93 158.813 L1901.93 173.605 L1897.67 173.605 L1897.67 169.669 Q1896.21 172.031 1894.03 173.165 Q1891.86 174.276 1888.71 174.276 Q1884.73 174.276 1882.37 172.054 Q1880.03 169.808 1880.03 166.058 Q1880.03 161.683 1882.95 159.461 Q1885.89 157.239 1891.7 157.239 L1897.67 157.239 L1897.67 156.822 Q1897.67 153.883 1895.72 152.285 Q1893.8 150.665 1890.31 150.665 Q1888.09 150.665 1885.98 151.197 Q1883.87 151.73 1881.93 152.795 L1881.93 148.859 Q1884.27 147.957 1886.47 147.517 Q1888.66 147.054 1890.75 147.054 Q1896.37 147.054 1899.15 149.97 Q1901.93 152.887 1901.93 158.813 Z" fill="#000000" fill-rule="evenodd" fill-opacity="1" /><path clip-path="url(#clip770)" d="M 0 0 M1932.25 157.957 L1932.25 173.605 L1927.99 173.605 L1927.99 158.095 Q1927.99 154.415 1926.56 152.586 Q1925.12 150.758 1922.25 150.758 Q1918.8 150.758 1916.81 152.957 Q1914.82 155.156 1914.82 158.952 L1914.82 173.605 L1910.54 173.605 L1910.54 147.679 L1914.82 147.679 L1914.82 151.707 Q1916.35 149.369 1918.41 148.211 Q1920.49 147.054 1923.2 147.054 Q1927.67 147.054 1929.96 149.832 Q1932.25 152.586 1932.25 157.957 Z" fill="#000000" fill-rule="evenodd" fill-opacity="1" /><path clip-path="url(#clip770)" d="M 0 0 M1959.4 148.674 L1959.4 152.656 Q1957.6 151.66 1955.77 151.174 Q1953.96 150.665 1952.11 150.665 Q1947.97 150.665 1945.68 153.304 Q1943.39 155.92 1943.39 160.665 Q1943.39 165.41 1945.68 168.049 Q1947.97 170.665 1952.11 170.665 Q1953.96 170.665 1955.77 170.179 Q1957.6 169.669 1959.4 168.674 L1959.4 172.609 Q1957.62 173.443 1955.7 173.859 Q1953.8 174.276 1951.65 174.276 Q1945.79 174.276 1942.34 170.595 Q1938.9 166.915 1938.9 160.665 Q1938.9 154.322 1942.37 150.688 Q1945.86 147.054 1951.93 147.054 Q1953.9 147.054 1955.77 147.471 Q1957.65 147.864 1959.4 148.674 Z" fill="#000000" fill-rule="evenodd" fill-opacity="1" /><path clip-path="url(#clip770)" d="M 0 0 M1988.99 159.577 L1988.99 161.66 L1969.4 161.66 Q1969.68 166.058 1972.04 168.373 Q1974.43 170.665 1978.66 170.665 Q1981.12 170.665 1983.41 170.063 Q1985.72 169.461 1987.99 168.257 L1987.99 172.285 Q1985.7 173.257 1983.29 173.767 Q1980.89 174.276 1978.41 174.276 Q1972.21 174.276 1968.57 170.665 Q1964.96 167.054 1964.96 160.896 Q1964.96 154.531 1968.39 150.804 Q1971.84 147.054 1977.67 147.054 Q1982.9 147.054 1985.93 150.433 Q1988.99 153.79 1988.99 159.577 M1984.73 158.327 Q1984.68 154.832 1982.76 152.748 Q1980.86 150.665 1977.71 150.665 Q1974.15 150.665 1972 152.679 Q1969.87 154.693 1969.54 158.35 L1984.73 158.327 Z" fill="#000000" fill-rule="evenodd" fill-opacity="1" /><path clip-path="url(#clip770)" d="M 0 0 M2027.58 148.443 L2027.58 152.47 Q2025.77 151.545 2023.83 151.082 Q2021.88 150.619 2019.8 150.619 Q2016.63 150.619 2015.03 151.591 Q2013.46 152.563 2013.46 154.507 Q2013.46 155.989 2014.59 156.845 Q2015.72 157.679 2019.15 158.443 L2020.61 158.767 Q2025.15 159.739 2027.04 161.521 Q2028.96 163.281 2028.96 166.452 Q2028.96 170.063 2026.09 172.169 Q2023.25 174.276 2018.25 174.276 Q2016.16 174.276 2013.9 173.859 Q2011.65 173.466 2009.15 172.656 L2009.15 168.257 Q2011.51 169.484 2013.8 170.109 Q2016.09 170.711 2018.34 170.711 Q2021.35 170.711 2022.97 169.693 Q2024.59 168.651 2024.59 166.776 Q2024.59 165.04 2023.41 164.114 Q2022.25 163.188 2018.29 162.332 L2016.81 161.984 Q2012.85 161.151 2011.09 159.438 Q2009.34 157.702 2009.34 154.693 Q2009.34 151.035 2011.93 149.045 Q2014.52 147.054 2019.29 147.054 Q2021.65 147.054 2023.73 147.401 Q2025.82 147.748 2027.58 148.443 Z" fill="#000000" fill-rule="evenodd" fill-opacity="1" /><path clip-path="url(#clip770)" d="M 0 0 M2039.87 169.716 L2039.87 183.466 L2035.58 183.466 L2035.58 147.679 L2039.87 147.679 L2039.87 151.614 Q2041.21 149.299 2043.25 148.188 Q2045.31 147.054 2048.15 147.054 Q2052.88 147.054 2055.82 150.804 Q2058.78 154.554 2058.78 160.665 Q2058.78 166.776 2055.82 170.526 Q2052.88 174.276 2048.15 174.276 Q2045.31 174.276 2043.25 173.165 Q2041.21 172.031 2039.87 169.716 M2054.36 160.665 Q2054.36 155.966 2052.41 153.304 Q2050.49 150.619 2047.11 150.619 Q2043.73 150.619 2041.79 153.304 Q2039.87 155.966 2039.87 160.665 Q2039.87 165.364 2041.79 168.049 Q2043.73 170.711 2047.11 170.711 Q2050.49 170.711 2052.41 168.049 Q2054.36 165.364 2054.36 160.665 Z" fill="#000000" fill-rule="evenodd" fill-opacity="1" /><path clip-path="url(#clip770)" d="M 0 0 M2088.02 159.577 L2088.02 161.66 L2068.43 161.66 Q2068.71 166.058 2071.07 168.373 Q2073.46 170.665 2077.69 170.665 Q2080.14 170.665 2082.44 170.063 Q2084.75 169.461 2087.02 168.257 L2087.02 172.285 Q2084.73 173.257 2082.32 173.767 Q2079.91 174.276 2077.44 174.276 Q2071.23 174.276 2067.6 170.665 Q2063.99 167.054 2063.99 160.896 Q2063.99 154.531 2067.41 150.804 Q2070.86 147.054 2076.7 147.054 Q2081.93 147.054 2084.96 150.433 Q2088.02 153.79 2088.02 159.577 M2083.76 158.327 Q2083.71 154.832 2081.79 152.748 Q2079.89 150.665 2076.74 150.665 Q2073.18 150.665 2071.02 152.679 Q2068.89 154.693 2068.57 158.35 L2083.76 158.327 Z" fill="#000000" fill-rule="evenodd" fill-opacity="1" /><path clip-path="url(#clip770)" d="M 0 0 M2113.66 148.674 L2113.66 152.656 Q2111.86 151.66 2110.03 151.174 Q2108.22 150.665 2106.37 150.665 Q2102.23 150.665 2099.94 153.304 Q2097.64 155.92 2097.64 160.665 Q2097.64 165.41 2099.94 168.049 Q2102.23 170.665 2106.37 170.665 Q2108.22 170.665 2110.03 170.179 Q2111.86 169.669 2113.66 168.674 L2113.66 172.609 Q2111.88 173.443 2109.96 173.859 Q2108.06 174.276 2105.91 174.276 Q2100.05 174.276 2096.6 170.595 Q2093.15 166.915 2093.15 160.665 Q2093.15 154.322 2096.63 150.688 Q2100.12 147.054 2106.19 147.054 Q2108.15 147.054 2110.03 147.471 Q2111.9 147.864 2113.66 148.674 Z" fill="#000000" fill-rule="evenodd" fill-opacity="1" /><path clip-path="url(#clip770)" d="M 0 0 M2125.28 140.318 L2125.28 147.679 L2134.06 147.679 L2134.06 150.989 L2125.28 150.989 L2125.28 165.063 Q2125.28 168.234 2126.14 169.137 Q2127.02 170.04 2129.68 170.04 L2134.06 170.04 L2134.06 173.605 L2129.68 173.605 Q2124.75 173.605 2122.88 171.776 Q2121 169.924 2121 165.063 L2121 150.989 L2117.88 150.989 L2117.88 147.679 L2121 147.679 L2121 140.318 L2125.28 140.318 Z" fill="#000000" fill-rule="evenodd" fill-opacity="1" /><path clip-path="url(#clip770)" d="M 0 0 M2154.68 151.66 Q2153.96 151.244 2153.11 151.058 Q2152.27 150.85 2151.26 150.85 Q2147.64 150.85 2145.7 153.211 Q2143.78 155.549 2143.78 159.947 L2143.78 173.605 L2139.5 173.605 L2139.5 147.679 L2143.78 147.679 L2143.78 151.707 Q2145.12 149.345 2147.27 148.211 Q2149.43 147.054 2152.51 147.054 Q2152.95 147.054 2153.48 147.123 Q2154.01 147.17 2154.66 147.285 L2154.68 151.66 Z" fill="#000000" fill-rule="evenodd" fill-opacity="1" /><path clip-path="url(#clip770)" d="M 0 0 M2158.71 163.373 L2158.71 147.679 L2162.97 147.679 L2162.97 163.211 Q2162.97 166.892 2164.4 168.744 Q2165.84 170.572 2168.71 170.572 Q2172.16 170.572 2174.15 168.373 Q2176.16 166.174 2176.16 162.378 L2176.16 147.679 L2180.42 147.679 L2180.42 173.605 L2176.16 173.605 L2176.16 169.623 Q2174.61 171.984 2172.55 173.142 Q2170.51 174.276 2167.81 174.276 Q2163.34 174.276 2161.02 171.498 Q2158.71 168.72 2158.71 163.373 M2169.43 147.054 L2169.43 147.054 Z" fill="#000000" fill-rule="evenodd" fill-opacity="1" /><path clip-path="url(#clip770)" d="M 0 0 M2209.38 152.656 Q2210.98 149.785 2213.2 148.42 Q2215.42 147.054 2218.43 147.054 Q2222.48 147.054 2224.68 149.901 Q2226.88 152.725 2226.88 157.957 L2226.88 173.605 L2222.6 173.605 L2222.6 158.095 Q2222.6 154.369 2221.28 152.563 Q2219.96 150.758 2217.25 150.758 Q2213.94 150.758 2212.02 152.957 Q2210.1 155.156 2210.1 158.952 L2210.1 173.605 L2205.82 173.605 L2205.82 158.095 Q2205.82 154.345 2204.5 152.563 Q2203.18 150.758 2200.42 150.758 Q2197.16 150.758 2195.24 152.98 Q2193.32 155.179 2193.32 158.952 L2193.32 173.605 L2189.03 173.605 L2189.03 147.679 L2193.32 147.679 L2193.32 151.707 Q2194.77 149.322 2196.81 148.188 Q2198.85 147.054 2201.65 147.054 Q2204.47 147.054 2206.44 148.489 Q2208.43 149.924 2209.38 152.656 Z" fill="#000000" fill-rule="evenodd" fill-opacity="1" /></svg>
