<?xml version="1.0" encoding="utf-8"?>
<svg xmlns="http://www.w3.org/2000/svg" xmlns:xlink="http://www.w3.org/1999/xlink" width="600" height="400" viewBox="0 0 2400 1600">
<defs>
  <clipPath id="clip830">
    <rect x="0" y="0" width="2400" height="1600"/>
  </clipPath>
</defs>
<path clip-path="url(#clip830)" d="
M0 1600 L2400 1600 L2400 0 L0 0  Z
  " fill="#ffffff" fill-rule="evenodd" fill-opacity="1"/>
<defs>
  <clipPath id="clip831">
    <rect x="480" y="0" width="1681" height="1600"/>
  </clipPath>
</defs>
<path clip-path="url(#clip830)" d="
M86.9921 1505.26 L2352.76 1505.26 L2352.76 47.2441 L86.9921 47.2441  Z
  " fill="#ffffff" fill-rule="evenodd" fill-opacity="1"/>
<defs>
  <clipPath id="clip832">
    <rect x="86" y="47" width="2267" height="1459"/>
  </clipPath>
</defs>
<polyline clip-path="url(#clip832)" style="stroke:#000000; stroke-width:2; stroke-opacity:0.1; fill:none" points="
  151.118,1505.26 151.118,47.2441 
  "/>
<polyline clip-path="url(#clip832)" style="stroke:#000000; stroke-width:2; stroke-opacity:0.1; fill:none" points="
  685.496,1505.26 685.496,47.2441 
  "/>
<polyline clip-path="url(#clip832)" style="stroke:#000000; stroke-width:2; stroke-opacity:0.1; fill:none" points="
  1219.87,1505.26 1219.87,47.2441 
  "/>
<polyline clip-path="url(#clip832)" style="stroke:#000000; stroke-width:2; stroke-opacity:0.1; fill:none" points="
  1754.25,1505.26 1754.25,47.2441 
  "/>
<polyline clip-path="url(#clip832)" style="stroke:#000000; stroke-width:2; stroke-opacity:0.1; fill:none" points="
  2288.63,1505.26 2288.63,47.2441 
  "/>
<polyline clip-path="url(#clip830)" style="stroke:#000000; stroke-width:4; stroke-opacity:1; fill:none" points="
  86.9921,1505.26 2352.76,1505.26 
  "/>
<polyline clip-path="url(#clip830)" style="stroke:#000000; stroke-width:4; stroke-opacity:1; fill:none" points="
  151.118,1505.26 151.118,1487.76 
  "/>
<polyline clip-path="url(#clip830)" style="stroke:#000000; stroke-width:4; stroke-opacity:1; fill:none" points="
  685.496,1505.26 685.496,1487.76 
  "/>
<polyline clip-path="url(#clip830)" style="stroke:#000000; stroke-width:4; stroke-opacity:1; fill:none" points="
  1219.87,1505.26 1219.87,1487.76 
  "/>
<polyline clip-path="url(#clip830)" style="stroke:#000000; stroke-width:4; stroke-opacity:1; fill:none" points="
  1754.25,1505.26 1754.25,1487.76 
  "/>
<polyline clip-path="url(#clip830)" style="stroke:#000000; stroke-width:4; stroke-opacity:1; fill:none" points="
  2288.63,1505.26 2288.63,1487.76 
  "/>
<path clip-path="url(#clip830)" d="M 0 0 M128.502 1534.45 Q124.891 1534.45 123.062 1538.02 Q121.257 1541.56 121.257 1548.69 Q121.257 1555.79 123.062 1559.36 Q124.891 1562.9 128.502 1562.9 Q132.136 1562.9 133.942 1559.36 Q135.77 1555.79 135.77 1548.69 Q135.77 1541.56 133.942 1538.02 Q132.136 1534.45 128.502 1534.45 M128.502 1530.75 Q134.312 1530.75 137.368 1535.35 Q140.446 1539.94 140.446 1548.69 Q140.446 1557.41 137.368 1562.02 Q134.312 1566.6 128.502 1566.6 Q122.692 1566.6 119.613 1562.02 Q116.558 1557.41 116.558 1548.69 Q116.558 1539.94 119.613 1535.35 Q122.692 1530.75 128.502 1530.75 Z" fill="#000000" fill-rule="evenodd" fill-opacity="1" /><path clip-path="url(#clip830)" d="M 0 0 M148.664 1560.05 L153.548 1560.05 L153.548 1565.93 L148.664 1565.93 L148.664 1560.05 Z" fill="#000000" fill-rule="evenodd" fill-opacity="1" /><path clip-path="url(#clip830)" d="M 0 0 M173.733 1534.45 Q170.122 1534.45 168.293 1538.02 Q166.488 1541.56 166.488 1548.69 Q166.488 1555.79 168.293 1559.36 Q170.122 1562.9 173.733 1562.9 Q177.367 1562.9 179.173 1559.36 Q181.002 1555.79 181.002 1548.69 Q181.002 1541.56 179.173 1538.02 Q177.367 1534.45 173.733 1534.45 M173.733 1530.75 Q179.543 1530.75 182.599 1535.35 Q185.678 1539.94 185.678 1548.69 Q185.678 1557.41 182.599 1562.02 Q179.543 1566.6 173.733 1566.6 Q167.923 1566.6 164.844 1562.02 Q161.789 1557.41 161.789 1548.69 Q161.789 1539.94 164.844 1535.35 Q167.923 1530.75 173.733 1530.75 Z" fill="#000000" fill-rule="evenodd" fill-opacity="1" /><path clip-path="url(#clip830)" d="M 0 0 M657.232 1562 L673.551 1562 L673.551 1565.93 L651.607 1565.93 L651.607 1562 Q654.269 1559.24 658.852 1554.61 Q663.459 1549.96 664.639 1548.62 Q666.885 1546.09 667.764 1544.36 Q668.667 1542.6 668.667 1540.91 Q668.667 1538.15 666.723 1536.42 Q664.801 1534.68 661.7 1534.68 Q659.501 1534.68 657.047 1535.45 Q654.616 1536.21 651.839 1537.76 L651.839 1533.04 Q654.663 1531.9 657.116 1531.33 Q659.57 1530.75 661.607 1530.75 Q666.977 1530.75 670.172 1533.43 Q673.366 1536.12 673.366 1540.61 Q673.366 1542.74 672.556 1544.66 Q671.769 1546.56 669.663 1549.15 Q669.084 1549.82 665.982 1553.04 Q662.88 1556.23 657.232 1562 Z" fill="#000000" fill-rule="evenodd" fill-opacity="1" /><path clip-path="url(#clip830)" d="M 0 0 M683.366 1560.05 L688.25 1560.05 L688.25 1565.93 L683.366 1565.93 L683.366 1560.05 Z" fill="#000000" fill-rule="evenodd" fill-opacity="1" /><path clip-path="url(#clip830)" d="M 0 0 M698.482 1531.37 L716.838 1531.37 L716.838 1535.31 L702.764 1535.31 L702.764 1543.78 Q703.783 1543.43 704.801 1543.27 Q705.82 1543.08 706.838 1543.08 Q712.625 1543.08 716.005 1546.26 Q719.384 1549.43 719.384 1554.84 Q719.384 1560.42 715.912 1563.52 Q712.44 1566.6 706.121 1566.6 Q703.945 1566.6 701.676 1566.23 Q699.431 1565.86 697.023 1565.12 L697.023 1560.42 Q699.107 1561.56 701.329 1562.11 Q703.551 1562.67 706.028 1562.67 Q710.033 1562.67 712.371 1560.56 Q714.709 1558.46 714.709 1554.84 Q714.709 1551.23 712.371 1549.13 Q710.033 1547.02 706.028 1547.02 Q704.153 1547.02 702.278 1547.44 Q700.426 1547.85 698.482 1548.73 L698.482 1531.37 Z" fill="#000000" fill-rule="evenodd" fill-opacity="1" /><path clip-path="url(#clip830)" d="M 0 0 M1187.04 1531.37 L1205.39 1531.37 L1205.39 1535.31 L1191.32 1535.31 L1191.32 1543.78 Q1192.34 1543.43 1193.36 1543.27 Q1194.38 1543.08 1195.39 1543.08 Q1201.18 1543.08 1204.56 1546.26 Q1207.94 1549.43 1207.94 1554.84 Q1207.94 1560.42 1204.47 1563.52 Q1201 1566.6 1194.68 1566.6 Q1192.5 1566.6 1190.23 1566.23 Q1187.99 1565.86 1185.58 1565.12 L1185.58 1560.42 Q1187.66 1561.56 1189.89 1562.11 Q1192.11 1562.67 1194.58 1562.67 Q1198.59 1562.67 1200.93 1560.56 Q1203.27 1558.46 1203.27 1554.84 Q1203.27 1551.23 1200.93 1549.13 Q1198.59 1547.02 1194.58 1547.02 Q1192.71 1547.02 1190.83 1547.44 Q1188.98 1547.85 1187.04 1548.73 L1187.04 1531.37 Z" fill="#000000" fill-rule="evenodd" fill-opacity="1" /><path clip-path="url(#clip830)" d="M 0 0 M1217.15 1560.05 L1222.04 1560.05 L1222.04 1565.93 L1217.15 1565.93 L1217.15 1560.05 Z" fill="#000000" fill-rule="evenodd" fill-opacity="1" /><path clip-path="url(#clip830)" d="M 0 0 M1242.22 1534.45 Q1238.61 1534.45 1236.78 1538.02 Q1234.98 1541.56 1234.98 1548.69 Q1234.98 1555.79 1236.78 1559.36 Q1238.61 1562.9 1242.22 1562.9 Q1245.86 1562.9 1247.66 1559.36 Q1249.49 1555.79 1249.49 1548.69 Q1249.49 1541.56 1247.66 1538.02 Q1245.86 1534.45 1242.22 1534.45 M1242.22 1530.75 Q1248.03 1530.75 1251.09 1535.35 Q1254.17 1539.94 1254.17 1548.69 Q1254.17 1557.41 1251.09 1562.02 Q1248.03 1566.6 1242.22 1566.6 Q1236.41 1566.6 1233.33 1562.02 Q1230.28 1557.41 1230.28 1548.69 Q1230.28 1539.94 1233.33 1535.35 Q1236.41 1530.75 1242.22 1530.75 Z" fill="#000000" fill-rule="evenodd" fill-opacity="1" /><path clip-path="url(#clip830)" d="M 0 0 M1720.57 1531.37 L1742.79 1531.37 L1742.79 1533.36 L1730.25 1565.93 L1725.36 1565.93 L1737.17 1535.31 L1720.57 1535.31 L1720.57 1531.37 Z" fill="#000000" fill-rule="evenodd" fill-opacity="1" /><path clip-path="url(#clip830)" d="M 0 0 M1751.91 1560.05 L1756.8 1560.05 L1756.8 1565.93 L1751.91 1565.93 L1751.91 1560.05 Z" fill="#000000" fill-rule="evenodd" fill-opacity="1" /><path clip-path="url(#clip830)" d="M 0 0 M1767.03 1531.37 L1785.39 1531.37 L1785.39 1535.31 L1771.31 1535.31 L1771.31 1543.78 Q1772.33 1543.43 1773.35 1543.27 Q1774.37 1543.08 1775.39 1543.08 Q1781.17 1543.08 1784.55 1546.26 Q1787.93 1549.43 1787.93 1554.84 Q1787.93 1560.42 1784.46 1563.52 Q1780.99 1566.6 1774.67 1566.6 Q1772.49 1566.6 1770.22 1566.23 Q1767.98 1565.86 1765.57 1565.12 L1765.57 1560.42 Q1767.65 1561.56 1769.88 1562.11 Q1772.1 1562.67 1774.58 1562.67 Q1778.58 1562.67 1780.92 1560.56 Q1783.26 1558.46 1783.26 1554.84 Q1783.26 1551.23 1780.92 1549.13 Q1778.58 1547.02 1774.58 1547.02 Q1772.7 1547.02 1770.83 1547.44 Q1768.97 1547.85 1767.03 1548.73 L1767.03 1531.37 Z" fill="#000000" fill-rule="evenodd" fill-opacity="1" /><path clip-path="url(#clip830)" d="M 0 0 M2240.7 1562 L2248.34 1562 L2248.34 1535.63 L2240.03 1537.3 L2240.03 1533.04 L2248.3 1531.37 L2252.97 1531.37 L2252.97 1562 L2260.61 1562 L2260.61 1565.93 L2240.7 1565.93 L2240.7 1562 Z" fill="#000000" fill-rule="evenodd" fill-opacity="1" /><path clip-path="url(#clip830)" d="M 0 0 M2280.05 1534.45 Q2276.44 1534.45 2274.61 1538.02 Q2272.81 1541.56 2272.81 1548.69 Q2272.81 1555.79 2274.61 1559.36 Q2276.44 1562.9 2280.05 1562.9 Q2283.69 1562.9 2285.49 1559.36 Q2287.32 1555.79 2287.32 1548.69 Q2287.32 1541.56 2285.49 1538.02 Q2283.69 1534.45 2280.05 1534.45 M2280.05 1530.75 Q2285.86 1530.75 2288.92 1535.35 Q2292 1539.94 2292 1548.69 Q2292 1557.41 2288.92 1562.02 Q2285.86 1566.6 2280.05 1566.6 Q2274.24 1566.6 2271.17 1562.02 Q2268.11 1557.41 2268.11 1548.69 Q2268.11 1539.94 2271.17 1535.35 Q2274.24 1530.75 2280.05 1530.75 Z" fill="#000000" fill-rule="evenodd" fill-opacity="1" /><path clip-path="url(#clip830)" d="M 0 0 M2300.22 1560.05 L2305.1 1560.05 L2305.1 1565.93 L2300.22 1565.93 L2300.22 1560.05 Z" fill="#000000" fill-rule="evenodd" fill-opacity="1" /><path clip-path="url(#clip830)" d="M 0 0 M2325.29 1534.45 Q2321.67 1534.45 2319.85 1538.02 Q2318.04 1541.56 2318.04 1548.69 Q2318.04 1555.79 2319.85 1559.36 Q2321.67 1562.9 2325.29 1562.9 Q2328.92 1562.9 2330.73 1559.36 Q2332.55 1555.79 2332.55 1548.69 Q2332.55 1541.56 2330.73 1538.02 Q2328.92 1534.45 2325.29 1534.45 M2325.29 1530.75 Q2331.1 1530.75 2334.15 1535.35 Q2337.23 1539.94 2337.23 1548.69 Q2337.23 1557.41 2334.15 1562.02 Q2331.1 1566.6 2325.29 1566.6 Q2319.48 1566.6 2316.4 1562.02 Q2313.34 1557.41 2313.34 1548.69 Q2313.34 1539.94 2316.4 1535.35 Q2319.48 1530.75 2325.29 1530.75 Z" fill="#000000" fill-rule="evenodd" fill-opacity="1" /><path clip-path="url(#clip830)" d="M 0 0 M1218.94 1604.35 L1218.94 1614.48 L1231 1614.48 L1231 1619.03 L1218.94 1619.03 L1218.94 1638.38 Q1218.94 1642.74 1220.11 1643.98 Q1221.32 1645.22 1224.98 1645.22 L1231 1645.22 L1231 1650.12 L1224.98 1650.12 Q1218.2 1650.12 1215.62 1647.61 Q1213.05 1645.06 1213.05 1638.38 L1213.05 1619.03 L1208.75 1619.03 L1208.75 1614.48 L1213.05 1614.48 L1213.05 1604.35 L1218.94 1604.35 Z" fill="#000000" fill-rule="evenodd" fill-opacity="1" /><polyline clip-path="url(#clip832)" style="stroke:#000000; stroke-width:2; stroke-opacity:0.1; fill:none" points="
  86.9921,1464 2352.76,1464 
  "/>
<polyline clip-path="url(#clip832)" style="stroke:#000000; stroke-width:2; stroke-opacity:0.1; fill:none" points="
  86.9921,1000.29 2352.76,1000.29 
  "/>
<polyline clip-path="url(#clip832)" style="stroke:#000000; stroke-width:2; stroke-opacity:0.1; fill:none" points="
  86.9921,536.593 2352.76,536.593 
  "/>
<polyline clip-path="url(#clip832)" style="stroke:#000000; stroke-width:2; stroke-opacity:0.1; fill:none" points="
  86.9921,72.8922 2352.76,72.8922 
  "/>
<polyline clip-path="url(#clip830)" style="stroke:#000000; stroke-width:4; stroke-opacity:1; fill:none" points="
  86.9921,1505.26 86.9921,47.2441 
  "/>
<polyline clip-path="url(#clip830)" style="stroke:#000000; stroke-width:4; stroke-opacity:1; fill:none" points="
  86.9921,1464 114.181,1464 
  "/>
<polyline clip-path="url(#clip830)" style="stroke:#000000; stroke-width:4; stroke-opacity:1; fill:none" points="
  86.9921,1000.29 114.181,1000.29 
  "/>
<polyline clip-path="url(#clip830)" style="stroke:#000000; stroke-width:4; stroke-opacity:1; fill:none" points="
  86.9921,536.593 114.181,536.593 
  "/>
<polyline clip-path="url(#clip830)" style="stroke:#000000; stroke-width:4; stroke-opacity:1; fill:none" points="
  86.9921,72.8922 114.181,72.8922 
  "/>
<path clip-path="url(#clip830)" d="M 0 0 M-6.18349 1449.79 Q-9.79459 1449.79 -11.6233 1453.36 Q-13.4288 1456.9 -13.4288 1464.03 Q-13.4288 1471.14 -11.6233 1474.7 Q-9.79459 1478.24 -6.18349 1478.24 Q-2.54925 1478.24 -0.743708 1474.7 Q1.08499 1471.14 1.08499 1464.03 Q1.08499 1456.9 -0.743708 1453.36 Q-2.54925 1449.79 -6.18349 1449.79 M-6.18349 1446.09 Q-0.37334 1446.09 2.6822 1450.7 Q5.76089 1455.28 5.76089 1464.03 Q5.76089 1472.76 2.6822 1477.36 Q-0.37334 1481.95 -6.18349 1481.95 Q-11.9936 1481.95 -15.0723 1477.36 Q-18.1279 1472.76 -18.1279 1464.03 Q-18.1279 1455.28 -15.0723 1450.7 Q-11.9936 1446.09 -6.18349 1446.09 Z" fill="#000000" fill-rule="evenodd" fill-opacity="1" /><path clip-path="url(#clip830)" d="M 0 0 M13.9784 1475.4 L18.8627 1475.4 L18.8627 1481.28 L13.9784 1481.28 L13.9784 1475.4 Z" fill="#000000" fill-rule="evenodd" fill-opacity="1" /><path clip-path="url(#clip830)" d="M 0 0 M39.0477 1449.79 Q35.4367 1449.79 33.608 1453.36 Q31.8024 1456.9 31.8024 1464.03 Q31.8024 1471.14 33.608 1474.7 Q35.4367 1478.24 39.0477 1478.24 Q42.682 1478.24 44.4875 1474.7 Q46.3162 1471.14 46.3162 1464.03 Q46.3162 1456.9 44.4875 1453.36 Q42.682 1449.79 39.0477 1449.79 M39.0477 1446.09 Q44.8579 1446.09 47.9134 1450.7 Q50.9921 1455.28 50.9921 1464.03 Q50.9921 1472.76 47.9134 1477.36 Q44.8579 1481.95 39.0477 1481.95 Q33.2376 1481.95 30.1589 1477.36 Q27.1034 1472.76 27.1034 1464.03 Q27.1034 1455.28 30.1589 1450.7 Q33.2376 1446.09 39.0477 1446.09 Z" fill="#000000" fill-rule="evenodd" fill-opacity="1" /><path clip-path="url(#clip830)" d="M 0 0 M-5.18813 986.093 Q-8.79922 986.093 -10.6279 989.658 Q-12.4335 993.199 -12.4335 1000.33 Q-12.4335 1007.44 -10.6279 1011 Q-8.79922 1014.54 -5.18813 1014.54 Q-1.55389 1014.54 0.251657 1011 Q2.08035 1007.44 2.08035 1000.33 Q2.08035 993.199 0.251657 989.658 Q-1.55389 986.093 -5.18813 986.093 M-5.18813 982.389 Q0.622026 982.389 3.67756 986.996 Q6.75625 991.579 6.75625 1000.33 Q6.75625 1009.06 3.67756 1013.66 Q0.622026 1018.25 -5.18813 1018.25 Q-10.9983 1018.25 -14.077 1013.66 Q-17.1325 1009.06 -17.1325 1000.33 Q-17.1325 991.579 -14.077 986.996 Q-10.9983 982.389 -5.18813 982.389 Z" fill="#000000" fill-rule="evenodd" fill-opacity="1" /><path clip-path="url(#clip830)" d="M 0 0 M14.9738 1011.69 L19.858 1011.69 L19.858 1017.57 L14.9738 1017.57 L14.9738 1011.69 Z" fill="#000000" fill-rule="evenodd" fill-opacity="1" /><path clip-path="url(#clip830)" d="M 0 0 M30.0895 983.014 L48.4458 983.014 L48.4458 986.949 L34.3718 986.949 L34.3718 995.422 Q35.3904 995.074 36.4089 994.912 Q37.4274 994.727 38.4459 994.727 Q44.2329 994.727 47.6125 997.898 Q50.9921 1001.07 50.9921 1006.49 Q50.9921 1012.06 47.5199 1015.17 Q44.0477 1018.25 37.7283 1018.25 Q35.5524 1018.25 33.2839 1017.88 Q31.0385 1017.5 28.6311 1016.76 L28.6311 1012.06 Q30.7145 1013.2 32.9367 1013.75 Q35.1589 1014.31 37.6357 1014.31 Q41.6403 1014.31 43.9783 1012.2 Q46.3162 1010.1 46.3162 1006.49 Q46.3162 1002.88 43.9783 1000.77 Q41.6403 998.662 37.6357 998.662 Q35.7607 998.662 33.8857 999.079 Q32.0339 999.496 30.0895 1000.38 L30.0895 983.014 Z" fill="#000000" fill-rule="evenodd" fill-opacity="1" /><path clip-path="url(#clip830)" d="M 0 0 M-15.3733 549.938 L-7.73441 549.938 L-7.73441 523.572 L-16.0446 525.239 L-16.0446 520.98 L-7.78071 519.313 L-3.10481 519.313 L-3.10481 549.938 L4.53404 549.938 L4.53404 553.873 L-15.3733 553.873 L-15.3733 549.938 Z" fill="#000000" fill-rule="evenodd" fill-opacity="1" /><path clip-path="url(#clip830)" d="M 0 0 M13.9784 547.994 L18.8627 547.994 L18.8627 553.873 L13.9784 553.873 L13.9784 547.994 Z" fill="#000000" fill-rule="evenodd" fill-opacity="1" /><path clip-path="url(#clip830)" d="M 0 0 M39.0477 522.392 Q35.4367 522.392 33.608 525.957 Q31.8024 529.498 31.8024 536.628 Q31.8024 543.734 33.608 547.299 Q35.4367 550.841 39.0477 550.841 Q42.682 550.841 44.4875 547.299 Q46.3162 543.734 46.3162 536.628 Q46.3162 529.498 44.4875 525.957 Q42.682 522.392 39.0477 522.392 M39.0477 518.688 Q44.8579 518.688 47.9134 523.295 Q50.9921 527.878 50.9921 536.628 Q50.9921 545.355 47.9134 549.961 Q44.8579 554.544 39.0477 554.544 Q33.2376 554.544 30.1589 549.961 Q27.1034 545.355 27.1034 536.628 Q27.1034 527.878 30.1589 523.295 Q33.2376 518.688 39.0477 518.688 Z" fill="#000000" fill-rule="evenodd" fill-opacity="1" /><path clip-path="url(#clip830)" d="M 0 0 M-14.3779 86.237 L-6.73905 86.237 L-6.73905 59.8714 L-15.0492 61.5381 L-15.0492 57.2788 L-6.78534 55.6122 L-2.10944 55.6122 L-2.10944 86.237 L5.52941 86.237 L5.52941 90.1722 L-14.3779 90.1722 L-14.3779 86.237 Z" fill="#000000" fill-rule="evenodd" fill-opacity="1" /><path clip-path="url(#clip830)" d="M 0 0 M14.9738 84.2926 L19.858 84.2926 L19.858 90.1722 L14.9738 90.1722 L14.9738 84.2926 Z" fill="#000000" fill-rule="evenodd" fill-opacity="1" /><path clip-path="url(#clip830)" d="M 0 0 M30.0895 55.6122 L48.4458 55.6122 L48.4458 59.5473 L34.3718 59.5473 L34.3718 68.0195 Q35.3904 67.6723 36.4089 67.5103 Q37.4274 67.3251 38.4459 67.3251 Q44.2329 67.3251 47.6125 70.4964 Q50.9921 73.6676 50.9921 79.0843 Q50.9921 84.6629 47.5199 87.7648 Q44.0477 90.8435 37.7283 90.8435 Q35.5524 90.8435 33.2839 90.4731 Q31.0385 90.1027 28.6311 89.362 L28.6311 84.6629 Q30.7145 85.7972 32.9367 86.3528 Q35.1589 86.9083 37.6357 86.9083 Q41.6403 86.9083 43.9783 84.8018 Q46.3162 82.6954 46.3162 79.0843 Q46.3162 75.4732 43.9783 73.3667 Q41.6403 71.2602 37.6357 71.2602 Q35.7607 71.2602 33.8857 71.6769 Q32.0339 72.0936 30.0895 72.9732 L30.0895 55.6122 Z" fill="#000000" fill-rule="evenodd" fill-opacity="1" /><polyline clip-path="url(#clip832)" style="stroke:#009af9; stroke-width:4; stroke-opacity:1; fill:none" points="
  151.118,1464 151.139,1464 151.353,1464 152.105,1463.99 153.207,1463.99 154.618,1463.98 156.417,1463.95 158.581,1463.88 161.132,1463.73 164.078,1463.45 
  167.461,1462.93 171.338,1462.04 175.786,1460.59 180.897,1458.28 186.778,1454.7 193.553,1449.26 201.367,1441.2 210.384,1429.48 220.791,1412.82 232.794,1389.67 
  246.596,1358.32 262.37,1317.2 280.229,1265.19 300.223,1202.03 322.386,1128.42 346.727,1046.15 373.302,957.777 402.239,866.23 433.778,774.405 468.23,684.914 
  505.89,599.976 547.027,521.122 592.267,448.611 643.212,381.444 702.723,318.485 779.489,256.522 847.834,215.393 937.748,176.117 1031.35,148.025 1159.25,123.527 
  1268.21,110.728 1396.7,101.475 1513.42,96.3555 1621.43,93.4124 1729.39,91.5603 1841.72,90.2381 1943.18,89.5562 2044.34,89.0999 2152.24,88.7103 2257.07,88.5519 
  2288.63,88.5087 
  "/>
<polyline clip-path="url(#clip832)" style="stroke:#e26f46; stroke-width:4; stroke-opacity:1; fill:none" points="
  151.118,1464 151.139,1463.62 151.353,1459.92 152.105,1447.03 153.207,1428.48 154.618,1405.32 156.417,1376.74 158.581,1343.73 161.132,1306.65 164.078,1266.24 
  167.461,1222.83 171.338,1176.85 175.786,1128.72 180.897,1079.08 186.778,1028.82 193.553,979.112 201.367,931.413 210.384,887.432 220.791,849.036 232.794,818.098 
  246.596,796.241 262.37,784.48 280.229,782.833 300.223,790.108 322.386,804.076 346.727,821.914 373.302,840.776 402.239,858.287 433.778,872.875 468.23,883.874 
  505.89,891.482 547.027,896.537 592.267,900.105 643.212,903.045 702.723,905.777 779.489,908.461 847.834,910.147 937.748,911.674 1031.35,912.718 1159.25,913.625 
  1268.21,914.076 1396.7,914.388 1513.42,914.62 1621.43,914.671 1729.39,914.739 1841.72,914.848 1943.18,914.791 2044.34,914.837 2152.24,914.888 2257.07,914.824 
  2288.63,914.838 
  "/>
<path clip-path="url(#clip830)" d="
M1457.4 277.285 L2277.23 277.285 L2277.23 95.8446 L1457.4 95.8446  Z
  " fill="#ffffff" fill-rule="evenodd" fill-opacity="1"/>
<polyline clip-path="url(#clip830)" style="stroke:#000000; stroke-width:4; stroke-opacity:1; fill:none" points="
  1457.4,277.285 2277.23,277.285 2277.23,95.8446 1457.4,95.8446 1457.4,277.285 
  "/>
<polyline clip-path="url(#clip830)" style="stroke:#009af9; stroke-width:4; stroke-opacity:1; fill:none" points="
  1482.58,156.325 1633.63,156.325 
  "/>
<path clip-path="url(#clip830)" d="M 0 0 M1663.48 142.887 L1663.48 155.873 L1669.36 155.873 Q1672.62 155.873 1674.41 154.183 Q1676.19 152.494 1676.19 149.369 Q1676.19 146.267 1674.41 144.577 Q1672.62 142.887 1669.36 142.887 L1663.48 142.887 M1658.8 139.045 L1669.36 139.045 Q1675.17 139.045 1678.13 141.683 Q1681.12 144.299 1681.12 149.369 Q1681.12 154.484 1678.13 157.1 Q1675.17 159.716 1669.36 159.716 L1663.48 159.716 L1663.48 173.605 L1658.8 173.605 L1658.8 139.045 Z" fill="#000000" fill-rule="evenodd" fill-opacity="1" /><path clip-path="url(#clip830)" d="M 0 0 M1708.76 157.957 L1708.76 173.605 L1704.5 173.605 L1704.5 158.095 Q1704.5 154.415 1703.06 152.586 Q1701.63 150.758 1698.76 150.758 Q1695.31 150.758 1693.32 152.957 Q1691.33 155.156 1691.33 158.952 L1691.33 173.605 L1687.05 173.605 L1687.05 137.586 L1691.33 137.586 L1691.33 151.707 Q1692.86 149.369 1694.92 148.211 Q1697 147.054 1699.71 147.054 Q1704.17 147.054 1706.47 149.832 Q1708.76 152.586 1708.76 157.957 Z" fill="#000000" fill-rule="evenodd" fill-opacity="1" /><path clip-path="url(#clip830)" d="M 0 0 M1727.3 150.665 Q1723.87 150.665 1721.88 153.35 Q1719.89 156.012 1719.89 160.665 Q1719.89 165.318 1721.86 168.003 Q1723.85 170.665 1727.3 170.665 Q1730.7 170.665 1732.69 167.98 Q1734.68 165.294 1734.68 160.665 Q1734.68 156.058 1732.69 153.373 Q1730.7 150.665 1727.3 150.665 M1727.3 147.054 Q1732.86 147.054 1736.03 150.665 Q1739.2 154.276 1739.2 160.665 Q1739.2 167.031 1736.03 170.665 Q1732.86 174.276 1727.3 174.276 Q1721.72 174.276 1718.55 170.665 Q1715.4 167.031 1715.4 160.665 Q1715.4 154.276 1718.55 150.665 Q1721.72 147.054 1727.3 147.054 Z" fill="#000000" fill-rule="evenodd" fill-opacity="1" /><path clip-path="url(#clip830)" d="M 0 0 M1750.47 140.318 L1750.47 147.679 L1759.24 147.679 L1759.24 150.989 L1750.47 150.989 L1750.47 165.063 Q1750.47 168.234 1751.33 169.137 Q1752.21 170.04 1754.87 170.04 L1759.24 170.04 L1759.24 173.605 L1754.87 173.605 Q1749.94 173.605 1748.06 171.776 Q1746.19 169.924 1746.19 165.063 L1746.19 150.989 L1743.06 150.989 L1743.06 147.679 L1746.19 147.679 L1746.19 140.318 L1750.47 140.318 Z" fill="#000000" fill-rule="evenodd" fill-opacity="1" /><path clip-path="url(#clip830)" d="M 0 0 M1774.89 150.665 Q1771.47 150.665 1769.48 153.35 Q1767.48 156.012 1767.48 160.665 Q1767.48 165.318 1769.45 168.003 Q1771.44 170.665 1774.89 170.665 Q1778.29 170.665 1780.29 167.98 Q1782.28 165.294 1782.28 160.665 Q1782.28 156.058 1780.29 153.373 Q1778.29 150.665 1774.89 150.665 M1774.89 147.054 Q1780.45 147.054 1783.62 150.665 Q1786.79 154.276 1786.79 160.665 Q1786.79 167.031 1783.62 170.665 Q1780.45 174.276 1774.89 174.276 Q1769.31 174.276 1766.14 170.665 Q1762.99 167.031 1762.99 160.665 Q1762.99 154.276 1766.14 150.665 Q1769.31 147.054 1774.89 147.054 Z" fill="#000000" fill-rule="evenodd" fill-opacity="1" /><path clip-path="url(#clip830)" d="M 0 0 M1815.4 157.957 L1815.4 173.605 L1811.14 173.605 L1811.14 158.095 Q1811.14 154.415 1809.71 152.586 Q1808.27 150.758 1805.4 150.758 Q1801.95 150.758 1799.96 152.957 Q1797.97 155.156 1797.97 158.952 L1797.97 173.605 L1793.69 173.605 L1793.69 147.679 L1797.97 147.679 L1797.97 151.707 Q1799.5 149.369 1801.56 148.211 Q1803.64 147.054 1806.35 147.054 Q1810.82 147.054 1813.11 149.832 Q1815.4 152.586 1815.4 157.957 Z" fill="#000000" fill-rule="evenodd" fill-opacity="1" /><path clip-path="url(#clip830)" d="M 0 0 M1860.52 157.957 L1860.52 173.605 L1856.26 173.605 L1856.26 158.095 Q1856.26 154.415 1854.82 152.586 Q1853.39 150.758 1850.52 150.758 Q1847.07 150.758 1845.08 152.957 Q1843.09 155.156 1843.09 158.952 L1843.09 173.605 L1838.8 173.605 L1838.8 147.679 L1843.09 147.679 L1843.09 151.707 Q1844.61 149.369 1846.67 148.211 Q1848.76 147.054 1851.47 147.054 Q1855.93 147.054 1858.22 149.832 Q1860.52 152.586 1860.52 157.957 Z" fill="#000000" fill-rule="evenodd" fill-opacity="1" /><path clip-path="url(#clip830)" d="M 0 0 M1868.57 163.373 L1868.57 147.679 L1872.83 147.679 L1872.83 163.211 Q1872.83 166.892 1874.27 168.744 Q1875.7 170.572 1878.57 170.572 Q1882.02 170.572 1884.01 168.373 Q1886.03 166.174 1886.03 162.378 L1886.03 147.679 L1890.28 147.679 L1890.28 173.605 L1886.03 173.605 L1886.03 169.623 Q1884.47 171.984 1882.41 173.142 Q1880.38 174.276 1877.67 174.276 Q1873.2 174.276 1870.89 171.498 Q1868.57 168.72 1868.57 163.373 M1879.29 147.054 L1879.29 147.054 Z" fill="#000000" fill-rule="evenodd" fill-opacity="1" /><path clip-path="url(#clip830)" d="M 0 0 M1919.24 152.656 Q1920.84 149.785 1923.06 148.42 Q1925.28 147.054 1928.29 147.054 Q1932.34 147.054 1934.54 149.901 Q1936.74 152.725 1936.74 157.957 L1936.74 173.605 L1932.46 173.605 L1932.46 158.095 Q1932.46 154.369 1931.14 152.563 Q1929.82 150.758 1927.11 150.758 Q1923.8 150.758 1921.88 152.957 Q1919.96 155.156 1919.96 158.952 L1919.96 173.605 L1915.68 173.605 L1915.68 158.095 Q1915.68 154.345 1914.36 152.563 Q1913.04 150.758 1910.28 150.758 Q1907.02 150.758 1905.1 152.98 Q1903.18 155.179 1903.18 158.952 L1903.18 173.605 L1898.9 173.605 L1898.9 147.679 L1903.18 147.679 L1903.18 151.707 Q1904.64 149.322 1906.67 148.188 Q1908.71 147.054 1911.51 147.054 Q1914.34 147.054 1916.3 148.489 Q1918.29 149.924 1919.24 152.656 Z" fill="#000000" fill-rule="evenodd" fill-opacity="1" /><path clip-path="url(#clip830)" d="M 0 0 M1963.85 160.665 Q1963.85 155.966 1961.9 153.304 Q1959.98 150.619 1956.6 150.619 Q1953.22 150.619 1951.28 153.304 Q1949.36 155.966 1949.36 160.665 Q1949.36 165.364 1951.28 168.049 Q1953.22 170.711 1956.6 170.711 Q1959.98 170.711 1961.9 168.049 Q1963.85 165.364 1963.85 160.665 M1949.36 151.614 Q1950.7 149.299 1952.74 148.188 Q1954.8 147.054 1957.65 147.054 Q1962.37 147.054 1965.31 150.804 Q1968.27 154.554 1968.27 160.665 Q1968.27 166.776 1965.31 170.526 Q1962.37 174.276 1957.65 174.276 Q1954.8 174.276 1952.74 173.165 Q1950.7 172.031 1949.36 169.716 L1949.36 173.605 L1945.08 173.605 L1945.08 137.586 L1949.36 137.586 L1949.36 151.614 Z" fill="#000000" fill-rule="evenodd" fill-opacity="1" /><path clip-path="url(#clip830)" d="M 0 0 M1997.51 159.577 L1997.51 161.66 L1977.92 161.66 Q1978.2 166.058 1980.56 168.373 Q1982.95 170.665 1987.18 170.665 Q1989.64 170.665 1991.93 170.063 Q1994.24 169.461 1996.51 168.257 L1996.51 172.285 Q1994.22 173.257 1991.81 173.767 Q1989.4 174.276 1986.93 174.276 Q1980.72 174.276 1977.09 170.665 Q1973.48 167.054 1973.48 160.896 Q1973.48 154.531 1976.9 150.804 Q1980.35 147.054 1986.19 147.054 Q1991.42 147.054 1994.45 150.433 Q1997.51 153.79 1997.51 159.577 M1993.25 158.327 Q1993.2 154.832 1991.28 152.748 Q1989.38 150.665 1986.23 150.665 Q1982.67 150.665 1980.52 152.679 Q1978.39 154.693 1978.06 158.35 L1993.25 158.327 Z" fill="#000000" fill-rule="evenodd" fill-opacity="1" /><path clip-path="url(#clip830)" d="M 0 0 M2019.52 151.66 Q2018.8 151.244 2017.95 151.058 Q2017.11 150.85 2016.09 150.85 Q2012.48 150.85 2010.54 153.211 Q2008.62 155.549 2008.62 159.947 L2008.62 173.605 L2004.34 173.605 L2004.34 147.679 L2008.62 147.679 L2008.62 151.707 Q2009.96 149.345 2012.11 148.211 Q2014.27 147.054 2017.34 147.054 Q2017.78 147.054 2018.32 147.123 Q2018.85 147.17 2019.5 147.285 L2019.52 151.66 Z" fill="#000000" fill-rule="evenodd" fill-opacity="1" /><polyline clip-path="url(#clip830)" style="stroke:#e26f46; stroke-width:4; stroke-opacity:1; fill:none" points="
  1482.58,216.805 1633.63,216.805 
  "/>
<path clip-path="url(#clip830)" d="M 0 0 M1658.8 199.525 L1680.66 199.525 L1680.66 203.46 L1663.48 203.46 L1663.48 213.691 L1679.94 213.691 L1679.94 217.626 L1663.48 217.626 L1663.48 230.149 L1681.07 230.149 L1681.07 234.085 L1658.8 234.085 L1658.8 199.525 Z" fill="#000000" fill-rule="evenodd" fill-opacity="1" /><path clip-path="url(#clip830)" d="M 0 0 M1710.12 208.159 L1700.75 220.775 L1710.61 234.085 L1705.59 234.085 L1698.04 223.899 L1690.49 234.085 L1685.47 234.085 L1695.54 220.52 L1686.33 208.159 L1691.35 208.159 L1698.23 217.395 L1705.1 208.159 L1710.12 208.159 Z" fill="#000000" fill-rule="evenodd" fill-opacity="1" /><path clip-path="url(#clip830)" d="M 0 0 M1734.45 209.154 L1734.45 213.136 Q1732.65 212.14 1730.82 211.654 Q1729.01 211.145 1727.16 211.145 Q1723.02 211.145 1720.73 213.784 Q1718.43 216.4 1718.43 221.145 Q1718.43 225.89 1720.73 228.529 Q1723.02 231.145 1727.16 231.145 Q1729.01 231.145 1730.82 230.659 Q1732.65 230.149 1734.45 229.154 L1734.45 233.089 Q1732.67 233.923 1730.75 234.339 Q1728.85 234.756 1726.7 234.756 Q1720.84 234.756 1717.39 231.075 Q1713.94 227.395 1713.94 221.145 Q1713.94 214.802 1717.42 211.168 Q1720.91 207.534 1726.98 207.534 Q1728.94 207.534 1730.82 207.951 Q1732.69 208.344 1734.45 209.154 Z" fill="#000000" fill-rule="evenodd" fill-opacity="1" /><path clip-path="url(#clip830)" d="M 0 0 M1741.86 208.159 L1746.12 208.159 L1746.12 234.085 L1741.86 234.085 L1741.86 208.159 M1741.86 198.066 L1746.12 198.066 L1746.12 203.46 L1741.86 203.46 L1741.86 198.066 Z" fill="#000000" fill-rule="evenodd" fill-opacity="1" /><path clip-path="url(#clip830)" d="M 0 0 M1759.24 200.798 L1759.24 208.159 L1768.02 208.159 L1768.02 211.469 L1759.24 211.469 L1759.24 225.543 Q1759.24 228.714 1760.1 229.617 Q1760.98 230.52 1763.64 230.52 L1768.02 230.52 L1768.02 234.085 L1763.64 234.085 Q1758.71 234.085 1756.84 232.256 Q1754.96 230.404 1754.96 225.543 L1754.96 211.469 L1751.84 211.469 L1751.84 208.159 L1754.96 208.159 L1754.96 200.798 L1759.24 200.798 Z" fill="#000000" fill-rule="evenodd" fill-opacity="1" /><path clip-path="url(#clip830)" d="M 0 0 M1795.79 220.057 L1795.79 222.14 L1776.21 222.14 Q1776.49 226.538 1778.85 228.853 Q1781.23 231.145 1785.47 231.145 Q1787.92 231.145 1790.22 230.543 Q1792.53 229.941 1794.8 228.737 L1794.8 232.765 Q1792.51 233.737 1790.1 234.247 Q1787.69 234.756 1785.22 234.756 Q1779.01 234.756 1775.38 231.145 Q1771.77 227.534 1771.77 221.376 Q1771.77 215.011 1775.19 211.284 Q1778.64 207.534 1784.48 207.534 Q1789.71 207.534 1792.74 210.913 Q1795.79 214.27 1795.79 220.057 M1791.54 218.807 Q1791.49 215.312 1789.57 213.228 Q1787.67 211.145 1784.52 211.145 Q1780.96 211.145 1778.8 213.159 Q1776.67 215.173 1776.35 218.83 L1791.54 218.807 Z" fill="#000000" fill-rule="evenodd" fill-opacity="1" /><path clip-path="url(#clip830)" d="M 0 0 M1819.85 212.094 L1819.85 198.066 L1824.1 198.066 L1824.1 234.085 L1819.85 234.085 L1819.85 230.196 Q1818.5 232.511 1816.44 233.645 Q1814.41 234.756 1811.54 234.756 Q1806.84 234.756 1803.87 231.006 Q1800.93 227.256 1800.93 221.145 Q1800.93 215.034 1803.87 211.284 Q1806.84 207.534 1811.54 207.534 Q1814.41 207.534 1816.44 208.668 Q1818.5 209.779 1819.85 212.094 M1805.33 221.145 Q1805.33 225.844 1807.25 228.529 Q1809.2 231.191 1812.58 231.191 Q1815.96 231.191 1817.9 228.529 Q1819.85 225.844 1819.85 221.145 Q1819.85 216.446 1817.9 213.784 Q1815.96 211.099 1812.58 211.099 Q1809.2 211.099 1807.25 213.784 Q1805.33 216.446 1805.33 221.145 Z" fill="#000000" fill-rule="evenodd" fill-opacity="1" /><path clip-path="url(#clip830)" d="M 0 0 M1864.47 208.923 L1864.47 212.95 Q1862.67 212.025 1860.72 211.562 Q1858.78 211.099 1856.7 211.099 Q1853.53 211.099 1851.93 212.071 Q1850.35 213.043 1850.35 214.987 Q1850.35 216.469 1851.49 217.325 Q1852.62 218.159 1856.05 218.923 L1857.51 219.247 Q1862.04 220.219 1863.94 222.001 Q1865.86 223.761 1865.86 226.932 Q1865.86 230.543 1862.99 232.649 Q1860.15 234.756 1855.15 234.756 Q1853.06 234.756 1850.79 234.339 Q1848.55 233.946 1846.05 233.136 L1846.05 228.737 Q1848.41 229.964 1850.7 230.589 Q1852.99 231.191 1855.24 231.191 Q1858.25 231.191 1859.87 230.173 Q1861.49 229.131 1861.49 227.256 Q1861.49 225.52 1860.31 224.594 Q1859.15 223.668 1855.19 222.812 L1853.71 222.464 Q1849.75 221.631 1847.99 219.918 Q1846.23 218.182 1846.23 215.173 Q1846.23 211.515 1848.83 209.525 Q1851.42 207.534 1856.19 207.534 Q1858.55 207.534 1860.63 207.881 Q1862.72 208.228 1864.47 208.923 Z" fill="#000000" fill-rule="evenodd" fill-opacity="1" /><path clip-path="url(#clip830)" d="M 0 0 M1876.86 200.798 L1876.86 208.159 L1885.63 208.159 L1885.63 211.469 L1876.86 211.469 L1876.86 225.543 Q1876.86 228.714 1877.72 229.617 Q1878.59 230.52 1881.26 230.52 L1885.63 230.52 L1885.63 234.085 L1881.26 234.085 Q1876.33 234.085 1874.45 232.256 Q1872.58 230.404 1872.58 225.543 L1872.58 211.469 L1869.45 211.469 L1869.45 208.159 L1872.58 208.159 L1872.58 200.798 L1876.86 200.798 Z" fill="#000000" fill-rule="evenodd" fill-opacity="1" /><path clip-path="url(#clip830)" d="M 0 0 M1903.02 221.052 Q1897.85 221.052 1895.86 222.233 Q1893.87 223.413 1893.87 226.261 Q1893.87 228.529 1895.35 229.872 Q1896.86 231.191 1899.43 231.191 Q1902.97 231.191 1905.1 228.691 Q1907.25 226.168 1907.25 222.001 L1907.25 221.052 L1903.02 221.052 M1911.51 219.293 L1911.51 234.085 L1907.25 234.085 L1907.25 230.149 Q1905.79 232.511 1903.62 233.645 Q1901.44 234.756 1898.29 234.756 Q1894.31 234.756 1891.95 232.534 Q1889.61 230.288 1889.61 226.538 Q1889.61 222.163 1892.53 219.941 Q1895.47 217.719 1901.28 217.719 L1907.25 217.719 L1907.25 217.302 Q1907.25 214.363 1905.31 212.765 Q1903.39 211.145 1899.89 211.145 Q1897.67 211.145 1895.56 211.677 Q1893.46 212.21 1891.51 213.275 L1891.51 209.339 Q1893.85 208.437 1896.05 207.997 Q1898.25 207.534 1900.33 207.534 Q1905.96 207.534 1908.73 210.45 Q1911.51 213.367 1911.51 219.293 Z" fill="#000000" fill-rule="evenodd" fill-opacity="1" /><path clip-path="url(#clip830)" d="M 0 0 M1924.5 200.798 L1924.5 208.159 L1933.27 208.159 L1933.27 211.469 L1924.5 211.469 L1924.5 225.543 Q1924.5 228.714 1925.35 229.617 Q1926.23 230.52 1928.9 230.52 L1933.27 230.52 L1933.27 234.085 L1928.9 234.085 Q1923.97 234.085 1922.09 232.256 Q1920.22 230.404 1920.22 225.543 L1920.22 211.469 L1917.09 211.469 L1917.09 208.159 L1920.22 208.159 L1920.22 200.798 L1924.5 200.798 Z" fill="#000000" fill-rule="evenodd" fill-opacity="1" /><path clip-path="url(#clip830)" d="M 0 0 M1961.05 220.057 L1961.05 222.14 L1941.47 222.14 Q1941.74 226.538 1944.1 228.853 Q1946.49 231.145 1950.72 231.145 Q1953.18 231.145 1955.47 230.543 Q1957.78 229.941 1960.05 228.737 L1960.05 232.765 Q1957.76 233.737 1955.35 234.247 Q1952.95 234.756 1950.47 234.756 Q1944.27 234.756 1940.63 231.145 Q1937.02 227.534 1937.02 221.376 Q1937.02 215.011 1940.45 211.284 Q1943.9 207.534 1949.73 207.534 Q1954.96 207.534 1957.99 210.913 Q1961.05 214.27 1961.05 220.057 M1956.79 218.807 Q1956.74 215.312 1954.82 213.228 Q1952.92 211.145 1949.78 211.145 Q1946.21 211.145 1944.06 213.159 Q1941.93 215.173 1941.6 218.83 L1956.79 218.807 Z" fill="#000000" fill-rule="evenodd" fill-opacity="1" /><path clip-path="url(#clip830)" d="M 0 0 M1987.23 230.196 L1987.23 243.946 L1982.95 243.946 L1982.95 208.159 L1987.23 208.159 L1987.23 212.094 Q1988.57 209.779 1990.61 208.668 Q1992.67 207.534 1995.52 207.534 Q2000.24 207.534 2003.18 211.284 Q2006.14 215.034 2006.14 221.145 Q2006.14 227.256 2003.18 231.006 Q2000.24 234.756 1995.52 234.756 Q1992.67 234.756 1990.61 233.645 Q1988.57 232.511 1987.23 230.196 M2001.72 221.145 Q2001.72 216.446 1999.77 213.784 Q1997.85 211.099 1994.47 211.099 Q1991.09 211.099 1989.15 213.784 Q1987.23 216.446 1987.23 221.145 Q1987.23 225.844 1989.15 228.529 Q1991.09 231.191 1994.47 231.191 Q1997.85 231.191 1999.77 228.529 Q2001.72 225.844 2001.72 221.145 Z" fill="#000000" fill-rule="evenodd" fill-opacity="1" /><path clip-path="url(#clip830)" d="M 0 0 M2023.25 211.145 Q2019.82 211.145 2017.83 213.83 Q2015.84 216.492 2015.84 221.145 Q2015.84 225.798 2017.81 228.483 Q2019.8 231.145 2023.25 231.145 Q2026.65 231.145 2028.64 228.46 Q2030.63 225.774 2030.63 221.145 Q2030.63 216.538 2028.64 213.853 Q2026.65 211.145 2023.25 211.145 M2023.25 207.534 Q2028.8 207.534 2031.97 211.145 Q2035.15 214.756 2035.15 221.145 Q2035.15 227.511 2031.97 231.145 Q2028.8 234.756 2023.25 234.756 Q2017.67 234.756 2014.5 231.145 Q2011.35 227.511 2011.35 221.145 Q2011.35 214.756 2014.5 211.145 Q2017.67 207.534 2023.25 207.534 Z" fill="#000000" fill-rule="evenodd" fill-opacity="1" /><path clip-path="url(#clip830)" d="M 0 0 M2046.33 230.196 L2046.33 243.946 L2042.04 243.946 L2042.04 208.159 L2046.33 208.159 L2046.33 212.094 Q2047.67 209.779 2049.71 208.668 Q2051.77 207.534 2054.61 207.534 Q2059.33 207.534 2062.27 211.284 Q2065.24 215.034 2065.24 221.145 Q2065.24 227.256 2062.27 231.006 Q2059.33 234.756 2054.61 234.756 Q2051.77 234.756 2049.71 233.645 Q2047.67 232.511 2046.33 230.196 M2060.82 221.145 Q2060.82 216.446 2058.87 213.784 Q2056.95 211.099 2053.57 211.099 Q2050.19 211.099 2048.25 213.784 Q2046.33 216.446 2046.33 221.145 Q2046.33 225.844 2048.25 228.529 Q2050.19 231.191 2053.57 231.191 Q2056.95 231.191 2058.87 228.529 Q2060.82 225.844 2060.82 221.145 Z" fill="#000000" fill-rule="evenodd" fill-opacity="1" /><path clip-path="url(#clip830)" d="M 0 0 M2071.86 223.853 L2071.86 208.159 L2076.12 208.159 L2076.12 223.691 Q2076.12 227.372 2077.55 229.224 Q2078.99 231.052 2081.86 231.052 Q2085.31 231.052 2087.3 228.853 Q2089.31 226.654 2089.31 222.858 L2089.31 208.159 L2093.57 208.159 L2093.57 234.085 L2089.31 234.085 L2089.31 230.103 Q2087.76 232.464 2085.7 233.622 Q2083.66 234.756 2080.95 234.756 Q2076.49 234.756 2074.17 231.978 Q2071.86 229.2 2071.86 223.853 M2082.58 207.534 L2082.58 207.534 Z" fill="#000000" fill-rule="evenodd" fill-opacity="1" /><path clip-path="url(#clip830)" d="M 0 0 M2102.34 198.066 L2106.6 198.066 L2106.6 234.085 L2102.34 234.085 L2102.34 198.066 Z" fill="#000000" fill-rule="evenodd" fill-opacity="1" /><path clip-path="url(#clip830)" d="M 0 0 M2127.3 221.052 Q2122.14 221.052 2120.14 222.233 Q2118.15 223.413 2118.15 226.261 Q2118.15 228.529 2119.64 229.872 Q2121.14 231.191 2123.71 231.191 Q2127.25 231.191 2129.38 228.691 Q2131.53 226.168 2131.53 222.001 L2131.53 221.052 L2127.3 221.052 M2135.79 219.293 L2135.79 234.085 L2131.53 234.085 L2131.53 230.149 Q2130.08 232.511 2127.9 233.645 Q2125.72 234.756 2122.58 234.756 Q2118.59 234.756 2116.23 232.534 Q2113.89 230.288 2113.89 226.538 Q2113.89 222.163 2116.81 219.941 Q2119.75 217.719 2125.56 217.719 L2131.53 217.719 L2131.53 217.302 Q2131.53 214.363 2129.59 212.765 Q2127.67 211.145 2124.17 211.145 Q2121.95 211.145 2119.84 211.677 Q2117.74 212.21 2115.79 213.275 L2115.79 209.339 Q2118.13 208.437 2120.33 207.997 Q2122.53 207.534 2124.61 207.534 Q2130.24 207.534 2133.01 210.45 Q2135.79 213.367 2135.79 219.293 Z" fill="#000000" fill-rule="evenodd" fill-opacity="1" /><path clip-path="url(#clip830)" d="M 0 0 M2148.78 200.798 L2148.78 208.159 L2157.55 208.159 L2157.55 211.469 L2148.78 211.469 L2148.78 225.543 Q2148.78 228.714 2149.64 229.617 Q2150.51 230.52 2153.18 230.52 L2157.55 230.52 L2157.55 234.085 L2153.18 234.085 Q2148.25 234.085 2146.37 232.256 Q2144.5 230.404 2144.5 225.543 L2144.5 211.469 L2141.37 211.469 L2141.37 208.159 L2144.5 208.159 L2144.5 200.798 L2148.78 200.798 Z" fill="#000000" fill-rule="evenodd" fill-opacity="1" /><path clip-path="url(#clip830)" d="M 0 0 M2163.15 208.159 L2167.41 208.159 L2167.41 234.085 L2163.15 234.085 L2163.15 208.159 M2163.15 198.066 L2167.41 198.066 L2167.41 203.46 L2163.15 203.46 L2163.15 198.066 Z" fill="#000000" fill-rule="evenodd" fill-opacity="1" /><path clip-path="url(#clip830)" d="M 0 0 M2186.37 211.145 Q2182.95 211.145 2180.95 213.83 Q2178.96 216.492 2178.96 221.145 Q2178.96 225.798 2180.93 228.483 Q2182.92 231.145 2186.37 231.145 Q2189.77 231.145 2191.76 228.46 Q2193.76 225.774 2193.76 221.145 Q2193.76 216.538 2191.76 213.853 Q2189.77 211.145 2186.37 211.145 M2186.37 207.534 Q2191.93 207.534 2195.1 211.145 Q2198.27 214.756 2198.27 221.145 Q2198.27 227.511 2195.1 231.145 Q2191.93 234.756 2186.37 234.756 Q2180.79 234.756 2177.62 231.145 Q2174.47 227.511 2174.47 221.145 Q2174.47 214.756 2177.62 211.145 Q2180.79 207.534 2186.37 207.534 Z" fill="#000000" fill-rule="evenodd" fill-opacity="1" /><path clip-path="url(#clip830)" d="M 0 0 M2226.88 218.437 L2226.88 234.085 L2222.62 234.085 L2222.62 218.575 Q2222.62 214.895 2221.19 213.066 Q2219.75 211.238 2216.88 211.238 Q2213.43 211.238 2211.44 213.437 Q2209.45 215.636 2209.45 219.432 L2209.45 234.085 L2205.17 234.085 L2205.17 208.159 L2209.45 208.159 L2209.45 212.187 Q2210.98 209.849 2213.04 208.691 Q2215.12 207.534 2217.83 207.534 Q2222.3 207.534 2224.59 210.312 Q2226.88 213.066 2226.88 218.437 Z" fill="#000000" fill-rule="evenodd" fill-opacity="1" /></svg>
