<?xml version="1.0" encoding="utf-8"?>
<svg xmlns="http://www.w3.org/2000/svg" xmlns:xlink="http://www.w3.org/1999/xlink" width="800" height="300" viewBox="0 0 3200 1200">
<defs>
  <clipPath id="clip210">
    <rect x="0" y="0" width="3200" height="1200"/>
  </clipPath>
</defs>
<path clip-path="url(#clip210)" d="
M0 1200 L3200 1200 L3200 0 L0 0  Z
  " fill="#ffffff" fill-rule="evenodd" fill-opacity="1"/>
<defs>
  <clipPath id="clip211">
    <rect x="640" y="0" width="2241" height="1200"/>
  </clipPath>
</defs>
<path clip-path="url(#clip210)" d="
M189.437 1063.09 L1525.27 1063.09 L1525.27 47.2441 L189.437 47.2441  Z
  " fill="#ffffff" fill-rule="evenodd" fill-opacity="1"/>
<defs>
  <clipPath id="clip212">
    <rect x="189" y="47" width="1337" height="1017"/>
  </clipPath>
</defs>
<polyline clip-path="url(#clip212)" style="stroke:#000000; stroke-linecap:butt; stroke-linejoin:round; stroke-width:2; stroke-opacity:0.1; fill:none" points="
  227.244,1063.09 227.244,47.2441 
  "/>
<polyline clip-path="url(#clip212)" style="stroke:#000000; stroke-linecap:butt; stroke-linejoin:round; stroke-width:2; stroke-opacity:0.1; fill:none" points="
  542.298,1063.09 542.298,47.2441 
  "/>
<polyline clip-path="url(#clip212)" style="stroke:#000000; stroke-linecap:butt; stroke-linejoin:round; stroke-width:2; stroke-opacity:0.1; fill:none" points="
  857.353,1063.09 857.353,47.2441 
  "/>
<polyline clip-path="url(#clip212)" style="stroke:#000000; stroke-linecap:butt; stroke-linejoin:round; stroke-width:2; stroke-opacity:0.1; fill:none" points="
  1172.41,1063.09 1172.41,47.2441 
  "/>
<polyline clip-path="url(#clip212)" style="stroke:#000000; stroke-linecap:butt; stroke-linejoin:round; stroke-width:2; stroke-opacity:0.1; fill:none" points="
  1487.46,1063.09 1487.46,47.2441 
  "/>
<polyline clip-path="url(#clip210)" style="stroke:#000000; stroke-linecap:butt; stroke-linejoin:round; stroke-width:4; stroke-opacity:1; fill:none" points="
  189.437,1063.09 1525.27,1063.09 
  "/>
<polyline clip-path="url(#clip210)" style="stroke:#000000; stroke-linecap:butt; stroke-linejoin:round; stroke-width:4; stroke-opacity:1; fill:none" points="
  227.244,1063.09 227.244,1044.19 
  "/>
<polyline clip-path="url(#clip210)" style="stroke:#000000; stroke-linecap:butt; stroke-linejoin:round; stroke-width:4; stroke-opacity:1; fill:none" points="
  542.298,1063.09 542.298,1044.19 
  "/>
<polyline clip-path="url(#clip210)" style="stroke:#000000; stroke-linecap:butt; stroke-linejoin:round; stroke-width:4; stroke-opacity:1; fill:none" points="
  857.353,1063.09 857.353,1044.19 
  "/>
<polyline clip-path="url(#clip210)" style="stroke:#000000; stroke-linecap:butt; stroke-linejoin:round; stroke-width:4; stroke-opacity:1; fill:none" points="
  1172.41,1063.09 1172.41,1044.19 
  "/>
<polyline clip-path="url(#clip210)" style="stroke:#000000; stroke-linecap:butt; stroke-linejoin:round; stroke-width:4; stroke-opacity:1; fill:none" points="
  1487.46,1063.09 1487.46,1044.19 
  "/>
<path clip-path="url(#clip210)" d="M227.244 1100.41 Q223.633 1100.41 221.804 1103.97 Q219.999 1107.51 219.999 1114.64 Q219.999 1121.75 221.804 1125.32 Q223.633 1128.86 227.244 1128.86 Q230.878 1128.86 232.684 1125.32 Q234.512 1121.75 234.512 1114.64 Q234.512 1107.51 232.684 1103.97 Q230.878 1100.41 227.244 1100.41 M227.244 1096.7 Q233.054 1096.7 236.11 1101.31 Q239.188 1105.89 239.188 1114.64 Q239.188 1123.37 236.11 1127.98 Q233.054 1132.56 227.244 1132.56 Q221.434 1132.56 218.355 1127.98 Q215.3 1123.37 215.3 1114.64 Q215.3 1105.89 218.355 1101.31 Q221.434 1096.7 227.244 1096.7 Z" fill="#000000" fill-rule="evenodd" fill-opacity="1" /><path clip-path="url(#clip210)" d="M532.576 1097.33 L550.932 1097.33 L550.932 1101.27 L536.858 1101.27 L536.858 1109.74 Q537.877 1109.39 538.896 1109.23 Q539.914 1109.04 540.933 1109.04 Q546.72 1109.04 550.099 1112.21 Q553.479 1115.39 553.479 1120.8 Q553.479 1126.38 550.007 1129.48 Q546.534 1132.56 540.215 1132.56 Q538.039 1132.56 535.771 1132.19 Q533.525 1131.82 531.118 1131.08 L531.118 1126.38 Q533.201 1127.51 535.423 1128.07 Q537.646 1128.63 540.122 1128.63 Q544.127 1128.63 546.465 1126.52 Q548.803 1124.41 548.803 1120.8 Q548.803 1117.19 546.465 1115.08 Q544.127 1112.98 540.122 1112.98 Q538.247 1112.98 536.372 1113.39 Q534.521 1113.81 532.576 1114.69 L532.576 1097.33 Z" fill="#000000" fill-rule="evenodd" fill-opacity="1" /><path clip-path="url(#clip210)" d="M832.04 1127.95 L839.679 1127.95 L839.679 1101.59 L831.369 1103.26 L831.369 1099 L839.633 1097.33 L844.309 1097.33 L844.309 1127.95 L851.947 1127.95 L851.947 1131.89 L832.04 1131.89 L832.04 1127.95 Z" fill="#000000" fill-rule="evenodd" fill-opacity="1" /><path clip-path="url(#clip210)" d="M871.392 1100.41 Q867.781 1100.41 865.952 1103.97 Q864.146 1107.51 864.146 1114.64 Q864.146 1121.75 865.952 1125.32 Q867.781 1128.86 871.392 1128.86 Q875.026 1128.86 876.832 1125.32 Q878.66 1121.75 878.66 1114.64 Q878.66 1107.51 876.832 1103.97 Q875.026 1100.41 871.392 1100.41 M871.392 1096.7 Q877.202 1096.7 880.258 1101.31 Q883.336 1105.89 883.336 1114.64 Q883.336 1123.37 880.258 1127.98 Q877.202 1132.56 871.392 1132.56 Q865.582 1132.56 862.503 1127.98 Q859.447 1123.37 859.447 1114.64 Q859.447 1105.89 862.503 1101.31 Q865.582 1096.7 871.392 1096.7 Z" fill="#000000" fill-rule="evenodd" fill-opacity="1" /><path clip-path="url(#clip210)" d="M1147.59 1127.95 L1155.23 1127.95 L1155.23 1101.59 L1146.92 1103.26 L1146.92 1099 L1155.18 1097.33 L1159.86 1097.33 L1159.86 1127.95 L1167.5 1127.95 L1167.5 1131.89 L1147.59 1131.89 L1147.59 1127.95 Z" fill="#000000" fill-rule="evenodd" fill-opacity="1" /><path clip-path="url(#clip210)" d="M1176.99 1097.33 L1195.35 1097.33 L1195.35 1101.27 L1181.27 1101.27 L1181.27 1109.74 Q1182.29 1109.39 1183.31 1109.23 Q1184.33 1109.04 1185.35 1109.04 Q1191.13 1109.04 1194.51 1112.21 Q1197.89 1115.39 1197.89 1120.8 Q1197.89 1126.38 1194.42 1129.48 Q1190.95 1132.56 1184.63 1132.56 Q1182.45 1132.56 1180.18 1132.19 Q1177.94 1131.82 1175.53 1131.08 L1175.53 1126.38 Q1177.62 1127.51 1179.84 1128.07 Q1182.06 1128.63 1184.54 1128.63 Q1188.54 1128.63 1190.88 1126.52 Q1193.22 1124.41 1193.22 1120.8 Q1193.22 1117.19 1190.88 1115.08 Q1188.54 1112.98 1184.54 1112.98 Q1182.66 1112.98 1180.79 1113.39 Q1178.93 1113.81 1176.99 1114.69 L1176.99 1097.33 Z" fill="#000000" fill-rule="evenodd" fill-opacity="1" /><path clip-path="url(#clip210)" d="M1466.23 1127.95 L1482.55 1127.95 L1482.55 1131.89 L1460.61 1131.89 L1460.61 1127.95 Q1463.27 1125.2 1467.85 1120.57 Q1472.46 1115.92 1473.64 1114.58 Q1475.89 1112.05 1476.77 1110.32 Q1477.67 1108.56 1477.67 1106.87 Q1477.67 1104.11 1475.73 1102.38 Q1473.8 1100.64 1470.7 1100.64 Q1468.5 1100.64 1466.05 1101.4 Q1463.62 1102.17 1460.84 1103.72 L1460.84 1099 Q1463.66 1097.86 1466.12 1097.28 Q1468.57 1096.7 1470.61 1096.7 Q1475.98 1096.7 1479.17 1099.39 Q1482.37 1102.08 1482.37 1106.57 Q1482.37 1108.7 1481.56 1110.62 Q1480.77 1112.51 1478.66 1115.11 Q1478.09 1115.78 1474.98 1119 Q1471.88 1122.19 1466.23 1127.95 Z" fill="#000000" fill-rule="evenodd" fill-opacity="1" /><path clip-path="url(#clip210)" d="M1502.37 1100.41 Q1498.76 1100.41 1496.93 1103.97 Q1495.12 1107.51 1495.12 1114.64 Q1495.12 1121.75 1496.93 1125.32 Q1498.76 1128.86 1502.37 1128.86 Q1506 1128.86 1507.81 1125.32 Q1509.64 1121.75 1509.64 1114.64 Q1509.64 1107.51 1507.81 1103.97 Q1506 1100.41 1502.37 1100.41 M1502.37 1096.7 Q1508.18 1096.7 1511.23 1101.31 Q1514.31 1105.89 1514.31 1114.64 Q1514.31 1123.37 1511.23 1127.98 Q1508.18 1132.56 1502.37 1132.56 Q1496.56 1132.56 1493.48 1127.98 Q1490.42 1123.37 1490.42 1114.64 Q1490.42 1105.89 1493.48 1101.31 Q1496.56 1096.7 1502.37 1096.7 Z" fill="#000000" fill-rule="evenodd" fill-opacity="1" /><path clip-path="url(#clip210)" d="M813.397 1174.18 L813.397 1184.31 L825.46 1184.31 L825.46 1188.86 L813.397 1188.86 L813.397 1208.21 Q813.397 1212.57 814.575 1213.81 Q815.784 1215.05 819.445 1215.05 L825.46 1215.05 L825.46 1219.95 L819.445 1219.95 Q812.665 1219.95 810.087 1217.44 Q807.509 1214.89 807.509 1208.21 L807.509 1188.86 L803.212 1188.86 L803.212 1184.31 L807.509 1184.31 L807.509 1174.18 L813.397 1174.18 Z" fill="#000000" fill-rule="evenodd" fill-opacity="1" /><path clip-path="url(#clip210)" d="M833.417 1219.95 L833.417 1172.43 L862.986 1172.43 L862.986 1177.84 L839.847 1177.84 L839.847 1219.95 L833.417 1219.95 Z" fill="#000000" fill-rule="evenodd" fill-opacity="1" /><path clip-path="url(#clip210)" d="M868.302 1216.45 L874.795 1216.45 L874.795 1197.01 L867.697 1198.31 L867.697 1194.62 L875.017 1193.38 L879.378 1193.38 L879.378 1216.45 L885.903 1216.45 L885.903 1219.95 L868.302 1219.95 L868.302 1216.45 Z" fill="#000000" fill-rule="evenodd" fill-opacity="1" /><path clip-path="url(#clip210)" d="M897.998 1216.33 L911.493 1216.33 L911.493 1219.95 L892.459 1219.95 L892.459 1216.45 Q893.542 1215.47 895.547 1213.68 Q906.496 1203.98 906.496 1200.98 Q906.496 1198.88 904.841 1197.61 Q903.186 1196.31 900.48 1196.31 Q898.825 1196.31 896.884 1196.88 Q894.942 1197.42 892.65 1198.53 L892.65 1194.62 Q895.101 1193.73 897.202 1193.28 Q899.334 1192.84 901.149 1192.84 Q905.764 1192.84 908.533 1194.94 Q911.302 1197.04 911.302 1200.47 Q911.302 1204.9 900.767 1213.94 Q898.984 1215.47 897.998 1216.33 Z" fill="#000000" fill-rule="evenodd" fill-opacity="1" /><polyline clip-path="url(#clip212)" style="stroke:#000000; stroke-linecap:butt; stroke-linejoin:round; stroke-width:2; stroke-opacity:0.1; fill:none" points="
  189.437,1034.34 1525.27,1034.34 
  "/>
<polyline clip-path="url(#clip212)" style="stroke:#000000; stroke-linecap:butt; stroke-linejoin:round; stroke-width:2; stroke-opacity:0.1; fill:none" points="
  189.437,889.763 1525.27,889.763 
  "/>
<polyline clip-path="url(#clip212)" style="stroke:#000000; stroke-linecap:butt; stroke-linejoin:round; stroke-width:2; stroke-opacity:0.1; fill:none" points="
  189.437,745.187 1525.27,745.187 
  "/>
<polyline clip-path="url(#clip212)" style="stroke:#000000; stroke-linecap:butt; stroke-linejoin:round; stroke-width:2; stroke-opacity:0.1; fill:none" points="
  189.437,600.61 1525.27,600.61 
  "/>
<polyline clip-path="url(#clip212)" style="stroke:#000000; stroke-linecap:butt; stroke-linejoin:round; stroke-width:2; stroke-opacity:0.1; fill:none" points="
  189.437,456.034 1525.27,456.034 
  "/>
<polyline clip-path="url(#clip212)" style="stroke:#000000; stroke-linecap:butt; stroke-linejoin:round; stroke-width:2; stroke-opacity:0.1; fill:none" points="
  189.437,311.457 1525.27,311.457 
  "/>
<polyline clip-path="url(#clip212)" style="stroke:#000000; stroke-linecap:butt; stroke-linejoin:round; stroke-width:2; stroke-opacity:0.1; fill:none" points="
  189.437,166.881 1525.27,166.881 
  "/>
<polyline clip-path="url(#clip210)" style="stroke:#000000; stroke-linecap:butt; stroke-linejoin:round; stroke-width:4; stroke-opacity:1; fill:none" points="
  189.437,1063.09 189.437,47.2441 
  "/>
<polyline clip-path="url(#clip210)" style="stroke:#000000; stroke-linecap:butt; stroke-linejoin:round; stroke-width:4; stroke-opacity:1; fill:none" points="
  189.437,1034.34 208.335,1034.34 
  "/>
<polyline clip-path="url(#clip210)" style="stroke:#000000; stroke-linecap:butt; stroke-linejoin:round; stroke-width:4; stroke-opacity:1; fill:none" points="
  189.437,889.763 208.335,889.763 
  "/>
<polyline clip-path="url(#clip210)" style="stroke:#000000; stroke-linecap:butt; stroke-linejoin:round; stroke-width:4; stroke-opacity:1; fill:none" points="
  189.437,745.187 208.335,745.187 
  "/>
<polyline clip-path="url(#clip210)" style="stroke:#000000; stroke-linecap:butt; stroke-linejoin:round; stroke-width:4; stroke-opacity:1; fill:none" points="
  189.437,600.61 208.335,600.61 
  "/>
<polyline clip-path="url(#clip210)" style="stroke:#000000; stroke-linecap:butt; stroke-linejoin:round; stroke-width:4; stroke-opacity:1; fill:none" points="
  189.437,456.034 208.335,456.034 
  "/>
<polyline clip-path="url(#clip210)" style="stroke:#000000; stroke-linecap:butt; stroke-linejoin:round; stroke-width:4; stroke-opacity:1; fill:none" points="
  189.437,311.457 208.335,311.457 
  "/>
<polyline clip-path="url(#clip210)" style="stroke:#000000; stroke-linecap:butt; stroke-linejoin:round; stroke-width:4; stroke-opacity:1; fill:none" points="
  189.437,166.881 208.335,166.881 
  "/>
<path clip-path="url(#clip210)" d="M129.493 1020.14 Q125.882 1020.14 124.053 1023.7 Q122.248 1027.24 122.248 1034.37 Q122.248 1041.48 124.053 1045.05 Q125.882 1048.59 129.493 1048.59 Q133.127 1048.59 134.933 1045.05 Q136.762 1041.48 136.762 1034.37 Q136.762 1027.24 134.933 1023.7 Q133.127 1020.14 129.493 1020.14 M129.493 1016.43 Q135.303 1016.43 138.359 1021.04 Q141.437 1025.62 141.437 1034.37 Q141.437 1043.1 138.359 1047.71 Q135.303 1052.29 129.493 1052.29 Q123.683 1052.29 120.604 1047.71 Q117.549 1043.1 117.549 1034.37 Q117.549 1025.62 120.604 1021.04 Q123.683 1016.43 129.493 1016.43 Z" fill="#000000" fill-rule="evenodd" fill-opacity="1" /><path clip-path="url(#clip210)" d="M125.118 903.108 L141.437 903.108 L141.437 907.043 L119.493 907.043 L119.493 903.108 Q122.155 900.353 126.738 895.724 Q131.345 891.071 132.525 889.728 Q134.771 887.205 135.65 885.469 Q136.553 883.71 136.553 882.02 Q136.553 879.265 134.609 877.529 Q132.688 875.793 129.586 875.793 Q127.387 875.793 124.933 876.557 Q122.502 877.321 119.725 878.872 L119.725 874.15 Q122.549 873.015 125.002 872.437 Q127.456 871.858 129.493 871.858 Q134.863 871.858 138.058 874.543 Q141.252 877.228 141.252 881.719 Q141.252 883.849 140.442 885.77 Q139.655 887.668 137.549 890.261 Q136.97 890.932 133.868 894.15 Q130.766 897.344 125.118 903.108 Z" fill="#000000" fill-rule="evenodd" fill-opacity="1" /><path clip-path="url(#clip210)" d="M131.854 731.981 L120.049 750.43 L131.854 750.43 L131.854 731.981 M130.627 727.907 L136.507 727.907 L136.507 750.43 L141.437 750.43 L141.437 754.318 L136.507 754.318 L136.507 762.467 L131.854 762.467 L131.854 754.318 L116.252 754.318 L116.252 749.805 L130.627 727.907 Z" fill="#000000" fill-rule="evenodd" fill-opacity="1" /><path clip-path="url(#clip210)" d="M129.91 598.747 Q126.762 598.747 124.91 600.899 Q123.081 603.052 123.081 606.802 Q123.081 610.529 124.91 612.705 Q126.762 614.858 129.91 614.858 Q133.058 614.858 134.887 612.705 Q136.738 610.529 136.738 606.802 Q136.738 603.052 134.887 600.899 Q133.058 598.747 129.91 598.747 M139.192 584.094 L139.192 588.353 Q137.433 587.52 135.627 587.08 Q133.845 586.64 132.086 586.64 Q127.456 586.64 125.002 589.765 Q122.572 592.89 122.225 599.21 Q123.59 597.196 125.651 596.131 Q127.711 595.043 130.188 595.043 Q135.396 595.043 138.405 598.214 Q141.437 601.362 141.437 606.802 Q141.437 612.126 138.289 615.344 Q135.141 618.561 129.91 618.561 Q123.914 618.561 120.743 613.978 Q117.572 609.372 117.572 600.645 Q117.572 592.45 121.461 587.589 Q125.35 582.705 131.9 582.705 Q133.66 582.705 135.442 583.052 Q137.248 583.399 139.192 584.094 Z" fill="#000000" fill-rule="evenodd" fill-opacity="1" /><path clip-path="url(#clip210)" d="M129.586 456.902 Q126.252 456.902 124.331 458.684 Q122.433 460.466 122.433 463.591 Q122.433 466.716 124.331 468.499 Q126.252 470.281 129.586 470.281 Q132.919 470.281 134.84 468.499 Q136.762 466.693 136.762 463.591 Q136.762 460.466 134.84 458.684 Q132.942 456.902 129.586 456.902 M124.91 454.911 Q121.901 454.17 120.211 452.11 Q118.544 450.05 118.544 447.087 Q118.544 442.943 121.484 440.536 Q124.447 438.129 129.586 438.129 Q134.748 438.129 137.687 440.536 Q140.627 442.943 140.627 447.087 Q140.627 450.05 138.937 452.11 Q137.271 454.17 134.285 454.911 Q137.664 455.698 139.539 457.99 Q141.437 460.281 141.437 463.591 Q141.437 468.614 138.359 471.3 Q135.303 473.985 129.586 473.985 Q123.868 473.985 120.789 471.3 Q117.734 468.614 117.734 463.591 Q117.734 460.281 119.632 457.99 Q121.53 455.698 124.91 454.911 M123.197 447.527 Q123.197 450.212 124.863 451.716 Q126.553 453.221 129.586 453.221 Q132.595 453.221 134.285 451.716 Q135.998 450.212 135.998 447.527 Q135.998 444.841 134.285 443.337 Q132.595 441.832 129.586 441.832 Q126.553 441.832 124.863 443.337 Q123.197 444.841 123.197 447.527 Z" fill="#000000" fill-rule="evenodd" fill-opacity="1" /><path clip-path="url(#clip210)" d="M90.1415 324.802 L97.7803 324.802 L97.7803 298.436 L89.4702 300.103 L89.4702 295.844 L97.734 294.177 L102.41 294.177 L102.41 324.802 L110.049 324.802 L110.049 328.737 L90.1415 328.737 L90.1415 324.802 Z" fill="#000000" fill-rule="evenodd" fill-opacity="1" /><path clip-path="url(#clip210)" d="M129.493 297.256 Q125.882 297.256 124.053 300.821 Q122.248 304.362 122.248 311.492 Q122.248 318.598 124.053 322.163 Q125.882 325.705 129.493 325.705 Q133.127 325.705 134.933 322.163 Q136.762 318.598 136.762 311.492 Q136.762 304.362 134.933 300.821 Q133.127 297.256 129.493 297.256 M129.493 293.552 Q135.303 293.552 138.359 298.159 Q141.437 302.742 141.437 311.492 Q141.437 320.219 138.359 324.825 Q135.303 329.408 129.493 329.408 Q123.683 329.408 120.604 324.825 Q117.549 320.219 117.549 311.492 Q117.549 302.742 120.604 298.159 Q123.683 293.552 129.493 293.552 Z" fill="#000000" fill-rule="evenodd" fill-opacity="1" /><path clip-path="url(#clip210)" d="M91.7387 180.225 L99.3775 180.225 L99.3775 153.86 L91.0674 155.526 L91.0674 151.267 L99.3312 149.601 L104.007 149.601 L104.007 180.225 L111.646 180.225 L111.646 184.161 L91.7387 184.161 L91.7387 180.225 Z" fill="#000000" fill-rule="evenodd" fill-opacity="1" /><path clip-path="url(#clip210)" d="M125.118 180.225 L141.437 180.225 L141.437 184.161 L119.493 184.161 L119.493 180.225 Q122.155 177.471 126.738 172.841 Q131.345 168.188 132.525 166.846 Q134.771 164.323 135.65 162.587 Q136.553 160.827 136.553 159.138 Q136.553 156.383 134.609 154.647 Q132.688 152.911 129.586 152.911 Q127.387 152.911 124.933 153.675 Q122.502 154.439 119.725 155.989 L119.725 151.267 Q122.549 150.133 125.002 149.554 Q127.456 148.976 129.493 148.976 Q134.863 148.976 138.058 151.661 Q141.252 154.346 141.252 158.837 Q141.252 160.966 140.442 162.888 Q139.655 164.786 137.549 167.378 Q136.97 168.05 133.868 171.267 Q130.766 174.462 125.118 180.225 Z" fill="#000000" fill-rule="evenodd" fill-opacity="1" /><path clip-path="url(#clip210)" d="M6.78024 631.921 L-22.2474 622.946 L-22.2474 617.535 L6.78024 626.511 L35.8079 617.535 L35.8079 622.946 L6.78024 631.921 Z" fill="#000000" fill-rule="evenodd" fill-opacity="1" /><path clip-path="url(#clip210)" d="M9.29469 589.971 Q9.29469 597.069 10.9179 599.806 Q12.5412 602.544 16.4561 602.544 Q19.5753 602.544 21.4214 600.507 Q23.2356 598.438 23.2356 594.905 Q23.2356 590.035 19.7981 587.107 Q16.3288 584.147 10.5997 584.147 L9.29469 584.147 L9.29469 589.971 M6.87572 578.29 L27.2142 578.29 L27.2142 584.147 L21.8033 584.147 Q25.0498 586.152 26.6094 589.144 Q28.1372 592.136 28.1372 596.464 Q28.1372 601.939 25.0816 605.186 Q21.9943 608.4 16.8381 608.4 Q10.8225 608.4 7.76692 604.39 Q4.71138 600.348 4.71138 592.359 L4.71138 584.147 L4.13847 584.147 Q0.0962472 584.147 -2.09992 586.82 Q-4.32792 589.462 -4.32792 594.268 Q-4.32792 597.324 -3.59586 600.22 Q-2.86381 603.117 -1.39969 605.79 L-6.81054 605.79 Q-8.05186 602.576 -8.6566 599.552 Q-9.29317 596.528 -9.29317 593.664 Q-9.29317 585.929 -5.28277 582.11 Q-1.27238 578.29 6.87572 578.29 Z" fill="#000000" fill-rule="evenodd" fill-opacity="1" /><path clip-path="url(#clip210)" d="M-16.932 553.496 L-7.00152 553.496 L-7.00152 542.324 L-3.97781 542.324 L-3.97781 553.496 L5.9527 553.496 L5.9527 556.838 L-3.97781 556.838 L-3.97781 568.01 L-7.00152 568.01 L-7.00152 556.838 L-16.932 556.838 L-16.932 553.496 Z" fill="#000000" fill-rule="evenodd" fill-opacity="1" /><path clip-path="url(#clip210)" d="M9.29469 515.62 Q9.29469 522.718 10.9179 525.455 Q12.5412 528.192 16.4561 528.192 Q19.5753 528.192 21.4214 526.155 Q23.2356 524.086 23.2356 520.553 Q23.2356 515.684 19.7981 512.755 Q16.3288 509.795 10.5997 509.795 L9.29469 509.795 L9.29469 515.62 M6.87572 503.939 L27.2142 503.939 L27.2142 509.795 L21.8033 509.795 Q25.0498 511.801 26.6094 514.792 Q28.1372 517.784 28.1372 522.113 Q28.1372 527.588 25.0816 530.834 Q21.9943 534.049 16.8381 534.049 Q10.8225 534.049 7.76692 530.038 Q4.71138 525.996 4.71138 518.007 L4.71138 509.795 L4.13847 509.795 Q0.0962472 509.795 -2.09992 512.469 Q-4.32792 515.111 -4.32792 519.917 Q-4.32792 522.972 -3.59586 525.869 Q-2.86381 528.765 -1.39969 531.439 L-6.81054 531.439 Q-8.05186 528.224 -8.6566 525.2 Q-9.29317 522.177 -9.29317 519.312 Q-9.29317 511.578 -5.28277 507.758 Q-1.27238 503.939 6.87572 503.939 Z" fill="#000000" fill-rule="evenodd" fill-opacity="1" /><path clip-path="url(#clip210)" d="M6.78024 478.412 L35.8079 487.388 L35.8079 492.799 L6.78024 483.823 L-22.2474 492.799 L-22.2474 487.388 L6.78024 478.412 Z" fill="#000000" fill-rule="evenodd" fill-opacity="1" /><polyline clip-path="url(#clip212)" style="stroke:#009af9; stroke-linecap:butt; stroke-linejoin:round; stroke-width:4; stroke-opacity:1; fill:none" points="
  227.244,1034.34 227.25,1034.34 227.294,1034.34 227.373,1034.34 227.467,1034.34 227.583,1034.34 227.716,1034.34 227.868,1034.34 228.036,1034.34 228.22,1034.34 
  228.417,1034.34 228.627,1034.34 228.849,1034.34 229.082,1034.34 229.326,1034.34 229.581,1034.34 229.846,1034.34 230.121,1034.33 230.405,1034.33 230.699,1034.33 
  231,1034.32 231.309,1034.31 231.623,1034.3 231.942,1034.28 232.265,1034.27 232.594,1034.24 232.927,1034.21 233.265,1034.17 233.61,1034.13 233.961,1034.08 
  234.32,1034.01 234.689,1033.93 235.067,1033.84 235.455,1033.73 235.854,1033.61 236.262,1033.46 236.678,1033.29 237.1,1033.09 237.527,1032.88 237.959,1032.63 
  238.398,1032.36 238.843,1032.05 239.296,1031.72 239.759,1031.34 240.233,1030.93 240.72,1030.47 241.221,1029.96 241.737,1029.41 242.265,1028.8 242.803,1028.15 
  243.349,1027.45 243.904,1026.7 244.467,1025.91 245.04,1025.07 245.624,1024.18 246.224,1023.23 246.841,1022.22 247.479,1021.15 248.142,1020.01 248.835,1018.78 
  249.558,1017.48 250.31,1016.11 251.084,1014.67 251.875,1013.18 252.681,1011.65 253.501,1010.08 254.336,1008.47 255.188,1006.83 256.058,1005.15 256.949,1003.42 
  257.866,1001.64 258.814,999.803 259.799,997.889 260.829,995.884 261.914,993.771 263.057,991.536 264.251,989.193 265.48,986.771 266.736,984.281 268.02,981.716 
  269.34,979.059 270.706,976.283 272.133,973.354 273.641,970.224 275.255,966.832 276.997,963.124 278.846,959.133 280.763,954.936 282.762,950.494 284.862,945.76 
  287.073,940.699 289.368,935.367 291.718,929.83 294.117,924.093 296.568,918.152 299.074,911.994 301.637,905.61 304.257,898.999 306.926,892.179 309.628,885.186 
  312.349,878.058 315.082,870.819 317.82,863.487 320.562,856.07 323.306,848.574 326.053,841.003 328.803,833.36 331.556,825.651 334.311,817.879 337.068,810.049 
  339.828,802.166 342.589,794.235 345.353,786.259 348.119,778.243 350.887,770.191 353.658,762.106 356.432,753.99 359.209,745.849 361.99,737.684 364.775,729.5 
  367.565,721.298 370.359,713.082 373.159,704.855 375.964,696.62 378.776,688.379 381.594,680.136 384.419,671.893 387.252,663.652 390.092,655.416 392.941,647.189 
  395.799,638.971 398.666,630.765 401.542,622.575 404.429,614.401 407.327,606.247 410.236,598.114 413.157,590.005 416.09,581.922 419.035,573.866 421.994,565.84 
  424.966,557.846 427.953,549.885 430.954,541.959 433.971,534.07 437.003,526.22 440.051,518.411 443.117,510.644 446.199,502.92 449.3,495.242 452.419,487.611 
  455.557,480.028 458.715,472.496 461.893,465.014 465.091,457.585 468.311,450.21 471.553,442.891 474.818,435.628 478.105,428.422 481.416,421.276 484.752,414.19 
  488.113,407.166 491.499,400.204 494.912,393.305 498.352,386.471 501.82,379.703 505.316,373.001 508.841,366.366 512.396,359.8 515.982,353.303 519.599,346.877 
  523.249,340.521 526.931,334.236 530.647,328.025 534.398,321.886 538.185,315.821 542.008,309.831 545.868,303.916 549.766,298.076 553.704,292.313 557.682,286.627 
  561.701,281.017 565.762,275.486 569.866,270.033 574.015,264.659 578.209,259.364 582.45,254.148 586.738,249.013 591.076,243.957 595.463,238.982 599.902,234.088 
  604.394,229.275 608.94,224.543 613.54,219.893 618.197,215.326 622.912,210.841 627.684,206.439 632.515,202.122 637.406,197.89 642.354,193.744 647.359,189.688 
  652.417,185.724 657.523,181.856 662.671,178.089 667.852,174.428 673.056,170.877 678.277,167.438 683.51,164.112 688.755,160.895 694.011,157.785 699.28,154.779 
  704.561,151.872 709.855,149.064 715.161,146.35 720.478,143.728 725.806,141.197 731.144,138.752 736.494,136.393 741.854,134.115 747.226,131.916 752.608,129.795 
  758.002,127.748 763.406,125.773 768.823,123.868 774.251,122.03 779.692,120.257 785.145,118.548 790.612,116.899 796.091,115.309 801.582,113.777 807.082,112.3 
  812.586,110.88 818.083,109.515 823.56,108.208 829.001,106.958 834.405,105.765 839.782,104.622 845.158,103.523 850.554,102.461 855.98,101.434 861.431,100.441 
  866.902,99.4831 872.385,98.56 877.878,97.6708 883.382,96.8145 888.891,95.9906 894.393,95.1997 899.865,94.4436 905.285,93.7235 910.648,93.038 915.978,92.3825 
  921.312,91.7513 926.675,91.1405 932.073,90.5492 937.497,89.9779 942.934,89.4271 948.383,88.8964 953.844,88.3852 959.32,87.8923 964.813,87.4171 970.317,86.9595 
  975.825,86.5196 981.318,86.0979 986.777,85.695 992.187,85.3113 997.551,84.9454 1002.89,84.5947 1008.25,84.2567 1013.63,83.9298 1019.04,83.6136 1024.48,83.3083 
  1029.93,83.0141 1035.39,82.7307 1040.87,82.4577 1046.36,82.1947 1051.86,81.9413 1057.37,81.6976 1062.87,81.4638 1068.34,81.2405 1073.75,81.0278 1079.12,80.8252 
  1084.46,80.6313 1089.8,80.4445 1095.18,80.2639 1100.59,80.0891 1106.02,79.9204 1111.46,79.7578 1116.92,79.6011 1122.39,79.4502 1127.88,79.3048 1133.37,79.1648 
  1138.88,79.03 1144.39,78.9006 1149.87,78.7768 1155.3,78.6588 1160.68,78.5464 1166.03,78.4391 1171.37,78.3359 1176.73,78.2363 1182.13,78.1399 1187.56,78.0467 
  1193,77.9568 1198.45,77.8703 1203.92,77.787 1209.4,77.7067 1214.9,77.6293 1220.4,77.5548 1225.91,77.4833 1231.4,77.4147 1236.85,77.3494 1242.24,77.2871 
  1247.6,77.2278 1252.93,77.1708 1258.29,77.1159 1263.68,77.0627 1269.1,77.0113 1274.54,76.9617 1279.99,76.9139 1285.45,76.8679 1290.93,76.8236 1296.42,76.7809 
  1301.92,76.7397 1307.43,76.7002 1312.93,76.6623 1318.39,76.6261 1323.8,76.5916 1329.16,76.5588 1334.5,76.5273 1339.85,76.497 1345.23,76.4677 1350.64,76.4393 
  1356.07,76.412 1361.52,76.3856 1366.98,76.3602 1372.45,76.3358 1377.94,76.3122 1383.44,76.2895 1388.95,76.2676 1394.45,76.2467 1399.93,76.2266 1405.35,76.2076 
  1410.73,76.1894 1416.07,76.172 1421.41,76.1553 1426.78,76.1391 1432.19,76.1235 1437.61,76.1084 1443.06,76.0939 1448.51,76.0798 1453.98,76.0663 1459.46,76.0533 
  1464.96,76.0408 1470.47,76.0287 1475.97,76.0172 1481.46,76.0061 1486.9,75.9955 1487.46,75.9944 
  "/>
<path clip-path="url(#clip210)" d="
M1816.93 1063.09 L3152.76 1063.09 L3152.76 47.2441 L1816.93 47.2441  Z
  " fill="#ffffff" fill-rule="evenodd" fill-opacity="1"/>
<defs>
  <clipPath id="clip213">
    <rect x="1816" y="47" width="1337" height="1017"/>
  </clipPath>
</defs>
<polyline clip-path="url(#clip213)" style="stroke:#000000; stroke-linecap:butt; stroke-linejoin:round; stroke-width:2; stroke-opacity:0.1; fill:none" points="
  1854.73,1063.09 1854.73,47.2441 
  "/>
<polyline clip-path="url(#clip213)" style="stroke:#000000; stroke-linecap:butt; stroke-linejoin:round; stroke-width:2; stroke-opacity:0.1; fill:none" points="
  2169.79,1063.09 2169.79,47.2441 
  "/>
<polyline clip-path="url(#clip213)" style="stroke:#000000; stroke-linecap:butt; stroke-linejoin:round; stroke-width:2; stroke-opacity:0.1; fill:none" points="
  2484.84,1063.09 2484.84,47.2441 
  "/>
<polyline clip-path="url(#clip213)" style="stroke:#000000; stroke-linecap:butt; stroke-linejoin:round; stroke-width:2; stroke-opacity:0.1; fill:none" points="
  2799.9,1063.09 2799.9,47.2441 
  "/>
<polyline clip-path="url(#clip213)" style="stroke:#000000; stroke-linecap:butt; stroke-linejoin:round; stroke-width:2; stroke-opacity:0.1; fill:none" points="
  3114.95,1063.09 3114.95,47.2441 
  "/>
<polyline clip-path="url(#clip210)" style="stroke:#000000; stroke-linecap:butt; stroke-linejoin:round; stroke-width:4; stroke-opacity:1; fill:none" points="
  1816.93,1063.09 3152.76,1063.09 
  "/>
<polyline clip-path="url(#clip210)" style="stroke:#000000; stroke-linecap:butt; stroke-linejoin:round; stroke-width:4; stroke-opacity:1; fill:none" points="
  1854.73,1063.09 1854.73,1044.19 
  "/>
<polyline clip-path="url(#clip210)" style="stroke:#000000; stroke-linecap:butt; stroke-linejoin:round; stroke-width:4; stroke-opacity:1; fill:none" points="
  2169.79,1063.09 2169.79,1044.19 
  "/>
<polyline clip-path="url(#clip210)" style="stroke:#000000; stroke-linecap:butt; stroke-linejoin:round; stroke-width:4; stroke-opacity:1; fill:none" points="
  2484.84,1063.09 2484.84,1044.19 
  "/>
<polyline clip-path="url(#clip210)" style="stroke:#000000; stroke-linecap:butt; stroke-linejoin:round; stroke-width:4; stroke-opacity:1; fill:none" points="
  2799.9,1063.09 2799.9,1044.19 
  "/>
<polyline clip-path="url(#clip210)" style="stroke:#000000; stroke-linecap:butt; stroke-linejoin:round; stroke-width:4; stroke-opacity:1; fill:none" points="
  3114.95,1063.09 3114.95,1044.19 
  "/>
<path clip-path="url(#clip210)" d="M1854.73 1100.41 Q1851.12 1100.41 1849.29 1103.97 Q1847.49 1107.51 1847.49 1114.64 Q1847.49 1121.75 1849.29 1125.32 Q1851.12 1128.86 1854.73 1128.86 Q1858.37 1128.86 1860.17 1125.32 Q1862 1121.75 1862 1114.64 Q1862 1107.51 1860.17 1103.97 Q1858.37 1100.41 1854.73 1100.41 M1854.73 1096.7 Q1860.54 1096.7 1863.6 1101.31 Q1866.68 1105.89 1866.68 1114.64 Q1866.68 1123.37 1863.6 1127.98 Q1860.54 1132.56 1854.73 1132.56 Q1848.92 1132.56 1845.84 1127.98 Q1842.79 1123.37 1842.79 1114.64 Q1842.79 1105.89 1845.84 1101.31 Q1848.92 1096.7 1854.73 1096.7 Z" fill="#000000" fill-rule="evenodd" fill-opacity="1" /><path clip-path="url(#clip210)" d="M2160.06 1097.33 L2178.42 1097.33 L2178.42 1101.27 L2164.35 1101.27 L2164.35 1109.74 Q2165.37 1109.39 2166.38 1109.23 Q2167.4 1109.04 2168.42 1109.04 Q2174.21 1109.04 2177.59 1112.21 Q2180.97 1115.39 2180.97 1120.8 Q2180.97 1126.38 2177.49 1129.48 Q2174.02 1132.56 2167.7 1132.56 Q2165.53 1132.56 2163.26 1132.19 Q2161.01 1131.82 2158.61 1131.08 L2158.61 1126.38 Q2160.69 1127.51 2162.91 1128.07 Q2165.13 1128.63 2167.61 1128.63 Q2171.62 1128.63 2173.95 1126.52 Q2176.29 1124.41 2176.29 1120.8 Q2176.29 1117.19 2173.95 1115.08 Q2171.62 1112.98 2167.61 1112.98 Q2165.74 1112.98 2163.86 1113.39 Q2162.01 1113.81 2160.06 1114.69 L2160.06 1097.33 Z" fill="#000000" fill-rule="evenodd" fill-opacity="1" /><path clip-path="url(#clip210)" d="M2459.53 1127.95 L2467.17 1127.95 L2467.17 1101.59 L2458.86 1103.26 L2458.86 1099 L2467.12 1097.33 L2471.8 1097.33 L2471.8 1127.95 L2479.44 1127.95 L2479.44 1131.89 L2459.53 1131.89 L2459.53 1127.95 Z" fill="#000000" fill-rule="evenodd" fill-opacity="1" /><path clip-path="url(#clip210)" d="M2498.88 1100.41 Q2495.27 1100.41 2493.44 1103.97 Q2491.63 1107.51 2491.63 1114.64 Q2491.63 1121.75 2493.44 1125.32 Q2495.27 1128.86 2498.88 1128.86 Q2502.51 1128.86 2504.32 1125.32 Q2506.15 1121.75 2506.15 1114.64 Q2506.15 1107.51 2504.32 1103.97 Q2502.51 1100.41 2498.88 1100.41 M2498.88 1096.7 Q2504.69 1096.7 2507.75 1101.31 Q2510.82 1105.89 2510.82 1114.64 Q2510.82 1123.37 2507.75 1127.98 Q2504.69 1132.56 2498.88 1132.56 Q2493.07 1132.56 2489.99 1127.98 Q2486.94 1123.37 2486.94 1114.64 Q2486.94 1105.89 2489.99 1101.31 Q2493.07 1096.7 2498.88 1096.7 Z" fill="#000000" fill-rule="evenodd" fill-opacity="1" /><path clip-path="url(#clip210)" d="M2775.08 1127.95 L2782.72 1127.95 L2782.72 1101.59 L2774.41 1103.26 L2774.41 1099 L2782.67 1097.33 L2787.35 1097.33 L2787.35 1127.95 L2794.99 1127.95 L2794.99 1131.89 L2775.08 1131.89 L2775.08 1127.95 Z" fill="#000000" fill-rule="evenodd" fill-opacity="1" /><path clip-path="url(#clip210)" d="M2804.48 1097.33 L2822.83 1097.33 L2822.83 1101.27 L2808.76 1101.27 L2808.76 1109.74 Q2809.78 1109.39 2810.8 1109.23 Q2811.82 1109.04 2812.83 1109.04 Q2818.62 1109.04 2822 1112.21 Q2825.38 1115.39 2825.38 1120.8 Q2825.38 1126.38 2821.91 1129.48 Q2818.44 1132.56 2812.12 1132.56 Q2809.94 1132.56 2807.67 1132.19 Q2805.43 1131.82 2803.02 1131.08 L2803.02 1126.38 Q2805.1 1127.51 2807.33 1128.07 Q2809.55 1128.63 2812.02 1128.63 Q2816.03 1128.63 2818.37 1126.52 Q2820.71 1124.41 2820.71 1120.8 Q2820.71 1117.19 2818.37 1115.08 Q2816.03 1112.98 2812.02 1112.98 Q2810.15 1112.98 2808.27 1113.39 Q2806.42 1113.81 2804.48 1114.69 L2804.48 1097.33 Z" fill="#000000" fill-rule="evenodd" fill-opacity="1" /><path clip-path="url(#clip210)" d="M3093.72 1127.95 L3110.04 1127.95 L3110.04 1131.89 L3088.1 1131.89 L3088.1 1127.95 Q3090.76 1125.2 3095.34 1120.57 Q3099.95 1115.92 3101.13 1114.58 Q3103.38 1112.05 3104.26 1110.32 Q3105.16 1108.56 3105.16 1106.87 Q3105.16 1104.11 3103.21 1102.38 Q3101.29 1100.64 3098.19 1100.64 Q3095.99 1100.64 3093.54 1101.4 Q3091.11 1102.17 3088.33 1103.72 L3088.33 1099 Q3091.15 1097.86 3093.61 1097.28 Q3096.06 1096.7 3098.1 1096.7 Q3103.47 1096.7 3106.66 1099.39 Q3109.86 1102.08 3109.86 1106.57 Q3109.86 1108.7 3109.05 1110.62 Q3108.26 1112.51 3106.15 1115.11 Q3105.57 1115.78 3102.47 1119 Q3099.37 1122.19 3093.72 1127.95 Z" fill="#000000" fill-rule="evenodd" fill-opacity="1" /><path clip-path="url(#clip210)" d="M3129.86 1100.41 Q3126.25 1100.41 3124.42 1103.97 Q3122.61 1107.51 3122.61 1114.64 Q3122.61 1121.75 3124.42 1125.32 Q3126.25 1128.86 3129.86 1128.86 Q3133.49 1128.86 3135.3 1125.32 Q3137.13 1121.75 3137.13 1114.64 Q3137.13 1107.51 3135.3 1103.97 Q3133.49 1100.41 3129.86 1100.41 M3129.86 1096.7 Q3135.67 1096.7 3138.72 1101.31 Q3141.8 1105.89 3141.8 1114.64 Q3141.8 1123.37 3138.72 1127.98 Q3135.67 1132.56 3129.86 1132.56 Q3124.05 1132.56 3120.97 1127.98 Q3117.91 1123.37 3117.91 1114.64 Q3117.91 1105.89 3120.97 1101.31 Q3124.05 1096.7 3129.86 1096.7 Z" fill="#000000" fill-rule="evenodd" fill-opacity="1" /><path clip-path="url(#clip210)" d="M2440.89 1174.18 L2440.89 1184.31 L2452.95 1184.31 L2452.95 1188.86 L2440.89 1188.86 L2440.89 1208.21 Q2440.89 1212.57 2442.06 1213.81 Q2443.27 1215.05 2446.93 1215.05 L2452.95 1215.05 L2452.95 1219.95 L2446.93 1219.95 Q2440.15 1219.95 2437.58 1217.44 Q2435 1214.89 2435 1208.21 L2435 1188.86 L2430.7 1188.86 L2430.7 1184.31 L2435 1184.31 L2435 1174.18 L2440.89 1174.18 Z" fill="#000000" fill-rule="evenodd" fill-opacity="1" /><path clip-path="url(#clip210)" d="M2460.91 1219.95 L2460.91 1172.43 L2490.47 1172.43 L2490.47 1177.84 L2467.34 1177.84 L2467.34 1219.95 L2460.91 1219.95 Z" fill="#000000" fill-rule="evenodd" fill-opacity="1" /><path clip-path="url(#clip210)" d="M2495.79 1216.45 L2502.28 1216.45 L2502.28 1197.01 L2495.19 1198.31 L2495.19 1194.62 L2502.51 1193.38 L2506.87 1193.38 L2506.87 1216.45 L2513.39 1216.45 L2513.39 1219.95 L2495.79 1219.95 L2495.79 1216.45 Z" fill="#000000" fill-rule="evenodd" fill-opacity="1" /><path clip-path="url(#clip210)" d="M2525.49 1216.33 L2538.98 1216.33 L2538.98 1219.95 L2519.95 1219.95 L2519.95 1216.45 Q2521.03 1215.47 2523.04 1213.68 Q2533.98 1203.98 2533.98 1200.98 Q2533.98 1198.88 2532.33 1197.61 Q2530.67 1196.31 2527.97 1196.31 Q2526.31 1196.31 2524.37 1196.88 Q2522.43 1197.42 2520.14 1198.53 L2520.14 1194.62 Q2522.59 1193.73 2524.69 1193.28 Q2526.82 1192.84 2528.64 1192.84 Q2533.25 1192.84 2536.02 1194.94 Q2538.79 1197.04 2538.79 1200.47 Q2538.79 1204.9 2528.25 1213.94 Q2526.47 1215.47 2525.49 1216.33 Z" fill="#000000" fill-rule="evenodd" fill-opacity="1" /><polyline clip-path="url(#clip213)" style="stroke:#000000; stroke-linecap:butt; stroke-linejoin:round; stroke-width:2; stroke-opacity:0.1; fill:none" points="
  1816.93,1034.34 3152.76,1034.34 
  "/>
<polyline clip-path="url(#clip213)" style="stroke:#000000; stroke-linecap:butt; stroke-linejoin:round; stroke-width:2; stroke-opacity:0.1; fill:none" points="
  1816.93,742.453 3152.76,742.453 
  "/>
<polyline clip-path="url(#clip213)" style="stroke:#000000; stroke-linecap:butt; stroke-linejoin:round; stroke-width:2; stroke-opacity:0.1; fill:none" points="
  1816.93,450.566 3152.76,450.566 
  "/>
<polyline clip-path="url(#clip213)" style="stroke:#000000; stroke-linecap:butt; stroke-linejoin:round; stroke-width:2; stroke-opacity:0.1; fill:none" points="
  1816.93,158.68 3152.76,158.68 
  "/>
<polyline clip-path="url(#clip210)" style="stroke:#000000; stroke-linecap:butt; stroke-linejoin:round; stroke-width:4; stroke-opacity:1; fill:none" points="
  1816.93,1063.09 1816.93,47.2441 
  "/>
<polyline clip-path="url(#clip210)" style="stroke:#000000; stroke-linecap:butt; stroke-linejoin:round; stroke-width:4; stroke-opacity:1; fill:none" points="
  1816.93,1034.34 1835.82,1034.34 
  "/>
<polyline clip-path="url(#clip210)" style="stroke:#000000; stroke-linecap:butt; stroke-linejoin:round; stroke-width:4; stroke-opacity:1; fill:none" points="
  1816.93,742.453 1835.82,742.453 
  "/>
<polyline clip-path="url(#clip210)" style="stroke:#000000; stroke-linecap:butt; stroke-linejoin:round; stroke-width:4; stroke-opacity:1; fill:none" points="
  1816.93,450.566 1835.82,450.566 
  "/>
<polyline clip-path="url(#clip210)" style="stroke:#000000; stroke-linecap:butt; stroke-linejoin:round; stroke-width:4; stroke-opacity:1; fill:none" points="
  1816.93,158.68 1835.82,158.68 
  "/>
<path clip-path="url(#clip210)" d="M1661.98 1034.79 L1691.66 1034.79 L1691.66 1038.73 L1661.98 1038.73 L1661.98 1034.79 Z" fill="#000000" fill-rule="evenodd" fill-opacity="1" /><path clip-path="url(#clip210)" d="M1702.56 1047.68 L1710.2 1047.68 L1710.2 1021.32 L1701.89 1022.99 L1701.89 1018.73 L1710.15 1017.06 L1714.83 1017.06 L1714.83 1047.68 L1722.47 1047.68 L1722.47 1051.62 L1702.56 1051.62 L1702.56 1047.68 Z" fill="#000000" fill-rule="evenodd" fill-opacity="1" /><path clip-path="url(#clip210)" d="M1731.91 1045.74 L1736.8 1045.74 L1736.8 1051.62 L1731.91 1051.62 L1731.91 1045.74 Z" fill="#000000" fill-rule="evenodd" fill-opacity="1" /><path clip-path="url(#clip210)" d="M1756.98 1020.14 Q1753.37 1020.14 1751.54 1023.7 Q1749.74 1027.24 1749.74 1034.37 Q1749.74 1041.48 1751.54 1045.05 Q1753.37 1048.59 1756.98 1048.59 Q1760.62 1048.59 1762.42 1045.05 Q1764.25 1041.48 1764.25 1034.37 Q1764.25 1027.24 1762.42 1023.7 Q1760.62 1020.14 1756.98 1020.14 M1756.98 1016.43 Q1762.79 1016.43 1765.85 1021.04 Q1768.93 1025.62 1768.93 1034.37 Q1768.93 1043.1 1765.85 1047.71 Q1762.79 1052.29 1756.98 1052.29 Q1751.17 1052.29 1748.09 1047.71 Q1745.04 1043.1 1745.04 1034.37 Q1745.04 1025.62 1748.09 1021.04 Q1751.17 1016.43 1756.98 1016.43 Z" fill="#000000" fill-rule="evenodd" fill-opacity="1" /><path clip-path="url(#clip210)" d="M1662.98 742.904 L1692.65 742.904 L1692.65 746.839 L1662.98 746.839 L1662.98 742.904 Z" fill="#000000" fill-rule="evenodd" fill-opacity="1" /><path clip-path="url(#clip210)" d="M1712.75 728.252 Q1709.13 728.252 1707.31 731.816 Q1705.5 735.358 1705.5 742.488 Q1705.5 749.594 1707.31 753.159 Q1709.13 756.7 1712.75 756.7 Q1716.38 756.7 1718.19 753.159 Q1720.01 749.594 1720.01 742.488 Q1720.01 735.358 1718.19 731.816 Q1716.38 728.252 1712.75 728.252 M1712.75 724.548 Q1718.56 724.548 1721.61 729.154 Q1724.69 733.738 1724.69 742.488 Q1724.69 751.214 1721.61 755.821 Q1718.56 760.404 1712.75 760.404 Q1706.94 760.404 1703.86 755.821 Q1700.8 751.214 1700.8 742.488 Q1700.8 733.738 1703.86 729.154 Q1706.94 724.548 1712.75 724.548 Z" fill="#000000" fill-rule="evenodd" fill-opacity="1" /><path clip-path="url(#clip210)" d="M1732.91 753.853 L1737.79 753.853 L1737.79 759.733 L1732.91 759.733 L1732.91 753.853 Z" fill="#000000" fill-rule="evenodd" fill-opacity="1" /><path clip-path="url(#clip210)" d="M1748.02 725.173 L1766.38 725.173 L1766.38 729.108 L1752.31 729.108 L1752.31 737.58 Q1753.32 737.233 1754.34 737.071 Q1755.36 736.886 1756.38 736.886 Q1762.17 736.886 1765.55 740.057 Q1768.93 743.228 1768.93 748.645 Q1768.93 754.224 1765.45 757.325 Q1761.98 760.404 1755.66 760.404 Q1753.49 760.404 1751.22 760.034 Q1748.97 759.663 1746.56 758.923 L1746.56 754.224 Q1748.65 755.358 1750.87 755.913 Q1753.09 756.469 1755.57 756.469 Q1759.57 756.469 1761.91 754.363 Q1764.25 752.256 1764.25 748.645 Q1764.25 745.034 1761.91 742.927 Q1759.57 740.821 1755.57 740.821 Q1753.69 740.821 1751.82 741.238 Q1749.97 741.654 1748.02 742.534 L1748.02 725.173 Z" fill="#000000" fill-rule="evenodd" fill-opacity="1" /><path clip-path="url(#clip210)" d="M1711.75 436.365 Q1708.14 436.365 1706.31 439.93 Q1704.5 443.471 1704.5 450.601 Q1704.5 457.707 1706.31 461.272 Q1708.14 464.814 1711.75 464.814 Q1715.38 464.814 1717.19 461.272 Q1719.02 457.707 1719.02 450.601 Q1719.02 443.471 1717.19 439.93 Q1715.38 436.365 1711.75 436.365 M1711.75 432.661 Q1717.56 432.661 1720.62 437.268 Q1723.69 441.851 1723.69 450.601 Q1723.69 459.328 1720.62 463.934 Q1717.56 468.518 1711.75 468.518 Q1705.94 468.518 1702.86 463.934 Q1699.81 459.328 1699.81 450.601 Q1699.81 441.851 1702.86 437.268 Q1705.94 432.661 1711.75 432.661 Z" fill="#000000" fill-rule="evenodd" fill-opacity="1" /><path clip-path="url(#clip210)" d="M1731.91 461.967 L1736.8 461.967 L1736.8 467.846 L1731.91 467.846 L1731.91 461.967 Z" fill="#000000" fill-rule="evenodd" fill-opacity="1" /><path clip-path="url(#clip210)" d="M1756.98 436.365 Q1753.37 436.365 1751.54 439.93 Q1749.74 443.471 1749.74 450.601 Q1749.74 457.707 1751.54 461.272 Q1753.37 464.814 1756.98 464.814 Q1760.62 464.814 1762.42 461.272 Q1764.25 457.707 1764.25 450.601 Q1764.25 443.471 1762.42 439.93 Q1760.62 436.365 1756.98 436.365 M1756.98 432.661 Q1762.79 432.661 1765.85 437.268 Q1768.93 441.851 1768.93 450.601 Q1768.93 459.328 1765.85 463.934 Q1762.79 468.518 1756.98 468.518 Q1751.17 468.518 1748.09 463.934 Q1745.04 459.328 1745.04 450.601 Q1745.04 441.851 1748.09 437.268 Q1751.17 432.661 1756.98 432.661 Z" fill="#000000" fill-rule="evenodd" fill-opacity="1" /><path clip-path="url(#clip210)" d="M1712.75 144.478 Q1709.13 144.478 1707.31 148.043 Q1705.5 151.585 1705.5 158.714 Q1705.5 165.821 1707.31 169.386 Q1709.13 172.927 1712.75 172.927 Q1716.38 172.927 1718.19 169.386 Q1720.01 165.821 1720.01 158.714 Q1720.01 151.585 1718.19 148.043 Q1716.38 144.478 1712.75 144.478 M1712.75 140.775 Q1718.56 140.775 1721.61 145.381 Q1724.69 149.964 1724.69 158.714 Q1724.69 167.441 1721.61 172.048 Q1718.56 176.631 1712.75 176.631 Q1706.94 176.631 1703.86 172.048 Q1700.8 167.441 1700.8 158.714 Q1700.8 149.964 1703.86 145.381 Q1706.94 140.775 1712.75 140.775 Z" fill="#000000" fill-rule="evenodd" fill-opacity="1" /><path clip-path="url(#clip210)" d="M1732.91 170.08 L1737.79 170.08 L1737.79 175.96 L1732.91 175.96 L1732.91 170.08 Z" fill="#000000" fill-rule="evenodd" fill-opacity="1" /><path clip-path="url(#clip210)" d="M1748.02 141.4 L1766.38 141.4 L1766.38 145.335 L1752.31 145.335 L1752.31 153.807 Q1753.32 153.46 1754.34 153.298 Q1755.36 153.113 1756.38 153.113 Q1762.17 153.113 1765.55 156.284 Q1768.93 159.455 1768.93 164.872 Q1768.93 170.45 1765.45 173.552 Q1761.98 176.631 1755.66 176.631 Q1753.49 176.631 1751.22 176.261 Q1748.97 175.89 1746.56 175.149 L1746.56 170.45 Q1748.65 171.585 1750.87 172.14 Q1753.09 172.696 1755.57 172.696 Q1759.57 172.696 1761.91 170.589 Q1764.25 168.483 1764.25 164.872 Q1764.25 161.261 1761.91 159.154 Q1759.57 157.048 1755.57 157.048 Q1753.69 157.048 1751.82 157.464 Q1749.97 157.881 1748.02 158.761 L1748.02 141.4 Z" fill="#000000" fill-rule="evenodd" fill-opacity="1" /><path clip-path="url(#clip210)" d="M1579.29 756.944 L1550.26 747.968 L1550.26 742.557 L1579.29 751.533 L1608.32 742.557 L1608.32 747.968 L1579.29 756.944 Z" fill="#000000" fill-rule="evenodd" fill-opacity="1" /><path clip-path="url(#clip210)" d="M1568.72 717.381 Q1568.72 722.219 1572.23 724.829 Q1575.89 727.566 1581.93 727.566 Q1588.33 727.566 1592.02 724.861 Q1595.68 722.124 1595.68 717.381 Q1595.68 712.702 1591.99 709.965 Q1588.3 707.228 1581.93 707.228 Q1576.11 707.228 1572.23 709.965 Q1568.72 712.479 1568.72 717.381 M1564.08 717.381 L1564.08 697.934 L1569.93 697.934 L1569.93 704.491 Q1574.9 701.021 1581.93 701.021 Q1590.69 701.021 1595.65 705.382 Q1600.65 709.742 1600.65 717.381 Q1600.65 725.052 1595.65 729.38 Q1590.69 733.741 1581.93 733.741 Q1573.12 733.741 1568.18 729.38 Q1564.08 725.784 1564.08 717.381 Z" fill="#000000" fill-rule="evenodd" fill-opacity="1" /><path clip-path="url(#clip210)" d="M1594.32 683.516 L1594.32 661.076 L1599.73 661.076 L1599.73 691.25 L1594.32 691.25 Q1590.53 687.59 1584.16 681.288 Q1577.76 674.954 1575.92 673.33 Q1572.45 670.243 1570.06 669.034 Q1567.64 667.792 1565.32 667.792 Q1561.53 667.792 1559.14 670.466 Q1556.76 673.108 1556.76 677.373 Q1556.76 680.396 1557.81 683.77 Q1558.86 687.112 1560.99 690.932 L1554.5 690.932 Q1552.94 687.048 1552.14 683.675 Q1551.35 680.301 1551.35 677.5 Q1551.35 670.116 1555.04 665.723 Q1558.73 661.331 1564.91 661.331 Q1567.83 661.331 1570.48 662.445 Q1573.09 663.527 1576.65 666.424 Q1577.57 667.219 1582 671.484 Q1586.39 675.749 1594.32 683.516 Z" fill="#000000" fill-rule="evenodd" fill-opacity="1" /><path clip-path="url(#clip210)" d="M1594.32 642.043 L1594.32 619.604 L1599.73 619.604 L1599.73 649.777 L1594.32 649.777 Q1590.53 646.117 1584.16 639.815 Q1577.76 633.481 1575.92 631.858 Q1572.45 628.77 1570.06 627.561 Q1567.64 626.32 1565.32 626.32 Q1561.53 626.32 1559.14 628.993 Q1556.76 631.635 1556.76 635.9 Q1556.76 638.924 1557.81 642.298 Q1558.86 645.64 1560.99 649.459 L1554.5 649.459 Q1552.94 645.576 1552.14 642.202 Q1551.35 638.828 1551.35 636.027 Q1551.35 628.643 1555.04 624.251 Q1558.73 619.858 1564.91 619.858 Q1567.83 619.858 1570.48 620.972 Q1573.09 622.055 1576.65 624.951 Q1577.57 625.747 1582 630.012 Q1586.39 634.277 1594.32 642.043 Z" fill="#000000" fill-rule="evenodd" fill-opacity="1" /><path clip-path="url(#clip210)" d="M1579.29 593.473 L1608.32 602.448 L1608.32 607.859 L1579.29 598.883 L1550.26 607.859 L1550.26 602.448 L1579.29 593.473 Z" fill="#000000" fill-rule="evenodd" fill-opacity="1" /><path clip-path="url(#clip210)" d="M1579.26 563.745 L1579.26 546.589 L1584.48 546.589 L1584.48 563.745 L1579.26 563.745 Z" fill="#000000" fill-rule="evenodd" fill-opacity="1" /><path clip-path="url(#clip210)" d="M1579.29 516.861 L1550.26 507.886 L1550.26 502.475 L1579.29 511.45 L1608.32 502.475 L1608.32 507.886 L1579.29 516.861 Z" fill="#000000" fill-rule="evenodd" fill-opacity="1" /><path clip-path="url(#clip210)" d="M1568.72 477.298 Q1568.72 482.136 1572.23 484.746 Q1575.89 487.484 1581.93 487.484 Q1588.33 487.484 1592.02 484.778 Q1595.68 482.041 1595.68 477.298 Q1595.68 472.62 1591.99 469.882 Q1588.3 467.145 1581.93 467.145 Q1576.11 467.145 1572.23 469.882 Q1568.72 472.397 1568.72 477.298 M1564.08 477.298 L1564.08 457.851 L1569.93 457.851 L1569.93 464.408 Q1574.9 460.939 1581.93 460.939 Q1590.69 460.939 1595.65 465.299 Q1600.65 469.66 1600.65 477.298 Q1600.65 484.969 1595.65 489.298 Q1590.69 493.658 1581.93 493.658 Q1573.12 493.658 1568.18 489.298 Q1564.08 485.701 1564.08 477.298 Z" fill="#000000" fill-rule="evenodd" fill-opacity="1" /><path clip-path="url(#clip210)" d="M1594.32 447.857 L1594.32 437.354 L1558.06 437.354 L1560.35 448.78 L1554.5 448.78 L1552.21 437.417 L1552.21 430.988 L1594.32 430.988 L1594.32 420.485 L1599.73 420.485 L1599.73 447.857 L1594.32 447.857 Z" fill="#000000" fill-rule="evenodd" fill-opacity="1" /><path clip-path="url(#clip210)" d="M1594.32 406.384 L1594.32 395.881 L1558.06 395.881 L1560.35 407.308 L1554.5 407.308 L1552.21 395.945 L1552.21 389.515 L1594.32 389.515 L1594.32 379.012 L1599.73 379.012 L1599.73 406.384 L1594.32 406.384 Z" fill="#000000" fill-rule="evenodd" fill-opacity="1" /><path clip-path="url(#clip210)" d="M1579.29 353.39 L1608.32 362.366 L1608.32 367.776 L1579.29 358.801 L1550.26 367.776 L1550.26 362.366 L1579.29 353.39 Z" fill="#000000" fill-rule="evenodd" fill-opacity="1" /><polyline clip-path="url(#clip213)" style="stroke:#009af9; stroke-linecap:butt; stroke-linejoin:round; stroke-width:4; stroke-opacity:1; fill:none" points="
  1854.73,1034.34 1854.74,1034.34 1854.78,1034.3 1854.86,1034.09 1854.95,1033.61 1855.07,1032.63 1855.2,1031.02 1855.36,1028.52 1855.52,1024.95 1855.71,1020.08 
  1855.91,1013.72 1856.12,1005.71 1856.34,995.868 1856.57,984.064 1856.81,970.175 1857.07,954.099 1857.33,935.761 1857.61,915.117 1857.89,892.174 1858.19,867.006 
  1858.49,839.76 1858.8,810.651 1859.11,779.927 1859.43,747.845 1859.75,714.648 1860.08,680.561 1860.42,645.777 1860.75,610.479 1861.1,574.829 1861.45,538.982 
  1861.81,503.086 1862.18,467.303 1862.56,431.82 1862.94,396.872 1863.34,362.763 1863.75,329.858 1864.17,298.52 1864.59,269.04 1865.02,241.613 1865.45,216.342 
  1865.89,193.271 1866.33,172.4 1866.78,153.708 1867.25,137.158 1867.72,122.714 1868.21,110.338 1868.71,99.9992 1869.23,91.6599 1869.75,85.2581 1870.29,80.6784 
  1870.84,77.7481 1871.39,76.2596 1871.96,75.9944 1872.53,76.7397 1873.11,78.2948 1873.71,80.4742 1874.33,83.1066 1874.97,86.0327 1875.63,89.1012 1876.32,92.1644 
  1877.05,95.0733 1877.8,97.6802 1878.57,99.8619 1879.36,101.547 1880.17,102.719 1880.99,103.397 1881.82,103.632 1882.68,103.491 1883.55,103.054 1884.44,102.404 
  1885.35,101.626 1886.3,100.803 1887.29,100.013 1888.32,99.3313 1889.4,98.8283 1890.55,98.5696 1891.74,98.6068 1892.97,98.9588 1894.22,99.6148 1895.51,100.552 
  1896.83,101.745 1898.19,103.173 1899.62,104.827 1901.13,106.706 1902.74,108.828 1904.49,111.207 1906.33,113.805 1908.25,116.552 1910.25,119.458 1912.35,122.538 
  1914.56,125.795 1916.86,129.181 1919.21,132.641 1921.61,136.166 1924.06,139.76 1926.56,143.431 1929.13,147.187 1931.75,151.031 1934.41,154.951 1937.12,158.925 
  1939.84,162.929 1942.57,166.946 1945.31,170.963 1948.05,174.973 1950.79,178.972 1953.54,182.956 1956.29,186.922 1959.04,190.869 1961.8,194.793 1964.56,198.691 
  1967.32,202.561 1970.08,206.401 1972.84,210.208 1975.61,213.981 1978.38,217.717 1981.15,221.417 1983.92,225.077 1986.7,228.697 1989.48,232.276 1992.26,235.813 
  1995.05,239.308 1997.85,242.758 2000.65,246.164 2003.45,249.526 2006.26,252.842 2009.08,256.112 2011.91,259.335 2014.74,262.513 2017.58,265.644 2020.43,268.727 
  2023.29,271.764 2026.15,274.754 2029.03,277.697 2031.92,280.593 2034.82,283.442 2037.72,286.245 2040.65,289.001 2043.58,291.71 2046.52,294.374 2049.48,296.992 
  2052.45,299.564 2055.44,302.091 2058.44,304.573 2061.46,307.011 2064.49,309.405 2067.54,311.755 2070.61,314.062 2073.69,316.326 2076.79,318.548 2079.91,320.728 
  2083.05,322.867 2086.2,324.965 2089.38,327.022 2092.58,329.04 2095.8,331.018 2099.04,332.958 2102.31,334.859 2105.59,336.722 2108.9,338.548 2112.24,340.338 
  2115.6,342.091 2118.99,343.808 2122.4,345.49 2125.84,347.138 2129.31,348.751 2132.8,350.331 2136.33,351.877 2139.88,353.391 2143.47,354.873 2147.09,356.323 
  2150.74,357.743 2154.42,359.131 2158.14,360.49 2161.89,361.819 2165.67,363.118 2169.5,364.39 2173.36,365.632 2177.25,366.848 2181.19,368.036 2185.17,369.197 
  2189.19,370.331 2193.25,371.44 2197.35,372.523 2201.5,373.582 2205.7,374.615 2209.94,375.625 2214.23,376.61 2218.56,377.572 2222.95,378.511 2227.39,379.428 
  2231.88,380.322 2236.43,381.194 2241.03,382.044 2245.69,382.873 2250.4,383.682 2255.17,384.469 2260,385.236 2264.89,385.983 2269.84,386.709 2274.85,387.415 
  2279.91,388.1 2285.01,388.765 2290.16,389.408 2295.34,390.03 2300.54,390.629 2305.77,391.206 2311,391.761 2316.24,392.295 2321.5,392.809 2326.77,393.303 
  2332.05,393.778 2337.34,394.236 2342.65,394.676 2347.97,395.099 2353.29,395.506 2358.63,395.897 2363.98,396.273 2369.34,396.635 2374.71,396.983 2380.1,397.318 
  2385.49,397.64 2390.89,397.949 2396.31,398.247 2401.74,398.533 2407.18,398.808 2412.63,399.073 2418.1,399.328 2423.58,399.573 2429.07,399.808 2434.57,400.034 
  2440.07,400.252 2445.57,400.46 2451.05,400.659 2456.49,400.849 2461.89,401.03 2467.27,401.203 2472.65,401.369 2478.04,401.529 2483.47,401.684 2488.92,401.833 
  2494.39,401.977 2499.87,402.115 2505.37,402.248 2510.87,402.376 2516.38,402.499 2521.88,402.617 2527.35,402.73 2532.77,402.837 2538.14,402.939 2543.47,403.036 
  2548.8,403.13 2554.16,403.22 2559.56,403.308 2564.98,403.392 2570.42,403.473 2575.87,403.552 2581.33,403.627 2586.81,403.7 2592.3,403.77 2597.81,403.837 
  2603.31,403.902 2608.81,403.963 2614.27,404.023 2619.68,404.079 2625.04,404.133 2630.38,404.184 2635.73,404.233 2641.12,404.281 2646.53,404.327 2651.97,404.372 
  2657.42,404.415 2662.88,404.457 2668.36,404.496 2673.85,404.535 2679.35,404.572 2684.86,404.607 2690.36,404.641 2695.82,404.674 2701.24,404.705 2706.61,404.734 
  2711.95,404.763 2717.29,404.79 2722.67,404.816 2728.07,404.841 2733.51,404.866 2738.95,404.89 2744.41,404.912 2749.88,404.934 2755.36,404.955 2760.86,404.976 
  2766.37,404.995 2771.87,405.014 2777.35,405.032 2782.79,405.049 2788.17,405.066 2793.52,405.081 2798.86,405.096 2804.22,405.111 2809.62,405.125 2815.05,405.138 
  2820.49,405.151 2825.94,405.164 2831.41,405.176 2836.89,405.187 2842.39,405.198 2847.89,405.209 2853.4,405.22 2858.89,405.23 2864.34,405.239 2869.73,405.248 
  2875.08,405.257 2880.42,405.265 2885.78,405.273 2891.17,405.281 2896.59,405.288 2902.03,405.295 2907.48,405.302 2912.94,405.309 2918.41,405.315 2923.91,405.321 
  2929.41,405.327 2934.92,405.333 2940.41,405.338 2945.88,405.344 2951.29,405.349 2956.65,405.353 2961.99,405.358 2967.34,405.362 2972.72,405.367 2978.13,405.371 
  2983.56,405.375 2989.01,405.378 2994.47,405.382 2999.94,405.386 3005.43,405.389 3010.93,405.392 3016.44,405.396 3021.94,405.399 3027.41,405.401 3032.84,405.404 
  3038.22,405.407 3043.56,405.409 3048.9,405.412 3054.27,405.414 3059.67,405.416 3065.1,405.419 3070.55,405.421 3076,405.423 3081.47,405.425 3086.95,405.426 
  3092.45,405.428 3097.96,405.43 3103.46,405.432 3108.95,405.433 3114.39,405.435 3114.95,405.435 
  "/>
</svg>
