<?xml version="1.0" encoding="utf-8"?>
<svg xmlns="http://www.w3.org/2000/svg" xmlns:xlink="http://www.w3.org/1999/xlink" width="600" height="400" viewBox="0 0 2400 1600">
<defs>
  <clipPath id="clip270">
    <rect x="0" y="0" width="2400" height="1600"/>
  </clipPath>
</defs>
<path clip-path="url(#clip270)" d="
M0 1600 L2400 1600 L2400 0 L0 0  Z
  " fill="#ffffff" fill-rule="evenodd" fill-opacity="1"/>
<defs>
  <clipPath id="clip271">
    <rect x="480" y="0" width="1681" height="1600"/>
  </clipPath>
</defs>
<path clip-path="url(#clip270)" d="
M186.274 1423.18 L2352.76 1423.18 L2352.76 47.2441 L186.274 47.2441  Z
  " fill="#ffffff" fill-rule="evenodd" fill-opacity="1"/>
<defs>
  <clipPath id="clip272">
    <rect x="186" y="47" width="2167" height="1377"/>
  </clipPath>
</defs>
<polyline clip-path="url(#clip272)" style="stroke:#000000; stroke-linecap:butt; stroke-linejoin:round; stroke-width:2; stroke-opacity:0.1; fill:none" points="
  456.293,1423.18 456.293,47.2441 
  "/>
<polyline clip-path="url(#clip272)" style="stroke:#000000; stroke-linecap:butt; stroke-linejoin:round; stroke-width:2; stroke-opacity:0.1; fill:none" points="
  727.367,1423.18 727.367,47.2441 
  "/>
<polyline clip-path="url(#clip272)" style="stroke:#000000; stroke-linecap:butt; stroke-linejoin:round; stroke-width:2; stroke-opacity:0.1; fill:none" points="
  998.441,1423.18 998.441,47.2441 
  "/>
<polyline clip-path="url(#clip272)" style="stroke:#000000; stroke-linecap:butt; stroke-linejoin:round; stroke-width:2; stroke-opacity:0.1; fill:none" points="
  1269.51,1423.18 1269.51,47.2441 
  "/>
<polyline clip-path="url(#clip272)" style="stroke:#000000; stroke-linecap:butt; stroke-linejoin:round; stroke-width:2; stroke-opacity:0.1; fill:none" points="
  1540.59,1423.18 1540.59,47.2441 
  "/>
<polyline clip-path="url(#clip272)" style="stroke:#000000; stroke-linecap:butt; stroke-linejoin:round; stroke-width:2; stroke-opacity:0.1; fill:none" points="
  1811.66,1423.18 1811.66,47.2441 
  "/>
<polyline clip-path="url(#clip272)" style="stroke:#000000; stroke-linecap:butt; stroke-linejoin:round; stroke-width:2; stroke-opacity:0.1; fill:none" points="
  2082.74,1423.18 2082.74,47.2441 
  "/>
<polyline clip-path="url(#clip270)" style="stroke:#000000; stroke-linecap:butt; stroke-linejoin:round; stroke-width:4; stroke-opacity:1; fill:none" points="
  186.274,1423.18 2352.76,1423.18 
  "/>
<polyline clip-path="url(#clip270)" style="stroke:#000000; stroke-linecap:butt; stroke-linejoin:round; stroke-width:4; stroke-opacity:1; fill:none" points="
  456.293,1423.18 456.293,1404.28 
  "/>
<polyline clip-path="url(#clip270)" style="stroke:#000000; stroke-linecap:butt; stroke-linejoin:round; stroke-width:4; stroke-opacity:1; fill:none" points="
  727.367,1423.18 727.367,1404.28 
  "/>
<polyline clip-path="url(#clip270)" style="stroke:#000000; stroke-linecap:butt; stroke-linejoin:round; stroke-width:4; stroke-opacity:1; fill:none" points="
  998.441,1423.18 998.441,1404.28 
  "/>
<polyline clip-path="url(#clip270)" style="stroke:#000000; stroke-linecap:butt; stroke-linejoin:round; stroke-width:4; stroke-opacity:1; fill:none" points="
  1269.51,1423.18 1269.51,1404.28 
  "/>
<polyline clip-path="url(#clip270)" style="stroke:#000000; stroke-linecap:butt; stroke-linejoin:round; stroke-width:4; stroke-opacity:1; fill:none" points="
  1540.59,1423.18 1540.59,1404.28 
  "/>
<polyline clip-path="url(#clip270)" style="stroke:#000000; stroke-linecap:butt; stroke-linejoin:round; stroke-width:4; stroke-opacity:1; fill:none" points="
  1811.66,1423.18 1811.66,1404.28 
  "/>
<polyline clip-path="url(#clip270)" style="stroke:#000000; stroke-linecap:butt; stroke-linejoin:round; stroke-width:4; stroke-opacity:1; fill:none" points="
  2082.74,1423.18 2082.74,1404.28 
  "/>
<path clip-path="url(#clip270)" d="M410.853 1468.75 L440.529 1468.75 L440.529 1472.69 L410.853 1472.69 L410.853 1468.75 Z" fill="#000000" fill-rule="evenodd" fill-opacity="1" /><path clip-path="url(#clip270)" d="M451.431 1481.64 L459.07 1481.64 L459.07 1455.28 L450.76 1456.95 L450.76 1452.69 L459.024 1451.02 L463.7 1451.02 L463.7 1481.64 L471.339 1481.64 L471.339 1485.58 L451.431 1485.58 L451.431 1481.64 Z" fill="#000000" fill-rule="evenodd" fill-opacity="1" /><path clip-path="url(#clip270)" d="M480.829 1451.02 L499.186 1451.02 L499.186 1454.96 L485.112 1454.96 L485.112 1463.43 Q486.13 1463.08 487.149 1462.92 Q488.167 1462.73 489.186 1462.73 Q494.973 1462.73 498.352 1465.9 Q501.732 1469.08 501.732 1474.49 Q501.732 1480.07 498.26 1483.17 Q494.788 1486.25 488.468 1486.25 Q486.292 1486.25 484.024 1485.88 Q481.779 1485.51 479.371 1484.77 L479.371 1480.07 Q481.454 1481.2 483.677 1481.76 Q485.899 1482.32 488.376 1482.32 Q492.38 1482.32 494.718 1480.21 Q497.056 1478.1 497.056 1474.49 Q497.056 1470.88 494.718 1468.77 Q492.38 1466.67 488.376 1466.67 Q486.501 1466.67 484.626 1467.08 Q482.774 1467.5 480.829 1468.38 L480.829 1451.02 Z" fill="#000000" fill-rule="evenodd" fill-opacity="1" /><path clip-path="url(#clip270)" d="M681.429 1468.75 L711.105 1468.75 L711.105 1472.69 L681.429 1472.69 L681.429 1468.75 Z" fill="#000000" fill-rule="evenodd" fill-opacity="1" /><path clip-path="url(#clip270)" d="M722.008 1481.64 L729.647 1481.64 L729.647 1455.28 L721.337 1456.95 L721.337 1452.69 L729.6 1451.02 L734.276 1451.02 L734.276 1481.64 L741.915 1481.64 L741.915 1485.58 L722.008 1485.58 L722.008 1481.64 Z" fill="#000000" fill-rule="evenodd" fill-opacity="1" /><path clip-path="url(#clip270)" d="M761.36 1454.1 Q757.748 1454.1 755.92 1457.66 Q754.114 1461.2 754.114 1468.33 Q754.114 1475.44 755.92 1479.01 Q757.748 1482.55 761.36 1482.55 Q764.994 1482.55 766.799 1479.01 Q768.628 1475.44 768.628 1468.33 Q768.628 1461.2 766.799 1457.66 Q764.994 1454.1 761.36 1454.1 M761.36 1450.39 Q767.17 1450.39 770.225 1455 Q773.304 1459.58 773.304 1468.33 Q773.304 1477.06 770.225 1481.67 Q767.17 1486.25 761.36 1486.25 Q755.549 1486.25 752.471 1481.67 Q749.415 1477.06 749.415 1468.33 Q749.415 1459.58 752.471 1455 Q755.549 1450.39 761.36 1450.39 Z" fill="#000000" fill-rule="evenodd" fill-opacity="1" /><path clip-path="url(#clip270)" d="M968.082 1468.75 L997.758 1468.75 L997.758 1472.69 L968.082 1472.69 L968.082 1468.75 Z" fill="#000000" fill-rule="evenodd" fill-opacity="1" /><path clip-path="url(#clip270)" d="M1007.9 1451.02 L1026.25 1451.02 L1026.25 1454.96 L1012.18 1454.96 L1012.18 1463.43 Q1013.2 1463.08 1014.22 1462.92 Q1015.23 1462.73 1016.25 1462.73 Q1022.04 1462.73 1025.42 1465.9 Q1028.8 1469.08 1028.8 1474.49 Q1028.8 1480.07 1025.33 1483.17 Q1021.86 1486.25 1015.54 1486.25 Q1013.36 1486.25 1011.09 1485.88 Q1008.85 1485.51 1006.44 1484.77 L1006.44 1480.07 Q1008.52 1481.2 1010.74 1481.76 Q1012.97 1482.32 1015.44 1482.32 Q1019.45 1482.32 1021.79 1480.21 Q1024.12 1478.1 1024.12 1474.49 Q1024.12 1470.88 1021.79 1468.77 Q1019.45 1466.67 1015.44 1466.67 Q1013.57 1466.67 1011.69 1467.08 Q1009.84 1467.5 1007.9 1468.38 L1007.9 1451.02 Z" fill="#000000" fill-rule="evenodd" fill-opacity="1" /><path clip-path="url(#clip270)" d="M1269.51 1454.1 Q1265.9 1454.1 1264.08 1457.66 Q1262.27 1461.2 1262.27 1468.33 Q1262.27 1475.44 1264.08 1479.01 Q1265.9 1482.55 1269.51 1482.55 Q1273.15 1482.55 1274.95 1479.01 Q1276.78 1475.44 1276.78 1468.33 Q1276.78 1461.2 1274.95 1457.66 Q1273.15 1454.1 1269.51 1454.1 M1269.51 1450.39 Q1275.33 1450.39 1278.38 1455 Q1281.46 1459.58 1281.46 1468.33 Q1281.46 1477.06 1278.38 1481.67 Q1275.33 1486.25 1269.51 1486.25 Q1263.7 1486.25 1260.63 1481.67 Q1257.57 1477.06 1257.57 1468.33 Q1257.57 1459.58 1260.63 1455 Q1263.7 1450.39 1269.51 1450.39 Z" fill="#000000" fill-rule="evenodd" fill-opacity="1" /><path clip-path="url(#clip270)" d="M1530.87 1451.02 L1549.22 1451.02 L1549.22 1454.96 L1535.15 1454.96 L1535.15 1463.43 Q1536.17 1463.08 1537.19 1462.92 Q1538.2 1462.73 1539.22 1462.73 Q1545.01 1462.73 1548.39 1465.9 Q1551.77 1469.08 1551.77 1474.49 Q1551.77 1480.07 1548.3 1483.17 Q1544.83 1486.25 1538.51 1486.25 Q1536.33 1486.25 1534.06 1485.88 Q1531.82 1485.51 1529.41 1484.77 L1529.41 1480.07 Q1531.49 1481.2 1533.71 1481.76 Q1535.94 1482.32 1538.41 1482.32 Q1542.42 1482.32 1544.76 1480.21 Q1547.09 1478.1 1547.09 1474.49 Q1547.09 1470.88 1544.76 1468.77 Q1542.42 1466.67 1538.41 1466.67 Q1536.54 1466.67 1534.66 1467.08 Q1532.81 1467.5 1530.87 1468.38 L1530.87 1451.02 Z" fill="#000000" fill-rule="evenodd" fill-opacity="1" /><path clip-path="url(#clip270)" d="M1786.35 1481.64 L1793.99 1481.64 L1793.99 1455.28 L1785.68 1456.95 L1785.68 1452.69 L1793.94 1451.02 L1798.62 1451.02 L1798.62 1481.64 L1806.26 1481.64 L1806.26 1485.58 L1786.35 1485.58 L1786.35 1481.64 Z" fill="#000000" fill-rule="evenodd" fill-opacity="1" /><path clip-path="url(#clip270)" d="M1825.7 1454.1 Q1822.09 1454.1 1820.26 1457.66 Q1818.46 1461.2 1818.46 1468.33 Q1818.46 1475.44 1820.26 1479.01 Q1822.09 1482.55 1825.7 1482.55 Q1829.34 1482.55 1831.14 1479.01 Q1832.97 1475.44 1832.97 1468.33 Q1832.97 1461.2 1831.14 1457.66 Q1829.34 1454.1 1825.7 1454.1 M1825.7 1450.39 Q1831.51 1450.39 1834.57 1455 Q1837.65 1459.58 1837.65 1468.33 Q1837.65 1477.06 1834.57 1481.67 Q1831.51 1486.25 1825.7 1486.25 Q1819.89 1486.25 1816.81 1481.67 Q1813.76 1477.06 1813.76 1468.33 Q1813.76 1459.58 1816.81 1455 Q1819.89 1450.39 1825.7 1450.39 Z" fill="#000000" fill-rule="evenodd" fill-opacity="1" /><path clip-path="url(#clip270)" d="M2057.92 1481.64 L2065.56 1481.64 L2065.56 1455.28 L2057.25 1456.95 L2057.25 1452.69 L2065.52 1451.02 L2070.19 1451.02 L2070.19 1481.64 L2077.83 1481.64 L2077.83 1485.58 L2057.92 1485.58 L2057.92 1481.64 Z" fill="#000000" fill-rule="evenodd" fill-opacity="1" /><path clip-path="url(#clip270)" d="M2087.32 1451.02 L2105.68 1451.02 L2105.68 1454.96 L2091.6 1454.96 L2091.6 1463.43 Q2092.62 1463.08 2093.64 1462.92 Q2094.66 1462.73 2095.68 1462.73 Q2101.46 1462.73 2104.84 1465.9 Q2108.22 1469.08 2108.22 1474.49 Q2108.22 1480.07 2104.75 1483.17 Q2101.28 1486.25 2094.96 1486.25 Q2092.78 1486.25 2090.52 1485.88 Q2088.27 1485.51 2085.86 1484.77 L2085.86 1480.07 Q2087.95 1481.2 2090.17 1481.76 Q2092.39 1482.32 2094.87 1482.32 Q2098.87 1482.32 2101.21 1480.21 Q2103.55 1478.1 2103.55 1474.49 Q2103.55 1470.88 2101.21 1468.77 Q2098.87 1466.67 2094.87 1466.67 Q2092.99 1466.67 2091.12 1467.08 Q2089.27 1467.5 2087.32 1468.38 L2087.32 1451.02 Z" fill="#000000" fill-rule="evenodd" fill-opacity="1" /><path clip-path="url(#clip270)" d="M1186.32 1568.97 Q1173.11 1568.97 1173.11 1550.06 Q1173.11 1542.58 1178.04 1532.4 L1184.34 1532.4 Q1179.79 1542.58 1179.79 1550.22 Q1179.79 1564 1186.86 1564 Q1193.32 1564 1193.32 1546.88 L1198.73 1546.88 Q1198.73 1564 1205.19 1564 Q1212.26 1564 1212.26 1550.22 Q1212.26 1542.58 1207.7 1532.4 L1214.01 1532.4 Q1218.94 1542.58 1218.94 1550.06 Q1218.94 1568.97 1205.73 1568.97 Q1197.07 1568.97 1196.02 1559.45 Q1194.72 1568.97 1186.32 1568.97 Z" fill="#000000" fill-rule="evenodd" fill-opacity="1" /><path clip-path="url(#clip270)" d="M1247.3 1547.58 L1264.45 1547.58 L1264.45 1552.8 L1247.3 1552.8 L1247.3 1547.58 Z" fill="#000000" fill-rule="evenodd" fill-opacity="1" /><path clip-path="url(#clip270)" d="M1305.86 1568.97 Q1292.65 1568.97 1292.65 1550.06 Q1292.65 1542.58 1297.59 1532.4 L1303.89 1532.4 Q1299.34 1542.58 1299.34 1550.22 Q1299.34 1564 1306.4 1564 Q1312.87 1564 1312.87 1546.88 L1318.28 1546.88 Q1318.28 1564 1324.74 1564 Q1331.8 1564 1331.8 1550.22 Q1331.8 1542.58 1327.25 1532.4 L1333.55 1532.4 Q1338.49 1542.58 1338.49 1550.06 Q1338.49 1568.97 1325.28 1568.97 Q1316.62 1568.97 1315.57 1559.45 Q1314.27 1568.97 1305.86 1568.97 Z" fill="#000000" fill-rule="evenodd" fill-opacity="1" /><path clip-path="url(#clip270)" d="M1352.62 1559.51 Q1353.92 1565.88 1356.69 1565.88 Q1358.54 1565.88 1360.93 1562.22 L1365.16 1562.22 Q1363.25 1565.47 1361.02 1567.15 Q1358.6 1568.97 1356.38 1568.97 Q1351.41 1568.97 1349.4 1564.54 L1347.02 1568.04 L1342.05 1568.04 Q1345.49 1563.37 1348.04 1559 Q1347.72 1556.52 1347.72 1553.82 Q1347.72 1548.98 1348.7 1544.14 Q1352.43 1525.97 1355.74 1522.24 Q1358.03 1519.66 1361.95 1519.66 Q1365.92 1519.66 1365.92 1525.17 Q1365.89 1527.65 1365.32 1530.61 Q1363.03 1542.74 1352.62 1559.51 M1352.59 1551.17 Q1358.54 1540.1 1360.35 1531.25 Q1361.31 1526.57 1361.31 1525.36 Q1361.31 1523.17 1360.51 1523.17 Q1357.04 1525.93 1353.96 1542.42 Q1353.1 1547.04 1352.59 1551.17 Z" fill="#000000" fill-rule="evenodd" fill-opacity="1" /><polyline clip-path="url(#clip272)" style="stroke:#000000; stroke-linecap:butt; stroke-linejoin:round; stroke-width:2; stroke-opacity:0.1; fill:none" points="
  186.274,1384.33 2352.76,1384.33 
  "/>
<polyline clip-path="url(#clip272)" style="stroke:#000000; stroke-linecap:butt; stroke-linejoin:round; stroke-width:2; stroke-opacity:0.1; fill:none" points="
  186.274,1066.25 2352.76,1066.25 
  "/>
<polyline clip-path="url(#clip272)" style="stroke:#000000; stroke-linecap:butt; stroke-linejoin:round; stroke-width:2; stroke-opacity:0.1; fill:none" points="
  186.274,748.178 2352.76,748.178 
  "/>
<polyline clip-path="url(#clip272)" style="stroke:#000000; stroke-linecap:butt; stroke-linejoin:round; stroke-width:2; stroke-opacity:0.1; fill:none" points="
  186.274,430.105 2352.76,430.105 
  "/>
<polyline clip-path="url(#clip272)" style="stroke:#000000; stroke-linecap:butt; stroke-linejoin:round; stroke-width:2; stroke-opacity:0.1; fill:none" points="
  186.274,112.031 2352.76,112.031 
  "/>
<polyline clip-path="url(#clip270)" style="stroke:#000000; stroke-linecap:butt; stroke-linejoin:round; stroke-width:4; stroke-opacity:1; fill:none" points="
  186.274,1423.18 186.274,47.2441 
  "/>
<polyline clip-path="url(#clip270)" style="stroke:#000000; stroke-linecap:butt; stroke-linejoin:round; stroke-width:4; stroke-opacity:1; fill:none" points="
  186.274,1384.33 205.172,1384.33 
  "/>
<polyline clip-path="url(#clip270)" style="stroke:#000000; stroke-linecap:butt; stroke-linejoin:round; stroke-width:4; stroke-opacity:1; fill:none" points="
  186.274,1066.25 205.172,1066.25 
  "/>
<polyline clip-path="url(#clip270)" style="stroke:#000000; stroke-linecap:butt; stroke-linejoin:round; stroke-width:4; stroke-opacity:1; fill:none" points="
  186.274,748.178 205.172,748.178 
  "/>
<polyline clip-path="url(#clip270)" style="stroke:#000000; stroke-linecap:butt; stroke-linejoin:round; stroke-width:4; stroke-opacity:1; fill:none" points="
  186.274,430.105 205.172,430.105 
  "/>
<polyline clip-path="url(#clip270)" style="stroke:#000000; stroke-linecap:butt; stroke-linejoin:round; stroke-width:4; stroke-opacity:1; fill:none" points="
  186.274,112.031 205.172,112.031 
  "/>
<path clip-path="url(#clip270)" d="M62.9365 1370.12 Q59.3254 1370.12 57.4967 1373.69 Q55.6912 1377.23 55.6912 1384.36 Q55.6912 1391.47 57.4967 1395.03 Q59.3254 1398.57 62.9365 1398.57 Q66.5707 1398.57 68.3763 1395.03 Q70.205 1391.47 70.205 1384.36 Q70.205 1377.23 68.3763 1373.69 Q66.5707 1370.12 62.9365 1370.12 M62.9365 1366.42 Q68.7467 1366.42 71.8022 1371.03 Q74.8809 1375.61 74.8809 1384.36 Q74.8809 1393.09 71.8022 1397.69 Q68.7467 1402.28 62.9365 1402.28 Q57.1264 1402.28 54.0477 1397.69 Q50.9921 1393.09 50.9921 1384.36 Q50.9921 1375.61 54.0477 1371.03 Q57.1264 1366.42 62.9365 1366.42 Z" fill="#000000" fill-rule="evenodd" fill-opacity="1" /><path clip-path="url(#clip270)" d="M83.0984 1395.73 L87.9827 1395.73 L87.9827 1401.61 L83.0984 1401.61 L83.0984 1395.73 Z" fill="#000000" fill-rule="evenodd" fill-opacity="1" /><path clip-path="url(#clip270)" d="M108.168 1370.12 Q104.557 1370.12 102.728 1373.69 Q100.922 1377.23 100.922 1384.36 Q100.922 1391.47 102.728 1395.03 Q104.557 1398.57 108.168 1398.57 Q111.802 1398.57 113.608 1395.03 Q115.436 1391.47 115.436 1384.36 Q115.436 1377.23 113.608 1373.69 Q111.802 1370.12 108.168 1370.12 M108.168 1366.42 Q113.978 1366.42 117.033 1371.03 Q120.112 1375.61 120.112 1384.36 Q120.112 1393.09 117.033 1397.69 Q113.978 1402.28 108.168 1402.28 Q102.358 1402.28 99.2789 1397.69 Q96.2234 1393.09 96.2234 1384.36 Q96.2234 1375.61 99.2789 1371.03 Q102.358 1366.42 108.168 1366.42 Z" fill="#000000" fill-rule="evenodd" fill-opacity="1" /><path clip-path="url(#clip270)" d="M138.33 1370.12 Q134.719 1370.12 132.89 1373.69 Q131.084 1377.23 131.084 1384.36 Q131.084 1391.47 132.89 1395.03 Q134.719 1398.57 138.33 1398.57 Q141.964 1398.57 143.769 1395.03 Q145.598 1391.47 145.598 1384.36 Q145.598 1377.23 143.769 1373.69 Q141.964 1370.12 138.33 1370.12 M138.33 1366.42 Q144.14 1366.42 147.195 1371.03 Q150.274 1375.61 150.274 1384.36 Q150.274 1393.09 147.195 1397.69 Q144.14 1402.28 138.33 1402.28 Q132.519 1402.28 129.441 1397.69 Q126.385 1393.09 126.385 1384.36 Q126.385 1375.61 129.441 1371.03 Q132.519 1366.42 138.33 1366.42 Z" fill="#000000" fill-rule="evenodd" fill-opacity="1" /><path clip-path="url(#clip270)" d="M63.9319 1052.05 Q60.3208 1052.05 58.4921 1055.62 Q56.6865 1059.16 56.6865 1066.29 Q56.6865 1073.39 58.4921 1076.96 Q60.3208 1080.5 63.9319 1080.5 Q67.5661 1080.5 69.3717 1076.96 Q71.2004 1073.39 71.2004 1066.29 Q71.2004 1059.16 69.3717 1055.62 Q67.5661 1052.05 63.9319 1052.05 M63.9319 1048.35 Q69.742 1048.35 72.7976 1052.95 Q75.8763 1057.54 75.8763 1066.29 Q75.8763 1075.01 72.7976 1079.62 Q69.742 1084.2 63.9319 1084.2 Q58.1217 1084.2 55.043 1079.62 Q51.9875 1075.01 51.9875 1066.29 Q51.9875 1057.54 55.043 1052.95 Q58.1217 1048.35 63.9319 1048.35 Z" fill="#000000" fill-rule="evenodd" fill-opacity="1" /><path clip-path="url(#clip270)" d="M84.0938 1077.65 L88.978 1077.65 L88.978 1083.53 L84.0938 1083.53 L84.0938 1077.65 Z" fill="#000000" fill-rule="evenodd" fill-opacity="1" /><path clip-path="url(#clip270)" d="M103.191 1079.6 L119.51 1079.6 L119.51 1083.53 L97.566 1083.53 L97.566 1079.6 Q100.228 1076.84 104.811 1072.21 Q109.418 1067.56 110.598 1066.22 Q112.844 1063.69 113.723 1061.96 Q114.626 1060.2 114.626 1058.51 Q114.626 1055.75 112.682 1054.02 Q110.76 1052.28 107.658 1052.28 Q105.459 1052.28 103.006 1053.05 Q100.575 1053.81 97.7974 1055.36 L97.7974 1050.64 Q100.621 1049.5 103.075 1048.93 Q105.529 1048.35 107.566 1048.35 Q112.936 1048.35 116.131 1051.03 Q119.325 1053.72 119.325 1058.21 Q119.325 1060.34 118.515 1062.26 Q117.728 1064.16 115.621 1066.75 Q115.043 1067.42 111.941 1070.64 Q108.839 1073.83 103.191 1079.6 Z" fill="#000000" fill-rule="evenodd" fill-opacity="1" /><path clip-path="url(#clip270)" d="M129.371 1048.97 L147.728 1048.97 L147.728 1052.91 L133.654 1052.91 L133.654 1061.38 Q134.672 1061.03 135.691 1060.87 Q136.709 1060.68 137.728 1060.68 Q143.515 1060.68 146.894 1063.86 Q150.274 1067.03 150.274 1072.44 Q150.274 1078.02 146.802 1081.12 Q143.33 1084.2 137.01 1084.2 Q134.834 1084.2 132.566 1083.83 Q130.32 1083.46 127.913 1082.72 L127.913 1078.02 Q129.996 1079.16 132.219 1079.71 Q134.441 1080.27 136.918 1080.27 Q140.922 1080.27 143.26 1078.16 Q145.598 1076.06 145.598 1072.44 Q145.598 1068.83 143.26 1066.73 Q140.922 1064.62 136.918 1064.62 Q135.043 1064.62 133.168 1065.04 Q131.316 1065.45 129.371 1066.33 L129.371 1048.97 Z" fill="#000000" fill-rule="evenodd" fill-opacity="1" /><path clip-path="url(#clip270)" d="M62.9365 733.977 Q59.3254 733.977 57.4967 737.542 Q55.6912 741.084 55.6912 748.213 Q55.6912 755.32 57.4967 758.884 Q59.3254 762.426 62.9365 762.426 Q66.5707 762.426 68.3763 758.884 Q70.205 755.32 70.205 748.213 Q70.205 741.084 68.3763 737.542 Q66.5707 733.977 62.9365 733.977 M62.9365 730.273 Q68.7467 730.273 71.8022 734.88 Q74.8809 739.463 74.8809 748.213 Q74.8809 756.94 71.8022 761.546 Q68.7467 766.13 62.9365 766.13 Q57.1264 766.13 54.0477 761.546 Q50.9921 756.94 50.9921 748.213 Q50.9921 739.463 54.0477 734.88 Q57.1264 730.273 62.9365 730.273 Z" fill="#000000" fill-rule="evenodd" fill-opacity="1" /><path clip-path="url(#clip270)" d="M83.0984 759.579 L87.9827 759.579 L87.9827 765.458 L83.0984 765.458 L83.0984 759.579 Z" fill="#000000" fill-rule="evenodd" fill-opacity="1" /><path clip-path="url(#clip270)" d="M98.2141 730.898 L116.57 730.898 L116.57 734.834 L102.496 734.834 L102.496 743.306 Q103.515 742.959 104.534 742.796 Q105.552 742.611 106.571 742.611 Q112.358 742.611 115.737 745.783 Q119.117 748.954 119.117 754.37 Q119.117 759.949 115.645 763.051 Q112.172 766.13 105.853 766.13 Q103.677 766.13 101.409 765.759 Q99.1632 765.389 96.7558 764.648 L96.7558 759.949 Q98.8391 761.083 101.061 761.639 Q103.284 762.195 105.76 762.195 Q109.765 762.195 112.103 760.088 Q114.441 757.982 114.441 754.37 Q114.441 750.759 112.103 748.653 Q109.765 746.546 105.76 746.546 Q103.885 746.546 102.01 746.963 Q100.159 747.38 98.2141 748.259 L98.2141 730.898 Z" fill="#000000" fill-rule="evenodd" fill-opacity="1" /><path clip-path="url(#clip270)" d="M138.33 733.977 Q134.719 733.977 132.89 737.542 Q131.084 741.084 131.084 748.213 Q131.084 755.32 132.89 758.884 Q134.719 762.426 138.33 762.426 Q141.964 762.426 143.769 758.884 Q145.598 755.32 145.598 748.213 Q145.598 741.084 143.769 737.542 Q141.964 733.977 138.33 733.977 M138.33 730.273 Q144.14 730.273 147.195 734.88 Q150.274 739.463 150.274 748.213 Q150.274 756.94 147.195 761.546 Q144.14 766.13 138.33 766.13 Q132.519 766.13 129.441 761.546 Q126.385 756.94 126.385 748.213 Q126.385 739.463 129.441 734.88 Q132.519 730.273 138.33 730.273 Z" fill="#000000" fill-rule="evenodd" fill-opacity="1" /><path clip-path="url(#clip270)" d="M63.9319 415.903 Q60.3208 415.903 58.4921 419.468 Q56.6865 423.01 56.6865 430.139 Q56.6865 437.246 58.4921 440.811 Q60.3208 444.352 63.9319 444.352 Q67.5661 444.352 69.3717 440.811 Q71.2004 437.246 71.2004 430.139 Q71.2004 423.01 69.3717 419.468 Q67.5661 415.903 63.9319 415.903 M63.9319 412.2 Q69.742 412.2 72.7976 416.806 Q75.8763 421.39 75.8763 430.139 Q75.8763 438.866 72.7976 443.473 Q69.742 448.056 63.9319 448.056 Q58.1217 448.056 55.043 443.473 Q51.9875 438.866 51.9875 430.139 Q51.9875 421.39 55.043 416.806 Q58.1217 412.2 63.9319 412.2 Z" fill="#000000" fill-rule="evenodd" fill-opacity="1" /><path clip-path="url(#clip270)" d="M84.0938 441.505 L88.978 441.505 L88.978 447.385 L84.0938 447.385 L84.0938 441.505 Z" fill="#000000" fill-rule="evenodd" fill-opacity="1" /><path clip-path="url(#clip270)" d="M97.9826 412.825 L120.205 412.825 L120.205 414.815 L107.658 447.385 L102.774 447.385 L114.58 416.76 L97.9826 416.76 L97.9826 412.825 Z" fill="#000000" fill-rule="evenodd" fill-opacity="1" /><path clip-path="url(#clip270)" d="M129.371 412.825 L147.728 412.825 L147.728 416.76 L133.654 416.76 L133.654 425.232 Q134.672 424.885 135.691 424.723 Q136.709 424.538 137.728 424.538 Q143.515 424.538 146.894 427.709 Q150.274 430.88 150.274 436.297 Q150.274 441.876 146.802 444.977 Q143.33 448.056 137.01 448.056 Q134.834 448.056 132.566 447.686 Q130.32 447.315 127.913 446.575 L127.913 441.876 Q129.996 443.01 132.219 443.565 Q134.441 444.121 136.918 444.121 Q140.922 444.121 143.26 442.014 Q145.598 439.908 145.598 436.297 Q145.598 432.686 143.26 430.579 Q140.922 428.473 136.918 428.473 Q135.043 428.473 133.168 428.889 Q131.316 429.306 129.371 430.186 L129.371 412.825 Z" fill="#000000" fill-rule="evenodd" fill-opacity="1" /><path clip-path="url(#clip270)" d="M53.7467 125.376 L61.3856 125.376 L61.3856 99.0103 L53.0754 100.677 L53.0754 96.4178 L61.3393 94.7511 L66.0152 94.7511 L66.0152 125.376 L73.654 125.376 L73.654 129.311 L53.7467 129.311 L53.7467 125.376 Z" fill="#000000" fill-rule="evenodd" fill-opacity="1" /><path clip-path="url(#clip270)" d="M83.0984 123.432 L87.9827 123.432 L87.9827 129.311 L83.0984 129.311 L83.0984 123.432 Z" fill="#000000" fill-rule="evenodd" fill-opacity="1" /><path clip-path="url(#clip270)" d="M108.168 97.8298 Q104.557 97.8298 102.728 101.395 Q100.922 104.936 100.922 112.066 Q100.922 119.172 102.728 122.737 Q104.557 126.279 108.168 126.279 Q111.802 126.279 113.608 122.737 Q115.436 119.172 115.436 112.066 Q115.436 104.936 113.608 101.395 Q111.802 97.8298 108.168 97.8298 M108.168 94.1261 Q113.978 94.1261 117.033 98.7326 Q120.112 103.316 120.112 112.066 Q120.112 120.793 117.033 125.399 Q113.978 129.982 108.168 129.982 Q102.358 129.982 99.2789 125.399 Q96.2234 120.793 96.2234 112.066 Q96.2234 103.316 99.2789 98.7326 Q102.358 94.1261 108.168 94.1261 Z" fill="#000000" fill-rule="evenodd" fill-opacity="1" /><path clip-path="url(#clip270)" d="M138.33 97.8298 Q134.719 97.8298 132.89 101.395 Q131.084 104.936 131.084 112.066 Q131.084 119.172 132.89 122.737 Q134.719 126.279 138.33 126.279 Q141.964 126.279 143.769 122.737 Q145.598 119.172 145.598 112.066 Q145.598 104.936 143.769 101.395 Q141.964 97.8298 138.33 97.8298 M138.33 94.1261 Q144.14 94.1261 147.195 98.7326 Q150.274 103.316 150.274 112.066 Q150.274 120.793 147.195 125.399 Q144.14 129.982 138.33 129.982 Q132.519 129.982 129.441 125.399 Q126.385 120.793 126.385 112.066 Q126.385 103.316 129.441 98.7326 Q132.519 94.1261 138.33 94.1261 Z" fill="#000000" fill-rule="evenodd" fill-opacity="1" /><polyline clip-path="url(#clip272)" style="stroke:#009af9; stroke-linecap:butt; stroke-linejoin:round; stroke-width:4; stroke-opacity:1; fill:none" points="
  247.59,1384.24 249.633,1384.24 251.677,1384.24 253.721,1384.24 255.765,1384.24 257.809,1384.23 259.853,1384.23 261.896,1384.23 263.94,1384.23 265.984,1384.23 
  268.028,1384.23 270.072,1384.23 272.116,1384.23 274.16,1384.23 276.203,1384.23 278.247,1384.23 280.291,1384.23 282.335,1384.22 284.379,1384.22 286.423,1384.22 
  288.467,1384.22 290.51,1384.22 292.554,1384.22 294.598,1384.22 296.642,1384.22 298.686,1384.22 300.73,1384.22 302.774,1384.22 304.817,1384.21 306.861,1384.21 
  308.905,1384.21 310.949,1384.21 312.993,1384.21 315.037,1384.21 317.08,1384.21 319.124,1384.21 321.168,1384.21 323.212,1384.2 325.256,1384.2 327.3,1384.2 
  329.344,1384.2 331.387,1384.2 333.431,1384.2 335.475,1384.2 337.519,1384.2 339.563,1384.2 341.607,1384.19 343.651,1384.19 345.694,1384.19 347.738,1384.19 
  349.782,1384.19 351.826,1384.19 353.87,1384.19 355.914,1384.18 357.957,1384.18 360.001,1384.18 362.045,1384.18 364.089,1384.18 366.133,1384.18 368.177,1384.18 
  370.221,1384.17 372.264,1384.17 374.308,1384.17 376.352,1384.17 378.396,1384.17 380.44,1384.17 382.484,1384.17 384.528,1384.16 386.571,1384.16 388.615,1384.16 
  390.659,1384.16 392.703,1384.16 394.747,1384.16 396.791,1384.15 398.834,1384.15 400.878,1384.15 402.922,1384.15 404.966,1384.15 407.01,1384.15 409.054,1384.14 
  411.098,1384.14 413.141,1384.14 415.185,1384.14 417.229,1384.14 419.273,1384.13 421.317,1384.13 423.361,1384.13 425.405,1384.13 427.448,1384.13 429.492,1384.12 
  431.536,1384.12 433.58,1384.12 435.624,1384.12 437.668,1384.11 439.712,1384.11 441.755,1384.11 443.799,1384.11 445.843,1384.11 447.887,1384.1 449.931,1384.1 
  451.975,1384.1 454.018,1384.1 456.062,1384.09 458.106,1384.09 460.15,1384.09 462.194,1384.09 464.238,1384.08 466.282,1384.08 468.325,1384.08 470.369,1384.07 
  472.413,1384.07 474.457,1384.07 476.501,1384.07 478.545,1384.06 480.589,1384.06 482.632,1384.06 484.676,1384.05 486.72,1384.05 488.764,1384.05 490.808,1384.04 
  492.852,1384.04 494.895,1384.04 496.939,1384.03 498.983,1384.03 501.027,1384.03 503.071,1384.02 505.115,1384.02 507.159,1384.02 509.202,1384.01 511.246,1384.01 
  513.29,1384 515.334,1384 517.378,1384 519.422,1383.99 521.466,1383.99 523.509,1383.99 525.553,1383.98 527.597,1383.98 529.641,1383.97 531.685,1383.97 
  533.729,1383.96 535.772,1383.96 537.816,1383.95 539.86,1383.95 541.904,1383.95 543.948,1383.94 545.992,1383.94 548.036,1383.93 550.079,1383.93 552.123,1383.92 
  554.167,1383.91 556.211,1383.91 558.255,1383.9 560.299,1383.9 562.343,1383.89 564.386,1383.89 566.43,1383.88 568.474,1383.88 570.518,1383.87 572.562,1383.86 
  574.606,1383.86 576.65,1383.85 578.693,1383.85 580.737,1383.84 582.781,1383.83 584.825,1383.83 586.869,1383.82 588.913,1383.81 590.956,1383.8 593,1383.8 
  595.044,1383.79 597.088,1383.78 599.132,1383.78 601.176,1383.77 603.22,1383.76 605.263,1383.75 607.307,1383.74 609.351,1383.74 611.395,1383.73 613.439,1383.72 
  615.483,1383.71 617.527,1383.7 619.57,1383.69 621.614,1383.68 623.658,1383.67 625.702,1383.66 627.746,1383.65 629.79,1383.64 631.833,1383.63 633.877,1383.62 
  635.921,1383.61 637.965,1383.6 640.009,1383.59 642.053,1383.58 644.097,1383.57 646.14,1383.56 648.184,1383.55 650.228,1383.53 652.272,1383.52 654.316,1383.51 
  656.36,1383.5 658.404,1383.48 660.447,1383.47 662.491,1383.46 664.535,1383.44 666.579,1383.43 668.623,1383.41 670.667,1383.4 672.711,1383.38 674.754,1383.37 
  676.798,1383.35 678.842,1383.34 680.886,1383.32 682.93,1383.3 684.974,1383.29 687.017,1383.27 689.061,1383.25 691.105,1383.23 693.149,1383.21 695.193,1383.2 
  697.237,1383.18 699.281,1383.16 701.324,1383.14 703.368,1383.12 705.412,1383.09 707.456,1383.07 709.5,1383.05 711.544,1383.03 713.588,1383.01 715.631,1382.98 
  717.675,1382.96 719.719,1382.93 721.763,1382.91 723.807,1382.88 725.851,1382.86 727.894,1382.83 729.938,1382.8 731.982,1382.77 734.026,1382.74 736.07,1382.71 
  738.114,1382.68 740.158,1382.65 742.201,1382.62 744.245,1382.59 746.289,1382.55 748.333,1382.52 750.377,1382.48 752.421,1382.45 754.465,1382.41 756.508,1382.37 
  758.552,1382.33 760.596,1382.29 762.64,1382.25 764.684,1382.21 766.728,1382.16 768.771,1382.12 770.815,1382.07 772.859,1382.02 774.903,1381.98 776.947,1381.93 
  778.991,1381.88 781.035,1381.82 783.078,1381.77 785.122,1381.71 787.166,1381.66 789.21,1381.6 791.254,1381.54 793.298,1381.47 795.342,1381.41 797.385,1381.34 
  799.429,1381.28 801.473,1381.21 803.517,1381.14 805.561,1381.06 807.605,1380.99 809.649,1380.91 811.692,1380.83 813.736,1380.74 815.78,1380.66 817.824,1380.57 
  819.868,1380.48 821.912,1380.38 823.955,1380.28 825.999,1380.18 828.043,1380.08 830.087,1379.97 832.131,1379.86 834.175,1379.75 836.219,1379.63 838.262,1379.51 
  840.306,1379.38 842.35,1379.25 844.394,1379.11 846.438,1378.97 848.482,1378.83 850.526,1378.68 852.569,1378.52 854.613,1378.36 856.657,1378.2 858.701,1378.02 
  860.745,1377.84 862.789,1377.66 864.832,1377.46 866.876,1377.26 868.92,1377.06 870.964,1376.84 873.008,1376.62 875.052,1376.38 877.096,1376.14 879.139,1375.89 
  881.183,1375.63 883.227,1375.35 885.271,1375.07 887.315,1374.77 889.359,1374.46 891.403,1374.14 893.446,1373.81 895.49,1373.46 897.534,1373.09 899.578,1372.71 
  901.622,1372.31 903.666,1371.89 905.71,1371.46 907.753,1371 909.797,1370.53 911.841,1370.03 913.885,1369.51 915.929,1368.96 917.973,1368.38 920.016,1367.78 
  922.06,1367.15 924.104,1366.49 926.148,1365.79 928.192,1365.05 930.236,1364.28 932.28,1363.47 934.323,1362.62 936.367,1361.71 938.411,1360.76 940.455,1359.76 
  942.499,1358.7 944.543,1357.59 946.587,1356.4 948.63,1355.16 950.674,1353.83 952.718,1352.43 954.762,1350.95 956.806,1349.37 958.85,1347.7 960.893,1345.93 
  962.937,1344.04 964.981,1342.03 967.025,1339.9 969.069,1337.62 971.113,1335.2 973.157,1332.62 975.2,1329.86 977.244,1326.91 979.288,1323.76 981.332,1320.39 
  983.376,1316.79 985.42,1312.93 987.464,1308.8 989.507,1304.37 991.551,1299.62 993.595,1294.52 995.639,1289.05 997.683,1283.19 999.727,1276.89 1001.77,1270.13 
  1003.81,1262.88 1005.86,1255.11 1007.9,1246.78 1009.95,1237.86 1011.99,1228.32 1014.03,1218.14 1016.08,1207.29 1018.12,1195.76 1020.17,1183.54 1022.21,1170.63 
  1024.25,1157.07 1026.3,1142.88 1028.34,1128.12 1030.38,1112.89 1032.43,1097.29 1034.47,1081.46 1036.52,1065.6 1038.56,1049.88 1040.6,1034.55 1042.65,1019.86 
  1044.69,1006.06 1046.74,993.418 1048.78,982.175 1050.82,972.551 1052.87,964.726 1054.91,958.828 1056.95,954.926 1059,953.029 1061.04,953.088 1063.09,954.999 
  1065.13,958.613 1067.17,963.75 1069.22,970.206 1071.26,977.768 1073.31,986.221 1075.35,995.362 1077.39,1005 1079.44,1014.96 1081.48,1025.1 1083.52,1035.27 
  1085.57,1045.39 1087.61,1055.34 1089.66,1065.07 1091.7,1074.52 1093.74,1083.64 1095.79,1092.41 1097.83,1100.81 1099.88,1108.81 1101.92,1116.43 1103.96,1123.66 
  1106.01,1130.49 1108.05,1136.94 1110.09,1143.02 1112.14,1148.73 1114.18,1154.09 1116.23,1159.1 1118.27,1163.79 1120.31,1168.15 1122.36,1172.21 1124.4,1175.97 
  1126.45,1179.44 1128.49,1182.64 1130.53,1185.58 1132.58,1188.25 1134.62,1190.67 1136.66,1192.86 1138.71,1194.8 1140.75,1196.52 1142.8,1198.01 1144.84,1199.27 
  1146.88,1200.32 1148.93,1201.15 1150.97,1201.76 1153.02,1202.17 1155.06,1202.35 1157.1,1202.32 1159.15,1202.07 1161.19,1201.6 1163.23,1200.91 1165.28,1199.98 
  1167.32,1198.82 1169.37,1197.41 1171.41,1195.75 1173.45,1193.83 1175.5,1191.64 1177.54,1189.16 1179.59,1186.37 1181.63,1183.27 1183.67,1179.83 1185.72,1176.04 
  1187.76,1171.86 1189.8,1167.27 1191.85,1162.25 1193.89,1156.75 1195.94,1150.75 1197.98,1144.2 1200.02,1137.06 1202.07,1129.28 1204.11,1120.79 1206.16,1111.54 
  1208.2,1101.45 1210.24,1090.45 1212.29,1078.45 1214.33,1065.35 1216.37,1051.04 1218.42,1035.39 1220.46,1018.29 1222.51,999.564 1224.55,979.064 1226.59,956.609 
  1228.64,932.007 1230.68,905.051 1232.73,875.527 1234.77,843.213 1236.81,807.891 1238.86,769.359 1240.9,727.447 1242.94,682.043 1244.99,633.125 1247.03,580.806 
  1249.08,525.384 1251.12,467.402 1253.16,407.712 1255.21,347.529 1257.25,288.461 1259.3,232.496 1261.34,181.926 1263.38,139.183 1265.43,106.613 1267.47,86.1857 
  1269.51,113.21 1271.56,86.1857 1273.6,106.613 1275.65,139.183 1277.69,181.926 1279.73,232.496 1281.78,288.461 1283.82,347.529 1285.87,407.712 1287.91,467.402 
  1289.95,525.384 1292,580.806 1294.04,633.125 1296.09,682.043 1298.13,727.447 1300.17,769.359 1302.22,807.891 1304.26,843.213 1306.3,875.527 1308.35,905.051 
  1310.39,932.007 1312.44,956.609 1314.48,979.064 1316.52,999.564 1318.57,1018.29 1320.61,1035.39 1322.66,1051.04 1324.7,1065.35 1326.74,1078.45 1328.79,1090.45 
  1330.83,1101.45 1332.87,1111.54 1334.92,1120.79 1336.96,1129.28 1339.01,1137.06 1341.05,1144.2 1343.09,1150.75 1345.14,1156.75 1347.18,1162.25 1349.23,1167.27 
  1351.27,1171.86 1353.31,1176.04 1355.36,1179.83 1357.4,1183.27 1359.44,1186.37 1361.49,1189.16 1363.53,1191.64 1365.58,1193.83 1367.62,1195.75 1369.66,1197.41 
  1371.71,1198.82 1373.75,1199.98 1375.8,1200.91 1377.84,1201.6 1379.88,1202.07 1381.93,1202.32 1383.97,1202.35 1386.01,1202.17 1388.06,1201.76 1390.1,1201.15 
  1392.15,1200.32 1394.19,1199.27 1396.23,1198.01 1398.28,1196.52 1400.32,1194.8 1402.37,1192.86 1404.41,1190.67 1406.45,1188.25 1408.5,1185.58 1410.54,1182.64 
  1412.58,1179.44 1414.63,1175.97 1416.67,1172.21 1418.72,1168.15 1420.76,1163.79 1422.8,1159.1 1424.85,1154.09 1426.89,1148.73 1428.94,1143.02 1430.98,1136.94 
  1433.02,1130.49 1435.07,1123.66 1437.11,1116.43 1439.15,1108.81 1441.2,1100.81 1443.24,1092.41 1445.29,1083.64 1447.33,1074.52 1449.37,1065.07 1451.42,1055.34 
  1453.46,1045.39 1455.51,1035.27 1457.55,1025.1 1459.59,1014.96 1461.64,1005 1463.68,995.362 1465.72,986.221 1467.77,977.768 1469.81,970.206 1471.86,963.75 
  1473.9,958.613 1475.94,954.999 1477.99,953.088 1480.03,953.029 1482.08,954.926 1484.12,958.828 1486.16,964.726 1488.21,972.551 1490.25,982.175 1492.29,993.418 
  1494.34,1006.06 1496.38,1019.86 1498.43,1034.55 1500.47,1049.88 1502.51,1065.6 1504.56,1081.46 1506.6,1097.29 1508.65,1112.89 1510.69,1128.12 1512.73,1142.88 
  1514.78,1157.07 1516.82,1170.63 1518.86,1183.54 1520.91,1195.76 1522.95,1207.29 1525,1218.14 1527.04,1228.32 1529.08,1237.86 1531.13,1246.78 1533.17,1255.11 
  1535.22,1262.88 1537.26,1270.13 1539.3,1276.89 1541.35,1283.19 1543.39,1289.05 1545.43,1294.52 1547.48,1299.62 1549.52,1304.37 1551.57,1308.8 1553.61,1312.93 
  1555.65,1316.79 1557.7,1320.39 1559.74,1323.76 1561.79,1326.91 1563.83,1329.86 1565.87,1332.62 1567.92,1335.2 1569.96,1337.62 1572,1339.9 1574.05,1342.03 
  1576.09,1344.04 1578.14,1345.93 1580.18,1347.7 1582.22,1349.37 1584.27,1350.95 1586.31,1352.43 1588.36,1353.83 1590.4,1355.16 1592.44,1356.4 1594.49,1357.59 
  1596.53,1358.7 1598.57,1359.76 1600.62,1360.76 1602.66,1361.71 1604.71,1362.62 1606.75,1363.47 1608.79,1364.28 1610.84,1365.05 1612.88,1365.79 1614.93,1366.49 
  1616.97,1367.15 1619.01,1367.78 1621.06,1368.38 1623.1,1368.96 1625.15,1369.51 1627.19,1370.03 1629.23,1370.53 1631.28,1371 1633.32,1371.46 1635.36,1371.89 
  1637.41,1372.31 1639.45,1372.71 1641.5,1373.09 1643.54,1373.46 1645.58,1373.81 1647.63,1374.14 1649.67,1374.46 1651.72,1374.77 1653.76,1375.07 1655.8,1375.35 
  1657.85,1375.63 1659.89,1375.89 1661.93,1376.14 1663.98,1376.38 1666.02,1376.62 1668.07,1376.84 1670.11,1377.06 1672.15,1377.26 1674.2,1377.46 1676.24,1377.66 
  1678.29,1377.84 1680.33,1378.02 1682.37,1378.2 1684.42,1378.36 1686.46,1378.52 1688.5,1378.68 1690.55,1378.83 1692.59,1378.97 1694.64,1379.11 1696.68,1379.25 
  1698.72,1379.38 1700.77,1379.51 1702.81,1379.63 1704.86,1379.75 1706.9,1379.86 1708.94,1379.97 1710.99,1380.08 1713.03,1380.18 1715.07,1380.28 1717.12,1380.38 
  1719.16,1380.48 1721.21,1380.57 1723.25,1380.66 1725.29,1380.74 1727.34,1380.83 1729.38,1380.91 1731.43,1380.99 1733.47,1381.06 1735.51,1381.14 1737.56,1381.21 
  1739.6,1381.28 1741.64,1381.34 1743.69,1381.41 1745.73,1381.47 1747.78,1381.54 1749.82,1381.6 1751.86,1381.66 1753.91,1381.71 1755.95,1381.77 1758,1381.82 
  1760.04,1381.88 1762.08,1381.93 1764.13,1381.98 1766.17,1382.02 1768.21,1382.07 1770.26,1382.12 1772.3,1382.16 1774.35,1382.21 1776.39,1382.25 1778.43,1382.29 
  1780.48,1382.33 1782.52,1382.37 1784.57,1382.41 1786.61,1382.45 1788.65,1382.48 1790.7,1382.52 1792.74,1382.55 1794.78,1382.59 1796.83,1382.62 1798.87,1382.65 
  1800.92,1382.68 1802.96,1382.71 1805,1382.74 1807.05,1382.77 1809.09,1382.8 1811.14,1382.83 1813.18,1382.86 1815.22,1382.88 1817.27,1382.91 1819.31,1382.93 
  1821.35,1382.96 1823.4,1382.98 1825.44,1383.01 1827.49,1383.03 1829.53,1383.05 1831.57,1383.07 1833.62,1383.09 1835.66,1383.12 1837.71,1383.14 1839.75,1383.16 
  1841.79,1383.18 1843.84,1383.2 1845.88,1383.21 1847.92,1383.23 1849.97,1383.25 1852.01,1383.27 1854.06,1383.29 1856.1,1383.3 1858.14,1383.32 1860.19,1383.34 
  1862.23,1383.35 1864.28,1383.37 1866.32,1383.38 1868.36,1383.4 1870.41,1383.41 1872.45,1383.43 1874.49,1383.44 1876.54,1383.46 1878.58,1383.47 1880.63,1383.48 
  1882.67,1383.5 1884.71,1383.51 1886.76,1383.52 1888.8,1383.53 1890.85,1383.55 1892.89,1383.56 1894.93,1383.57 1896.98,1383.58 1899.02,1383.59 1901.06,1383.6 
  1903.11,1383.61 1905.15,1383.62 1907.2,1383.63 1909.24,1383.64 1911.28,1383.65 1913.33,1383.66 1915.37,1383.67 1917.42,1383.68 1919.46,1383.69 1921.5,1383.7 
  1923.55,1383.71 1925.59,1383.72 1927.63,1383.73 1929.68,1383.74 1931.72,1383.74 1933.77,1383.75 1935.81,1383.76 1937.85,1383.77 1939.9,1383.78 1941.94,1383.78 
  1943.99,1383.79 1946.03,1383.8 1948.07,1383.8 1950.12,1383.81 1952.16,1383.82 1954.2,1383.83 1956.25,1383.83 1958.29,1383.84 1960.34,1383.85 1962.38,1383.85 
  1964.42,1383.86 1966.47,1383.86 1968.51,1383.87 1970.56,1383.88 1972.6,1383.88 1974.64,1383.89 1976.69,1383.89 1978.73,1383.9 1980.78,1383.9 1982.82,1383.91 
  1984.86,1383.91 1986.91,1383.92 1988.95,1383.93 1990.99,1383.93 1993.04,1383.94 1995.08,1383.94 1997.13,1383.95 1999.17,1383.95 2001.21,1383.95 2003.26,1383.96 
  2005.3,1383.96 2007.35,1383.97 2009.39,1383.97 2011.43,1383.98 2013.48,1383.98 2015.52,1383.99 2017.56,1383.99 2019.61,1383.99 2021.65,1384 2023.7,1384 
  2025.74,1384 2027.78,1384.01 2029.83,1384.01 2031.87,1384.02 2033.92,1384.02 2035.96,1384.02 2038,1384.03 2040.05,1384.03 2042.09,1384.03 2044.13,1384.04 
  2046.18,1384.04 2048.22,1384.04 2050.27,1384.05 2052.31,1384.05 2054.35,1384.05 2056.4,1384.06 2058.44,1384.06 2060.49,1384.06 2062.53,1384.07 2064.57,1384.07 
  2066.62,1384.07 2068.66,1384.07 2070.7,1384.08 2072.75,1384.08 2074.79,1384.08 2076.84,1384.09 2078.88,1384.09 2080.92,1384.09 2082.97,1384.09 2085.01,1384.1 
  2087.06,1384.1 2089.1,1384.1 2091.14,1384.1 2093.19,1384.11 2095.23,1384.11 2097.27,1384.11 2099.32,1384.11 2101.36,1384.11 2103.41,1384.12 2105.45,1384.12 
  2107.49,1384.12 2109.54,1384.12 2111.58,1384.13 2113.63,1384.13 2115.67,1384.13 2117.71,1384.13 2119.76,1384.13 2121.8,1384.14 2123.84,1384.14 2125.89,1384.14 
  2127.93,1384.14 2129.98,1384.14 2132.02,1384.15 2134.06,1384.15 2136.11,1384.15 2138.15,1384.15 2140.2,1384.15 2142.24,1384.15 2144.28,1384.16 2146.33,1384.16 
  2148.37,1384.16 2150.41,1384.16 2152.46,1384.16 2154.5,1384.16 2156.55,1384.17 2158.59,1384.17 2160.63,1384.17 2162.68,1384.17 2164.72,1384.17 2166.77,1384.17 
  2168.81,1384.17 2170.85,1384.18 2172.9,1384.18 2174.94,1384.18 2176.98,1384.18 2179.03,1384.18 2181.07,1384.18 2183.12,1384.18 2185.16,1384.19 2187.2,1384.19 
  2189.25,1384.19 2191.29,1384.19 2193.34,1384.19 2195.38,1384.19 2197.42,1384.19 2199.47,1384.2 2201.51,1384.2 2203.55,1384.2 2205.6,1384.2 2207.64,1384.2 
  2209.69,1384.2 2211.73,1384.2 2213.77,1384.2 2215.82,1384.2 2217.86,1384.21 2219.91,1384.21 2221.95,1384.21 2223.99,1384.21 2226.04,1384.21 2228.08,1384.21 
  2230.12,1384.21 2232.17,1384.21 2234.21,1384.21 2236.26,1384.22 2238.3,1384.22 2240.34,1384.22 2242.39,1384.22 2244.43,1384.22 2246.48,1384.22 2248.52,1384.22 
  2250.56,1384.22 2252.61,1384.22 2254.65,1384.22 2256.69,1384.22 2258.74,1384.23 2260.78,1384.23 2262.83,1384.23 2264.87,1384.23 2266.91,1384.23 2268.96,1384.23 
  2271,1384.23 2273.05,1384.23 2275.09,1384.23 2277.13,1384.23 2279.18,1384.23 2281.22,1384.23 2283.26,1384.24 2285.31,1384.24 2287.35,1384.24 2289.4,1384.24 
  2291.44,1384.24 
  "/>
<path clip-path="url(#clip270)" d="
M1551.05 196.789 L2280.54 196.789 L2280.54 93.1086 L1551.05 93.1086  Z
  " fill="#ffffff" fill-rule="evenodd" fill-opacity="1"/>
<polyline clip-path="url(#clip270)" style="stroke:#000000; stroke-linecap:butt; stroke-linejoin:round; stroke-width:4; stroke-opacity:1; fill:none" points="
  1551.05,196.789 2280.54,196.789 2280.54,93.1086 1551.05,93.1086 1551.05,196.789 
  "/>
<polyline clip-path="url(#clip270)" style="stroke:#009af9; stroke-linecap:butt; stroke-linejoin:round; stroke-width:4; stroke-opacity:1; fill:none" points="
  1575.12,144.949 1719.55,144.949 
  "/>
<path clip-path="url(#clip270)" d="M1760.01 146.025 Q1761.52 146.534 1762.93 148.201 Q1764.37 149.868 1765.8 152.784 L1770.55 162.229 L1765.52 162.229 L1761.1 153.363 Q1759.39 149.891 1757.77 148.756 Q1756.17 147.622 1753.39 147.622 L1748.3 147.622 L1748.3 162.229 L1743.63 162.229 L1743.63 127.669 L1754.18 127.669 Q1760.11 127.669 1763.02 130.145 Q1765.94 132.622 1765.94 137.622 Q1765.94 140.886 1764.41 143.039 Q1762.91 145.192 1760.01 146.025 M1748.3 131.511 L1748.3 143.78 L1754.18 143.78 Q1757.56 143.78 1759.27 142.229 Q1761.01 140.655 1761.01 137.622 Q1761.01 134.59 1759.27 133.062 Q1757.56 131.511 1754.18 131.511 L1748.3 131.511 Z" fill="#000000" fill-rule="evenodd" fill-opacity="1" /><path clip-path="url(#clip270)" d="M1796.43 148.201 L1796.43 150.284 L1776.84 150.284 Q1777.12 154.682 1779.48 156.997 Q1781.87 159.289 1786.1 159.289 Q1788.56 159.289 1790.85 158.687 Q1793.16 158.085 1795.43 156.881 L1795.43 160.909 Q1793.14 161.881 1790.73 162.391 Q1788.32 162.9 1785.85 162.9 Q1779.64 162.9 1776.01 159.289 Q1772.4 155.678 1772.4 149.52 Q1772.4 143.155 1775.82 139.428 Q1779.27 135.678 1785.11 135.678 Q1790.34 135.678 1793.37 139.057 Q1796.43 142.414 1796.43 148.201 M1792.17 146.951 Q1792.12 143.456 1790.2 141.372 Q1788.3 139.289 1785.15 139.289 Q1781.59 139.289 1779.44 141.303 Q1777.31 143.317 1776.98 146.974 L1792.17 146.951 Z" fill="#000000" fill-rule="evenodd" fill-opacity="1" /><path clip-path="url(#clip270)" d="M1819.94 137.067 L1819.94 141.094 Q1818.14 140.169 1816.19 139.706 Q1814.25 139.243 1812.17 139.243 Q1809 139.243 1807.4 140.215 Q1805.82 141.187 1805.82 143.131 Q1805.82 144.613 1806.96 145.469 Q1808.09 146.303 1811.52 147.067 L1812.98 147.391 Q1817.51 148.363 1819.41 150.145 Q1821.33 151.905 1821.33 155.076 Q1821.33 158.687 1818.46 160.793 Q1815.62 162.9 1810.62 162.9 Q1808.53 162.9 1806.26 162.483 Q1804.02 162.09 1801.52 161.28 L1801.52 156.881 Q1803.88 158.108 1806.17 158.733 Q1808.46 159.335 1810.71 159.335 Q1813.72 159.335 1815.34 158.317 Q1816.96 157.275 1816.96 155.4 Q1816.96 153.664 1815.78 152.738 Q1814.62 151.812 1810.66 150.956 L1809.18 150.608 Q1805.22 149.775 1803.46 148.062 Q1801.7 146.326 1801.7 143.317 Q1801.7 139.659 1804.3 137.669 Q1806.89 135.678 1811.66 135.678 Q1814.02 135.678 1816.1 136.025 Q1818.19 136.372 1819.94 137.067 Z" fill="#000000" fill-rule="evenodd" fill-opacity="1" /><path clip-path="url(#clip270)" d="M1838.16 139.289 Q1834.74 139.289 1832.75 141.974 Q1830.75 144.636 1830.75 149.289 Q1830.75 153.942 1832.72 156.627 Q1834.71 159.289 1838.16 159.289 Q1841.56 159.289 1843.56 156.604 Q1845.55 153.918 1845.55 149.289 Q1845.55 144.682 1843.56 141.997 Q1841.56 139.289 1838.16 139.289 M1838.16 135.678 Q1843.72 135.678 1846.89 139.289 Q1850.06 142.9 1850.06 149.289 Q1850.06 155.655 1846.89 159.289 Q1843.72 162.9 1838.16 162.9 Q1832.58 162.9 1829.41 159.289 Q1826.26 155.655 1826.26 149.289 Q1826.26 142.9 1829.41 139.289 Q1832.58 135.678 1838.16 135.678 Z" fill="#000000" fill-rule="evenodd" fill-opacity="1" /><path clip-path="url(#clip270)" d="M1878.67 146.581 L1878.67 162.229 L1874.41 162.229 L1874.41 146.719 Q1874.41 143.039 1872.98 141.21 Q1871.54 139.382 1868.67 139.382 Q1865.22 139.382 1863.23 141.581 Q1861.24 143.78 1861.24 147.576 L1861.24 162.229 L1856.96 162.229 L1856.96 136.303 L1861.24 136.303 L1861.24 140.331 Q1862.77 137.993 1864.83 136.835 Q1866.91 135.678 1869.62 135.678 Q1874.09 135.678 1876.38 138.456 Q1878.67 141.21 1878.67 146.581 Z" fill="#000000" fill-rule="evenodd" fill-opacity="1" /><path clip-path="url(#clip270)" d="M1898.95 149.196 Q1893.79 149.196 1891.8 150.377 Q1889.81 151.557 1889.81 154.405 Q1889.81 156.673 1891.29 158.016 Q1892.79 159.335 1895.36 159.335 Q1898.9 159.335 1901.03 156.835 Q1903.18 154.312 1903.18 150.145 L1903.18 149.196 L1898.95 149.196 M1907.44 147.437 L1907.44 162.229 L1903.18 162.229 L1903.18 158.293 Q1901.73 160.655 1899.55 161.789 Q1897.37 162.9 1894.23 162.9 Q1890.24 162.9 1887.88 160.678 Q1885.55 158.432 1885.55 154.682 Q1885.55 150.307 1888.46 148.085 Q1891.4 145.863 1897.21 145.863 L1903.18 145.863 L1903.18 145.446 Q1903.18 142.507 1901.24 140.909 Q1899.32 139.289 1895.82 139.289 Q1893.6 139.289 1891.49 139.821 Q1889.39 140.354 1887.44 141.419 L1887.44 137.483 Q1889.78 136.581 1891.98 136.141 Q1894.18 135.678 1896.26 135.678 Q1901.89 135.678 1904.67 138.594 Q1907.44 141.511 1907.44 147.437 Z" fill="#000000" fill-rule="evenodd" fill-opacity="1" /><path clip-path="url(#clip270)" d="M1937.77 146.581 L1937.77 162.229 L1933.51 162.229 L1933.51 146.719 Q1933.51 143.039 1932.07 141.21 Q1930.64 139.382 1927.77 139.382 Q1924.32 139.382 1922.33 141.581 Q1920.34 143.78 1920.34 147.576 L1920.34 162.229 L1916.05 162.229 L1916.05 136.303 L1920.34 136.303 L1920.34 140.331 Q1921.87 137.993 1923.93 136.835 Q1926.01 135.678 1928.72 135.678 Q1933.18 135.678 1935.48 138.456 Q1937.77 141.21 1937.77 146.581 Z" fill="#000000" fill-rule="evenodd" fill-opacity="1" /><path clip-path="url(#clip270)" d="M1964.92 137.298 L1964.92 141.28 Q1963.11 140.284 1961.29 139.798 Q1959.48 139.289 1957.63 139.289 Q1953.49 139.289 1951.19 141.928 Q1948.9 144.544 1948.9 149.289 Q1948.9 154.034 1951.19 156.673 Q1953.49 159.289 1957.63 159.289 Q1959.48 159.289 1961.29 158.803 Q1963.11 158.293 1964.92 157.298 L1964.92 161.233 Q1963.14 162.067 1961.22 162.483 Q1959.32 162.9 1957.17 162.9 Q1951.31 162.9 1947.86 159.219 Q1944.41 155.539 1944.41 149.289 Q1944.41 142.946 1947.88 139.312 Q1951.38 135.678 1957.44 135.678 Q1959.41 135.678 1961.29 136.095 Q1963.16 136.488 1964.92 137.298 Z" fill="#000000" fill-rule="evenodd" fill-opacity="1" /><path clip-path="url(#clip270)" d="M1994.5 148.201 L1994.5 150.284 L1974.92 150.284 Q1975.2 154.682 1977.56 156.997 Q1979.94 159.289 1984.18 159.289 Q1986.63 159.289 1988.92 158.687 Q1991.24 158.085 1993.51 156.881 L1993.51 160.909 Q1991.22 161.881 1988.81 162.391 Q1986.4 162.9 1983.92 162.9 Q1977.72 162.9 1974.09 159.289 Q1970.48 155.678 1970.48 149.52 Q1970.48 143.155 1973.9 139.428 Q1977.35 135.678 1983.18 135.678 Q1988.42 135.678 1991.45 139.057 Q1994.5 142.414 1994.5 148.201 M1990.24 146.951 Q1990.2 143.456 1988.28 141.372 Q1986.38 139.289 1983.23 139.289 Q1979.67 139.289 1977.51 141.303 Q1975.38 143.317 1975.06 146.974 L1990.24 146.951 Z" fill="#000000" fill-rule="evenodd" fill-opacity="1" /><path clip-path="url(#clip270)" d="M2033.09 137.067 L2033.09 141.094 Q2031.29 140.169 2029.34 139.706 Q2027.4 139.243 2025.31 139.243 Q2022.14 139.243 2020.55 140.215 Q2018.97 141.187 2018.97 143.131 Q2018.97 144.613 2020.11 145.469 Q2021.24 146.303 2024.67 147.067 L2026.12 147.391 Q2030.66 148.363 2032.56 150.145 Q2034.48 151.905 2034.48 155.076 Q2034.48 158.687 2031.61 160.793 Q2028.76 162.9 2023.76 162.9 Q2021.68 162.9 2019.41 162.483 Q2017.17 162.09 2014.67 161.28 L2014.67 156.881 Q2017.03 158.108 2019.32 158.733 Q2021.61 159.335 2023.86 159.335 Q2026.86 159.335 2028.48 158.317 Q2030.11 157.275 2030.11 155.4 Q2030.11 153.664 2028.92 152.738 Q2027.77 151.812 2023.81 150.956 L2022.33 150.608 Q2018.37 149.775 2016.61 148.062 Q2014.85 146.326 2014.85 143.317 Q2014.85 139.659 2017.44 137.669 Q2020.04 135.678 2024.8 135.678 Q2027.17 135.678 2029.25 136.025 Q2031.33 136.372 2033.09 137.067 Z" fill="#000000" fill-rule="evenodd" fill-opacity="1" /><path clip-path="url(#clip270)" d="M2045.38 158.34 L2045.38 172.09 L2041.1 172.09 L2041.1 136.303 L2045.38 136.303 L2045.38 140.238 Q2046.73 137.923 2048.76 136.812 Q2050.82 135.678 2053.67 135.678 Q2058.39 135.678 2061.33 139.428 Q2064.29 143.178 2064.29 149.289 Q2064.29 155.4 2061.33 159.15 Q2058.39 162.9 2053.67 162.9 Q2050.82 162.9 2048.76 161.789 Q2046.73 160.655 2045.38 158.34 M2059.87 149.289 Q2059.87 144.59 2057.93 141.928 Q2056.01 139.243 2052.63 139.243 Q2049.25 139.243 2047.3 141.928 Q2045.38 144.59 2045.38 149.289 Q2045.38 153.988 2047.3 156.673 Q2049.25 159.335 2052.63 159.335 Q2056.01 159.335 2057.93 156.673 Q2059.87 153.988 2059.87 149.289 Z" fill="#000000" fill-rule="evenodd" fill-opacity="1" /><path clip-path="url(#clip270)" d="M2093.53 148.201 L2093.53 150.284 L2073.95 150.284 Q2074.23 154.682 2076.59 156.997 Q2078.97 159.289 2083.21 159.289 Q2085.66 159.289 2087.95 158.687 Q2090.27 158.085 2092.54 156.881 L2092.54 160.909 Q2090.24 161.881 2087.84 162.391 Q2085.43 162.9 2082.95 162.9 Q2076.75 162.9 2073.11 159.289 Q2069.5 155.678 2069.5 149.52 Q2069.5 143.155 2072.93 139.428 Q2076.38 135.678 2082.21 135.678 Q2087.44 135.678 2090.48 139.057 Q2093.53 142.414 2093.53 148.201 M2089.27 146.951 Q2089.23 143.456 2087.3 141.372 Q2085.41 139.289 2082.26 139.289 Q2078.69 139.289 2076.54 141.303 Q2074.41 143.317 2074.09 146.974 L2089.27 146.951 Z" fill="#000000" fill-rule="evenodd" fill-opacity="1" /><path clip-path="url(#clip270)" d="M2119.18 137.298 L2119.18 141.28 Q2117.37 140.284 2115.54 139.798 Q2113.74 139.289 2111.89 139.289 Q2107.74 139.289 2105.45 141.928 Q2103.16 144.544 2103.16 149.289 Q2103.16 154.034 2105.45 156.673 Q2107.74 159.289 2111.89 159.289 Q2113.74 159.289 2115.54 158.803 Q2117.37 158.293 2119.18 157.298 L2119.18 161.233 Q2117.4 162.067 2115.48 162.483 Q2113.58 162.9 2111.42 162.9 Q2105.57 162.9 2102.12 159.219 Q2098.67 155.539 2098.67 149.289 Q2098.67 142.946 2102.14 139.312 Q2105.64 135.678 2111.7 135.678 Q2113.67 135.678 2115.54 136.095 Q2117.42 136.488 2119.18 137.298 Z" fill="#000000" fill-rule="evenodd" fill-opacity="1" /><path clip-path="url(#clip270)" d="M2130.8 128.942 L2130.8 136.303 L2139.57 136.303 L2139.57 139.613 L2130.8 139.613 L2130.8 153.687 Q2130.8 156.858 2131.66 157.761 Q2132.54 158.664 2135.2 158.664 L2139.57 158.664 L2139.57 162.229 L2135.2 162.229 Q2130.27 162.229 2128.39 160.4 Q2126.52 158.548 2126.52 153.687 L2126.52 139.613 L2123.39 139.613 L2123.39 136.303 L2126.52 136.303 L2126.52 128.942 L2130.8 128.942 Z" fill="#000000" fill-rule="evenodd" fill-opacity="1" /><path clip-path="url(#clip270)" d="M2160.2 140.284 Q2159.48 139.868 2158.62 139.682 Q2157.79 139.474 2156.77 139.474 Q2153.16 139.474 2151.22 141.835 Q2149.29 144.173 2149.29 148.571 L2149.29 162.229 L2145.01 162.229 L2145.01 136.303 L2149.29 136.303 L2149.29 140.331 Q2150.64 137.969 2152.79 136.835 Q2154.94 135.678 2158.02 135.678 Q2158.46 135.678 2158.99 135.747 Q2159.53 135.794 2160.17 135.909 L2160.2 140.284 Z" fill="#000000" fill-rule="evenodd" fill-opacity="1" /><path clip-path="url(#clip270)" d="M2164.22 151.997 L2164.22 136.303 L2168.48 136.303 L2168.48 151.835 Q2168.48 155.516 2169.92 157.368 Q2171.35 159.196 2174.22 159.196 Q2177.67 159.196 2179.66 156.997 Q2181.68 154.798 2181.68 151.002 L2181.68 136.303 L2185.94 136.303 L2185.94 162.229 L2181.68 162.229 L2181.68 158.247 Q2180.13 160.608 2178.07 161.766 Q2176.03 162.9 2173.32 162.9 Q2168.85 162.9 2166.54 160.122 Q2164.22 157.344 2164.22 151.997 M2174.94 135.678 L2174.94 135.678 Z" fill="#000000" fill-rule="evenodd" fill-opacity="1" /><path clip-path="url(#clip270)" d="M2214.9 141.28 Q2216.49 138.409 2218.72 137.044 Q2220.94 135.678 2223.95 135.678 Q2228 135.678 2230.2 138.525 Q2232.4 141.349 2232.4 146.581 L2232.4 162.229 L2228.11 162.229 L2228.11 146.719 Q2228.11 142.993 2226.79 141.187 Q2225.47 139.382 2222.77 139.382 Q2219.46 139.382 2217.53 141.581 Q2215.61 143.78 2215.61 147.576 L2215.61 162.229 L2211.33 162.229 L2211.33 146.719 Q2211.33 142.969 2210.01 141.187 Q2208.69 139.382 2205.94 139.382 Q2202.67 139.382 2200.75 141.604 Q2198.83 143.803 2198.83 147.576 L2198.83 162.229 L2194.55 162.229 L2194.55 136.303 L2198.83 136.303 L2198.83 140.331 Q2200.29 137.946 2202.33 136.812 Q2204.36 135.678 2207.16 135.678 Q2209.99 135.678 2211.96 137.113 Q2213.95 138.548 2214.9 141.28 Z" fill="#000000" fill-rule="evenodd" fill-opacity="1" /></svg>
