<?xml version="1.0" encoding="utf-8"?>
<svg xmlns="http://www.w3.org/2000/svg" xmlns:xlink="http://www.w3.org/1999/xlink" width="600" height="300" viewBox="0 0 2400 1200">
<defs>
  <clipPath id="clip360">
    <rect x="0" y="0" width="2400" height="1200"/>
  </clipPath>
</defs>
<path clip-path="url(#clip360)" d="
M0 1200 L2400 1200 L2400 0 L0 0  Z
  " fill="#ffffff" fill-rule="evenodd" fill-opacity="1"/>
<defs>
  <clipPath id="clip361">
    <rect x="480" y="0" width="1681" height="1200"/>
  </clipPath>
</defs>
<path clip-path="url(#clip360)" d="
M237.662 1047.7 L2352.76 1047.7 L2352.76 47.2441 L237.662 47.2441  Z
  " fill="#ffffff" fill-rule="evenodd" fill-opacity="1"/>
<defs>
  <clipPath id="clip362">
    <rect x="237" y="47" width="2116" height="1001"/>
  </clipPath>
</defs>
<polyline clip-path="url(#clip362)" style="stroke:#000000; stroke-linecap:butt; stroke-linejoin:round; stroke-width:2; stroke-opacity:0.1; fill:none" points="
  297.523,1047.7 297.523,47.2441 
  "/>
<polyline clip-path="url(#clip362)" style="stroke:#000000; stroke-linecap:butt; stroke-linejoin:round; stroke-width:2; stroke-opacity:0.1; fill:none" points="
  796.366,1047.7 796.366,47.2441 
  "/>
<polyline clip-path="url(#clip362)" style="stroke:#000000; stroke-linecap:butt; stroke-linejoin:round; stroke-width:2; stroke-opacity:0.1; fill:none" points="
  1295.21,1047.7 1295.21,47.2441 
  "/>
<polyline clip-path="url(#clip362)" style="stroke:#000000; stroke-linecap:butt; stroke-linejoin:round; stroke-width:2; stroke-opacity:0.1; fill:none" points="
  1794.05,1047.7 1794.05,47.2441 
  "/>
<polyline clip-path="url(#clip362)" style="stroke:#000000; stroke-linecap:butt; stroke-linejoin:round; stroke-width:2; stroke-opacity:0.1; fill:none" points="
  2292.89,1047.7 2292.89,47.2441 
  "/>
<polyline clip-path="url(#clip360)" style="stroke:#000000; stroke-linecap:butt; stroke-linejoin:round; stroke-width:4; stroke-opacity:1; fill:none" points="
  237.662,1047.7 2352.76,1047.7 
  "/>
<polyline clip-path="url(#clip360)" style="stroke:#000000; stroke-linecap:butt; stroke-linejoin:round; stroke-width:4; stroke-opacity:1; fill:none" points="
  297.523,1047.7 297.523,1028.8 
  "/>
<polyline clip-path="url(#clip360)" style="stroke:#000000; stroke-linecap:butt; stroke-linejoin:round; stroke-width:4; stroke-opacity:1; fill:none" points="
  796.366,1047.7 796.366,1028.8 
  "/>
<polyline clip-path="url(#clip360)" style="stroke:#000000; stroke-linecap:butt; stroke-linejoin:round; stroke-width:4; stroke-opacity:1; fill:none" points="
  1295.21,1047.7 1295.21,1028.8 
  "/>
<polyline clip-path="url(#clip360)" style="stroke:#000000; stroke-linecap:butt; stroke-linejoin:round; stroke-width:4; stroke-opacity:1; fill:none" points="
  1794.05,1047.7 1794.05,1028.8 
  "/>
<polyline clip-path="url(#clip360)" style="stroke:#000000; stroke-linecap:butt; stroke-linejoin:round; stroke-width:4; stroke-opacity:1; fill:none" points="
  2292.89,1047.7 2292.89,1028.8 
  "/>
<path clip-path="url(#clip360)" d="M221.424 1093.27 L251.1 1093.27 L251.1 1097.21 L221.424 1097.21 L221.424 1093.27 Z" fill="#000000" fill-rule="evenodd" fill-opacity="1" /><path clip-path="url(#clip360)" d="M265.22 1106.16 L281.539 1106.16 L281.539 1110.1 L259.595 1110.1 L259.595 1106.16 Q262.257 1103.41 266.84 1098.78 Q271.447 1094.13 272.627 1092.79 Q274.873 1090.26 275.752 1088.53 Q276.655 1086.77 276.655 1085.08 Q276.655 1082.32 274.711 1080.59 Q272.79 1078.85 269.688 1078.85 Q267.489 1078.85 265.035 1079.61 Q262.604 1080.38 259.827 1081.93 L259.827 1077.21 Q262.651 1076.07 265.104 1075.49 Q267.558 1074.91 269.595 1074.91 Q274.965 1074.91 278.16 1077.6 Q281.354 1080.29 281.354 1084.78 Q281.354 1086.91 280.544 1088.83 Q279.757 1090.72 277.651 1093.32 Q277.072 1093.99 273.97 1097.21 Q270.868 1100.4 265.22 1106.16 Z" fill="#000000" fill-rule="evenodd" fill-opacity="1" /><path clip-path="url(#clip360)" d="M301.354 1078.62 Q297.743 1078.62 295.914 1082.18 Q294.109 1085.72 294.109 1092.85 Q294.109 1099.96 295.914 1103.53 Q297.743 1107.07 301.354 1107.07 Q304.988 1107.07 306.794 1103.53 Q308.623 1099.96 308.623 1092.85 Q308.623 1085.72 306.794 1082.18 Q304.988 1078.62 301.354 1078.62 M301.354 1074.91 Q307.164 1074.91 310.22 1079.52 Q313.299 1084.1 313.299 1092.85 Q313.299 1101.58 310.22 1106.19 Q307.164 1110.77 301.354 1110.77 Q295.544 1110.77 292.465 1106.19 Q289.41 1101.58 289.41 1092.85 Q289.41 1084.1 292.465 1079.52 Q295.544 1074.91 301.354 1074.91 Z" fill="#000000" fill-rule="evenodd" fill-opacity="1" /><path clip-path="url(#clip360)" d="M331.516 1078.62 Q327.905 1078.62 326.076 1082.18 Q324.271 1085.72 324.271 1092.85 Q324.271 1099.96 326.076 1103.53 Q327.905 1107.07 331.516 1107.07 Q335.15 1107.07 336.956 1103.53 Q338.785 1099.96 338.785 1092.85 Q338.785 1085.72 336.956 1082.18 Q335.15 1078.62 331.516 1078.62 M331.516 1074.91 Q337.326 1074.91 340.382 1079.52 Q343.46 1084.1 343.46 1092.85 Q343.46 1101.58 340.382 1106.19 Q337.326 1110.77 331.516 1110.77 Q325.706 1110.77 322.627 1106.19 Q319.572 1101.58 319.572 1092.85 Q319.572 1084.1 322.627 1079.52 Q325.706 1074.91 331.516 1074.91 Z" fill="#000000" fill-rule="evenodd" fill-opacity="1" /><path clip-path="url(#clip360)" d="M361.678 1078.62 Q358.067 1078.62 356.238 1082.18 Q354.433 1085.72 354.433 1092.85 Q354.433 1099.96 356.238 1103.53 Q358.067 1107.07 361.678 1107.07 Q365.312 1107.07 367.118 1103.53 Q368.946 1099.96 368.946 1092.85 Q368.946 1085.72 367.118 1082.18 Q365.312 1078.62 361.678 1078.62 M361.678 1074.91 Q367.488 1074.91 370.544 1079.52 Q373.622 1084.1 373.622 1092.85 Q373.622 1101.58 370.544 1106.19 Q367.488 1110.77 361.678 1110.77 Q355.868 1110.77 352.789 1106.19 Q349.734 1101.58 349.734 1092.85 Q349.734 1084.1 352.789 1079.52 Q355.868 1074.91 361.678 1074.91 Z" fill="#000000" fill-rule="evenodd" fill-opacity="1" /><path clip-path="url(#clip360)" d="M720.267 1093.27 L749.943 1093.27 L749.943 1097.21 L720.267 1097.21 L720.267 1093.27 Z" fill="#000000" fill-rule="evenodd" fill-opacity="1" /><path clip-path="url(#clip360)" d="M760.845 1106.16 L768.484 1106.16 L768.484 1079.8 L760.174 1081.47 L760.174 1077.21 L768.438 1075.54 L773.114 1075.54 L773.114 1106.16 L780.753 1106.16 L780.753 1110.1 L760.845 1110.1 L760.845 1106.16 Z" fill="#000000" fill-rule="evenodd" fill-opacity="1" /><path clip-path="url(#clip360)" d="M800.197 1078.62 Q796.586 1078.62 794.757 1082.18 Q792.952 1085.72 792.952 1092.85 Q792.952 1099.96 794.757 1103.53 Q796.586 1107.07 800.197 1107.07 Q803.831 1107.07 805.637 1103.53 Q807.466 1099.96 807.466 1092.85 Q807.466 1085.72 805.637 1082.18 Q803.831 1078.62 800.197 1078.62 M800.197 1074.91 Q806.007 1074.91 809.063 1079.52 Q812.141 1084.1 812.141 1092.85 Q812.141 1101.58 809.063 1106.19 Q806.007 1110.77 800.197 1110.77 Q794.387 1110.77 791.308 1106.19 Q788.253 1101.58 788.253 1092.85 Q788.253 1084.1 791.308 1079.52 Q794.387 1074.91 800.197 1074.91 Z" fill="#000000" fill-rule="evenodd" fill-opacity="1" /><path clip-path="url(#clip360)" d="M830.359 1078.62 Q826.748 1078.62 824.919 1082.18 Q823.114 1085.72 823.114 1092.85 Q823.114 1099.96 824.919 1103.53 Q826.748 1107.07 830.359 1107.07 Q833.993 1107.07 835.799 1103.53 Q837.627 1099.96 837.627 1092.85 Q837.627 1085.72 835.799 1082.18 Q833.993 1078.62 830.359 1078.62 M830.359 1074.91 Q836.169 1074.91 839.225 1079.52 Q842.303 1084.1 842.303 1092.85 Q842.303 1101.58 839.225 1106.19 Q836.169 1110.77 830.359 1110.77 Q824.549 1110.77 821.47 1106.19 Q818.415 1101.58 818.415 1092.85 Q818.415 1084.1 821.47 1079.52 Q824.549 1074.91 830.359 1074.91 Z" fill="#000000" fill-rule="evenodd" fill-opacity="1" /><path clip-path="url(#clip360)" d="M860.521 1078.62 Q856.91 1078.62 855.081 1082.18 Q853.275 1085.72 853.275 1092.85 Q853.275 1099.96 855.081 1103.53 Q856.91 1107.07 860.521 1107.07 Q864.155 1107.07 865.961 1103.53 Q867.789 1099.96 867.789 1092.85 Q867.789 1085.72 865.961 1082.18 Q864.155 1078.62 860.521 1078.62 M860.521 1074.91 Q866.331 1074.91 869.387 1079.52 Q872.465 1084.1 872.465 1092.85 Q872.465 1101.58 869.387 1106.19 Q866.331 1110.77 860.521 1110.77 Q854.711 1110.77 851.632 1106.19 Q848.576 1101.58 848.576 1092.85 Q848.576 1084.1 851.632 1079.52 Q854.711 1074.91 860.521 1074.91 Z" fill="#000000" fill-rule="evenodd" fill-opacity="1" /><path clip-path="url(#clip360)" d="M1295.21 1078.62 Q1291.6 1078.62 1289.77 1082.18 Q1287.96 1085.72 1287.96 1092.85 Q1287.96 1099.96 1289.77 1103.53 Q1291.6 1107.07 1295.21 1107.07 Q1298.84 1107.07 1300.65 1103.53 Q1302.48 1099.96 1302.48 1092.85 Q1302.48 1085.72 1300.65 1082.18 Q1298.84 1078.62 1295.21 1078.62 M1295.21 1074.91 Q1301.02 1074.91 1304.07 1079.52 Q1307.15 1084.1 1307.15 1092.85 Q1307.15 1101.58 1304.07 1106.19 Q1301.02 1110.77 1295.21 1110.77 Q1289.4 1110.77 1286.32 1106.19 Q1283.26 1101.58 1283.26 1092.85 Q1283.26 1084.1 1286.32 1079.52 Q1289.4 1074.91 1295.21 1074.91 Z" fill="#000000" fill-rule="evenodd" fill-opacity="1" /><path clip-path="url(#clip360)" d="M1738.58 1106.16 L1746.22 1106.16 L1746.22 1079.8 L1737.91 1081.47 L1737.91 1077.21 L1746.17 1075.54 L1750.85 1075.54 L1750.85 1106.16 L1758.48 1106.16 L1758.48 1110.1 L1738.58 1110.1 L1738.58 1106.16 Z" fill="#000000" fill-rule="evenodd" fill-opacity="1" /><path clip-path="url(#clip360)" d="M1777.93 1078.62 Q1774.32 1078.62 1772.49 1082.18 Q1770.68 1085.72 1770.68 1092.85 Q1770.68 1099.96 1772.49 1103.53 Q1774.32 1107.07 1777.93 1107.07 Q1781.56 1107.07 1783.37 1103.53 Q1785.2 1099.96 1785.2 1092.85 Q1785.2 1085.72 1783.37 1082.18 Q1781.56 1078.62 1777.93 1078.62 M1777.93 1074.91 Q1783.74 1074.91 1786.79 1079.52 Q1789.87 1084.1 1789.87 1092.85 Q1789.87 1101.58 1786.79 1106.19 Q1783.74 1110.77 1777.93 1110.77 Q1772.12 1110.77 1769.04 1106.19 Q1765.98 1101.58 1765.98 1092.85 Q1765.98 1084.1 1769.04 1079.52 Q1772.12 1074.91 1777.93 1074.91 Z" fill="#000000" fill-rule="evenodd" fill-opacity="1" /><path clip-path="url(#clip360)" d="M1808.09 1078.62 Q1804.48 1078.62 1802.65 1082.18 Q1800.85 1085.72 1800.85 1092.85 Q1800.85 1099.96 1802.65 1103.53 Q1804.48 1107.07 1808.09 1107.07 Q1811.73 1107.07 1813.53 1103.53 Q1815.36 1099.96 1815.36 1092.85 Q1815.36 1085.72 1813.53 1082.18 Q1811.73 1078.62 1808.09 1078.62 M1808.09 1074.91 Q1813.9 1074.91 1816.96 1079.52 Q1820.04 1084.1 1820.04 1092.85 Q1820.04 1101.58 1816.96 1106.19 Q1813.9 1110.77 1808.09 1110.77 Q1802.28 1110.77 1799.2 1106.19 Q1796.15 1101.58 1796.15 1092.85 Q1796.15 1084.1 1799.2 1079.52 Q1802.28 1074.91 1808.09 1074.91 Z" fill="#000000" fill-rule="evenodd" fill-opacity="1" /><path clip-path="url(#clip360)" d="M1838.25 1078.62 Q1834.64 1078.62 1832.81 1082.18 Q1831.01 1085.72 1831.01 1092.85 Q1831.01 1099.96 1832.81 1103.53 Q1834.64 1107.07 1838.25 1107.07 Q1841.89 1107.07 1843.69 1103.53 Q1845.52 1099.96 1845.52 1092.85 Q1845.52 1085.72 1843.69 1082.18 Q1841.89 1078.62 1838.25 1078.62 M1838.25 1074.91 Q1844.06 1074.91 1847.12 1079.52 Q1850.2 1084.1 1850.2 1092.85 Q1850.2 1101.58 1847.12 1106.19 Q1844.06 1110.77 1838.25 1110.77 Q1832.44 1110.77 1829.36 1106.19 Q1826.31 1101.58 1826.31 1092.85 Q1826.31 1084.1 1829.36 1079.52 Q1832.44 1074.91 1838.25 1074.91 Z" fill="#000000" fill-rule="evenodd" fill-opacity="1" /><path clip-path="url(#clip360)" d="M2241.51 1106.16 L2257.83 1106.16 L2257.83 1110.1 L2235.88 1110.1 L2235.88 1106.16 Q2238.54 1103.41 2243.13 1098.78 Q2247.73 1094.13 2248.91 1092.79 Q2251.16 1090.26 2252.04 1088.53 Q2252.94 1086.77 2252.94 1085.08 Q2252.94 1082.32 2251 1080.59 Q2249.08 1078.85 2245.97 1078.85 Q2243.77 1078.85 2241.32 1079.61 Q2238.89 1080.38 2236.11 1081.93 L2236.11 1077.21 Q2238.94 1076.07 2241.39 1075.49 Q2243.84 1074.91 2245.88 1074.91 Q2251.25 1074.91 2254.45 1077.6 Q2257.64 1080.29 2257.64 1084.78 Q2257.64 1086.91 2256.83 1088.83 Q2256.04 1090.72 2253.94 1093.32 Q2253.36 1093.99 2250.26 1097.21 Q2247.15 1100.4 2241.51 1106.16 Z" fill="#000000" fill-rule="evenodd" fill-opacity="1" /><path clip-path="url(#clip360)" d="M2277.64 1078.62 Q2274.03 1078.62 2272.2 1082.18 Q2270.39 1085.72 2270.39 1092.85 Q2270.39 1099.96 2272.2 1103.53 Q2274.03 1107.07 2277.64 1107.07 Q2281.27 1107.07 2283.08 1103.53 Q2284.91 1099.96 2284.91 1092.85 Q2284.91 1085.72 2283.08 1082.18 Q2281.27 1078.62 2277.64 1078.62 M2277.64 1074.91 Q2283.45 1074.91 2286.51 1079.52 Q2289.58 1084.1 2289.58 1092.85 Q2289.58 1101.58 2286.51 1106.19 Q2283.45 1110.77 2277.64 1110.77 Q2271.83 1110.77 2268.75 1106.19 Q2265.7 1101.58 2265.7 1092.85 Q2265.7 1084.1 2268.75 1079.52 Q2271.83 1074.91 2277.64 1074.91 Z" fill="#000000" fill-rule="evenodd" fill-opacity="1" /><path clip-path="url(#clip360)" d="M2307.8 1078.62 Q2304.19 1078.62 2302.36 1082.18 Q2300.56 1085.72 2300.56 1092.85 Q2300.56 1099.96 2302.36 1103.53 Q2304.19 1107.07 2307.8 1107.07 Q2311.44 1107.07 2313.24 1103.53 Q2315.07 1099.96 2315.07 1092.85 Q2315.07 1085.72 2313.24 1082.18 Q2311.44 1078.62 2307.8 1078.62 M2307.8 1074.91 Q2313.61 1074.91 2316.67 1079.52 Q2319.75 1084.1 2319.75 1092.85 Q2319.75 1101.58 2316.67 1106.19 Q2313.61 1110.77 2307.8 1110.77 Q2301.99 1110.77 2298.91 1106.19 Q2295.86 1101.58 2295.86 1092.85 Q2295.86 1084.1 2298.91 1079.52 Q2301.99 1074.91 2307.8 1074.91 Z" fill="#000000" fill-rule="evenodd" fill-opacity="1" /><path clip-path="url(#clip360)" d="M2337.96 1078.62 Q2334.35 1078.62 2332.52 1082.18 Q2330.72 1085.72 2330.72 1092.85 Q2330.72 1099.96 2332.52 1103.53 Q2334.35 1107.07 2337.96 1107.07 Q2341.6 1107.07 2343.4 1103.53 Q2345.23 1099.96 2345.23 1092.85 Q2345.23 1085.72 2343.4 1082.18 Q2341.6 1078.62 2337.96 1078.62 M2337.96 1074.91 Q2343.77 1074.91 2346.83 1079.52 Q2349.91 1084.1 2349.91 1092.85 Q2349.91 1101.58 2346.83 1106.19 Q2343.77 1110.77 2337.96 1110.77 Q2332.15 1110.77 2329.08 1106.19 Q2326.02 1101.58 2326.02 1092.85 Q2326.02 1084.1 2329.08 1079.52 Q2332.15 1074.91 2337.96 1074.91 Z" fill="#000000" fill-rule="evenodd" fill-opacity="1" /><path clip-path="url(#clip360)" d="M1265.97 1151.38 L1252.92 1187.22 L1279.06 1187.22 L1265.97 1151.38 M1244.2 1192.56 L1262.35 1145.04 L1269.63 1145.04 L1287.75 1192.56 L1244.2 1192.56 Z" fill="#000000" fill-rule="evenodd" fill-opacity="1" /><path clip-path="url(#clip360)" d="M1304.84 1145.04 L1310.25 1145.04 L1293.7 1198.61 L1288.29 1198.61 L1304.84 1145.04 Z" fill="#000000" fill-rule="evenodd" fill-opacity="1" /><path clip-path="url(#clip360)" d="M1316.65 1192.56 L1316.65 1145.04 L1346.21 1145.04 L1346.21 1150.45 L1323.07 1150.45 L1323.07 1192.56 L1316.65 1192.56 Z" fill="#000000" fill-rule="evenodd" fill-opacity="1" /><polyline clip-path="url(#clip362)" style="stroke:#000000; stroke-linecap:butt; stroke-linejoin:round; stroke-width:2; stroke-opacity:0.1; fill:none" points="
  237.662,1019.43 2352.76,1019.43 
  "/>
<polyline clip-path="url(#clip362)" style="stroke:#000000; stroke-linecap:butt; stroke-linejoin:round; stroke-width:2; stroke-opacity:0.1; fill:none" points="
  237.662,779.321 2352.76,779.321 
  "/>
<polyline clip-path="url(#clip362)" style="stroke:#000000; stroke-linecap:butt; stroke-linejoin:round; stroke-width:2; stroke-opacity:0.1; fill:none" points="
  237.662,539.215 2352.76,539.215 
  "/>
<polyline clip-path="url(#clip362)" style="stroke:#000000; stroke-linecap:butt; stroke-linejoin:round; stroke-width:2; stroke-opacity:0.1; fill:none" points="
  237.662,299.108 2352.76,299.108 
  "/>
<polyline clip-path="url(#clip362)" style="stroke:#000000; stroke-linecap:butt; stroke-linejoin:round; stroke-width:2; stroke-opacity:0.1; fill:none" points="
  237.662,59.0014 2352.76,59.0014 
  "/>
<polyline clip-path="url(#clip360)" style="stroke:#000000; stroke-linecap:butt; stroke-linejoin:round; stroke-width:4; stroke-opacity:1; fill:none" points="
  237.662,1047.7 237.662,47.2441 
  "/>
<polyline clip-path="url(#clip360)" style="stroke:#000000; stroke-linecap:butt; stroke-linejoin:round; stroke-width:4; stroke-opacity:1; fill:none" points="
  237.662,1019.43 256.56,1019.43 
  "/>
<polyline clip-path="url(#clip360)" style="stroke:#000000; stroke-linecap:butt; stroke-linejoin:round; stroke-width:4; stroke-opacity:1; fill:none" points="
  237.662,779.321 256.56,779.321 
  "/>
<polyline clip-path="url(#clip360)" style="stroke:#000000; stroke-linecap:butt; stroke-linejoin:round; stroke-width:4; stroke-opacity:1; fill:none" points="
  237.662,539.215 256.56,539.215 
  "/>
<polyline clip-path="url(#clip360)" style="stroke:#000000; stroke-linecap:butt; stroke-linejoin:round; stroke-width:4; stroke-opacity:1; fill:none" points="
  237.662,299.108 256.56,299.108 
  "/>
<polyline clip-path="url(#clip360)" style="stroke:#000000; stroke-linecap:butt; stroke-linejoin:round; stroke-width:4; stroke-opacity:1; fill:none" points="
  237.662,59.0014 256.56,59.0014 
  "/>
<path clip-path="url(#clip360)" d="M114.325 1005.23 Q110.713 1005.23 108.885 1008.79 Q107.079 1012.33 107.079 1019.46 Q107.079 1026.57 108.885 1030.13 Q110.713 1033.68 114.325 1033.68 Q117.959 1033.68 119.764 1030.13 Q121.593 1026.57 121.593 1019.46 Q121.593 1012.33 119.764 1008.79 Q117.959 1005.23 114.325 1005.23 M114.325 1001.52 Q120.135 1001.52 123.19 1006.13 Q126.269 1010.71 126.269 1019.46 Q126.269 1028.19 123.19 1032.8 Q120.135 1037.38 114.325 1037.38 Q108.514 1037.38 105.436 1032.8 Q102.38 1028.19 102.38 1019.46 Q102.38 1010.71 105.436 1006.13 Q108.514 1001.52 114.325 1001.52 Z" fill="#000000" fill-rule="evenodd" fill-opacity="1" /><path clip-path="url(#clip360)" d="M134.486 1030.83 L139.371 1030.83 L139.371 1036.71 L134.486 1036.71 L134.486 1030.83 Z" fill="#000000" fill-rule="evenodd" fill-opacity="1" /><path clip-path="url(#clip360)" d="M159.556 1005.23 Q155.945 1005.23 154.116 1008.79 Q152.31 1012.33 152.31 1019.46 Q152.31 1026.57 154.116 1030.13 Q155.945 1033.68 159.556 1033.68 Q163.19 1033.68 164.996 1030.13 Q166.824 1026.57 166.824 1019.46 Q166.824 1012.33 164.996 1008.79 Q163.19 1005.23 159.556 1005.23 M159.556 1001.52 Q165.366 1001.52 168.421 1006.13 Q171.5 1010.71 171.5 1019.46 Q171.5 1028.19 168.421 1032.8 Q165.366 1037.38 159.556 1037.38 Q153.746 1037.38 150.667 1032.8 Q147.611 1028.19 147.611 1019.46 Q147.611 1010.71 150.667 1006.13 Q153.746 1001.52 159.556 1001.52 Z" fill="#000000" fill-rule="evenodd" fill-opacity="1" /><path clip-path="url(#clip360)" d="M189.718 1005.23 Q186.107 1005.23 184.278 1008.79 Q182.472 1012.33 182.472 1019.46 Q182.472 1026.57 184.278 1030.13 Q186.107 1033.68 189.718 1033.68 Q193.352 1033.68 195.157 1030.13 Q196.986 1026.57 196.986 1019.46 Q196.986 1012.33 195.157 1008.79 Q193.352 1005.23 189.718 1005.23 M189.718 1001.52 Q195.528 1001.52 198.583 1006.13 Q201.662 1010.71 201.662 1019.46 Q201.662 1028.19 198.583 1032.8 Q195.528 1037.38 189.718 1037.38 Q183.907 1037.38 180.829 1032.8 Q177.773 1028.19 177.773 1019.46 Q177.773 1010.71 180.829 1006.13 Q183.907 1001.52 189.718 1001.52 Z" fill="#000000" fill-rule="evenodd" fill-opacity="1" /><path clip-path="url(#clip360)" d="M115.32 765.12 Q111.709 765.12 109.88 768.685 Q108.075 772.226 108.075 779.356 Q108.075 786.462 109.88 790.027 Q111.709 793.569 115.32 793.569 Q118.954 793.569 120.76 790.027 Q122.588 786.462 122.588 779.356 Q122.588 772.226 120.76 768.685 Q118.954 765.12 115.32 765.12 M115.32 761.416 Q121.13 761.416 124.186 766.023 Q127.264 770.606 127.264 779.356 Q127.264 788.083 124.186 792.689 Q121.13 797.272 115.32 797.272 Q109.51 797.272 106.431 792.689 Q103.376 788.083 103.376 779.356 Q103.376 770.606 106.431 766.023 Q109.51 761.416 115.32 761.416 Z" fill="#000000" fill-rule="evenodd" fill-opacity="1" /><path clip-path="url(#clip360)" d="M135.482 790.722 L140.366 790.722 L140.366 796.601 L135.482 796.601 L135.482 790.722 Z" fill="#000000" fill-rule="evenodd" fill-opacity="1" /><path clip-path="url(#clip360)" d="M154.579 792.666 L170.898 792.666 L170.898 796.601 L148.954 796.601 L148.954 792.666 Q151.616 789.911 156.199 785.282 Q160.806 780.629 161.986 779.286 Q164.232 776.763 165.111 775.027 Q166.014 773.268 166.014 771.578 Q166.014 768.824 164.07 767.087 Q162.148 765.351 159.047 765.351 Q156.847 765.351 154.394 766.115 Q151.963 766.879 149.185 768.43 L149.185 763.708 Q152.01 762.574 154.463 761.995 Q156.917 761.416 158.954 761.416 Q164.324 761.416 167.519 764.101 Q170.713 766.786 170.713 771.277 Q170.713 773.407 169.903 775.328 Q169.116 777.226 167.009 779.819 Q166.431 780.49 163.329 783.708 Q160.227 786.902 154.579 792.666 Z" fill="#000000" fill-rule="evenodd" fill-opacity="1" /><path clip-path="url(#clip360)" d="M180.759 762.041 L199.116 762.041 L199.116 765.976 L185.042 765.976 L185.042 774.448 Q186.06 774.101 187.079 773.939 Q188.097 773.754 189.116 773.754 Q194.903 773.754 198.282 776.925 Q201.662 780.097 201.662 785.513 Q201.662 791.092 198.19 794.194 Q194.718 797.272 188.398 797.272 Q186.222 797.272 183.954 796.902 Q181.708 796.532 179.301 795.791 L179.301 791.092 Q181.384 792.226 183.607 792.782 Q185.829 793.337 188.306 793.337 Q192.31 793.337 194.648 791.231 Q196.986 789.124 196.986 785.513 Q196.986 781.902 194.648 779.796 Q192.31 777.689 188.306 777.689 Q186.431 777.689 184.556 778.106 Q182.704 778.523 180.759 779.402 L180.759 762.041 Z" fill="#000000" fill-rule="evenodd" fill-opacity="1" /><path clip-path="url(#clip360)" d="M114.325 525.013 Q110.713 525.013 108.885 528.578 Q107.079 532.12 107.079 539.249 Q107.079 546.356 108.885 549.921 Q110.713 553.462 114.325 553.462 Q117.959 553.462 119.764 549.921 Q121.593 546.356 121.593 539.249 Q121.593 532.12 119.764 528.578 Q117.959 525.013 114.325 525.013 M114.325 521.31 Q120.135 521.31 123.19 525.916 Q126.269 530.499 126.269 539.249 Q126.269 547.976 123.19 552.583 Q120.135 557.166 114.325 557.166 Q108.514 557.166 105.436 552.583 Q102.38 547.976 102.38 539.249 Q102.38 530.499 105.436 525.916 Q108.514 521.31 114.325 521.31 Z" fill="#000000" fill-rule="evenodd" fill-opacity="1" /><path clip-path="url(#clip360)" d="M134.486 550.615 L139.371 550.615 L139.371 556.495 L134.486 556.495 L134.486 550.615 Z" fill="#000000" fill-rule="evenodd" fill-opacity="1" /><path clip-path="url(#clip360)" d="M149.602 521.935 L167.959 521.935 L167.959 525.87 L153.885 525.87 L153.885 534.342 Q154.903 533.995 155.922 533.833 Q156.94 533.647 157.959 533.647 Q163.746 533.647 167.125 536.819 Q170.505 539.99 170.505 545.407 Q170.505 550.985 167.033 554.087 Q163.56 557.166 157.241 557.166 Q155.065 557.166 152.797 556.795 Q150.551 556.425 148.144 555.684 L148.144 550.985 Q150.227 552.12 152.449 552.675 Q154.672 553.231 157.148 553.231 Q161.153 553.231 163.491 551.124 Q165.829 549.018 165.829 545.407 Q165.829 541.796 163.491 539.689 Q161.153 537.583 157.148 537.583 Q155.273 537.583 153.398 537.999 Q151.547 538.416 149.602 539.296 L149.602 521.935 Z" fill="#000000" fill-rule="evenodd" fill-opacity="1" /><path clip-path="url(#clip360)" d="M189.718 525.013 Q186.107 525.013 184.278 528.578 Q182.472 532.12 182.472 539.249 Q182.472 546.356 184.278 549.921 Q186.107 553.462 189.718 553.462 Q193.352 553.462 195.157 549.921 Q196.986 546.356 196.986 539.249 Q196.986 532.12 195.157 528.578 Q193.352 525.013 189.718 525.013 M189.718 521.31 Q195.528 521.31 198.583 525.916 Q201.662 530.499 201.662 539.249 Q201.662 547.976 198.583 552.583 Q195.528 557.166 189.718 557.166 Q183.907 557.166 180.829 552.583 Q177.773 547.976 177.773 539.249 Q177.773 530.499 180.829 525.916 Q183.907 521.31 189.718 521.31 Z" fill="#000000" fill-rule="evenodd" fill-opacity="1" /><path clip-path="url(#clip360)" d="M115.32 284.907 Q111.709 284.907 109.88 288.471 Q108.075 292.013 108.075 299.143 Q108.075 306.249 109.88 309.814 Q111.709 313.356 115.32 313.356 Q118.954 313.356 120.76 309.814 Q122.588 306.249 122.588 299.143 Q122.588 292.013 120.76 288.471 Q118.954 284.907 115.32 284.907 M115.32 281.203 Q121.13 281.203 124.186 285.809 Q127.264 290.393 127.264 299.143 Q127.264 307.869 124.186 312.476 Q121.13 317.059 115.32 317.059 Q109.51 317.059 106.431 312.476 Q103.376 307.869 103.376 299.143 Q103.376 290.393 106.431 285.809 Q109.51 281.203 115.32 281.203 Z" fill="#000000" fill-rule="evenodd" fill-opacity="1" /><path clip-path="url(#clip360)" d="M135.482 310.508 L140.366 310.508 L140.366 316.388 L135.482 316.388 L135.482 310.508 Z" fill="#000000" fill-rule="evenodd" fill-opacity="1" /><path clip-path="url(#clip360)" d="M149.371 281.828 L171.593 281.828 L171.593 283.819 L159.047 316.388 L154.162 316.388 L165.968 285.763 L149.371 285.763 L149.371 281.828 Z" fill="#000000" fill-rule="evenodd" fill-opacity="1" /><path clip-path="url(#clip360)" d="M180.759 281.828 L199.116 281.828 L199.116 285.763 L185.042 285.763 L185.042 294.235 Q186.06 293.888 187.079 293.726 Q188.097 293.541 189.116 293.541 Q194.903 293.541 198.282 296.712 Q201.662 299.883 201.662 305.3 Q201.662 310.879 198.19 313.981 Q194.718 317.059 188.398 317.059 Q186.222 317.059 183.954 316.689 Q181.708 316.319 179.301 315.578 L179.301 310.879 Q181.384 312.013 183.607 312.569 Q185.829 313.124 188.306 313.124 Q192.31 313.124 194.648 311.018 Q196.986 308.911 196.986 305.3 Q196.986 301.689 194.648 299.582 Q192.31 297.476 188.306 297.476 Q186.431 297.476 184.556 297.893 Q182.704 298.309 180.759 299.189 L180.759 281.828 Z" fill="#000000" fill-rule="evenodd" fill-opacity="1" /><path clip-path="url(#clip360)" d="M105.135 72.3462 L112.774 72.3462 L112.774 45.9806 L104.463 47.6472 L104.463 43.388 L112.727 41.7214 L117.403 41.7214 L117.403 72.3462 L125.042 72.3462 L125.042 76.2814 L105.135 76.2814 L105.135 72.3462 Z" fill="#000000" fill-rule="evenodd" fill-opacity="1" /><path clip-path="url(#clip360)" d="M134.486 70.4018 L139.371 70.4018 L139.371 76.2814 L134.486 76.2814 L134.486 70.4018 Z" fill="#000000" fill-rule="evenodd" fill-opacity="1" /><path clip-path="url(#clip360)" d="M159.556 44.8 Q155.945 44.8 154.116 48.3648 Q152.31 51.9065 152.31 59.0361 Q152.31 66.1425 154.116 69.7073 Q155.945 73.249 159.556 73.249 Q163.19 73.249 164.996 69.7073 Q166.824 66.1425 166.824 59.0361 Q166.824 51.9065 164.996 48.3648 Q163.19 44.8 159.556 44.8 M159.556 41.0964 Q165.366 41.0964 168.421 45.7028 Q171.5 50.2861 171.5 59.0361 Q171.5 67.7629 168.421 72.3693 Q165.366 76.9526 159.556 76.9526 Q153.746 76.9526 150.667 72.3693 Q147.611 67.7629 147.611 59.0361 Q147.611 50.2861 150.667 45.7028 Q153.746 41.0964 159.556 41.0964 Z" fill="#000000" fill-rule="evenodd" fill-opacity="1" /><path clip-path="url(#clip360)" d="M189.718 44.8 Q186.107 44.8 184.278 48.3648 Q182.472 51.9065 182.472 59.0361 Q182.472 66.1425 184.278 69.7073 Q186.107 73.249 189.718 73.249 Q193.352 73.249 195.157 69.7073 Q196.986 66.1425 196.986 59.0361 Q196.986 51.9065 195.157 48.3648 Q193.352 44.8 189.718 44.8 M189.718 41.0964 Q195.528 41.0964 198.583 45.7028 Q201.662 50.2861 201.662 59.0361 Q201.662 67.7629 198.583 72.3693 Q195.528 76.9526 189.718 76.9526 Q183.907 76.9526 180.829 72.3693 Q177.773 67.7629 177.773 59.0361 Q177.773 50.2861 180.829 45.7028 Q183.907 41.0964 189.718 41.0964 Z" fill="#000000" fill-rule="evenodd" fill-opacity="1" /><path clip-path="url(#clip360)" d="M31.6902 629.208 L2.66262 620.232 L2.66262 614.821 L31.6902 623.797 L60.7179 614.821 L60.7179 620.232 L31.6902 629.208 Z" fill="#000000" fill-rule="evenodd" fill-opacity="1" /><path clip-path="url(#clip360)" d="M21.1232 589.645 Q21.1232 594.483 24.6243 597.093 Q28.2846 599.83 34.332 599.83 Q40.7295 599.83 44.4217 597.124 Q48.0819 594.387 48.0819 589.645 Q48.0819 584.966 44.3898 582.229 Q40.6977 579.491 34.332 579.491 Q28.5074 579.491 24.6243 582.229 Q21.1232 584.743 21.1232 589.645 M16.4762 589.645 L16.4762 570.198 L22.3327 570.198 L22.3327 576.754 Q27.2979 573.285 34.332 573.285 Q43.0849 573.285 48.0501 577.645 Q53.0472 582.006 53.0472 589.645 Q53.0472 597.315 48.0501 601.644 Q43.0849 606.005 34.332 606.005 Q25.5155 606.005 20.5821 601.644 Q16.4762 598.048 16.4762 589.645 Z" fill="#000000" fill-rule="evenodd" fill-opacity="1" /><path clip-path="url(#clip360)" d="M46.7133 555.779 L46.7133 533.34 L52.1242 533.34 L52.1242 563.514 L46.7133 563.514 Q42.9257 559.853 36.56 553.551 Q30.1625 547.217 28.3164 545.594 Q24.8471 542.507 22.46 541.297 Q20.041 540.056 17.7175 540.056 Q13.9299 540.056 11.5428 542.73 Q9.15564 545.371 9.15564 549.636 Q9.15564 552.66 10.206 556.034 Q11.2563 559.376 13.3888 563.195 L6.89581 563.195 Q5.33621 559.312 4.5405 555.938 Q3.74479 552.565 3.74479 549.764 Q3.74479 542.379 7.4369 537.987 Q11.129 533.595 17.3037 533.595 Q20.232 533.595 22.8737 534.709 Q25.4837 535.791 29.0485 538.687 Q29.9715 539.483 34.3957 543.748 Q38.788 548.013 46.7133 555.779 Z" fill="#000000" fill-rule="evenodd" fill-opacity="1" /><path clip-path="url(#clip360)" d="M46.7133 514.307 L46.7133 491.868 L52.1242 491.868 L52.1242 522.041 L46.7133 522.041 Q42.9257 518.381 36.56 512.079 Q30.1625 505.745 28.3164 504.122 Q24.8471 501.034 22.46 499.825 Q20.041 498.583 17.7175 498.583 Q13.9299 498.583 11.5428 501.257 Q9.15564 503.899 9.15564 508.164 Q9.15564 511.187 10.206 514.561 Q11.2563 517.903 13.3888 521.723 L6.89581 521.723 Q5.33621 517.84 4.5405 514.466 Q3.74479 511.092 3.74479 508.291 Q3.74479 500.907 7.4369 496.514 Q11.129 492.122 17.3037 492.122 Q20.232 492.122 22.8737 493.236 Q25.4837 494.318 29.0485 497.215 Q29.9715 498.01 34.3957 502.275 Q38.788 506.54 46.7133 514.307 Z" fill="#000000" fill-rule="evenodd" fill-opacity="1" /><path clip-path="url(#clip360)" d="M31.6902 465.736 L60.7179 474.712 L60.7179 480.123 L31.6902 471.147 L2.66262 480.123 L2.66262 474.712 L31.6902 465.736 Z" fill="#000000" fill-rule="evenodd" fill-opacity="1" /><polyline clip-path="url(#clip362)" style="stroke:#009af9; stroke-linecap:butt; stroke-linejoin:round; stroke-width:4; stroke-opacity:1; fill:none" points="
  297.523,1017.42 299.519,1017.73 301.514,1018.04 303.509,1018.33 305.505,1018.59 307.5,1018.82 309.495,1019 311.491,1019.14 313.486,1019.24 315.482,1019.31 
  317.477,1019.35 319.472,1019.37 321.468,1019.38 323.463,1019.39 325.458,1019.38 327.454,1019.38 329.449,1019.38 331.444,1019.38 333.44,1019.37 335.435,1019.35 
  337.431,1019.32 339.426,1019.25 341.421,1019.16 343.417,1019.04 345.412,1018.89 347.407,1018.71 349.403,1018.5 351.398,1018.28 353.394,1018.05 355.389,1017.83 
  357.384,1017.64 359.38,1017.49 361.375,1017.39 363.37,1017.36 365.366,1017.4 367.361,1017.52 369.357,1017.71 371.352,1017.96 373.347,1018.26 375.343,1018.57 
  377.338,1018.87 379.333,1019.13 381.329,1019.3 383.324,1019.36 385.32,1019.25 387.315,1018.95 389.31,1018.44 391.306,1017.69 393.301,1016.7 395.296,1015.49 
  397.292,1014.07 399.287,1012.48 401.283,1010.76 403.278,1008.99 405.273,1007.22 407.269,1005.54 409.264,1004.03 411.259,1002.76 413.255,1001.81 415.25,1001.24 
  417.245,1001.09 419.241,1001.39 421.236,1002.14 423.232,1003.33 425.227,1004.9 427.222,1006.79 429.218,1008.91 431.213,1011.14 433.208,1013.34 435.204,1015.39 
  437.199,1017.13 439.195,1018.43 441.19,1019.16 443.185,1019.2 445.181,1018.48 447.176,1016.93 449.171,1014.55 451.167,1011.36 453.162,1007.42 455.158,1002.84 
  457.153,997.778 459.148,992.398 461.144,986.912 463.139,981.543 465.134,976.525 467.13,972.085 469.125,968.439 471.121,965.775 473.116,964.243 475.111,963.946 
  477.107,964.936 479.102,967.2 481.097,970.665 483.093,975.192 485.088,980.587 487.083,986.597 489.079,992.929 491.074,999.256 493.07,1005.23 495.065,1010.52 
  497.06,1014.77 499.056,1017.7 501.051,1019.04 503.046,1018.62 505.042,1016.3 507.037,1012.07 509.033,1005.97 511.028,998.152 513.023,988.854 515.019,978.391 
  517.014,967.147 519.009,955.561 521.005,944.109 523,933.28 524.996,923.555 526.991,915.383 528.986,909.16 530.982,905.207 532.977,903.749 534.972,904.905 
  536.968,908.674 538.963,914.933 540.959,923.435 542.954,933.819 544.949,945.619 546.945,958.285 548.94,971.203 550.935,983.724 552.931,995.19 554.926,1004.97 
  556.921,1012.48 558.917,1017.23 560.912,1018.83 562.908,1017.03 564.903,1011.72 566.898,1002.96 568.894,990.956 570.889,976.085 572.884,958.866 574.88,939.944 
  576.875,920.065 578.871,900.044 580.866,880.73 582.861,862.967 584.857,847.555 586.852,835.21 588.847,826.532 590.843,821.965 592.838,821.782 594.834,826.058 
  596.829,834.665 598.824,847.271 600.82,863.347 602.815,882.189 604.81,902.943 606.806,924.64 608.801,946.239 610.797,966.671 612.792,984.889 614.787,999.919 
  616.783,1010.9 618.778,1017.14 620.773,1018.15 622.769,1013.64 624.764,1003.59 626.759,988.236 628.755,968.049 630.75,943.741 632.746,916.233 634.741,886.616 
  636.736,856.106 638.732,825.993 640.727,797.58 642.722,772.127 644.718,750.789 646.713,734.563 648.709,724.235 650.704,720.339 652.699,723.131 654.695,732.562 
  656.69,748.28 658.685,769.637 660.681,795.709 662.676,825.335 664.672,857.164 666.667,889.71 668.662,921.424 670.658,950.754 672.653,976.226 674.648,996.505 
  676.644,1010.47 678.639,1017.24 680.635,1016.29 682.63,1007.39 684.625,990.679 686.621,966.676 688.616,936.223 690.611,900.483 692.607,860.88 694.602,819.048 
  696.597,776.754 698.593,735.822 700.588,698.052 702.584,665.134 704.579,638.573 706.574,619.612 708.57,609.17 710.565,607.8 712.56,615.647 714.556,632.441 
  716.551,657.499 718.547,689.748 720.542,727.767 722.537,769.846 724.533,814.058 726.528,858.344 728.523,900.604 730.519,938.793 732.514,971.016 734.51,995.614 
  736.505,1011.25 738.5,1016.96 740.496,1012.24 742.491,997.03 744.486,971.751 746.482,937.294 748.477,894.982 750.473,846.515 752.468,793.902 754.463,739.374 
  756.459,685.284 758.454,634.003 760.449,587.811 762.445,548.793 764.44,518.74 766.436,499.063 768.431,490.72 770.426,494.173 772.422,509.349 774.417,535.644 
  776.412,571.94 778.408,616.645 780.403,667.765 782.398,722.983 784.394,779.764 786.389,835.468 788.385,887.464 790.38,933.257 792.375,970.598 794.371,997.592 
  796.366,1012.79 798.361,1015.26 800.357,1004.64 802.352,981.145 804.348,945.6 806.343,899.373 808.338,844.341 810.334,782.805 812.329,717.388 814.324,650.927 
  816.32,586.338 818.315,526.489 820.311,474.067 822.306,431.454 824.301,400.615 826.297,383 828.292,379.48 830.287,390.29 832.283,415.02 834.278,452.621 
  836.274,501.449 838.269,559.329 840.264,623.653 842.26,691.492 844.255,759.724 846.25,825.178 848.246,884.777 850.241,935.676 852.236,975.4 854.232,1001.95 
  856.227,1013.93 858.223,1010.55 860.218,991.752 862.213,958.163 864.209,911.088 866.204,852.461 868.199,784.763 870.195,710.906 872.19,634.115 874.186,557.777 
  876.181,485.288 878.176,419.903 880.172,364.582 882.167,321.852 884.162,293.692 886.158,281.435 888.153,285.7 890.149,306.362 892.144,342.547 894.139,392.669 
  896.135,454.493 898.13,525.235 900.125,601.683 902.121,680.339 904.116,757.578 906.112,829.813 908.107,893.657 910.102,946.079 912.098,984.548 914.093,1007.15 
  916.088,1012.68 918.084,1000.7 920.079,971.577 922.074,926.452 924.07,867.208 926.065,796.387 928.061,717.074 930.056,632.764 932.051,547.203 934.047,464.22 
  936.042,387.552 938.037,320.671 940.033,266.628 942.028,227.905 944.024,206.303 946.019,202.853 948.014,217.764 950.01,250.409 952.005,299.348 954,362.391 
  955.996,436.689 957.991,518.868 959.987,605.172 961.982,691.637 963.977,774.272 965.973,849.24 967.968,913.032 969.963,962.636 971.959,995.668 973.954,1010.5 
  975.95,1006.3 977.945,983.152 979.94,941.959 981.936,884.478 983.931,813.214 985.926,731.317 987.922,642.436 989.917,550.557 991.912,459.822 993.908,374.341 
  995.903,298 997.899,234.284 999.894,186.118 1001.89,155.725 1003.88,144.525 1005.88,153.067 1007.88,180.998 1009.87,227.075 1011.87,289.22 1013.86,364.614 
  1015.86,449.816 1017.85,540.929 1019.85,633.768 1021.84,724.054 1023.84,807.614 1025.83,880.566 1027.83,939.502 1029.82,981.648 1031.82,1004.99 1033.82,1008.37 
  1035.81,991.54 1037.81,955.186 1039.8,900.889 1041.8,831.056 1043.79,748.818 1045.79,657.884 1047.78,562.375 1049.78,466.631 1051.77,375.019 1053.77,291.727 
  1055.76,220.571 1057.76,164.823 1059.76,127.055 1061.75,109.017 1063.75,111.56 1065.74,134.592 1067.74,177.076 1069.73,237.081 1071.73,311.865 1073.72,398.001 
  1075.72,491.533 1077.71,588.155 1079.71,683.411 1081.7,772.9 1083.7,852.476 1085.69,918.441 1087.69,967.719 1089.69,997.995 1091.68,1007.83 1093.68,996.706 
  1095.67,965.099 1097.67,914.409 1099.66,846.924 1101.66,765.711 1103.65,674.474 1105.65,577.387 1107.64,478.899 1109.64,383.532 1111.63,295.672 1113.63,219.365 
  1115.63,158.129 1117.62,114.795 1119.62,91.3694 1121.61,88.9446 1123.61,107.645 1125.6,146.62 1127.6,204.083 1129.59,277.391 1131.59,363.166 1133.58,457.452 
  1135.58,555.893 1137.57,653.94 1139.57,747.054 1141.57,830.921 1143.56,901.649 1145.56,955.952 1147.55,991.298 1149.55,1006.03 1151.54,999.442 1153.54,971.815 
  1155.53,924.403 1157.53,859.376 1159.52,779.722 1161.52,689.108 1163.51,591.711 1165.51,492.025 1167.51,394.656 1169.5,304.104 1171.5,224.557 1173.49,159.698 
  1175.49,112.531 1177.48,85.245 1179.48,79.1071 1181.47,94.4076 1183.47,130.443 1185.46,185.551 1187.46,257.181 1189.45,342.018 1191.45,436.134 1193.45,535.167 
  1195.44,634.527 1197.44,729.604 1199.43,815.987 1201.43,889.666 1203.42,947.218 1205.42,985.965 1207.41,1004.1 1209.41,1000.78 1211.4,976.146 1213.4,931.331 
  1215.39,868.407 1217.39,790.286 1219.38,700.587 1221.38,603.467 1223.38,503.43 1225.37,405.113 1227.37,313.08 1229.36,231.6 1231.36,164.456 1233.35,114.766 
  1235.35,84.8385 1237.34,76.0637 1239.34,88.8513 1241.33,122.609 1243.33,175.772 1245.32,245.872 1247.32,329.654 1249.32,423.229 1251.31,522.25 1253.31,622.118 
  1255.3,718.192 1257.3,806.009 1259.29,881.488 1261.29,941.12 1263.28,982.134 1265.28,1002.62 1267.27,1001.63 1269.27,979.2 1271.26,936.376 1273.26,875.145 
  1275.26,798.35 1277.25,709.561 1279.25,612.9 1281.24,512.861 1283.24,414.092 1285.23,321.182 1287.23,238.448 1289.22,169.738 1291.22,118.242 1293.21,86.3551 
  1295.21,75.5589 1297.2,86.3551 1299.2,118.242 1301.2,169.738 1303.19,238.448 1305.19,321.182 1307.18,414.092 1309.18,512.861 1311.17,612.9 1313.17,709.561 
  1315.16,798.35 1317.16,875.145 1319.15,936.376 1321.15,979.2 1323.14,1001.63 1325.14,1002.62 1327.13,982.134 1329.13,941.12 1331.13,881.488 1333.12,806.009 
  1335.12,718.192 1337.11,622.118 1339.11,522.25 1341.1,423.229 1343.1,329.654 1345.09,245.872 1347.09,175.772 1349.08,122.609 1351.08,88.8513 1353.07,76.0637 
  1355.07,84.8385 1357.07,114.766 1359.06,164.456 1361.06,231.6 1363.05,313.08 1365.05,405.113 1367.04,503.43 1369.04,603.467 1371.03,700.587 1373.03,790.286 
  1375.02,868.407 1377.02,931.331 1379.01,976.146 1381.01,1000.78 1383.01,1004.1 1385,985.965 1387,947.218 1388.99,889.666 1390.99,815.987 1392.98,729.604 
  1394.98,634.527 1396.97,535.167 1398.97,436.134 1400.96,342.018 1402.96,257.181 1404.95,185.551 1406.95,130.443 1408.95,94.4076 1410.94,79.1071 1412.94,85.245 
  1414.93,112.531 1416.93,159.698 1418.92,224.557 1420.92,304.104 1422.91,394.656 1424.91,492.025 1426.9,591.711 1428.9,689.108 1430.89,779.722 1432.89,859.376 
  1434.88,924.403 1436.88,971.815 1438.88,999.442 1440.87,1006.03 1442.87,991.298 1444.86,955.952 1446.86,901.649 1448.85,830.921 1450.85,747.054 1452.84,653.94 
  1454.84,555.893 1456.83,457.452 1458.83,363.166 1460.82,277.391 1462.82,204.083 1464.82,146.62 1466.81,107.645 1468.81,88.9446 1470.8,91.3694 1472.8,114.795 
  1474.79,158.129 1476.79,219.365 1478.78,295.672 1480.78,383.532 1482.77,478.899 1484.77,577.387 1486.76,674.474 1488.76,765.711 1490.76,846.924 1492.75,914.409 
  1494.75,965.099 1496.74,996.706 1498.74,1007.83 1500.73,997.995 1502.73,967.719 1504.72,918.441 1506.72,852.476 1508.71,772.9 1510.71,683.411 1512.7,588.155 
  1514.7,491.533 1516.7,398.001 1518.69,311.865 1520.69,237.081 1522.68,177.076 1524.68,134.592 1526.67,111.56 1528.67,109.017 1530.66,127.055 1532.66,164.823 
  1534.65,220.571 1536.65,291.727 1538.64,375.019 1540.64,466.631 1542.64,562.375 1544.63,657.884 1546.63,748.818 1548.62,831.056 1550.62,900.889 1552.61,955.186 
  1554.61,991.54 1556.6,1008.37 1558.6,1004.99 1560.59,981.648 1562.59,939.502 1564.58,880.566 1566.58,807.614 1568.57,724.054 1570.57,633.768 1572.57,540.929 
  1574.56,449.816 1576.56,364.614 1578.55,289.22 1580.55,227.075 1582.54,180.998 1584.54,153.067 1586.53,144.525 1588.53,155.725 1590.52,186.118 1592.52,234.284 
  1594.51,298 1596.51,374.341 1598.51,459.822 1600.5,550.557 1602.5,642.436 1604.49,731.317 1606.49,813.214 1608.48,884.478 1610.48,941.959 1612.47,983.152 
  1614.47,1006.3 1616.46,1010.5 1618.46,995.668 1620.45,962.636 1622.45,913.032 1624.45,849.24 1626.44,774.272 1628.44,691.637 1630.43,605.172 1632.43,518.868 
  1634.42,436.689 1636.42,362.391 1638.41,299.348 1640.41,250.409 1642.4,217.764 1644.4,202.853 1646.39,206.303 1648.39,227.905 1650.39,266.628 1652.38,320.671 
  1654.38,387.552 1656.37,464.22 1658.37,547.203 1660.36,632.764 1662.36,717.074 1664.35,796.387 1666.35,867.208 1668.34,926.452 1670.34,971.577 1672.33,1000.7 
  1674.33,1012.68 1676.32,1007.15 1678.32,984.548 1680.32,946.079 1682.31,893.657 1684.31,829.813 1686.3,757.578 1688.3,680.339 1690.29,601.683 1692.29,525.235 
  1694.28,454.493 1696.28,392.669 1698.27,342.547 1700.27,306.362 1702.26,285.7 1704.26,281.435 1706.26,293.692 1708.25,321.852 1710.25,364.582 1712.24,419.903 
  1714.24,485.288 1716.23,557.777 1718.23,634.115 1720.22,710.906 1722.22,784.763 1724.21,852.461 1726.21,911.088 1728.2,958.163 1730.2,991.752 1732.2,1010.55 
  1734.19,1013.93 1736.19,1001.95 1738.18,975.4 1740.18,935.676 1742.17,884.777 1744.17,825.178 1746.16,759.724 1748.16,691.492 1750.15,623.653 1752.15,559.329 
  1754.14,501.449 1756.14,452.621 1758.14,415.02 1760.13,390.29 1762.13,379.48 1764.12,383 1766.12,400.615 1768.11,431.454 1770.11,474.067 1772.1,526.489 
  1774.1,586.338 1776.09,650.927 1778.09,717.388 1780.08,782.805 1782.08,844.341 1784.08,899.373 1786.07,945.6 1788.07,981.145 1790.06,1004.64 1792.06,1015.26 
  1794.05,1012.79 1796.05,997.592 1798.04,970.598 1800.04,933.257 1802.03,887.464 1804.03,835.468 1806.02,779.764 1808.02,722.983 1810.01,667.765 1812.01,616.645 
  1814.01,571.94 1816,535.644 1818,509.349 1819.99,494.173 1821.99,490.72 1823.98,499.063 1825.98,518.74 1827.97,548.793 1829.97,587.811 1831.96,634.003 
  1833.96,685.284 1835.95,739.374 1837.95,793.902 1839.95,846.515 1841.94,894.982 1843.94,937.294 1845.93,971.751 1847.93,997.03 1849.92,1012.24 1851.92,1016.96 
  1853.91,1011.25 1855.91,995.614 1857.9,971.016 1859.9,938.793 1861.89,900.604 1863.89,858.344 1865.89,814.058 1867.88,769.846 1869.88,727.767 1871.87,689.748 
  1873.87,657.499 1875.86,632.441 1877.86,615.647 1879.85,607.8 1881.85,609.17 1883.84,619.612 1885.84,638.573 1887.83,665.134 1889.83,698.052 1891.83,735.822 
  1893.82,776.754 1895.82,819.048 1897.81,860.88 1899.81,900.483 1901.8,936.223 1903.8,966.676 1905.79,990.679 1907.79,1007.39 1909.78,1016.29 1911.78,1017.24 
  1913.77,1010.47 1915.77,996.505 1917.76,976.226 1919.76,950.754 1921.76,921.424 1923.75,889.71 1925.75,857.164 1927.74,825.335 1929.74,795.709 1931.73,769.637 
  1933.73,748.28 1935.72,732.562 1937.72,723.131 1939.71,720.339 1941.71,724.235 1943.7,734.563 1945.7,750.789 1947.7,772.127 1949.69,797.58 1951.69,825.993 
  1953.68,856.106 1955.68,886.616 1957.67,916.233 1959.67,943.741 1961.66,968.049 1963.66,988.236 1965.65,1003.59 1967.65,1013.64 1969.64,1018.15 1971.64,1017.14 
  1973.64,1010.9 1975.63,999.919 1977.63,984.889 1979.62,966.671 1981.62,946.239 1983.61,924.64 1985.61,902.943 1987.6,882.189 1989.6,863.347 1991.59,847.271 
  1993.59,834.665 1995.58,826.058 1997.58,821.782 1999.58,821.965 2001.57,826.532 2003.57,835.21 2005.56,847.555 2007.56,862.967 2009.55,880.73 2011.55,900.044 
  2013.54,920.065 2015.54,939.944 2017.53,958.866 2019.53,976.085 2021.52,990.956 2023.52,1002.96 2025.51,1011.72 2027.51,1017.03 2029.51,1018.83 2031.5,1017.23 
  2033.5,1012.48 2035.49,1004.97 2037.49,995.19 2039.48,983.724 2041.48,971.203 2043.47,958.285 2045.47,945.619 2047.46,933.819 2049.46,923.435 2051.45,914.933 
  2053.45,908.674 2055.45,904.905 2057.44,903.749 2059.44,905.207 2061.43,909.16 2063.43,915.383 2065.42,923.555 2067.42,933.28 2069.41,944.109 2071.41,955.561 
  2073.4,967.147 2075.4,978.391 2077.39,988.854 2079.39,998.152 2081.39,1005.97 2083.38,1012.07 2085.38,1016.3 2087.37,1018.62 2089.37,1019.04 2091.36,1017.7 
  2093.36,1014.77 2095.35,1010.52 2097.35,1005.23 2099.34,999.256 2101.34,992.929 2103.33,986.597 2105.33,980.587 2107.33,975.192 2109.32,970.665 2111.32,967.2 
  2113.31,964.936 2115.31,963.946 2117.3,964.243 2119.3,965.775 2121.29,968.439 2123.29,972.085 2125.28,976.525 2127.28,981.543 2129.27,986.912 2131.27,992.398 
  2133.27,997.778 2135.26,1002.84 2137.26,1007.42 2139.25,1011.36 2141.25,1014.55 2143.24,1016.93 2145.24,1018.48 2147.23,1019.2 2149.23,1019.16 2151.22,1018.43 
  2153.22,1017.13 2155.21,1015.39 2157.21,1013.34 2159.2,1011.14 2161.2,1008.91 2163.2,1006.79 2165.19,1004.9 2167.19,1003.33 2169.18,1002.14 2171.18,1001.39 
  2173.17,1001.09 2175.17,1001.24 2177.16,1001.81 2179.16,1002.76 2181.15,1004.03 2183.15,1005.54 2185.14,1007.22 2187.14,1008.99 2189.14,1010.76 2191.13,1012.48 
  2193.13,1014.07 2195.12,1015.49 2197.12,1016.7 2199.11,1017.69 2201.11,1018.44 2203.1,1018.95 2205.1,1019.25 2207.09,1019.36 2209.09,1019.3 2211.08,1019.13 
  2213.08,1018.87 2215.08,1018.57 2217.07,1018.26 2219.07,1017.96 2221.06,1017.71 2223.06,1017.52 2225.05,1017.4 2227.05,1017.36 2229.04,1017.39 2231.04,1017.49 
  2233.03,1017.64 2235.03,1017.83 2237.02,1018.05 2239.02,1018.28 2241.02,1018.5 2243.01,1018.71 2245.01,1018.89 2247,1019.04 2249,1019.16 2250.99,1019.25 
  2252.99,1019.32 2254.98,1019.35 2256.98,1019.37 2258.97,1019.38 2260.97,1019.38 2262.96,1019.38 2264.96,1019.38 2266.95,1019.39 2268.95,1019.38 2270.95,1019.37 
  2272.94,1019.35 2274.94,1019.31 2276.93,1019.24 2278.93,1019.14 2280.92,1019 2282.92,1018.82 2284.91,1018.59 2286.91,1018.33 2288.9,1018.04 2290.9,1017.73 
  2292.89,1017.42 
  "/>
</svg>
