<?xml version="1.0" encoding="utf-8"?>
<svg xmlns="http://www.w3.org/2000/svg" xmlns:xlink="http://www.w3.org/1999/xlink" width="800" height="300" viewBox="0 0 3200 1200">
<defs>
  <clipPath id="clip820">
    <rect x="0" y="0" width="3200" height="1200"/>
  </clipPath>
</defs>
<path clip-path="url(#clip820)" d="
M0 1200 L3200 1200 L3200 0 L0 0  Z
  " fill="#ffffff" fill-rule="evenodd" fill-opacity="1"/>
<defs>
  <clipPath id="clip821">
    <rect x="640" y="0" width="2241" height="1200"/>
  </clipPath>
</defs>
<path clip-path="url(#clip820)" d="
M110.74 1109.26 L1552.76 1109.26 L1552.76 47.2441 L110.74 47.2441  Z
  " fill="#ffffff" fill-rule="evenodd" fill-opacity="1"/>
<defs>
  <clipPath id="clip822">
    <rect x="110" y="47" width="1443" height="1063"/>
  </clipPath>
</defs>
<polyline clip-path="url(#clip822)" style="stroke:#000000; stroke-width:2; stroke-opacity:0.1; fill:none" points="
  151.552,1109.26 151.552,47.2441 
  "/>
<polyline clip-path="url(#clip822)" style="stroke:#000000; stroke-width:2; stroke-opacity:0.1; fill:none" points="
  491.65,1109.26 491.65,47.2441 
  "/>
<polyline clip-path="url(#clip822)" style="stroke:#000000; stroke-width:2; stroke-opacity:0.1; fill:none" points="
  831.748,1109.26 831.748,47.2441 
  "/>
<polyline clip-path="url(#clip822)" style="stroke:#000000; stroke-width:2; stroke-opacity:0.1; fill:none" points="
  1171.85,1109.26 1171.85,47.2441 
  "/>
<polyline clip-path="url(#clip822)" style="stroke:#000000; stroke-width:2; stroke-opacity:0.1; fill:none" points="
  1511.94,1109.26 1511.94,47.2441 
  "/>
<polyline clip-path="url(#clip820)" style="stroke:#000000; stroke-width:4; stroke-opacity:1; fill:none" points="
  110.74,1109.26 1552.76,1109.26 
  "/>
<polyline clip-path="url(#clip820)" style="stroke:#000000; stroke-width:4; stroke-opacity:1; fill:none" points="
  151.552,1109.26 151.552,1096.52 
  "/>
<polyline clip-path="url(#clip820)" style="stroke:#000000; stroke-width:4; stroke-opacity:1; fill:none" points="
  491.65,1109.26 491.65,1096.52 
  "/>
<polyline clip-path="url(#clip820)" style="stroke:#000000; stroke-width:4; stroke-opacity:1; fill:none" points="
  831.748,1109.26 831.748,1096.52 
  "/>
<polyline clip-path="url(#clip820)" style="stroke:#000000; stroke-width:4; stroke-opacity:1; fill:none" points="
  1171.85,1109.26 1171.85,1096.52 
  "/>
<polyline clip-path="url(#clip820)" style="stroke:#000000; stroke-width:4; stroke-opacity:1; fill:none" points="
  1511.94,1109.26 1511.94,1096.52 
  "/>
<path clip-path="url(#clip820)" d="M 0 0 M151.552 1144.85 Q147.941 1144.85 146.112 1148.42 Q144.307 1151.96 144.307 1159.09 Q144.307 1166.19 146.112 1169.76 Q147.941 1173.3 151.552 1173.3 Q155.186 1173.3 156.992 1169.76 Q158.82 1166.19 158.82 1159.09 Q158.82 1151.96 156.992 1148.42 Q155.186 1144.85 151.552 1144.85 M151.552 1141.15 Q157.362 1141.15 160.418 1145.75 Q163.496 1150.34 163.496 1159.09 Q163.496 1167.81 160.418 1172.42 Q157.362 1177 151.552 1177 Q145.742 1177 142.663 1172.42 Q139.608 1167.81 139.608 1159.09 Q139.608 1150.34 142.663 1145.75 Q145.742 1141.15 151.552 1141.15 Z" fill="#000000" fill-rule="evenodd" fill-opacity="1" /><path clip-path="url(#clip820)" d="M 0 0 M481.928 1141.77 L500.284 1141.77 L500.284 1145.71 L486.21 1145.71 L486.21 1154.18 Q487.229 1153.83 488.247 1153.67 Q489.266 1153.48 490.284 1153.48 Q496.071 1153.48 499.451 1156.66 Q502.83 1159.83 502.83 1165.24 Q502.83 1170.82 499.358 1173.92 Q495.886 1177 489.567 1177 Q487.391 1177 485.122 1176.63 Q482.877 1176.26 480.469 1175.52 L480.469 1170.82 Q482.553 1171.96 484.775 1172.51 Q486.997 1173.07 489.474 1173.07 Q493.479 1173.07 495.817 1170.96 Q498.155 1168.86 498.155 1165.24 Q498.155 1161.63 495.817 1159.53 Q493.479 1157.42 489.474 1157.42 Q487.599 1157.42 485.724 1157.84 Q483.872 1158.25 481.928 1159.13 L481.928 1141.77 Z" fill="#000000" fill-rule="evenodd" fill-opacity="1" /><path clip-path="url(#clip820)" d="M 0 0 M808.623 1172.4 L816.262 1172.4 L816.262 1146.03 L807.952 1147.7 L807.952 1143.44 L816.216 1141.77 L820.892 1141.77 L820.892 1172.4 L828.53 1172.4 L828.53 1176.33 L808.623 1176.33 L808.623 1172.4 Z" fill="#000000" fill-rule="evenodd" fill-opacity="1" /><path clip-path="url(#clip820)" d="M 0 0 M843.6 1144.85 Q839.989 1144.85 838.16 1148.42 Q836.354 1151.96 836.354 1159.09 Q836.354 1166.19 838.16 1169.76 Q839.989 1173.3 843.6 1173.3 Q847.234 1173.3 849.04 1169.76 Q850.868 1166.19 850.868 1159.09 Q850.868 1151.96 849.04 1148.42 Q847.234 1144.85 843.6 1144.85 M843.6 1141.15 Q849.41 1141.15 852.466 1145.75 Q855.544 1150.34 855.544 1159.09 Q855.544 1167.81 852.466 1172.42 Q849.41 1177 843.6 1177 Q837.79 1177 834.711 1172.42 Q831.655 1167.81 831.655 1159.09 Q831.655 1150.34 834.711 1145.75 Q837.79 1141.15 843.6 1141.15 Z" fill="#000000" fill-rule="evenodd" fill-opacity="1" /><path clip-path="url(#clip820)" d="M 0 0 M1149.22 1172.4 L1156.86 1172.4 L1156.86 1146.03 L1148.55 1147.7 L1148.55 1143.44 L1156.81 1141.77 L1161.49 1141.77 L1161.49 1172.4 L1169.13 1172.4 L1169.13 1176.33 L1149.22 1176.33 L1149.22 1172.4 Z" fill="#000000" fill-rule="evenodd" fill-opacity="1" /><path clip-path="url(#clip820)" d="M 0 0 M1174.24 1141.77 L1192.6 1141.77 L1192.6 1145.71 L1178.52 1145.71 L1178.52 1154.18 Q1179.54 1153.83 1180.56 1153.67 Q1181.58 1153.48 1182.6 1153.48 Q1188.39 1153.48 1191.76 1156.66 Q1195.14 1159.83 1195.14 1165.24 Q1195.14 1170.82 1191.67 1173.92 Q1188.2 1177 1181.88 1177 Q1179.7 1177 1177.44 1176.63 Q1175.19 1176.26 1172.78 1175.52 L1172.78 1170.82 Q1174.87 1171.96 1177.09 1172.51 Q1179.31 1173.07 1181.79 1173.07 Q1185.79 1173.07 1188.13 1170.96 Q1190.47 1168.86 1190.47 1165.24 Q1190.47 1161.63 1188.13 1159.53 Q1185.79 1157.42 1181.79 1157.42 Q1179.91 1157.42 1178.04 1157.84 Q1176.19 1158.25 1174.24 1159.13 L1174.24 1141.77 Z" fill="#000000" fill-rule="evenodd" fill-opacity="1" /><path clip-path="url(#clip820)" d="M 0 0 M1493.09 1172.4 L1509.41 1172.4 L1509.41 1176.33 L1487.47 1176.33 L1487.47 1172.4 Q1490.13 1169.64 1494.71 1165.01 Q1499.32 1160.36 1500.5 1159.02 Q1502.74 1156.49 1503.62 1154.76 Q1504.53 1153 1504.53 1151.31 Q1504.53 1148.55 1502.58 1146.82 Q1500.66 1145.08 1497.56 1145.08 Q1495.36 1145.08 1492.9 1145.85 Q1490.47 1146.61 1487.7 1148.16 L1487.7 1143.44 Q1490.52 1142.3 1492.97 1141.73 Q1495.43 1141.15 1497.47 1141.15 Q1502.84 1141.15 1506.03 1143.83 Q1509.22 1146.52 1509.22 1151.01 Q1509.22 1153.14 1508.41 1155.06 Q1507.63 1156.96 1505.52 1159.55 Q1504.94 1160.22 1501.84 1163.44 Q1498.74 1166.63 1493.09 1172.4 Z" fill="#000000" fill-rule="evenodd" fill-opacity="1" /><path clip-path="url(#clip820)" d="M 0 0 M1524.48 1144.85 Q1520.87 1144.85 1519.04 1148.42 Q1517.23 1151.96 1517.23 1159.09 Q1517.23 1166.19 1519.04 1169.76 Q1520.87 1173.3 1524.48 1173.3 Q1528.11 1173.3 1529.92 1169.76 Q1531.75 1166.19 1531.75 1159.09 Q1531.75 1151.96 1529.92 1148.42 Q1528.11 1144.85 1524.48 1144.85 M1524.48 1141.15 Q1530.29 1141.15 1533.34 1145.75 Q1536.42 1150.34 1536.42 1159.09 Q1536.42 1167.81 1533.34 1172.42 Q1530.29 1177 1524.48 1177 Q1518.67 1177 1515.59 1172.42 Q1512.53 1167.81 1512.53 1159.09 Q1512.53 1150.34 1515.59 1145.75 Q1518.67 1141.15 1524.48 1141.15 Z" fill="#000000" fill-rule="evenodd" fill-opacity="1" /><path clip-path="url(#clip820)" d="M 0 0 M790.53 1204.35 L790.53 1214.48 L802.593 1214.48 L802.593 1219.03 L790.53 1219.03 L790.53 1238.38 Q790.53 1242.74 791.708 1243.98 Q792.917 1245.22 796.578 1245.22 L802.593 1245.22 L802.593 1250.12 L796.578 1250.12 Q789.798 1250.12 787.22 1247.61 Q784.642 1245.06 784.642 1238.38 L784.642 1219.03 L780.345 1219.03 L780.345 1214.48 L784.642 1214.48 L784.642 1204.35 L790.53 1204.35 Z" fill="#000000" fill-rule="evenodd" fill-opacity="1" /><path clip-path="url(#clip820)" d="M 0 0 M808.991 1250.12 L808.991 1202.6 L838.559 1202.6 L838.559 1208.01 L815.42 1208.01 L815.42 1250.12 L808.991 1250.12 Z" fill="#000000" fill-rule="evenodd" fill-opacity="1" /><path clip-path="url(#clip820)" d="M 0 0 M843.525 1246.62 L850.018 1246.62 L850.018 1227.18 L842.92 1228.48 L842.92 1224.79 L850.24 1223.55 L854.601 1223.55 L854.601 1246.62 L861.126 1246.62 L861.126 1250.12 L843.525 1250.12 L843.525 1246.62 Z" fill="#000000" fill-rule="evenodd" fill-opacity="1" /><path clip-path="url(#clip820)" d="M 0 0 M869.656 1246.5 L883.151 1246.5 L883.151 1250.12 L864.118 1250.12 L864.118 1246.62 Q865.2 1245.64 867.205 1243.85 Q878.154 1234.15 878.154 1231.15 Q878.154 1229.05 876.499 1227.78 Q874.844 1226.48 872.138 1226.48 Q870.483 1226.48 868.542 1227.05 Q866.6 1227.59 864.309 1228.7 L864.309 1224.79 Q866.759 1223.9 868.86 1223.45 Q870.993 1223.01 872.807 1223.01 Q877.422 1223.01 880.191 1225.11 Q882.96 1227.21 882.96 1230.64 Q882.96 1235.07 872.425 1244.11 Q870.642 1245.64 869.656 1246.5 Z" fill="#000000" fill-rule="evenodd" fill-opacity="1" /><polyline clip-path="url(#clip822)" style="stroke:#000000; stroke-width:2; stroke-opacity:0.1; fill:none" points="
  110.74,1079.2 1552.76,1079.2 
  "/>
<polyline clip-path="url(#clip822)" style="stroke:#000000; stroke-width:2; stroke-opacity:0.1; fill:none" points="
  110.74,928.055 1552.76,928.055 
  "/>
<polyline clip-path="url(#clip822)" style="stroke:#000000; stroke-width:2; stroke-opacity:0.1; fill:none" points="
  110.74,776.908 1552.76,776.908 
  "/>
<polyline clip-path="url(#clip822)" style="stroke:#000000; stroke-width:2; stroke-opacity:0.1; fill:none" points="
  110.74,625.76 1552.76,625.76 
  "/>
<polyline clip-path="url(#clip822)" style="stroke:#000000; stroke-width:2; stroke-opacity:0.1; fill:none" points="
  110.74,474.613 1552.76,474.613 
  "/>
<polyline clip-path="url(#clip822)" style="stroke:#000000; stroke-width:2; stroke-opacity:0.1; fill:none" points="
  110.74,323.465 1552.76,323.465 
  "/>
<polyline clip-path="url(#clip822)" style="stroke:#000000; stroke-width:2; stroke-opacity:0.1; fill:none" points="
  110.74,172.318 1552.76,172.318 
  "/>
<polyline clip-path="url(#clip820)" style="stroke:#000000; stroke-width:4; stroke-opacity:1; fill:none" points="
  110.74,1109.26 110.74,47.2441 
  "/>
<polyline clip-path="url(#clip820)" style="stroke:#000000; stroke-width:4; stroke-opacity:1; fill:none" points="
  110.74,1079.2 128.044,1079.2 
  "/>
<polyline clip-path="url(#clip820)" style="stroke:#000000; stroke-width:4; stroke-opacity:1; fill:none" points="
  110.74,928.055 128.044,928.055 
  "/>
<polyline clip-path="url(#clip820)" style="stroke:#000000; stroke-width:4; stroke-opacity:1; fill:none" points="
  110.74,776.908 128.044,776.908 
  "/>
<polyline clip-path="url(#clip820)" style="stroke:#000000; stroke-width:4; stroke-opacity:1; fill:none" points="
  110.74,625.76 128.044,625.76 
  "/>
<polyline clip-path="url(#clip820)" style="stroke:#000000; stroke-width:4; stroke-opacity:1; fill:none" points="
  110.74,474.613 128.044,474.613 
  "/>
<polyline clip-path="url(#clip820)" style="stroke:#000000; stroke-width:4; stroke-opacity:1; fill:none" points="
  110.74,323.465 128.044,323.465 
  "/>
<polyline clip-path="url(#clip820)" style="stroke:#000000; stroke-width:4; stroke-opacity:1; fill:none" points="
  110.74,172.318 128.044,172.318 
  "/>
<path clip-path="url(#clip820)" d="M 0 0 M50.7958 1065 Q47.1847 1065 45.356 1068.57 Q43.5504 1072.11 43.5504 1079.24 Q43.5504 1086.34 45.356 1089.91 Q47.1847 1093.45 50.7958 1093.45 Q54.43 1093.45 56.2356 1089.91 Q58.0643 1086.34 58.0643 1079.24 Q58.0643 1072.11 56.2356 1068.57 Q54.43 1065 50.7958 1065 M50.7958 1061.3 Q56.6059 1061.3 59.6615 1065.9 Q62.7402 1070.49 62.7402 1079.24 Q62.7402 1087.96 59.6615 1092.57 Q56.6059 1097.15 50.7958 1097.15 Q44.9856 1097.15 41.9069 1092.57 Q38.8514 1087.96 38.8514 1079.24 Q38.8514 1070.49 41.9069 1065.9 Q44.9856 1061.3 50.7958 1061.3 Z" fill="#000000" fill-rule="evenodd" fill-opacity="1" /><path clip-path="url(#clip820)" d="M 0 0 M46.4208 941.4 L62.7402 941.4 L62.7402 945.335 L40.7958 945.335 L40.7958 941.4 Q43.4579 938.646 48.0412 934.016 Q52.6476 929.363 53.8282 928.021 Q56.0735 925.497 56.9532 923.761 Q57.8559 922.002 57.8559 920.312 Q57.8559 917.558 55.9115 915.822 Q53.9902 914.085 50.8884 914.085 Q48.6893 914.085 46.2356 914.849 Q43.8051 915.613 41.0273 917.164 L41.0273 912.442 Q43.8514 911.308 46.3051 910.729 Q48.7588 910.15 50.7958 910.15 Q56.1661 910.15 59.3605 912.836 Q62.555 915.521 62.555 920.011 Q62.555 922.141 61.7448 924.062 Q60.9578 925.96 58.8513 928.553 Q58.2726 929.224 55.1708 932.442 Q52.0689 935.636 46.4208 941.4 Z" fill="#000000" fill-rule="evenodd" fill-opacity="1" /><path clip-path="url(#clip820)" d="M 0 0 M53.1569 763.702 L41.3514 782.151 L53.1569 782.151 L53.1569 763.702 M51.93 759.628 L57.8096 759.628 L57.8096 782.151 L62.7402 782.151 L62.7402 786.04 L57.8096 786.04 L57.8096 794.188 L53.1569 794.188 L53.1569 786.04 L37.5551 786.04 L37.5551 781.526 L51.93 759.628 Z" fill="#000000" fill-rule="evenodd" fill-opacity="1" /><path clip-path="url(#clip820)" d="M 0 0 M51.2124 623.897 Q48.0643 623.897 46.2125 626.05 Q44.3838 628.203 44.3838 631.953 Q44.3838 635.679 46.2125 637.855 Q48.0643 640.008 51.2124 640.008 Q54.3606 640.008 56.1893 637.855 Q58.0411 635.679 58.0411 631.953 Q58.0411 628.203 56.1893 626.05 Q54.3606 623.897 51.2124 623.897 M60.4948 609.244 L60.4948 613.504 Q58.7355 612.67 56.93 612.23 Q55.1476 611.791 53.3884 611.791 Q48.7588 611.791 46.3051 614.916 Q43.8745 618.041 43.5273 624.36 Q44.893 622.346 46.9532 621.281 Q49.0134 620.193 51.4902 620.193 Q56.6985 620.193 59.7078 623.365 Q62.7402 626.513 62.7402 631.953 Q62.7402 637.277 59.592 640.494 Q56.4439 643.712 51.2124 643.712 Q45.2171 643.712 42.0458 639.128 Q38.8745 634.522 38.8745 625.795 Q38.8745 617.601 42.7634 612.74 Q46.6523 607.855 53.2032 607.855 Q54.9624 607.855 56.7448 608.203 Q58.5504 608.55 60.4948 609.244 Z" fill="#000000" fill-rule="evenodd" fill-opacity="1" /><path clip-path="url(#clip820)" d="M 0 0 M50.8884 475.481 Q47.5551 475.481 45.6338 477.263 Q43.7356 479.046 43.7356 482.171 Q43.7356 485.296 45.6338 487.078 Q47.5551 488.861 50.8884 488.861 Q54.2217 488.861 56.143 487.078 Q58.0643 485.273 58.0643 482.171 Q58.0643 479.046 56.143 477.263 Q54.2448 475.481 50.8884 475.481 M46.2125 473.49 Q43.2032 472.75 41.5134 470.689 Q39.8468 468.629 39.8468 465.666 Q39.8468 461.523 42.7866 459.115 Q45.7495 456.708 50.8884 456.708 Q56.0504 456.708 58.9902 459.115 Q61.93 461.523 61.93 465.666 Q61.93 468.629 60.2402 470.689 Q58.5735 472.75 55.5874 473.49 Q58.967 474.277 60.842 476.569 Q62.7402 478.861 62.7402 482.171 Q62.7402 487.194 59.6615 489.879 Q56.6059 492.564 50.8884 492.564 Q45.1708 492.564 42.0921 489.879 Q39.0366 487.194 39.0366 482.171 Q39.0366 478.861 40.9347 476.569 Q42.8329 474.277 46.2125 473.49 M44.4995 466.106 Q44.4995 468.791 46.1662 470.296 Q47.856 471.8 50.8884 471.8 Q53.8976 471.8 55.5874 470.296 Q57.3004 468.791 57.3004 466.106 Q57.3004 463.421 55.5874 461.916 Q53.8976 460.412 50.8884 460.412 Q47.856 460.412 46.1662 461.916 Q44.4995 463.421 44.4995 466.106 Z" fill="#000000" fill-rule="evenodd" fill-opacity="1" /><path clip-path="url(#clip820)" d="M 0 0 M15.8191 336.81 L23.458 336.81 L23.458 310.445 L15.1478 312.111 L15.1478 307.852 L23.4117 306.185 L28.0876 306.185 L28.0876 336.81 L35.7264 336.81 L35.7264 340.745 L15.8191 340.745 L15.8191 336.81 Z" fill="#000000" fill-rule="evenodd" fill-opacity="1" /><path clip-path="url(#clip820)" d="M 0 0 M50.7958 309.264 Q47.1847 309.264 45.356 312.829 Q43.5504 316.371 43.5504 323.5 Q43.5504 330.607 45.356 334.171 Q47.1847 337.713 50.7958 337.713 Q54.43 337.713 56.2356 334.171 Q58.0643 330.607 58.0643 323.5 Q58.0643 316.371 56.2356 312.829 Q54.43 309.264 50.7958 309.264 M50.7958 305.56 Q56.6059 305.56 59.6615 310.167 Q62.7402 314.75 62.7402 323.5 Q62.7402 332.227 59.6615 336.833 Q56.6059 341.417 50.7958 341.417 Q44.9856 341.417 41.9069 336.833 Q38.8514 332.227 38.8514 323.5 Q38.8514 314.75 41.9069 310.167 Q44.9856 305.56 50.7958 305.56 Z" fill="#000000" fill-rule="evenodd" fill-opacity="1" /><path clip-path="url(#clip820)" d="M 0 0 M17.4163 185.663 L25.0552 185.663 L25.0552 159.297 L16.745 160.964 L16.745 156.705 L25.0089 155.038 L29.6848 155.038 L29.6848 185.663 L37.3236 185.663 L37.3236 189.598 L17.4163 189.598 L17.4163 185.663 Z" fill="#000000" fill-rule="evenodd" fill-opacity="1" /><path clip-path="url(#clip820)" d="M 0 0 M46.4208 185.663 L62.7402 185.663 L62.7402 189.598 L40.7958 189.598 L40.7958 185.663 Q43.4579 182.908 48.0412 178.279 Q52.6476 173.626 53.8282 172.283 Q56.0735 169.76 56.9532 168.024 Q57.8559 166.265 57.8559 164.575 Q57.8559 161.82 55.9115 160.084 Q53.9902 158.348 50.8884 158.348 Q48.6893 158.348 46.2356 159.112 Q43.8051 159.876 41.0273 161.427 L41.0273 156.705 Q43.8514 155.57 46.3051 154.992 Q48.7588 154.413 50.7958 154.413 Q56.1661 154.413 59.3605 157.098 Q62.555 159.783 62.555 164.274 Q62.555 166.404 61.7448 168.325 Q60.9578 170.223 58.8513 172.816 Q58.2726 173.487 55.1708 176.705 Q52.0689 179.899 46.4208 185.663 Z" fill="#000000" fill-rule="evenodd" fill-opacity="1" /><path clip-path="url(#clip820)" d="M 0 0 M-35.5421 644.296 L-64.5697 635.321 L-64.5697 629.91 L-35.5421 638.885 L-6.51448 629.91 L-6.51448 635.321 L-35.5421 644.296 Z" fill="#000000" fill-rule="evenodd" fill-opacity="1" /><path clip-path="url(#clip820)" d="M 0 0 M-33.0276 607.566 Q-33.0276 614.664 -31.4044 617.401 Q-29.7811 620.138 -25.8662 620.138 Q-22.747 620.138 -20.901 618.101 Q-19.0867 616.032 -19.0867 612.499 Q-19.0867 607.63 -22.5242 604.701 Q-25.9935 601.741 -31.7227 601.741 L-33.0276 601.741 L-33.0276 607.566 M-35.4466 595.885 L-15.1082 595.885 L-15.1082 601.741 L-20.519 601.741 Q-17.2725 603.747 -15.7129 606.739 Q-14.1852 609.73 -14.1852 614.059 Q-14.1852 619.534 -17.2407 622.78 Q-20.3281 625.995 -25.4843 625.995 Q-31.4999 625.995 -34.5554 621.984 Q-37.611 617.942 -37.611 609.953 L-37.611 601.741 L-38.1839 601.741 Q-42.2261 601.741 -44.4223 604.415 Q-46.6503 607.057 -46.6503 611.863 Q-46.6503 614.918 -45.9182 617.815 Q-45.1861 620.711 -43.722 623.385 L-49.1329 623.385 Q-50.3742 620.17 -50.9789 617.146 Q-51.6155 614.123 -51.6155 611.258 Q-51.6155 603.524 -47.6051 599.704 Q-43.5947 595.885 -35.4466 595.885 Z" fill="#000000" fill-rule="evenodd" fill-opacity="1" /><path clip-path="url(#clip820)" d="M 0 0 M-59.2544 577.011 L-49.3239 577.011 L-49.3239 565.839 L-46.3001 565.839 L-46.3001 577.011 L-36.3696 577.011 L-36.3696 580.353 L-46.3001 580.353 L-46.3001 591.524 L-49.3239 591.524 L-49.3239 580.353 L-59.2544 580.353 L-59.2544 577.011 Z" fill="#000000" fill-rule="evenodd" fill-opacity="1" /><path clip-path="url(#clip820)" d="M 0 0 M-33.0276 543.495 Q-33.0276 550.593 -31.4044 553.33 Q-29.7811 556.067 -25.8662 556.067 Q-22.747 556.067 -20.901 554.03 Q-19.0867 551.962 -19.0867 548.429 Q-19.0867 543.559 -22.5242 540.631 Q-25.9935 537.671 -31.7227 537.671 L-33.0276 537.671 L-33.0276 543.495 M-35.4466 531.814 L-15.1082 531.814 L-15.1082 537.671 L-20.519 537.671 Q-17.2725 539.676 -15.7129 542.668 Q-14.1852 545.66 -14.1852 549.988 Q-14.1852 555.463 -17.2407 558.709 Q-20.3281 561.924 -25.4843 561.924 Q-31.4999 561.924 -34.5554 557.914 Q-37.611 553.871 -37.611 545.882 L-37.611 537.671 L-38.1839 537.671 Q-42.2261 537.671 -44.4223 540.344 Q-46.6503 542.986 -46.6503 547.792 Q-46.6503 550.848 -45.9182 553.744 Q-45.1861 556.64 -43.722 559.314 L-49.1329 559.314 Q-50.3742 556.099 -50.9789 553.076 Q-51.6155 550.052 -51.6155 547.187 Q-51.6155 539.453 -47.6051 535.634 Q-43.5947 531.814 -35.4466 531.814 Z" fill="#000000" fill-rule="evenodd" fill-opacity="1" /><path clip-path="url(#clip820)" d="M 0 0 M-35.5421 512.208 L-6.51448 521.183 L-6.51448 526.594 L-35.5421 517.619 L-64.5697 526.594 L-64.5697 521.183 L-35.5421 512.208 Z" fill="#000000" fill-rule="evenodd" fill-opacity="1" /><polyline clip-path="url(#clip822)" style="stroke:#009af9; stroke-width:4; stroke-opacity:1; fill:none" points="
  151.552,1079.2 151.559,1079.2 151.606,1079.2 151.691,1079.2 151.792,1079.2 151.918,1079.2 152.062,1079.2 152.226,1079.2 152.407,1079.2 152.605,1079.2 
  152.818,1079.2 153.045,1079.2 153.284,1079.2 153.536,1079.2 153.8,1079.2 154.075,1079.2 154.361,1079.2 154.657,1079.2 154.965,1079.19 155.281,1079.19 
  155.607,1079.18 155.94,1079.17 156.279,1079.16 156.623,1079.15 156.973,1079.13 157.327,1079.1 157.687,1079.07 158.052,1079.03 158.424,1078.98 158.803,1078.93 
  159.191,1078.86 159.588,1078.78 159.997,1078.68 160.416,1078.57 160.847,1078.44 161.287,1078.28 161.736,1078.1 162.191,1077.9 162.652,1077.67 163.119,1077.42 
  163.592,1077.13 164.073,1076.81 164.562,1076.46 165.061,1076.07 165.573,1075.64 166.099,1075.16 166.64,1074.63 167.197,1074.05 167.767,1073.42 168.347,1072.73 
  168.937,1072 169.536,1071.22 170.144,1070.39 170.762,1069.51 171.393,1068.58 172.04,1067.59 172.706,1066.53 173.395,1065.41 174.112,1064.22 174.859,1062.94 
  175.64,1061.58 176.451,1060.14 177.287,1058.64 178.141,1057.08 179.011,1055.48 179.896,1053.84 180.798,1052.16 181.717,1050.44 182.656,1048.69 183.618,1046.88 
  184.608,1045.02 185.631,1043.1 186.695,1041.1 187.807,1039 188.977,1036.79 190.212,1034.45 191.501,1032 192.827,1029.47 194.183,1026.87 195.569,1024.19 
  196.994,1021.41 198.468,1018.51 200.009,1015.45 201.637,1012.17 203.38,1008.63 205.26,1004.75 207.256,1000.58 209.325,996.191 211.483,991.547 213.75,986.597 
  216.137,981.307 218.615,975.732 221.151,969.943 223.741,963.946 226.387,957.734 229.092,951.297 231.859,944.622 234.687,937.711 237.567,930.581 240.484,923.271 
  243.422,915.818 246.372,908.251 249.328,900.585 252.288,892.831 255.25,884.994 258.216,877.079 261.184,869.089 264.155,861.029 267.129,852.904 270.106,844.718 
  273.085,836.477 276.066,828.185 279.049,819.847 282.035,811.467 285.023,803.049 288.014,794.596 291.009,786.112 294.007,777.6 297.009,769.065 300.015,760.508 
  303.027,751.933 306.043,743.344 309.065,734.743 312.094,726.134 315.129,717.519 318.171,708.901 321.221,700.283 324.279,691.668 327.345,683.058 330.42,674.456 
  333.505,665.865 336.6,657.286 339.705,648.723 342.822,640.178 345.95,631.654 349.09,623.151 352.243,614.674 355.409,606.223 358.589,597.801 361.782,589.41 
  364.991,581.052 368.215,572.729 371.455,564.443 374.711,556.196 377.985,547.99 381.275,539.825 384.584,531.705 387.912,523.631 391.259,515.604 394.626,507.626 
  398.014,499.698 401.423,491.823 404.853,484.001 408.306,476.235 411.782,468.525 415.281,460.873 418.805,453.28 422.354,445.747 425.929,438.276 429.529,430.868 
  433.157,423.524 436.813,416.246 440.497,409.034 444.21,401.889 447.954,394.813 451.728,387.806 455.533,380.87 459.371,374.006 463.242,367.214 467.147,360.495 
  471.086,353.85 475.061,347.28 479.073,340.786 483.122,334.368 487.21,328.028 491.336,321.765 495.503,315.581 499.712,309.476 503.962,303.451 508.256,297.506 
  512.595,291.642 516.979,285.86 521.409,280.159 525.888,274.541 530.415,269.005 534.993,263.552 539.623,258.183 544.305,252.898 549.041,247.696 553.833,242.58 
  558.682,237.548 563.589,232.601 568.555,227.74 573.582,222.965 578.671,218.276 583.823,213.674 589.039,209.161 594.317,204.736 599.659,200.403 605.062,196.162 
  610.522,192.018 616.034,187.974 621.591,184.036 627.184,180.208 632.802,176.496 638.438,172.901 644.087,169.423 649.749,166.061 655.423,162.809 661.11,159.666 
  666.812,156.628 672.526,153.691 678.253,150.854 683.993,148.113 689.744,145.467 695.508,142.911 701.282,140.444 707.069,138.063 712.867,135.765 718.678,133.547 
  724.5,131.407 730.334,129.342 736.181,127.35 742.041,125.429 747.914,123.576 753.801,121.788 759.702,120.065 765.617,118.403 771.544,116.8 777.481,115.257 
  783.423,113.772 789.357,112.345 795.269,110.979 801.143,109.672 806.976,108.425 812.781,107.23 818.585,106.08 824.41,104.97 830.266,103.896 836.151,102.859 
  842.056,101.857 847.975,100.892 853.906,99.9627 859.847,99.0675 865.794,98.2061 871.733,97.3793 877.64,96.5888 883.491,95.8359 889.28,95.1193 895.034,94.434 
  900.791,93.7741 906.581,93.1356 912.409,92.5174 918.263,91.9201 924.133,91.3443 930.014,90.7895 935.909,90.255 941.821,89.7397 947.75,89.243 953.693,88.7646 
  959.638,88.3047 965.568,87.8638 971.461,87.4426 977.301,87.0414 983.091,86.6589 988.858,86.2923 994.637,85.9389 1000.45,85.5972 1006.29,85.2666 1012.16,84.9474 
  1018.05,84.6399 1023.94,84.3436 1029.85,84.0582 1035.78,83.7832 1041.72,83.5183 1047.67,83.2635 1053.6,83.0191 1059.5,82.7856 1065.35,82.5633 1071.14,82.3514 
  1076.91,82.1487 1082.68,81.9534 1088.48,81.7646 1094.32,81.5819 1100.18,81.4055 1106.06,81.2355 1111.95,81.0717 1117.85,80.914 1123.77,80.762 1129.71,80.6155 
  1135.66,80.4746 1141.6,80.3393 1147.51,80.2099 1153.38,80.0866 1159.19,79.9691 1164.96,79.8569 1170.73,79.749 1176.52,79.6449 1182.34,79.5441 1188.2,79.4467 
  1194.08,79.3527 1199.96,79.2623 1205.87,79.1751 1211.78,79.0912 1217.71,79.0103 1223.66,78.9324 1229.6,78.8576 1235.53,78.786 1241.41,78.7176 1247.23,78.6526 
  1253.01,78.5905 1258.78,78.531 1264.56,78.4735 1270.37,78.4179 1276.22,78.3642 1282.09,78.3123 1287.98,78.2624 1293.88,78.2143 1299.79,78.168 1305.71,78.1233 
  1311.66,78.0803 1317.6,78.039 1323.54,77.9993 1329.43,77.9615 1335.27,77.9254 1341.06,77.8911 1346.83,77.8582 1352.6,77.8265 1358.41,77.7959 1364.25,77.7663 
  1370.11,77.7377 1375.99,77.7101 1381.89,77.6835 1387.79,77.658 1393.72,77.6333 1399.66,77.6096 1405.6,77.5868 1411.54,77.5648 1417.45,77.5439 1423.31,77.5239 
  1429.11,77.5049 1434.88,77.4868 1440.65,77.4693 1446.44,77.4524 1452.27,77.4361 1458.13,77.4203 1464.01,77.4051 1469.9,77.3904 1475.8,77.3763 1481.72,77.3627 
  1487.66,77.3496 1493.6,77.337 1499.54,77.3249 1505.46,77.3133 1511.34,77.3023 1511.94,77.3011 
  "/>
<path clip-path="url(#clip820)" d="
M1710.74 1109.26 L3152.76 1109.26 L3152.76 47.2441 L1710.74 47.2441  Z
  " fill="#ffffff" fill-rule="evenodd" fill-opacity="1"/>
<defs>
  <clipPath id="clip823">
    <rect x="1710" y="47" width="1443" height="1063"/>
  </clipPath>
</defs>
<polyline clip-path="url(#clip823)" style="stroke:#000000; stroke-width:2; stroke-opacity:0.1; fill:none" points="
  1751.55,1109.26 1751.55,47.2441 
  "/>
<polyline clip-path="url(#clip823)" style="stroke:#000000; stroke-width:2; stroke-opacity:0.1; fill:none" points="
  2091.65,1109.26 2091.65,47.2441 
  "/>
<polyline clip-path="url(#clip823)" style="stroke:#000000; stroke-width:2; stroke-opacity:0.1; fill:none" points="
  2431.75,1109.26 2431.75,47.2441 
  "/>
<polyline clip-path="url(#clip823)" style="stroke:#000000; stroke-width:2; stroke-opacity:0.1; fill:none" points="
  2771.85,1109.26 2771.85,47.2441 
  "/>
<polyline clip-path="url(#clip823)" style="stroke:#000000; stroke-width:2; stroke-opacity:0.1; fill:none" points="
  3111.94,1109.26 3111.94,47.2441 
  "/>
<polyline clip-path="url(#clip820)" style="stroke:#000000; stroke-width:4; stroke-opacity:1; fill:none" points="
  1710.74,1109.26 3152.76,1109.26 
  "/>
<polyline clip-path="url(#clip820)" style="stroke:#000000; stroke-width:4; stroke-opacity:1; fill:none" points="
  1751.55,1109.26 1751.55,1096.52 
  "/>
<polyline clip-path="url(#clip820)" style="stroke:#000000; stroke-width:4; stroke-opacity:1; fill:none" points="
  2091.65,1109.26 2091.65,1096.52 
  "/>
<polyline clip-path="url(#clip820)" style="stroke:#000000; stroke-width:4; stroke-opacity:1; fill:none" points="
  2431.75,1109.26 2431.75,1096.52 
  "/>
<polyline clip-path="url(#clip820)" style="stroke:#000000; stroke-width:4; stroke-opacity:1; fill:none" points="
  2771.85,1109.26 2771.85,1096.52 
  "/>
<polyline clip-path="url(#clip820)" style="stroke:#000000; stroke-width:4; stroke-opacity:1; fill:none" points="
  3111.94,1109.26 3111.94,1096.52 
  "/>
<path clip-path="url(#clip820)" d="M 0 0 M1751.55 1144.85 Q1747.94 1144.85 1746.11 1148.42 Q1744.31 1151.96 1744.31 1159.09 Q1744.31 1166.19 1746.11 1169.76 Q1747.94 1173.3 1751.55 1173.3 Q1755.19 1173.3 1756.99 1169.76 Q1758.82 1166.19 1758.82 1159.09 Q1758.82 1151.96 1756.99 1148.42 Q1755.19 1144.85 1751.55 1144.85 M1751.55 1141.15 Q1757.36 1141.15 1760.42 1145.75 Q1763.5 1150.34 1763.5 1159.09 Q1763.5 1167.81 1760.42 1172.42 Q1757.36 1177 1751.55 1177 Q1745.74 1177 1742.66 1172.42 Q1739.61 1167.81 1739.61 1159.09 Q1739.61 1150.34 1742.66 1145.75 Q1745.74 1141.15 1751.55 1141.15 Z" fill="#000000" fill-rule="evenodd" fill-opacity="1" /><path clip-path="url(#clip820)" d="M 0 0 M2081.93 1141.77 L2100.28 1141.77 L2100.28 1145.71 L2086.21 1145.71 L2086.21 1154.18 Q2087.23 1153.83 2088.25 1153.67 Q2089.27 1153.48 2090.28 1153.48 Q2096.07 1153.48 2099.45 1156.66 Q2102.83 1159.83 2102.83 1165.24 Q2102.83 1170.82 2099.36 1173.92 Q2095.89 1177 2089.57 1177 Q2087.39 1177 2085.12 1176.63 Q2082.88 1176.26 2080.47 1175.52 L2080.47 1170.82 Q2082.55 1171.96 2084.78 1172.51 Q2087 1173.07 2089.47 1173.07 Q2093.48 1173.07 2095.82 1170.96 Q2098.15 1168.86 2098.15 1165.24 Q2098.15 1161.63 2095.82 1159.53 Q2093.48 1157.42 2089.47 1157.42 Q2087.6 1157.42 2085.72 1157.84 Q2083.87 1158.25 2081.93 1159.13 L2081.93 1141.77 Z" fill="#000000" fill-rule="evenodd" fill-opacity="1" /><path clip-path="url(#clip820)" d="M 0 0 M2408.62 1172.4 L2416.26 1172.4 L2416.26 1146.03 L2407.95 1147.7 L2407.95 1143.44 L2416.22 1141.77 L2420.89 1141.77 L2420.89 1172.4 L2428.53 1172.4 L2428.53 1176.33 L2408.62 1176.33 L2408.62 1172.4 Z" fill="#000000" fill-rule="evenodd" fill-opacity="1" /><path clip-path="url(#clip820)" d="M 0 0 M2443.6 1144.85 Q2439.99 1144.85 2438.16 1148.42 Q2436.35 1151.96 2436.35 1159.09 Q2436.35 1166.19 2438.16 1169.76 Q2439.99 1173.3 2443.6 1173.3 Q2447.23 1173.3 2449.04 1169.76 Q2450.87 1166.19 2450.87 1159.09 Q2450.87 1151.96 2449.04 1148.42 Q2447.23 1144.85 2443.6 1144.85 M2443.6 1141.15 Q2449.41 1141.15 2452.47 1145.75 Q2455.54 1150.34 2455.54 1159.09 Q2455.54 1167.81 2452.47 1172.42 Q2449.41 1177 2443.6 1177 Q2437.79 1177 2434.71 1172.42 Q2431.66 1167.81 2431.66 1159.09 Q2431.66 1150.34 2434.71 1145.75 Q2437.79 1141.15 2443.6 1141.15 Z" fill="#000000" fill-rule="evenodd" fill-opacity="1" /><path clip-path="url(#clip820)" d="M 0 0 M2749.22 1172.4 L2756.86 1172.4 L2756.86 1146.03 L2748.55 1147.7 L2748.55 1143.44 L2756.81 1141.77 L2761.49 1141.77 L2761.49 1172.4 L2769.13 1172.4 L2769.13 1176.33 L2749.22 1176.33 L2749.22 1172.4 Z" fill="#000000" fill-rule="evenodd" fill-opacity="1" /><path clip-path="url(#clip820)" d="M 0 0 M2774.24 1141.77 L2792.6 1141.77 L2792.6 1145.71 L2778.52 1145.71 L2778.52 1154.18 Q2779.54 1153.83 2780.56 1153.67 Q2781.58 1153.48 2782.6 1153.48 Q2788.39 1153.48 2791.76 1156.66 Q2795.14 1159.83 2795.14 1165.24 Q2795.14 1170.82 2791.67 1173.92 Q2788.2 1177 2781.88 1177 Q2779.7 1177 2777.44 1176.63 Q2775.19 1176.26 2772.78 1175.52 L2772.78 1170.82 Q2774.87 1171.96 2777.09 1172.51 Q2779.31 1173.07 2781.79 1173.07 Q2785.79 1173.07 2788.13 1170.96 Q2790.47 1168.86 2790.47 1165.24 Q2790.47 1161.63 2788.13 1159.53 Q2785.79 1157.42 2781.79 1157.42 Q2779.91 1157.42 2778.04 1157.84 Q2776.19 1158.25 2774.24 1159.13 L2774.24 1141.77 Z" fill="#000000" fill-rule="evenodd" fill-opacity="1" /><path clip-path="url(#clip820)" d="M 0 0 M3093.09 1172.4 L3109.41 1172.4 L3109.41 1176.33 L3087.47 1176.33 L3087.47 1172.4 Q3090.13 1169.64 3094.71 1165.01 Q3099.32 1160.36 3100.5 1159.02 Q3102.74 1156.49 3103.62 1154.76 Q3104.53 1153 3104.53 1151.31 Q3104.53 1148.55 3102.58 1146.82 Q3100.66 1145.08 3097.56 1145.08 Q3095.36 1145.08 3092.9 1145.85 Q3090.47 1146.61 3087.7 1148.16 L3087.7 1143.44 Q3090.52 1142.3 3092.97 1141.73 Q3095.43 1141.15 3097.47 1141.15 Q3102.84 1141.15 3106.03 1143.83 Q3109.22 1146.52 3109.22 1151.01 Q3109.22 1153.14 3108.41 1155.06 Q3107.63 1156.96 3105.52 1159.55 Q3104.94 1160.22 3101.84 1163.44 Q3098.74 1166.63 3093.09 1172.4 Z" fill="#000000" fill-rule="evenodd" fill-opacity="1" /><path clip-path="url(#clip820)" d="M 0 0 M3124.48 1144.85 Q3120.87 1144.85 3119.04 1148.42 Q3117.23 1151.96 3117.23 1159.09 Q3117.23 1166.19 3119.04 1169.76 Q3120.87 1173.3 3124.48 1173.3 Q3128.11 1173.3 3129.92 1169.76 Q3131.75 1166.19 3131.75 1159.09 Q3131.75 1151.96 3129.92 1148.42 Q3128.11 1144.85 3124.48 1144.85 M3124.48 1141.15 Q3130.29 1141.15 3133.34 1145.75 Q3136.42 1150.34 3136.42 1159.09 Q3136.42 1167.81 3133.34 1172.42 Q3130.29 1177 3124.48 1177 Q3118.67 1177 3115.59 1172.42 Q3112.53 1167.81 3112.53 1159.09 Q3112.53 1150.34 3115.59 1145.75 Q3118.67 1141.15 3124.48 1141.15 Z" fill="#000000" fill-rule="evenodd" fill-opacity="1" /><path clip-path="url(#clip820)" d="M 0 0 M2390.53 1204.35 L2390.53 1214.48 L2402.59 1214.48 L2402.59 1219.03 L2390.53 1219.03 L2390.53 1238.38 Q2390.53 1242.74 2391.71 1243.98 Q2392.92 1245.22 2396.58 1245.22 L2402.59 1245.22 L2402.59 1250.12 L2396.58 1250.12 Q2389.8 1250.12 2387.22 1247.61 Q2384.64 1245.06 2384.64 1238.38 L2384.64 1219.03 L2380.34 1219.03 L2380.34 1214.48 L2384.64 1214.48 L2384.64 1204.35 L2390.53 1204.35 Z" fill="#000000" fill-rule="evenodd" fill-opacity="1" /><path clip-path="url(#clip820)" d="M 0 0 M2408.99 1250.12 L2408.99 1202.6 L2438.56 1202.6 L2438.56 1208.01 L2415.42 1208.01 L2415.42 1250.12 L2408.99 1250.12 Z" fill="#000000" fill-rule="evenodd" fill-opacity="1" /><path clip-path="url(#clip820)" d="M 0 0 M2443.52 1246.62 L2450.02 1246.62 L2450.02 1227.18 L2442.92 1228.48 L2442.92 1224.79 L2450.24 1223.55 L2454.6 1223.55 L2454.6 1246.62 L2461.13 1246.62 L2461.13 1250.12 L2443.52 1250.12 L2443.52 1246.62 Z" fill="#000000" fill-rule="evenodd" fill-opacity="1" /><path clip-path="url(#clip820)" d="M 0 0 M2469.66 1246.5 L2483.15 1246.5 L2483.15 1250.12 L2464.12 1250.12 L2464.12 1246.62 Q2465.2 1245.64 2467.21 1243.85 Q2478.15 1234.15 2478.15 1231.15 Q2478.15 1229.05 2476.5 1227.78 Q2474.84 1226.48 2472.14 1226.48 Q2470.48 1226.48 2468.54 1227.05 Q2466.6 1227.59 2464.31 1228.7 L2464.31 1224.79 Q2466.76 1223.9 2468.86 1223.45 Q2470.99 1223.01 2472.81 1223.01 Q2477.42 1223.01 2480.19 1225.11 Q2482.96 1227.21 2482.96 1230.64 Q2482.96 1235.07 2472.42 1244.11 Q2470.64 1245.64 2469.66 1246.5 Z" fill="#000000" fill-rule="evenodd" fill-opacity="1" /><polyline clip-path="url(#clip823)" style="stroke:#000000; stroke-width:2; stroke-opacity:0.1; fill:none" points="
  1710.74,1079.2 3152.76,1079.2 
  "/>
<polyline clip-path="url(#clip823)" style="stroke:#000000; stroke-width:2; stroke-opacity:0.1; fill:none" points="
  1710.74,774.05 3152.76,774.05 
  "/>
<polyline clip-path="url(#clip823)" style="stroke:#000000; stroke-width:2; stroke-opacity:0.1; fill:none" points="
  1710.74,468.897 3152.76,468.897 
  "/>
<polyline clip-path="url(#clip823)" style="stroke:#000000; stroke-width:2; stroke-opacity:0.1; fill:none" points="
  1710.74,163.744 3152.76,163.744 
  "/>
<polyline clip-path="url(#clip820)" style="stroke:#000000; stroke-width:4; stroke-opacity:1; fill:none" points="
  1710.74,1109.26 1710.74,47.2441 
  "/>
<polyline clip-path="url(#clip820)" style="stroke:#000000; stroke-width:4; stroke-opacity:1; fill:none" points="
  1710.74,1079.2 1728.04,1079.2 
  "/>
<polyline clip-path="url(#clip820)" style="stroke:#000000; stroke-width:4; stroke-opacity:1; fill:none" points="
  1710.74,774.05 1728.04,774.05 
  "/>
<polyline clip-path="url(#clip820)" style="stroke:#000000; stroke-width:4; stroke-opacity:1; fill:none" points="
  1710.74,468.897 1728.04,468.897 
  "/>
<polyline clip-path="url(#clip820)" style="stroke:#000000; stroke-width:4; stroke-opacity:1; fill:none" points="
  1710.74,163.744 1728.04,163.744 
  "/>
<path clip-path="url(#clip820)" d="M 0 0 M1570.31 1079.65 L1599.99 1079.65 L1599.99 1083.59 L1570.31 1083.59 L1570.31 1079.65 Z" fill="#000000" fill-rule="evenodd" fill-opacity="1" /><path clip-path="url(#clip820)" d="M 0 0 M1605.87 1092.55 L1613.5 1092.55 L1613.5 1066.18 L1605.19 1067.85 L1605.19 1063.59 L1613.46 1061.92 L1618.13 1061.92 L1618.13 1092.55 L1625.77 1092.55 L1625.77 1096.48 L1605.87 1096.48 L1605.87 1092.55 Z" fill="#000000" fill-rule="evenodd" fill-opacity="1" /><path clip-path="url(#clip820)" d="M 0 0 M1630.84 1090.6 L1635.73 1090.6 L1635.73 1096.48 L1630.84 1096.48 L1630.84 1090.6 Z" fill="#000000" fill-rule="evenodd" fill-opacity="1" /><path clip-path="url(#clip820)" d="M 0 0 M1650.8 1065 Q1647.18 1065 1645.36 1068.57 Q1643.55 1072.11 1643.55 1079.24 Q1643.55 1086.34 1645.36 1089.91 Q1647.18 1093.45 1650.8 1093.45 Q1654.43 1093.45 1656.24 1089.91 Q1658.06 1086.34 1658.06 1079.24 Q1658.06 1072.11 1656.24 1068.57 Q1654.43 1065 1650.8 1065 M1650.8 1061.3 Q1656.61 1061.3 1659.66 1065.9 Q1662.74 1070.49 1662.74 1079.24 Q1662.74 1087.96 1659.66 1092.57 Q1656.61 1097.15 1650.8 1097.15 Q1644.99 1097.15 1641.91 1092.57 Q1638.85 1087.96 1638.85 1079.24 Q1638.85 1070.49 1641.91 1065.9 Q1644.99 1061.3 1650.8 1061.3 Z" fill="#000000" fill-rule="evenodd" fill-opacity="1" /><path clip-path="url(#clip820)" d="M 0 0 M1570.08 774.501 L1599.75 774.501 L1599.75 778.437 L1570.08 778.437 L1570.08 774.501 Z" fill="#000000" fill-rule="evenodd" fill-opacity="1" /><path clip-path="url(#clip820)" d="M 0 0 M1614.82 759.849 Q1611.21 759.849 1609.38 763.413 Q1607.58 766.955 1607.58 774.085 Q1607.58 781.191 1609.38 784.756 Q1611.21 788.298 1614.82 788.298 Q1618.46 788.298 1620.26 784.756 Q1622.09 781.191 1622.09 774.085 Q1622.09 766.955 1620.26 763.413 Q1618.46 759.849 1614.82 759.849 M1614.82 756.145 Q1620.63 756.145 1623.69 760.751 Q1626.77 765.335 1626.77 774.085 Q1626.77 782.812 1623.69 787.418 Q1620.63 792.001 1614.82 792.001 Q1609.01 792.001 1605.93 787.418 Q1602.88 782.812 1602.88 774.085 Q1602.88 765.335 1605.93 760.751 Q1609.01 756.145 1614.82 756.145 Z" fill="#000000" fill-rule="evenodd" fill-opacity="1" /><path clip-path="url(#clip820)" d="M 0 0 M1631.84 785.45 L1636.72 785.45 L1636.72 791.33 L1631.84 791.33 L1631.84 785.45 Z" fill="#000000" fill-rule="evenodd" fill-opacity="1" /><path clip-path="url(#clip820)" d="M 0 0 M1641.84 756.77 L1660.19 756.77 L1660.19 760.705 L1646.12 760.705 L1646.12 769.177 Q1647.14 768.83 1648.16 768.668 Q1649.18 768.483 1650.19 768.483 Q1655.98 768.483 1659.36 771.654 Q1662.74 774.825 1662.74 780.242 Q1662.74 785.821 1659.27 788.923 Q1655.8 792.001 1649.48 792.001 Q1647.3 792.001 1645.03 791.631 Q1642.79 791.261 1640.38 790.52 L1640.38 785.821 Q1642.46 786.955 1644.68 787.511 Q1646.91 788.066 1649.38 788.066 Q1653.39 788.066 1655.73 785.96 Q1658.06 783.853 1658.06 780.242 Q1658.06 776.631 1655.73 774.525 Q1653.39 772.418 1649.38 772.418 Q1647.51 772.418 1645.63 772.835 Q1643.78 773.251 1641.84 774.131 L1641.84 756.77 Z" fill="#000000" fill-rule="evenodd" fill-opacity="1" /><path clip-path="url(#clip820)" d="M 0 0 M1613.83 454.696 Q1610.22 454.696 1608.39 458.261 Q1606.58 461.802 1606.58 468.932 Q1606.58 476.038 1608.39 479.603 Q1610.22 483.145 1613.83 483.145 Q1617.46 483.145 1619.27 479.603 Q1621.1 476.038 1621.1 468.932 Q1621.1 461.802 1619.27 458.261 Q1617.46 454.696 1613.83 454.696 M1613.83 450.992 Q1619.64 450.992 1622.69 455.599 Q1625.77 460.182 1625.77 468.932 Q1625.77 477.659 1622.69 482.265 Q1619.64 486.848 1613.83 486.848 Q1608.02 486.848 1604.94 482.265 Q1601.88 477.659 1601.88 468.932 Q1601.88 460.182 1604.94 455.599 Q1608.02 450.992 1613.83 450.992 Z" fill="#000000" fill-rule="evenodd" fill-opacity="1" /><path clip-path="url(#clip820)" d="M 0 0 M1630.84 480.298 L1635.73 480.298 L1635.73 486.177 L1630.84 486.177 L1630.84 480.298 Z" fill="#000000" fill-rule="evenodd" fill-opacity="1" /><path clip-path="url(#clip820)" d="M 0 0 M1650.8 454.696 Q1647.18 454.696 1645.36 458.261 Q1643.55 461.802 1643.55 468.932 Q1643.55 476.038 1645.36 479.603 Q1647.18 483.145 1650.8 483.145 Q1654.43 483.145 1656.24 479.603 Q1658.06 476.038 1658.06 468.932 Q1658.06 461.802 1656.24 458.261 Q1654.43 454.696 1650.8 454.696 M1650.8 450.992 Q1656.61 450.992 1659.66 455.599 Q1662.74 460.182 1662.74 468.932 Q1662.74 477.659 1659.66 482.265 Q1656.61 486.848 1650.8 486.848 Q1644.99 486.848 1641.91 482.265 Q1638.85 477.659 1638.85 468.932 Q1638.85 460.182 1641.91 455.599 Q1644.99 450.992 1650.8 450.992 Z" fill="#000000" fill-rule="evenodd" fill-opacity="1" /><path clip-path="url(#clip820)" d="M 0 0 M1614.82 149.543 Q1611.21 149.543 1609.38 153.108 Q1607.58 156.65 1607.58 163.779 Q1607.58 170.886 1609.38 174.45 Q1611.21 177.992 1614.82 177.992 Q1618.46 177.992 1620.26 174.45 Q1622.09 170.886 1622.09 163.779 Q1622.09 156.65 1620.26 153.108 Q1618.46 149.543 1614.82 149.543 M1614.82 145.839 Q1620.63 145.839 1623.69 150.446 Q1626.77 155.029 1626.77 163.779 Q1626.77 172.506 1623.69 177.112 Q1620.63 181.696 1614.82 181.696 Q1609.01 181.696 1605.93 177.112 Q1602.88 172.506 1602.88 163.779 Q1602.88 155.029 1605.93 150.446 Q1609.01 145.839 1614.82 145.839 Z" fill="#000000" fill-rule="evenodd" fill-opacity="1" /><path clip-path="url(#clip820)" d="M 0 0 M1631.84 175.145 L1636.72 175.145 L1636.72 181.024 L1631.84 181.024 L1631.84 175.145 Z" fill="#000000" fill-rule="evenodd" fill-opacity="1" /><path clip-path="url(#clip820)" d="M 0 0 M1641.84 146.464 L1660.19 146.464 L1660.19 150.4 L1646.12 150.4 L1646.12 158.872 Q1647.14 158.525 1648.16 158.362 Q1649.18 158.177 1650.19 158.177 Q1655.98 158.177 1659.36 161.349 Q1662.74 164.52 1662.74 169.936 Q1662.74 175.515 1659.27 178.617 Q1655.8 181.696 1649.48 181.696 Q1647.3 181.696 1645.03 181.325 Q1642.79 180.955 1640.38 180.214 L1640.38 175.515 Q1642.46 176.649 1644.68 177.205 Q1646.91 177.761 1649.38 177.761 Q1653.39 177.761 1655.73 175.654 Q1658.06 173.548 1658.06 169.936 Q1658.06 166.325 1655.73 164.219 Q1653.39 162.112 1649.38 162.112 Q1647.51 162.112 1645.63 162.529 Q1643.78 162.946 1641.84 163.825 L1641.84 146.464 Z" fill="#000000" fill-rule="evenodd" fill-opacity="1" /><path clip-path="url(#clip820)" d="M 0 0 M1519.39 755.855 L1490.36 746.88 L1490.36 741.469 L1519.39 750.444 L1548.42 741.469 L1548.42 746.88 L1519.39 755.855 Z" fill="#000000" fill-rule="evenodd" fill-opacity="1" /><path clip-path="url(#clip820)" d="M 0 0 M1508.82 721.512 Q1508.82 726.35 1512.32 728.96 Q1515.98 731.697 1522.03 731.697 Q1528.43 731.697 1532.12 728.992 Q1535.78 726.255 1535.78 721.512 Q1535.78 716.833 1532.09 714.096 Q1528.4 711.359 1522.03 711.359 Q1516.21 711.359 1512.32 714.096 Q1508.82 716.611 1508.82 721.512 M1504.17 721.512 L1504.17 702.065 L1510.03 702.065 L1510.03 708.622 Q1515 705.152 1522.03 705.152 Q1530.78 705.152 1535.75 709.513 Q1540.75 713.873 1540.75 721.512 Q1540.75 729.183 1535.75 733.512 Q1530.78 737.872 1522.03 737.872 Q1513.21 737.872 1508.28 733.512 Q1504.17 729.915 1504.17 721.512 Z" fill="#000000" fill-rule="evenodd" fill-opacity="1" /><path clip-path="url(#clip820)" d="M 0 0 M1534.41 689.556 L1534.41 667.117 L1539.82 667.117 L1539.82 697.291 L1534.41 697.291 Q1530.62 693.63 1524.26 687.328 Q1517.86 680.994 1516.01 679.371 Q1512.55 676.284 1510.16 675.074 Q1507.74 673.833 1505.42 673.833 Q1501.63 673.833 1499.24 676.507 Q1496.85 679.148 1496.85 683.413 Q1496.85 686.437 1497.9 689.811 Q1498.95 693.153 1501.09 696.972 L1494.59 696.972 Q1493.03 693.089 1492.24 689.715 Q1491.44 686.342 1491.44 683.541 Q1491.44 676.157 1495.14 671.764 Q1498.83 667.372 1505 667.372 Q1507.93 667.372 1510.57 668.486 Q1513.18 669.568 1516.75 672.464 Q1517.67 673.26 1522.09 677.525 Q1526.49 681.79 1534.41 689.556 Z" fill="#000000" fill-rule="evenodd" fill-opacity="1" /><path clip-path="url(#clip820)" d="M 0 0 M1534.41 654.609 L1534.41 632.17 L1539.82 632.17 L1539.82 662.343 L1534.41 662.343 Q1530.62 658.683 1524.26 652.381 Q1517.86 646.047 1516.01 644.423 Q1512.55 641.336 1510.16 640.127 Q1507.74 638.885 1505.42 638.885 Q1501.63 638.885 1499.24 641.559 Q1496.85 644.201 1496.85 648.466 Q1496.85 651.489 1497.9 654.863 Q1498.95 658.205 1501.09 662.025 L1494.59 662.025 Q1493.03 658.142 1492.24 654.768 Q1491.44 651.394 1491.44 648.593 Q1491.44 641.209 1495.14 636.816 Q1498.83 632.424 1505 632.424 Q1507.93 632.424 1510.57 633.538 Q1513.18 634.62 1516.75 637.517 Q1517.67 638.312 1522.09 642.577 Q1526.49 646.842 1534.41 654.609 Z" fill="#000000" fill-rule="evenodd" fill-opacity="1" /><path clip-path="url(#clip820)" d="M 0 0 M1519.39 612.563 L1548.42 621.539 L1548.42 626.95 L1519.39 617.974 L1490.36 626.95 L1490.36 621.539 L1519.39 612.563 Z" fill="#000000" fill-rule="evenodd" fill-opacity="1" /><path clip-path="url(#clip820)" d="M 0 0 M1519.36 588.66 L1519.36 571.504 L1524.58 571.504 L1524.58 588.66 L1519.36 588.66 Z" fill="#000000" fill-rule="evenodd" fill-opacity="1" /><path clip-path="url(#clip820)" d="M 0 0 M1519.39 544.959 L1490.36 535.984 L1490.36 530.573 L1519.39 539.548 L1548.42 530.573 L1548.42 535.984 L1519.39 544.959 Z" fill="#000000" fill-rule="evenodd" fill-opacity="1" /><path clip-path="url(#clip820)" d="M 0 0 M1508.82 510.616 Q1508.82 515.454 1512.32 518.064 Q1515.98 520.801 1522.03 520.801 Q1528.43 520.801 1532.12 518.096 Q1535.78 515.359 1535.78 510.616 Q1535.78 505.938 1532.09 503.2 Q1528.4 500.463 1522.03 500.463 Q1516.21 500.463 1512.32 503.2 Q1508.82 505.715 1508.82 510.616 M1504.17 510.616 L1504.17 491.169 L1510.03 491.169 L1510.03 497.726 Q1515 494.256 1522.03 494.256 Q1530.78 494.256 1535.75 498.617 Q1540.75 502.977 1540.75 510.616 Q1540.75 518.287 1535.75 522.616 Q1530.78 526.976 1522.03 526.976 Q1513.21 526.976 1508.28 522.616 Q1504.17 519.019 1504.17 510.616 Z" fill="#000000" fill-rule="evenodd" fill-opacity="1" /><path clip-path="url(#clip820)" d="M 0 0 M1534.41 483.085 L1534.41 472.581 L1498.16 472.581 L1500.45 484.008 L1494.59 484.008 L1492.3 472.645 L1492.3 466.216 L1534.41 466.216 L1534.41 455.712 L1539.82 455.712 L1539.82 483.085 L1534.41 483.085 Z" fill="#000000" fill-rule="evenodd" fill-opacity="1" /><path clip-path="url(#clip820)" d="M 0 0 M1534.41 447.628 L1534.41 437.124 L1498.16 437.124 L1500.45 448.551 L1494.59 448.551 L1492.3 437.188 L1492.3 430.759 L1534.41 430.759 L1534.41 420.255 L1539.82 420.255 L1539.82 447.628 L1534.41 447.628 Z" fill="#000000" fill-rule="evenodd" fill-opacity="1" /><path clip-path="url(#clip820)" d="M 0 0 M1519.39 400.649 L1548.42 409.624 L1548.42 415.035 L1519.39 406.06 L1490.36 415.035 L1490.36 409.624 L1519.39 400.649 Z" fill="#000000" fill-rule="evenodd" fill-opacity="1" /><polyline clip-path="url(#clip823)" style="stroke:#009af9; stroke-width:4; stroke-opacity:1; fill:none" points="
  1751.55,1079.2 1751.56,1079.2 1751.61,1079.16 1751.69,1078.95 1751.79,1078.43 1751.92,1077.42 1752.06,1075.73 1752.23,1073.12 1752.41,1069.38 1752.61,1064.29 
  1752.82,1057.65 1753.04,1049.27 1753.28,1038.98 1753.54,1026.64 1753.8,1012.12 1754.07,995.316 1754.36,976.143 1754.66,954.561 1754.96,930.576 1755.28,904.264 
  1755.61,875.78 1755.94,845.347 1756.28,813.227 1756.62,779.687 1756.97,744.982 1757.33,709.345 1757.69,672.98 1758.05,636.078 1758.42,598.808 1758.8,561.331 
  1759.19,523.804 1759.59,486.395 1760,449.299 1760.42,412.762 1760.85,377.104 1761.29,342.703 1761.74,309.94 1762.19,279.121 1762.65,250.447 1763.12,224.027 
  1763.59,199.907 1764.07,178.088 1764.56,158.546 1765.06,141.245 1765.57,126.144 1766.1,113.206 1766.64,102.397 1767.2,93.6786 1767.77,86.9859 1768.35,82.198 
  1768.94,79.1345 1769.54,77.5783 1770.14,77.3011 1770.76,78.0802 1771.39,79.706 1772.04,81.9845 1772.71,84.7366 1773.4,87.7956 1774.11,91.0035 1774.86,94.206 
  1775.64,97.2471 1776.45,99.9725 1777.29,102.253 1778.14,104.016 1779.01,105.24 1779.9,105.949 1780.8,106.195 1781.72,106.048 1782.66,105.59 1783.62,104.911 
  1784.61,104.098 1785.63,103.237 1786.69,102.411 1787.81,101.699 1788.98,101.173 1790.21,100.902 1791.5,100.941 1792.83,101.309 1794.18,101.995 1795.57,102.975 
  1796.99,104.222 1798.47,105.715 1800.01,107.444 1801.64,109.409 1803.38,111.627 1805.26,114.114 1807.26,116.83 1809.33,119.702 1811.48,122.74 1813.75,125.96 
  1816.14,129.366 1818.61,132.905 1821.15,136.522 1823.74,140.208 1826.39,143.965 1829.09,147.802 1831.86,151.729 1834.69,155.748 1837.57,159.846 1840.48,164.001 
  1843.42,168.187 1846.37,172.386 1849.33,176.586 1852.29,180.779 1855.25,184.959 1858.22,189.124 1861.18,193.271 1864.16,197.397 1867.13,201.499 1870.11,205.574 
  1873.08,209.62 1876.07,213.634 1879.05,217.615 1882.04,221.559 1885.02,225.465 1888.01,229.333 1891.01,233.159 1894.01,236.944 1897.01,240.686 1900.02,244.384 
  1903.03,248.037 1906.04,251.644 1909.07,255.205 1912.09,258.719 1915.13,262.186 1918.17,265.605 1921.22,268.975 1924.28,272.297 1927.34,275.57 1930.42,278.794 
  1933.51,281.969 1936.6,285.095 1939.71,288.171 1942.82,291.199 1945.95,294.178 1949.09,297.107 1952.24,299.989 1955.41,302.821 1958.59,305.606 1961.78,308.343 
  1964.99,311.032 1968.22,313.674 1971.45,316.269 1974.71,318.817 1977.98,321.32 1981.28,323.777 1984.58,326.189 1987.91,328.556 1991.26,330.879 1994.63,333.158 
  1998.01,335.394 2001.42,337.587 2004.85,339.738 2008.31,341.848 2011.78,343.916 2015.28,345.943 2018.81,347.931 2022.35,349.879 2025.93,351.788 2029.53,353.659 
  2033.16,355.491 2036.81,357.287 2040.5,359.045 2044.21,360.768 2047.95,362.454 2051.73,364.106 2055.53,365.723 2059.37,367.306 2063.24,368.855 2067.15,370.371 
  2071.09,371.855 2075.06,373.306 2079.07,374.727 2083.12,376.116 2087.21,377.475 2091.34,378.804 2095.5,380.103 2099.71,381.374 2103.96,382.615 2108.26,383.829 
  2112.59,385.016 2116.98,386.175 2121.41,387.307 2125.89,388.414 2130.42,389.494 2134.99,390.549 2139.62,391.58 2144.3,392.586 2149.04,393.567 2153.83,394.525 
  2158.68,395.46 2163.59,396.372 2168.56,397.261 2173.58,398.128 2178.67,398.973 2183.82,399.796 2189.04,400.598 2194.32,401.378 2199.66,402.138 2205.06,402.876 
  2210.52,403.592 2216.03,404.287 2221.59,404.96 2227.18,405.609 2232.8,406.236 2238.44,406.839 2244.09,407.42 2249.75,407.978 2255.42,408.515 2261.11,409.031 
  2266.81,409.528 2272.53,410.006 2278.25,410.466 2283.99,410.909 2289.74,411.334 2295.51,411.743 2301.28,412.137 2307.07,412.515 2312.87,412.879 2318.68,413.229 
  2324.5,413.565 2330.33,413.889 2336.18,414.2 2342.04,414.499 2347.91,414.787 2353.8,415.064 2359.7,415.33 2365.62,415.586 2371.54,415.832 2377.48,416.069 
  2383.42,416.296 2389.36,416.514 2395.27,416.722 2401.14,416.92 2406.98,417.109 2412.78,417.29 2418.58,417.464 2424.41,417.631 2430.27,417.793 2436.15,417.949 
  2442.06,418.1 2447.98,418.244 2453.91,418.383 2459.85,418.517 2465.79,418.646 2471.73,418.769 2477.64,418.887 2483.49,418.999 2489.28,419.105 2495.03,419.207 
  2500.79,419.305 2506.58,419.399 2512.41,419.491 2518.26,419.579 2524.13,419.664 2530.01,419.746 2535.91,419.825 2541.82,419.9 2547.75,419.974 2553.69,420.044 
  2559.64,420.112 2565.57,420.176 2571.46,420.238 2577.3,420.297 2583.09,420.353 2588.86,420.407 2594.64,420.458 2600.45,420.509 2606.29,420.557 2612.16,420.604 
  2618.05,420.648 2623.94,420.692 2629.85,420.733 2635.78,420.774 2641.72,420.812 2647.67,420.849 2653.6,420.885 2659.5,420.919 2665.35,420.951 2671.14,420.982 
  2676.91,421.012 2682.68,421.04 2688.48,421.068 2694.32,421.094 2700.18,421.12 2706.06,421.145 2711.95,421.168 2717.85,421.191 2723.77,421.213 2729.71,421.235 
  2735.66,421.255 2741.6,421.275 2747.51,421.294 2753.38,421.311 2759.19,421.328 2764.96,421.345 2770.73,421.36 2776.52,421.375 2782.34,421.39 2788.2,421.404 
  2794.08,421.418 2799.96,421.431 2805.87,421.444 2811.78,421.456 2817.71,421.467 2823.66,421.479 2829.6,421.49 2835.53,421.5 2841.41,421.51 2847.23,421.519 
  2853.01,421.528 2858.78,421.537 2864.56,421.545 2870.37,421.553 2876.22,421.561 2882.09,421.568 2887.98,421.576 2893.88,421.583 2899.79,421.589 2905.71,421.596 
  2911.66,421.602 2917.6,421.608 2923.54,421.614 2929.43,421.619 2935.27,421.624 2941.06,421.629 2946.83,421.634 2952.6,421.639 2958.41,421.643 2964.25,421.647 
  2970.11,421.652 2975.99,421.656 2981.89,421.659 2987.79,421.663 2993.72,421.667 2999.66,421.67 3005.6,421.673 3011.54,421.677 3017.45,421.68 3023.31,421.683 
  3029.11,421.685 3034.88,421.688 3040.65,421.69 3046.44,421.693 3052.27,421.695 3058.13,421.697 3064.01,421.7 3069.9,421.702 3075.8,421.704 3081.72,421.706 
  3087.66,421.708 3093.6,421.71 3099.54,421.711 3105.46,421.713 3111.34,421.715 3111.94,421.715 
  "/>
</svg>
