<?xml version="1.0" encoding="utf-8"?>
<svg xmlns="http://www.w3.org/2000/svg" xmlns:xlink="http://www.w3.org/1999/xlink" width="600" height="400" viewBox="0 0 2400 1600">
<defs>
  <clipPath id="clip880">
    <rect x="0" y="0" width="2400" height="1600"/>
  </clipPath>
</defs>
<path clip-path="url(#clip880)" d="
M0 1600 L2400 1600 L2400 0 L0 0  Z
  " fill="#ffffff" fill-rule="evenodd" fill-opacity="1"/>
<defs>
  <clipPath id="clip881">
    <rect x="480" y="0" width="1681" height="1600"/>
  </clipPath>
</defs>
<path clip-path="url(#clip880)" d="
M86.9921 1505.26 L2352.76 1505.26 L2352.76 47.2441 L86.9921 47.2441  Z
  " fill="#ffffff" fill-rule="evenodd" fill-opacity="1"/>
<defs>
  <clipPath id="clip882">
    <rect x="86" y="47" width="2267" height="1459"/>
  </clipPath>
</defs>
<polyline clip-path="url(#clip882)" style="stroke:#000000; stroke-width:2; stroke-opacity:0.1; fill:none" points="
  369.385,1505.26 369.385,47.2441 
  "/>
<polyline clip-path="url(#clip882)" style="stroke:#000000; stroke-width:2; stroke-opacity:0.1; fill:none" points="
  652.881,1505.26 652.881,47.2441 
  "/>
<polyline clip-path="url(#clip882)" style="stroke:#000000; stroke-width:2; stroke-opacity:0.1; fill:none" points="
  936.378,1505.26 936.378,47.2441 
  "/>
<polyline clip-path="url(#clip882)" style="stroke:#000000; stroke-width:2; stroke-opacity:0.1; fill:none" points="
  1219.87,1505.26 1219.87,47.2441 
  "/>
<polyline clip-path="url(#clip882)" style="stroke:#000000; stroke-width:2; stroke-opacity:0.1; fill:none" points="
  1503.37,1505.26 1503.37,47.2441 
  "/>
<polyline clip-path="url(#clip882)" style="stroke:#000000; stroke-width:2; stroke-opacity:0.1; fill:none" points="
  1786.87,1505.26 1786.87,47.2441 
  "/>
<polyline clip-path="url(#clip882)" style="stroke:#000000; stroke-width:2; stroke-opacity:0.1; fill:none" points="
  2070.36,1505.26 2070.36,47.2441 
  "/>
<polyline clip-path="url(#clip880)" style="stroke:#000000; stroke-width:4; stroke-opacity:1; fill:none" points="
  86.9921,1505.26 2352.76,1505.26 
  "/>
<polyline clip-path="url(#clip880)" style="stroke:#000000; stroke-width:4; stroke-opacity:1; fill:none" points="
  369.385,1505.26 369.385,1487.76 
  "/>
<polyline clip-path="url(#clip880)" style="stroke:#000000; stroke-width:4; stroke-opacity:1; fill:none" points="
  652.881,1505.26 652.881,1487.76 
  "/>
<polyline clip-path="url(#clip880)" style="stroke:#000000; stroke-width:4; stroke-opacity:1; fill:none" points="
  936.378,1505.26 936.378,1487.76 
  "/>
<polyline clip-path="url(#clip880)" style="stroke:#000000; stroke-width:4; stroke-opacity:1; fill:none" points="
  1219.87,1505.26 1219.87,1487.76 
  "/>
<polyline clip-path="url(#clip880)" style="stroke:#000000; stroke-width:4; stroke-opacity:1; fill:none" points="
  1503.37,1505.26 1503.37,1487.76 
  "/>
<polyline clip-path="url(#clip880)" style="stroke:#000000; stroke-width:4; stroke-opacity:1; fill:none" points="
  1786.87,1505.26 1786.87,1487.76 
  "/>
<polyline clip-path="url(#clip880)" style="stroke:#000000; stroke-width:4; stroke-opacity:1; fill:none" points="
  2070.36,1505.26 2070.36,1487.76 
  "/>
<path clip-path="url(#clip880)" d="M 0 0 M328.644 1549.1 L358.32 1549.1 L358.32 1553.04 L328.644 1553.04 L328.644 1549.1 Z" fill="#000000" fill-rule="evenodd" fill-opacity="1" /><path clip-path="url(#clip880)" d="M 0 0 M364.199 1562 L371.838 1562 L371.838 1535.63 L363.528 1537.3 L363.528 1533.04 L371.792 1531.37 L376.468 1531.37 L376.468 1562 L384.107 1562 L384.107 1565.93 L364.199 1565.93 L364.199 1562 Z" fill="#000000" fill-rule="evenodd" fill-opacity="1" /><path clip-path="url(#clip880)" d="M 0 0 M389.222 1531.37 L407.579 1531.37 L407.579 1535.31 L393.505 1535.31 L393.505 1543.78 Q394.523 1543.43 395.542 1543.27 Q396.56 1543.08 397.579 1543.08 Q403.366 1543.08 406.746 1546.26 Q410.125 1549.43 410.125 1554.84 Q410.125 1560.42 406.653 1563.52 Q403.181 1566.6 396.861 1566.6 Q394.685 1566.6 392.417 1566.23 Q390.172 1565.86 387.764 1565.12 L387.764 1560.42 Q389.847 1561.56 392.07 1562.11 Q394.292 1562.67 396.769 1562.67 Q400.773 1562.67 403.111 1560.56 Q405.449 1558.46 405.449 1554.84 Q405.449 1551.23 403.111 1549.13 Q400.773 1547.02 396.769 1547.02 Q394.894 1547.02 393.019 1547.44 Q391.167 1547.85 389.222 1548.73 L389.222 1531.37 Z" fill="#000000" fill-rule="evenodd" fill-opacity="1" /><path clip-path="url(#clip880)" d="M 0 0 M611.643 1549.1 L641.319 1549.1 L641.319 1553.04 L611.643 1553.04 L611.643 1549.1 Z" fill="#000000" fill-rule="evenodd" fill-opacity="1" /><path clip-path="url(#clip880)" d="M 0 0 M647.198 1562 L654.837 1562 L654.837 1535.63 L646.527 1537.3 L646.527 1533.04 L654.791 1531.37 L659.467 1531.37 L659.467 1562 L667.106 1562 L667.106 1565.93 L647.198 1565.93 L647.198 1562 Z" fill="#000000" fill-rule="evenodd" fill-opacity="1" /><path clip-path="url(#clip880)" d="M 0 0 M682.175 1534.45 Q678.564 1534.45 676.735 1538.02 Q674.93 1541.56 674.93 1548.69 Q674.93 1555.79 676.735 1559.36 Q678.564 1562.9 682.175 1562.9 Q685.809 1562.9 687.615 1559.36 Q689.443 1555.79 689.443 1548.69 Q689.443 1541.56 687.615 1538.02 Q685.809 1534.45 682.175 1534.45 M682.175 1530.75 Q687.985 1530.75 691.041 1535.35 Q694.119 1539.94 694.119 1548.69 Q694.119 1557.41 691.041 1562.02 Q687.985 1566.6 682.175 1566.6 Q676.365 1566.6 673.286 1562.02 Q670.231 1557.41 670.231 1548.69 Q670.231 1539.94 673.286 1535.35 Q676.365 1530.75 682.175 1530.75 Z" fill="#000000" fill-rule="evenodd" fill-opacity="1" /><path clip-path="url(#clip880)" d="M 0 0 M908.53 1549.1 L938.206 1549.1 L938.206 1553.04 L908.53 1553.04 L908.53 1549.1 Z" fill="#000000" fill-rule="evenodd" fill-opacity="1" /><path clip-path="url(#clip880)" d="M 0 0 M943.322 1531.37 L961.678 1531.37 L961.678 1535.31 L947.604 1535.31 L947.604 1543.78 Q948.623 1543.43 949.641 1543.27 Q950.66 1543.08 951.678 1543.08 Q957.465 1543.08 960.845 1546.26 Q964.225 1549.43 964.225 1554.84 Q964.225 1560.42 960.752 1563.52 Q957.28 1566.6 950.961 1566.6 Q948.785 1566.6 946.516 1566.23 Q944.271 1565.86 941.864 1565.12 L941.864 1560.42 Q943.947 1561.56 946.169 1562.11 Q948.391 1562.67 950.868 1562.67 Q954.873 1562.67 957.211 1560.56 Q959.549 1558.46 959.549 1554.84 Q959.549 1551.23 957.211 1549.13 Q954.873 1547.02 950.868 1547.02 Q948.993 1547.02 947.118 1547.44 Q945.266 1547.85 943.322 1548.73 L943.322 1531.37 Z" fill="#000000" fill-rule="evenodd" fill-opacity="1" /><path clip-path="url(#clip880)" d="M 0 0 M1219.87 1534.45 Q1216.26 1534.45 1214.43 1538.02 Q1212.63 1541.56 1212.63 1548.69 Q1212.63 1555.79 1214.43 1559.36 Q1216.26 1562.9 1219.87 1562.9 Q1223.51 1562.9 1225.31 1559.36 Q1227.14 1555.79 1227.14 1548.69 Q1227.14 1541.56 1225.31 1538.02 Q1223.51 1534.45 1219.87 1534.45 M1219.87 1530.75 Q1225.68 1530.75 1228.74 1535.35 Q1231.82 1539.94 1231.82 1548.69 Q1231.82 1557.41 1228.74 1562.02 Q1225.68 1566.6 1219.87 1566.6 Q1214.06 1566.6 1210.99 1562.02 Q1207.93 1557.41 1207.93 1548.69 Q1207.93 1539.94 1210.99 1535.35 Q1214.06 1530.75 1219.87 1530.75 Z" fill="#000000" fill-rule="evenodd" fill-opacity="1" /><path clip-path="url(#clip880)" d="M 0 0 M1493.65 1531.37 L1512 1531.37 L1512 1535.31 L1497.93 1535.31 L1497.93 1543.78 Q1498.95 1543.43 1499.97 1543.27 Q1500.99 1543.08 1502 1543.08 Q1507.79 1543.08 1511.17 1546.26 Q1514.55 1549.43 1514.55 1554.84 Q1514.55 1560.42 1511.08 1563.52 Q1507.61 1566.6 1501.29 1566.6 Q1499.11 1566.6 1496.84 1566.23 Q1494.6 1565.86 1492.19 1565.12 L1492.19 1560.42 Q1494.27 1561.56 1496.5 1562.11 Q1498.72 1562.67 1501.19 1562.67 Q1505.2 1562.67 1507.54 1560.56 Q1509.88 1558.46 1509.88 1554.84 Q1509.88 1551.23 1507.54 1549.13 Q1505.2 1547.02 1501.19 1547.02 Q1499.32 1547.02 1497.44 1547.44 Q1495.59 1547.85 1493.65 1548.73 L1493.65 1531.37 Z" fill="#000000" fill-rule="evenodd" fill-opacity="1" /><path clip-path="url(#clip880)" d="M 0 0 M1763.74 1562 L1771.38 1562 L1771.38 1535.63 L1763.07 1537.3 L1763.07 1533.04 L1771.33 1531.37 L1776.01 1531.37 L1776.01 1562 L1783.65 1562 L1783.65 1565.93 L1763.74 1565.93 L1763.74 1562 Z" fill="#000000" fill-rule="evenodd" fill-opacity="1" /><path clip-path="url(#clip880)" d="M 0 0 M1798.72 1534.45 Q1795.11 1534.45 1793.28 1538.02 Q1791.47 1541.56 1791.47 1548.69 Q1791.47 1555.79 1793.28 1559.36 Q1795.11 1562.9 1798.72 1562.9 Q1802.35 1562.9 1804.16 1559.36 Q1805.99 1555.79 1805.99 1548.69 Q1805.99 1541.56 1804.16 1538.02 Q1802.35 1534.45 1798.72 1534.45 M1798.72 1530.75 Q1804.53 1530.75 1807.58 1535.35 Q1810.66 1539.94 1810.66 1548.69 Q1810.66 1557.41 1807.58 1562.02 Q1804.53 1566.6 1798.72 1566.6 Q1792.91 1566.6 1789.83 1562.02 Q1786.77 1557.41 1786.77 1548.69 Q1786.77 1539.94 1789.83 1535.35 Q1792.91 1530.75 1798.72 1530.75 Z" fill="#000000" fill-rule="evenodd" fill-opacity="1" /><path clip-path="url(#clip880)" d="M 0 0 M2047.74 1562 L2055.38 1562 L2055.38 1535.63 L2047.06 1537.3 L2047.06 1533.04 L2055.33 1531.37 L2060 1531.37 L2060 1562 L2067.64 1562 L2067.64 1565.93 L2047.74 1565.93 L2047.74 1562 Z" fill="#000000" fill-rule="evenodd" fill-opacity="1" /><path clip-path="url(#clip880)" d="M 0 0 M2072.76 1531.37 L2091.12 1531.37 L2091.12 1535.31 L2077.04 1535.31 L2077.04 1543.78 Q2078.06 1543.43 2079.08 1543.27 Q2080.1 1543.08 2081.12 1543.08 Q2086.9 1543.08 2090.28 1546.26 Q2093.66 1549.43 2093.66 1554.84 Q2093.66 1560.42 2090.19 1563.52 Q2086.72 1566.6 2080.4 1566.6 Q2078.22 1566.6 2075.95 1566.23 Q2073.71 1565.86 2071.3 1565.12 L2071.3 1560.42 Q2073.38 1561.56 2075.61 1562.11 Q2077.83 1562.67 2080.31 1562.67 Q2084.31 1562.67 2086.65 1560.56 Q2088.99 1558.46 2088.99 1554.84 Q2088.99 1551.23 2086.65 1549.13 Q2084.31 1547.02 2080.31 1547.02 Q2078.43 1547.02 2076.56 1547.44 Q2074.7 1547.85 2072.76 1548.73 L2072.76 1531.37 Z" fill="#000000" fill-rule="evenodd" fill-opacity="1" /><path clip-path="url(#clip880)" d="M 0 0 M1142.72 1639.05 Q1129.51 1639.05 1129.51 1620.14 Q1129.51 1612.66 1134.45 1602.48 L1140.75 1602.48 Q1136.2 1612.66 1136.2 1620.3 Q1136.2 1634.08 1143.26 1634.08 Q1149.72 1634.08 1149.72 1616.96 L1155.13 1616.96 Q1155.13 1634.08 1161.6 1634.08 Q1168.66 1634.08 1168.66 1620.3 Q1168.66 1612.66 1164.11 1602.48 L1170.41 1602.48 Q1175.35 1612.66 1175.35 1620.14 Q1175.35 1639.05 1162.14 1639.05 Q1153.48 1639.05 1152.43 1629.53 Q1151.12 1639.05 1142.72 1639.05 Z" fill="#000000" fill-rule="evenodd" fill-opacity="1" /><path clip-path="url(#clip880)" d="M 0 0 M1199.25 1617.66 L1216.4 1617.66 L1216.4 1622.88 L1199.25 1622.88 L1199.25 1617.66 Z" fill="#000000" fill-rule="evenodd" fill-opacity="1" /><path clip-path="url(#clip880)" d="M 0 0 M1254.63 1639.05 Q1241.42 1639.05 1241.42 1620.14 Q1241.42 1612.66 1246.36 1602.48 L1252.66 1602.48 Q1248.11 1612.66 1248.11 1620.3 Q1248.11 1634.08 1255.17 1634.08 Q1261.63 1634.08 1261.63 1616.96 L1267.04 1616.96 Q1267.04 1634.08 1273.51 1634.08 Q1280.57 1634.08 1280.57 1620.3 Q1280.57 1612.66 1276.02 1602.48 L1282.32 1602.48 Q1287.26 1612.66 1287.26 1620.14 Q1287.26 1639.05 1274.05 1639.05 Q1265.39 1639.05 1264.34 1629.53 Q1263.03 1639.05 1254.63 1639.05 Z" fill="#000000" fill-rule="evenodd" fill-opacity="1" /><path clip-path="url(#clip880)" d="M 0 0 M1296.93 1629.59 Q1298.24 1635.96 1301 1635.96 Q1302.85 1635.96 1305.24 1632.3 L1309.47 1632.3 Q1307.56 1635.55 1305.33 1637.23 Q1302.91 1639.05 1300.69 1639.05 Q1295.72 1639.05 1293.72 1634.62 L1291.33 1638.12 L1286.36 1638.12 Q1289.8 1633.45 1292.35 1629.08 Q1292.03 1626.6 1292.03 1623.9 Q1292.03 1619.06 1293.02 1614.22 Q1296.74 1596.05 1300.05 1592.32 Q1302.34 1589.74 1306.26 1589.74 Q1310.24 1589.74 1310.24 1595.25 Q1310.2 1597.73 1309.63 1600.69 Q1307.34 1612.82 1296.93 1629.59 M1296.9 1621.25 Q1302.85 1610.18 1304.67 1601.33 Q1305.62 1596.65 1305.62 1595.44 Q1305.62 1593.25 1304.82 1593.25 Q1301.36 1596.01 1298.27 1612.5 Q1297.41 1617.12 1296.9 1621.25 Z" fill="#000000" fill-rule="evenodd" fill-opacity="1" /><polyline clip-path="url(#clip882)" style="stroke:#000000; stroke-width:2; stroke-opacity:0.1; fill:none" points="
  86.9921,1464.09 2352.76,1464.09 
  "/>
<polyline clip-path="url(#clip882)" style="stroke:#000000; stroke-width:2; stroke-opacity:0.1; fill:none" points="
  86.9921,1127.04 2352.76,1127.04 
  "/>
<polyline clip-path="url(#clip882)" style="stroke:#000000; stroke-width:2; stroke-opacity:0.1; fill:none" points="
  86.9921,789.992 2352.76,789.992 
  "/>
<polyline clip-path="url(#clip882)" style="stroke:#000000; stroke-width:2; stroke-opacity:0.1; fill:none" points="
  86.9921,452.944 2352.76,452.944 
  "/>
<polyline clip-path="url(#clip882)" style="stroke:#000000; stroke-width:2; stroke-opacity:0.1; fill:none" points="
  86.9921,115.896 2352.76,115.896 
  "/>
<polyline clip-path="url(#clip880)" style="stroke:#000000; stroke-width:4; stroke-opacity:1; fill:none" points="
  86.9921,1505.26 86.9921,47.2441 
  "/>
<polyline clip-path="url(#clip880)" style="stroke:#000000; stroke-width:4; stroke-opacity:1; fill:none" points="
  86.9921,1464.09 114.181,1464.09 
  "/>
<polyline clip-path="url(#clip880)" style="stroke:#000000; stroke-width:4; stroke-opacity:1; fill:none" points="
  86.9921,1127.04 114.181,1127.04 
  "/>
<polyline clip-path="url(#clip880)" style="stroke:#000000; stroke-width:4; stroke-opacity:1; fill:none" points="
  86.9921,789.992 114.181,789.992 
  "/>
<polyline clip-path="url(#clip880)" style="stroke:#000000; stroke-width:4; stroke-opacity:1; fill:none" points="
  86.9921,452.944 114.181,452.944 
  "/>
<polyline clip-path="url(#clip880)" style="stroke:#000000; stroke-width:4; stroke-opacity:1; fill:none" points="
  86.9921,115.896 114.181,115.896 
  "/>
<path clip-path="url(#clip880)" d="M 0 0 M-24.9334 1449.89 Q-28.5445 1449.89 -30.3732 1453.45 Q-32.1787 1456.99 -32.1787 1464.12 Q-32.1787 1471.23 -30.3732 1474.79 Q-28.5445 1478.34 -24.9334 1478.34 Q-21.2992 1478.34 -19.4936 1474.79 Q-17.6649 1471.23 -17.6649 1464.12 Q-17.6649 1456.99 -19.4936 1453.45 Q-21.2992 1449.89 -24.9334 1449.89 M-24.9334 1446.18 Q-19.1232 1446.18 -16.0677 1450.79 Q-12.989 1455.37 -12.989 1464.12 Q-12.989 1472.85 -16.0677 1477.46 Q-19.1232 1482.04 -24.9334 1482.04 Q-30.7435 1482.04 -33.8222 1477.46 Q-36.8778 1472.85 -36.8778 1464.12 Q-36.8778 1455.37 -33.8222 1450.79 Q-30.7435 1446.18 -24.9334 1446.18 Z" fill="#000000" fill-rule="evenodd" fill-opacity="1" /><path clip-path="url(#clip880)" d="M 0 0 M-7.9196 1475.49 L-3.03536 1475.49 L-3.03536 1481.37 L-7.9196 1481.37 L-7.9196 1475.49 Z" fill="#000000" fill-rule="evenodd" fill-opacity="1" /><path clip-path="url(#clip880)" d="M 0 0 M12.034 1449.89 Q8.42291 1449.89 6.59422 1453.45 Q4.78867 1456.99 4.78867 1464.12 Q4.78867 1471.23 6.59422 1474.79 Q8.42291 1478.34 12.034 1478.34 Q15.6682 1478.34 17.4738 1474.79 Q19.3025 1471.23 19.3025 1464.12 Q19.3025 1456.99 17.4738 1453.45 Q15.6682 1449.89 12.034 1449.89 M12.034 1446.18 Q17.8442 1446.18 20.8997 1450.79 Q23.9784 1455.37 23.9784 1464.12 Q23.9784 1472.85 20.8997 1477.46 Q17.8442 1482.04 12.034 1482.04 Q6.22385 1482.04 3.14516 1477.46 Q0.089621 1472.85 0.089621 1464.12 Q0.089621 1455.37 3.14516 1450.79 Q6.22385 1446.18 12.034 1446.18 Z" fill="#000000" fill-rule="evenodd" fill-opacity="1" /><path clip-path="url(#clip880)" d="M 0 0 M39.0477 1449.89 Q35.4367 1449.89 33.608 1453.45 Q31.8024 1456.99 31.8024 1464.12 Q31.8024 1471.23 33.608 1474.79 Q35.4367 1478.34 39.0477 1478.34 Q42.682 1478.34 44.4875 1474.79 Q46.3162 1471.23 46.3162 1464.12 Q46.3162 1456.99 44.4875 1453.45 Q42.682 1449.89 39.0477 1449.89 M39.0477 1446.18 Q44.8579 1446.18 47.9134 1450.79 Q50.9921 1455.37 50.9921 1464.12 Q50.9921 1472.85 47.9134 1477.46 Q44.8579 1482.04 39.0477 1482.04 Q33.2376 1482.04 30.1589 1477.46 Q27.1034 1472.85 27.1034 1464.12 Q27.1034 1455.37 30.1589 1450.79 Q33.2376 1446.18 39.0477 1446.18 Z" fill="#000000" fill-rule="evenodd" fill-opacity="1" /><path clip-path="url(#clip880)" d="M 0 0 M-22.3408 1112.84 Q-25.9519 1112.84 -27.7806 1116.4 Q-29.5861 1119.95 -29.5861 1127.07 Q-29.5861 1134.18 -27.7806 1137.75 Q-25.9519 1141.29 -22.3408 1141.29 Q-18.7066 1141.29 -16.901 1137.75 Q-15.0723 1134.18 -15.0723 1127.07 Q-15.0723 1119.95 -16.901 1116.4 Q-18.7066 1112.84 -22.3408 1112.84 M-22.3408 1109.13 Q-16.5307 1109.13 -13.4751 1113.74 Q-10.3964 1118.32 -10.3964 1127.07 Q-10.3964 1135.8 -13.4751 1140.41 Q-16.5307 1144.99 -22.3408 1144.99 Q-28.151 1144.99 -31.2297 1140.41 Q-34.2852 1135.8 -34.2852 1127.07 Q-34.2852 1118.32 -31.2297 1113.74 Q-28.151 1109.13 -22.3408 1109.13 Z" fill="#000000" fill-rule="evenodd" fill-opacity="1" /><path clip-path="url(#clip880)" d="M 0 0 M-5.32702 1138.44 L-0.442784 1138.44 L-0.442784 1144.32 L-5.32702 1144.32 L-5.32702 1138.44 Z" fill="#000000" fill-rule="evenodd" fill-opacity="1" /><path clip-path="url(#clip880)" d="M 0 0 M8.65439 1140.38 L24.9737 1140.38 L24.9737 1144.32 L3.02942 1144.32 L3.02942 1140.38 Q5.69144 1137.63 10.2748 1133 Q14.8812 1128.35 16.0618 1127.01 Q18.3071 1124.48 19.1867 1122.75 Q20.0895 1120.99 20.0895 1119.3 Q20.0895 1116.54 18.1451 1114.81 Q16.2238 1113.07 13.122 1113.07 Q10.9229 1113.07 8.46921 1113.83 Q6.03866 1114.6 3.2609 1116.15 L3.2609 1111.43 Q6.08496 1110.29 8.53865 1109.71 Q10.9923 1109.13 13.0294 1109.13 Q18.3997 1109.13 21.5941 1111.82 Q24.7886 1114.51 24.7886 1119 Q24.7886 1121.13 23.9784 1123.05 Q23.1913 1124.94 21.0849 1127.54 Q20.5062 1128.21 17.4043 1131.43 Q14.3025 1134.62 8.65439 1140.38 Z" fill="#000000" fill-rule="evenodd" fill-opacity="1" /><path clip-path="url(#clip880)" d="M 0 0 M30.0895 1109.76 L48.4458 1109.76 L48.4458 1113.7 L34.3718 1113.7 L34.3718 1122.17 Q35.3904 1121.82 36.4089 1121.66 Q37.4274 1121.47 38.4459 1121.47 Q44.2329 1121.47 47.6125 1124.64 Q50.9921 1127.82 50.9921 1133.23 Q50.9921 1138.81 47.5199 1141.91 Q44.0477 1144.99 37.7283 1144.99 Q35.5524 1144.99 33.2839 1144.62 Q31.0385 1144.25 28.6311 1143.51 L28.6311 1138.81 Q30.7145 1139.94 32.9367 1140.5 Q35.1589 1141.06 37.6357 1141.06 Q41.6403 1141.06 43.9783 1138.95 Q46.3162 1136.84 46.3162 1133.23 Q46.3162 1129.62 43.9783 1127.51 Q41.6403 1125.41 37.6357 1125.41 Q35.7607 1125.41 33.8857 1125.82 Q32.0339 1126.24 30.0895 1127.12 L30.0895 1109.76 Z" fill="#000000" fill-rule="evenodd" fill-opacity="1" /><path clip-path="url(#clip880)" d="M 0 0 M-23.938 775.791 Q-27.5491 775.791 -29.3778 779.355 Q-31.1834 782.897 -31.1834 790.027 Q-31.1834 797.133 -29.3778 800.698 Q-27.5491 804.24 -23.938 804.24 Q-20.3038 804.24 -18.4982 800.698 Q-16.6695 797.133 -16.6695 790.027 Q-16.6695 782.897 -18.4982 779.355 Q-20.3038 775.791 -23.938 775.791 M-23.938 772.087 Q-18.1279 772.087 -15.0723 776.693 Q-11.9936 781.277 -11.9936 790.027 Q-11.9936 798.753 -15.0723 803.36 Q-18.1279 807.943 -23.938 807.943 Q-29.7482 807.943 -32.8269 803.36 Q-35.8824 798.753 -35.8824 790.027 Q-35.8824 781.277 -32.8269 776.693 Q-29.7482 772.087 -23.938 772.087 Z" fill="#000000" fill-rule="evenodd" fill-opacity="1" /><path clip-path="url(#clip880)" d="M 0 0 M-6.92423 801.392 L-2.04 801.392 L-2.04 807.272 L-6.92423 807.272 L-6.92423 801.392 Z" fill="#000000" fill-rule="evenodd" fill-opacity="1" /><path clip-path="url(#clip880)" d="M 0 0 M3.07572 772.712 L21.4321 772.712 L21.4321 776.647 L7.3581 776.647 L7.3581 785.119 Q8.37661 784.772 9.39513 784.61 Q10.4136 784.425 11.4322 784.425 Q17.2192 784.425 20.5988 787.596 Q23.9784 790.767 23.9784 796.184 Q23.9784 801.763 20.5062 804.865 Q17.034 807.943 10.7146 807.943 Q8.53865 807.943 6.27014 807.573 Q4.02479 807.202 1.61739 806.462 L1.61739 801.763 Q3.70071 802.897 5.92292 803.452 Q8.14513 804.008 10.622 804.008 Q14.6266 804.008 16.9645 801.902 Q19.3025 799.795 19.3025 796.184 Q19.3025 792.573 16.9645 790.466 Q14.6266 788.36 10.622 788.36 Q8.74698 788.36 6.87199 788.777 Q5.02015 789.193 3.07572 790.073 L3.07572 772.712 Z" fill="#000000" fill-rule="evenodd" fill-opacity="1" /><path clip-path="url(#clip880)" d="M 0 0 M39.0477 775.791 Q35.4367 775.791 33.608 779.355 Q31.8024 782.897 31.8024 790.027 Q31.8024 797.133 33.608 800.698 Q35.4367 804.24 39.0477 804.24 Q42.682 804.24 44.4875 800.698 Q46.3162 797.133 46.3162 790.027 Q46.3162 782.897 44.4875 779.355 Q42.682 775.791 39.0477 775.791 M39.0477 772.087 Q44.8579 772.087 47.9134 776.693 Q50.9921 781.277 50.9921 790.027 Q50.9921 798.753 47.9134 803.36 Q44.8579 807.943 39.0477 807.943 Q33.2376 807.943 30.1589 803.36 Q27.1034 798.753 27.1034 790.027 Q27.1034 781.277 30.1589 776.693 Q33.2376 772.087 39.0477 772.087 Z" fill="#000000" fill-rule="evenodd" fill-opacity="1" /><path clip-path="url(#clip880)" d="M 0 0 M-23.0353 438.743 Q-26.6463 438.743 -28.475 442.307 Q-30.2806 445.849 -30.2806 452.979 Q-30.2806 460.085 -28.475 463.65 Q-26.6463 467.192 -23.0353 467.192 Q-19.401 467.192 -17.5955 463.65 Q-15.7668 460.085 -15.7668 452.979 Q-15.7668 445.849 -17.5955 442.307 Q-19.401 438.743 -23.0353 438.743 M-23.0353 435.039 Q-17.2251 435.039 -14.1696 439.645 Q-11.0909 444.229 -11.0909 452.979 Q-11.0909 461.705 -14.1696 466.312 Q-17.2251 470.895 -23.0353 470.895 Q-28.8454 470.895 -31.9241 466.312 Q-34.9796 461.705 -34.9796 452.979 Q-34.9796 444.229 -31.9241 439.645 Q-28.8454 435.039 -23.0353 435.039 Z" fill="#000000" fill-rule="evenodd" fill-opacity="1" /><path clip-path="url(#clip880)" d="M 0 0 M-6.02146 464.344 L-1.13722 464.344 L-1.13722 470.224 L-6.02146 470.224 L-6.02146 464.344 Z" fill="#000000" fill-rule="evenodd" fill-opacity="1" /><path clip-path="url(#clip880)" d="M 0 0 M2.75164 435.664 L24.9737 435.664 L24.9737 437.655 L12.4275 470.224 L7.54328 470.224 L19.3488 439.599 L2.75164 439.599 L2.75164 435.664 Z" fill="#000000" fill-rule="evenodd" fill-opacity="1" /><path clip-path="url(#clip880)" d="M 0 0 M30.0895 435.664 L48.4458 435.664 L48.4458 439.599 L34.3718 439.599 L34.3718 448.071 Q35.3904 447.724 36.4089 447.562 Q37.4274 447.377 38.4459 447.377 Q44.2329 447.377 47.6125 450.548 Q50.9921 453.719 50.9921 459.136 Q50.9921 464.715 47.5199 467.817 Q44.0477 470.895 37.7283 470.895 Q35.5524 470.895 33.2839 470.525 Q31.0385 470.154 28.6311 469.414 L28.6311 464.715 Q30.7145 465.849 32.9367 466.404 Q35.1589 466.96 37.6357 466.96 Q41.6403 466.96 43.9783 464.854 Q46.3162 462.747 46.3162 459.136 Q46.3162 455.525 43.9783 453.418 Q41.6403 451.312 37.6357 451.312 Q35.7607 451.312 33.8857 451.729 Q32.0339 452.145 30.0895 453.025 L30.0895 435.664 Z" fill="#000000" fill-rule="evenodd" fill-opacity="1" /><path clip-path="url(#clip880)" d="M 0 0 M-32.8963 129.241 L-25.2575 129.241 L-25.2575 102.875 L-33.5676 104.542 L-33.5676 100.283 L-25.3038 98.6159 L-20.6279 98.6159 L-20.6279 129.241 L-12.989 129.241 L-12.989 133.176 L-32.8963 133.176 L-32.8963 129.241 Z" fill="#000000" fill-rule="evenodd" fill-opacity="1" /><path clip-path="url(#clip880)" d="M 0 0 M-7.9196 127.296 L-3.03536 127.296 L-3.03536 133.176 L-7.9196 133.176 L-7.9196 127.296 Z" fill="#000000" fill-rule="evenodd" fill-opacity="1" /><path clip-path="url(#clip880)" d="M 0 0 M12.034 101.695 Q8.42291 101.695 6.59422 105.259 Q4.78867 108.801 4.78867 115.931 Q4.78867 123.037 6.59422 126.602 Q8.42291 130.144 12.034 130.144 Q15.6682 130.144 17.4738 126.602 Q19.3025 123.037 19.3025 115.931 Q19.3025 108.801 17.4738 105.259 Q15.6682 101.695 12.034 101.695 M12.034 97.9909 Q17.8442 97.9909 20.8997 102.597 Q23.9784 107.181 23.9784 115.931 Q23.9784 124.657 20.8997 129.264 Q17.8442 133.847 12.034 133.847 Q6.22385 133.847 3.14516 129.264 Q0.089621 124.657 0.089621 115.931 Q0.089621 107.181 3.14516 102.597 Q6.22385 97.9909 12.034 97.9909 Z" fill="#000000" fill-rule="evenodd" fill-opacity="1" /><path clip-path="url(#clip880)" d="M 0 0 M39.0477 101.695 Q35.4367 101.695 33.608 105.259 Q31.8024 108.801 31.8024 115.931 Q31.8024 123.037 33.608 126.602 Q35.4367 130.144 39.0477 130.144 Q42.682 130.144 44.4875 126.602 Q46.3162 123.037 46.3162 115.931 Q46.3162 108.801 44.4875 105.259 Q42.682 101.695 39.0477 101.695 M39.0477 97.9909 Q44.8579 97.9909 47.9134 102.597 Q50.9921 107.181 50.9921 115.931 Q50.9921 124.657 47.9134 129.264 Q44.8579 133.847 39.0477 133.847 Q33.2376 133.847 30.1589 129.264 Q27.1034 124.657 27.1034 115.931 Q27.1034 107.181 30.1589 102.597 Q33.2376 97.9909 39.0477 97.9909 Z" fill="#000000" fill-rule="evenodd" fill-opacity="1" /><polyline clip-path="url(#clip882)" style="stroke:#009af9; stroke-width:4; stroke-opacity:1; fill:none" points="
  151.118,1464 153.255,1463.99 155.393,1463.99 157.53,1463.99 159.668,1463.99 161.805,1463.99 163.943,1463.99 166.08,1463.99 168.218,1463.99 170.355,1463.99 
  172.493,1463.99 174.63,1463.99 176.768,1463.99 178.905,1463.98 181.043,1463.98 183.18,1463.98 185.318,1463.98 187.455,1463.98 189.593,1463.98 191.73,1463.98 
  193.868,1463.98 196.005,1463.98 198.143,1463.98 200.28,1463.97 202.418,1463.97 204.555,1463.97 206.693,1463.97 208.83,1463.97 210.968,1463.97 213.105,1463.97 
  215.243,1463.97 217.38,1463.97 219.518,1463.97 221.655,1463.96 223.793,1463.96 225.93,1463.96 228.068,1463.96 230.205,1463.96 232.343,1463.96 234.481,1463.96 
  236.618,1463.96 238.756,1463.95 240.893,1463.95 243.031,1463.95 245.168,1463.95 247.306,1463.95 249.443,1463.95 251.581,1463.95 253.718,1463.95 255.856,1463.94 
  257.993,1463.94 260.131,1463.94 262.268,1463.94 264.406,1463.94 266.543,1463.94 268.681,1463.94 270.818,1463.93 272.956,1463.93 275.093,1463.93 277.231,1463.93 
  279.368,1463.93 281.506,1463.93 283.643,1463.92 285.781,1463.92 287.918,1463.92 290.056,1463.92 292.193,1463.92 294.331,1463.92 296.468,1463.92 298.606,1463.91 
  300.743,1463.91 302.881,1463.91 305.018,1463.91 307.156,1463.91 309.293,1463.9 311.431,1463.9 313.569,1463.9 315.706,1463.9 317.844,1463.9 319.981,1463.89 
  322.119,1463.89 324.256,1463.89 326.394,1463.89 328.531,1463.89 330.669,1463.88 332.806,1463.88 334.944,1463.88 337.081,1463.88 339.219,1463.88 341.356,1463.87 
  343.494,1463.87 345.631,1463.87 347.769,1463.87 349.906,1463.86 352.044,1463.86 354.181,1463.86 356.319,1463.86 358.456,1463.85 360.594,1463.85 362.731,1463.85 
  364.869,1463.85 367.006,1463.84 369.144,1463.84 371.281,1463.84 373.419,1463.84 375.556,1463.83 377.694,1463.83 379.831,1463.83 381.969,1463.82 384.106,1463.82 
  386.244,1463.82 388.381,1463.82 390.519,1463.81 392.656,1463.81 394.794,1463.81 396.932,1463.8 399.069,1463.8 401.207,1463.8 403.344,1463.79 405.482,1463.79 
  407.619,1463.79 409.757,1463.78 411.894,1463.78 414.032,1463.78 416.169,1463.77 418.307,1463.77 420.444,1463.76 422.582,1463.76 424.719,1463.76 426.857,1463.75 
  428.994,1463.75 431.132,1463.74 433.269,1463.74 435.407,1463.74 437.544,1463.73 439.682,1463.73 441.819,1463.72 443.957,1463.72 446.094,1463.71 448.232,1463.71 
  450.369,1463.7 452.507,1463.7 454.644,1463.69 456.782,1463.69 458.919,1463.68 461.057,1463.68 463.194,1463.67 465.332,1463.67 467.469,1463.66 469.607,1463.66 
  471.744,1463.65 473.882,1463.65 476.019,1463.64 478.157,1463.64 480.295,1463.63 482.432,1463.62 484.57,1463.62 486.707,1463.61 488.845,1463.61 490.982,1463.6 
  493.12,1463.59 495.257,1463.59 497.395,1463.58 499.532,1463.57 501.67,1463.56 503.807,1463.56 505.945,1463.55 508.082,1463.54 510.22,1463.54 512.357,1463.53 
  514.495,1463.52 516.632,1463.51 518.77,1463.5 520.907,1463.5 523.045,1463.49 525.182,1463.48 527.32,1463.47 529.457,1463.46 531.595,1463.45 533.732,1463.44 
  535.87,1463.44 538.007,1463.43 540.145,1463.42 542.282,1463.41 544.42,1463.4 546.557,1463.39 548.695,1463.38 550.832,1463.37 552.97,1463.35 555.107,1463.34 
  557.245,1463.33 559.382,1463.32 561.52,1463.31 563.658,1463.3 565.795,1463.29 567.933,1463.27 570.07,1463.26 572.208,1463.25 574.345,1463.24 576.483,1463.22 
  578.62,1463.21 580.758,1463.19 582.895,1463.18 585.033,1463.17 587.17,1463.15 589.308,1463.14 591.445,1463.12 593.583,1463.11 595.72,1463.09 597.858,1463.07 
  599.995,1463.06 602.133,1463.04 604.27,1463.02 606.408,1463.01 608.545,1462.99 610.683,1462.97 612.82,1462.95 614.958,1462.93 617.095,1462.91 619.233,1462.89 
  621.37,1462.87 623.508,1462.85 625.645,1462.83 627.783,1462.81 629.92,1462.78 632.058,1462.76 634.195,1462.74 636.333,1462.71 638.47,1462.69 640.608,1462.66 
  642.746,1462.64 644.883,1462.61 647.021,1462.59 649.158,1462.56 651.296,1462.53 653.433,1462.5 655.571,1462.47 657.708,1462.44 659.846,1462.41 661.983,1462.38 
  664.121,1462.35 666.258,1462.31 668.396,1462.28 670.533,1462.24 672.671,1462.21 674.808,1462.17 676.946,1462.13 679.083,1462.1 681.221,1462.06 683.358,1462.01 
  685.496,1461.97 687.633,1461.93 689.771,1461.89 691.908,1461.84 694.046,1461.8 696.183,1461.75 698.321,1461.7 700.458,1461.65 702.596,1461.6 704.733,1461.55 
  706.871,1461.49 709.008,1461.44 711.146,1461.38 713.283,1461.32 715.421,1461.26 717.558,1461.2 719.696,1461.13 721.833,1461.07 723.971,1461 726.109,1460.93 
  728.246,1460.86 730.384,1460.78 732.521,1460.71 734.659,1460.63 736.796,1460.55 738.934,1460.47 741.071,1460.38 743.209,1460.29 745.346,1460.2 747.484,1460.11 
  749.621,1460.01 751.759,1459.91 753.896,1459.81 756.034,1459.7 758.171,1459.59 760.309,1459.48 762.446,1459.36 764.584,1459.24 766.721,1459.11 768.859,1458.98 
  770.996,1458.85 773.134,1458.71 775.271,1458.57 777.409,1458.42 779.546,1458.26 781.684,1458.1 783.821,1457.94 785.959,1457.77 788.096,1457.59 790.234,1457.41 
  792.371,1457.22 794.509,1457.02 796.646,1456.82 798.784,1456.61 800.921,1456.39 803.059,1456.16 805.196,1455.92 807.334,1455.67 809.472,1455.41 811.609,1455.15 
  813.747,1454.87 815.884,1454.58 818.022,1454.28 820.159,1453.96 822.297,1453.64 824.434,1453.3 826.572,1452.94 828.709,1452.57 830.847,1452.18 832.984,1451.78 
  835.122,1451.36 837.259,1450.92 839.397,1450.45 841.534,1449.97 843.672,1449.47 845.809,1448.94 847.947,1448.38 850.084,1447.8 852.222,1447.2 854.359,1446.56 
  856.497,1445.89 858.634,1445.18 860.772,1444.44 862.909,1443.67 865.047,1442.85 867.184,1441.99 869.322,1441.08 871.459,1440.13 873.597,1439.12 875.734,1438.06 
  877.872,1436.94 880.009,1435.75 882.147,1434.5 884.284,1433.18 886.422,1431.78 888.56,1430.29 890.697,1428.72 892.835,1427.05 894.972,1425.28 897.11,1423.4 
  899.247,1421.4 901.385,1419.27 903.522,1417.01 905.66,1414.6 907.797,1412.03 909.935,1409.29 912.072,1406.37 914.21,1403.25 916.347,1399.91 918.485,1396.34 
  920.622,1392.52 922.76,1388.43 924.897,1384.05 927.035,1379.36 929.172,1374.33 931.31,1368.93 933.447,1363.13 935.585,1356.91 937.722,1350.24 939.86,1343.08 
  941.997,1335.4 944.135,1327.16 946.272,1318.34 948.41,1308.88 950.547,1298.78 952.685,1287.99 954.822,1276.49 956.96,1264.27 959.097,1251.32 961.235,1237.65 
  963.372,1223.27 965.51,1208.23 967.647,1192.6 969.785,1176.46 971.923,1159.93 974.06,1143.16 976.198,1126.34 978.335,1109.69 980.473,1093.45 982.61,1077.88 
  984.748,1063.26 986.885,1049.86 989.023,1037.95 991.16,1027.75 993.298,1019.46 995.435,1013.21 997.573,1009.07 999.71,1007.06 1001.85,1007.13 1003.99,1009.15 
  1006.12,1012.98 1008.26,1018.42 1010.4,1025.26 1012.54,1033.28 1014.67,1042.24 1016.81,1051.92 1018.95,1062.13 1021.09,1072.69 1023.22,1083.43 1025.36,1094.21 
  1027.5,1104.93 1029.64,1115.48 1031.77,1125.79 1033.91,1135.8 1036.05,1145.47 1038.19,1154.76 1040.32,1163.65 1042.46,1172.14 1044.6,1180.21 1046.74,1187.87 
  1048.87,1195.11 1051.01,1201.95 1053.15,1208.39 1055.29,1214.44 1057.42,1220.11 1059.56,1225.43 1061.7,1230.39 1063.84,1235.02 1065.97,1239.32 1068.11,1243.3 
  1070.25,1246.98 1072.39,1250.37 1074.52,1253.48 1076.66,1256.32 1078.8,1258.89 1080.94,1261.2 1083.07,1263.26 1085.21,1265.08 1087.35,1266.65 1089.49,1268 
  1091.62,1269.1 1093.76,1269.98 1095.9,1270.64 1098.04,1271.06 1100.17,1271.26 1102.31,1271.22 1104.45,1270.96 1106.59,1270.46 1108.72,1269.73 1110.86,1268.75 
  1113,1267.51 1115.14,1266.02 1117.27,1264.27 1119.41,1262.23 1121.55,1259.91 1123.69,1257.28 1125.82,1254.33 1127.96,1251.04 1130.1,1247.4 1132.24,1243.37 
  1134.37,1238.94 1136.51,1234.08 1138.65,1228.76 1140.79,1222.94 1142.92,1216.58 1145.06,1209.64 1147.2,1202.07 1149.34,1193.82 1151.47,1184.83 1153.61,1175.03 
  1155.75,1164.34 1157.89,1152.69 1160.02,1139.97 1162.16,1126.08 1164.3,1110.92 1166.44,1094.34 1168.57,1076.21 1170.71,1056.37 1172.85,1034.65 1174.99,1010.86 
  1177.12,984.786 1179.26,956.223 1181.4,924.937 1183.54,890.695 1185.67,853.266 1187.81,812.436 1189.95,768.023 1192.09,719.911 1194.22,668.075 1196.36,612.636 
  1198.5,553.907 1200.64,492.466 1202.77,429.216 1204.91,365.442 1207.05,302.851 1209.19,243.547 1211.32,189.96 1213.46,144.668 1215.6,110.154 1217.74,88.5087 
  1219.87,117.145 1222.01,88.5087 1224.15,110.154 1226.29,144.668 1228.42,189.96 1230.56,243.547 1232.7,302.851 1234.84,365.442 1236.97,429.216 1239.11,492.466 
  1241.25,553.907 1243.39,612.636 1245.52,668.075 1247.66,719.911 1249.8,768.023 1251.94,812.436 1254.07,853.266 1256.21,890.695 1258.35,924.937 1260.49,956.223 
  1262.62,984.786 1264.76,1010.86 1266.9,1034.65 1269.04,1056.37 1271.17,1076.21 1273.31,1094.34 1275.45,1110.92 1277.59,1126.08 1279.72,1139.97 1281.86,1152.69 
  1284,1164.34 1286.14,1175.03 1288.27,1184.83 1290.41,1193.82 1292.55,1202.07 1294.69,1209.64 1296.82,1216.58 1298.96,1222.94 1301.1,1228.76 1303.24,1234.08 
  1305.37,1238.94 1307.51,1243.37 1309.65,1247.4 1311.79,1251.04 1313.92,1254.33 1316.06,1257.28 1318.2,1259.91 1320.34,1262.23 1322.47,1264.27 1324.61,1266.02 
  1326.75,1267.51 1328.89,1268.75 1331.02,1269.73 1333.16,1270.46 1335.3,1270.96 1337.44,1271.22 1339.57,1271.26 1341.71,1271.06 1343.85,1270.64 1345.99,1269.98 
  1348.12,1269.1 1350.26,1268 1352.4,1266.65 1354.54,1265.08 1356.67,1263.26 1358.81,1261.2 1360.95,1258.89 1363.09,1256.32 1365.22,1253.48 1367.36,1250.37 
  1369.5,1246.98 1371.64,1243.3 1373.77,1239.32 1375.91,1235.02 1378.05,1230.39 1380.19,1225.43 1382.33,1220.11 1384.46,1214.44 1386.6,1208.39 1388.74,1201.95 
  1390.88,1195.11 1393.01,1187.87 1395.15,1180.21 1397.29,1172.14 1399.43,1163.65 1401.56,1154.76 1403.7,1145.47 1405.84,1135.8 1407.98,1125.79 1410.11,1115.48 
  1412.25,1104.93 1414.39,1094.21 1416.53,1083.43 1418.66,1072.69 1420.8,1062.13 1422.94,1051.92 1425.08,1042.24 1427.21,1033.28 1429.35,1025.26 1431.49,1018.42 
  1433.63,1012.98 1435.76,1009.15 1437.9,1007.13 1440.04,1007.06 1442.18,1009.07 1444.31,1013.21 1446.45,1019.46 1448.59,1027.75 1450.73,1037.95 1452.86,1049.86 
  1455,1063.26 1457.14,1077.88 1459.28,1093.45 1461.41,1109.69 1463.55,1126.34 1465.69,1143.16 1467.83,1159.93 1469.96,1176.46 1472.1,1192.6 1474.24,1208.23 
  1476.38,1223.27 1478.51,1237.65 1480.65,1251.32 1482.79,1264.27 1484.93,1276.49 1487.06,1287.99 1489.2,1298.78 1491.34,1308.88 1493.48,1318.34 1495.61,1327.16 
  1497.75,1335.4 1499.89,1343.08 1502.03,1350.24 1504.16,1356.91 1506.3,1363.13 1508.44,1368.93 1510.58,1374.33 1512.71,1379.36 1514.85,1384.05 1516.99,1388.43 
  1519.13,1392.52 1521.26,1396.34 1523.4,1399.91 1525.54,1403.25 1527.68,1406.37 1529.81,1409.29 1531.95,1412.03 1534.09,1414.6 1536.23,1417.01 1538.36,1419.27 
  1540.5,1421.4 1542.64,1423.4 1544.78,1425.28 1546.91,1427.05 1549.05,1428.72 1551.19,1430.29 1553.33,1431.78 1555.46,1433.18 1557.6,1434.5 1559.74,1435.75 
  1561.88,1436.94 1564.01,1438.06 1566.15,1439.12 1568.29,1440.13 1570.43,1441.08 1572.56,1441.99 1574.7,1442.85 1576.84,1443.67 1578.98,1444.44 1581.11,1445.18 
  1583.25,1445.89 1585.39,1446.56 1587.53,1447.2 1589.66,1447.8 1591.8,1448.38 1593.94,1448.94 1596.08,1449.47 1598.21,1449.97 1600.35,1450.45 1602.49,1450.92 
  1604.63,1451.36 1606.76,1451.78 1608.9,1452.18 1611.04,1452.57 1613.18,1452.94 1615.31,1453.3 1617.45,1453.64 1619.59,1453.96 1621.73,1454.28 1623.86,1454.58 
  1626,1454.87 1628.14,1455.15 1630.28,1455.41 1632.41,1455.67 1634.55,1455.92 1636.69,1456.16 1638.83,1456.39 1640.96,1456.61 1643.1,1456.82 1645.24,1457.02 
  1647.38,1457.22 1649.51,1457.41 1651.65,1457.59 1653.79,1457.77 1655.93,1457.94 1658.06,1458.1 1660.2,1458.26 1662.34,1458.42 1664.48,1458.57 1666.61,1458.71 
  1668.75,1458.85 1670.89,1458.98 1673.03,1459.11 1675.16,1459.24 1677.3,1459.36 1679.44,1459.48 1681.58,1459.59 1683.71,1459.7 1685.85,1459.81 1687.99,1459.91 
  1690.13,1460.01 1692.26,1460.11 1694.4,1460.2 1696.54,1460.29 1698.68,1460.38 1700.81,1460.47 1702.95,1460.55 1705.09,1460.63 1707.23,1460.71 1709.36,1460.78 
  1711.5,1460.86 1713.64,1460.93 1715.78,1461 1717.91,1461.07 1720.05,1461.13 1722.19,1461.2 1724.33,1461.26 1726.46,1461.32 1728.6,1461.38 1730.74,1461.44 
  1732.88,1461.49 1735.01,1461.55 1737.15,1461.6 1739.29,1461.65 1741.43,1461.7 1743.56,1461.75 1745.7,1461.8 1747.84,1461.84 1749.98,1461.89 1752.11,1461.93 
  1754.25,1461.97 1756.39,1462.01 1758.53,1462.06 1760.66,1462.1 1762.8,1462.13 1764.94,1462.17 1767.08,1462.21 1769.21,1462.24 1771.35,1462.28 1773.49,1462.31 
  1775.63,1462.35 1777.76,1462.38 1779.9,1462.41 1782.04,1462.44 1784.18,1462.47 1786.31,1462.5 1788.45,1462.53 1790.59,1462.56 1792.73,1462.59 1794.87,1462.61 
  1797,1462.64 1799.14,1462.66 1801.28,1462.69 1803.42,1462.71 1805.55,1462.74 1807.69,1462.76 1809.83,1462.78 1811.97,1462.81 1814.1,1462.83 1816.24,1462.85 
  1818.38,1462.87 1820.52,1462.89 1822.65,1462.91 1824.79,1462.93 1826.93,1462.95 1829.07,1462.97 1831.2,1462.99 1833.34,1463.01 1835.48,1463.02 1837.62,1463.04 
  1839.75,1463.06 1841.89,1463.07 1844.03,1463.09 1846.17,1463.11 1848.3,1463.12 1850.44,1463.14 1852.58,1463.15 1854.72,1463.17 1856.85,1463.18 1858.99,1463.19 
  1861.13,1463.21 1863.27,1463.22 1865.4,1463.24 1867.54,1463.25 1869.68,1463.26 1871.82,1463.27 1873.95,1463.29 1876.09,1463.3 1878.23,1463.31 1880.37,1463.32 
  1882.5,1463.33 1884.64,1463.34 1886.78,1463.35 1888.92,1463.37 1891.05,1463.38 1893.19,1463.39 1895.33,1463.4 1897.47,1463.41 1899.6,1463.42 1901.74,1463.43 
  1903.88,1463.44 1906.02,1463.44 1908.15,1463.45 1910.29,1463.46 1912.43,1463.47 1914.57,1463.48 1916.7,1463.49 1918.84,1463.5 1920.98,1463.5 1923.12,1463.51 
  1925.25,1463.52 1927.39,1463.53 1929.53,1463.54 1931.67,1463.54 1933.8,1463.55 1935.94,1463.56 1938.08,1463.56 1940.22,1463.57 1942.35,1463.58 1944.49,1463.59 
  1946.63,1463.59 1948.77,1463.6 1950.9,1463.61 1953.04,1463.61 1955.18,1463.62 1957.32,1463.62 1959.45,1463.63 1961.59,1463.64 1963.73,1463.64 1965.87,1463.65 
  1968,1463.65 1970.14,1463.66 1972.28,1463.66 1974.42,1463.67 1976.55,1463.67 1978.69,1463.68 1980.83,1463.68 1982.97,1463.69 1985.1,1463.69 1987.24,1463.7 
  1989.38,1463.7 1991.52,1463.71 1993.65,1463.71 1995.79,1463.72 1997.93,1463.72 2000.07,1463.73 2002.2,1463.73 2004.34,1463.74 2006.48,1463.74 2008.62,1463.74 
  2010.75,1463.75 2012.89,1463.75 2015.03,1463.76 2017.17,1463.76 2019.3,1463.76 2021.44,1463.77 2023.58,1463.77 2025.72,1463.78 2027.85,1463.78 2029.99,1463.78 
  2032.13,1463.79 2034.27,1463.79 2036.4,1463.79 2038.54,1463.8 2040.68,1463.8 2042.82,1463.8 2044.95,1463.81 2047.09,1463.81 2049.23,1463.81 2051.37,1463.82 
  2053.5,1463.82 2055.64,1463.82 2057.78,1463.82 2059.92,1463.83 2062.05,1463.83 2064.19,1463.83 2066.33,1463.84 2068.47,1463.84 2070.6,1463.84 2072.74,1463.84 
  2074.88,1463.85 2077.02,1463.85 2079.15,1463.85 2081.29,1463.85 2083.43,1463.86 2085.57,1463.86 2087.7,1463.86 2089.84,1463.86 2091.98,1463.87 2094.12,1463.87 
  2096.25,1463.87 2098.39,1463.87 2100.53,1463.88 2102.67,1463.88 2104.8,1463.88 2106.94,1463.88 2109.08,1463.88 2111.22,1463.89 2113.35,1463.89 2115.49,1463.89 
  2117.63,1463.89 2119.77,1463.89 2121.9,1463.9 2124.04,1463.9 2126.18,1463.9 2128.32,1463.9 2130.45,1463.9 2132.59,1463.91 2134.73,1463.91 2136.87,1463.91 
  2139,1463.91 2141.14,1463.91 2143.28,1463.92 2145.42,1463.92 2147.55,1463.92 2149.69,1463.92 2151.83,1463.92 2153.97,1463.92 2156.1,1463.92 2158.24,1463.93 
  2160.38,1463.93 2162.52,1463.93 2164.65,1463.93 2166.79,1463.93 2168.93,1463.93 2171.07,1463.94 2173.2,1463.94 2175.34,1463.94 2177.48,1463.94 2179.62,1463.94 
  2181.75,1463.94 2183.89,1463.94 2186.03,1463.95 2188.17,1463.95 2190.3,1463.95 2192.44,1463.95 2194.58,1463.95 2196.72,1463.95 2198.85,1463.95 2200.99,1463.95 
  2203.13,1463.96 2205.27,1463.96 2207.41,1463.96 2209.54,1463.96 2211.68,1463.96 2213.82,1463.96 2215.96,1463.96 2218.09,1463.96 2220.23,1463.97 2222.37,1463.97 
  2224.51,1463.97 2226.64,1463.97 2228.78,1463.97 2230.92,1463.97 2233.06,1463.97 2235.19,1463.97 2237.33,1463.97 2239.47,1463.97 2241.61,1463.98 2243.74,1463.98 
  2245.88,1463.98 2248.02,1463.98 2250.16,1463.98 2252.29,1463.98 2254.43,1463.98 2256.57,1463.98 2258.71,1463.98 2260.84,1463.98 2262.98,1463.99 2265.12,1463.99 
  2267.26,1463.99 2269.39,1463.99 2271.53,1463.99 2273.67,1463.99 2275.81,1463.99 2277.94,1463.99 2280.08,1463.99 2282.22,1463.99 2284.36,1463.99 2286.49,1463.99 
  2288.63,1464 
  "/>
<path clip-path="url(#clip880)" d="
M1579.14 216.805 L2277.23 216.805 L2277.23 95.8446 L1579.14 95.8446  Z
  " fill="#ffffff" fill-rule="evenodd" fill-opacity="1"/>
<polyline clip-path="url(#clip880)" style="stroke:#000000; stroke-width:4; stroke-opacity:1; fill:none" points="
  1579.14,216.805 2277.23,216.805 2277.23,95.8446 1579.14,95.8446 1579.14,216.805 
  "/>
<polyline clip-path="url(#clip880)" style="stroke:#009af9; stroke-width:4; stroke-opacity:1; fill:none" points="
  1604.31,156.325 1755.36,156.325 
  "/>
<path clip-path="url(#clip880)" d="M 0 0 M1796.93 157.401 Q1798.43 157.91 1799.85 159.577 Q1801.28 161.244 1802.72 164.16 L1807.46 173.605 L1802.44 173.605 L1798.02 164.739 Q1796.3 161.267 1794.68 160.132 Q1793.09 158.998 1790.31 158.998 L1785.22 158.998 L1785.22 173.605 L1780.54 173.605 L1780.54 139.045 L1791.1 139.045 Q1797.02 139.045 1799.94 141.521 Q1802.85 143.998 1802.85 148.998 Q1802.85 152.262 1801.33 154.415 Q1799.82 156.568 1796.93 157.401 M1785.22 142.887 L1785.22 155.156 L1791.1 155.156 Q1794.48 155.156 1796.19 153.605 Q1797.92 152.031 1797.92 148.998 Q1797.92 145.966 1796.19 144.438 Q1794.48 142.887 1791.1 142.887 L1785.22 142.887 Z" fill="#000000" fill-rule="evenodd" fill-opacity="1" /><path clip-path="url(#clip880)" d="M 0 0 M1831.97 159.577 L1831.97 161.66 L1812.39 161.66 Q1812.67 166.058 1815.03 168.373 Q1817.41 170.665 1821.65 170.665 Q1824.1 170.665 1826.4 170.063 Q1828.71 169.461 1830.98 168.257 L1830.98 172.285 Q1828.69 173.257 1826.28 173.767 Q1823.87 174.276 1821.4 174.276 Q1815.19 174.276 1811.56 170.665 Q1807.95 167.054 1807.95 160.896 Q1807.95 154.531 1811.37 150.804 Q1814.82 147.054 1820.66 147.054 Q1825.89 147.054 1828.92 150.433 Q1831.97 153.79 1831.97 159.577 M1827.72 158.327 Q1827.67 154.832 1825.75 152.748 Q1823.85 150.665 1820.7 150.665 Q1817.14 150.665 1814.98 152.679 Q1812.85 154.693 1812.53 158.35 L1827.72 158.327 Z" fill="#000000" fill-rule="evenodd" fill-opacity="1" /><path clip-path="url(#clip880)" d="M 0 0 M1852.97 148.443 L1852.97 152.47 Q1851.16 151.545 1849.22 151.082 Q1847.28 150.619 1845.19 150.619 Q1842.02 150.619 1840.42 151.591 Q1838.85 152.563 1838.85 154.507 Q1838.85 155.989 1839.98 156.845 Q1841.12 157.679 1844.54 158.443 L1846 158.767 Q1850.54 159.739 1852.44 161.521 Q1854.36 163.281 1854.36 166.452 Q1854.36 170.063 1851.49 172.169 Q1848.64 174.276 1843.64 174.276 Q1841.56 174.276 1839.29 173.859 Q1837.04 173.466 1834.54 172.656 L1834.54 168.257 Q1836.91 169.484 1839.2 170.109 Q1841.49 170.711 1843.73 170.711 Q1846.74 170.711 1848.36 169.693 Q1849.98 168.651 1849.98 166.776 Q1849.98 165.04 1848.8 164.114 Q1847.65 163.188 1843.69 162.332 L1842.21 161.984 Q1838.25 161.151 1836.49 159.438 Q1834.73 157.702 1834.73 154.693 Q1834.73 151.035 1837.32 149.045 Q1839.91 147.054 1844.68 147.054 Q1847.04 147.054 1849.13 147.401 Q1851.21 147.748 1852.97 148.443 Z" fill="#000000" fill-rule="evenodd" fill-opacity="1" /><path clip-path="url(#clip880)" d="M 0 0 M1868.87 150.665 Q1865.45 150.665 1863.46 153.35 Q1861.47 156.012 1861.47 160.665 Q1861.47 165.318 1863.43 168.003 Q1865.42 170.665 1868.87 170.665 Q1872.28 170.665 1874.27 167.98 Q1876.26 165.294 1876.26 160.665 Q1876.26 156.058 1874.27 153.373 Q1872.28 150.665 1868.87 150.665 M1868.87 147.054 Q1874.43 147.054 1877.6 150.665 Q1880.77 154.276 1880.77 160.665 Q1880.77 167.031 1877.6 170.665 Q1874.43 174.276 1868.87 174.276 Q1863.29 174.276 1860.12 170.665 Q1856.97 167.031 1856.97 160.665 Q1856.97 154.276 1860.12 150.665 Q1863.29 147.054 1868.87 147.054 Z" fill="#000000" fill-rule="evenodd" fill-opacity="1" /><path clip-path="url(#clip880)" d="M 0 0 M1906.79 157.957 L1906.79 173.605 L1902.53 173.605 L1902.53 158.095 Q1902.53 154.415 1901.09 152.586 Q1899.66 150.758 1896.79 150.758 Q1893.34 150.758 1891.35 152.957 Q1889.36 155.156 1889.36 158.952 L1889.36 173.605 L1885.08 173.605 L1885.08 147.679 L1889.36 147.679 L1889.36 151.707 Q1890.89 149.369 1892.95 148.211 Q1895.03 147.054 1897.74 147.054 Q1902.21 147.054 1904.5 149.832 Q1906.79 152.586 1906.79 157.957 Z" fill="#000000" fill-rule="evenodd" fill-opacity="1" /><path clip-path="url(#clip880)" d="M 0 0 M1923.04 160.572 Q1917.88 160.572 1915.89 161.753 Q1913.9 162.933 1913.9 165.781 Q1913.9 168.049 1915.38 169.392 Q1916.88 170.711 1919.45 170.711 Q1922.99 170.711 1925.12 168.211 Q1927.28 165.688 1927.28 161.521 L1927.28 160.572 L1923.04 160.572 M1931.53 158.813 L1931.53 173.605 L1927.28 173.605 L1927.28 169.669 Q1925.82 172.031 1923.64 173.165 Q1921.47 174.276 1918.32 174.276 Q1914.34 174.276 1911.97 172.054 Q1909.64 169.808 1909.64 166.058 Q1909.64 161.683 1912.55 159.461 Q1915.49 157.239 1921.3 157.239 L1927.28 157.239 L1927.28 156.822 Q1927.28 153.883 1925.33 152.285 Q1923.41 150.665 1919.91 150.665 Q1917.69 150.665 1915.59 151.197 Q1913.48 151.73 1911.53 152.795 L1911.53 148.859 Q1913.87 147.957 1916.07 147.517 Q1918.27 147.054 1920.35 147.054 Q1925.98 147.054 1928.76 149.97 Q1931.53 152.887 1931.53 158.813 Z" fill="#000000" fill-rule="evenodd" fill-opacity="1" /><path clip-path="url(#clip880)" d="M 0 0 M1957.55 157.957 L1957.55 173.605 L1953.29 173.605 L1953.29 158.095 Q1953.29 154.415 1951.86 152.586 Q1950.42 150.758 1947.55 150.758 Q1944.1 150.758 1942.11 152.957 Q1940.12 155.156 1940.12 158.952 L1940.12 173.605 L1935.84 173.605 L1935.84 147.679 L1940.12 147.679 L1940.12 151.707 Q1941.65 149.369 1943.71 148.211 Q1945.79 147.054 1948.5 147.054 Q1952.97 147.054 1955.26 149.832 Q1957.55 152.586 1957.55 157.957 Z" fill="#000000" fill-rule="evenodd" fill-opacity="1" /><path clip-path="url(#clip880)" d="M 0 0 M1980.68 148.674 L1980.68 152.656 Q1978.87 151.66 1977.04 151.174 Q1975.24 150.665 1973.39 150.665 Q1969.24 150.665 1966.95 153.304 Q1964.66 155.92 1964.66 160.665 Q1964.66 165.41 1966.95 168.049 Q1969.24 170.665 1973.39 170.665 Q1975.24 170.665 1977.04 170.179 Q1978.87 169.669 1980.68 168.674 L1980.68 172.609 Q1978.9 173.443 1976.97 173.859 Q1975.08 174.276 1972.92 174.276 Q1967.07 174.276 1963.62 170.595 Q1960.17 166.915 1960.17 160.665 Q1960.17 154.322 1963.64 150.688 Q1967.14 147.054 1973.2 147.054 Q1975.17 147.054 1977.04 147.471 Q1978.92 147.864 1980.68 148.674 Z" fill="#000000" fill-rule="evenodd" fill-opacity="1" /><path clip-path="url(#clip880)" d="M 0 0 M2007.32 159.577 L2007.32 161.66 L1987.74 161.66 Q1988.02 166.058 1990.38 168.373 Q1992.76 170.665 1997 170.665 Q1999.45 170.665 2001.74 170.063 Q2004.06 169.461 2006.33 168.257 L2006.33 172.285 Q2004.03 173.257 2001.63 173.767 Q1999.22 174.276 1996.74 174.276 Q1990.54 174.276 1986.9 170.665 Q1983.29 167.054 1983.29 160.896 Q1983.29 154.531 1986.72 150.804 Q1990.17 147.054 1996 147.054 Q2001.23 147.054 2004.27 150.433 Q2007.32 153.79 2007.32 159.577 M2003.06 158.327 Q2003.02 154.832 2001.09 152.748 Q1999.2 150.665 1996.05 150.665 Q1992.48 150.665 1990.33 152.679 Q1988.2 154.693 1987.88 158.35 L2003.06 158.327 Z" fill="#000000" fill-rule="evenodd" fill-opacity="1" /><path clip-path="url(#clip880)" d="M 0 0 M2043.39 148.443 L2043.39 152.47 Q2041.58 151.545 2039.64 151.082 Q2037.69 150.619 2035.61 150.619 Q2032.44 150.619 2030.84 151.591 Q2029.27 152.563 2029.27 154.507 Q2029.27 155.989 2030.4 156.845 Q2031.53 157.679 2034.96 158.443 L2036.42 158.767 Q2040.96 159.739 2042.85 161.521 Q2044.77 163.281 2044.77 166.452 Q2044.77 170.063 2041.9 172.169 Q2039.06 174.276 2034.06 174.276 Q2031.97 174.276 2029.71 173.859 Q2027.46 173.466 2024.96 172.656 L2024.96 168.257 Q2027.32 169.484 2029.61 170.109 Q2031.9 170.711 2034.15 170.711 Q2037.16 170.711 2038.78 169.693 Q2040.4 168.651 2040.4 166.776 Q2040.4 165.04 2039.22 164.114 Q2038.06 163.188 2034.1 162.332 L2032.62 161.984 Q2028.66 161.151 2026.9 159.438 Q2025.15 157.702 2025.15 154.693 Q2025.15 151.035 2027.74 149.045 Q2030.33 147.054 2035.1 147.054 Q2037.46 147.054 2039.54 147.401 Q2041.63 147.748 2043.39 148.443 Z" fill="#000000" fill-rule="evenodd" fill-opacity="1" /><path clip-path="url(#clip880)" d="M 0 0 M2053.36 169.716 L2053.36 183.466 L2049.08 183.466 L2049.08 147.679 L2053.36 147.679 L2053.36 151.614 Q2054.71 149.299 2056.74 148.188 Q2058.8 147.054 2061.65 147.054 Q2066.37 147.054 2069.31 150.804 Q2072.27 154.554 2072.27 160.665 Q2072.27 166.776 2069.31 170.526 Q2066.37 174.276 2061.65 174.276 Q2058.8 174.276 2056.74 173.165 Q2054.71 172.031 2053.36 169.716 M2067.85 160.665 Q2067.85 155.966 2065.91 153.304 Q2063.99 150.619 2060.61 150.619 Q2057.23 150.619 2055.28 153.304 Q2053.36 155.966 2053.36 160.665 Q2053.36 165.364 2055.28 168.049 Q2057.23 170.711 2060.61 170.711 Q2063.99 170.711 2065.91 168.049 Q2067.85 165.364 2067.85 160.665 Z" fill="#000000" fill-rule="evenodd" fill-opacity="1" /><path clip-path="url(#clip880)" d="M 0 0 M2098.92 159.577 L2098.92 161.66 L2079.33 161.66 Q2079.61 166.058 2081.97 168.373 Q2084.36 170.665 2088.59 170.665 Q2091.05 170.665 2093.34 170.063 Q2095.65 169.461 2097.92 168.257 L2097.92 172.285 Q2095.63 173.257 2093.22 173.767 Q2090.82 174.276 2088.34 174.276 Q2082.14 174.276 2078.5 170.665 Q2074.89 167.054 2074.89 160.896 Q2074.89 154.531 2078.32 150.804 Q2081.77 147.054 2087.6 147.054 Q2092.83 147.054 2095.86 150.433 Q2098.92 153.79 2098.92 159.577 M2094.66 158.327 Q2094.61 154.832 2092.69 152.748 Q2090.79 150.665 2087.64 150.665 Q2084.08 150.665 2081.93 152.679 Q2079.8 154.693 2079.47 158.35 L2094.66 158.327 Z" fill="#000000" fill-rule="evenodd" fill-opacity="1" /><path clip-path="url(#clip880)" d="M 0 0 M2122.04 148.674 L2122.04 152.656 Q2120.24 151.66 2118.41 151.174 Q2116.6 150.665 2114.75 150.665 Q2110.61 150.665 2108.32 153.304 Q2106.02 155.92 2106.02 160.665 Q2106.02 165.41 2108.32 168.049 Q2110.61 170.665 2114.75 170.665 Q2116.6 170.665 2118.41 170.179 Q2120.24 169.669 2122.04 168.674 L2122.04 172.609 Q2120.26 173.443 2118.34 173.859 Q2116.44 174.276 2114.29 174.276 Q2108.43 174.276 2104.98 170.595 Q2101.53 166.915 2101.53 160.665 Q2101.53 154.322 2105.01 150.688 Q2108.5 147.054 2114.57 147.054 Q2116.53 147.054 2118.41 147.471 Q2120.28 147.864 2122.04 148.674 Z" fill="#000000" fill-rule="evenodd" fill-opacity="1" /><path clip-path="url(#clip880)" d="M 0 0 M2130.72 140.318 L2130.72 147.679 L2139.5 147.679 L2139.5 150.989 L2130.72 150.989 L2130.72 165.063 Q2130.72 168.234 2131.58 169.137 Q2132.46 170.04 2135.12 170.04 L2139.5 170.04 L2139.5 173.605 L2135.12 173.605 Q2130.19 173.605 2128.32 171.776 Q2126.44 169.924 2126.44 165.063 L2126.44 150.989 L2123.32 150.989 L2123.32 147.679 L2126.44 147.679 L2126.44 140.318 L2130.72 140.318 Z" fill="#000000" fill-rule="evenodd" fill-opacity="1" /><path clip-path="url(#clip880)" d="M 0 0 M2158.99 151.66 Q2158.27 151.244 2157.41 151.058 Q2156.58 150.85 2155.56 150.85 Q2151.95 150.85 2150.01 153.211 Q2148.08 155.549 2148.08 159.947 L2148.08 173.605 L2143.8 173.605 L2143.8 147.679 L2148.08 147.679 L2148.08 151.707 Q2149.43 149.345 2151.58 148.211 Q2153.73 147.054 2156.81 147.054 Q2157.25 147.054 2157.78 147.123 Q2158.32 147.17 2158.96 147.285 L2158.99 151.66 Z" fill="#000000" fill-rule="evenodd" fill-opacity="1" /><path clip-path="url(#clip880)" d="M 0 0 M2163.01 163.373 L2163.01 147.679 L2167.27 147.679 L2167.27 163.211 Q2167.27 166.892 2168.71 168.744 Q2170.14 170.572 2173.01 170.572 Q2176.46 170.572 2178.45 168.373 Q2180.47 166.174 2180.47 162.378 L2180.47 147.679 L2184.73 147.679 L2184.73 173.605 L2180.47 173.605 L2180.47 169.623 Q2178.92 171.984 2176.86 173.142 Q2174.82 174.276 2172.11 174.276 Q2167.64 174.276 2165.33 171.498 Q2163.01 168.72 2163.01 163.373 M2173.73 147.054 L2173.73 147.054 Z" fill="#000000" fill-rule="evenodd" fill-opacity="1" /><path clip-path="url(#clip880)" d="M 0 0 M2209.38 152.656 Q2210.98 149.785 2213.2 148.42 Q2215.42 147.054 2218.43 147.054 Q2222.48 147.054 2224.68 149.901 Q2226.88 152.725 2226.88 157.957 L2226.88 173.605 L2222.6 173.605 L2222.6 158.095 Q2222.6 154.369 2221.28 152.563 Q2219.96 150.758 2217.25 150.758 Q2213.94 150.758 2212.02 152.957 Q2210.1 155.156 2210.1 158.952 L2210.1 173.605 L2205.82 173.605 L2205.82 158.095 Q2205.82 154.345 2204.5 152.563 Q2203.18 150.758 2200.42 150.758 Q2197.16 150.758 2195.24 152.98 Q2193.32 155.179 2193.32 158.952 L2193.32 173.605 L2189.03 173.605 L2189.03 147.679 L2193.32 147.679 L2193.32 151.707 Q2194.77 149.322 2196.81 148.188 Q2198.85 147.054 2201.65 147.054 Q2204.47 147.054 2206.44 148.489 Q2208.43 149.924 2209.38 152.656 Z" fill="#000000" fill-rule="evenodd" fill-opacity="1" /></svg>
