<?xml version="1.0" encoding="utf-8"?>
<svg xmlns="http://www.w3.org/2000/svg" xmlns:xlink="http://www.w3.org/1999/xlink" width="600" height="400" viewBox="0 0 2400 1600">
<defs>
  <clipPath id="clip850">
    <rect x="0" y="0" width="2400" height="1600"/>
  </clipPath>
</defs>
<path clip-path="url(#clip850)" d="
M0 1600 L2400 1600 L2400 0 L0 0  Z
  " fill="#ffffff" fill-rule="evenodd" fill-opacity="1"/>
<defs>
  <clipPath id="clip851">
    <rect x="480" y="0" width="1681" height="1600"/>
  </clipPath>
</defs>
<path clip-path="url(#clip850)" d="
M86.9921 1505.26 L2352.76 1505.26 L2352.76 47.2441 L86.9921 47.2441  Z
  " fill="#ffffff" fill-rule="evenodd" fill-opacity="1"/>
<defs>
  <clipPath id="clip852">
    <rect x="86" y="47" width="2267" height="1459"/>
  </clipPath>
</defs>
<polyline clip-path="url(#clip852)" style="stroke:#000000; stroke-width:2; stroke-opacity:0.1; fill:none" points="
  86.9921,1505.26 86.9921,47.2441 
  "/>
<polyline clip-path="url(#clip852)" style="stroke:#000000; stroke-width:2; stroke-opacity:0.1; fill:none" points="
  653.433,1505.26 653.433,47.2441 
  "/>
<polyline clip-path="url(#clip852)" style="stroke:#000000; stroke-width:2; stroke-opacity:0.1; fill:none" points="
  1219.87,1505.26 1219.87,47.2441 
  "/>
<polyline clip-path="url(#clip852)" style="stroke:#000000; stroke-width:2; stroke-opacity:0.1; fill:none" points="
  1786.31,1505.26 1786.31,47.2441 
  "/>
<polyline clip-path="url(#clip852)" style="stroke:#000000; stroke-width:2; stroke-opacity:0.1; fill:none" points="
  2352.76,1505.26 2352.76,47.2441 
  "/>
<polyline clip-path="url(#clip850)" style="stroke:#000000; stroke-width:4; stroke-opacity:1; fill:none" points="
  86.9921,1505.26 2352.76,1505.26 
  "/>
<polyline clip-path="url(#clip850)" style="stroke:#000000; stroke-width:4; stroke-opacity:1; fill:none" points="
  86.9921,1505.26 86.9921,1487.76 
  "/>
<polyline clip-path="url(#clip850)" style="stroke:#000000; stroke-width:4; stroke-opacity:1; fill:none" points="
  653.433,1505.26 653.433,1487.76 
  "/>
<polyline clip-path="url(#clip850)" style="stroke:#000000; stroke-width:4; stroke-opacity:1; fill:none" points="
  1219.87,1505.26 1219.87,1487.76 
  "/>
<polyline clip-path="url(#clip850)" style="stroke:#000000; stroke-width:4; stroke-opacity:1; fill:none" points="
  1786.31,1505.26 1786.31,1487.76 
  "/>
<polyline clip-path="url(#clip850)" style="stroke:#000000; stroke-width:4; stroke-opacity:1; fill:none" points="
  2352.76,1505.26 2352.76,1487.76 
  "/>
<path clip-path="url(#clip850)" d="M 0 0 M86.9921 1534.45 Q83.381 1534.45 81.5523 1538.02 Q79.7468 1541.56 79.7468 1548.69 Q79.7468 1555.79 81.5523 1559.36 Q83.381 1562.9 86.9921 1562.9 Q90.6264 1562.9 92.4319 1559.36 Q94.2606 1555.79 94.2606 1548.69 Q94.2606 1541.56 92.4319 1538.02 Q90.6264 1534.45 86.9921 1534.45 M86.9921 1530.75 Q92.8023 1530.75 95.8578 1535.35 Q98.9365 1539.94 98.9365 1548.69 Q98.9365 1557.41 95.8578 1562.02 Q92.8023 1566.6 86.9921 1566.6 Q81.182 1566.6 78.1033 1562.02 Q75.0477 1557.41 75.0477 1548.69 Q75.0477 1539.94 78.1033 1535.35 Q81.182 1530.75 86.9921 1530.75 Z" fill="#000000" fill-rule="evenodd" fill-opacity="1" /><path clip-path="url(#clip850)" d="M 0 0 M643.711 1531.37 L662.067 1531.37 L662.067 1535.31 L647.993 1535.31 L647.993 1543.78 Q649.012 1543.43 650.03 1543.27 Q651.049 1543.08 652.067 1543.08 Q657.854 1543.08 661.234 1546.26 Q664.614 1549.43 664.614 1554.84 Q664.614 1560.42 661.141 1563.52 Q657.669 1566.6 651.35 1566.6 Q649.174 1566.6 646.905 1566.23 Q644.66 1565.86 642.253 1565.12 L642.253 1560.42 Q644.336 1561.56 646.558 1562.11 Q648.78 1562.67 651.257 1562.67 Q655.262 1562.67 657.6 1560.56 Q659.938 1558.46 659.938 1554.84 Q659.938 1551.23 657.6 1549.13 Q655.262 1547.02 651.257 1547.02 Q649.382 1547.02 647.507 1547.44 Q645.655 1547.85 643.711 1548.73 L643.711 1531.37 Z" fill="#000000" fill-rule="evenodd" fill-opacity="1" /><path clip-path="url(#clip850)" d="M 0 0 M1196.75 1562 L1204.39 1562 L1204.39 1535.63 L1196.08 1537.3 L1196.08 1533.04 L1204.34 1531.37 L1209.02 1531.37 L1209.02 1562 L1216.66 1562 L1216.66 1565.93 L1196.75 1565.93 L1196.75 1562 Z" fill="#000000" fill-rule="evenodd" fill-opacity="1" /><path clip-path="url(#clip850)" d="M 0 0 M1231.73 1534.45 Q1228.11 1534.45 1226.29 1538.02 Q1224.48 1541.56 1224.48 1548.69 Q1224.48 1555.79 1226.29 1559.36 Q1228.11 1562.9 1231.73 1562.9 Q1235.36 1562.9 1237.17 1559.36 Q1238.99 1555.79 1238.99 1548.69 Q1238.99 1541.56 1237.17 1538.02 Q1235.36 1534.45 1231.73 1534.45 M1231.73 1530.75 Q1237.54 1530.75 1240.59 1535.35 Q1243.67 1539.94 1243.67 1548.69 Q1243.67 1557.41 1240.59 1562.02 Q1237.54 1566.6 1231.73 1566.6 Q1225.92 1566.6 1222.84 1562.02 Q1219.78 1557.41 1219.78 1548.69 Q1219.78 1539.94 1222.84 1535.35 Q1225.92 1530.75 1231.73 1530.75 Z" fill="#000000" fill-rule="evenodd" fill-opacity="1" /><path clip-path="url(#clip850)" d="M 0 0 M1763.69 1562 L1771.33 1562 L1771.33 1535.63 L1763.02 1537.3 L1763.02 1533.04 L1771.28 1531.37 L1775.96 1531.37 L1775.96 1562 L1783.6 1562 L1783.6 1565.93 L1763.69 1565.93 L1763.69 1562 Z" fill="#000000" fill-rule="evenodd" fill-opacity="1" /><path clip-path="url(#clip850)" d="M 0 0 M1788.71 1531.37 L1807.07 1531.37 L1807.07 1535.31 L1792.99 1535.31 L1792.99 1543.78 Q1794.01 1543.43 1795.03 1543.27 Q1796.05 1543.08 1797.07 1543.08 Q1802.85 1543.08 1806.23 1546.26 Q1809.61 1549.43 1809.61 1554.84 Q1809.61 1560.42 1806.14 1563.52 Q1802.67 1566.6 1796.35 1566.6 Q1794.17 1566.6 1791.91 1566.23 Q1789.66 1565.86 1787.25 1565.12 L1787.25 1560.42 Q1789.34 1561.56 1791.56 1562.11 Q1793.78 1562.67 1796.26 1562.67 Q1800.26 1562.67 1802.6 1560.56 Q1804.94 1558.46 1804.94 1554.84 Q1804.94 1551.23 1802.6 1549.13 Q1800.26 1547.02 1796.26 1547.02 Q1794.38 1547.02 1792.51 1547.44 Q1790.66 1547.85 1788.71 1548.73 L1788.71 1531.37 Z" fill="#000000" fill-rule="evenodd" fill-opacity="1" /><path clip-path="url(#clip850)" d="M 0 0 M2333.9 1562 L2350.22 1562 L2350.22 1565.93 L2328.28 1565.93 L2328.28 1562 Q2330.94 1559.24 2335.52 1554.61 Q2340.13 1549.96 2341.31 1548.62 Q2343.55 1546.09 2344.43 1544.36 Q2345.34 1542.6 2345.34 1540.91 Q2345.34 1538.15 2343.39 1536.42 Q2341.47 1534.68 2338.37 1534.68 Q2336.17 1534.68 2333.72 1535.45 Q2331.29 1536.21 2328.51 1537.76 L2328.51 1533.04 Q2331.33 1531.9 2333.79 1531.33 Q2336.24 1530.75 2338.28 1530.75 Q2343.65 1530.75 2346.84 1533.43 Q2350.04 1536.12 2350.04 1540.61 Q2350.04 1542.74 2349.23 1544.66 Q2348.44 1546.56 2346.33 1549.15 Q2345.75 1549.82 2342.65 1553.04 Q2339.55 1556.23 2333.9 1562 Z" fill="#000000" fill-rule="evenodd" fill-opacity="1" /><path clip-path="url(#clip850)" d="M 0 0 M2365.29 1534.45 Q2361.68 1534.45 2359.85 1538.02 Q2358.05 1541.56 2358.05 1548.69 Q2358.05 1555.79 2359.85 1559.36 Q2361.68 1562.9 2365.29 1562.9 Q2368.92 1562.9 2370.73 1559.36 Q2372.56 1555.79 2372.56 1548.69 Q2372.56 1541.56 2370.73 1538.02 Q2368.92 1534.45 2365.29 1534.45 M2365.29 1530.75 Q2371.1 1530.75 2374.16 1535.35 Q2377.23 1539.94 2377.23 1548.69 Q2377.23 1557.41 2374.16 1562.02 Q2371.1 1566.6 2365.29 1566.6 Q2359.48 1566.6 2356.4 1562.02 Q2353.35 1557.41 2353.35 1548.69 Q2353.35 1539.94 2356.4 1535.35 Q2359.48 1530.75 2365.29 1530.75 Z" fill="#000000" fill-rule="evenodd" fill-opacity="1" /><path clip-path="url(#clip850)" d="M 0 0 M1200.54 1608.08 L1208.34 1630.1 L1219.48 1602.48 L1225.68 1602.48 L1211.26 1638.12 L1211.26 1651.68 L1205.41 1651.68 L1205.41 1638.12 L1196.05 1611.52 Q1194.65 1607.5 1191.63 1607.5 L1190.07 1607.5 L1190.07 1602.48 L1192.29 1602.48 Q1198.56 1602.48 1200.54 1608.08 Z" fill="#000000" fill-rule="evenodd" fill-opacity="1" /><path clip-path="url(#clip850)" d="M 0 0 M1237.62 1592.35 L1237.62 1602.48 L1249.68 1602.48 L1249.68 1607.03 L1237.62 1607.03 L1237.62 1626.38 Q1237.62 1630.74 1238.8 1631.98 Q1240.01 1633.22 1243.67 1633.22 L1249.68 1633.22 L1249.68 1638.12 L1243.67 1638.12 Q1236.89 1638.12 1234.31 1635.61 Q1231.73 1633.06 1231.73 1626.38 L1231.73 1607.03 L1227.43 1607.03 L1227.43 1602.48 L1231.73 1602.48 L1231.73 1592.35 L1237.62 1592.35 Z" fill="#000000" fill-rule="evenodd" fill-opacity="1" /><polyline clip-path="url(#clip852)" style="stroke:#000000; stroke-width:2; stroke-opacity:0.1; fill:none" points="
  86.9921,1464 2352.76,1464 
  "/>
<polyline clip-path="url(#clip852)" style="stroke:#000000; stroke-width:2; stroke-opacity:0.1; fill:none" points="
  86.9921,1098.93 2352.76,1098.93 
  "/>
<polyline clip-path="url(#clip852)" style="stroke:#000000; stroke-width:2; stroke-opacity:0.1; fill:none" points="
  86.9921,733.874 2352.76,733.874 
  "/>
<polyline clip-path="url(#clip852)" style="stroke:#000000; stroke-width:2; stroke-opacity:0.1; fill:none" points="
  86.9921,368.813 2352.76,368.813 
  "/>
<polyline clip-path="url(#clip850)" style="stroke:#000000; stroke-width:4; stroke-opacity:1; fill:none" points="
  86.9921,1505.26 86.9921,47.2441 
  "/>
<polyline clip-path="url(#clip850)" style="stroke:#000000; stroke-width:4; stroke-opacity:1; fill:none" points="
  86.9921,1464 114.181,1464 
  "/>
<polyline clip-path="url(#clip850)" style="stroke:#000000; stroke-width:4; stroke-opacity:1; fill:none" points="
  86.9921,1098.93 114.181,1098.93 
  "/>
<polyline clip-path="url(#clip850)" style="stroke:#000000; stroke-width:4; stroke-opacity:1; fill:none" points="
  86.9921,733.874 114.181,733.874 
  "/>
<polyline clip-path="url(#clip850)" style="stroke:#000000; stroke-width:4; stroke-opacity:1; fill:none" points="
  86.9921,368.813 114.181,368.813 
  "/>
<path clip-path="url(#clip850)" d="M 0 0 M2.08035 1449.79 Q-1.53074 1449.79 -3.35943 1453.36 Q-5.16498 1456.9 -5.16498 1464.03 Q-5.16498 1471.14 -3.35943 1474.7 Q-1.53074 1478.24 2.08035 1478.24 Q5.71459 1478.24 7.52014 1474.7 Q9.34883 1471.14 9.34883 1464.03 Q9.34883 1456.9 7.52014 1453.36 Q5.71459 1449.79 2.08035 1449.79 M2.08035 1446.09 Q7.89051 1446.09 10.946 1450.7 Q14.0247 1455.28 14.0247 1464.03 Q14.0247 1472.76 10.946 1477.36 Q7.89051 1481.95 2.08035 1481.95 Q-3.7298 1481.95 -6.80849 1477.36 Q-9.86403 1472.76 -9.86403 1464.03 Q-9.86403 1455.28 -6.80849 1450.7 Q-3.7298 1446.09 2.08035 1446.09 Z" fill="#000000" fill-rule="evenodd" fill-opacity="1" /><path clip-path="url(#clip850)" d="M 0 0 M19.0941 1475.4 L23.9784 1475.4 L23.9784 1481.28 L19.0941 1481.28 L19.0941 1475.4 Z" fill="#000000" fill-rule="evenodd" fill-opacity="1" /><path clip-path="url(#clip850)" d="M 0 0 M39.0477 1449.79 Q35.4367 1449.79 33.608 1453.36 Q31.8024 1456.9 31.8024 1464.03 Q31.8024 1471.14 33.608 1474.7 Q35.4367 1478.24 39.0477 1478.24 Q42.682 1478.24 44.4875 1474.7 Q46.3162 1471.14 46.3162 1464.03 Q46.3162 1456.9 44.4875 1453.36 Q42.682 1449.79 39.0477 1449.79 M39.0477 1446.09 Q44.8579 1446.09 47.9134 1450.7 Q50.9921 1455.28 50.9921 1464.03 Q50.9921 1472.76 47.9134 1477.36 Q44.8579 1481.95 39.0477 1481.95 Q33.2376 1481.95 30.1589 1477.36 Q27.1034 1472.76 27.1034 1464.03 Q27.1034 1455.28 30.1589 1450.7 Q33.2376 1446.09 39.0477 1446.09 Z" fill="#000000" fill-rule="evenodd" fill-opacity="1" /><path clip-path="url(#clip850)" d="M 0 0 M3.67756 1084.73 Q0.0664729 1084.73 -1.76222 1088.3 Q-3.56777 1091.84 -3.56777 1098.97 Q-3.56777 1106.08 -1.76222 1109.64 Q0.0664729 1113.18 3.67756 1113.18 Q7.3118 1113.18 9.11735 1109.64 Q10.946 1106.08 10.946 1098.97 Q10.946 1091.84 9.11735 1088.3 Q7.3118 1084.73 3.67756 1084.73 M3.67756 1081.03 Q9.48772 1081.03 12.5433 1085.64 Q15.6219 1090.22 15.6219 1098.97 Q15.6219 1107.7 12.5433 1112.3 Q9.48772 1116.89 3.67756 1116.89 Q-2.13259 1116.89 -5.21128 1112.3 Q-8.26682 1107.7 -8.26682 1098.97 Q-8.26682 1090.22 -5.21128 1085.64 Q-2.13259 1081.03 3.67756 1081.03 Z" fill="#000000" fill-rule="evenodd" fill-opacity="1" /><path clip-path="url(#clip850)" d="M 0 0 M20.6914 1110.33 L25.5756 1110.33 L25.5756 1116.21 L20.6914 1116.21 L20.6914 1110.33 Z" fill="#000000" fill-rule="evenodd" fill-opacity="1" /><path clip-path="url(#clip850)" d="M 0 0 M34.6728 1112.28 L50.9921 1112.28 L50.9921 1116.21 L29.0478 1116.21 L29.0478 1112.28 Q31.7098 1109.52 36.2931 1104.9 Q40.8996 1100.24 42.0801 1098.9 Q44.3255 1096.38 45.2051 1094.64 Q46.1079 1092.88 46.1079 1091.19 Q46.1079 1088.44 44.1635 1086.7 Q42.2422 1084.96 39.1403 1084.96 Q36.9413 1084.96 34.4876 1085.73 Q32.057 1086.49 29.2793 1088.04 L29.2793 1083.32 Q32.1033 1082.19 34.557 1081.61 Q37.0107 1081.03 39.0477 1081.03 Q44.4181 1081.03 47.6125 1083.71 Q50.8069 1086.4 50.8069 1090.89 Q50.8069 1093.02 49.9968 1094.94 Q49.2097 1096.84 47.1033 1099.43 Q46.5246 1100.1 43.4227 1103.32 Q40.3209 1106.52 34.6728 1112.28 Z" fill="#000000" fill-rule="evenodd" fill-opacity="1" /><path clip-path="url(#clip850)" d="M 0 0 M1.59424 719.672 Q-2.01685 719.672 -3.84554 723.237 Q-5.65109 726.779 -5.65109 733.909 Q-5.65109 741.015 -3.84554 744.58 Q-2.01685 748.121 1.59424 748.121 Q5.22848 748.121 7.03403 744.58 Q8.86272 741.015 8.86272 733.909 Q8.86272 726.779 7.03403 723.237 Q5.22848 719.672 1.59424 719.672 M1.59424 715.969 Q7.4044 715.969 10.4599 720.575 Q13.5386 725.159 13.5386 733.909 Q13.5386 742.635 10.4599 747.242 Q7.4044 751.825 1.59424 751.825 Q-4.21591 751.825 -7.2946 747.242 Q-10.3501 742.635 -10.3501 733.909 Q-10.3501 725.159 -7.2946 720.575 Q-4.21591 715.969 1.59424 715.969 Z" fill="#000000" fill-rule="evenodd" fill-opacity="1" /><path clip-path="url(#clip850)" d="M 0 0 M18.608 745.274 L23.4923 745.274 L23.4923 751.154 L18.608 751.154 L18.608 745.274 Z" fill="#000000" fill-rule="evenodd" fill-opacity="1" /><path clip-path="url(#clip850)" d="M 0 0 M41.4088 720.668 L29.6034 739.117 L41.4088 739.117 L41.4088 720.668 M40.182 716.594 L46.0616 716.594 L46.0616 739.117 L50.9921 739.117 L50.9921 743.006 L46.0616 743.006 L46.0616 751.154 L41.4088 751.154 L41.4088 743.006 L25.8071 743.006 L25.8071 738.492 L40.182 716.594 Z" fill="#000000" fill-rule="evenodd" fill-opacity="1" /><path clip-path="url(#clip850)" d="M 0 0 M1.91831 354.612 Q-1.69278 354.612 -3.52147 358.177 Q-5.32702 361.718 -5.32702 368.848 Q-5.32702 375.954 -3.52147 379.519 Q-1.69278 383.061 1.91831 383.061 Q5.55255 383.061 7.3581 379.519 Q9.18679 375.954 9.18679 368.848 Q9.18679 361.718 7.3581 358.177 Q5.55255 354.612 1.91831 354.612 M1.91831 350.908 Q7.72847 350.908 10.784 355.515 Q13.8627 360.098 13.8627 368.848 Q13.8627 377.575 10.784 382.181 Q7.72847 386.764 1.91831 386.764 Q-3.89184 386.764 -6.97053 382.181 Q-10.0261 377.575 -10.0261 368.848 Q-10.0261 360.098 -6.97053 355.515 Q-3.89184 350.908 1.91831 350.908 Z" fill="#000000" fill-rule="evenodd" fill-opacity="1" /><path clip-path="url(#clip850)" d="M 0 0 M18.9321 380.213 L23.8163 380.213 L23.8163 386.093 L18.9321 386.093 L18.9321 380.213 Z" fill="#000000" fill-rule="evenodd" fill-opacity="1" /><path clip-path="url(#clip850)" d="M 0 0 M39.4644 366.95 Q36.3163 366.95 34.4644 369.102 Q32.6357 371.255 32.6357 375.005 Q32.6357 378.732 34.4644 380.908 Q36.3163 383.061 39.4644 383.061 Q42.6125 383.061 44.4412 380.908 Q46.2931 378.732 46.2931 375.005 Q46.2931 371.255 44.4412 369.102 Q42.6125 366.95 39.4644 366.95 M48.7468 352.297 L48.7468 356.556 Q46.9875 355.723 45.182 355.283 Q43.3996 354.843 41.6403 354.843 Q37.0107 354.843 34.557 357.968 Q32.1265 361.093 31.7793 367.413 Q33.145 365.399 35.2052 364.334 Q37.2653 363.246 39.7422 363.246 Q44.9505 363.246 47.9597 366.417 Q50.9921 369.565 50.9921 375.005 Q50.9921 380.329 47.844 383.547 Q44.6959 386.764 39.4644 386.764 Q33.4691 386.764 30.2978 382.181 Q27.1265 377.575 27.1265 368.848 Q27.1265 360.653 31.0154 355.792 Q34.9042 350.908 41.4551 350.908 Q43.2144 350.908 44.9968 351.255 Q46.8023 351.603 48.7468 352.297 Z" fill="#000000" fill-rule="evenodd" fill-opacity="1" /><polyline clip-path="url(#clip852)" style="stroke:#009af9; stroke-width:4; stroke-opacity:1; fill:none" points="
  86.9921,1464 89.2156,1461.21 91.4392,1452.99 93.6627,1439.53 95.8862,1421.07 98.1097,1397.88 100.333,1370.24 102.557,1338.44 104.78,1302.81 107.004,1263.69 
  109.227,1221.41 111.451,1176.34 113.674,1128.84 115.898,1079.27 118.121,1028.01 120.345,975.428 122.568,921.891 124.792,867.757 127.015,813.387 129.239,759.131 
  131.462,705.318 133.686,652.271 135.909,600.314 138.133,549.73 140.357,500.787 142.58,453.755 144.804,408.885 147.027,366.375 149.251,326.418 151.474,289.202 
  153.698,254.898 155.921,223.612 158.145,195.443 160.368,170.489 162.592,148.836 164.815,130.506 167.039,115.499 169.262,103.817 171.486,95.4589 173.709,90.3848 
  175.933,88.5087 178.156,89.7428 180.38,93.9994 182.603,101.184 184.827,111.154 187.05,123.755 189.274,138.833 191.497,156.236 193.721,175.785 195.944,197.288 
  198.168,220.553 200.391,245.389 202.615,271.596 204.839,298.966 207.062,327.295 209.286,356.379 211.509,386.01 213.733,415.991 215.956,446.125 218.18,476.214 
  220.403,506.072 222.627,535.523 224.85,564.395 227.074,592.515 229.297,619.735 231.521,645.915 233.744,670.918 235.968,694.613 238.191,716.899 240.415,737.681 
  242.638,756.866 244.862,774.374 247.085,790.155 249.309,804.162 251.532,816.35 253.756,826.694 255.979,835.191 258.203,841.843 260.426,846.651 262.65,849.641 
  264.873,850.854 267.097,850.337 269.321,848.132 271.544,844.301 273.768,838.924 275.991,832.081 278.215,823.85 280.438,814.321 282.662,803.598 284.885,791.783 
  287.109,778.979 289.332,765.291 291.556,750.836 293.779,735.726 296.003,720.073 298.226,703.989 300.45,687.59 302.673,670.99 304.897,654.295 307.12,637.61 
  309.344,621.04 311.567,604.693 313.791,588.663 316.014,573.033 318.238,557.889 320.461,543.314 322.685,529.393 324.908,516.19 327.132,503.759 329.355,492.153 
  331.579,481.423 333.803,471.623 336.026,462.786 338.25,454.93 340.473,448.07 342.697,442.223 344.92,437.404 347.144,433.621 349.367,430.859 351.591,429.099 
  353.814,428.319 356.038,428.502 358.261,429.627 360.485,431.66 362.708,434.556 364.932,438.267 367.155,442.748 369.379,447.953 371.602,453.832 373.826,460.323 
  376.049,467.366 378.273,474.903 380.496,482.872 382.72,491.215 384.943,499.865 387.167,508.757 389.39,517.832 391.614,527.028 393.837,536.284 396.061,545.535 
  398.285,554.727 400.508,563.806 402.732,572.719 404.955,581.414 407.179,589.837 409.402,597.947 411.626,605.706 413.849,613.076 416.073,620.019 418.296,626.499 
  420.52,632.493 422.743,637.981 424.967,642.944 427.19,647.364 429.414,651.223 431.637,654.515 433.861,657.242 436.084,659.404 438.308,661.003 440.531,662.04 
  442.755,662.522 444.978,662.468 447.202,661.897 449.425,660.826 451.649,659.276 453.872,657.264 456.096,654.819 458.319,651.972 460.543,648.753 462.766,645.191 
  464.99,641.318 467.214,637.165 469.437,632.77 471.661,628.167 473.884,623.39 476.108,618.473 478.331,613.451 480.555,608.358 482.778,603.232 485.002,598.104 
  487.225,593.004 489.449,587.962 491.672,583.008 493.896,578.174 496.119,573.49 498.343,568.977 500.566,564.655 502.79,560.546 505.013,556.668 507.237,553.043 
  509.46,549.69 511.684,546.62 513.907,543.841 516.131,541.358 518.354,539.18 520.578,537.312 522.801,535.763 525.025,534.533 527.248,533.618 529.472,533.01 
  531.696,532.705 533.919,532.695 536.143,532.974 538.366,533.536 540.59,534.369 542.813,535.456 545.037,536.783 547.26,538.334 549.484,540.093 551.707,542.046 
  553.931,544.175 556.154,546.46 558.378,548.881 560.601,551.42 562.825,554.057 565.048,556.774 567.272,559.553 569.495,562.374 571.719,565.214 573.942,568.058 
  576.166,570.888 578.389,573.688 580.613,576.442 582.836,579.132 585.06,581.742 587.283,584.256 589.507,586.665 591.73,588.956 593.954,591.122 596.178,593.151 
  598.401,595.033 600.625,596.757 602.848,598.318 605.072,599.713 607.295,600.939 609.519,601.995 611.742,602.879 613.966,603.588 616.189,604.12 618.413,604.478 
  620.636,604.665 622.86,604.688 625.083,604.551 627.307,604.261 629.53,603.823 631.754,603.242 633.977,602.523 636.201,601.678 638.424,600.715 640.648,599.645 
  642.871,598.479 645.095,597.224 647.318,595.892 649.542,594.491 651.765,593.034 653.989,591.533 656.212,589.998 658.436,588.439 660.66,586.866 662.883,585.288 
  665.107,583.716 667.33,582.159 669.554,580.629 671.777,579.135 674.001,577.684 676.224,576.282 678.448,574.937 680.671,573.655 682.895,572.442 685.118,571.305 
  687.342,570.251 689.565,569.285 691.789,568.408 694.012,567.621 696.236,566.927 698.459,566.326 700.683,565.82 702.906,565.412 705.13,565.101 707.353,564.889 
  709.577,564.771 711.8,564.745 714.024,564.807 716.247,564.955 718.471,565.185 720.694,565.494 722.918,565.878 725.141,566.335 727.365,566.859 729.589,567.443 
  731.812,568.082 734.036,568.77 736.259,569.501 738.483,570.271 740.706,571.073 742.93,571.902 745.153,572.752 747.377,573.615 749.6,574.486 751.824,575.359 
  754.047,576.23 756.271,577.093 758.494,577.945 760.718,578.779 762.941,579.591 765.165,580.375 767.388,581.125 769.612,581.84 771.835,582.516 774.059,583.151 
  776.282,583.744 778.506,584.291 780.729,584.79 782.953,585.238 785.176,585.634 787.4,585.976 789.623,586.263 791.847,586.496 794.071,586.677 796.294,586.806 
  798.518,586.883 800.741,586.91 802.965,586.888 805.188,586.816 807.412,586.696 809.635,586.531 811.859,586.325 814.082,586.079 816.306,585.797 818.529,585.481 
  820.753,585.134 822.976,584.759 825.2,584.358 827.423,583.935 829.647,583.493 831.87,583.037 834.094,582.569 836.317,582.093 838.541,581.612 840.764,581.128 
  842.988,580.644 845.211,580.163 847.435,579.689 849.658,579.223 851.882,578.771 854.105,578.335 856.329,577.916 858.553,577.516 860.776,577.137 863,576.779 
  865.223,576.445 867.447,576.136 869.67,575.852 871.894,575.596 874.117,575.37 876.341,575.174 878.564,575.008 880.788,574.871 883.011,574.765 885.235,574.686 
  887.458,574.637 889.682,574.614 891.905,574.62 894.129,574.652 896.352,574.71 898.576,574.794 900.799,574.902 903.023,575.033 905.246,575.184 907.47,575.353 
  909.693,575.541 911.917,575.744 914.14,575.961 916.364,576.192 918.587,576.433 920.811,576.683 923.035,576.942 925.258,577.205 927.482,577.471 929.705,577.738 
  931.929,578.005 934.152,578.27 936.376,578.533 938.599,578.791 940.823,579.044 943.046,579.289 945.27,579.526 947.493,579.753 949.717,579.968 951.94,580.169 
  954.164,580.357 956.387,580.531 958.611,580.69 960.834,580.834 963.058,580.964 965.281,581.078 967.505,581.177 969.728,581.259 971.952,581.326 974.175,581.377 
  976.399,581.41 978.622,581.428 980.846,581.429 983.069,581.416 985.293,581.388 987.516,581.347 989.74,581.293 991.964,581.227 994.187,581.149 996.411,581.06 
  998.634,580.961 1000.86,580.852 1003.08,580.735 1005.3,580.61 1007.53,580.479 1009.75,580.343 1011.98,580.203 1014.2,580.06 1016.42,579.915 1018.65,579.768 
  1020.87,579.62 1023.09,579.473 1025.32,579.326 1027.54,579.182 1029.76,579.04 1031.99,578.902 1034.21,578.77 1036.43,578.643 1038.66,578.524 1040.88,578.41 
  1043.1,578.304 1045.33,578.205 1047.55,578.113 1049.77,578.029 1052,577.953 1054.22,577.885 1056.45,577.826 1058.67,577.775 1060.89,577.734 1063.12,577.701 
  1065.34,577.678 1067.56,577.664 1069.79,577.659 1072.01,577.662 1074.23,577.672 1076.46,577.691 1078.68,577.716 1080.9,577.748 1083.13,577.787 1085.35,577.832 
  1087.57,577.883 1089.8,577.939 1092.02,578 1094.25,578.066 1096.47,578.135 1098.69,578.208 1100.92,578.283 1103.14,578.36 1105.36,578.439 1107.59,578.519 
  1109.81,578.599 1112.03,578.68 1114.26,578.76 1116.48,578.84 1118.7,578.918 1120.93,578.995 1123.15,579.07 1125.37,579.143 1127.6,579.212 1129.82,579.276 
  1132.05,579.337 1134.27,579.393 1136.49,579.446 1138.72,579.494 1140.94,579.538 1143.16,579.577 1145.39,579.612 1147.61,579.643 1149.83,579.669 1152.06,579.691 
  1154.28,579.708 1156.5,579.721 1158.73,579.728 1160.95,579.731 1163.17,579.73 1165.4,579.724 1167.62,579.714 1169.84,579.699 1172.07,579.682 1174.29,579.66 
  1176.52,579.636 1178.74,579.609 1180.96,579.578 1183.19,579.546 1185.41,579.511 1187.63,579.474 1189.86,579.435 1192.08,579.394 1194.3,579.352 1196.53,579.309 
  1198.75,579.266 1200.97,579.222 1203.2,579.179 1205.42,579.136 1207.64,579.094 1209.87,579.052 1212.09,579.012 1214.32,578.972 1216.54,578.933 1218.76,578.896 
  1220.99,578.861 1223.21,578.827 1225.43,578.795 1227.66,578.765 1229.88,578.737 1232.1,578.712 1234.33,578.69 1236.55,578.671 1238.77,578.655 1241,578.641 
  1243.22,578.63 1245.44,578.622 1247.67,578.616 1249.89,578.612 1252.12,578.611 1254.34,578.611 1256.56,578.614 1258.79,578.619 1261.01,578.626 1263.23,578.635 
  1265.46,578.645 1267.68,578.657 1269.9,578.67 1272.13,578.685 1274.35,578.702 1276.57,578.719 1278.8,578.737 1281.02,578.757 1283.24,578.777 1285.47,578.797 
  1287.69,578.819 1289.91,578.84 1292.14,578.862 1294.36,578.884 1296.59,578.907 1298.81,578.929 1301.03,578.951 1303.26,578.973 1305.48,578.994 1307.7,579.015 
  1309.93,579.035 1312.15,579.055 1314.37,579.073 1316.6,579.09 1318.82,579.106 1321.04,579.12 1323.27,579.133 1325.49,579.144 1327.71,579.155 1329.94,579.164 
  1332.16,579.172 1334.39,579.179 1336.61,579.184 1338.83,579.189 1341.06,579.192 1343.28,579.194 1345.5,579.196 1347.73,579.196 1349.95,579.195 1352.17,579.193 
  1354.4,579.19 1356.62,579.187 1358.84,579.182 1361.07,579.176 1363.29,579.17 1365.51,579.163 1367.74,579.156 1369.96,579.148 1372.18,579.139 1374.41,579.13 
  1376.63,579.12 1378.86,579.11 1381.08,579.1 1383.3,579.089 1385.53,579.079 1387.75,579.068 1389.97,579.057 1392.2,579.046 1394.42,579.035 1396.64,579.024 
  1398.87,579.013 1401.09,579.003 1403.31,578.992 1405.54,578.983 1407.76,578.974 1409.98,578.965 1412.21,578.957 1414.43,578.95 1416.66,578.943 1418.88,578.937 
  1421.1,578.931 1423.33,578.926 1425.55,578.922 1427.77,578.918 1430,578.914 1432.22,578.911 1434.44,578.909 1436.67,578.907 1438.89,578.906 1441.11,578.905 
  1443.34,578.904 1445.56,578.905 1447.78,578.905 1450.01,578.906 1452.23,578.908 1454.46,578.91 1456.68,578.912 1458.9,578.914 1461.13,578.917 1463.35,578.92 
  1465.57,578.923 1467.8,578.927 1470.02,578.93 1472.24,578.934 1474.47,578.938 1476.69,578.942 1478.91,578.946 1481.14,578.95 1483.36,578.955 1485.58,578.959 
  1487.81,578.964 1490.03,578.968 1492.25,578.972 1494.48,578.977 1496.7,578.981 1498.93,578.985 1501.15,578.989 1503.37,578.993 1505.6,578.997 1507.82,579 
  1510.04,579.003 1512.27,579.007 1514.49,579.009 1516.71,579.012 1518.94,579.015 1521.16,579.017 1523.38,579.019 1525.61,579.021 1527.83,579.023 1530.05,579.025 
  1532.28,579.026 1534.5,579.027 1536.73,579.028 1538.95,579.029 1541.17,579.03 1543.4,579.031 1545.62,579.031 1547.84,579.031 1550.07,579.031 1552.29,579.031 
  1554.51,579.031 1556.74,579.031 1558.96,579.031 1561.18,579.03 1563.41,579.03 1565.63,579.03 1567.85,579.029 1570.08,579.029 1572.3,579.029 1574.52,579.028 
  1576.75,579.028 1578.97,579.027 1581.2,579.027 1583.42,579.026 1585.64,579.026 1587.87,579.025 1590.09,579.025 1592.31,579.024 1594.54,579.024 1596.76,579.024 
  1598.98,579.023 1601.21,579.023 1603.43,579.022 1605.65,579.022 1607.88,579.022 1610.1,579.021 1612.32,579.021 1614.55,579.021 1616.77,579.02 1619,579.02 
  1621.22,579.02 1623.44,579.02 1625.67,579.02 1627.89,579.02 1630.11,579.02 1632.34,579.02 1634.56,579.019 1636.78,579.019 1639.01,579.019 1641.23,579.018 
  1643.45,579.018 1645.68,579.017 1647.9,579.016 1650.12,579.016 1652.35,579.015 1654.57,579.014 1656.8,579.013 1659.02,579.012 1661.24,579.011 1663.47,579.01 
  1665.69,579.009 1667.91,579.008 1670.14,579.007 1672.36,579.006 1674.58,579.005 1676.81,579.004 1679.03,579.003 1681.25,579.002 1683.48,579.001 1685.7,579 
  1687.92,578.999 1690.15,578.999 1692.37,578.998 1694.59,578.998 1696.82,578.998 1699.04,578.997 1701.27,578.997 1703.49,578.997 1705.71,578.997 1707.94,578.997 
  1710.16,578.998 1712.38,578.998 1714.61,578.998 1716.83,578.998 1719.05,578.999 1721.28,578.999 1723.5,578.999 1725.72,579 1727.95,579 1730.17,579 
  1732.39,579.001 1734.62,579.001 1736.84,579.001 1739.07,579.002 1741.29,579.002 1743.51,579.002 1745.74,579.002 1747.96,579.002 1750.18,579.002 1752.41,579.002 
  1754.63,579.001 1756.85,579.001 1759.08,579.001 1761.3,579 1763.52,579 1765.75,578.999 1767.97,578.999 1770.19,578.999 1772.42,578.999 1774.64,578.998 
  1776.87,578.998 1779.09,578.998 1781.31,578.998 1783.54,578.999 1785.76,578.999 1787.98,578.999 1790.21,578.999 1792.43,578.999 1794.65,578.999 1796.88,579 
  1799.1,579 1801.32,579 1803.55,579 1805.77,579.001 1807.99,579.001 1810.22,579.001 1812.44,579.001 1814.66,579.001 1816.89,579.002 1819.11,579.002 
  1821.34,579.002 1823.56,579.002 1825.78,579.002 1828.01,579.002 1830.23,579.002 1832.45,579.001 1834.68,579.001 1836.9,579.001 1839.12,579.001 1841.35,579 
  1843.57,579 1845.79,579 1848.02,579 1850.24,579 1852.46,579 1854.69,579 1856.91,579 1859.14,579 1861.36,579.001 1863.58,579.001 
  1865.81,579.001 1868.03,579.002 1870.25,579.002 1872.48,579.002 1874.7,579.003 1876.92,579.003 1879.15,579.004 1881.37,579.004 1883.59,579.005 1885.82,579.005 
  1888.04,579.005 1890.26,579.006 1892.49,579.006 1894.71,579.007 1896.93,579.007 1899.16,579.007 1901.38,579.007 1903.61,579.008 1905.83,579.008 1908.05,579.008 
  1910.28,579.008 1912.5,579.008 1914.72,579.008 1916.95,579.008 1919.17,579.007 1921.39,579.007 1923.62,579.006 1925.84,579.006 1928.06,579.005 1930.29,579.004 
  1932.51,579.004 1934.73,579.003 1936.96,579.003 1939.18,579.002 1941.41,579.002 1943.63,579.002 1945.85,579.002 1948.08,579.003 1950.3,579.003 1952.52,579.003 
  1954.75,579.004 1956.97,579.004 1959.19,579.005 1961.42,579.006 1963.64,579.006 1965.86,579.007 1968.09,579.008 1970.31,579.009 1972.53,579.01 1974.76,579.01 
  1976.98,579.011 1979.21,579.012 1981.43,579.013 1983.65,579.013 1985.88,579.014 1988.1,579.015 1990.32,579.015 1992.55,579.016 1994.77,579.016 1996.99,579.016 
  1999.22,579.017 2001.44,579.017 2003.66,579.017 2005.89,579.016 2008.11,579.016 2010.33,579.016 2012.56,579.015 2014.78,579.014 2017,579.013 2019.23,579.012 
  2021.45,579.011 2023.68,579.009 2025.9,579.009 2028.12,579.008 2030.35,579.007 2032.57,579.007 2034.79,579.007 2037.02,579.007 2039.24,579.007 2041.46,579.007 
  2043.69,579.007 2045.91,579.007 2048.13,579.008 2050.36,579.008 2052.58,579.009 2054.8,579.01 2057.03,579.01 2059.25,579.011 2061.48,579.011 2063.7,579.012 
  2065.92,579.013 2068.15,579.013 2070.37,579.014 2072.59,579.015 2074.82,579.015 2077.04,579.015 2079.26,579.016 2081.49,579.016 2083.71,579.016 2085.93,579.016 
  2088.16,579.016 2090.38,579.016 2092.6,579.016 2094.83,579.015 2097.05,579.014 2099.27,579.014 2101.5,579.012 2103.72,579.011 2105.95,579.011 2108.17,579.01 
  2110.39,579.009 2112.62,579.009 2114.84,579.008 2117.06,579.008 2119.29,579.008 2121.51,579.008 2123.73,579.008 2125.96,579.008 2128.18,579.008 2130.4,579.008 
  2132.63,579.008 2134.85,579.008 2137.07,579.009 2139.3,579.009 2141.52,579.009 2143.75,579.01 2145.97,579.01 2148.19,579.01 2150.42,579.01 2152.64,579.011 
  2154.86,579.011 2157.09,579.011 2159.31,579.011 2161.53,579.011 2163.76,579.011 2165.98,579.011 2168.2,579.011 2170.43,579.011 2172.65,579.011 2174.87,579.01 
  2177.1,579.01 2179.32,579.009 2181.55,579.008 2183.77,579.008 2185.99,579.007 2188.22,579.007 2190.44,579.007 2192.66,579.006 2194.89,579.006 2197.11,579.006 
  2199.33,579.006 2201.56,579.006 2203.78,579.006 2206,579.006 2208.23,579.006 2210.45,579.007 2212.67,579.007 2214.9,579.007 2217.12,579.007 2219.34,579.007 
  2221.57,579.008 2223.79,579.008 2226.02,579.008 2228.24,579.008 2230.46,579.009 2232.69,579.009 2234.91,579.009 2237.13,579.009 2239.36,579.009 2241.58,579.009 
  2243.8,579.009 2246.03,579.009 2248.25,579.009 2250.47,579.009 2252.7,579.009 2254.92,579.009 2257.14,579.008 2259.37,579.008 2261.59,579.007 2263.82,579.007 
  2266.04,579.007 2268.26,579.006 2270.49,579.006 2272.71,579.006 2274.93,579.006 2277.16,579.006 2279.38,579.006 2281.6,579.006 2283.83,579.006 2286.05,579.006 
  2288.27,579.007 2290.5,579.007 2292.72,579.007 2294.94,579.007 2297.17,579.008 2299.39,579.008 2301.62,579.008 2303.84,579.008 2306.06,579.009 2308.29,579.009 
  2310.51,579.009 2312.73,579.009 2314.96,579.01 2317.18,579.01 2319.4,579.01 2321.63,579.01 2323.85,579.01 2326.07,579.01 2328.3,579.01 2330.52,579.01 
  2332.74,579.01 2334.97,579.01 2337.19,579.01 2339.41,579.01 2341.64,579.009 2343.86,579.009 2346.09,579.008 2348.31,579.008 2350.53,579.007 2352.76,579.007 
  
  "/>
<path clip-path="url(#clip850)" d="
M1517.75 216.805 L2277.23 216.805 L2277.23 95.8446 L1517.75 95.8446  Z
  " fill="#ffffff" fill-rule="evenodd" fill-opacity="1"/>
<polyline clip-path="url(#clip850)" style="stroke:#000000; stroke-width:4; stroke-opacity:1; fill:none" points="
  1517.75,216.805 2277.23,216.805 2277.23,95.8446 1517.75,95.8446 1517.75,216.805 
  "/>
<polyline clip-path="url(#clip850)" style="stroke:#009af9; stroke-width:4; stroke-opacity:1; fill:none" points="
  1542.93,156.325 1693.98,156.325 
  "/>
<path clip-path="url(#clip850)" d="M 0 0 M1719.15 139.045 L1741 139.045 L1741 142.98 L1723.83 142.98 L1723.83 153.211 L1740.29 153.211 L1740.29 157.146 L1723.83 157.146 L1723.83 169.669 L1741.42 169.669 L1741.42 173.605 L1719.15 173.605 L1719.15 139.045 Z" fill="#000000" fill-rule="evenodd" fill-opacity="1" /><path clip-path="url(#clip850)" d="M 0 0 M1767.44 147.679 L1758.06 160.295 L1767.92 173.605 L1762.9 173.605 L1755.35 163.419 L1747.81 173.605 L1742.79 173.605 L1752.85 160.04 L1743.64 147.679 L1748.67 147.679 L1755.54 156.915 L1762.42 147.679 L1767.44 147.679 Z" fill="#000000" fill-rule="evenodd" fill-opacity="1" /><path clip-path="url(#clip850)" d="M 0 0 M1790.22 148.674 L1790.22 152.656 Q1788.41 151.66 1786.58 151.174 Q1784.78 150.665 1782.92 150.665 Q1778.78 150.665 1776.49 153.304 Q1774.2 155.92 1774.2 160.665 Q1774.2 165.41 1776.49 168.049 Q1778.78 170.665 1782.92 170.665 Q1784.78 170.665 1786.58 170.179 Q1788.41 169.669 1790.22 168.674 L1790.22 172.609 Q1788.43 173.443 1786.51 173.859 Q1784.61 174.276 1782.46 174.276 Q1776.6 174.276 1773.16 170.595 Q1769.71 166.915 1769.71 160.665 Q1769.71 154.322 1773.18 150.688 Q1776.67 147.054 1782.74 147.054 Q1784.71 147.054 1786.58 147.471 Q1788.46 147.864 1790.22 148.674 Z" fill="#000000" fill-rule="evenodd" fill-opacity="1" /><path clip-path="url(#clip850)" d="M 0 0 M1794.68 147.679 L1798.94 147.679 L1798.94 173.605 L1794.68 173.605 L1794.68 147.679 M1794.68 137.586 L1798.94 137.586 L1798.94 142.98 L1794.68 142.98 L1794.68 137.586 Z" fill="#000000" fill-rule="evenodd" fill-opacity="1" /><path clip-path="url(#clip850)" d="M 0 0 M1807.62 140.318 L1807.62 147.679 L1816.4 147.679 L1816.4 150.989 L1807.62 150.989 L1807.62 165.063 Q1807.62 168.234 1808.48 169.137 Q1809.36 170.04 1812.02 170.04 L1816.4 170.04 L1816.4 173.605 L1812.02 173.605 Q1807.09 173.605 1805.22 171.776 Q1803.34 169.924 1803.34 165.063 L1803.34 150.989 L1800.22 150.989 L1800.22 147.679 L1803.34 147.679 L1803.34 140.318 L1807.62 140.318 Z" fill="#000000" fill-rule="evenodd" fill-opacity="1" /><path clip-path="url(#clip850)" d="M 0 0 M1843.04 159.577 L1843.04 161.66 L1823.46 161.66 Q1823.73 166.058 1826.1 168.373 Q1828.48 170.665 1832.72 170.665 Q1835.17 170.665 1837.46 170.063 Q1839.78 169.461 1842.04 168.257 L1842.04 172.285 Q1839.75 173.257 1837.35 173.767 Q1834.94 174.276 1832.46 174.276 Q1826.26 174.276 1822.62 170.665 Q1819.01 167.054 1819.01 160.896 Q1819.01 154.531 1822.44 150.804 Q1825.89 147.054 1831.72 147.054 Q1836.95 147.054 1839.98 150.433 Q1843.04 153.79 1843.04 159.577 M1838.78 158.327 Q1838.73 154.832 1836.81 152.748 Q1834.91 150.665 1831.77 150.665 Q1828.2 150.665 1826.05 152.679 Q1823.92 154.693 1823.6 158.35 L1838.78 158.327 Z" fill="#000000" fill-rule="evenodd" fill-opacity="1" /><path clip-path="url(#clip850)" d="M 0 0 M1864.57 151.614 L1864.57 137.586 L1868.83 137.586 L1868.83 173.605 L1864.57 173.605 L1864.57 169.716 Q1863.22 172.031 1861.16 173.165 Q1859.13 174.276 1856.26 174.276 Q1851.56 174.276 1848.6 170.526 Q1845.66 166.776 1845.66 160.665 Q1845.66 154.554 1848.6 150.804 Q1851.56 147.054 1856.26 147.054 Q1859.13 147.054 1861.16 148.188 Q1863.22 149.299 1864.57 151.614 M1850.05 160.665 Q1850.05 165.364 1851.97 168.049 Q1853.92 170.711 1857.3 170.711 Q1860.68 170.711 1862.62 168.049 Q1864.57 165.364 1864.57 160.665 Q1864.57 155.966 1862.62 153.304 Q1860.68 150.619 1857.3 150.619 Q1853.92 150.619 1851.97 153.304 Q1850.05 155.966 1850.05 160.665 Z" fill="#000000" fill-rule="evenodd" fill-opacity="1" /><path clip-path="url(#clip850)" d="M 0 0 M1904.89 148.443 L1904.89 152.47 Q1903.09 151.545 1901.14 151.082 Q1899.2 150.619 1897.11 150.619 Q1893.94 150.619 1892.34 151.591 Q1890.77 152.563 1890.77 154.507 Q1890.77 155.989 1891.91 156.845 Q1893.04 157.679 1896.47 158.443 L1897.92 158.767 Q1902.46 159.739 1904.36 161.521 Q1906.28 163.281 1906.28 166.452 Q1906.28 170.063 1903.41 172.169 Q1900.56 174.276 1895.56 174.276 Q1893.48 174.276 1891.21 173.859 Q1888.97 173.466 1886.47 172.656 L1886.47 168.257 Q1888.83 169.484 1891.12 170.109 Q1893.41 170.711 1895.66 170.711 Q1898.66 170.711 1900.28 169.693 Q1901.91 168.651 1901.91 166.776 Q1901.91 165.04 1900.72 164.114 Q1899.57 163.188 1895.61 162.332 L1894.13 161.984 Q1890.17 161.151 1888.41 159.438 Q1886.65 157.702 1886.65 154.693 Q1886.65 151.035 1889.24 149.045 Q1891.84 147.054 1896.6 147.054 Q1898.97 147.054 1901.05 147.401 Q1903.13 147.748 1904.89 148.443 Z" fill="#000000" fill-rule="evenodd" fill-opacity="1" /><path clip-path="url(#clip850)" d="M 0 0 M1914.96 140.318 L1914.96 147.679 L1923.73 147.679 L1923.73 150.989 L1914.96 150.989 L1914.96 165.063 Q1914.96 168.234 1915.82 169.137 Q1916.7 170.04 1919.36 170.04 L1923.73 170.04 L1923.73 173.605 L1919.36 173.605 Q1914.43 173.605 1912.55 171.776 Q1910.68 169.924 1910.68 165.063 L1910.68 150.989 L1907.55 150.989 L1907.55 147.679 L1910.68 147.679 L1910.68 140.318 L1914.96 140.318 Z" fill="#000000" fill-rule="evenodd" fill-opacity="1" /><path clip-path="url(#clip850)" d="M 0 0 M1939.98 160.572 Q1934.82 160.572 1932.83 161.753 Q1930.84 162.933 1930.84 165.781 Q1930.84 168.049 1932.32 169.392 Q1933.83 170.711 1936.4 170.711 Q1939.94 170.711 1942.07 168.211 Q1944.22 165.688 1944.22 161.521 L1944.22 160.572 L1939.98 160.572 M1948.48 158.813 L1948.48 173.605 L1944.22 173.605 L1944.22 169.669 Q1942.76 172.031 1940.59 173.165 Q1938.41 174.276 1935.26 174.276 Q1931.28 174.276 1928.92 172.054 Q1926.58 169.808 1926.58 166.058 Q1926.58 161.683 1929.5 159.461 Q1932.44 157.239 1938.25 157.239 L1944.22 157.239 L1944.22 156.822 Q1944.22 153.883 1942.28 152.285 Q1940.35 150.665 1936.86 150.665 Q1934.64 150.665 1932.53 151.197 Q1930.42 151.73 1928.48 152.795 L1928.48 148.859 Q1930.82 147.957 1933.02 147.517 Q1935.22 147.054 1937.3 147.054 Q1942.92 147.054 1945.7 149.97 Q1948.48 152.887 1948.48 158.813 Z" fill="#000000" fill-rule="evenodd" fill-opacity="1" /><path clip-path="url(#clip850)" d="M 0 0 M1957.16 140.318 L1957.16 147.679 L1965.93 147.679 L1965.93 150.989 L1957.16 150.989 L1957.16 165.063 Q1957.16 168.234 1958.02 169.137 Q1958.9 170.04 1961.56 170.04 L1965.93 170.04 L1965.93 173.605 L1961.56 173.605 Q1956.63 173.605 1954.75 171.776 Q1952.88 169.924 1952.88 165.063 L1952.88 150.989 L1949.75 150.989 L1949.75 147.679 L1952.88 147.679 L1952.88 140.318 L1957.16 140.318 Z" fill="#000000" fill-rule="evenodd" fill-opacity="1" /><path clip-path="url(#clip850)" d="M 0 0 M1992.58 159.577 L1992.58 161.66 L1972.99 161.66 Q1973.27 166.058 1975.63 168.373 Q1978.02 170.665 1982.25 170.665 Q1984.71 170.665 1987 170.063 Q1989.31 169.461 1991.58 168.257 L1991.58 172.285 Q1989.29 173.257 1986.88 173.767 Q1984.47 174.276 1982 174.276 Q1975.79 174.276 1972.16 170.665 Q1968.55 167.054 1968.55 160.896 Q1968.55 154.531 1971.97 150.804 Q1975.42 147.054 1981.26 147.054 Q1986.49 147.054 1989.52 150.433 Q1992.58 153.79 1992.58 159.577 M1988.32 158.327 Q1988.27 154.832 1986.35 152.748 Q1984.45 150.665 1981.3 150.665 Q1977.74 150.665 1975.59 152.679 Q1973.46 154.693 1973.13 158.35 L1988.32 158.327 Z" fill="#000000" fill-rule="evenodd" fill-opacity="1" /><path clip-path="url(#clip850)" d="M 0 0 M2016.23 169.716 L2016.23 183.466 L2011.95 183.466 L2011.95 147.679 L2016.23 147.679 L2016.23 151.614 Q2017.58 149.299 2019.61 148.188 Q2021.67 147.054 2024.52 147.054 Q2029.24 147.054 2032.18 150.804 Q2035.15 154.554 2035.15 160.665 Q2035.15 166.776 2032.18 170.526 Q2029.24 174.276 2024.52 174.276 Q2021.67 174.276 2019.61 173.165 Q2017.58 172.031 2016.23 169.716 M2030.72 160.665 Q2030.72 155.966 2028.78 153.304 Q2026.86 150.619 2023.48 150.619 Q2020.1 150.619 2018.15 153.304 Q2016.23 155.966 2016.23 160.665 Q2016.23 165.364 2018.15 168.049 Q2020.1 170.711 2023.48 170.711 Q2026.86 170.711 2028.78 168.049 Q2030.72 165.364 2030.72 160.665 Z" fill="#000000" fill-rule="evenodd" fill-opacity="1" /><path clip-path="url(#clip850)" d="M 0 0 M2049.66 150.665 Q2046.23 150.665 2044.24 153.35 Q2042.25 156.012 2042.25 160.665 Q2042.25 165.318 2044.22 168.003 Q2046.21 170.665 2049.66 170.665 Q2053.06 170.665 2055.05 167.98 Q2057.04 165.294 2057.04 160.665 Q2057.04 156.058 2055.05 153.373 Q2053.06 150.665 2049.66 150.665 M2049.66 147.054 Q2055.21 147.054 2058.39 150.665 Q2061.56 154.276 2061.56 160.665 Q2061.56 167.031 2058.39 170.665 Q2055.21 174.276 2049.66 174.276 Q2044.08 174.276 2040.91 170.665 Q2037.76 167.031 2037.76 160.665 Q2037.76 154.276 2040.91 150.665 Q2044.08 147.054 2049.66 147.054 Z" fill="#000000" fill-rule="evenodd" fill-opacity="1" /><path clip-path="url(#clip850)" d="M 0 0 M2070.14 169.716 L2070.14 183.466 L2065.86 183.466 L2065.86 147.679 L2070.14 147.679 L2070.14 151.614 Q2071.49 149.299 2073.52 148.188 Q2075.58 147.054 2078.43 147.054 Q2083.15 147.054 2086.09 150.804 Q2089.06 154.554 2089.06 160.665 Q2089.06 166.776 2086.09 170.526 Q2083.15 174.276 2078.43 174.276 Q2075.58 174.276 2073.52 173.165 Q2071.49 172.031 2070.14 169.716 M2084.64 160.665 Q2084.64 155.966 2082.69 153.304 Q2080.77 150.619 2077.39 150.619 Q2074.01 150.619 2072.07 153.304 Q2070.14 155.966 2070.14 160.665 Q2070.14 165.364 2072.07 168.049 Q2074.01 170.711 2077.39 170.711 Q2080.77 170.711 2082.69 168.049 Q2084.64 165.364 2084.64 160.665 Z" fill="#000000" fill-rule="evenodd" fill-opacity="1" /><path clip-path="url(#clip850)" d="M 0 0 M2093.08 163.373 L2093.08 147.679 L2097.34 147.679 L2097.34 163.211 Q2097.34 166.892 2098.78 168.744 Q2100.21 170.572 2103.08 170.572 Q2106.53 170.572 2108.52 168.373 Q2110.54 166.174 2110.54 162.378 L2110.54 147.679 L2114.8 147.679 L2114.8 173.605 L2110.54 173.605 L2110.54 169.623 Q2108.99 171.984 2106.93 173.142 Q2104.89 174.276 2102.18 174.276 Q2097.71 174.276 2095.4 171.498 Q2093.08 168.72 2093.08 163.373 M2103.8 147.054 L2103.8 147.054 Z" fill="#000000" fill-rule="evenodd" fill-opacity="1" /><path clip-path="url(#clip850)" d="M 0 0 M2119.26 137.586 L2123.52 137.586 L2123.52 173.605 L2119.26 173.605 L2119.26 137.586 Z" fill="#000000" fill-rule="evenodd" fill-opacity="1" /><path clip-path="url(#clip850)" d="M 0 0 M2139.77 160.572 Q2134.61 160.572 2132.62 161.753 Q2130.63 162.933 2130.63 165.781 Q2130.63 168.049 2132.11 169.392 Q2133.62 170.711 2136.19 170.711 Q2139.73 170.711 2141.86 168.211 Q2144.01 165.688 2144.01 161.521 L2144.01 160.572 L2139.77 160.572 M2148.27 158.813 L2148.27 173.605 L2144.01 173.605 L2144.01 169.669 Q2142.55 172.031 2140.38 173.165 Q2138.2 174.276 2135.05 174.276 Q2131.07 174.276 2128.71 172.054 Q2126.37 169.808 2126.37 166.058 Q2126.37 161.683 2129.29 159.461 Q2132.23 157.239 2138.04 157.239 L2144.01 157.239 L2144.01 156.822 Q2144.01 153.883 2142.07 152.285 Q2140.14 150.665 2136.65 150.665 Q2134.43 150.665 2132.32 151.197 Q2130.21 151.73 2128.27 152.795 L2128.27 148.859 Q2130.61 147.957 2132.81 147.517 Q2135.01 147.054 2137.09 147.054 Q2142.71 147.054 2145.49 149.97 Q2148.27 152.887 2148.27 158.813 Z" fill="#000000" fill-rule="evenodd" fill-opacity="1" /><path clip-path="url(#clip850)" d="M 0 0 M2156.95 140.318 L2156.95 147.679 L2165.72 147.679 L2165.72 150.989 L2156.95 150.989 L2156.95 165.063 Q2156.95 168.234 2157.81 169.137 Q2158.69 170.04 2161.35 170.04 L2165.72 170.04 L2165.72 173.605 L2161.35 173.605 Q2156.42 173.605 2154.54 171.776 Q2152.67 169.924 2152.67 165.063 L2152.67 150.989 L2149.54 150.989 L2149.54 147.679 L2152.67 147.679 L2152.67 140.318 L2156.95 140.318 Z" fill="#000000" fill-rule="evenodd" fill-opacity="1" /><path clip-path="url(#clip850)" d="M 0 0 M2170.19 147.679 L2174.45 147.679 L2174.45 173.605 L2170.19 173.605 L2170.19 147.679 M2170.19 137.586 L2174.45 137.586 L2174.45 142.98 L2170.19 142.98 L2170.19 137.586 Z" fill="#000000" fill-rule="evenodd" fill-opacity="1" /><path clip-path="url(#clip850)" d="M 0 0 M2188.96 150.665 Q2185.54 150.665 2183.55 153.35 Q2181.56 156.012 2181.56 160.665 Q2181.56 165.318 2183.52 168.003 Q2185.51 170.665 2188.96 170.665 Q2192.37 170.665 2194.36 167.98 Q2196.35 165.294 2196.35 160.665 Q2196.35 156.058 2194.36 153.373 Q2192.37 150.665 2188.96 150.665 M2188.96 147.054 Q2194.52 147.054 2197.69 150.665 Q2200.86 154.276 2200.86 160.665 Q2200.86 167.031 2197.69 170.665 Q2194.52 174.276 2188.96 174.276 Q2183.39 174.276 2180.21 170.665 Q2177.07 167.031 2177.07 160.665 Q2177.07 154.276 2180.21 150.665 Q2183.39 147.054 2188.96 147.054 Z" fill="#000000" fill-rule="evenodd" fill-opacity="1" /><path clip-path="url(#clip850)" d="M 0 0 M2226.88 157.957 L2226.88 173.605 L2222.62 173.605 L2222.62 158.095 Q2222.62 154.415 2221.19 152.586 Q2219.75 150.758 2216.88 150.758 Q2213.43 150.758 2211.44 152.957 Q2209.45 155.156 2209.45 158.952 L2209.45 173.605 L2205.17 173.605 L2205.17 147.679 L2209.45 147.679 L2209.45 151.707 Q2210.98 149.369 2213.04 148.211 Q2215.12 147.054 2217.83 147.054 Q2222.3 147.054 2224.59 149.832 Q2226.88 152.586 2226.88 157.957 Z" fill="#000000" fill-rule="evenodd" fill-opacity="1" /></svg>
