<?xml version="1.0" encoding="utf-8"?>
<svg xmlns="http://www.w3.org/2000/svg" xmlns:xlink="http://www.w3.org/1999/xlink" width="600" height="400" viewBox="0 0 2400 1600">
<defs>
  <clipPath id="clip470">
    <rect x="0" y="0" width="2400" height="1600"/>
  </clipPath>
</defs>
<path clip-path="url(#clip470)" d="
M0 1600 L2400 1600 L2400 0 L0 0  Z
  " fill="#ffffff" fill-rule="evenodd" fill-opacity="1"/>
<defs>
  <clipPath id="clip471">
    <rect x="480" y="0" width="1681" height="1600"/>
  </clipPath>
</defs>
<path clip-path="url(#clip470)" d="
M186.274 1423.18 L2352.76 1423.18 L2352.76 47.2441 L186.274 47.2441  Z
  " fill="#ffffff" fill-rule="evenodd" fill-opacity="1"/>
<defs>
  <clipPath id="clip472">
    <rect x="186" y="47" width="2167" height="1377"/>
  </clipPath>
</defs>
<polyline clip-path="url(#clip472)" style="stroke:#000000; stroke-linecap:butt; stroke-linejoin:round; stroke-width:2; stroke-opacity:0.1; fill:none" points="
  456.293,1423.18 456.293,47.2441 
  "/>
<polyline clip-path="url(#clip472)" style="stroke:#000000; stroke-linecap:butt; stroke-linejoin:round; stroke-width:2; stroke-opacity:0.1; fill:none" points="
  727.367,1423.18 727.367,47.2441 
  "/>
<polyline clip-path="url(#clip472)" style="stroke:#000000; stroke-linecap:butt; stroke-linejoin:round; stroke-width:2; stroke-opacity:0.1; fill:none" points="
  998.441,1423.18 998.441,47.2441 
  "/>
<polyline clip-path="url(#clip472)" style="stroke:#000000; stroke-linecap:butt; stroke-linejoin:round; stroke-width:2; stroke-opacity:0.1; fill:none" points="
  1269.51,1423.18 1269.51,47.2441 
  "/>
<polyline clip-path="url(#clip472)" style="stroke:#000000; stroke-linecap:butt; stroke-linejoin:round; stroke-width:2; stroke-opacity:0.1; fill:none" points="
  1540.59,1423.18 1540.59,47.2441 
  "/>
<polyline clip-path="url(#clip472)" style="stroke:#000000; stroke-linecap:butt; stroke-linejoin:round; stroke-width:2; stroke-opacity:0.1; fill:none" points="
  1811.66,1423.18 1811.66,47.2441 
  "/>
<polyline clip-path="url(#clip472)" style="stroke:#000000; stroke-linecap:butt; stroke-linejoin:round; stroke-width:2; stroke-opacity:0.1; fill:none" points="
  2082.74,1423.18 2082.74,47.2441 
  "/>
<polyline clip-path="url(#clip470)" style="stroke:#000000; stroke-linecap:butt; stroke-linejoin:round; stroke-width:4; stroke-opacity:1; fill:none" points="
  186.274,1423.18 2352.76,1423.18 
  "/>
<polyline clip-path="url(#clip470)" style="stroke:#000000; stroke-linecap:butt; stroke-linejoin:round; stroke-width:4; stroke-opacity:1; fill:none" points="
  456.293,1423.18 456.293,1406.67 
  "/>
<polyline clip-path="url(#clip470)" style="stroke:#000000; stroke-linecap:butt; stroke-linejoin:round; stroke-width:4; stroke-opacity:1; fill:none" points="
  727.367,1423.18 727.367,1406.67 
  "/>
<polyline clip-path="url(#clip470)" style="stroke:#000000; stroke-linecap:butt; stroke-linejoin:round; stroke-width:4; stroke-opacity:1; fill:none" points="
  998.441,1423.18 998.441,1406.67 
  "/>
<polyline clip-path="url(#clip470)" style="stroke:#000000; stroke-linecap:butt; stroke-linejoin:round; stroke-width:4; stroke-opacity:1; fill:none" points="
  1269.51,1423.18 1269.51,1406.67 
  "/>
<polyline clip-path="url(#clip470)" style="stroke:#000000; stroke-linecap:butt; stroke-linejoin:round; stroke-width:4; stroke-opacity:1; fill:none" points="
  1540.59,1423.18 1540.59,1406.67 
  "/>
<polyline clip-path="url(#clip470)" style="stroke:#000000; stroke-linecap:butt; stroke-linejoin:round; stroke-width:4; stroke-opacity:1; fill:none" points="
  1811.66,1423.18 1811.66,1406.67 
  "/>
<polyline clip-path="url(#clip470)" style="stroke:#000000; stroke-linecap:butt; stroke-linejoin:round; stroke-width:4; stroke-opacity:1; fill:none" points="
  2082.74,1423.18 2082.74,1406.67 
  "/>
<path clip-path="url(#clip470)" d="M410.853 1467.02 L440.529 1467.02 L440.529 1470.96 L410.853 1470.96 L410.853 1467.02 Z" fill="#000000" fill-rule="evenodd" fill-opacity="1" /><path clip-path="url(#clip470)" d="M451.431 1479.92 L459.07 1479.92 L459.07 1453.55 L450.76 1455.22 L450.76 1450.96 L459.024 1449.29 L463.7 1449.29 L463.7 1479.92 L471.339 1479.92 L471.339 1483.85 L451.431 1483.85 L451.431 1479.92 Z" fill="#000000" fill-rule="evenodd" fill-opacity="1" /><path clip-path="url(#clip470)" d="M480.829 1449.29 L499.186 1449.29 L499.186 1453.23 L485.112 1453.23 L485.112 1461.7 Q486.13 1461.35 487.149 1461.19 Q488.167 1461 489.186 1461 Q494.973 1461 498.352 1464.18 Q501.732 1467.35 501.732 1472.76 Q501.732 1478.34 498.26 1481.44 Q494.788 1484.52 488.468 1484.52 Q486.292 1484.52 484.024 1484.15 Q481.779 1483.78 479.371 1483.04 L479.371 1478.34 Q481.454 1479.48 483.677 1480.03 Q485.899 1480.59 488.376 1480.59 Q492.38 1480.59 494.718 1478.48 Q497.056 1476.38 497.056 1472.76 Q497.056 1469.15 494.718 1467.05 Q492.38 1464.94 488.376 1464.94 Q486.501 1464.94 484.626 1465.36 Q482.774 1465.77 480.829 1466.65 L480.829 1449.29 Z" fill="#000000" fill-rule="evenodd" fill-opacity="1" /><path clip-path="url(#clip470)" d="M681.429 1467.02 L711.105 1467.02 L711.105 1470.96 L681.429 1470.96 L681.429 1467.02 Z" fill="#000000" fill-rule="evenodd" fill-opacity="1" /><path clip-path="url(#clip470)" d="M722.008 1479.92 L729.647 1479.92 L729.647 1453.55 L721.337 1455.22 L721.337 1450.96 L729.6 1449.29 L734.276 1449.29 L734.276 1479.92 L741.915 1479.92 L741.915 1483.85 L722.008 1483.85 L722.008 1479.92 Z" fill="#000000" fill-rule="evenodd" fill-opacity="1" /><path clip-path="url(#clip470)" d="M761.36 1452.37 Q757.748 1452.37 755.92 1455.94 Q754.114 1459.48 754.114 1466.61 Q754.114 1473.71 755.92 1477.28 Q757.748 1480.82 761.36 1480.82 Q764.994 1480.82 766.799 1477.28 Q768.628 1473.71 768.628 1466.61 Q768.628 1459.48 766.799 1455.94 Q764.994 1452.37 761.36 1452.37 M761.36 1448.67 Q767.17 1448.67 770.225 1453.27 Q773.304 1457.86 773.304 1466.61 Q773.304 1475.33 770.225 1479.94 Q767.17 1484.52 761.36 1484.52 Q755.549 1484.52 752.471 1479.94 Q749.415 1475.33 749.415 1466.61 Q749.415 1457.86 752.471 1453.27 Q755.549 1448.67 761.36 1448.67 Z" fill="#000000" fill-rule="evenodd" fill-opacity="1" /><path clip-path="url(#clip470)" d="M968.082 1467.02 L997.758 1467.02 L997.758 1470.96 L968.082 1470.96 L968.082 1467.02 Z" fill="#000000" fill-rule="evenodd" fill-opacity="1" /><path clip-path="url(#clip470)" d="M1007.9 1449.29 L1026.25 1449.29 L1026.25 1453.23 L1012.18 1453.23 L1012.18 1461.7 Q1013.2 1461.35 1014.22 1461.19 Q1015.23 1461 1016.25 1461 Q1022.04 1461 1025.42 1464.18 Q1028.8 1467.35 1028.8 1472.76 Q1028.8 1478.34 1025.33 1481.44 Q1021.86 1484.52 1015.54 1484.52 Q1013.36 1484.52 1011.09 1484.15 Q1008.85 1483.78 1006.44 1483.04 L1006.44 1478.34 Q1008.52 1479.48 1010.74 1480.03 Q1012.97 1480.59 1015.44 1480.59 Q1019.45 1480.59 1021.79 1478.48 Q1024.12 1476.38 1024.12 1472.76 Q1024.12 1469.15 1021.79 1467.05 Q1019.45 1464.94 1015.44 1464.94 Q1013.57 1464.94 1011.69 1465.36 Q1009.84 1465.77 1007.9 1466.65 L1007.9 1449.29 Z" fill="#000000" fill-rule="evenodd" fill-opacity="1" /><path clip-path="url(#clip470)" d="M1269.51 1452.37 Q1265.9 1452.37 1264.08 1455.94 Q1262.27 1459.48 1262.27 1466.61 Q1262.27 1473.71 1264.08 1477.28 Q1265.9 1480.82 1269.51 1480.82 Q1273.15 1480.82 1274.95 1477.28 Q1276.78 1473.71 1276.78 1466.61 Q1276.78 1459.48 1274.95 1455.94 Q1273.15 1452.37 1269.51 1452.37 M1269.51 1448.67 Q1275.33 1448.67 1278.38 1453.27 Q1281.46 1457.86 1281.46 1466.61 Q1281.46 1475.33 1278.38 1479.94 Q1275.33 1484.52 1269.51 1484.52 Q1263.7 1484.52 1260.63 1479.94 Q1257.57 1475.33 1257.57 1466.61 Q1257.57 1457.86 1260.63 1453.27 Q1263.7 1448.67 1269.51 1448.67 Z" fill="#000000" fill-rule="evenodd" fill-opacity="1" /><path clip-path="url(#clip470)" d="M1530.87 1449.29 L1549.22 1449.29 L1549.22 1453.23 L1535.15 1453.23 L1535.15 1461.7 Q1536.17 1461.35 1537.19 1461.19 Q1538.2 1461 1539.22 1461 Q1545.01 1461 1548.39 1464.18 Q1551.77 1467.35 1551.77 1472.76 Q1551.77 1478.34 1548.3 1481.44 Q1544.83 1484.52 1538.51 1484.52 Q1536.33 1484.52 1534.06 1484.15 Q1531.82 1483.78 1529.41 1483.04 L1529.41 1478.34 Q1531.49 1479.48 1533.71 1480.03 Q1535.94 1480.59 1538.41 1480.59 Q1542.42 1480.59 1544.76 1478.48 Q1547.09 1476.38 1547.09 1472.76 Q1547.09 1469.15 1544.76 1467.05 Q1542.42 1464.94 1538.41 1464.94 Q1536.54 1464.94 1534.66 1465.36 Q1532.81 1465.77 1530.87 1466.65 L1530.87 1449.29 Z" fill="#000000" fill-rule="evenodd" fill-opacity="1" /><path clip-path="url(#clip470)" d="M1786.35 1479.92 L1793.99 1479.92 L1793.99 1453.55 L1785.68 1455.22 L1785.68 1450.96 L1793.94 1449.29 L1798.62 1449.29 L1798.62 1479.92 L1806.26 1479.92 L1806.26 1483.85 L1786.35 1483.85 L1786.35 1479.92 Z" fill="#000000" fill-rule="evenodd" fill-opacity="1" /><path clip-path="url(#clip470)" d="M1825.7 1452.37 Q1822.09 1452.37 1820.26 1455.94 Q1818.46 1459.48 1818.46 1466.61 Q1818.46 1473.71 1820.26 1477.28 Q1822.09 1480.82 1825.7 1480.82 Q1829.34 1480.82 1831.14 1477.28 Q1832.97 1473.71 1832.97 1466.61 Q1832.97 1459.48 1831.14 1455.94 Q1829.34 1452.37 1825.7 1452.37 M1825.7 1448.67 Q1831.51 1448.67 1834.57 1453.27 Q1837.65 1457.86 1837.65 1466.61 Q1837.65 1475.33 1834.57 1479.94 Q1831.51 1484.52 1825.7 1484.52 Q1819.89 1484.52 1816.81 1479.94 Q1813.76 1475.33 1813.76 1466.61 Q1813.76 1457.86 1816.81 1453.27 Q1819.89 1448.67 1825.7 1448.67 Z" fill="#000000" fill-rule="evenodd" fill-opacity="1" /><path clip-path="url(#clip470)" d="M2057.92 1479.92 L2065.56 1479.92 L2065.56 1453.55 L2057.25 1455.22 L2057.25 1450.96 L2065.52 1449.29 L2070.19 1449.29 L2070.19 1479.92 L2077.83 1479.92 L2077.83 1483.85 L2057.92 1483.85 L2057.92 1479.92 Z" fill="#000000" fill-rule="evenodd" fill-opacity="1" /><path clip-path="url(#clip470)" d="M2087.32 1449.29 L2105.68 1449.29 L2105.68 1453.23 L2091.6 1453.23 L2091.6 1461.7 Q2092.62 1461.35 2093.64 1461.19 Q2094.66 1461 2095.68 1461 Q2101.46 1461 2104.84 1464.18 Q2108.22 1467.35 2108.22 1472.76 Q2108.22 1478.34 2104.75 1481.44 Q2101.28 1484.52 2094.96 1484.52 Q2092.78 1484.52 2090.52 1484.15 Q2088.27 1483.78 2085.86 1483.04 L2085.86 1478.34 Q2087.95 1479.48 2090.17 1480.03 Q2092.39 1480.59 2094.87 1480.59 Q2098.87 1480.59 2101.21 1478.48 Q2103.55 1476.38 2103.55 1472.76 Q2103.55 1469.15 2101.21 1467.05 Q2098.87 1464.94 2094.87 1464.94 Q2092.99 1464.94 2091.12 1465.36 Q2089.27 1465.77 2087.32 1466.65 L2087.32 1449.29 Z" fill="#000000" fill-rule="evenodd" fill-opacity="1" /><path clip-path="url(#clip470)" d="M1186.32 1568.97 Q1173.11 1568.97 1173.11 1550.06 Q1173.11 1542.58 1178.04 1532.4 L1184.34 1532.4 Q1179.79 1542.58 1179.79 1550.22 Q1179.79 1564 1186.86 1564 Q1193.32 1564 1193.32 1546.88 L1198.73 1546.88 Q1198.73 1564 1205.19 1564 Q1212.26 1564 1212.26 1550.22 Q1212.26 1542.58 1207.7 1532.4 L1214.01 1532.4 Q1218.94 1542.58 1218.94 1550.06 Q1218.94 1568.97 1205.73 1568.97 Q1197.07 1568.97 1196.02 1559.45 Q1194.72 1568.97 1186.32 1568.97 Z" fill="#000000" fill-rule="evenodd" fill-opacity="1" /><path clip-path="url(#clip470)" d="M1247.3 1547.58 L1264.45 1547.58 L1264.45 1552.8 L1247.3 1552.8 L1247.3 1547.58 Z" fill="#000000" fill-rule="evenodd" fill-opacity="1" /><path clip-path="url(#clip470)" d="M1305.86 1568.97 Q1292.65 1568.97 1292.65 1550.06 Q1292.65 1542.58 1297.59 1532.4 L1303.89 1532.4 Q1299.34 1542.58 1299.34 1550.22 Q1299.34 1564 1306.4 1564 Q1312.87 1564 1312.87 1546.88 L1318.28 1546.88 Q1318.28 1564 1324.74 1564 Q1331.8 1564 1331.8 1550.22 Q1331.8 1542.58 1327.25 1532.4 L1333.55 1532.4 Q1338.49 1542.58 1338.49 1550.06 Q1338.49 1568.97 1325.28 1568.97 Q1316.62 1568.97 1315.57 1559.45 Q1314.27 1568.97 1305.86 1568.97 Z" fill="#000000" fill-rule="evenodd" fill-opacity="1" /><path clip-path="url(#clip470)" d="M1352.62 1559.51 Q1353.92 1565.88 1356.69 1565.88 Q1358.54 1565.88 1360.93 1562.22 L1365.16 1562.22 Q1363.25 1565.47 1361.02 1567.15 Q1358.6 1568.97 1356.38 1568.97 Q1351.41 1568.97 1349.4 1564.54 L1347.02 1568.04 L1342.05 1568.04 Q1345.49 1563.37 1348.04 1559 Q1347.72 1556.52 1347.72 1553.82 Q1347.72 1548.98 1348.7 1544.14 Q1352.43 1525.97 1355.74 1522.24 Q1358.03 1519.66 1361.95 1519.66 Q1365.92 1519.66 1365.92 1525.17 Q1365.89 1527.65 1365.32 1530.61 Q1363.03 1542.74 1352.62 1559.51 M1352.59 1551.17 Q1358.54 1540.1 1360.35 1531.25 Q1361.31 1526.57 1361.31 1525.36 Q1361.31 1523.17 1360.51 1523.17 Q1357.04 1525.93 1353.96 1542.42 Q1353.1 1547.04 1352.59 1551.17 Z" fill="#000000" fill-rule="evenodd" fill-opacity="1" /><polyline clip-path="url(#clip472)" style="stroke:#000000; stroke-linecap:butt; stroke-linejoin:round; stroke-width:2; stroke-opacity:0.1; fill:none" points="
  186.274,1384.33 2352.76,1384.33 
  "/>
<polyline clip-path="url(#clip472)" style="stroke:#000000; stroke-linecap:butt; stroke-linejoin:round; stroke-width:2; stroke-opacity:0.1; fill:none" points="
  186.274,1066.25 2352.76,1066.25 
  "/>
<polyline clip-path="url(#clip472)" style="stroke:#000000; stroke-linecap:butt; stroke-linejoin:round; stroke-width:2; stroke-opacity:0.1; fill:none" points="
  186.274,748.178 2352.76,748.178 
  "/>
<polyline clip-path="url(#clip472)" style="stroke:#000000; stroke-linecap:butt; stroke-linejoin:round; stroke-width:2; stroke-opacity:0.1; fill:none" points="
  186.274,430.105 2352.76,430.105 
  "/>
<polyline clip-path="url(#clip472)" style="stroke:#000000; stroke-linecap:butt; stroke-linejoin:round; stroke-width:2; stroke-opacity:0.1; fill:none" points="
  186.274,112.031 2352.76,112.031 
  "/>
<polyline clip-path="url(#clip470)" style="stroke:#000000; stroke-linecap:butt; stroke-linejoin:round; stroke-width:4; stroke-opacity:1; fill:none" points="
  186.274,1423.18 186.274,47.2441 
  "/>
<polyline clip-path="url(#clip470)" style="stroke:#000000; stroke-linecap:butt; stroke-linejoin:round; stroke-width:4; stroke-opacity:1; fill:none" points="
  186.274,1384.33 212.272,1384.33 
  "/>
<polyline clip-path="url(#clip470)" style="stroke:#000000; stroke-linecap:butt; stroke-linejoin:round; stroke-width:4; stroke-opacity:1; fill:none" points="
  186.274,1066.25 212.272,1066.25 
  "/>
<polyline clip-path="url(#clip470)" style="stroke:#000000; stroke-linecap:butt; stroke-linejoin:round; stroke-width:4; stroke-opacity:1; fill:none" points="
  186.274,748.178 212.272,748.178 
  "/>
<polyline clip-path="url(#clip470)" style="stroke:#000000; stroke-linecap:butt; stroke-linejoin:round; stroke-width:4; stroke-opacity:1; fill:none" points="
  186.274,430.105 212.272,430.105 
  "/>
<polyline clip-path="url(#clip470)" style="stroke:#000000; stroke-linecap:butt; stroke-linejoin:round; stroke-width:4; stroke-opacity:1; fill:none" points="
  186.274,112.031 212.272,112.031 
  "/>
<path clip-path="url(#clip470)" d="M62.9365 1370.12 Q59.3254 1370.12 57.4967 1373.69 Q55.6912 1377.23 55.6912 1384.36 Q55.6912 1391.47 57.4967 1395.03 Q59.3254 1398.57 62.9365 1398.57 Q66.5707 1398.57 68.3763 1395.03 Q70.205 1391.47 70.205 1384.36 Q70.205 1377.23 68.3763 1373.69 Q66.5707 1370.12 62.9365 1370.12 M62.9365 1366.42 Q68.7467 1366.42 71.8022 1371.03 Q74.8809 1375.61 74.8809 1384.36 Q74.8809 1393.09 71.8022 1397.69 Q68.7467 1402.28 62.9365 1402.28 Q57.1264 1402.28 54.0477 1397.69 Q50.9921 1393.09 50.9921 1384.36 Q50.9921 1375.61 54.0477 1371.03 Q57.1264 1366.42 62.9365 1366.42 Z" fill="#000000" fill-rule="evenodd" fill-opacity="1" /><path clip-path="url(#clip470)" d="M83.0984 1395.73 L87.9827 1395.73 L87.9827 1401.61 L83.0984 1401.61 L83.0984 1395.73 Z" fill="#000000" fill-rule="evenodd" fill-opacity="1" /><path clip-path="url(#clip470)" d="M108.168 1370.12 Q104.557 1370.12 102.728 1373.69 Q100.922 1377.23 100.922 1384.36 Q100.922 1391.47 102.728 1395.03 Q104.557 1398.57 108.168 1398.57 Q111.802 1398.57 113.608 1395.03 Q115.436 1391.47 115.436 1384.36 Q115.436 1377.23 113.608 1373.69 Q111.802 1370.12 108.168 1370.12 M108.168 1366.42 Q113.978 1366.42 117.033 1371.03 Q120.112 1375.61 120.112 1384.36 Q120.112 1393.09 117.033 1397.69 Q113.978 1402.28 108.168 1402.28 Q102.358 1402.28 99.2789 1397.69 Q96.2234 1393.09 96.2234 1384.36 Q96.2234 1375.61 99.2789 1371.03 Q102.358 1366.42 108.168 1366.42 Z" fill="#000000" fill-rule="evenodd" fill-opacity="1" /><path clip-path="url(#clip470)" d="M138.33 1370.12 Q134.719 1370.12 132.89 1373.69 Q131.084 1377.23 131.084 1384.36 Q131.084 1391.47 132.89 1395.03 Q134.719 1398.57 138.33 1398.57 Q141.964 1398.57 143.769 1395.03 Q145.598 1391.47 145.598 1384.36 Q145.598 1377.23 143.769 1373.69 Q141.964 1370.12 138.33 1370.12 M138.33 1366.42 Q144.14 1366.42 147.195 1371.03 Q150.274 1375.61 150.274 1384.36 Q150.274 1393.09 147.195 1397.69 Q144.14 1402.28 138.33 1402.28 Q132.519 1402.28 129.441 1397.69 Q126.385 1393.09 126.385 1384.36 Q126.385 1375.61 129.441 1371.03 Q132.519 1366.42 138.33 1366.42 Z" fill="#000000" fill-rule="evenodd" fill-opacity="1" /><path clip-path="url(#clip470)" d="M63.9319 1052.05 Q60.3208 1052.05 58.4921 1055.62 Q56.6865 1059.16 56.6865 1066.29 Q56.6865 1073.39 58.4921 1076.96 Q60.3208 1080.5 63.9319 1080.5 Q67.5661 1080.5 69.3717 1076.96 Q71.2004 1073.39 71.2004 1066.29 Q71.2004 1059.16 69.3717 1055.62 Q67.5661 1052.05 63.9319 1052.05 M63.9319 1048.35 Q69.742 1048.35 72.7976 1052.95 Q75.8763 1057.54 75.8763 1066.29 Q75.8763 1075.01 72.7976 1079.62 Q69.742 1084.2 63.9319 1084.2 Q58.1217 1084.2 55.043 1079.62 Q51.9875 1075.01 51.9875 1066.29 Q51.9875 1057.54 55.043 1052.95 Q58.1217 1048.35 63.9319 1048.35 Z" fill="#000000" fill-rule="evenodd" fill-opacity="1" /><path clip-path="url(#clip470)" d="M84.0938 1077.65 L88.978 1077.65 L88.978 1083.53 L84.0938 1083.53 L84.0938 1077.65 Z" fill="#000000" fill-rule="evenodd" fill-opacity="1" /><path clip-path="url(#clip470)" d="M103.191 1079.6 L119.51 1079.6 L119.51 1083.53 L97.566 1083.53 L97.566 1079.6 Q100.228 1076.84 104.811 1072.21 Q109.418 1067.56 110.598 1066.22 Q112.844 1063.69 113.723 1061.96 Q114.626 1060.2 114.626 1058.51 Q114.626 1055.75 112.682 1054.02 Q110.76 1052.28 107.658 1052.28 Q105.459 1052.28 103.006 1053.05 Q100.575 1053.81 97.7974 1055.36 L97.7974 1050.64 Q100.621 1049.5 103.075 1048.93 Q105.529 1048.35 107.566 1048.35 Q112.936 1048.35 116.131 1051.03 Q119.325 1053.72 119.325 1058.21 Q119.325 1060.34 118.515 1062.26 Q117.728 1064.16 115.621 1066.75 Q115.043 1067.42 111.941 1070.64 Q108.839 1073.83 103.191 1079.6 Z" fill="#000000" fill-rule="evenodd" fill-opacity="1" /><path clip-path="url(#clip470)" d="M129.371 1048.97 L147.728 1048.97 L147.728 1052.91 L133.654 1052.91 L133.654 1061.38 Q134.672 1061.03 135.691 1060.87 Q136.709 1060.68 137.728 1060.68 Q143.515 1060.68 146.894 1063.86 Q150.274 1067.03 150.274 1072.44 Q150.274 1078.02 146.802 1081.12 Q143.33 1084.2 137.01 1084.2 Q134.834 1084.2 132.566 1083.83 Q130.32 1083.46 127.913 1082.72 L127.913 1078.02 Q129.996 1079.16 132.219 1079.71 Q134.441 1080.27 136.918 1080.27 Q140.922 1080.27 143.26 1078.16 Q145.598 1076.06 145.598 1072.44 Q145.598 1068.83 143.26 1066.73 Q140.922 1064.62 136.918 1064.62 Q135.043 1064.62 133.168 1065.04 Q131.316 1065.45 129.371 1066.33 L129.371 1048.97 Z" fill="#000000" fill-rule="evenodd" fill-opacity="1" /><path clip-path="url(#clip470)" d="M62.9365 733.977 Q59.3254 733.977 57.4967 737.542 Q55.6912 741.084 55.6912 748.213 Q55.6912 755.32 57.4967 758.884 Q59.3254 762.426 62.9365 762.426 Q66.5707 762.426 68.3763 758.884 Q70.205 755.32 70.205 748.213 Q70.205 741.084 68.3763 737.542 Q66.5707 733.977 62.9365 733.977 M62.9365 730.273 Q68.7467 730.273 71.8022 734.88 Q74.8809 739.463 74.8809 748.213 Q74.8809 756.94 71.8022 761.546 Q68.7467 766.13 62.9365 766.13 Q57.1264 766.13 54.0477 761.546 Q50.9921 756.94 50.9921 748.213 Q50.9921 739.463 54.0477 734.88 Q57.1264 730.273 62.9365 730.273 Z" fill="#000000" fill-rule="evenodd" fill-opacity="1" /><path clip-path="url(#clip470)" d="M83.0984 759.579 L87.9827 759.579 L87.9827 765.458 L83.0984 765.458 L83.0984 759.579 Z" fill="#000000" fill-rule="evenodd" fill-opacity="1" /><path clip-path="url(#clip470)" d="M98.2141 730.898 L116.57 730.898 L116.57 734.834 L102.496 734.834 L102.496 743.306 Q103.515 742.959 104.534 742.796 Q105.552 742.611 106.571 742.611 Q112.358 742.611 115.737 745.783 Q119.117 748.954 119.117 754.37 Q119.117 759.949 115.645 763.051 Q112.172 766.13 105.853 766.13 Q103.677 766.13 101.409 765.759 Q99.1632 765.389 96.7558 764.648 L96.7558 759.949 Q98.8391 761.083 101.061 761.639 Q103.284 762.195 105.76 762.195 Q109.765 762.195 112.103 760.088 Q114.441 757.982 114.441 754.37 Q114.441 750.759 112.103 748.653 Q109.765 746.546 105.76 746.546 Q103.885 746.546 102.01 746.963 Q100.159 747.38 98.2141 748.259 L98.2141 730.898 Z" fill="#000000" fill-rule="evenodd" fill-opacity="1" /><path clip-path="url(#clip470)" d="M138.33 733.977 Q134.719 733.977 132.89 737.542 Q131.084 741.084 131.084 748.213 Q131.084 755.32 132.89 758.884 Q134.719 762.426 138.33 762.426 Q141.964 762.426 143.769 758.884 Q145.598 755.32 145.598 748.213 Q145.598 741.084 143.769 737.542 Q141.964 733.977 138.33 733.977 M138.33 730.273 Q144.14 730.273 147.195 734.88 Q150.274 739.463 150.274 748.213 Q150.274 756.94 147.195 761.546 Q144.14 766.13 138.33 766.13 Q132.519 766.13 129.441 761.546 Q126.385 756.94 126.385 748.213 Q126.385 739.463 129.441 734.88 Q132.519 730.273 138.33 730.273 Z" fill="#000000" fill-rule="evenodd" fill-opacity="1" /><path clip-path="url(#clip470)" d="M63.9319 415.903 Q60.3208 415.903 58.4921 419.468 Q56.6865 423.01 56.6865 430.139 Q56.6865 437.246 58.4921 440.811 Q60.3208 444.352 63.9319 444.352 Q67.5661 444.352 69.3717 440.811 Q71.2004 437.246 71.2004 430.139 Q71.2004 423.01 69.3717 419.468 Q67.5661 415.903 63.9319 415.903 M63.9319 412.2 Q69.742 412.2 72.7976 416.806 Q75.8763 421.39 75.8763 430.139 Q75.8763 438.866 72.7976 443.473 Q69.742 448.056 63.9319 448.056 Q58.1217 448.056 55.043 443.473 Q51.9875 438.866 51.9875 430.139 Q51.9875 421.39 55.043 416.806 Q58.1217 412.2 63.9319 412.2 Z" fill="#000000" fill-rule="evenodd" fill-opacity="1" /><path clip-path="url(#clip470)" d="M84.0938 441.505 L88.978 441.505 L88.978 447.385 L84.0938 447.385 L84.0938 441.505 Z" fill="#000000" fill-rule="evenodd" fill-opacity="1" /><path clip-path="url(#clip470)" d="M97.9826 412.825 L120.205 412.825 L120.205 414.815 L107.658 447.385 L102.774 447.385 L114.58 416.76 L97.9826 416.76 L97.9826 412.825 Z" fill="#000000" fill-rule="evenodd" fill-opacity="1" /><path clip-path="url(#clip470)" d="M129.371 412.825 L147.728 412.825 L147.728 416.76 L133.654 416.76 L133.654 425.232 Q134.672 424.885 135.691 424.723 Q136.709 424.538 137.728 424.538 Q143.515 424.538 146.894 427.709 Q150.274 430.88 150.274 436.297 Q150.274 441.876 146.802 444.977 Q143.33 448.056 137.01 448.056 Q134.834 448.056 132.566 447.686 Q130.32 447.315 127.913 446.575 L127.913 441.876 Q129.996 443.01 132.219 443.565 Q134.441 444.121 136.918 444.121 Q140.922 444.121 143.26 442.014 Q145.598 439.908 145.598 436.297 Q145.598 432.686 143.26 430.579 Q140.922 428.473 136.918 428.473 Q135.043 428.473 133.168 428.889 Q131.316 429.306 129.371 430.186 L129.371 412.825 Z" fill="#000000" fill-rule="evenodd" fill-opacity="1" /><path clip-path="url(#clip470)" d="M53.7467 125.376 L61.3856 125.376 L61.3856 99.0103 L53.0754 100.677 L53.0754 96.4178 L61.3393 94.7511 L66.0152 94.7511 L66.0152 125.376 L73.654 125.376 L73.654 129.311 L53.7467 129.311 L53.7467 125.376 Z" fill="#000000" fill-rule="evenodd" fill-opacity="1" /><path clip-path="url(#clip470)" d="M83.0984 123.432 L87.9827 123.432 L87.9827 129.311 L83.0984 129.311 L83.0984 123.432 Z" fill="#000000" fill-rule="evenodd" fill-opacity="1" /><path clip-path="url(#clip470)" d="M108.168 97.8298 Q104.557 97.8298 102.728 101.395 Q100.922 104.936 100.922 112.066 Q100.922 119.172 102.728 122.737 Q104.557 126.279 108.168 126.279 Q111.802 126.279 113.608 122.737 Q115.436 119.172 115.436 112.066 Q115.436 104.936 113.608 101.395 Q111.802 97.8298 108.168 97.8298 M108.168 94.1261 Q113.978 94.1261 117.033 98.7326 Q120.112 103.316 120.112 112.066 Q120.112 120.793 117.033 125.399 Q113.978 129.982 108.168 129.982 Q102.358 129.982 99.2789 125.399 Q96.2234 120.793 96.2234 112.066 Q96.2234 103.316 99.2789 98.7326 Q102.358 94.1261 108.168 94.1261 Z" fill="#000000" fill-rule="evenodd" fill-opacity="1" /><path clip-path="url(#clip470)" d="M138.33 97.8298 Q134.719 97.8298 132.89 101.395 Q131.084 104.936 131.084 112.066 Q131.084 119.172 132.89 122.737 Q134.719 126.279 138.33 126.279 Q141.964 126.279 143.769 122.737 Q145.598 119.172 145.598 112.066 Q145.598 104.936 143.769 101.395 Q141.964 97.8298 138.33 97.8298 M138.33 94.1261 Q144.14 94.1261 147.195 98.7326 Q150.274 103.316 150.274 112.066 Q150.274 120.793 147.195 125.399 Q144.14 129.982 138.33 129.982 Q132.519 129.982 129.441 125.399 Q126.385 120.793 126.385 112.066 Q126.385 103.316 129.441 98.7326 Q132.519 94.1261 138.33 94.1261 Z" fill="#000000" fill-rule="evenodd" fill-opacity="1" /><polyline clip-path="url(#clip472)" style="stroke:#009af9; stroke-linecap:butt; stroke-linejoin:round; stroke-width:4; stroke-opacity:1; fill:none" points="
  247.59,1384.24 249.633,1384.24 251.677,1384.24 253.721,1384.24 255.765,1384.24 257.809,1384.23 259.853,1384.23 261.896,1384.23 263.94,1384.23 265.984,1384.23 
  268.028,1384.23 270.072,1384.23 272.116,1384.23 274.16,1384.23 276.203,1384.23 278.247,1384.23 280.291,1384.23 282.335,1384.22 284.379,1384.22 286.423,1384.22 
  288.467,1384.22 290.51,1384.22 292.554,1384.22 294.598,1384.22 296.642,1384.22 298.686,1384.22 300.73,1384.22 302.774,1384.22 304.817,1384.21 306.861,1384.21 
  308.905,1384.21 310.949,1384.21 312.993,1384.21 315.037,1384.21 317.08,1384.21 319.124,1384.21 321.168,1384.21 323.212,1384.2 325.256,1384.2 327.3,1384.2 
  329.344,1384.2 331.387,1384.2 333.431,1384.2 335.475,1384.2 337.519,1384.2 339.563,1384.2 341.607,1384.19 343.651,1384.19 345.694,1384.19 347.738,1384.19 
  349.782,1384.19 351.826,1384.19 353.87,1384.19 355.914,1384.18 357.957,1384.18 360.001,1384.18 362.045,1384.18 364.089,1384.18 366.133,1384.18 368.177,1384.18 
  370.221,1384.17 372.264,1384.17 374.308,1384.17 376.352,1384.17 378.396,1384.17 380.44,1384.17 382.484,1384.17 384.528,1384.16 386.571,1384.16 388.615,1384.16 
  390.659,1384.16 392.703,1384.16 394.747,1384.16 396.791,1384.15 398.834,1384.15 400.878,1384.15 402.922,1384.15 404.966,1384.15 407.01,1384.15 409.054,1384.14 
  411.098,1384.14 413.141,1384.14 415.185,1384.14 417.229,1384.14 419.273,1384.13 421.317,1384.13 423.361,1384.13 425.405,1384.13 427.448,1384.13 429.492,1384.12 
  431.536,1384.12 433.58,1384.12 435.624,1384.12 437.668,1384.11 439.712,1384.11 441.755,1384.11 443.799,1384.11 445.843,1384.11 447.887,1384.1 449.931,1384.1 
  451.975,1384.1 454.018,1384.1 456.062,1384.09 458.106,1384.09 460.15,1384.09 462.194,1384.09 464.238,1384.08 466.282,1384.08 468.325,1384.08 470.369,1384.07 
  472.413,1384.07 474.457,1384.07 476.501,1384.07 478.545,1384.06 480.589,1384.06 482.632,1384.06 484.676,1384.05 486.72,1384.05 488.764,1384.05 490.808,1384.04 
  492.852,1384.04 494.895,1384.04 496.939,1384.03 498.983,1384.03 501.027,1384.03 503.071,1384.02 505.115,1384.02 507.159,1384.02 509.202,1384.01 511.246,1384.01 
  513.29,1384 515.334,1384 517.378,1384 519.422,1383.99 521.466,1383.99 523.509,1383.99 525.553,1383.98 527.597,1383.98 529.641,1383.97 531.685,1383.97 
  533.729,1383.96 535.772,1383.96 537.816,1383.95 539.86,1383.95 541.904,1383.95 543.948,1383.94 545.992,1383.94 548.036,1383.93 550.079,1383.93 552.123,1383.92 
  554.167,1383.91 556.211,1383.91 558.255,1383.9 560.299,1383.9 562.343,1383.89 564.386,1383.89 566.43,1383.88 568.474,1383.88 570.518,1383.87 572.562,1383.86 
  574.606,1383.86 576.65,1383.85 578.693,1383.85 580.737,1383.84 582.781,1383.83 584.825,1383.83 586.869,1383.82 588.913,1383.81 590.956,1383.8 593,1383.8 
  595.044,1383.79 597.088,1383.78 599.132,1383.78 601.176,1383.77 603.22,1383.76 605.263,1383.75 607.307,1383.74 609.351,1383.74 611.395,1383.73 613.439,1383.72 
  615.483,1383.71 617.527,1383.7 619.57,1383.69 621.614,1383.68 623.658,1383.67 625.702,1383.66 627.746,1383.65 629.79,1383.64 631.833,1383.63 633.877,1383.62 
  635.921,1383.61 637.965,1383.6 640.009,1383.59 642.053,1383.58 644.097,1383.57 646.14,1383.56 648.184,1383.55 650.228,1383.53 652.272,1383.52 654.316,1383.51 
  656.36,1383.5 658.404,1383.48 660.447,1383.47 662.491,1383.46 664.535,1383.44 666.579,1383.43 668.623,1383.41 670.667,1383.4 672.711,1383.38 674.754,1383.37 
  676.798,1383.35 678.842,1383.34 680.886,1383.32 682.93,1383.3 684.974,1383.29 687.017,1383.27 689.061,1383.25 691.105,1383.23 693.149,1383.21 695.193,1383.2 
  697.237,1383.18 699.281,1383.16 701.324,1383.14 703.368,1383.12 705.412,1383.09 707.456,1383.07 709.5,1383.05 711.544,1383.03 713.588,1383.01 715.631,1382.98 
  717.675,1382.96 719.719,1382.93 721.763,1382.91 723.807,1382.88 725.851,1382.86 727.894,1382.83 729.938,1382.8 731.982,1382.77 734.026,1382.74 736.07,1382.71 
  738.114,1382.68 740.158,1382.65 742.201,1382.62 744.245,1382.59 746.289,1382.55 748.333,1382.52 750.377,1382.48 752.421,1382.45 754.465,1382.41 756.508,1382.37 
  758.552,1382.33 760.596,1382.29 762.64,1382.25 764.684,1382.21 766.728,1382.16 768.771,1382.12 770.815,1382.07 772.859,1382.02 774.903,1381.98 776.947,1381.93 
  778.991,1381.88 781.035,1381.82 783.078,1381.77 785.122,1381.71 787.166,1381.66 789.21,1381.6 791.254,1381.54 793.298,1381.47 795.342,1381.41 797.385,1381.34 
  799.429,1381.28 801.473,1381.21 803.517,1381.14 805.561,1381.06 807.605,1380.99 809.649,1380.91 811.692,1380.83 813.736,1380.74 815.78,1380.66 817.824,1380.57 
  819.868,1380.48 821.912,1380.38 823.955,1380.28 825.999,1380.18 828.043,1380.08 830.087,1379.97 832.131,1379.86 834.175,1379.75 836.219,1379.63 838.262,1379.51 
  840.306,1379.38 842.35,1379.25 844.394,1379.11 846.438,1378.97 848.482,1378.83 850.526,1378.68 852.569,1378.52 854.613,1378.36 856.657,1378.2 858.701,1378.02 
  860.745,1377.84 862.789,1377.66 864.832,1377.46 866.876,1377.26 868.92,1377.06 870.964,1376.84 873.008,1376.62 875.052,1376.38 877.096,1376.14 879.139,1375.89 
  881.183,1375.63 883.227,1375.35 885.271,1375.07 887.315,1374.77 889.359,1374.46 891.403,1374.14 893.446,1373.81 895.49,1373.46 897.534,1373.09 899.578,1372.71 
  901.622,1372.31 903.666,1371.89 905.71,1371.46 907.753,1371 909.797,1370.53 911.841,1370.03 913.885,1369.51 915.929,1368.96 917.973,1368.38 920.016,1367.78 
  922.06,1367.15 924.104,1366.49 926.148,1365.79 928.192,1365.05 930.236,1364.28 932.28,1363.47 934.323,1362.62 936.367,1361.71 938.411,1360.76 940.455,1359.76 
  942.499,1358.7 944.543,1357.59 946.587,1356.4 948.63,1355.16 950.674,1353.83 952.718,1352.43 954.762,1350.95 956.806,1349.37 958.85,1347.7 960.893,1345.93 
  962.937,1344.04 964.981,1342.03 967.025,1339.9 969.069,1337.62 971.113,1335.2 973.157,1332.62 975.2,1329.86 977.244,1326.91 979.288,1323.76 981.332,1320.39 
  983.376,1316.79 985.42,1312.93 987.464,1308.8 989.507,1304.37 991.551,1299.62 993.595,1294.52 995.639,1289.05 997.683,1283.19 999.727,1276.89 1001.77,1270.13 
  1003.81,1262.88 1005.86,1255.11 1007.9,1246.78 1009.95,1237.86 1011.99,1228.32 1014.03,1218.14 1016.08,1207.29 1018.12,1195.76 1020.17,1183.54 1022.21,1170.63 
  1024.25,1157.07 1026.3,1142.88 1028.34,1128.12 1030.38,1112.89 1032.43,1097.29 1034.47,1081.46 1036.52,1065.6 1038.56,1049.88 1040.6,1034.55 1042.65,1019.86 
  1044.69,1006.06 1046.74,993.418 1048.78,982.175 1050.82,972.551 1052.87,964.726 1054.91,958.828 1056.95,954.926 1059,953.029 1061.04,953.088 1063.09,954.999 
  1065.13,958.613 1067.17,963.75 1069.22,970.206 1071.26,977.768 1073.31,986.221 1075.35,995.362 1077.39,1005 1079.44,1014.96 1081.48,1025.1 1083.52,1035.27 
  1085.57,1045.39 1087.61,1055.34 1089.66,1065.07 1091.7,1074.52 1093.74,1083.64 1095.79,1092.41 1097.83,1100.81 1099.88,1108.81 1101.92,1116.43 1103.96,1123.66 
  1106.01,1130.49 1108.05,1136.94 1110.09,1143.02 1112.14,1148.73 1114.18,1154.09 1116.23,1159.1 1118.27,1163.79 1120.31,1168.15 1122.36,1172.21 1124.4,1175.97 
  1126.45,1179.44 1128.49,1182.64 1130.53,1185.58 1132.58,1188.25 1134.62,1190.67 1136.66,1192.86 1138.71,1194.8 1140.75,1196.52 1142.8,1198.01 1144.84,1199.27 
  1146.88,1200.32 1148.93,1201.15 1150.97,1201.76 1153.02,1202.17 1155.06,1202.35 1157.1,1202.32 1159.15,1202.07 1161.19,1201.6 1163.23,1200.91 1165.28,1199.98 
  1167.32,1198.82 1169.37,1197.41 1171.41,1195.75 1173.45,1193.83 1175.5,1191.64 1177.54,1189.16 1179.59,1186.37 1181.63,1183.27 1183.67,1179.83 1185.72,1176.04 
  1187.76,1171.86 1189.8,1167.27 1191.85,1162.25 1193.89,1156.75 1195.94,1150.75 1197.98,1144.2 1200.02,1137.06 1202.07,1129.28 1204.11,1120.79 1206.16,1111.54 
  1208.2,1101.45 1210.24,1090.45 1212.29,1078.45 1214.33,1065.35 1216.37,1051.04 1218.42,1035.39 1220.46,1018.29 1222.51,999.564 1224.55,979.064 1226.59,956.609 
  1228.64,932.007 1230.68,905.051 1232.73,875.527 1234.77,843.213 1236.81,807.891 1238.86,769.359 1240.9,727.447 1242.94,682.043 1244.99,633.125 1247.03,580.806 
  1249.08,525.384 1251.12,467.402 1253.16,407.712 1255.21,347.529 1257.25,288.461 1259.3,232.496 1261.34,181.926 1263.38,139.183 1265.43,106.613 1267.47,86.1857 
  1269.51,113.21 1271.56,86.1857 1273.6,106.613 1275.65,139.183 1277.69,181.926 1279.73,232.496 1281.78,288.461 1283.82,347.529 1285.87,407.712 1287.91,467.402 
  1289.95,525.384 1292,580.806 1294.04,633.125 1296.09,682.043 1298.13,727.447 1300.17,769.359 1302.22,807.891 1304.26,843.213 1306.3,875.527 1308.35,905.051 
  1310.39,932.007 1312.44,956.609 1314.48,979.064 1316.52,999.564 1318.57,1018.29 1320.61,1035.39 1322.66,1051.04 1324.7,1065.35 1326.74,1078.45 1328.79,1090.45 
  1330.83,1101.45 1332.87,1111.54 1334.92,1120.79 1336.96,1129.28 1339.01,1137.06 1341.05,1144.2 1343.09,1150.75 1345.14,1156.75 1347.18,1162.25 1349.23,1167.27 
  1351.27,1171.86 1353.31,1176.04 1355.36,1179.83 1357.4,1183.27 1359.44,1186.37 1361.49,1189.16 1363.53,1191.64 1365.58,1193.83 1367.62,1195.75 1369.66,1197.41 
  1371.71,1198.82 1373.75,1199.98 1375.8,1200.91 1377.84,1201.6 1379.88,1202.07 1381.93,1202.32 1383.97,1202.35 1386.01,1202.17 1388.06,1201.76 1390.1,1201.15 
  1392.15,1200.32 1394.19,1199.27 1396.23,1198.01 1398.28,1196.52 1400.32,1194.8 1402.37,1192.86 1404.41,1190.67 1406.45,1188.25 1408.5,1185.58 1410.54,1182.64 
  1412.58,1179.44 1414.63,1175.97 1416.67,1172.21 1418.72,1168.15 1420.76,1163.79 1422.8,1159.1 1424.85,1154.09 1426.89,1148.73 1428.94,1143.02 1430.98,1136.94 
  1433.02,1130.49 1435.07,1123.66 1437.11,1116.43 1439.15,1108.81 1441.2,1100.81 1443.24,1092.41 1445.29,1083.64 1447.33,1074.52 1449.37,1065.07 1451.42,1055.34 
  1453.46,1045.39 1455.51,1035.27 1457.55,1025.1 1459.59,1014.96 1461.64,1005 1463.68,995.362 1465.72,986.221 1467.77,977.768 1469.81,970.206 1471.86,963.75 
  1473.9,958.613 1475.94,954.999 1477.99,953.088 1480.03,953.029 1482.08,954.926 1484.12,958.828 1486.16,964.726 1488.21,972.551 1490.25,982.175 1492.29,993.418 
  1494.34,1006.06 1496.38,1019.86 1498.43,1034.55 1500.47,1049.88 1502.51,1065.6 1504.56,1081.46 1506.6,1097.29 1508.65,1112.89 1510.69,1128.12 1512.73,1142.88 
  1514.78,1157.07 1516.82,1170.63 1518.86,1183.54 1520.91,1195.76 1522.95,1207.29 1525,1218.14 1527.04,1228.32 1529.08,1237.86 1531.13,1246.78 1533.17,1255.11 
  1535.22,1262.88 1537.26,1270.13 1539.3,1276.89 1541.35,1283.19 1543.39,1289.05 1545.43,1294.52 1547.48,1299.62 1549.52,1304.37 1551.57,1308.8 1553.61,1312.93 
  1555.65,1316.79 1557.7,1320.39 1559.74,1323.76 1561.79,1326.91 1563.83,1329.86 1565.87,1332.62 1567.92,1335.2 1569.96,1337.62 1572,1339.9 1574.05,1342.03 
  1576.09,1344.04 1578.14,1345.93 1580.18,1347.7 1582.22,1349.37 1584.27,1350.95 1586.31,1352.43 1588.36,1353.83 1590.4,1355.16 1592.44,1356.4 1594.49,1357.59 
  1596.53,1358.7 1598.57,1359.76 1600.62,1360.76 1602.66,1361.71 1604.71,1362.62 1606.75,1363.47 1608.79,1364.28 1610.84,1365.05 1612.88,1365.79 1614.93,1366.49 
  1616.97,1367.15 1619.01,1367.78 1621.06,1368.38 1623.1,1368.96 1625.15,1369.51 1627.19,1370.03 1629.23,1370.53 1631.28,1371 1633.32,1371.46 1635.36,1371.89 
  1637.41,1372.31 1639.45,1372.71 1641.5,1373.09 1643.54,1373.46 1645.58,1373.81 1647.63,1374.14 1649.67,1374.46 1651.72,1374.77 1653.76,1375.07 1655.8,1375.35 
  1657.85,1375.63 1659.89,1375.89 1661.93,1376.14 1663.98,1376.38 1666.02,1376.62 1668.07,1376.84 1670.11,1377.06 1672.15,1377.26 1674.2,1377.46 1676.24,1377.66 
  1678.29,1377.84 1680.33,1378.02 1682.37,1378.2 1684.42,1378.36 1686.46,1378.52 1688.5,1378.68 1690.55,1378.83 1692.59,1378.97 1694.64,1379.11 1696.68,1379.25 
  1698.72,1379.38 1700.77,1379.51 1702.81,1379.63 1704.86,1379.75 1706.9,1379.86 1708.94,1379.97 1710.99,1380.08 1713.03,1380.18 1715.07,1380.28 1717.12,1380.38 
  1719.16,1380.48 1721.21,1380.57 1723.25,1380.66 1725.29,1380.74 1727.34,1380.83 1729.38,1380.91 1731.43,1380.99 1733.47,1381.06 1735.51,1381.14 1737.56,1381.21 
  1739.6,1381.28 1741.64,1381.34 1743.69,1381.41 1745.73,1381.47 1747.78,1381.54 1749.82,1381.6 1751.86,1381.66 1753.91,1381.71 1755.95,1381.77 1758,1381.82 
  1760.04,1381.88 1762.08,1381.93 1764.13,1381.98 1766.17,1382.02 1768.21,1382.07 1770.26,1382.12 1772.3,1382.16 1774.35,1382.21 1776.39,1382.25 1778.43,1382.29 
  1780.48,1382.33 1782.52,1382.37 1784.57,1382.41 1786.61,1382.45 1788.65,1382.48 1790.7,1382.52 1792.74,1382.55 1794.78,1382.59 1796.83,1382.62 1798.87,1382.65 
  1800.92,1382.68 1802.96,1382.71 1805,1382.74 1807.05,1382.77 1809.09,1382.8 1811.14,1382.83 1813.18,1382.86 1815.22,1382.88 1817.27,1382.91 1819.31,1382.93 
  1821.35,1382.96 1823.4,1382.98 1825.44,1383.01 1827.49,1383.03 1829.53,1383.05 1831.57,1383.07 1833.62,1383.09 1835.66,1383.12 1837.71,1383.14 1839.75,1383.16 
  1841.79,1383.18 1843.84,1383.2 1845.88,1383.21 1847.92,1383.23 1849.97,1383.25 1852.01,1383.27 1854.06,1383.29 1856.1,1383.3 1858.14,1383.32 1860.19,1383.34 
  1862.23,1383.35 1864.28,1383.37 1866.32,1383.38 1868.36,1383.4 1870.41,1383.41 1872.45,1383.43 1874.49,1383.44 1876.54,1383.46 1878.58,1383.47 1880.63,1383.48 
  1882.67,1383.5 1884.71,1383.51 1886.76,1383.52 1888.8,1383.53 1890.85,1383.55 1892.89,1383.56 1894.93,1383.57 1896.98,1383.58 1899.02,1383.59 1901.06,1383.6 
  1903.11,1383.61 1905.15,1383.62 1907.2,1383.63 1909.24,1383.64 1911.28,1383.65 1913.33,1383.66 1915.37,1383.67 1917.42,1383.68 1919.46,1383.69 1921.5,1383.7 
  1923.55,1383.71 1925.59,1383.72 1927.63,1383.73 1929.68,1383.74 1931.72,1383.74 1933.77,1383.75 1935.81,1383.76 1937.85,1383.77 1939.9,1383.78 1941.94,1383.78 
  1943.99,1383.79 1946.03,1383.8 1948.07,1383.8 1950.12,1383.81 1952.16,1383.82 1954.2,1383.83 1956.25,1383.83 1958.29,1383.84 1960.34,1383.85 1962.38,1383.85 
  1964.42,1383.86 1966.47,1383.86 1968.51,1383.87 1970.56,1383.88 1972.6,1383.88 1974.64,1383.89 1976.69,1383.89 1978.73,1383.9 1980.78,1383.9 1982.82,1383.91 
  1984.86,1383.91 1986.91,1383.92 1988.95,1383.93 1990.99,1383.93 1993.04,1383.94 1995.08,1383.94 1997.13,1383.95 1999.17,1383.95 2001.21,1383.95 2003.26,1383.96 
  2005.3,1383.96 2007.35,1383.97 2009.39,1383.97 2011.43,1383.98 2013.48,1383.98 2015.52,1383.99 2017.56,1383.99 2019.61,1383.99 2021.65,1384 2023.7,1384 
  2025.74,1384 2027.78,1384.01 2029.83,1384.01 2031.87,1384.02 2033.92,1384.02 2035.96,1384.02 2038,1384.03 2040.05,1384.03 2042.09,1384.03 2044.13,1384.04 
  2046.18,1384.04 2048.22,1384.04 2050.27,1384.05 2052.31,1384.05 2054.35,1384.05 2056.4,1384.06 2058.44,1384.06 2060.49,1384.06 2062.53,1384.07 2064.57,1384.07 
  2066.62,1384.07 2068.66,1384.07 2070.7,1384.08 2072.75,1384.08 2074.79,1384.08 2076.84,1384.09 2078.88,1384.09 2080.92,1384.09 2082.97,1384.09 2085.01,1384.1 
  2087.06,1384.1 2089.1,1384.1 2091.14,1384.1 2093.19,1384.11 2095.23,1384.11 2097.27,1384.11 2099.32,1384.11 2101.36,1384.11 2103.41,1384.12 2105.45,1384.12 
  2107.49,1384.12 2109.54,1384.12 2111.58,1384.13 2113.63,1384.13 2115.67,1384.13 2117.71,1384.13 2119.76,1384.13 2121.8,1384.14 2123.84,1384.14 2125.89,1384.14 
  2127.93,1384.14 2129.98,1384.14 2132.02,1384.15 2134.06,1384.15 2136.11,1384.15 2138.15,1384.15 2140.2,1384.15 2142.24,1384.15 2144.28,1384.16 2146.33,1384.16 
  2148.37,1384.16 2150.41,1384.16 2152.46,1384.16 2154.5,1384.16 2156.55,1384.17 2158.59,1384.17 2160.63,1384.17 2162.68,1384.17 2164.72,1384.17 2166.77,1384.17 
  2168.81,1384.17 2170.85,1384.18 2172.9,1384.18 2174.94,1384.18 2176.98,1384.18 2179.03,1384.18 2181.07,1384.18 2183.12,1384.18 2185.16,1384.19 2187.2,1384.19 
  2189.25,1384.19 2191.29,1384.19 2193.34,1384.19 2195.38,1384.19 2197.42,1384.19 2199.47,1384.2 2201.51,1384.2 2203.55,1384.2 2205.6,1384.2 2207.64,1384.2 
  2209.69,1384.2 2211.73,1384.2 2213.77,1384.2 2215.82,1384.2 2217.86,1384.21 2219.91,1384.21 2221.95,1384.21 2223.99,1384.21 2226.04,1384.21 2228.08,1384.21 
  2230.12,1384.21 2232.17,1384.21 2234.21,1384.21 2236.26,1384.22 2238.3,1384.22 2240.34,1384.22 2242.39,1384.22 2244.43,1384.22 2246.48,1384.22 2248.52,1384.22 
  2250.56,1384.22 2252.61,1384.22 2254.65,1384.22 2256.69,1384.22 2258.74,1384.23 2260.78,1384.23 2262.83,1384.23 2264.87,1384.23 2266.91,1384.23 2268.96,1384.23 
  2271,1384.23 2273.05,1384.23 2275.09,1384.23 2277.13,1384.23 2279.18,1384.23 2281.22,1384.23 2283.26,1384.24 2285.31,1384.24 2287.35,1384.24 2289.4,1384.24 
  2291.44,1384.24 
  "/>
<path clip-path="url(#clip470)" d="
M1551.05 214.069 L2280.54 214.069 L2280.54 93.1086 L1551.05 93.1086  Z
  " fill="#ffffff" fill-rule="evenodd" fill-opacity="1"/>
<polyline clip-path="url(#clip470)" style="stroke:#000000; stroke-linecap:butt; stroke-linejoin:round; stroke-width:4; stroke-opacity:1; fill:none" points="
  1551.05,214.069 2280.54,214.069 2280.54,93.1086 1551.05,93.1086 1551.05,214.069 
  "/>
<polyline clip-path="url(#clip470)" style="stroke:#009af9; stroke-linecap:butt; stroke-linejoin:round; stroke-width:4; stroke-opacity:1; fill:none" points="
  1575.12,153.589 1719.55,153.589 
  "/>
<path clip-path="url(#clip470)" d="M1760.01 154.665 Q1761.52 155.174 1762.93 156.841 Q1764.37 158.508 1765.8 161.424 L1770.55 170.869 L1765.52 170.869 L1761.1 162.003 Q1759.39 158.531 1757.77 157.396 Q1756.17 156.262 1753.39 156.262 L1748.3 156.262 L1748.3 170.869 L1743.63 170.869 L1743.63 136.309 L1754.18 136.309 Q1760.11 136.309 1763.02 138.785 Q1765.94 141.262 1765.94 146.262 Q1765.94 149.526 1764.41 151.679 Q1762.91 153.832 1760.01 154.665 M1748.3 140.151 L1748.3 152.42 L1754.18 152.42 Q1757.56 152.42 1759.27 150.869 Q1761.01 149.295 1761.01 146.262 Q1761.01 143.23 1759.27 141.702 Q1757.56 140.151 1754.18 140.151 L1748.3 140.151 Z" fill="#000000" fill-rule="evenodd" fill-opacity="1" /><path clip-path="url(#clip470)" d="M1796.43 156.841 L1796.43 158.924 L1776.84 158.924 Q1777.12 163.322 1779.48 165.637 Q1781.87 167.929 1786.1 167.929 Q1788.56 167.929 1790.85 167.327 Q1793.16 166.725 1795.43 165.521 L1795.43 169.549 Q1793.14 170.521 1790.73 171.031 Q1788.32 171.54 1785.85 171.54 Q1779.64 171.54 1776.01 167.929 Q1772.4 164.318 1772.4 158.16 Q1772.4 151.795 1775.82 148.068 Q1779.27 144.318 1785.11 144.318 Q1790.34 144.318 1793.37 147.697 Q1796.43 151.054 1796.43 156.841 M1792.17 155.591 Q1792.12 152.096 1790.2 150.012 Q1788.3 147.929 1785.15 147.929 Q1781.59 147.929 1779.44 149.943 Q1777.31 151.957 1776.98 155.614 L1792.17 155.591 Z" fill="#000000" fill-rule="evenodd" fill-opacity="1" /><path clip-path="url(#clip470)" d="M1819.94 145.707 L1819.94 149.734 Q1818.14 148.809 1816.19 148.346 Q1814.25 147.883 1812.17 147.883 Q1809 147.883 1807.4 148.855 Q1805.82 149.827 1805.82 151.771 Q1805.82 153.253 1806.96 154.109 Q1808.09 154.943 1811.52 155.707 L1812.98 156.031 Q1817.51 157.003 1819.41 158.785 Q1821.33 160.545 1821.33 163.716 Q1821.33 167.327 1818.46 169.433 Q1815.62 171.54 1810.62 171.54 Q1808.53 171.54 1806.26 171.123 Q1804.02 170.73 1801.52 169.92 L1801.52 165.521 Q1803.88 166.748 1806.17 167.373 Q1808.46 167.975 1810.71 167.975 Q1813.72 167.975 1815.34 166.957 Q1816.96 165.915 1816.96 164.04 Q1816.96 162.304 1815.78 161.378 Q1814.62 160.452 1810.66 159.596 L1809.18 159.248 Q1805.22 158.415 1803.46 156.702 Q1801.7 154.966 1801.7 151.957 Q1801.7 148.299 1804.3 146.309 Q1806.89 144.318 1811.66 144.318 Q1814.02 144.318 1816.1 144.665 Q1818.19 145.012 1819.94 145.707 Z" fill="#000000" fill-rule="evenodd" fill-opacity="1" /><path clip-path="url(#clip470)" d="M1838.16 147.929 Q1834.74 147.929 1832.75 150.614 Q1830.75 153.276 1830.75 157.929 Q1830.75 162.582 1832.72 165.267 Q1834.71 167.929 1838.16 167.929 Q1841.56 167.929 1843.56 165.244 Q1845.55 162.558 1845.55 157.929 Q1845.55 153.322 1843.56 150.637 Q1841.56 147.929 1838.16 147.929 M1838.16 144.318 Q1843.72 144.318 1846.89 147.929 Q1850.06 151.54 1850.06 157.929 Q1850.06 164.295 1846.89 167.929 Q1843.72 171.54 1838.16 171.54 Q1832.58 171.54 1829.41 167.929 Q1826.26 164.295 1826.26 157.929 Q1826.26 151.54 1829.41 147.929 Q1832.58 144.318 1838.16 144.318 Z" fill="#000000" fill-rule="evenodd" fill-opacity="1" /><path clip-path="url(#clip470)" d="M1878.67 155.221 L1878.67 170.869 L1874.41 170.869 L1874.41 155.359 Q1874.41 151.679 1872.98 149.85 Q1871.54 148.022 1868.67 148.022 Q1865.22 148.022 1863.23 150.221 Q1861.24 152.42 1861.24 156.216 L1861.24 170.869 L1856.96 170.869 L1856.96 144.943 L1861.24 144.943 L1861.24 148.971 Q1862.77 146.633 1864.83 145.475 Q1866.91 144.318 1869.62 144.318 Q1874.09 144.318 1876.38 147.096 Q1878.67 149.85 1878.67 155.221 Z" fill="#000000" fill-rule="evenodd" fill-opacity="1" /><path clip-path="url(#clip470)" d="M1898.95 157.836 Q1893.79 157.836 1891.8 159.017 Q1889.81 160.197 1889.81 163.045 Q1889.81 165.313 1891.29 166.656 Q1892.79 167.975 1895.36 167.975 Q1898.9 167.975 1901.03 165.475 Q1903.18 162.952 1903.18 158.785 L1903.18 157.836 L1898.95 157.836 M1907.44 156.077 L1907.44 170.869 L1903.18 170.869 L1903.18 166.933 Q1901.73 169.295 1899.55 170.429 Q1897.37 171.54 1894.23 171.54 Q1890.24 171.54 1887.88 169.318 Q1885.55 167.072 1885.55 163.322 Q1885.55 158.947 1888.46 156.725 Q1891.4 154.503 1897.21 154.503 L1903.18 154.503 L1903.18 154.086 Q1903.18 151.147 1901.24 149.549 Q1899.32 147.929 1895.82 147.929 Q1893.6 147.929 1891.49 148.461 Q1889.39 148.994 1887.44 150.059 L1887.44 146.123 Q1889.78 145.221 1891.98 144.781 Q1894.18 144.318 1896.26 144.318 Q1901.89 144.318 1904.67 147.234 Q1907.44 150.151 1907.44 156.077 Z" fill="#000000" fill-rule="evenodd" fill-opacity="1" /><path clip-path="url(#clip470)" d="M1937.77 155.221 L1937.77 170.869 L1933.51 170.869 L1933.51 155.359 Q1933.51 151.679 1932.07 149.85 Q1930.64 148.022 1927.77 148.022 Q1924.32 148.022 1922.33 150.221 Q1920.34 152.42 1920.34 156.216 L1920.34 170.869 L1916.05 170.869 L1916.05 144.943 L1920.34 144.943 L1920.34 148.971 Q1921.87 146.633 1923.93 145.475 Q1926.01 144.318 1928.72 144.318 Q1933.18 144.318 1935.48 147.096 Q1937.77 149.85 1937.77 155.221 Z" fill="#000000" fill-rule="evenodd" fill-opacity="1" /><path clip-path="url(#clip470)" d="M1964.92 145.938 L1964.92 149.92 Q1963.11 148.924 1961.29 148.438 Q1959.48 147.929 1957.63 147.929 Q1953.49 147.929 1951.19 150.568 Q1948.9 153.184 1948.9 157.929 Q1948.9 162.674 1951.19 165.313 Q1953.49 167.929 1957.63 167.929 Q1959.48 167.929 1961.29 167.443 Q1963.11 166.933 1964.92 165.938 L1964.92 169.873 Q1963.14 170.707 1961.22 171.123 Q1959.32 171.54 1957.17 171.54 Q1951.31 171.54 1947.86 167.859 Q1944.41 164.179 1944.41 157.929 Q1944.41 151.586 1947.88 147.952 Q1951.38 144.318 1957.44 144.318 Q1959.41 144.318 1961.29 144.735 Q1963.16 145.128 1964.92 145.938 Z" fill="#000000" fill-rule="evenodd" fill-opacity="1" /><path clip-path="url(#clip470)" d="M1994.5 156.841 L1994.5 158.924 L1974.92 158.924 Q1975.2 163.322 1977.56 165.637 Q1979.94 167.929 1984.18 167.929 Q1986.63 167.929 1988.92 167.327 Q1991.24 166.725 1993.51 165.521 L1993.51 169.549 Q1991.22 170.521 1988.81 171.031 Q1986.4 171.54 1983.92 171.54 Q1977.72 171.54 1974.09 167.929 Q1970.48 164.318 1970.48 158.16 Q1970.48 151.795 1973.9 148.068 Q1977.35 144.318 1983.18 144.318 Q1988.42 144.318 1991.45 147.697 Q1994.5 151.054 1994.5 156.841 M1990.24 155.591 Q1990.2 152.096 1988.28 150.012 Q1986.38 147.929 1983.23 147.929 Q1979.67 147.929 1977.51 149.943 Q1975.38 151.957 1975.06 155.614 L1990.24 155.591 Z" fill="#000000" fill-rule="evenodd" fill-opacity="1" /><path clip-path="url(#clip470)" d="M2033.09 145.707 L2033.09 149.734 Q2031.29 148.809 2029.34 148.346 Q2027.4 147.883 2025.31 147.883 Q2022.14 147.883 2020.55 148.855 Q2018.97 149.827 2018.97 151.771 Q2018.97 153.253 2020.11 154.109 Q2021.24 154.943 2024.67 155.707 L2026.12 156.031 Q2030.66 157.003 2032.56 158.785 Q2034.48 160.545 2034.48 163.716 Q2034.48 167.327 2031.61 169.433 Q2028.76 171.54 2023.76 171.54 Q2021.68 171.54 2019.41 171.123 Q2017.17 170.73 2014.67 169.92 L2014.67 165.521 Q2017.03 166.748 2019.32 167.373 Q2021.61 167.975 2023.86 167.975 Q2026.86 167.975 2028.48 166.957 Q2030.11 165.915 2030.11 164.04 Q2030.11 162.304 2028.92 161.378 Q2027.77 160.452 2023.81 159.596 L2022.33 159.248 Q2018.37 158.415 2016.61 156.702 Q2014.85 154.966 2014.85 151.957 Q2014.85 148.299 2017.44 146.309 Q2020.04 144.318 2024.8 144.318 Q2027.17 144.318 2029.25 144.665 Q2031.33 145.012 2033.09 145.707 Z" fill="#000000" fill-rule="evenodd" fill-opacity="1" /><path clip-path="url(#clip470)" d="M2045.38 166.98 L2045.38 180.73 L2041.1 180.73 L2041.1 144.943 L2045.38 144.943 L2045.38 148.878 Q2046.73 146.563 2048.76 145.452 Q2050.82 144.318 2053.67 144.318 Q2058.39 144.318 2061.33 148.068 Q2064.29 151.818 2064.29 157.929 Q2064.29 164.04 2061.33 167.79 Q2058.39 171.54 2053.67 171.54 Q2050.82 171.54 2048.76 170.429 Q2046.73 169.295 2045.38 166.98 M2059.87 157.929 Q2059.87 153.23 2057.93 150.568 Q2056.01 147.883 2052.63 147.883 Q2049.25 147.883 2047.3 150.568 Q2045.38 153.23 2045.38 157.929 Q2045.38 162.628 2047.3 165.313 Q2049.25 167.975 2052.63 167.975 Q2056.01 167.975 2057.93 165.313 Q2059.87 162.628 2059.87 157.929 Z" fill="#000000" fill-rule="evenodd" fill-opacity="1" /><path clip-path="url(#clip470)" d="M2093.53 156.841 L2093.53 158.924 L2073.95 158.924 Q2074.23 163.322 2076.59 165.637 Q2078.97 167.929 2083.21 167.929 Q2085.66 167.929 2087.95 167.327 Q2090.27 166.725 2092.54 165.521 L2092.54 169.549 Q2090.24 170.521 2087.84 171.031 Q2085.43 171.54 2082.95 171.54 Q2076.75 171.54 2073.11 167.929 Q2069.5 164.318 2069.5 158.16 Q2069.5 151.795 2072.93 148.068 Q2076.38 144.318 2082.21 144.318 Q2087.44 144.318 2090.48 147.697 Q2093.53 151.054 2093.53 156.841 M2089.27 155.591 Q2089.23 152.096 2087.3 150.012 Q2085.41 147.929 2082.26 147.929 Q2078.69 147.929 2076.54 149.943 Q2074.41 151.957 2074.09 155.614 L2089.27 155.591 Z" fill="#000000" fill-rule="evenodd" fill-opacity="1" /><path clip-path="url(#clip470)" d="M2119.18 145.938 L2119.18 149.92 Q2117.37 148.924 2115.54 148.438 Q2113.74 147.929 2111.89 147.929 Q2107.74 147.929 2105.45 150.568 Q2103.16 153.184 2103.16 157.929 Q2103.16 162.674 2105.45 165.313 Q2107.74 167.929 2111.89 167.929 Q2113.74 167.929 2115.54 167.443 Q2117.37 166.933 2119.18 165.938 L2119.18 169.873 Q2117.4 170.707 2115.48 171.123 Q2113.58 171.54 2111.42 171.54 Q2105.57 171.54 2102.12 167.859 Q2098.67 164.179 2098.67 157.929 Q2098.67 151.586 2102.14 147.952 Q2105.64 144.318 2111.7 144.318 Q2113.67 144.318 2115.54 144.735 Q2117.42 145.128 2119.18 145.938 Z" fill="#000000" fill-rule="evenodd" fill-opacity="1" /><path clip-path="url(#clip470)" d="M2130.8 137.582 L2130.8 144.943 L2139.57 144.943 L2139.57 148.253 L2130.8 148.253 L2130.8 162.327 Q2130.8 165.498 2131.66 166.401 Q2132.54 167.304 2135.2 167.304 L2139.57 167.304 L2139.57 170.869 L2135.2 170.869 Q2130.27 170.869 2128.39 169.04 Q2126.52 167.188 2126.52 162.327 L2126.52 148.253 L2123.39 148.253 L2123.39 144.943 L2126.52 144.943 L2126.52 137.582 L2130.8 137.582 Z" fill="#000000" fill-rule="evenodd" fill-opacity="1" /><path clip-path="url(#clip470)" d="M2160.2 148.924 Q2159.48 148.508 2158.62 148.322 Q2157.79 148.114 2156.77 148.114 Q2153.16 148.114 2151.22 150.475 Q2149.29 152.813 2149.29 157.211 L2149.29 170.869 L2145.01 170.869 L2145.01 144.943 L2149.29 144.943 L2149.29 148.971 Q2150.64 146.609 2152.79 145.475 Q2154.94 144.318 2158.02 144.318 Q2158.46 144.318 2158.99 144.387 Q2159.53 144.434 2160.17 144.549 L2160.2 148.924 Z" fill="#000000" fill-rule="evenodd" fill-opacity="1" /><path clip-path="url(#clip470)" d="M2164.22 160.637 L2164.22 144.943 L2168.48 144.943 L2168.48 160.475 Q2168.48 164.156 2169.92 166.008 Q2171.35 167.836 2174.22 167.836 Q2177.67 167.836 2179.66 165.637 Q2181.68 163.438 2181.68 159.642 L2181.68 144.943 L2185.94 144.943 L2185.94 170.869 L2181.68 170.869 L2181.68 166.887 Q2180.13 169.248 2178.07 170.406 Q2176.03 171.54 2173.32 171.54 Q2168.85 171.54 2166.54 168.762 Q2164.22 165.984 2164.22 160.637 M2174.94 144.318 L2174.94 144.318 Z" fill="#000000" fill-rule="evenodd" fill-opacity="1" /><path clip-path="url(#clip470)" d="M2214.9 149.92 Q2216.49 147.049 2218.72 145.684 Q2220.94 144.318 2223.95 144.318 Q2228 144.318 2230.2 147.165 Q2232.4 149.989 2232.4 155.221 L2232.4 170.869 L2228.11 170.869 L2228.11 155.359 Q2228.11 151.633 2226.79 149.827 Q2225.47 148.022 2222.77 148.022 Q2219.46 148.022 2217.53 150.221 Q2215.61 152.42 2215.61 156.216 L2215.61 170.869 L2211.33 170.869 L2211.33 155.359 Q2211.33 151.609 2210.01 149.827 Q2208.69 148.022 2205.94 148.022 Q2202.67 148.022 2200.75 150.244 Q2198.83 152.443 2198.83 156.216 L2198.83 170.869 L2194.55 170.869 L2194.55 144.943 L2198.83 144.943 L2198.83 148.971 Q2200.29 146.586 2202.33 145.452 Q2204.36 144.318 2207.16 144.318 Q2209.99 144.318 2211.96 145.753 Q2213.95 147.188 2214.9 149.92 Z" fill="#000000" fill-rule="evenodd" fill-opacity="1" /></svg>
