<?xml version="1.0" encoding="utf-8"?>
<svg xmlns="http://www.w3.org/2000/svg" xmlns:xlink="http://www.w3.org/1999/xlink" width="600" height="400" viewBox="0 0 2400 1600">
<defs>
  <clipPath id="clip330">
    <rect x="0" y="0" width="2400" height="1600"/>
  </clipPath>
</defs>
<path clip-path="url(#clip330)" d="
M0 1600 L2400 1600 L2400 0 L0 0  Z
  " fill="#ffffff" fill-rule="evenodd" fill-opacity="1"/>
<defs>
  <clipPath id="clip331">
    <rect x="480" y="0" width="1681" height="1600"/>
  </clipPath>
</defs>
<path clip-path="url(#clip330)" d="
M156.598 1423.18 L2352.76 1423.18 L2352.76 47.2441 L156.598 47.2441  Z
  " fill="#ffffff" fill-rule="evenodd" fill-opacity="1"/>
<defs>
  <clipPath id="clip332">
    <rect x="156" y="47" width="2197" height="1377"/>
  </clipPath>
</defs>
<polyline clip-path="url(#clip332)" style="stroke:#000000; stroke-linecap:butt; stroke-linejoin:round; stroke-width:2; stroke-opacity:0.1; fill:none" points="
  156.598,1423.18 156.598,47.2441 
  "/>
<polyline clip-path="url(#clip332)" style="stroke:#000000; stroke-linecap:butt; stroke-linejoin:round; stroke-width:2; stroke-opacity:0.1; fill:none" points="
  705.638,1423.18 705.638,47.2441 
  "/>
<polyline clip-path="url(#clip332)" style="stroke:#000000; stroke-linecap:butt; stroke-linejoin:round; stroke-width:2; stroke-opacity:0.1; fill:none" points="
  1254.68,1423.18 1254.68,47.2441 
  "/>
<polyline clip-path="url(#clip332)" style="stroke:#000000; stroke-linecap:butt; stroke-linejoin:round; stroke-width:2; stroke-opacity:0.1; fill:none" points="
  1803.72,1423.18 1803.72,47.2441 
  "/>
<polyline clip-path="url(#clip332)" style="stroke:#000000; stroke-linecap:butt; stroke-linejoin:round; stroke-width:2; stroke-opacity:0.1; fill:none" points="
  2352.76,1423.18 2352.76,47.2441 
  "/>
<polyline clip-path="url(#clip330)" style="stroke:#000000; stroke-linecap:butt; stroke-linejoin:round; stroke-width:4; stroke-opacity:1; fill:none" points="
  156.598,1423.18 2352.76,1423.18 
  "/>
<polyline clip-path="url(#clip330)" style="stroke:#000000; stroke-linecap:butt; stroke-linejoin:round; stroke-width:4; stroke-opacity:1; fill:none" points="
  156.598,1423.18 156.598,1404.28 
  "/>
<polyline clip-path="url(#clip330)" style="stroke:#000000; stroke-linecap:butt; stroke-linejoin:round; stroke-width:4; stroke-opacity:1; fill:none" points="
  705.638,1423.18 705.638,1404.28 
  "/>
<polyline clip-path="url(#clip330)" style="stroke:#000000; stroke-linecap:butt; stroke-linejoin:round; stroke-width:4; stroke-opacity:1; fill:none" points="
  1254.68,1423.18 1254.68,1404.28 
  "/>
<polyline clip-path="url(#clip330)" style="stroke:#000000; stroke-linecap:butt; stroke-linejoin:round; stroke-width:4; stroke-opacity:1; fill:none" points="
  1803.72,1423.18 1803.72,1404.28 
  "/>
<polyline clip-path="url(#clip330)" style="stroke:#000000; stroke-linecap:butt; stroke-linejoin:round; stroke-width:4; stroke-opacity:1; fill:none" points="
  2352.76,1423.18 2352.76,1404.28 
  "/>
<path clip-path="url(#clip330)" d="M156.598 1454.1 Q152.987 1454.1 151.158 1457.66 Q149.353 1461.2 149.353 1468.33 Q149.353 1475.44 151.158 1479.01 Q152.987 1482.55 156.598 1482.55 Q160.232 1482.55 162.038 1479.01 Q163.867 1475.44 163.867 1468.33 Q163.867 1461.2 162.038 1457.66 Q160.232 1454.1 156.598 1454.1 M156.598 1450.39 Q162.408 1450.39 165.464 1455 Q168.543 1459.58 168.543 1468.33 Q168.543 1477.06 165.464 1481.67 Q162.408 1486.25 156.598 1486.25 Q150.788 1486.25 147.709 1481.67 Q144.654 1477.06 144.654 1468.33 Q144.654 1459.58 147.709 1455 Q150.788 1450.39 156.598 1450.39 Z" fill="#000000" fill-rule="evenodd" fill-opacity="1" /><path clip-path="url(#clip330)" d="M695.915 1451.02 L714.272 1451.02 L714.272 1454.96 L700.198 1454.96 L700.198 1463.43 Q701.216 1463.08 702.235 1462.92 Q703.253 1462.73 704.272 1462.73 Q710.059 1462.73 713.439 1465.9 Q716.818 1469.08 716.818 1474.49 Q716.818 1480.07 713.346 1483.17 Q709.874 1486.25 703.554 1486.25 Q701.378 1486.25 699.11 1485.88 Q696.865 1485.51 694.457 1484.77 L694.457 1480.07 Q696.54 1481.2 698.763 1481.76 Q700.985 1482.32 703.462 1482.32 Q707.466 1482.32 709.804 1480.21 Q712.142 1478.1 712.142 1474.49 Q712.142 1470.88 709.804 1468.77 Q707.466 1466.67 703.462 1466.67 Q701.587 1466.67 699.712 1467.08 Q697.86 1467.5 695.915 1468.38 L695.915 1451.02 Z" fill="#000000" fill-rule="evenodd" fill-opacity="1" /><path clip-path="url(#clip330)" d="M1229.36 1481.64 L1237 1481.64 L1237 1455.28 L1228.69 1456.95 L1228.69 1452.69 L1236.96 1451.02 L1241.63 1451.02 L1241.63 1481.64 L1249.27 1481.64 L1249.27 1485.58 L1229.36 1485.58 L1229.36 1481.64 Z" fill="#000000" fill-rule="evenodd" fill-opacity="1" /><path clip-path="url(#clip330)" d="M1268.72 1454.1 Q1265.11 1454.1 1263.28 1457.66 Q1261.47 1461.2 1261.47 1468.33 Q1261.47 1475.44 1263.28 1479.01 Q1265.11 1482.55 1268.72 1482.55 Q1272.35 1482.55 1274.16 1479.01 Q1275.98 1475.44 1275.98 1468.33 Q1275.98 1461.2 1274.16 1457.66 Q1272.35 1454.1 1268.72 1454.1 M1268.72 1450.39 Q1274.53 1450.39 1277.58 1455 Q1280.66 1459.58 1280.66 1468.33 Q1280.66 1477.06 1277.58 1481.67 Q1274.53 1486.25 1268.72 1486.25 Q1262.91 1486.25 1259.83 1481.67 Q1256.77 1477.06 1256.77 1468.33 Q1256.77 1459.58 1259.83 1455 Q1262.91 1450.39 1268.72 1450.39 Z" fill="#000000" fill-rule="evenodd" fill-opacity="1" /><path clip-path="url(#clip330)" d="M1778.9 1481.64 L1786.54 1481.64 L1786.54 1455.28 L1778.23 1456.95 L1778.23 1452.69 L1786.49 1451.02 L1791.17 1451.02 L1791.17 1481.64 L1798.81 1481.64 L1798.81 1485.58 L1778.9 1485.58 L1778.9 1481.64 Z" fill="#000000" fill-rule="evenodd" fill-opacity="1" /><path clip-path="url(#clip330)" d="M1808.3 1451.02 L1826.66 1451.02 L1826.66 1454.96 L1812.58 1454.96 L1812.58 1463.43 Q1813.6 1463.08 1814.62 1462.92 Q1815.64 1462.73 1816.66 1462.73 Q1822.44 1462.73 1825.82 1465.9 Q1829.2 1469.08 1829.2 1474.49 Q1829.2 1480.07 1825.73 1483.17 Q1822.26 1486.25 1815.94 1486.25 Q1813.76 1486.25 1811.49 1485.88 Q1809.25 1485.51 1806.84 1484.77 L1806.84 1480.07 Q1808.92 1481.2 1811.15 1481.76 Q1813.37 1482.32 1815.85 1482.32 Q1819.85 1482.32 1822.19 1480.21 Q1824.53 1478.1 1824.53 1474.49 Q1824.53 1470.88 1822.19 1468.77 Q1819.85 1466.67 1815.85 1466.67 Q1813.97 1466.67 1812.1 1467.08 Q1810.24 1467.5 1808.3 1468.38 L1808.3 1451.02 Z" fill="#000000" fill-rule="evenodd" fill-opacity="1" /><path clip-path="url(#clip330)" d="M2331.53 1481.64 L2347.85 1481.64 L2347.85 1485.58 L2325.9 1485.58 L2325.9 1481.64 Q2328.57 1478.89 2333.15 1474.26 Q2337.76 1469.61 2338.94 1468.27 Q2341.18 1465.74 2342.06 1464.01 Q2342.96 1462.25 2342.96 1460.56 Q2342.96 1457.8 2341.02 1456.07 Q2339.1 1454.33 2336 1454.33 Q2333.8 1454.33 2331.34 1455.09 Q2328.91 1455.86 2326.14 1457.41 L2326.14 1452.69 Q2328.96 1451.55 2331.41 1450.97 Q2333.87 1450.39 2335.9 1450.39 Q2341.27 1450.39 2344.47 1453.08 Q2347.66 1455.77 2347.66 1460.26 Q2347.66 1462.39 2346.85 1464.31 Q2346.07 1466.2 2343.96 1468.8 Q2343.38 1469.47 2340.28 1472.69 Q2337.18 1475.88 2331.53 1481.64 Z" fill="#000000" fill-rule="evenodd" fill-opacity="1" /><path clip-path="url(#clip330)" d="M2367.66 1454.1 Q2364.05 1454.1 2362.22 1457.66 Q2360.42 1461.2 2360.42 1468.33 Q2360.42 1475.44 2362.22 1479.01 Q2364.05 1482.55 2367.66 1482.55 Q2371.3 1482.55 2373.1 1479.01 Q2374.93 1475.44 2374.93 1468.33 Q2374.93 1461.2 2373.1 1457.66 Q2371.3 1454.1 2367.66 1454.1 M2367.66 1450.39 Q2373.47 1450.39 2376.53 1455 Q2379.61 1459.58 2379.61 1468.33 Q2379.61 1477.06 2376.53 1481.67 Q2373.47 1486.25 2367.66 1486.25 Q2361.85 1486.25 2358.77 1481.67 Q2355.72 1477.06 2355.72 1468.33 Q2355.72 1459.58 2358.77 1455 Q2361.85 1450.39 2367.66 1450.39 Z" fill="#000000" fill-rule="evenodd" fill-opacity="1" /><path clip-path="url(#clip330)" d="M1234.37 1538 L1242.17 1560.02 L1253.31 1532.4 L1259.52 1532.4 L1245.1 1568.04 L1245.1 1581.6 L1239.24 1581.6 L1239.24 1568.04 L1229.88 1541.44 Q1228.48 1537.42 1225.46 1537.42 L1223.9 1537.42 L1223.9 1532.4 L1226.13 1532.4 Q1232.4 1532.4 1234.37 1538 Z" fill="#000000" fill-rule="evenodd" fill-opacity="1" /><path clip-path="url(#clip330)" d="M1273.39 1522.27 L1273.39 1532.4 L1285.46 1532.4 L1285.46 1536.95 L1273.39 1536.95 L1273.39 1556.3 Q1273.39 1560.66 1274.57 1561.9 Q1275.78 1563.14 1279.44 1563.14 L1285.46 1563.14 L1285.46 1568.04 L1279.44 1568.04 Q1272.66 1568.04 1270.08 1565.53 Q1267.5 1562.98 1267.5 1556.3 L1267.5 1536.95 L1263.21 1536.95 L1263.21 1532.4 L1267.5 1532.4 L1267.5 1522.27 L1273.39 1522.27 Z" fill="#000000" fill-rule="evenodd" fill-opacity="1" /><polyline clip-path="url(#clip332)" style="stroke:#000000; stroke-linecap:butt; stroke-linejoin:round; stroke-width:2; stroke-opacity:0.1; fill:none" points="
  156.598,1384.24 2352.76,1384.24 
  "/>
<polyline clip-path="url(#clip332)" style="stroke:#000000; stroke-linecap:butt; stroke-linejoin:round; stroke-width:2; stroke-opacity:0.1; fill:none" points="
  156.598,1039.73 2352.76,1039.73 
  "/>
<polyline clip-path="url(#clip332)" style="stroke:#000000; stroke-linecap:butt; stroke-linejoin:round; stroke-width:2; stroke-opacity:0.1; fill:none" points="
  156.598,695.219 2352.76,695.219 
  "/>
<polyline clip-path="url(#clip332)" style="stroke:#000000; stroke-linecap:butt; stroke-linejoin:round; stroke-width:2; stroke-opacity:0.1; fill:none" points="
  156.598,350.71 2352.76,350.71 
  "/>
<polyline clip-path="url(#clip330)" style="stroke:#000000; stroke-linecap:butt; stroke-linejoin:round; stroke-width:4; stroke-opacity:1; fill:none" points="
  156.598,1423.18 156.598,47.2441 
  "/>
<polyline clip-path="url(#clip330)" style="stroke:#000000; stroke-linecap:butt; stroke-linejoin:round; stroke-width:4; stroke-opacity:1; fill:none" points="
  156.598,1384.24 175.496,1384.24 
  "/>
<polyline clip-path="url(#clip330)" style="stroke:#000000; stroke-linecap:butt; stroke-linejoin:round; stroke-width:4; stroke-opacity:1; fill:none" points="
  156.598,1039.73 175.496,1039.73 
  "/>
<polyline clip-path="url(#clip330)" style="stroke:#000000; stroke-linecap:butt; stroke-linejoin:round; stroke-width:4; stroke-opacity:1; fill:none" points="
  156.598,695.219 175.496,695.219 
  "/>
<polyline clip-path="url(#clip330)" style="stroke:#000000; stroke-linecap:butt; stroke-linejoin:round; stroke-width:4; stroke-opacity:1; fill:none" points="
  156.598,350.71 175.496,350.71 
  "/>
<path clip-path="url(#clip330)" d="M63.4226 1370.04 Q59.8115 1370.04 57.9828 1373.6 Q56.1773 1377.14 56.1773 1384.27 Q56.1773 1391.38 57.9828 1394.94 Q59.8115 1398.49 63.4226 1398.49 Q67.0569 1398.49 68.8624 1394.94 Q70.6911 1391.38 70.6911 1384.27 Q70.6911 1377.14 68.8624 1373.6 Q67.0569 1370.04 63.4226 1370.04 M63.4226 1366.33 Q69.2328 1366.33 72.2883 1370.94 Q75.367 1375.52 75.367 1384.27 Q75.367 1393 72.2883 1397.61 Q69.2328 1402.19 63.4226 1402.19 Q57.6125 1402.19 54.5338 1397.61 Q51.4782 1393 51.4782 1384.27 Q51.4782 1375.52 54.5338 1370.94 Q57.6125 1366.33 63.4226 1366.33 Z" fill="#000000" fill-rule="evenodd" fill-opacity="1" /><path clip-path="url(#clip330)" d="M83.5845 1395.64 L88.4688 1395.64 L88.4688 1401.52 L83.5845 1401.52 L83.5845 1395.64 Z" fill="#000000" fill-rule="evenodd" fill-opacity="1" /><path clip-path="url(#clip330)" d="M108.654 1370.04 Q105.043 1370.04 103.214 1373.6 Q101.409 1377.14 101.409 1384.27 Q101.409 1391.38 103.214 1394.94 Q105.043 1398.49 108.654 1398.49 Q112.288 1398.49 114.094 1394.94 Q115.922 1391.38 115.922 1384.27 Q115.922 1377.14 114.094 1373.6 Q112.288 1370.04 108.654 1370.04 M108.654 1366.33 Q114.464 1366.33 117.52 1370.94 Q120.598 1375.52 120.598 1384.27 Q120.598 1393 117.52 1397.61 Q114.464 1402.19 108.654 1402.19 Q102.844 1402.19 99.765 1397.61 Q96.7095 1393 96.7095 1384.27 Q96.7095 1375.52 99.765 1370.94 Q102.844 1366.33 108.654 1366.33 Z" fill="#000000" fill-rule="evenodd" fill-opacity="1" /><path clip-path="url(#clip330)" d="M65.0198 1025.53 Q61.4087 1025.53 59.58 1029.09 Q57.7745 1032.63 57.7745 1039.76 Q57.7745 1046.87 59.58 1050.43 Q61.4087 1053.98 65.0198 1053.98 Q68.6541 1053.98 70.4596 1050.43 Q72.2883 1046.87 72.2883 1039.76 Q72.2883 1032.63 70.4596 1029.09 Q68.6541 1025.53 65.0198 1025.53 M65.0198 1021.82 Q70.83 1021.82 73.8855 1026.43 Q76.9642 1031.01 76.9642 1039.76 Q76.9642 1048.49 73.8855 1053.1 Q70.83 1057.68 65.0198 1057.68 Q59.2097 1057.68 56.131 1053.1 Q53.0754 1048.49 53.0754 1039.76 Q53.0754 1031.01 56.131 1026.43 Q59.2097 1021.82 65.0198 1021.82 Z" fill="#000000" fill-rule="evenodd" fill-opacity="1" /><path clip-path="url(#clip330)" d="M85.1818 1051.13 L90.066 1051.13 L90.066 1057.01 L85.1818 1057.01 L85.1818 1051.13 Z" fill="#000000" fill-rule="evenodd" fill-opacity="1" /><path clip-path="url(#clip330)" d="M104.279 1053.07 L120.598 1053.07 L120.598 1057.01 L98.6539 1057.01 L98.6539 1053.07 Q101.316 1050.32 105.899 1045.69 Q110.506 1041.04 111.686 1039.69 Q113.932 1037.17 114.811 1035.43 Q115.714 1033.68 115.714 1031.99 Q115.714 1029.23 113.77 1027.5 Q111.848 1025.76 108.746 1025.76 Q106.547 1025.76 104.094 1026.52 Q101.663 1027.29 98.8854 1028.84 L98.8854 1024.12 Q101.709 1022.98 104.163 1022.4 Q106.617 1021.82 108.654 1021.82 Q114.024 1021.82 117.219 1024.51 Q120.413 1027.19 120.413 1031.68 Q120.413 1033.81 119.603 1035.74 Q118.816 1037.63 116.709 1040.23 Q116.131 1040.9 113.029 1044.12 Q109.927 1047.31 104.279 1053.07 Z" fill="#000000" fill-rule="evenodd" fill-opacity="1" /><path clip-path="url(#clip330)" d="M62.9365 681.018 Q59.3254 681.018 57.4967 684.583 Q55.6912 688.125 55.6912 695.254 Q55.6912 702.361 57.4967 705.925 Q59.3254 709.467 62.9365 709.467 Q66.5707 709.467 68.3763 705.925 Q70.205 702.361 70.205 695.254 Q70.205 688.125 68.3763 684.583 Q66.5707 681.018 62.9365 681.018 M62.9365 677.314 Q68.7467 677.314 71.8022 681.921 Q74.8809 686.504 74.8809 695.254 Q74.8809 703.981 71.8022 708.587 Q68.7467 713.171 62.9365 713.171 Q57.1264 713.171 54.0477 708.587 Q50.9921 703.981 50.9921 695.254 Q50.9921 686.504 54.0477 681.921 Q57.1264 677.314 62.9365 677.314 Z" fill="#000000" fill-rule="evenodd" fill-opacity="1" /><path clip-path="url(#clip330)" d="M83.0984 706.62 L87.9827 706.62 L87.9827 712.499 L83.0984 712.499 L83.0984 706.62 Z" fill="#000000" fill-rule="evenodd" fill-opacity="1" /><path clip-path="url(#clip330)" d="M111.015 682.014 L99.2095 700.463 L111.015 700.463 L111.015 682.014 M109.788 677.939 L115.668 677.939 L115.668 700.463 L120.598 700.463 L120.598 704.351 L115.668 704.351 L115.668 712.499 L111.015 712.499 L111.015 704.351 L95.4132 704.351 L95.4132 699.838 L109.788 677.939 Z" fill="#000000" fill-rule="evenodd" fill-opacity="1" /><path clip-path="url(#clip330)" d="M63.2606 336.509 Q59.6495 336.509 57.8208 340.074 Q56.0152 343.615 56.0152 350.745 Q56.0152 357.851 57.8208 361.416 Q59.6495 364.958 63.2606 364.958 Q66.8948 364.958 68.7004 361.416 Q70.5291 357.851 70.5291 350.745 Q70.5291 343.615 68.7004 340.074 Q66.8948 336.509 63.2606 336.509 M63.2606 332.805 Q69.0707 332.805 72.1263 337.412 Q75.205 341.995 75.205 350.745 Q75.205 359.472 72.1263 364.078 Q69.0707 368.661 63.2606 368.661 Q57.4504 368.661 54.3717 364.078 Q51.3162 359.472 51.3162 350.745 Q51.3162 341.995 54.3717 337.412 Q57.4504 332.805 63.2606 332.805 Z" fill="#000000" fill-rule="evenodd" fill-opacity="1" /><path clip-path="url(#clip330)" d="M83.4225 362.111 L88.3067 362.111 L88.3067 367.99 L83.4225 367.99 L83.4225 362.111 Z" fill="#000000" fill-rule="evenodd" fill-opacity="1" /><path clip-path="url(#clip330)" d="M109.071 348.847 Q105.922 348.847 104.071 350.999 Q102.242 353.152 102.242 356.902 Q102.242 360.629 104.071 362.805 Q105.922 364.958 109.071 364.958 Q112.219 364.958 114.047 362.805 Q115.899 360.629 115.899 356.902 Q115.899 353.152 114.047 350.999 Q112.219 348.847 109.071 348.847 M118.353 334.194 L118.353 338.453 Q116.594 337.62 114.788 337.18 Q113.006 336.74 111.246 336.74 Q106.617 336.74 104.163 339.865 Q101.733 342.99 101.385 349.31 Q102.751 347.296 104.811 346.231 Q106.871 345.143 109.348 345.143 Q114.557 345.143 117.566 348.314 Q120.598 351.462 120.598 356.902 Q120.598 362.226 117.45 365.444 Q114.302 368.661 109.071 368.661 Q103.075 368.661 99.9039 364.078 Q96.7326 359.472 96.7326 350.745 Q96.7326 342.55 100.621 337.689 Q104.51 332.805 111.061 332.805 Q112.82 332.805 114.603 333.152 Q116.408 333.5 118.353 334.194 Z" fill="#000000" fill-rule="evenodd" fill-opacity="1" /><polyline clip-path="url(#clip332)" style="stroke:#009af9; stroke-linecap:butt; stroke-linejoin:round; stroke-width:4; stroke-opacity:1; fill:none" points="
  156.598,1384.24 158.753,1381.61 160.909,1373.85 163.064,1361.15 165.219,1343.73 167.374,1321.85 169.529,1295.76 171.685,1265.75 173.84,1232.13 175.995,1195.21 
  178.15,1155.31 180.306,1112.78 182.461,1067.95 184.616,1021.17 186.771,972.799 188.926,923.176 191.082,872.652 193.237,821.566 195.392,770.256 197.547,719.055 
  199.702,668.271 201.858,618.211 204.013,569.178 206.168,521.442 208.323,475.255 210.478,430.87 212.634,388.526 214.789,348.41 216.944,310.701 219.099,275.581 
  221.254,243.208 223.41,213.683 225.565,187.1 227.72,163.551 229.875,143.117 232.031,125.818 234.186,111.656 236.341,100.632 238.496,92.7446 240.651,87.9562 
  242.807,86.1857 244.962,87.3503 247.117,91.3673 249.272,98.1471 251.427,107.556 253.583,119.447 255.738,133.677 257.893,150.1 260.048,168.549 262.203,188.841 
  264.359,210.796 266.514,234.234 268.669,258.966 270.824,284.795 272.98,311.529 275.135,338.976 277.29,366.939 279.445,395.232 281.6,423.67 283.756,452.065 
  285.911,480.242 288.066,508.035 290.221,535.282 292.376,561.819 294.532,587.506 296.687,612.213 298.842,635.808 300.997,658.169 303.152,679.2 305.308,698.813 
  307.463,716.918 309.618,733.44 311.773,748.332 313.928,761.551 316.084,773.053 318.239,782.814 320.394,790.833 322.549,797.11 324.705,801.648 326.86,804.469 
  329.015,805.615 331.17,805.126 333.325,803.045 335.481,799.43 337.636,794.356 339.791,787.898 341.946,780.13 344.101,771.138 346.257,761.018 348.412,749.868 
  350.567,737.785 352.722,724.868 354.877,711.226 357.033,696.967 359.188,682.195 361.343,667.017 363.498,651.541 365.653,635.876 367.809,620.121 369.964,604.375 
  372.119,588.738 374.274,573.311 376.43,558.183 378.585,543.434 380.74,529.142 382.895,515.388 385.05,502.25 387.206,489.791 389.361,478.06 391.516,467.106 
  393.671,456.981 395.826,447.732 397.982,439.393 400.137,431.979 402.292,425.505 404.447,419.987 406.602,415.44 408.758,411.87 410.913,409.264 413.068,407.602 
  415.223,406.866 417.378,407.039 419.534,408.1 421.689,410.019 423.844,412.752 425.999,416.254 428.155,420.483 430.31,425.394 432.465,430.943 434.62,437.068 
  436.775,443.715 438.931,450.827 441.086,458.348 443.241,466.222 445.396,474.384 447.551,482.776 449.707,491.34 451.862,500.018 454.017,508.753 456.172,517.484 
  458.327,526.158 460.483,534.726 462.638,543.137 464.793,551.342 466.948,559.292 469.103,566.945 471.259,574.267 473.414,581.222 475.569,587.775 477.724,593.89 
  479.88,599.546 482.035,604.725 484.19,609.409 486.345,613.58 488.5,617.221 490.656,620.328 492.811,622.901 494.966,624.942 497.121,626.451 499.276,627.429 
  501.432,627.885 503.587,627.834 505.742,627.294 507.897,626.284 510.052,624.821 512.208,622.923 514.363,620.615 516.518,617.928 518.673,614.89 520.829,611.529 
  522.984,607.874 525.139,603.955 527.294,599.807 529.449,595.463 531.605,590.956 533.76,586.316 535.915,581.576 538.07,576.77 540.225,571.932 542.381,567.093 
  544.536,562.28 546.691,557.522 548.846,552.847 551.001,548.285 553.157,543.864 555.312,539.605 557.467,535.527 559.622,531.649 561.777,527.99 563.933,524.569 
  566.088,521.404 568.243,518.507 570.398,515.884 572.554,513.542 574.709,511.486 576.864,509.724 579.019,508.261 581.174,507.101 583.33,506.237 585.485,505.664 
  587.64,505.376 589.795,505.366 591.95,505.629 594.106,506.16 596.261,506.946 598.416,507.972 600.571,509.224 602.726,510.688 604.882,512.348 607.037,514.19 
  609.192,516.2 611.347,518.356 613.502,520.641 615.658,523.037 617.813,525.525 619.968,528.09 622.123,530.712 624.279,533.374 626.434,536.055 628.589,538.738 
  630.744,541.409 632.899,544.052 635.055,546.65 637.21,549.189 639.365,551.652 641.52,554.025 643.675,556.298 645.831,558.46 647.986,560.504 650.141,562.418 
  652.296,564.194 654.451,565.822 656.607,567.295 658.762,568.611 660.917,569.769 663.072,570.765 665.227,571.599 667.383,572.268 669.538,572.771 671.693,573.108 
  673.848,573.285 676.004,573.306 678.159,573.177 680.314,572.904 682.469,572.49 684.624,571.941 686.78,571.264 688.935,570.465 691.09,569.557 693.245,568.548 
  695.4,567.447 697.556,566.263 699.711,565.005 701.866,563.684 704.021,562.308 706.176,560.892 708.332,559.444 710.487,557.972 712.642,556.488 714.797,554.999 
  716.952,553.515 719.108,552.045 721.263,550.601 723.418,549.191 725.573,547.822 727.729,546.5 729.884,545.23 732.039,544.02 734.194,542.875 736.349,541.802 
  738.505,540.808 740.66,539.896 742.815,539.068 744.97,538.326 747.125,537.671 749.281,537.104 751.436,536.627 753.591,536.241 755.746,535.948 757.901,535.748 
  760.057,535.636 762.212,535.612 764.367,535.671 766.522,535.81 768.678,536.027 770.833,536.318 772.988,536.681 775.143,537.113 777.298,537.607 779.454,538.158 
  781.609,538.761 783.764,539.41 785.919,540.1 788.074,540.826 790.23,541.583 792.385,542.366 794.54,543.169 796.695,543.983 798.85,544.804 801.006,545.628 
  803.161,546.45 805.316,547.265 807.471,548.069 809.626,548.856 811.782,549.622 813.937,550.362 816.092,551.07 818.247,551.744 820.403,552.382 822.558,552.982 
  824.713,553.541 826.868,554.057 829.023,554.528 831.179,554.952 833.334,555.325 835.489,555.647 837.644,555.918 839.799,556.139 841.955,556.309 844.11,556.431 
  846.265,556.504 848.42,556.529 850.575,556.508 852.731,556.44 854.886,556.327 857.041,556.172 859.196,555.977 861.351,555.745 863.507,555.478 865.662,555.18 
  867.817,554.853 869.972,554.499 872.128,554.121 874.283,553.722 876.438,553.304 878.593,552.874 880.748,552.432 882.904,551.983 885.059,551.529 887.214,551.072 
  889.369,550.616 891.524,550.162 893.68,549.715 895.835,549.275 897.99,548.848 900.145,548.437 902.3,548.041 904.456,547.664 906.611,547.306 908.766,546.969 
  910.921,546.653 913.076,546.361 915.232,546.094 917.387,545.852 919.542,545.639 921.697,545.453 923.853,545.297 926.008,545.168 928.163,545.067 930.318,544.994 
  932.473,544.947 934.629,544.926 936.784,544.931 938.939,544.961 941.094,545.016 943.249,545.095 945.405,545.197 947.56,545.32 949.715,545.463 951.87,545.623 
  954.025,545.8 956.181,545.992 958.336,546.197 960.491,546.414 962.646,546.642 964.801,546.878 966.957,547.122 969.112,547.371 971.267,547.621 973.422,547.874 
  975.578,548.125 977.733,548.376 979.888,548.624 982.043,548.867 984.198,549.106 986.354,549.337 988.509,549.561 990.664,549.775 992.819,549.978 994.974,550.168 
  997.13,550.345 999.285,550.509 1001.44,550.659 1003.6,550.795 1005.75,550.918 1007.91,551.025 1010.06,551.119 1012.22,551.197 1014.37,551.26 1016.53,551.307 
  1018.68,551.339 1020.84,551.355 1022.99,551.357 1025.15,551.344 1027.3,551.318 1029.46,551.279 1031.61,551.228 1033.77,551.166 1035.92,551.092 1038.08,551.008 
  1040.23,550.915 1042.39,550.813 1044.54,550.702 1046.7,550.584 1048.85,550.46 1051.01,550.332 1053.17,550.2 1055.32,550.065 1057.48,549.928 1059.63,549.789 
  1061.79,549.65 1063.94,549.51 1066.1,549.372 1068.25,549.236 1070.41,549.102 1072.56,548.972 1074.72,548.847 1076.87,548.728 1079.03,548.615 1081.18,548.508 
  1083.34,548.408 1085.49,548.314 1087.65,548.228 1089.8,548.148 1091.96,548.077 1094.11,548.012 1096.27,547.956 1098.42,547.909 1100.58,547.869 1102.73,547.839 
  1104.89,547.817 1107.05,547.804 1109.2,547.799 1111.36,547.801 1113.51,547.811 1115.67,547.829 1117.82,547.853 1119.98,547.883 1122.13,547.92 1124.29,547.962 
  1126.44,548.01 1128.6,548.063 1130.75,548.121 1132.91,548.183 1135.06,548.249 1137.22,548.317 1139.37,548.388 1141.53,548.461 1143.68,548.535 1145.84,548.61 
  1147.99,548.686 1150.15,548.762 1152.3,548.838 1154.46,548.913 1156.62,548.987 1158.77,549.06 1160.93,549.131 1163.08,549.199 1165.24,549.264 1167.39,549.325 
  1169.55,549.382 1171.7,549.436 1173.86,549.485 1176.01,549.531 1178.17,549.572 1180.32,549.609 1182.48,549.642 1184.63,549.671 1186.79,549.696 1188.94,549.717 
  1191.1,549.733 1193.25,549.744 1195.41,549.752 1197.56,549.755 1199.72,549.753 1201.87,549.747 1204.03,549.738 1206.18,549.725 1208.34,549.708 1210.5,549.688 
  1212.65,549.665 1214.81,549.639 1216.96,549.61 1219.12,549.579 1221.27,549.546 1223.43,549.511 1225.58,549.475 1227.74,549.436 1229.89,549.397 1232.05,549.356 
  1234.2,549.315 1236.36,549.274 1238.51,549.233 1240.67,549.193 1242.82,549.153 1244.98,549.114 1247.13,549.075 1249.29,549.038 1251.44,549.002 1253.6,548.967 
  1255.75,548.933 1257.91,548.901 1260.07,548.871 1262.22,548.843 1264.38,548.817 1266.53,548.793 1268.69,548.772 1270.84,548.754 1273,548.738 1275.15,548.726 
  1277.31,548.715 1279.46,548.707 1281.62,548.702 1283.77,548.698 1285.93,548.697 1288.08,548.698 1290.24,548.701 1292.39,548.705 1294.55,548.712 1296.7,548.72 
  1298.86,548.729 1301.01,548.741 1303.17,548.753 1305.32,548.768 1307.48,548.783 1309.63,548.799 1311.79,548.817 1313.95,548.835 1316.1,548.854 1318.26,548.873 
  1320.41,548.893 1322.57,548.914 1324.72,548.934 1326.88,548.955 1329.03,548.976 1331.19,548.997 1333.34,549.018 1335.5,549.039 1337.65,549.059 1339.81,549.079 
  1341.96,549.098 1344.12,549.116 1346.27,549.134 1348.43,549.149 1350.58,549.164 1352.74,549.177 1354.89,549.19 1357.05,549.201 1359.2,549.21 1361.36,549.219 
  1363.52,549.227 1365.67,549.233 1367.83,549.238 1369.98,549.242 1372.14,549.246 1374.29,549.248 1376.45,549.249 1378.6,549.249 1380.76,549.248 1382.91,549.247 
  1385.07,549.244 1387.22,549.24 1389.38,549.236 1391.53,549.231 1393.69,549.225 1395.84,549.219 1398,549.211 1400.15,549.204 1402.31,549.196 1404.46,549.187 
  1406.62,549.178 1408.77,549.168 1410.93,549.159 1413.08,549.149 1415.24,549.139 1417.4,549.128 1419.55,549.118 1421.71,549.108 1423.86,549.097 1426.02,549.087 
  1428.17,549.077 1430.33,549.067 1432.48,549.057 1434.64,549.048 1436.79,549.04 1438.95,549.032 1441.1,549.024 1443.26,549.017 1445.41,549.011 1447.57,549.005 
  1449.72,549 1451.88,548.995 1454.03,548.991 1456.19,548.987 1458.34,548.983 1460.5,548.981 1462.65,548.978 1464.81,548.977 1466.97,548.975 1469.12,548.975 
  1471.28,548.974 1473.43,548.974 1475.59,548.975 1477.74,548.976 1479.9,548.977 1482.05,548.979 1484.21,548.981 1486.36,548.983 1488.52,548.986 1490.67,548.989 
  1492.83,548.992 1494.98,548.995 1497.14,548.998 1499.29,549.002 1501.45,549.006 1503.6,549.01 1505.76,549.014 1507.91,549.018 1510.07,549.022 1512.22,549.026 
  1514.38,549.03 1516.53,549.034 1518.69,549.038 1520.85,549.042 1523,549.046 1525.16,549.05 1527.31,549.054 1529.47,549.058 1531.62,549.061 1533.78,549.065 
  1535.93,549.068 1538.09,549.071 1540.24,549.073 1542.4,549.076 1544.55,549.078 1546.71,549.081 1548.86,549.083 1551.02,549.084 1553.17,549.086 1555.33,549.088 
  1557.48,549.089 1559.64,549.09 1561.79,549.091 1563.95,549.092 1566.1,549.093 1568.26,549.093 1570.42,549.094 1572.57,549.094 1574.73,549.094 1576.88,549.094 
  1579.04,549.094 1581.19,549.094 1583.35,549.093 1585.5,549.093 1587.66,549.093 1589.81,549.092 1591.97,549.092 1594.12,549.092 1596.28,549.091 1598.43,549.091 
  1600.59,549.091 1602.74,549.09 1604.9,549.09 1607.05,549.089 1609.21,549.089 1611.36,549.088 1613.52,549.088 1615.67,549.088 1617.83,549.087 1619.98,549.087 
  1622.14,549.086 1624.3,549.086 1626.45,549.085 1628.61,549.085 1630.76,549.085 1632.92,549.084 1635.07,549.084 1637.23,549.084 1639.38,549.084 1641.54,549.083 
  1643.69,549.083 1645.85,549.083 1648,549.083 1650.16,549.083 1652.31,549.083 1654.47,549.083 1656.62,549.083 1658.78,549.082 1660.93,549.082 1663.09,549.082 
  1665.24,549.081 1667.4,549.081 1669.55,549.08 1671.71,549.079 1673.87,549.079 1676.02,549.078 1678.18,549.077 1680.33,549.076 1682.49,549.075 1684.64,549.074 
  1686.8,549.073 1688.95,549.072 1691.11,549.071 1693.26,549.07 1695.42,549.069 1697.57,549.068 1699.73,549.067 1701.88,549.066 1704.04,549.065 1706.19,549.065 
  1708.35,549.064 1710.5,549.063 1712.66,549.063 1714.81,549.062 1716.97,549.062 1719.12,549.062 1721.28,549.062 1723.43,549.062 1725.59,549.062 1727.75,549.062 
  1729.9,549.062 1732.06,549.062 1734.21,549.063 1736.37,549.063 1738.52,549.063 1740.68,549.064 1742.83,549.064 1744.99,549.064 1747.14,549.065 1749.3,549.065 
  1751.45,549.065 1753.61,549.065 1755.76,549.066 1757.92,549.066 1760.07,549.066 1762.23,549.066 1764.38,549.066 1766.54,549.066 1768.69,549.066 1770.85,549.066 
  1773,549.066 1775.16,549.065 1777.32,549.065 1779.47,549.065 1781.63,549.064 1783.78,549.064 1785.94,549.063 1788.09,549.063 1790.25,549.063 1792.4,549.063 
  1794.56,549.063 1796.71,549.063 1798.87,549.063 1801.02,549.063 1803.18,549.063 1805.33,549.063 1807.49,549.064 1809.64,549.064 1811.8,549.064 1813.95,549.064 
  1816.11,549.064 1818.26,549.065 1820.42,549.065 1822.57,549.065 1824.73,549.065 1826.88,549.065 1829.04,549.066 1831.2,549.066 1833.35,549.066 1835.51,549.066 
  1837.66,549.066 1839.82,549.066 1841.97,549.066 1844.13,549.066 1846.28,549.066 1848.44,549.066 1850.59,549.066 1852.75,549.065 1854.9,549.065 1857.06,549.065 
  1859.21,549.064 1861.37,549.064 1863.52,549.064 1865.68,549.064 1867.83,549.064 1869.99,549.064 1872.14,549.065 1874.3,549.065 1876.45,549.065 1878.61,549.065 
  1880.77,549.066 1882.92,549.066 1885.08,549.066 1887.23,549.067 1889.39,549.067 1891.54,549.068 1893.7,549.068 1895.85,549.068 1898.01,549.069 1900.16,549.069 
  1902.32,549.07 1904.47,549.07 1906.63,549.07 1908.78,549.071 1910.94,549.071 1913.09,549.071 1915.25,549.071 1917.4,549.072 1919.56,549.072 1921.71,549.072 
  1923.87,549.072 1926.02,549.072 1928.18,549.072 1930.33,549.072 1932.49,549.071 1934.65,549.071 1936.8,549.07 1938.96,549.07 1941.11,549.069 1943.27,549.069 
  1945.42,549.068 1947.58,549.067 1949.73,549.067 1951.89,549.067 1954.04,549.067 1956.2,549.066 1958.35,549.067 1960.51,549.067 1962.66,549.067 1964.82,549.067 
  1966.97,549.068 1969.13,549.068 1971.28,549.069 1973.44,549.07 1975.59,549.07 1977.75,549.071 1979.9,549.072 1982.06,549.073 1984.22,549.073 1986.37,549.074 
  1988.53,549.075 1990.68,549.076 1992.84,549.076 1994.99,549.077 1997.15,549.078 1999.3,549.078 2001.46,549.079 2003.61,549.079 2005.77,549.08 2007.92,549.08 
  2010.08,549.08 2012.23,549.08 2014.39,549.08 2016.54,549.08 2018.7,549.08 2020.85,549.079 2023.01,549.078 2025.16,549.078 2027.32,549.077 2029.47,549.076 
  2031.63,549.074 2033.79,549.073 2035.94,549.073 2038.1,549.072 2040.25,549.071 2042.41,549.071 2044.56,549.071 2046.72,549.071 2048.87,549.071 2051.03,549.071 
  2053.18,549.071 2055.34,549.071 2057.49,549.072 2059.65,549.072 2061.8,549.073 2063.96,549.073 2066.11,549.074 2068.27,549.075 2070.42,549.075 2072.58,549.076 
  2074.73,549.076 2076.89,549.077 2079.04,549.078 2081.2,549.078 2083.35,549.079 2085.51,549.079 2087.67,549.079 2089.82,549.08 2091.98,549.08 2094.13,549.08 
  2096.29,549.08 2098.44,549.08 2100.6,549.079 2102.75,549.079 2104.91,549.078 2107.06,549.077 2109.22,549.076 2111.37,549.075 2113.53,549.074 2115.68,549.074 
  2117.84,549.073 2119.99,549.073 2122.15,549.072 2124.3,549.072 2126.46,549.072 2128.61,549.072 2130.77,549.072 2132.92,549.072 2135.08,549.072 2137.24,549.072 
  2139.39,549.072 2141.55,549.072 2143.7,549.073 2145.86,549.073 2148.01,549.073 2150.17,549.073 2152.32,549.074 2154.48,549.074 2156.63,549.074 2158.79,549.075 
  2160.94,549.075 2163.1,549.075 2165.25,549.075 2167.41,549.075 2169.56,549.075 2171.72,549.075 2173.87,549.075 2176.03,549.075 2178.18,549.075 2180.34,549.074 
  2182.49,549.074 2184.65,549.073 2186.8,549.072 2188.96,549.072 2191.12,549.071 2193.27,549.071 2195.43,549.071 2197.58,549.071 2199.74,549.07 2201.89,549.07 
  2204.05,549.07 2206.2,549.07 2208.36,549.07 2210.51,549.07 2212.67,549.07 2214.82,549.071 2216.98,549.071 2219.13,549.071 2221.29,549.071 2223.44,549.071 
  2225.6,549.072 2227.75,549.072 2229.91,549.072 2232.06,549.072 2234.22,549.073 2236.37,549.073 2238.53,549.073 2240.69,549.073 2242.84,549.073 2245,549.073 
  2247.15,549.073 2249.31,549.073 2251.46,549.073 2253.62,549.073 2255.77,549.073 2257.93,549.073 2260.08,549.072 2262.24,549.072 2264.39,549.071 2266.55,549.071 
  2268.7,549.071 2270.86,549.07 2273.01,549.07 2275.17,549.07 2277.32,549.07 2279.48,549.07 2281.63,549.07 2283.79,549.07 2285.94,549.07 2288.1,549.071 
  2290.25,549.071 2292.41,549.071 2294.57,549.071 2296.72,549.071 2298.88,549.072 2301.03,549.072 2303.19,549.072 2305.34,549.072 2307.5,549.073 2309.65,549.073 
  2311.81,549.073 2313.96,549.073 2316.12,549.074 2318.27,549.074 2320.43,549.074 2322.58,549.074 2324.74,549.074 2326.89,549.074 2329.05,549.074 2331.2,549.074 
  2333.36,549.074 2335.51,549.074 2337.67,549.074 2339.82,549.073 2341.98,549.073 2344.14,549.073 2346.29,549.072 2348.45,549.072 2350.6,549.071 2352.76,549.071 
  
  "/>
<path clip-path="url(#clip330)" d="
M1471.47 196.789 L2279.55 196.789 L2279.55 93.1086 L1471.47 93.1086  Z
  " fill="#ffffff" fill-rule="evenodd" fill-opacity="1"/>
<polyline clip-path="url(#clip330)" style="stroke:#000000; stroke-linecap:butt; stroke-linejoin:round; stroke-width:4; stroke-opacity:1; fill:none" points="
  1471.47,196.789 2279.55,196.789 2279.55,93.1086 1471.47,93.1086 1471.47,196.789 
  "/>
<polyline clip-path="url(#clip330)" style="stroke:#009af9; stroke-linecap:butt; stroke-linejoin:round; stroke-width:4; stroke-opacity:1; fill:none" points="
  1495.47,144.949 1639.47,144.949 
  "/>
<path clip-path="url(#clip330)" d="M1663.47 127.669 L1685.33 127.669 L1685.33 131.604 L1668.15 131.604 L1668.15 141.835 L1684.61 141.835 L1684.61 145.77 L1668.15 145.77 L1668.15 158.293 L1685.74 158.293 L1685.74 162.229 L1663.47 162.229 L1663.47 127.669 Z" fill="#000000" fill-rule="evenodd" fill-opacity="1" /><path clip-path="url(#clip330)" d="M1714.79 136.303 L1705.42 148.919 L1715.28 162.229 L1710.26 162.229 L1702.71 152.043 L1695.16 162.229 L1690.14 162.229 L1700.21 148.664 L1691 136.303 L1696.02 136.303 L1702.9 145.539 L1709.77 136.303 L1714.79 136.303 Z" fill="#000000" fill-rule="evenodd" fill-opacity="1" /><path clip-path="url(#clip330)" d="M1739.12 137.298 L1739.12 141.28 Q1737.32 140.284 1735.49 139.798 Q1733.68 139.289 1731.83 139.289 Q1727.69 139.289 1725.4 141.928 Q1723.1 144.544 1723.1 149.289 Q1723.1 154.034 1725.4 156.673 Q1727.69 159.289 1731.83 159.289 Q1733.68 159.289 1735.49 158.803 Q1737.32 158.293 1739.12 157.298 L1739.12 161.233 Q1737.34 162.067 1735.42 162.483 Q1733.52 162.9 1731.37 162.9 Q1725.51 162.9 1722.06 159.219 Q1718.61 155.539 1718.61 149.289 Q1718.61 142.946 1722.09 139.312 Q1725.58 135.678 1731.65 135.678 Q1733.61 135.678 1735.49 136.095 Q1737.36 136.488 1739.12 137.298 Z" fill="#000000" fill-rule="evenodd" fill-opacity="1" /><path clip-path="url(#clip330)" d="M1746.53 136.303 L1750.79 136.303 L1750.79 162.229 L1746.53 162.229 L1746.53 136.303 M1746.53 126.21 L1750.79 126.21 L1750.79 131.604 L1746.53 131.604 L1746.53 126.21 Z" fill="#000000" fill-rule="evenodd" fill-opacity="1" /><path clip-path="url(#clip330)" d="M1763.91 128.942 L1763.91 136.303 L1772.69 136.303 L1772.69 139.613 L1763.91 139.613 L1763.91 153.687 Q1763.91 156.858 1764.77 157.761 Q1765.65 158.664 1768.31 158.664 L1772.69 158.664 L1772.69 162.229 L1768.31 162.229 Q1763.38 162.229 1761.51 160.4 Q1759.63 158.548 1759.63 153.687 L1759.63 139.613 L1756.51 139.613 L1756.51 136.303 L1759.63 136.303 L1759.63 128.942 L1763.91 128.942 Z" fill="#000000" fill-rule="evenodd" fill-opacity="1" /><path clip-path="url(#clip330)" d="M1800.46 148.201 L1800.46 150.284 L1780.88 150.284 Q1781.16 154.682 1783.52 156.997 Q1785.9 159.289 1790.14 159.289 Q1792.59 159.289 1794.89 158.687 Q1797.2 158.085 1799.47 156.881 L1799.47 160.909 Q1797.18 161.881 1794.77 162.391 Q1792.36 162.9 1789.89 162.9 Q1783.68 162.9 1780.05 159.289 Q1776.44 155.678 1776.44 149.52 Q1776.44 143.155 1779.86 139.428 Q1783.31 135.678 1789.15 135.678 Q1794.38 135.678 1797.41 139.057 Q1800.46 142.414 1800.46 148.201 M1796.21 146.951 Q1796.16 143.456 1794.24 141.372 Q1792.34 139.289 1789.19 139.289 Q1785.63 139.289 1783.47 141.303 Q1781.34 143.317 1781.02 146.974 L1796.21 146.951 Z" fill="#000000" fill-rule="evenodd" fill-opacity="1" /><path clip-path="url(#clip330)" d="M1824.52 140.238 L1824.52 126.21 L1828.78 126.21 L1828.78 162.229 L1824.52 162.229 L1824.52 158.34 Q1823.17 160.655 1821.11 161.789 Q1819.08 162.9 1816.21 162.9 Q1811.51 162.9 1808.54 159.15 Q1805.6 155.4 1805.6 149.289 Q1805.6 143.178 1808.54 139.428 Q1811.51 135.678 1816.21 135.678 Q1819.08 135.678 1821.11 136.812 Q1823.17 137.923 1824.52 140.238 M1810 149.289 Q1810 153.988 1811.92 156.673 Q1813.87 159.335 1817.25 159.335 Q1820.63 159.335 1822.57 156.673 Q1824.52 153.988 1824.52 149.289 Q1824.52 144.59 1822.57 141.928 Q1820.63 139.243 1817.25 139.243 Q1813.87 139.243 1811.92 141.928 Q1810 144.59 1810 149.289 Z" fill="#000000" fill-rule="evenodd" fill-opacity="1" /><path clip-path="url(#clip330)" d="M1869.15 137.067 L1869.15 141.094 Q1867.34 140.169 1865.4 139.706 Q1863.45 139.243 1861.37 139.243 Q1858.2 139.243 1856.6 140.215 Q1855.02 141.187 1855.02 143.131 Q1855.02 144.613 1856.16 145.469 Q1857.29 146.303 1860.72 147.067 L1862.18 147.391 Q1866.71 148.363 1868.61 150.145 Q1870.53 151.905 1870.53 155.076 Q1870.53 158.687 1867.66 160.793 Q1864.82 162.9 1859.82 162.9 Q1857.73 162.9 1855.46 162.483 Q1853.22 162.09 1850.72 161.28 L1850.72 156.881 Q1853.08 158.108 1855.37 158.733 Q1857.66 159.335 1859.91 159.335 Q1862.92 159.335 1864.54 158.317 Q1866.16 157.275 1866.16 155.4 Q1866.16 153.664 1864.98 152.738 Q1863.82 151.812 1859.86 150.956 L1858.38 150.608 Q1854.42 149.775 1852.66 148.062 Q1850.9 146.326 1850.9 143.317 Q1850.9 139.659 1853.5 137.669 Q1856.09 135.678 1860.86 135.678 Q1863.22 135.678 1865.3 136.025 Q1867.39 136.372 1869.15 137.067 Z" fill="#000000" fill-rule="evenodd" fill-opacity="1" /><path clip-path="url(#clip330)" d="M1881.53 128.942 L1881.53 136.303 L1890.3 136.303 L1890.3 139.613 L1881.53 139.613 L1881.53 153.687 Q1881.53 156.858 1882.39 157.761 Q1883.27 158.664 1885.93 158.664 L1890.3 158.664 L1890.3 162.229 L1885.93 162.229 Q1881 162.229 1879.12 160.4 Q1877.25 158.548 1877.25 153.687 L1877.25 139.613 L1874.12 139.613 L1874.12 136.303 L1877.25 136.303 L1877.25 128.942 L1881.53 128.942 Z" fill="#000000" fill-rule="evenodd" fill-opacity="1" /><path clip-path="url(#clip330)" d="M1907.69 149.196 Q1902.52 149.196 1900.53 150.377 Q1898.54 151.557 1898.54 154.405 Q1898.54 156.673 1900.02 158.016 Q1901.53 159.335 1904.1 159.335 Q1907.64 159.335 1909.77 156.835 Q1911.92 154.312 1911.92 150.145 L1911.92 149.196 L1907.69 149.196 M1916.18 147.437 L1916.18 162.229 L1911.92 162.229 L1911.92 158.293 Q1910.46 160.655 1908.29 161.789 Q1906.11 162.9 1902.96 162.9 Q1898.98 162.9 1896.62 160.678 Q1894.28 158.432 1894.28 154.682 Q1894.28 150.307 1897.2 148.085 Q1900.14 145.863 1905.95 145.863 L1911.92 145.863 L1911.92 145.446 Q1911.92 142.507 1909.98 140.909 Q1908.06 139.289 1904.56 139.289 Q1902.34 139.289 1900.23 139.821 Q1898.13 140.354 1896.18 141.419 L1896.18 137.483 Q1898.52 136.581 1900.72 136.141 Q1902.92 135.678 1905 135.678 Q1910.63 135.678 1913.4 138.594 Q1916.18 141.511 1916.18 147.437 Z" fill="#000000" fill-rule="evenodd" fill-opacity="1" /><path clip-path="url(#clip330)" d="M1929.17 128.942 L1929.17 136.303 L1937.94 136.303 L1937.94 139.613 L1929.17 139.613 L1929.17 153.687 Q1929.17 156.858 1930.02 157.761 Q1930.9 158.664 1933.57 158.664 L1937.94 158.664 L1937.94 162.229 L1933.57 162.229 Q1928.64 162.229 1926.76 160.4 Q1924.89 158.548 1924.89 153.687 L1924.89 139.613 L1921.76 139.613 L1921.76 136.303 L1924.89 136.303 L1924.89 128.942 L1929.17 128.942 Z" fill="#000000" fill-rule="evenodd" fill-opacity="1" /><path clip-path="url(#clip330)" d="M1965.72 148.201 L1965.72 150.284 L1946.14 150.284 Q1946.41 154.682 1948.77 156.997 Q1951.16 159.289 1955.39 159.289 Q1957.85 159.289 1960.14 158.687 Q1962.45 158.085 1964.72 156.881 L1964.72 160.909 Q1962.43 161.881 1960.02 162.391 Q1957.62 162.9 1955.14 162.9 Q1948.94 162.9 1945.3 159.289 Q1941.69 155.678 1941.69 149.52 Q1941.69 143.155 1945.12 139.428 Q1948.57 135.678 1954.4 135.678 Q1959.63 135.678 1962.66 139.057 Q1965.72 142.414 1965.72 148.201 M1961.46 146.951 Q1961.41 143.456 1959.49 141.372 Q1957.59 139.289 1954.45 139.289 Q1950.88 139.289 1948.73 141.303 Q1946.6 143.317 1946.27 146.974 L1961.46 146.951 Z" fill="#000000" fill-rule="evenodd" fill-opacity="1" /><path clip-path="url(#clip330)" d="M1991.9 158.34 L1991.9 172.09 L1987.62 172.09 L1987.62 136.303 L1991.9 136.303 L1991.9 140.238 Q1993.24 137.923 1995.28 136.812 Q1997.34 135.678 2000.19 135.678 Q2004.91 135.678 2007.85 139.428 Q2010.81 143.178 2010.81 149.289 Q2010.81 155.4 2007.85 159.15 Q2004.91 162.9 2000.19 162.9 Q1997.34 162.9 1995.28 161.789 Q1993.24 160.655 1991.9 158.34 M2006.39 149.289 Q2006.39 144.59 2004.45 141.928 Q2002.52 139.243 1999.14 139.243 Q1995.76 139.243 1993.82 141.928 Q1991.9 144.59 1991.9 149.289 Q1991.9 153.988 1993.82 156.673 Q1995.76 159.335 1999.14 159.335 Q2002.52 159.335 2004.45 156.673 Q2006.39 153.988 2006.39 149.289 Z" fill="#000000" fill-rule="evenodd" fill-opacity="1" /><path clip-path="url(#clip330)" d="M2027.92 139.289 Q2024.49 139.289 2022.5 141.974 Q2020.51 144.636 2020.51 149.289 Q2020.51 153.942 2022.48 156.627 Q2024.47 159.289 2027.92 159.289 Q2031.32 159.289 2033.31 156.604 Q2035.3 153.918 2035.3 149.289 Q2035.3 144.682 2033.31 141.997 Q2031.32 139.289 2027.92 139.289 M2027.92 135.678 Q2033.47 135.678 2036.64 139.289 Q2039.82 142.9 2039.82 149.289 Q2039.82 155.655 2036.64 159.289 Q2033.47 162.9 2027.92 162.9 Q2022.34 162.9 2019.17 159.289 Q2016.02 155.655 2016.02 149.289 Q2016.02 142.9 2019.17 139.289 Q2022.34 135.678 2027.92 135.678 Z" fill="#000000" fill-rule="evenodd" fill-opacity="1" /><path clip-path="url(#clip330)" d="M2051 158.34 L2051 172.09 L2046.71 172.09 L2046.71 136.303 L2051 136.303 L2051 140.238 Q2052.34 137.923 2054.38 136.812 Q2056.44 135.678 2059.28 135.678 Q2064.01 135.678 2066.95 139.428 Q2069.91 143.178 2069.91 149.289 Q2069.91 155.4 2066.95 159.15 Q2064.01 162.9 2059.28 162.9 Q2056.44 162.9 2054.38 161.789 Q2052.34 160.655 2051 158.34 M2065.49 149.289 Q2065.49 144.59 2063.54 141.928 Q2061.62 139.243 2058.24 139.243 Q2054.86 139.243 2052.92 141.928 Q2051 144.59 2051 149.289 Q2051 153.988 2052.92 156.673 Q2054.86 159.335 2058.24 159.335 Q2061.62 159.335 2063.54 156.673 Q2065.49 153.988 2065.49 149.289 Z" fill="#000000" fill-rule="evenodd" fill-opacity="1" /><path clip-path="url(#clip330)" d="M2076.53 151.997 L2076.53 136.303 L2080.79 136.303 L2080.79 151.835 Q2080.79 155.516 2082.22 157.368 Q2083.66 159.196 2086.53 159.196 Q2089.98 159.196 2091.97 156.997 Q2093.98 154.798 2093.98 151.002 L2093.98 136.303 L2098.24 136.303 L2098.24 162.229 L2093.98 162.229 L2093.98 158.247 Q2092.43 160.608 2090.37 161.766 Q2088.33 162.9 2085.63 162.9 Q2081.16 162.9 2078.84 160.122 Q2076.53 157.344 2076.53 151.997 M2087.25 135.678 L2087.25 135.678 Z" fill="#000000" fill-rule="evenodd" fill-opacity="1" /><path clip-path="url(#clip330)" d="M2107.01 126.21 L2111.27 126.21 L2111.27 162.229 L2107.01 162.229 L2107.01 126.21 Z" fill="#000000" fill-rule="evenodd" fill-opacity="1" /><path clip-path="url(#clip330)" d="M2131.97 149.196 Q2126.81 149.196 2124.82 150.377 Q2122.82 151.557 2122.82 154.405 Q2122.82 156.673 2124.31 158.016 Q2125.81 159.335 2128.38 159.335 Q2131.92 159.335 2134.05 156.835 Q2136.2 154.312 2136.2 150.145 L2136.2 149.196 L2131.97 149.196 M2140.46 147.437 L2140.46 162.229 L2136.2 162.229 L2136.2 158.293 Q2134.75 160.655 2132.57 161.789 Q2130.39 162.9 2127.25 162.9 Q2123.26 162.9 2120.9 160.678 Q2118.57 158.432 2118.57 154.682 Q2118.57 150.307 2121.48 148.085 Q2124.42 145.863 2130.23 145.863 L2136.2 145.863 L2136.2 145.446 Q2136.2 142.507 2134.26 140.909 Q2132.34 139.289 2128.84 139.289 Q2126.62 139.289 2124.51 139.821 Q2122.41 140.354 2120.46 141.419 L2120.46 137.483 Q2122.8 136.581 2125 136.141 Q2127.2 135.678 2129.28 135.678 Q2134.91 135.678 2137.69 138.594 Q2140.46 141.511 2140.46 147.437 Z" fill="#000000" fill-rule="evenodd" fill-opacity="1" /><path clip-path="url(#clip330)" d="M2153.45 128.942 L2153.45 136.303 L2162.22 136.303 L2162.22 139.613 L2153.45 139.613 L2153.45 153.687 Q2153.45 156.858 2154.31 157.761 Q2155.19 158.664 2157.85 158.664 L2162.22 158.664 L2162.22 162.229 L2157.85 162.229 Q2152.92 162.229 2151.04 160.4 Q2149.17 158.548 2149.17 153.687 L2149.17 139.613 L2146.04 139.613 L2146.04 136.303 L2149.17 136.303 L2149.17 128.942 L2153.45 128.942 Z" fill="#000000" fill-rule="evenodd" fill-opacity="1" /><path clip-path="url(#clip330)" d="M2167.82 136.303 L2172.08 136.303 L2172.08 162.229 L2167.82 162.229 L2167.82 136.303 M2167.82 126.21 L2172.08 126.21 L2172.08 131.604 L2167.82 131.604 L2167.82 126.21 Z" fill="#000000" fill-rule="evenodd" fill-opacity="1" /><path clip-path="url(#clip330)" d="M2191.04 139.289 Q2187.62 139.289 2185.62 141.974 Q2183.63 144.636 2183.63 149.289 Q2183.63 153.942 2185.6 156.627 Q2187.59 159.289 2191.04 159.289 Q2194.44 159.289 2196.44 156.604 Q2198.43 153.918 2198.43 149.289 Q2198.43 144.682 2196.44 141.997 Q2194.44 139.289 2191.04 139.289 M2191.04 135.678 Q2196.6 135.678 2199.77 139.289 Q2202.94 142.9 2202.94 149.289 Q2202.94 155.655 2199.77 159.289 Q2196.6 162.9 2191.04 162.9 Q2185.46 162.9 2182.29 159.289 Q2179.14 155.655 2179.14 149.289 Q2179.14 142.9 2182.29 139.289 Q2185.46 135.678 2191.04 135.678 Z" fill="#000000" fill-rule="evenodd" fill-opacity="1" /><path clip-path="url(#clip330)" d="M2231.55 146.581 L2231.55 162.229 L2227.29 162.229 L2227.29 146.719 Q2227.29 143.039 2225.86 141.21 Q2224.42 139.382 2221.55 139.382 Q2218.1 139.382 2216.11 141.581 Q2214.12 143.78 2214.12 147.576 L2214.12 162.229 L2209.84 162.229 L2209.84 136.303 L2214.12 136.303 L2214.12 140.331 Q2215.65 137.993 2217.71 136.835 Q2219.79 135.678 2222.5 135.678 Q2226.97 135.678 2229.26 138.456 Q2231.55 141.21 2231.55 146.581 Z" fill="#000000" fill-rule="evenodd" fill-opacity="1" /></svg>
