<?xml version="1.0" encoding="utf-8"?>
<svg xmlns="http://www.w3.org/2000/svg" xmlns:xlink="http://www.w3.org/1999/xlink" width="600" height="400" viewBox="0 0 2400 1600">
<defs>
  <clipPath id="clip480">
    <rect x="0" y="0" width="2400" height="1600"/>
  </clipPath>
</defs>
<path clip-path="url(#clip480)" d="
M0 1600 L2400 1600 L2400 0 L0 0  Z
  " fill="#ffffff" fill-rule="evenodd" fill-opacity="1"/>
<defs>
  <clipPath id="clip481">
    <rect x="480" y="0" width="1681" height="1600"/>
  </clipPath>
</defs>
<path clip-path="url(#clip480)" d="
M156.112 1423.18 L2352.76 1423.18 L2352.76 47.2441 L156.112 47.2441  Z
  " fill="#ffffff" fill-rule="evenodd" fill-opacity="1"/>
<defs>
  <clipPath id="clip482">
    <rect x="156" y="47" width="2198" height="1377"/>
  </clipPath>
</defs>
<polyline clip-path="url(#clip482)" style="stroke:#000000; stroke-linecap:round; stroke-linejoin:round; stroke-width:2; stroke-opacity:0.1; fill:none" points="
  218.281,1423.18 218.281,47.2441 
  "/>
<polyline clip-path="url(#clip482)" style="stroke:#000000; stroke-linecap:round; stroke-linejoin:round; stroke-width:2; stroke-opacity:0.1; fill:none" points="
  736.358,1423.18 736.358,47.2441 
  "/>
<polyline clip-path="url(#clip482)" style="stroke:#000000; stroke-linecap:round; stroke-linejoin:round; stroke-width:2; stroke-opacity:0.1; fill:none" points="
  1254.43,1423.18 1254.43,47.2441 
  "/>
<polyline clip-path="url(#clip482)" style="stroke:#000000; stroke-linecap:round; stroke-linejoin:round; stroke-width:2; stroke-opacity:0.1; fill:none" points="
  1772.51,1423.18 1772.51,47.2441 
  "/>
<polyline clip-path="url(#clip482)" style="stroke:#000000; stroke-linecap:round; stroke-linejoin:round; stroke-width:2; stroke-opacity:0.1; fill:none" points="
  2290.59,1423.18 2290.59,47.2441 
  "/>
<polyline clip-path="url(#clip480)" style="stroke:#000000; stroke-linecap:round; stroke-linejoin:round; stroke-width:4; stroke-opacity:1; fill:none" points="
  156.112,1423.18 2352.76,1423.18 
  "/>
<polyline clip-path="url(#clip480)" style="stroke:#000000; stroke-linecap:round; stroke-linejoin:round; stroke-width:4; stroke-opacity:1; fill:none" points="
  218.281,1423.18 218.281,1404.28 
  "/>
<polyline clip-path="url(#clip480)" style="stroke:#000000; stroke-linecap:round; stroke-linejoin:round; stroke-width:4; stroke-opacity:1; fill:none" points="
  736.358,1423.18 736.358,1404.28 
  "/>
<polyline clip-path="url(#clip480)" style="stroke:#000000; stroke-linecap:round; stroke-linejoin:round; stroke-width:4; stroke-opacity:1; fill:none" points="
  1254.43,1423.18 1254.43,1404.28 
  "/>
<polyline clip-path="url(#clip480)" style="stroke:#000000; stroke-linecap:round; stroke-linejoin:round; stroke-width:4; stroke-opacity:1; fill:none" points="
  1772.51,1423.18 1772.51,1404.28 
  "/>
<polyline clip-path="url(#clip480)" style="stroke:#000000; stroke-linecap:round; stroke-linejoin:round; stroke-width:4; stroke-opacity:1; fill:none" points="
  2290.59,1423.18 2290.59,1404.28 
  "/>
<path clip-path="url(#clip480)" d="M195.666 1454.1 Q192.055 1454.1 190.226 1457.66 Q188.42 1461.2 188.42 1468.33 Q188.42 1475.44 190.226 1479.01 Q192.055 1482.55 195.666 1482.55 Q199.3 1482.55 201.105 1479.01 Q202.934 1475.44 202.934 1468.33 Q202.934 1461.2 201.105 1457.66 Q199.3 1454.1 195.666 1454.1 M195.666 1450.39 Q201.476 1450.39 204.531 1455 Q207.61 1459.58 207.61 1468.33 Q207.61 1477.06 204.531 1481.67 Q201.476 1486.25 195.666 1486.25 Q189.856 1486.25 186.777 1481.67 Q183.721 1477.06 183.721 1468.33 Q183.721 1459.58 186.777 1455 Q189.856 1450.39 195.666 1450.39 Z" fill="#000000" fill-rule="evenodd" fill-opacity="1" /><path clip-path="url(#clip480)" d="M215.828 1479.7 L220.712 1479.7 L220.712 1485.58 L215.828 1485.58 L215.828 1479.7 Z" fill="#000000" fill-rule="evenodd" fill-opacity="1" /><path clip-path="url(#clip480)" d="M240.897 1454.1 Q237.286 1454.1 235.457 1457.66 Q233.652 1461.2 233.652 1468.33 Q233.652 1475.44 235.457 1479.01 Q237.286 1482.55 240.897 1482.55 Q244.531 1482.55 246.337 1479.01 Q248.165 1475.44 248.165 1468.33 Q248.165 1461.2 246.337 1457.66 Q244.531 1454.1 240.897 1454.1 M240.897 1450.39 Q246.707 1450.39 249.763 1455 Q252.841 1459.58 252.841 1468.33 Q252.841 1477.06 249.763 1481.67 Q246.707 1486.25 240.897 1486.25 Q235.087 1486.25 232.008 1481.67 Q228.953 1477.06 228.953 1468.33 Q228.953 1459.58 232.008 1455 Q235.087 1450.39 240.897 1450.39 Z" fill="#000000" fill-rule="evenodd" fill-opacity="1" /><path clip-path="url(#clip480)" d="M708.094 1481.64 L724.413 1481.64 L724.413 1485.58 L702.469 1485.58 L702.469 1481.64 Q705.131 1478.89 709.714 1474.26 Q714.321 1469.61 715.501 1468.27 Q717.747 1465.74 718.626 1464.01 Q719.529 1462.25 719.529 1460.56 Q719.529 1457.8 717.585 1456.07 Q715.663 1454.33 712.561 1454.33 Q710.362 1454.33 707.909 1455.09 Q705.478 1455.86 702.7 1457.41 L702.7 1452.69 Q705.524 1451.55 707.978 1450.97 Q710.432 1450.39 712.469 1450.39 Q717.839 1450.39 721.034 1453.08 Q724.228 1455.77 724.228 1460.26 Q724.228 1462.39 723.418 1464.31 Q722.631 1466.2 720.524 1468.8 Q719.946 1469.47 716.844 1472.69 Q713.742 1475.88 708.094 1481.64 Z" fill="#000000" fill-rule="evenodd" fill-opacity="1" /><path clip-path="url(#clip480)" d="M734.228 1479.7 L739.112 1479.7 L739.112 1485.58 L734.228 1485.58 L734.228 1479.7 Z" fill="#000000" fill-rule="evenodd" fill-opacity="1" /><path clip-path="url(#clip480)" d="M749.344 1451.02 L767.7 1451.02 L767.7 1454.96 L753.626 1454.96 L753.626 1463.43 Q754.645 1463.08 755.663 1462.92 Q756.682 1462.73 757.7 1462.73 Q763.487 1462.73 766.867 1465.9 Q770.246 1469.08 770.246 1474.49 Q770.246 1480.07 766.774 1483.17 Q763.302 1486.25 756.983 1486.25 Q754.807 1486.25 752.538 1485.88 Q750.293 1485.51 747.885 1484.77 L747.885 1480.07 Q749.969 1481.2 752.191 1481.76 Q754.413 1482.32 756.89 1482.32 Q760.895 1482.32 763.233 1480.21 Q765.57 1478.1 765.57 1474.49 Q765.57 1470.88 763.233 1468.77 Q760.895 1466.67 756.89 1466.67 Q755.015 1466.67 753.14 1467.08 Q751.288 1467.5 749.344 1468.38 L749.344 1451.02 Z" fill="#000000" fill-rule="evenodd" fill-opacity="1" /><path clip-path="url(#clip480)" d="M1221.6 1451.02 L1239.95 1451.02 L1239.95 1454.96 L1225.88 1454.96 L1225.88 1463.43 Q1226.9 1463.08 1227.92 1462.92 Q1228.94 1462.73 1229.95 1462.73 Q1235.74 1462.73 1239.12 1465.9 Q1242.5 1469.08 1242.5 1474.49 Q1242.5 1480.07 1239.03 1483.17 Q1235.56 1486.25 1229.24 1486.25 Q1227.06 1486.25 1224.79 1485.88 Q1222.55 1485.51 1220.14 1484.77 L1220.14 1480.07 Q1222.22 1481.2 1224.45 1481.76 Q1226.67 1482.32 1229.14 1482.32 Q1233.15 1482.32 1235.49 1480.21 Q1237.83 1478.1 1237.83 1474.49 Q1237.83 1470.88 1235.49 1468.77 Q1233.15 1466.67 1229.14 1466.67 Q1227.27 1466.67 1225.39 1467.08 Q1223.54 1467.5 1221.6 1468.38 L1221.6 1451.02 Z" fill="#000000" fill-rule="evenodd" fill-opacity="1" /><path clip-path="url(#clip480)" d="M1251.71 1479.7 L1256.6 1479.7 L1256.6 1485.58 L1251.71 1485.58 L1251.71 1479.7 Z" fill="#000000" fill-rule="evenodd" fill-opacity="1" /><path clip-path="url(#clip480)" d="M1276.78 1454.1 Q1273.17 1454.1 1271.34 1457.66 Q1269.54 1461.2 1269.54 1468.33 Q1269.54 1475.44 1271.34 1479.01 Q1273.17 1482.55 1276.78 1482.55 Q1280.42 1482.55 1282.22 1479.01 Q1284.05 1475.44 1284.05 1468.33 Q1284.05 1461.2 1282.22 1457.66 Q1280.42 1454.1 1276.78 1454.1 M1276.78 1450.39 Q1282.59 1450.39 1285.65 1455 Q1288.73 1459.58 1288.73 1468.33 Q1288.73 1477.06 1285.65 1481.67 Q1282.59 1486.25 1276.78 1486.25 Q1270.97 1486.25 1267.89 1481.67 Q1264.84 1477.06 1264.84 1468.33 Q1264.84 1459.58 1267.89 1455 Q1270.97 1450.39 1276.78 1450.39 Z" fill="#000000" fill-rule="evenodd" fill-opacity="1" /><path clip-path="url(#clip480)" d="M1738.83 1451.02 L1761.05 1451.02 L1761.05 1453.01 L1748.51 1485.58 L1743.62 1485.58 L1755.43 1454.96 L1738.83 1454.96 L1738.83 1451.02 Z" fill="#000000" fill-rule="evenodd" fill-opacity="1" /><path clip-path="url(#clip480)" d="M1770.17 1479.7 L1775.06 1479.7 L1775.06 1485.58 L1770.17 1485.58 L1770.17 1479.7 Z" fill="#000000" fill-rule="evenodd" fill-opacity="1" /><path clip-path="url(#clip480)" d="M1785.29 1451.02 L1803.64 1451.02 L1803.64 1454.96 L1789.57 1454.96 L1789.57 1463.43 Q1790.59 1463.08 1791.61 1462.92 Q1792.63 1462.73 1793.64 1462.73 Q1799.43 1462.73 1802.81 1465.9 Q1806.19 1469.08 1806.19 1474.49 Q1806.19 1480.07 1802.72 1483.17 Q1799.25 1486.25 1792.93 1486.25 Q1790.75 1486.25 1788.48 1485.88 Q1786.24 1485.51 1783.83 1484.77 L1783.83 1480.07 Q1785.91 1481.2 1788.14 1481.76 Q1790.36 1482.32 1792.83 1482.32 Q1796.84 1482.32 1799.18 1480.21 Q1801.51 1478.1 1801.51 1474.49 Q1801.51 1470.88 1799.18 1468.77 Q1796.84 1466.67 1792.83 1466.67 Q1790.96 1466.67 1789.08 1467.08 Q1787.23 1467.5 1785.29 1468.38 L1785.29 1451.02 Z" fill="#000000" fill-rule="evenodd" fill-opacity="1" /><path clip-path="url(#clip480)" d="M2242.66 1481.64 L2250.3 1481.64 L2250.3 1455.28 L2241.99 1456.95 L2241.99 1452.69 L2250.25 1451.02 L2254.93 1451.02 L2254.93 1481.64 L2262.57 1481.64 L2262.57 1485.58 L2242.66 1485.58 L2242.66 1481.64 Z" fill="#000000" fill-rule="evenodd" fill-opacity="1" /><path clip-path="url(#clip480)" d="M2282.01 1454.1 Q2278.4 1454.1 2276.57 1457.66 Q2274.77 1461.2 2274.77 1468.33 Q2274.77 1475.44 2276.57 1479.01 Q2278.4 1482.55 2282.01 1482.55 Q2285.64 1482.55 2287.45 1479.01 Q2289.28 1475.44 2289.28 1468.33 Q2289.28 1461.2 2287.45 1457.66 Q2285.64 1454.1 2282.01 1454.1 M2282.01 1450.39 Q2287.82 1450.39 2290.88 1455 Q2293.95 1459.58 2293.95 1468.33 Q2293.95 1477.06 2290.88 1481.67 Q2287.82 1486.25 2282.01 1486.25 Q2276.2 1486.25 2273.12 1481.67 Q2270.07 1477.06 2270.07 1468.33 Q2270.07 1459.58 2273.12 1455 Q2276.2 1450.39 2282.01 1450.39 Z" fill="#000000" fill-rule="evenodd" fill-opacity="1" /><path clip-path="url(#clip480)" d="M2302.17 1479.7 L2307.06 1479.7 L2307.06 1485.58 L2302.17 1485.58 L2302.17 1479.7 Z" fill="#000000" fill-rule="evenodd" fill-opacity="1" /><path clip-path="url(#clip480)" d="M2327.24 1454.1 Q2323.63 1454.1 2321.8 1457.66 Q2320 1461.2 2320 1468.33 Q2320 1475.44 2321.8 1479.01 Q2323.63 1482.55 2327.24 1482.55 Q2330.88 1482.55 2332.68 1479.01 Q2334.51 1475.44 2334.51 1468.33 Q2334.51 1461.2 2332.68 1457.66 Q2330.88 1454.1 2327.24 1454.1 M2327.24 1450.39 Q2333.05 1450.39 2336.11 1455 Q2339.19 1459.58 2339.19 1468.33 Q2339.19 1477.06 2336.11 1481.67 Q2333.05 1486.25 2327.24 1486.25 Q2321.43 1486.25 2318.35 1481.67 Q2315.3 1477.06 2315.3 1468.33 Q2315.3 1459.58 2318.35 1455 Q2321.43 1450.39 2327.24 1450.39 Z" fill="#000000" fill-rule="evenodd" fill-opacity="1" /><path clip-path="url(#clip480)" d="M1253.5 1522.27 L1253.5 1532.4 L1265.56 1532.4 L1265.56 1536.95 L1253.5 1536.95 L1253.5 1556.3 Q1253.5 1560.66 1254.67 1561.9 Q1255.88 1563.14 1259.54 1563.14 L1265.56 1563.14 L1265.56 1568.04 L1259.54 1568.04 Q1252.76 1568.04 1250.18 1565.53 Q1247.61 1562.98 1247.61 1556.3 L1247.61 1536.95 L1243.31 1536.95 L1243.31 1532.4 L1247.61 1532.4 L1247.61 1522.27 L1253.5 1522.27 Z" fill="#000000" fill-rule="evenodd" fill-opacity="1" /><polyline clip-path="url(#clip482)" style="stroke:#000000; stroke-linecap:round; stroke-linejoin:round; stroke-width:2; stroke-opacity:0.1; fill:none" points="
  156.112,1384.24 2352.76,1384.24 
  "/>
<polyline clip-path="url(#clip482)" style="stroke:#000000; stroke-linecap:round; stroke-linejoin:round; stroke-width:2; stroke-opacity:0.1; fill:none" points="
  156.112,946.642 2352.76,946.642 
  "/>
<polyline clip-path="url(#clip482)" style="stroke:#000000; stroke-linecap:round; stroke-linejoin:round; stroke-width:2; stroke-opacity:0.1; fill:none" points="
  156.112,509.045 2352.76,509.045 
  "/>
<polyline clip-path="url(#clip482)" style="stroke:#000000; stroke-linecap:round; stroke-linejoin:round; stroke-width:2; stroke-opacity:0.1; fill:none" points="
  156.112,71.4483 2352.76,71.4483 
  "/>
<polyline clip-path="url(#clip480)" style="stroke:#000000; stroke-linecap:round; stroke-linejoin:round; stroke-width:4; stroke-opacity:1; fill:none" points="
  156.112,1423.18 156.112,47.2441 
  "/>
<polyline clip-path="url(#clip480)" style="stroke:#000000; stroke-linecap:round; stroke-linejoin:round; stroke-width:4; stroke-opacity:1; fill:none" points="
  156.112,1384.24 175.01,1384.24 
  "/>
<polyline clip-path="url(#clip480)" style="stroke:#000000; stroke-linecap:round; stroke-linejoin:round; stroke-width:4; stroke-opacity:1; fill:none" points="
  156.112,946.642 175.01,946.642 
  "/>
<polyline clip-path="url(#clip480)" style="stroke:#000000; stroke-linecap:round; stroke-linejoin:round; stroke-width:4; stroke-opacity:1; fill:none" points="
  156.112,509.045 175.01,509.045 
  "/>
<polyline clip-path="url(#clip480)" style="stroke:#000000; stroke-linecap:round; stroke-linejoin:round; stroke-width:4; stroke-opacity:1; fill:none" points="
  156.112,71.4483 175.01,71.4483 
  "/>
<path clip-path="url(#clip480)" d="M62.9365 1370.04 Q59.3254 1370.04 57.4967 1373.6 Q55.6912 1377.14 55.6912 1384.27 Q55.6912 1391.38 57.4967 1394.94 Q59.3254 1398.49 62.9365 1398.49 Q66.5707 1398.49 68.3763 1394.94 Q70.205 1391.38 70.205 1384.27 Q70.205 1377.14 68.3763 1373.6 Q66.5707 1370.04 62.9365 1370.04 M62.9365 1366.33 Q68.7467 1366.33 71.8022 1370.94 Q74.8809 1375.52 74.8809 1384.27 Q74.8809 1393 71.8022 1397.61 Q68.7467 1402.19 62.9365 1402.19 Q57.1264 1402.19 54.0477 1397.61 Q50.9921 1393 50.9921 1384.27 Q50.9921 1375.52 54.0477 1370.94 Q57.1264 1366.33 62.9365 1366.33 Z" fill="#000000" fill-rule="evenodd" fill-opacity="1" /><path clip-path="url(#clip480)" d="M83.0984 1395.64 L87.9827 1395.64 L87.9827 1401.52 L83.0984 1401.52 L83.0984 1395.64 Z" fill="#000000" fill-rule="evenodd" fill-opacity="1" /><path clip-path="url(#clip480)" d="M108.168 1370.04 Q104.557 1370.04 102.728 1373.6 Q100.922 1377.14 100.922 1384.27 Q100.922 1391.38 102.728 1394.94 Q104.557 1398.49 108.168 1398.49 Q111.802 1398.49 113.608 1394.94 Q115.436 1391.38 115.436 1384.27 Q115.436 1377.14 113.608 1373.6 Q111.802 1370.04 108.168 1370.04 M108.168 1366.33 Q113.978 1366.33 117.033 1370.94 Q120.112 1375.52 120.112 1384.27 Q120.112 1393 117.033 1397.61 Q113.978 1402.19 108.168 1402.19 Q102.358 1402.19 99.2789 1397.61 Q96.2234 1393 96.2234 1384.27 Q96.2234 1375.52 99.2789 1370.94 Q102.358 1366.33 108.168 1366.33 Z" fill="#000000" fill-rule="evenodd" fill-opacity="1" /><path clip-path="url(#clip480)" d="M63.9319 932.44 Q60.3208 932.44 58.4921 936.005 Q56.6865 939.547 56.6865 946.676 Q56.6865 953.783 58.4921 957.348 Q60.3208 960.889 63.9319 960.889 Q67.5661 960.889 69.3717 957.348 Q71.2004 953.783 71.2004 946.676 Q71.2004 939.547 69.3717 936.005 Q67.5661 932.44 63.9319 932.44 M63.9319 928.737 Q69.742 928.737 72.7976 933.343 Q75.8763 937.926 75.8763 946.676 Q75.8763 955.403 72.7976 960.01 Q69.742 964.593 63.9319 964.593 Q58.1217 964.593 55.043 960.01 Q51.9875 955.403 51.9875 946.676 Q51.9875 937.926 55.043 933.343 Q58.1217 928.737 63.9319 928.737 Z" fill="#000000" fill-rule="evenodd" fill-opacity="1" /><path clip-path="url(#clip480)" d="M84.0938 958.042 L88.978 958.042 L88.978 963.922 L84.0938 963.922 L84.0938 958.042 Z" fill="#000000" fill-rule="evenodd" fill-opacity="1" /><path clip-path="url(#clip480)" d="M99.2095 929.362 L117.566 929.362 L117.566 933.297 L103.492 933.297 L103.492 941.769 Q104.51 941.422 105.529 941.26 Q106.547 941.075 107.566 941.075 Q113.353 941.075 116.733 944.246 Q120.112 947.417 120.112 952.834 Q120.112 958.412 116.64 961.514 Q113.168 964.593 106.848 964.593 Q104.672 964.593 102.404 964.223 Q100.159 963.852 97.7511 963.111 L97.7511 958.412 Q99.8345 959.547 102.057 960.102 Q104.279 960.658 106.756 960.658 Q110.76 960.658 113.098 958.551 Q115.436 956.445 115.436 952.834 Q115.436 949.223 113.098 947.116 Q110.76 945.01 106.756 945.01 Q104.881 945.01 103.006 945.426 Q101.154 945.843 99.2095 946.723 L99.2095 929.362 Z" fill="#000000" fill-rule="evenodd" fill-opacity="1" /><path clip-path="url(#clip480)" d="M53.7467 522.39 L61.3856 522.39 L61.3856 496.024 L53.0754 497.691 L53.0754 493.432 L61.3393 491.765 L66.0152 491.765 L66.0152 522.39 L73.654 522.39 L73.654 526.325 L53.7467 526.325 L53.7467 522.39 Z" fill="#000000" fill-rule="evenodd" fill-opacity="1" /><path clip-path="url(#clip480)" d="M83.0984 520.445 L87.9827 520.445 L87.9827 526.325 L83.0984 526.325 L83.0984 520.445 Z" fill="#000000" fill-rule="evenodd" fill-opacity="1" /><path clip-path="url(#clip480)" d="M108.168 494.844 Q104.557 494.844 102.728 498.408 Q100.922 501.95 100.922 509.08 Q100.922 516.186 102.728 519.751 Q104.557 523.293 108.168 523.293 Q111.802 523.293 113.608 519.751 Q115.436 516.186 115.436 509.08 Q115.436 501.95 113.608 498.408 Q111.802 494.844 108.168 494.844 M108.168 491.14 Q113.978 491.14 117.033 495.746 Q120.112 500.33 120.112 509.08 Q120.112 517.806 117.033 522.413 Q113.978 526.996 108.168 526.996 Q102.358 526.996 99.2789 522.413 Q96.2234 517.806 96.2234 509.08 Q96.2234 500.33 99.2789 495.746 Q102.358 491.14 108.168 491.14 Z" fill="#000000" fill-rule="evenodd" fill-opacity="1" /><path clip-path="url(#clip480)" d="M54.7421 84.7931 L62.381 84.7931 L62.381 58.4275 L54.0708 60.0942 L54.0708 55.835 L62.3347 54.1683 L67.0106 54.1683 L67.0106 84.7931 L74.6494 84.7931 L74.6494 88.7283 L54.7421 88.7283 L54.7421 84.7931 Z" fill="#000000" fill-rule="evenodd" fill-opacity="1" /><path clip-path="url(#clip480)" d="M84.0938 82.8487 L88.978 82.8487 L88.978 88.7283 L84.0938 88.7283 L84.0938 82.8487 Z" fill="#000000" fill-rule="evenodd" fill-opacity="1" /><path clip-path="url(#clip480)" d="M99.2095 54.1683 L117.566 54.1683 L117.566 58.1035 L103.492 58.1035 L103.492 66.5756 Q104.51 66.2284 105.529 66.0664 Q106.547 65.8812 107.566 65.8812 Q113.353 65.8812 116.733 69.0525 Q120.112 72.2238 120.112 77.6404 Q120.112 83.2191 116.64 86.3209 Q113.168 89.3996 106.848 89.3996 Q104.672 89.3996 102.404 89.0292 Q100.159 88.6589 97.7511 87.9181 L97.7511 83.2191 Q99.8345 84.3533 102.057 84.9089 Q104.279 85.4644 106.756 85.4644 Q110.76 85.4644 113.098 83.358 Q115.436 81.2515 115.436 77.6404 Q115.436 74.0293 113.098 71.9228 Q110.76 69.8164 106.756 69.8164 Q104.881 69.8164 103.006 70.233 Q101.154 70.6497 99.2095 71.5293 L99.2095 54.1683 Z" fill="#000000" fill-rule="evenodd" fill-opacity="1" /><polyline clip-path="url(#clip482)" style="stroke:#009af9; stroke-linecap:round; stroke-linejoin:round; stroke-width:4; stroke-opacity:1; fill:none" points="
  218.281,1384.24 218.302,1384.24 218.509,1384.24 219.238,1384.24 220.307,1384.24 221.675,1384.23 223.419,1384.2 225.517,1384.13 227.991,1383.99 230.846,1383.72 
  234.127,1383.23 237.885,1382.39 242.197,1381.03 247.152,1378.85 252.854,1375.46 259.422,1370.34 266.998,1362.73 275.739,1351.67 285.83,1335.95 297.466,1314.09 
  310.847,1284.51 326.14,1245.71 343.454,1196.63 362.838,1137.02 384.325,1067.55 407.924,989.919 433.688,906.518 461.742,820.125 492.319,733.469 525.719,649.016 
  562.231,568.86 602.113,494.445 645.973,426.016 695.363,362.63 753.06,303.215 827.483,244.74 893.743,205.927 980.914,168.862 1071.66,142.351 1195.66,119.232 
  1301.29,107.154 1425.87,98.4221 1539.02,93.5907 1643.74,90.8134 1748.41,89.0655 1857.31,87.8178 1955.68,87.1743 2053.75,86.7436 2158.36,86.3759 2259.99,86.2265 
  2290.59,86.1857 
  "/>
<polyline clip-path="url(#clip482)" style="stroke:#e26f46; stroke-linecap:round; stroke-linejoin:round; stroke-width:4; stroke-opacity:1; fill:none" points="
  218.281,1384.24 218.302,1383.89 218.509,1380.4 219.238,1368.23 220.307,1350.73 221.675,1328.87 223.419,1301.9 225.517,1270.75 227.991,1235.75 230.846,1197.61 
  234.127,1156.65 237.885,1113.26 242.197,1067.84 247.152,1021 252.854,973.563 259.422,926.652 266.998,881.638 275.739,840.133 285.83,803.899 297.466,774.702 
  310.847,754.075 326.14,742.977 343.454,741.423 362.838,748.288 384.325,761.47 407.924,778.303 433.688,796.103 461.742,812.629 492.319,826.395 525.719,836.775 
  562.231,843.955 602.113,848.725 645.973,852.093 695.363,854.867 753.06,857.446 827.483,859.979 893.743,861.57 980.914,863.01 1071.66,863.995 1195.66,864.851 
  1301.29,865.277 1425.87,865.571 1539.02,865.79 1643.74,865.838 1748.41,865.902 1857.31,866.006 1955.68,865.952 2053.75,865.995 2158.36,866.043 2259.99,865.983 
  2290.59,865.997 
  "/>
<path clip-path="url(#clip480)" d="
M1491.79 1377.32 L2279.53 1377.32 L2279.53 1221.8 L1491.79 1221.8  Z
  " fill="#ffffff" fill-rule="evenodd" fill-opacity="1"/>
<polyline clip-path="url(#clip480)" style="stroke:#000000; stroke-linecap:round; stroke-linejoin:round; stroke-width:4; stroke-opacity:1; fill:none" points="
  1491.79,1377.32 2279.53,1377.32 2279.53,1221.8 1491.79,1221.8 1491.79,1377.32 
  "/>
<polyline clip-path="url(#clip480)" style="stroke:#009af9; stroke-linecap:round; stroke-linejoin:round; stroke-width:4; stroke-opacity:1; fill:none" points="
  1516.2,1273.64 1662.64,1273.64 
  "/>
<path clip-path="url(#clip480)" d="M1691.73 1260.2 L1691.73 1273.18 L1697.61 1273.18 Q1700.87 1273.18 1702.65 1271.49 Q1704.44 1269.8 1704.44 1266.68 Q1704.44 1263.58 1702.65 1261.89 Q1700.87 1260.2 1697.61 1260.2 L1691.73 1260.2 M1687.05 1256.36 L1697.61 1256.36 Q1703.42 1256.36 1706.38 1258.99 Q1709.37 1261.61 1709.37 1266.68 Q1709.37 1271.8 1706.38 1274.41 Q1703.42 1277.03 1697.61 1277.03 L1691.73 1277.03 L1691.73 1290.92 L1687.05 1290.92 L1687.05 1256.36 Z" fill="#000000" fill-rule="evenodd" fill-opacity="1" /><path clip-path="url(#clip480)" d="M1737.01 1275.27 L1737.01 1290.92 L1732.75 1290.92 L1732.75 1275.41 Q1732.75 1271.73 1731.31 1269.9 Q1729.88 1268.07 1727.01 1268.07 Q1723.56 1268.07 1721.57 1270.27 Q1719.57 1272.47 1719.57 1276.26 L1719.57 1290.92 L1715.29 1290.92 L1715.29 1254.9 L1719.57 1254.9 L1719.57 1269.02 Q1721.1 1266.68 1723.16 1265.52 Q1725.25 1264.36 1727.95 1264.36 Q1732.42 1264.36 1734.71 1267.14 Q1737.01 1269.9 1737.01 1275.27 Z" fill="#000000" fill-rule="evenodd" fill-opacity="1" /><path clip-path="url(#clip480)" d="M1755.55 1267.98 Q1752.12 1267.98 1750.13 1270.66 Q1748.14 1273.32 1748.14 1277.98 Q1748.14 1282.63 1750.11 1285.31 Q1752.1 1287.98 1755.55 1287.98 Q1758.95 1287.98 1760.94 1285.29 Q1762.93 1282.61 1762.93 1277.98 Q1762.93 1273.37 1760.94 1270.68 Q1758.95 1267.98 1755.55 1267.98 M1755.55 1264.36 Q1761.1 1264.36 1764.27 1267.98 Q1767.44 1271.59 1767.44 1277.98 Q1767.44 1284.34 1764.27 1287.98 Q1761.1 1291.59 1755.55 1291.59 Q1749.97 1291.59 1746.8 1287.98 Q1743.65 1284.34 1743.65 1277.98 Q1743.65 1271.59 1746.8 1267.98 Q1749.97 1264.36 1755.55 1264.36 Z" fill="#000000" fill-rule="evenodd" fill-opacity="1" /><path clip-path="url(#clip480)" d="M1778.72 1257.63 L1778.72 1264.99 L1787.49 1264.99 L1787.49 1268.3 L1778.72 1268.3 L1778.72 1282.37 Q1778.72 1285.54 1779.57 1286.45 Q1780.45 1287.35 1783.12 1287.35 L1787.49 1287.35 L1787.49 1290.92 L1783.12 1290.92 Q1778.19 1290.92 1776.31 1289.09 Q1774.44 1287.23 1774.44 1282.37 L1774.44 1268.3 L1771.31 1268.3 L1771.31 1264.99 L1774.44 1264.99 L1774.44 1257.63 L1778.72 1257.63 Z" fill="#000000" fill-rule="evenodd" fill-opacity="1" /><path clip-path="url(#clip480)" d="M1803.14 1267.98 Q1799.71 1267.98 1797.72 1270.66 Q1795.73 1273.32 1795.73 1277.98 Q1795.73 1282.63 1797.7 1285.31 Q1799.69 1287.98 1803.14 1287.98 Q1806.54 1287.98 1808.53 1285.29 Q1810.52 1282.61 1810.52 1277.98 Q1810.52 1273.37 1808.53 1270.68 Q1806.54 1267.98 1803.14 1267.98 M1803.14 1264.36 Q1808.69 1264.36 1811.87 1267.98 Q1815.04 1271.59 1815.04 1277.98 Q1815.04 1284.34 1811.87 1287.98 Q1808.69 1291.59 1803.14 1291.59 Q1797.56 1291.59 1794.39 1287.98 Q1791.24 1284.34 1791.24 1277.98 Q1791.24 1271.59 1794.39 1267.98 Q1797.56 1264.36 1803.14 1264.36 Z" fill="#000000" fill-rule="evenodd" fill-opacity="1" /><path clip-path="url(#clip480)" d="M1843.65 1275.27 L1843.65 1290.92 L1839.39 1290.92 L1839.39 1275.41 Q1839.39 1271.73 1837.95 1269.9 Q1836.52 1268.07 1833.65 1268.07 Q1830.2 1268.07 1828.21 1270.27 Q1826.22 1272.47 1826.22 1276.26 L1826.22 1290.92 L1821.94 1290.92 L1821.94 1264.99 L1826.22 1264.99 L1826.22 1269.02 Q1827.75 1266.68 1829.81 1265.52 Q1831.89 1264.36 1834.6 1264.36 Q1839.06 1264.36 1841.36 1267.14 Q1843.65 1269.9 1843.65 1275.27 Z" fill="#000000" fill-rule="evenodd" fill-opacity="1" /><path clip-path="url(#clip480)" d="M1888.76 1275.27 L1888.76 1290.92 L1884.5 1290.92 L1884.5 1275.41 Q1884.5 1271.73 1883.07 1269.9 Q1881.63 1268.07 1878.76 1268.07 Q1875.31 1268.07 1873.32 1270.27 Q1871.33 1272.47 1871.33 1276.26 L1871.33 1290.92 L1867.05 1290.92 L1867.05 1264.99 L1871.33 1264.99 L1871.33 1269.02 Q1872.86 1266.68 1874.92 1265.52 Q1877 1264.36 1879.71 1264.36 Q1884.18 1264.36 1886.47 1267.14 Q1888.76 1269.9 1888.76 1275.27 Z" fill="#000000" fill-rule="evenodd" fill-opacity="1" /><path clip-path="url(#clip480)" d="M1896.82 1280.68 L1896.82 1264.99 L1901.08 1264.99 L1901.08 1280.52 Q1901.08 1284.2 1902.51 1286.05 Q1903.95 1287.88 1906.82 1287.88 Q1910.27 1287.88 1912.26 1285.68 Q1914.27 1283.48 1914.27 1279.69 L1914.27 1264.99 L1918.53 1264.99 L1918.53 1290.92 L1914.27 1290.92 L1914.27 1286.93 Q1912.72 1289.29 1910.66 1290.45 Q1908.62 1291.59 1905.92 1291.59 Q1901.45 1291.59 1899.13 1288.81 Q1896.82 1286.03 1896.82 1280.68 M1907.54 1264.36 L1907.54 1264.36 Z" fill="#000000" fill-rule="evenodd" fill-opacity="1" /><path clip-path="url(#clip480)" d="M1947.49 1269.97 Q1949.09 1267.1 1951.31 1265.73 Q1953.53 1264.36 1956.54 1264.36 Q1960.59 1264.36 1962.79 1267.21 Q1964.99 1270.04 1964.99 1275.27 L1964.99 1290.92 L1960.71 1290.92 L1960.71 1275.41 Q1960.71 1271.68 1959.39 1269.87 Q1958.07 1268.07 1955.36 1268.07 Q1952.05 1268.07 1950.13 1270.27 Q1948.21 1272.47 1948.21 1276.26 L1948.21 1290.92 L1943.93 1290.92 L1943.93 1275.41 Q1943.93 1271.66 1942.61 1269.87 Q1941.29 1268.07 1938.53 1268.07 Q1935.27 1268.07 1933.35 1270.29 Q1931.43 1272.49 1931.43 1276.26 L1931.43 1290.92 L1927.14 1290.92 L1927.14 1264.99 L1931.43 1264.99 L1931.43 1269.02 Q1932.88 1266.63 1934.92 1265.5 Q1936.96 1264.36 1939.76 1264.36 Q1942.58 1264.36 1944.55 1265.8 Q1946.54 1267.23 1947.49 1269.97 Z" fill="#000000" fill-rule="evenodd" fill-opacity="1" /><path clip-path="url(#clip480)" d="M1992.1 1277.98 Q1992.1 1273.28 1990.15 1270.61 Q1988.23 1267.93 1984.85 1267.93 Q1981.47 1267.93 1979.53 1270.61 Q1977.61 1273.28 1977.61 1277.98 Q1977.61 1282.67 1979.53 1285.36 Q1981.47 1288.02 1984.85 1288.02 Q1988.23 1288.02 1990.15 1285.36 Q1992.1 1282.67 1992.1 1277.98 M1977.61 1268.92 Q1978.95 1266.61 1980.99 1265.5 Q1983.05 1264.36 1985.89 1264.36 Q1990.61 1264.36 1993.55 1268.11 Q1996.52 1271.86 1996.52 1277.98 Q1996.52 1284.09 1993.55 1287.84 Q1990.61 1291.59 1985.89 1291.59 Q1983.05 1291.59 1980.99 1290.48 Q1978.95 1289.34 1977.61 1287.03 L1977.61 1290.92 L1973.32 1290.92 L1973.32 1254.9 L1977.61 1254.9 L1977.61 1268.92 Z" fill="#000000" fill-rule="evenodd" fill-opacity="1" /><path clip-path="url(#clip480)" d="M2025.75 1276.89 L2025.75 1278.97 L2006.17 1278.97 Q2006.45 1283.37 2008.81 1285.68 Q2011.19 1287.98 2015.43 1287.98 Q2017.88 1287.98 2020.17 1287.37 Q2022.49 1286.77 2024.76 1285.57 L2024.76 1289.6 Q2022.47 1290.57 2020.06 1291.08 Q2017.65 1291.59 2015.17 1291.59 Q2008.97 1291.59 2005.34 1287.98 Q2001.73 1284.36 2001.73 1278.21 Q2001.73 1271.84 2005.15 1268.11 Q2008.6 1264.36 2014.43 1264.36 Q2019.67 1264.36 2022.7 1267.74 Q2025.75 1271.1 2025.75 1276.89 M2021.49 1275.64 Q2021.45 1272.14 2019.53 1270.06 Q2017.63 1267.98 2014.48 1267.98 Q2010.92 1267.98 2008.76 1269.99 Q2006.63 1272 2006.31 1275.66 L2021.49 1275.64 Z" fill="#000000" fill-rule="evenodd" fill-opacity="1" /><path clip-path="url(#clip480)" d="M2047.77 1268.97 Q2047.05 1268.55 2046.19 1268.37 Q2045.36 1268.16 2044.34 1268.16 Q2040.73 1268.16 2038.79 1270.52 Q2036.86 1272.86 2036.86 1277.26 L2036.86 1290.92 L2032.58 1290.92 L2032.58 1264.99 L2036.86 1264.99 L2036.86 1269.02 Q2038.21 1266.66 2040.36 1265.52 Q2042.51 1264.36 2045.59 1264.36 Q2046.03 1264.36 2046.56 1264.43 Q2047.1 1264.48 2047.74 1264.6 L2047.77 1268.97 Z" fill="#000000" fill-rule="evenodd" fill-opacity="1" /><polyline clip-path="url(#clip480)" style="stroke:#e26f46; stroke-linecap:round; stroke-linejoin:round; stroke-width:4; stroke-opacity:1; fill:none" points="
  1516.2,1325.48 1662.64,1325.48 
  "/>
<path clip-path="url(#clip480)" d="M1687.05 1308.2 L1708.9 1308.2 L1708.9 1312.13 L1691.73 1312.13 L1691.73 1322.36 L1708.19 1322.36 L1708.19 1326.3 L1691.73 1326.3 L1691.73 1338.82 L1709.32 1338.82 L1709.32 1342.76 L1687.05 1342.76 L1687.05 1308.2 Z" fill="#000000" fill-rule="evenodd" fill-opacity="1" /><path clip-path="url(#clip480)" d="M1738.37 1316.83 L1729 1329.45 L1738.86 1342.76 L1733.83 1342.76 L1726.29 1332.57 L1718.74 1342.76 L1713.72 1342.76 L1723.79 1329.19 L1714.57 1316.83 L1719.6 1316.83 L1726.47 1326.07 L1733.35 1316.83 L1738.37 1316.83 Z" fill="#000000" fill-rule="evenodd" fill-opacity="1" /><path clip-path="url(#clip480)" d="M1762.7 1317.82 L1762.7 1321.81 Q1760.89 1320.81 1759.07 1320.32 Q1757.26 1319.82 1755.41 1319.82 Q1751.26 1319.82 1748.97 1322.45 Q1746.68 1325.07 1746.68 1329.82 Q1746.68 1334.56 1748.97 1337.2 Q1751.26 1339.82 1755.41 1339.82 Q1757.26 1339.82 1759.07 1339.33 Q1760.89 1338.82 1762.7 1337.82 L1762.7 1341.76 Q1760.92 1342.59 1759 1343.01 Q1757.1 1343.43 1754.94 1343.43 Q1749.09 1343.43 1745.64 1339.75 Q1742.19 1336.07 1742.19 1329.82 Q1742.19 1323.47 1745.66 1319.84 Q1749.16 1316.2 1755.22 1316.2 Q1757.19 1316.2 1759.07 1316.62 Q1760.94 1317.01 1762.7 1317.82 Z" fill="#000000" fill-rule="evenodd" fill-opacity="1" /><path clip-path="url(#clip480)" d="M1770.11 1316.83 L1774.37 1316.83 L1774.37 1342.76 L1770.11 1342.76 L1770.11 1316.83 M1770.11 1306.74 L1774.37 1306.74 L1774.37 1312.13 L1770.11 1312.13 L1770.11 1306.74 Z" fill="#000000" fill-rule="evenodd" fill-opacity="1" /><path clip-path="url(#clip480)" d="M1787.49 1309.47 L1787.49 1316.83 L1796.26 1316.83 L1796.26 1320.14 L1787.49 1320.14 L1787.49 1334.21 Q1787.49 1337.38 1788.35 1338.29 Q1789.23 1339.19 1791.89 1339.19 L1796.26 1339.19 L1796.26 1342.76 L1791.89 1342.76 Q1786.96 1342.76 1785.08 1340.93 Q1783.21 1339.07 1783.21 1334.21 L1783.21 1320.14 L1780.08 1320.14 L1780.08 1316.83 L1783.21 1316.83 L1783.21 1309.47 L1787.49 1309.47 Z" fill="#000000" fill-rule="evenodd" fill-opacity="1" /><path clip-path="url(#clip480)" d="M1824.04 1328.73 L1824.04 1330.81 L1804.46 1330.81 Q1804.74 1335.21 1807.1 1337.52 Q1809.48 1339.82 1813.72 1339.82 Q1816.17 1339.82 1818.46 1339.21 Q1820.78 1338.61 1823.05 1337.41 L1823.05 1341.44 Q1820.75 1342.41 1818.35 1342.92 Q1815.94 1343.43 1813.46 1343.43 Q1807.26 1343.43 1803.63 1339.82 Q1800.01 1336.2 1800.01 1330.05 Q1800.01 1323.68 1803.44 1319.95 Q1806.89 1316.2 1812.72 1316.2 Q1817.95 1316.2 1820.99 1319.58 Q1824.04 1322.94 1824.04 1328.73 M1819.78 1327.48 Q1819.74 1323.98 1817.81 1321.9 Q1815.92 1319.82 1812.77 1319.82 Q1809.2 1319.82 1807.05 1321.83 Q1804.92 1323.84 1804.6 1327.5 L1819.78 1327.48 Z" fill="#000000" fill-rule="evenodd" fill-opacity="1" /><path clip-path="url(#clip480)" d="M1848.09 1320.76 L1848.09 1306.74 L1852.35 1306.74 L1852.35 1342.76 L1848.09 1342.76 L1848.09 1338.87 Q1846.75 1341.18 1844.69 1342.32 Q1842.65 1343.43 1839.78 1343.43 Q1835.08 1343.43 1832.12 1339.68 Q1829.18 1335.93 1829.18 1329.82 Q1829.18 1323.7 1832.12 1319.95 Q1835.08 1316.2 1839.78 1316.2 Q1842.65 1316.2 1844.69 1317.34 Q1846.75 1318.45 1848.09 1320.76 M1833.58 1329.82 Q1833.58 1334.51 1835.5 1337.2 Q1837.44 1339.86 1840.82 1339.86 Q1844.2 1339.86 1846.15 1337.2 Q1848.09 1334.51 1848.09 1329.82 Q1848.09 1325.12 1846.15 1322.45 Q1844.2 1319.77 1840.82 1319.77 Q1837.44 1319.77 1835.5 1322.45 Q1833.58 1325.12 1833.58 1329.82 Z" fill="#000000" fill-rule="evenodd" fill-opacity="1" /><path clip-path="url(#clip480)" d="M1892.72 1317.59 L1892.72 1321.62 Q1890.92 1320.7 1888.97 1320.23 Q1887.03 1319.77 1884.94 1319.77 Q1881.77 1319.77 1880.18 1320.74 Q1878.6 1321.71 1878.6 1323.66 Q1878.6 1325.14 1879.74 1326 Q1880.87 1326.83 1884.3 1327.59 L1885.75 1327.92 Q1890.29 1328.89 1892.19 1330.67 Q1894.11 1332.43 1894.11 1335.6 Q1894.11 1339.21 1891.24 1341.32 Q1888.39 1343.43 1883.39 1343.43 Q1881.31 1343.43 1879.04 1343.01 Q1876.8 1342.62 1874.3 1341.81 L1874.3 1337.41 Q1876.66 1338.63 1878.95 1339.26 Q1881.24 1339.86 1883.49 1339.86 Q1886.5 1339.86 1888.12 1338.84 Q1889.74 1337.8 1889.74 1335.93 Q1889.74 1334.19 1888.56 1333.26 Q1887.4 1332.34 1883.44 1331.48 L1881.96 1331.14 Q1878 1330.3 1876.24 1328.59 Q1874.48 1326.85 1874.48 1323.84 Q1874.48 1320.19 1877.07 1318.2 Q1879.67 1316.2 1884.43 1316.2 Q1886.8 1316.2 1888.88 1316.55 Q1890.96 1316.9 1892.72 1317.59 Z" fill="#000000" fill-rule="evenodd" fill-opacity="1" /><path clip-path="url(#clip480)" d="M1905.11 1309.47 L1905.11 1316.83 L1913.88 1316.83 L1913.88 1320.14 L1905.11 1320.14 L1905.11 1334.21 Q1905.11 1337.38 1905.96 1338.29 Q1906.84 1339.19 1909.5 1339.19 L1913.88 1339.19 L1913.88 1342.76 L1909.5 1342.76 Q1904.57 1342.76 1902.7 1340.93 Q1900.82 1339.07 1900.82 1334.21 L1900.82 1320.14 L1897.7 1320.14 L1897.7 1316.83 L1900.82 1316.83 L1900.82 1309.47 L1905.11 1309.47 Z" fill="#000000" fill-rule="evenodd" fill-opacity="1" /><path clip-path="url(#clip480)" d="M1931.26 1329.72 Q1926.1 1329.72 1924.11 1330.9 Q1922.12 1332.08 1922.12 1334.93 Q1922.12 1337.2 1923.6 1338.54 Q1925.11 1339.86 1927.68 1339.86 Q1931.22 1339.86 1933.35 1337.36 Q1935.5 1334.84 1935.5 1330.67 L1935.5 1329.72 L1931.26 1329.72 M1939.76 1327.96 L1939.76 1342.76 L1935.5 1342.76 L1935.5 1338.82 Q1934.04 1341.18 1931.87 1342.32 Q1929.69 1343.43 1926.54 1343.43 Q1922.56 1343.43 1920.2 1341.2 Q1917.86 1338.96 1917.86 1335.21 Q1917.86 1330.83 1920.78 1328.61 Q1923.72 1326.39 1929.53 1326.39 L1935.5 1326.39 L1935.5 1325.97 Q1935.5 1323.03 1933.55 1321.44 Q1931.63 1319.82 1928.14 1319.82 Q1925.92 1319.82 1923.81 1320.35 Q1921.7 1320.88 1919.76 1321.95 L1919.76 1318.01 Q1922.1 1317.11 1924.3 1316.67 Q1926.49 1316.2 1928.58 1316.2 Q1934.2 1316.2 1936.98 1319.12 Q1939.76 1322.04 1939.76 1327.96 Z" fill="#000000" fill-rule="evenodd" fill-opacity="1" /><path clip-path="url(#clip480)" d="M1952.74 1309.47 L1952.74 1316.83 L1961.52 1316.83 L1961.52 1320.14 L1952.74 1320.14 L1952.74 1334.21 Q1952.74 1337.38 1953.6 1338.29 Q1954.48 1339.19 1957.14 1339.19 L1961.52 1339.19 L1961.52 1342.76 L1957.14 1342.76 Q1952.21 1342.76 1950.34 1340.93 Q1948.46 1339.07 1948.46 1334.21 L1948.46 1320.14 L1945.34 1320.14 L1945.34 1316.83 L1948.46 1316.83 L1948.46 1309.47 L1952.74 1309.47 Z" fill="#000000" fill-rule="evenodd" fill-opacity="1" /><path clip-path="url(#clip480)" d="M1989.3 1328.73 L1989.3 1330.81 L1969.71 1330.81 Q1969.99 1335.21 1972.35 1337.52 Q1974.74 1339.82 1978.97 1339.82 Q1981.43 1339.82 1983.72 1339.21 Q1986.03 1338.61 1988.3 1337.41 L1988.3 1341.44 Q1986.01 1342.41 1983.6 1342.92 Q1981.19 1343.43 1978.72 1343.43 Q1972.51 1343.43 1968.88 1339.82 Q1965.27 1336.2 1965.27 1330.05 Q1965.27 1323.68 1968.69 1319.95 Q1972.14 1316.2 1977.98 1316.2 Q1983.21 1316.2 1986.24 1319.58 Q1989.3 1322.94 1989.3 1328.73 M1985.04 1327.48 Q1984.99 1323.98 1983.07 1321.9 Q1981.17 1319.82 1978.02 1319.82 Q1974.46 1319.82 1972.3 1321.83 Q1970.18 1323.84 1969.85 1327.5 L1985.04 1327.48 Z" fill="#000000" fill-rule="evenodd" fill-opacity="1" /><path clip-path="url(#clip480)" d="M2015.48 1338.87 L2015.48 1352.62 L2011.19 1352.62 L2011.19 1316.83 L2015.48 1316.83 L2015.48 1320.76 Q2016.82 1318.45 2018.86 1317.34 Q2020.92 1316.2 2023.76 1316.2 Q2028.48 1316.2 2031.42 1319.95 Q2034.39 1323.7 2034.39 1329.82 Q2034.39 1335.93 2031.42 1339.68 Q2028.48 1343.43 2023.76 1343.43 Q2020.92 1343.43 2018.86 1342.32 Q2016.82 1341.18 2015.48 1338.87 M2029.97 1329.82 Q2029.97 1325.12 2028.02 1322.45 Q2026.1 1319.77 2022.72 1319.77 Q2019.34 1319.77 2017.4 1322.45 Q2015.48 1325.12 2015.48 1329.82 Q2015.48 1334.51 2017.4 1337.2 Q2019.34 1339.86 2022.72 1339.86 Q2026.1 1339.86 2028.02 1337.2 Q2029.97 1334.51 2029.97 1329.82 Z" fill="#000000" fill-rule="evenodd" fill-opacity="1" /><path clip-path="url(#clip480)" d="M2051.49 1319.82 Q2048.07 1319.82 2046.08 1322.5 Q2044.09 1325.16 2044.09 1329.82 Q2044.09 1334.47 2046.05 1337.15 Q2048.05 1339.82 2051.49 1339.82 Q2054.9 1339.82 2056.89 1337.13 Q2058.88 1334.45 2058.88 1329.82 Q2058.88 1325.21 2056.89 1322.52 Q2054.9 1319.82 2051.49 1319.82 M2051.49 1316.2 Q2057.05 1316.2 2060.22 1319.82 Q2063.39 1323.43 2063.39 1329.82 Q2063.39 1336.18 2060.22 1339.82 Q2057.05 1343.43 2051.49 1343.43 Q2045.92 1343.43 2042.74 1339.82 Q2039.6 1336.18 2039.6 1329.82 Q2039.6 1323.43 2042.74 1319.82 Q2045.92 1316.2 2051.49 1316.2 Z" fill="#000000" fill-rule="evenodd" fill-opacity="1" /><path clip-path="url(#clip480)" d="M2074.57 1338.87 L2074.57 1352.62 L2070.29 1352.62 L2070.29 1316.83 L2074.57 1316.83 L2074.57 1320.76 Q2075.92 1318.45 2077.95 1317.34 Q2080.01 1316.2 2082.86 1316.2 Q2087.58 1316.2 2090.52 1319.95 Q2093.48 1323.7 2093.48 1329.82 Q2093.48 1335.93 2090.52 1339.68 Q2087.58 1343.43 2082.86 1343.43 Q2080.01 1343.43 2077.95 1342.32 Q2075.92 1341.18 2074.57 1338.87 M2089.06 1329.82 Q2089.06 1325.12 2087.12 1322.45 Q2085.2 1319.77 2081.82 1319.77 Q2078.44 1319.77 2076.49 1322.45 Q2074.57 1325.12 2074.57 1329.82 Q2074.57 1334.51 2076.49 1337.2 Q2078.44 1339.86 2081.82 1339.86 Q2085.2 1339.86 2087.12 1337.2 Q2089.06 1334.51 2089.06 1329.82 Z" fill="#000000" fill-rule="evenodd" fill-opacity="1" /><path clip-path="url(#clip480)" d="M2100.1 1332.52 L2100.1 1316.83 L2104.36 1316.83 L2104.36 1332.36 Q2104.36 1336.04 2105.8 1337.89 Q2107.23 1339.72 2110.1 1339.72 Q2113.55 1339.72 2115.54 1337.52 Q2117.56 1335.32 2117.56 1331.53 L2117.56 1316.83 L2121.82 1316.83 L2121.82 1342.76 L2117.56 1342.76 L2117.56 1338.77 Q2116.01 1341.13 2113.95 1342.29 Q2111.91 1343.43 2109.2 1343.43 Q2104.73 1343.43 2102.42 1340.65 Q2100.1 1337.87 2100.1 1332.52 M2110.82 1316.2 L2110.82 1316.2 Z" fill="#000000" fill-rule="evenodd" fill-opacity="1" /><path clip-path="url(#clip480)" d="M2130.59 1306.74 L2134.85 1306.74 L2134.85 1342.76 L2130.59 1342.76 L2130.59 1306.74 Z" fill="#000000" fill-rule="evenodd" fill-opacity="1" /><path clip-path="url(#clip480)" d="M2155.54 1329.72 Q2150.38 1329.72 2148.39 1330.9 Q2146.4 1332.08 2146.4 1334.93 Q2146.4 1337.2 2147.88 1338.54 Q2149.39 1339.86 2151.96 1339.86 Q2155.5 1339.86 2157.63 1337.36 Q2159.78 1334.84 2159.78 1330.67 L2159.78 1329.72 L2155.54 1329.72 M2164.04 1327.96 L2164.04 1342.76 L2159.78 1342.76 L2159.78 1338.82 Q2158.32 1341.18 2156.15 1342.32 Q2153.97 1343.43 2150.82 1343.43 Q2146.84 1343.43 2144.48 1341.2 Q2142.14 1338.96 2142.14 1335.21 Q2142.14 1330.83 2145.06 1328.61 Q2148 1326.39 2153.81 1326.39 L2159.78 1326.39 L2159.78 1325.97 Q2159.78 1323.03 2157.84 1321.44 Q2155.91 1319.82 2152.42 1319.82 Q2150.2 1319.82 2148.09 1320.35 Q2145.98 1320.88 2144.04 1321.95 L2144.04 1318.01 Q2146.38 1317.11 2148.58 1316.67 Q2150.78 1316.2 2152.86 1316.2 Q2158.48 1316.2 2161.26 1319.12 Q2164.04 1322.04 2164.04 1327.96 Z" fill="#000000" fill-rule="evenodd" fill-opacity="1" /><path clip-path="url(#clip480)" d="M2177.03 1309.47 L2177.03 1316.83 L2185.8 1316.83 L2185.8 1320.14 L2177.03 1320.14 L2177.03 1334.21 Q2177.03 1337.38 2177.88 1338.29 Q2178.76 1339.19 2181.42 1339.19 L2185.8 1339.19 L2185.8 1342.76 L2181.42 1342.76 Q2176.49 1342.76 2174.62 1340.93 Q2172.74 1339.07 2172.74 1334.21 L2172.74 1320.14 L2169.62 1320.14 L2169.62 1316.83 L2172.74 1316.83 L2172.74 1309.47 L2177.03 1309.47 Z" fill="#000000" fill-rule="evenodd" fill-opacity="1" /><path clip-path="url(#clip480)" d="M2191.4 1316.83 L2195.66 1316.83 L2195.66 1342.76 L2191.4 1342.76 L2191.4 1316.83 M2191.4 1306.74 L2195.66 1306.74 L2195.66 1312.13 L2191.4 1312.13 L2191.4 1306.74 Z" fill="#000000" fill-rule="evenodd" fill-opacity="1" /><path clip-path="url(#clip480)" d="M2214.62 1319.82 Q2211.19 1319.82 2209.2 1322.5 Q2207.21 1325.16 2207.21 1329.82 Q2207.21 1334.47 2209.18 1337.15 Q2211.17 1339.82 2214.62 1339.82 Q2218.02 1339.82 2220.01 1337.13 Q2222 1334.45 2222 1329.82 Q2222 1325.21 2220.01 1322.52 Q2218.02 1319.82 2214.62 1319.82 M2214.62 1316.2 Q2220.17 1316.2 2223.35 1319.82 Q2226.52 1323.43 2226.52 1329.82 Q2226.52 1336.18 2223.35 1339.82 Q2220.17 1343.43 2214.62 1343.43 Q2209.04 1343.43 2205.87 1339.82 Q2202.72 1336.18 2202.72 1329.82 Q2202.72 1323.43 2205.87 1319.82 Q2209.04 1316.2 2214.62 1316.2 Z" fill="#000000" fill-rule="evenodd" fill-opacity="1" /><path clip-path="url(#clip480)" d="M2255.13 1327.11 L2255.13 1342.76 L2250.87 1342.76 L2250.87 1327.25 Q2250.87 1323.57 2249.43 1321.74 Q2248 1319.91 2245.13 1319.91 Q2241.68 1319.91 2239.69 1322.11 Q2237.7 1324.31 2237.7 1328.1 L2237.7 1342.76 L2233.41 1342.76 L2233.41 1316.83 L2237.7 1316.83 L2237.7 1320.86 Q2239.22 1318.52 2241.28 1317.36 Q2243.37 1316.2 2246.08 1316.2 Q2250.54 1316.2 2252.84 1318.98 Q2255.13 1321.74 2255.13 1327.11 Z" fill="#000000" fill-rule="evenodd" fill-opacity="1" /></svg>
