<?xml version="1.0" encoding="utf-8"?>
<svg xmlns="http://www.w3.org/2000/svg" xmlns:xlink="http://www.w3.org/1999/xlink" width="600" height="400" viewBox="0 0 2400 1600">
<defs>
  <clipPath id="clip530">
    <rect x="0" y="0" width="2400" height="1600"/>
  </clipPath>
</defs>
<path clip-path="url(#clip530)" d="
M0 1600 L2400 1600 L2400 0 L0 0  Z
  " fill="#ffffff" fill-rule="evenodd" fill-opacity="1"/>
<defs>
  <clipPath id="clip531">
    <rect x="480" y="0" width="1681" height="1600"/>
  </clipPath>
</defs>
<path clip-path="url(#clip530)" d="
M156.112 1423.18 L2352.76 1423.18 L2352.76 47.2441 L156.112 47.2441  Z
  " fill="#ffffff" fill-rule="evenodd" fill-opacity="1"/>
<defs>
  <clipPath id="clip532">
    <rect x="156" y="47" width="2198" height="1377"/>
  </clipPath>
</defs>
<polyline clip-path="url(#clip532)" style="stroke:#000000; stroke-linecap:butt; stroke-linejoin:round; stroke-width:2; stroke-opacity:0.1; fill:none" points="
  218.281,1423.18 218.281,47.2441 
  "/>
<polyline clip-path="url(#clip532)" style="stroke:#000000; stroke-linecap:butt; stroke-linejoin:round; stroke-width:2; stroke-opacity:0.1; fill:none" points="
  736.358,1423.18 736.358,47.2441 
  "/>
<polyline clip-path="url(#clip532)" style="stroke:#000000; stroke-linecap:butt; stroke-linejoin:round; stroke-width:2; stroke-opacity:0.1; fill:none" points="
  1254.43,1423.18 1254.43,47.2441 
  "/>
<polyline clip-path="url(#clip532)" style="stroke:#000000; stroke-linecap:butt; stroke-linejoin:round; stroke-width:2; stroke-opacity:0.1; fill:none" points="
  1772.51,1423.18 1772.51,47.2441 
  "/>
<polyline clip-path="url(#clip532)" style="stroke:#000000; stroke-linecap:butt; stroke-linejoin:round; stroke-width:2; stroke-opacity:0.1; fill:none" points="
  2290.59,1423.18 2290.59,47.2441 
  "/>
<polyline clip-path="url(#clip530)" style="stroke:#000000; stroke-linecap:butt; stroke-linejoin:round; stroke-width:4; stroke-opacity:1; fill:none" points="
  156.112,1423.18 2352.76,1423.18 
  "/>
<polyline clip-path="url(#clip530)" style="stroke:#000000; stroke-linecap:butt; stroke-linejoin:round; stroke-width:4; stroke-opacity:1; fill:none" points="
  218.281,1423.18 218.281,1406.67 
  "/>
<polyline clip-path="url(#clip530)" style="stroke:#000000; stroke-linecap:butt; stroke-linejoin:round; stroke-width:4; stroke-opacity:1; fill:none" points="
  736.358,1423.18 736.358,1406.67 
  "/>
<polyline clip-path="url(#clip530)" style="stroke:#000000; stroke-linecap:butt; stroke-linejoin:round; stroke-width:4; stroke-opacity:1; fill:none" points="
  1254.43,1423.18 1254.43,1406.67 
  "/>
<polyline clip-path="url(#clip530)" style="stroke:#000000; stroke-linecap:butt; stroke-linejoin:round; stroke-width:4; stroke-opacity:1; fill:none" points="
  1772.51,1423.18 1772.51,1406.67 
  "/>
<polyline clip-path="url(#clip530)" style="stroke:#000000; stroke-linecap:butt; stroke-linejoin:round; stroke-width:4; stroke-opacity:1; fill:none" points="
  2290.59,1423.18 2290.59,1406.67 
  "/>
<path clip-path="url(#clip530)" d="M195.666 1452.37 Q192.055 1452.37 190.226 1455.94 Q188.42 1459.48 188.42 1466.61 Q188.42 1473.71 190.226 1477.28 Q192.055 1480.82 195.666 1480.82 Q199.3 1480.82 201.105 1477.28 Q202.934 1473.71 202.934 1466.61 Q202.934 1459.48 201.105 1455.94 Q199.3 1452.37 195.666 1452.37 M195.666 1448.67 Q201.476 1448.67 204.531 1453.27 Q207.61 1457.86 207.61 1466.61 Q207.61 1475.33 204.531 1479.94 Q201.476 1484.52 195.666 1484.52 Q189.856 1484.52 186.777 1479.94 Q183.721 1475.33 183.721 1466.61 Q183.721 1457.86 186.777 1453.27 Q189.856 1448.67 195.666 1448.67 Z" fill="#000000" fill-rule="evenodd" fill-opacity="1" /><path clip-path="url(#clip530)" d="M215.828 1477.97 L220.712 1477.97 L220.712 1483.85 L215.828 1483.85 L215.828 1477.97 Z" fill="#000000" fill-rule="evenodd" fill-opacity="1" /><path clip-path="url(#clip530)" d="M240.897 1452.37 Q237.286 1452.37 235.457 1455.94 Q233.652 1459.48 233.652 1466.61 Q233.652 1473.71 235.457 1477.28 Q237.286 1480.82 240.897 1480.82 Q244.531 1480.82 246.337 1477.28 Q248.165 1473.71 248.165 1466.61 Q248.165 1459.48 246.337 1455.94 Q244.531 1452.37 240.897 1452.37 M240.897 1448.67 Q246.707 1448.67 249.763 1453.27 Q252.841 1457.86 252.841 1466.61 Q252.841 1475.33 249.763 1479.94 Q246.707 1484.52 240.897 1484.52 Q235.087 1484.52 232.008 1479.94 Q228.953 1475.33 228.953 1466.61 Q228.953 1457.86 232.008 1453.27 Q235.087 1448.67 240.897 1448.67 Z" fill="#000000" fill-rule="evenodd" fill-opacity="1" /><path clip-path="url(#clip530)" d="M708.094 1479.92 L724.413 1479.92 L724.413 1483.85 L702.469 1483.85 L702.469 1479.92 Q705.131 1477.16 709.714 1472.53 Q714.321 1467.88 715.501 1466.54 Q717.747 1464.01 718.626 1462.28 Q719.529 1460.52 719.529 1458.83 Q719.529 1456.07 717.585 1454.34 Q715.663 1452.6 712.561 1452.6 Q710.362 1452.6 707.909 1453.37 Q705.478 1454.13 702.7 1455.68 L702.7 1450.96 Q705.524 1449.82 707.978 1449.25 Q710.432 1448.67 712.469 1448.67 Q717.839 1448.67 721.034 1451.35 Q724.228 1454.04 724.228 1458.53 Q724.228 1460.66 723.418 1462.58 Q722.631 1464.48 720.524 1467.07 Q719.946 1467.74 716.844 1470.96 Q713.742 1474.15 708.094 1479.92 Z" fill="#000000" fill-rule="evenodd" fill-opacity="1" /><path clip-path="url(#clip530)" d="M734.228 1477.97 L739.112 1477.97 L739.112 1483.85 L734.228 1483.85 L734.228 1477.97 Z" fill="#000000" fill-rule="evenodd" fill-opacity="1" /><path clip-path="url(#clip530)" d="M749.344 1449.29 L767.7 1449.29 L767.7 1453.23 L753.626 1453.23 L753.626 1461.7 Q754.645 1461.35 755.663 1461.19 Q756.682 1461 757.7 1461 Q763.487 1461 766.867 1464.18 Q770.246 1467.35 770.246 1472.76 Q770.246 1478.34 766.774 1481.44 Q763.302 1484.52 756.983 1484.52 Q754.807 1484.52 752.538 1484.15 Q750.293 1483.78 747.885 1483.04 L747.885 1478.34 Q749.969 1479.48 752.191 1480.03 Q754.413 1480.59 756.89 1480.59 Q760.895 1480.59 763.233 1478.48 Q765.57 1476.38 765.57 1472.76 Q765.57 1469.15 763.233 1467.05 Q760.895 1464.94 756.89 1464.94 Q755.015 1464.94 753.14 1465.36 Q751.288 1465.77 749.344 1466.65 L749.344 1449.29 Z" fill="#000000" fill-rule="evenodd" fill-opacity="1" /><path clip-path="url(#clip530)" d="M1221.6 1449.29 L1239.95 1449.29 L1239.95 1453.23 L1225.88 1453.23 L1225.88 1461.7 Q1226.9 1461.35 1227.92 1461.19 Q1228.94 1461 1229.95 1461 Q1235.74 1461 1239.12 1464.18 Q1242.5 1467.35 1242.5 1472.76 Q1242.5 1478.34 1239.03 1481.44 Q1235.56 1484.52 1229.24 1484.52 Q1227.06 1484.52 1224.79 1484.15 Q1222.55 1483.78 1220.14 1483.04 L1220.14 1478.34 Q1222.22 1479.48 1224.45 1480.03 Q1226.67 1480.59 1229.14 1480.59 Q1233.15 1480.59 1235.49 1478.48 Q1237.83 1476.38 1237.83 1472.76 Q1237.83 1469.15 1235.49 1467.05 Q1233.15 1464.94 1229.14 1464.94 Q1227.27 1464.94 1225.39 1465.36 Q1223.54 1465.77 1221.6 1466.65 L1221.6 1449.29 Z" fill="#000000" fill-rule="evenodd" fill-opacity="1" /><path clip-path="url(#clip530)" d="M1251.71 1477.97 L1256.6 1477.97 L1256.6 1483.85 L1251.71 1483.85 L1251.71 1477.97 Z" fill="#000000" fill-rule="evenodd" fill-opacity="1" /><path clip-path="url(#clip530)" d="M1276.78 1452.37 Q1273.17 1452.37 1271.34 1455.94 Q1269.54 1459.48 1269.54 1466.61 Q1269.54 1473.71 1271.34 1477.28 Q1273.17 1480.82 1276.78 1480.82 Q1280.42 1480.82 1282.22 1477.28 Q1284.05 1473.71 1284.05 1466.61 Q1284.05 1459.48 1282.22 1455.94 Q1280.42 1452.37 1276.78 1452.37 M1276.78 1448.67 Q1282.59 1448.67 1285.65 1453.27 Q1288.73 1457.86 1288.73 1466.61 Q1288.73 1475.33 1285.65 1479.94 Q1282.59 1484.52 1276.78 1484.52 Q1270.97 1484.52 1267.89 1479.94 Q1264.84 1475.33 1264.84 1466.61 Q1264.84 1457.86 1267.89 1453.27 Q1270.97 1448.67 1276.78 1448.67 Z" fill="#000000" fill-rule="evenodd" fill-opacity="1" /><path clip-path="url(#clip530)" d="M1738.83 1449.29 L1761.05 1449.29 L1761.05 1451.28 L1748.51 1483.85 L1743.62 1483.85 L1755.43 1453.23 L1738.83 1453.23 L1738.83 1449.29 Z" fill="#000000" fill-rule="evenodd" fill-opacity="1" /><path clip-path="url(#clip530)" d="M1770.17 1477.97 L1775.06 1477.97 L1775.06 1483.85 L1770.17 1483.85 L1770.17 1477.97 Z" fill="#000000" fill-rule="evenodd" fill-opacity="1" /><path clip-path="url(#clip530)" d="M1785.29 1449.29 L1803.64 1449.29 L1803.64 1453.23 L1789.57 1453.23 L1789.57 1461.7 Q1790.59 1461.35 1791.61 1461.19 Q1792.63 1461 1793.64 1461 Q1799.43 1461 1802.81 1464.18 Q1806.19 1467.35 1806.19 1472.76 Q1806.19 1478.34 1802.72 1481.44 Q1799.25 1484.52 1792.93 1484.52 Q1790.75 1484.52 1788.48 1484.15 Q1786.24 1483.78 1783.83 1483.04 L1783.83 1478.34 Q1785.91 1479.48 1788.14 1480.03 Q1790.36 1480.59 1792.83 1480.59 Q1796.84 1480.59 1799.18 1478.48 Q1801.51 1476.38 1801.51 1472.76 Q1801.51 1469.15 1799.18 1467.05 Q1796.84 1464.94 1792.83 1464.94 Q1790.96 1464.94 1789.08 1465.36 Q1787.23 1465.77 1785.29 1466.65 L1785.29 1449.29 Z" fill="#000000" fill-rule="evenodd" fill-opacity="1" /><path clip-path="url(#clip530)" d="M2242.66 1479.92 L2250.3 1479.92 L2250.3 1453.55 L2241.99 1455.22 L2241.99 1450.96 L2250.25 1449.29 L2254.93 1449.29 L2254.93 1479.92 L2262.57 1479.92 L2262.57 1483.85 L2242.66 1483.85 L2242.66 1479.92 Z" fill="#000000" fill-rule="evenodd" fill-opacity="1" /><path clip-path="url(#clip530)" d="M2282.01 1452.37 Q2278.4 1452.37 2276.57 1455.94 Q2274.77 1459.48 2274.77 1466.61 Q2274.77 1473.71 2276.57 1477.28 Q2278.4 1480.82 2282.01 1480.82 Q2285.64 1480.82 2287.45 1477.28 Q2289.28 1473.71 2289.28 1466.61 Q2289.28 1459.48 2287.45 1455.94 Q2285.64 1452.37 2282.01 1452.37 M2282.01 1448.67 Q2287.82 1448.67 2290.88 1453.27 Q2293.95 1457.86 2293.95 1466.61 Q2293.95 1475.33 2290.88 1479.94 Q2287.82 1484.52 2282.01 1484.52 Q2276.2 1484.52 2273.12 1479.94 Q2270.07 1475.33 2270.07 1466.61 Q2270.07 1457.86 2273.12 1453.27 Q2276.2 1448.67 2282.01 1448.67 Z" fill="#000000" fill-rule="evenodd" fill-opacity="1" /><path clip-path="url(#clip530)" d="M2302.17 1477.97 L2307.06 1477.97 L2307.06 1483.85 L2302.17 1483.85 L2302.17 1477.97 Z" fill="#000000" fill-rule="evenodd" fill-opacity="1" /><path clip-path="url(#clip530)" d="M2327.24 1452.37 Q2323.63 1452.37 2321.8 1455.94 Q2320 1459.48 2320 1466.61 Q2320 1473.71 2321.8 1477.28 Q2323.63 1480.82 2327.24 1480.82 Q2330.88 1480.82 2332.68 1477.28 Q2334.51 1473.71 2334.51 1466.61 Q2334.51 1459.48 2332.68 1455.94 Q2330.88 1452.37 2327.24 1452.37 M2327.24 1448.67 Q2333.05 1448.67 2336.11 1453.27 Q2339.19 1457.86 2339.19 1466.61 Q2339.19 1475.33 2336.11 1479.94 Q2333.05 1484.52 2327.24 1484.52 Q2321.43 1484.52 2318.35 1479.94 Q2315.3 1475.33 2315.3 1466.61 Q2315.3 1457.86 2318.35 1453.27 Q2321.43 1448.67 2327.24 1448.67 Z" fill="#000000" fill-rule="evenodd" fill-opacity="1" /><path clip-path="url(#clip530)" d="M1253.5 1522.27 L1253.5 1532.4 L1265.56 1532.4 L1265.56 1536.95 L1253.5 1536.95 L1253.5 1556.3 Q1253.5 1560.66 1254.67 1561.9 Q1255.88 1563.14 1259.54 1563.14 L1265.56 1563.14 L1265.56 1568.04 L1259.54 1568.04 Q1252.76 1568.04 1250.18 1565.53 Q1247.61 1562.98 1247.61 1556.3 L1247.61 1536.95 L1243.31 1536.95 L1243.31 1532.4 L1247.61 1532.4 L1247.61 1522.27 L1253.5 1522.27 Z" fill="#000000" fill-rule="evenodd" fill-opacity="1" /><polyline clip-path="url(#clip532)" style="stroke:#000000; stroke-linecap:butt; stroke-linejoin:round; stroke-width:2; stroke-opacity:0.1; fill:none" points="
  156.112,1384.24 2352.76,1384.24 
  "/>
<polyline clip-path="url(#clip532)" style="stroke:#000000; stroke-linecap:butt; stroke-linejoin:round; stroke-width:2; stroke-opacity:0.1; fill:none" points="
  156.112,946.642 2352.76,946.642 
  "/>
<polyline clip-path="url(#clip532)" style="stroke:#000000; stroke-linecap:butt; stroke-linejoin:round; stroke-width:2; stroke-opacity:0.1; fill:none" points="
  156.112,509.045 2352.76,509.045 
  "/>
<polyline clip-path="url(#clip532)" style="stroke:#000000; stroke-linecap:butt; stroke-linejoin:round; stroke-width:2; stroke-opacity:0.1; fill:none" points="
  156.112,71.4483 2352.76,71.4483 
  "/>
<polyline clip-path="url(#clip530)" style="stroke:#000000; stroke-linecap:butt; stroke-linejoin:round; stroke-width:4; stroke-opacity:1; fill:none" points="
  156.112,1423.18 156.112,47.2441 
  "/>
<polyline clip-path="url(#clip530)" style="stroke:#000000; stroke-linecap:butt; stroke-linejoin:round; stroke-width:4; stroke-opacity:1; fill:none" points="
  156.112,1384.24 182.472,1384.24 
  "/>
<polyline clip-path="url(#clip530)" style="stroke:#000000; stroke-linecap:butt; stroke-linejoin:round; stroke-width:4; stroke-opacity:1; fill:none" points="
  156.112,946.642 182.472,946.642 
  "/>
<polyline clip-path="url(#clip530)" style="stroke:#000000; stroke-linecap:butt; stroke-linejoin:round; stroke-width:4; stroke-opacity:1; fill:none" points="
  156.112,509.045 182.472,509.045 
  "/>
<polyline clip-path="url(#clip530)" style="stroke:#000000; stroke-linecap:butt; stroke-linejoin:round; stroke-width:4; stroke-opacity:1; fill:none" points="
  156.112,71.4483 182.472,71.4483 
  "/>
<path clip-path="url(#clip530)" d="M62.9365 1370.04 Q59.3254 1370.04 57.4967 1373.6 Q55.6912 1377.14 55.6912 1384.27 Q55.6912 1391.38 57.4967 1394.94 Q59.3254 1398.49 62.9365 1398.49 Q66.5707 1398.49 68.3763 1394.94 Q70.205 1391.38 70.205 1384.27 Q70.205 1377.14 68.3763 1373.6 Q66.5707 1370.04 62.9365 1370.04 M62.9365 1366.33 Q68.7467 1366.33 71.8022 1370.94 Q74.8809 1375.52 74.8809 1384.27 Q74.8809 1393 71.8022 1397.61 Q68.7467 1402.19 62.9365 1402.19 Q57.1264 1402.19 54.0477 1397.61 Q50.9921 1393 50.9921 1384.27 Q50.9921 1375.52 54.0477 1370.94 Q57.1264 1366.33 62.9365 1366.33 Z" fill="#000000" fill-rule="evenodd" fill-opacity="1" /><path clip-path="url(#clip530)" d="M83.0984 1395.64 L87.9827 1395.64 L87.9827 1401.52 L83.0984 1401.52 L83.0984 1395.64 Z" fill="#000000" fill-rule="evenodd" fill-opacity="1" /><path clip-path="url(#clip530)" d="M108.168 1370.04 Q104.557 1370.04 102.728 1373.6 Q100.922 1377.14 100.922 1384.27 Q100.922 1391.38 102.728 1394.94 Q104.557 1398.49 108.168 1398.49 Q111.802 1398.49 113.608 1394.94 Q115.436 1391.38 115.436 1384.27 Q115.436 1377.14 113.608 1373.6 Q111.802 1370.04 108.168 1370.04 M108.168 1366.33 Q113.978 1366.33 117.033 1370.94 Q120.112 1375.52 120.112 1384.27 Q120.112 1393 117.033 1397.61 Q113.978 1402.19 108.168 1402.19 Q102.358 1402.19 99.2789 1397.61 Q96.2234 1393 96.2234 1384.27 Q96.2234 1375.52 99.2789 1370.94 Q102.358 1366.33 108.168 1366.33 Z" fill="#000000" fill-rule="evenodd" fill-opacity="1" /><path clip-path="url(#clip530)" d="M63.9319 932.44 Q60.3208 932.44 58.4921 936.005 Q56.6865 939.547 56.6865 946.676 Q56.6865 953.783 58.4921 957.348 Q60.3208 960.889 63.9319 960.889 Q67.5661 960.889 69.3717 957.348 Q71.2004 953.783 71.2004 946.676 Q71.2004 939.547 69.3717 936.005 Q67.5661 932.44 63.9319 932.44 M63.9319 928.737 Q69.742 928.737 72.7976 933.343 Q75.8763 937.926 75.8763 946.676 Q75.8763 955.403 72.7976 960.01 Q69.742 964.593 63.9319 964.593 Q58.1217 964.593 55.043 960.01 Q51.9875 955.403 51.9875 946.676 Q51.9875 937.926 55.043 933.343 Q58.1217 928.737 63.9319 928.737 Z" fill="#000000" fill-rule="evenodd" fill-opacity="1" /><path clip-path="url(#clip530)" d="M84.0938 958.042 L88.978 958.042 L88.978 963.922 L84.0938 963.922 L84.0938 958.042 Z" fill="#000000" fill-rule="evenodd" fill-opacity="1" /><path clip-path="url(#clip530)" d="M99.2095 929.362 L117.566 929.362 L117.566 933.297 L103.492 933.297 L103.492 941.769 Q104.51 941.422 105.529 941.26 Q106.547 941.075 107.566 941.075 Q113.353 941.075 116.733 944.246 Q120.112 947.417 120.112 952.834 Q120.112 958.412 116.64 961.514 Q113.168 964.593 106.848 964.593 Q104.672 964.593 102.404 964.223 Q100.159 963.852 97.7511 963.111 L97.7511 958.412 Q99.8345 959.547 102.057 960.102 Q104.279 960.658 106.756 960.658 Q110.76 960.658 113.098 958.551 Q115.436 956.445 115.436 952.834 Q115.436 949.223 113.098 947.116 Q110.76 945.01 106.756 945.01 Q104.881 945.01 103.006 945.426 Q101.154 945.843 99.2095 946.723 L99.2095 929.362 Z" fill="#000000" fill-rule="evenodd" fill-opacity="1" /><path clip-path="url(#clip530)" d="M53.7467 522.39 L61.3856 522.39 L61.3856 496.024 L53.0754 497.691 L53.0754 493.432 L61.3393 491.765 L66.0152 491.765 L66.0152 522.39 L73.654 522.39 L73.654 526.325 L53.7467 526.325 L53.7467 522.39 Z" fill="#000000" fill-rule="evenodd" fill-opacity="1" /><path clip-path="url(#clip530)" d="M83.0984 520.445 L87.9827 520.445 L87.9827 526.325 L83.0984 526.325 L83.0984 520.445 Z" fill="#000000" fill-rule="evenodd" fill-opacity="1" /><path clip-path="url(#clip530)" d="M108.168 494.844 Q104.557 494.844 102.728 498.408 Q100.922 501.95 100.922 509.08 Q100.922 516.186 102.728 519.751 Q104.557 523.293 108.168 523.293 Q111.802 523.293 113.608 519.751 Q115.436 516.186 115.436 509.08 Q115.436 501.95 113.608 498.408 Q111.802 494.844 108.168 494.844 M108.168 491.14 Q113.978 491.14 117.033 495.746 Q120.112 500.33 120.112 509.08 Q120.112 517.806 117.033 522.413 Q113.978 526.996 108.168 526.996 Q102.358 526.996 99.2789 522.413 Q96.2234 517.806 96.2234 509.08 Q96.2234 500.33 99.2789 495.746 Q102.358 491.14 108.168 491.14 Z" fill="#000000" fill-rule="evenodd" fill-opacity="1" /><path clip-path="url(#clip530)" d="M54.7421 84.7931 L62.381 84.7931 L62.381 58.4275 L54.0708 60.0942 L54.0708 55.835 L62.3347 54.1683 L67.0106 54.1683 L67.0106 84.7931 L74.6494 84.7931 L74.6494 88.7283 L54.7421 88.7283 L54.7421 84.7931 Z" fill="#000000" fill-rule="evenodd" fill-opacity="1" /><path clip-path="url(#clip530)" d="M84.0938 82.8487 L88.978 82.8487 L88.978 88.7283 L84.0938 88.7283 L84.0938 82.8487 Z" fill="#000000" fill-rule="evenodd" fill-opacity="1" /><path clip-path="url(#clip530)" d="M99.2095 54.1683 L117.566 54.1683 L117.566 58.1035 L103.492 58.1035 L103.492 66.5756 Q104.51 66.2284 105.529 66.0664 Q106.547 65.8812 107.566 65.8812 Q113.353 65.8812 116.733 69.0525 Q120.112 72.2238 120.112 77.6404 Q120.112 83.2191 116.64 86.3209 Q113.168 89.3996 106.848 89.3996 Q104.672 89.3996 102.404 89.0292 Q100.159 88.6589 97.7511 87.9181 L97.7511 83.2191 Q99.8345 84.3533 102.057 84.9089 Q104.279 85.4644 106.756 85.4644 Q110.76 85.4644 113.098 83.358 Q115.436 81.2515 115.436 77.6404 Q115.436 74.0293 113.098 71.9228 Q110.76 69.8164 106.756 69.8164 Q104.881 69.8164 103.006 70.233 Q101.154 70.6497 99.2095 71.5293 L99.2095 54.1683 Z" fill="#000000" fill-rule="evenodd" fill-opacity="1" /><polyline clip-path="url(#clip532)" style="stroke:#009af9; stroke-linecap:butt; stroke-linejoin:round; stroke-width:4; stroke-opacity:1; fill:none" points="
  218.281,1384.24 218.302,1384.24 218.509,1384.24 219.238,1384.24 220.307,1384.24 221.675,1384.23 223.419,1384.2 225.517,1384.13 227.991,1383.99 230.846,1383.72 
  234.127,1383.23 237.885,1382.39 242.197,1381.03 247.152,1378.85 252.854,1375.46 259.422,1370.34 266.998,1362.73 275.739,1351.67 285.83,1335.95 297.466,1314.09 
  310.847,1284.51 326.14,1245.71 343.454,1196.63 362.838,1137.02 384.325,1067.55 407.924,989.919 433.688,906.517 461.742,820.125 492.319,733.469 525.719,649.016 
  562.231,568.86 602.113,494.444 645.973,426.016 695.363,362.63 753.06,303.215 827.483,244.74 893.743,205.927 980.914,168.862 1071.66,142.351 1195.66,119.232 
  1301.29,107.154 1425.87,98.4221 1539.02,93.5907 1643.74,90.8134 1748.41,89.0655 1857.31,87.8178 1955.68,87.1743 2053.75,86.7436 2158.36,86.3759 2259.99,86.2265 
  2290.59,86.1857 
  "/>
<polyline clip-path="url(#clip532)" style="stroke:#e26f46; stroke-linecap:butt; stroke-linejoin:round; stroke-width:4; stroke-opacity:1; fill:none" points="
  218.281,1384.24 218.302,1383.89 218.509,1380.4 219.238,1368.23 220.307,1350.73 221.675,1328.87 223.419,1301.9 225.517,1270.75 227.991,1235.75 230.846,1197.61 
  234.127,1156.65 237.885,1113.26 242.197,1067.84 247.152,1021 252.854,973.563 259.422,926.652 266.998,881.638 275.739,840.133 285.83,803.899 297.466,774.702 
  310.847,754.075 326.14,742.977 343.454,741.423 362.838,748.288 384.325,761.47 407.924,778.303 433.688,796.103 461.742,812.629 492.319,826.395 525.719,836.775 
  562.231,843.956 602.113,848.725 645.973,852.093 695.363,854.867 753.06,857.446 827.483,859.979 893.743,861.57 980.914,863.01 1071.66,863.995 1195.66,864.851 
  1301.29,865.277 1425.87,865.571 1539.02,865.79 1643.74,865.838 1748.41,865.902 1857.31,866.006 1955.68,865.952 2053.75,865.995 2158.36,866.043 2259.99,865.983 
  2290.59,865.997 
  "/>
<path clip-path="url(#clip530)" d="
M1467.39 274.549 L2279.53 274.549 L2279.53 93.1086 L1467.39 93.1086  Z
  " fill="#ffffff" fill-rule="evenodd" fill-opacity="1"/>
<polyline clip-path="url(#clip530)" style="stroke:#000000; stroke-linecap:butt; stroke-linejoin:round; stroke-width:4; stroke-opacity:1; fill:none" points="
  1467.39,274.549 2279.53,274.549 2279.53,93.1086 1467.39,93.1086 1467.39,274.549 
  "/>
<polyline clip-path="url(#clip530)" style="stroke:#009af9; stroke-linecap:butt; stroke-linejoin:round; stroke-width:4; stroke-opacity:1; fill:none" points="
  1491.79,153.589 1638.24,153.589 
  "/>
<path clip-path="url(#clip530)" d="M1667.32 140.151 L1667.32 153.137 L1673.2 153.137 Q1676.46 153.137 1678.25 151.447 Q1680.03 149.758 1680.03 146.633 Q1680.03 143.531 1678.25 141.841 Q1676.46 140.151 1673.2 140.151 L1667.32 140.151 M1662.64 136.309 L1673.2 136.309 Q1679.01 136.309 1681.97 138.947 Q1684.96 141.563 1684.96 146.633 Q1684.96 151.748 1681.97 154.364 Q1679.01 156.98 1673.2 156.98 L1667.32 156.98 L1667.32 170.869 L1662.64 170.869 L1662.64 136.309 Z" fill="#000000" fill-rule="evenodd" fill-opacity="1" /><path clip-path="url(#clip530)" d="M1712.6 155.221 L1712.6 170.869 L1708.34 170.869 L1708.34 155.359 Q1708.34 151.679 1706.9 149.85 Q1705.47 148.022 1702.6 148.022 Q1699.15 148.022 1697.16 150.221 Q1695.17 152.42 1695.17 156.216 L1695.17 170.869 L1690.89 170.869 L1690.89 134.85 L1695.17 134.85 L1695.17 148.971 Q1696.7 146.633 1698.76 145.475 Q1700.84 144.318 1703.55 144.318 Q1708.01 144.318 1710.31 147.096 Q1712.6 149.85 1712.6 155.221 Z" fill="#000000" fill-rule="evenodd" fill-opacity="1" /><path clip-path="url(#clip530)" d="M1731.14 147.929 Q1727.71 147.929 1725.72 150.614 Q1723.73 153.276 1723.73 157.929 Q1723.73 162.582 1725.7 165.267 Q1727.69 167.929 1731.14 167.929 Q1734.54 167.929 1736.53 165.244 Q1738.52 162.558 1738.52 157.929 Q1738.52 153.322 1736.53 150.637 Q1734.54 147.929 1731.14 147.929 M1731.14 144.318 Q1736.7 144.318 1739.87 147.929 Q1743.04 151.54 1743.04 157.929 Q1743.04 164.295 1739.87 167.929 Q1736.7 171.54 1731.14 171.54 Q1725.56 171.54 1722.39 167.929 Q1719.24 164.295 1719.24 157.929 Q1719.24 151.54 1722.39 147.929 Q1725.56 144.318 1731.14 144.318 Z" fill="#000000" fill-rule="evenodd" fill-opacity="1" /><path clip-path="url(#clip530)" d="M1754.31 137.582 L1754.31 144.943 L1763.08 144.943 L1763.08 148.253 L1754.31 148.253 L1754.31 162.327 Q1754.31 165.498 1755.17 166.401 Q1756.05 167.304 1758.71 167.304 L1763.08 167.304 L1763.08 170.869 L1758.71 170.869 Q1753.78 170.869 1751.9 169.04 Q1750.03 167.188 1750.03 162.327 L1750.03 148.253 L1746.9 148.253 L1746.9 144.943 L1750.03 144.943 L1750.03 137.582 L1754.31 137.582 Z" fill="#000000" fill-rule="evenodd" fill-opacity="1" /><path clip-path="url(#clip530)" d="M1778.73 147.929 Q1775.31 147.929 1773.32 150.614 Q1771.32 153.276 1771.32 157.929 Q1771.32 162.582 1773.29 165.267 Q1775.28 167.929 1778.73 167.929 Q1782.13 167.929 1784.13 165.244 Q1786.12 162.558 1786.12 157.929 Q1786.12 153.322 1784.13 150.637 Q1782.13 147.929 1778.73 147.929 M1778.73 144.318 Q1784.29 144.318 1787.46 147.929 Q1790.63 151.54 1790.63 157.929 Q1790.63 164.295 1787.46 167.929 Q1784.29 171.54 1778.73 171.54 Q1773.15 171.54 1769.98 167.929 Q1766.83 164.295 1766.83 157.929 Q1766.83 151.54 1769.98 147.929 Q1773.15 144.318 1778.73 144.318 Z" fill="#000000" fill-rule="evenodd" fill-opacity="1" /><path clip-path="url(#clip530)" d="M1819.24 155.221 L1819.24 170.869 L1814.98 170.869 L1814.98 155.359 Q1814.98 151.679 1813.55 149.85 Q1812.11 148.022 1809.24 148.022 Q1805.79 148.022 1803.8 150.221 Q1801.81 152.42 1801.81 156.216 L1801.81 170.869 L1797.53 170.869 L1797.53 144.943 L1801.81 144.943 L1801.81 148.971 Q1803.34 146.633 1805.4 145.475 Q1807.48 144.318 1810.19 144.318 Q1814.66 144.318 1816.95 147.096 Q1819.24 149.85 1819.24 155.221 Z" fill="#000000" fill-rule="evenodd" fill-opacity="1" /><path clip-path="url(#clip530)" d="M1864.36 155.221 L1864.36 170.869 L1860.1 170.869 L1860.1 155.359 Q1860.1 151.679 1858.66 149.85 Q1857.23 148.022 1854.36 148.022 Q1850.91 148.022 1848.92 150.221 Q1846.93 152.42 1846.93 156.216 L1846.93 170.869 L1842.64 170.869 L1842.64 144.943 L1846.93 144.943 L1846.93 148.971 Q1848.45 146.633 1850.51 145.475 Q1852.6 144.318 1855.31 144.318 Q1859.77 144.318 1862.06 147.096 Q1864.36 149.85 1864.36 155.221 Z" fill="#000000" fill-rule="evenodd" fill-opacity="1" /><path clip-path="url(#clip530)" d="M1872.41 160.637 L1872.41 144.943 L1876.67 144.943 L1876.67 160.475 Q1876.67 164.156 1878.11 166.008 Q1879.54 167.836 1882.41 167.836 Q1885.86 167.836 1887.85 165.637 Q1889.87 163.438 1889.87 159.642 L1889.87 144.943 L1894.12 144.943 L1894.12 170.869 L1889.87 170.869 L1889.87 166.887 Q1888.31 169.248 1886.25 170.406 Q1884.22 171.54 1881.51 171.54 Q1877.04 171.54 1874.73 168.762 Q1872.41 165.984 1872.41 160.637 M1883.13 144.318 L1883.13 144.318 Z" fill="#000000" fill-rule="evenodd" fill-opacity="1" /><path clip-path="url(#clip530)" d="M1923.08 149.92 Q1924.68 147.049 1926.9 145.684 Q1929.12 144.318 1932.13 144.318 Q1936.18 144.318 1938.38 147.165 Q1940.58 149.989 1940.58 155.221 L1940.58 170.869 L1936.3 170.869 L1936.3 155.359 Q1936.3 151.633 1934.98 149.827 Q1933.66 148.022 1930.95 148.022 Q1927.64 148.022 1925.72 150.221 Q1923.8 152.42 1923.8 156.216 L1923.8 170.869 L1919.52 170.869 L1919.52 155.359 Q1919.52 151.609 1918.2 149.827 Q1916.88 148.022 1914.12 148.022 Q1910.86 148.022 1908.94 150.244 Q1907.02 152.443 1907.02 156.216 L1907.02 170.869 L1902.74 170.869 L1902.74 144.943 L1907.02 144.943 L1907.02 148.971 Q1908.48 146.586 1910.51 145.452 Q1912.55 144.318 1915.35 144.318 Q1918.18 144.318 1920.14 145.753 Q1922.13 147.188 1923.08 149.92 Z" fill="#000000" fill-rule="evenodd" fill-opacity="1" /><path clip-path="url(#clip530)" d="M1967.69 157.929 Q1967.69 153.23 1965.74 150.568 Q1963.82 147.883 1960.44 147.883 Q1957.06 147.883 1955.12 150.568 Q1953.2 153.23 1953.2 157.929 Q1953.2 162.628 1955.12 165.313 Q1957.06 167.975 1960.44 167.975 Q1963.82 167.975 1965.74 165.313 Q1967.69 162.628 1967.69 157.929 M1953.2 148.878 Q1954.54 146.563 1956.58 145.452 Q1958.64 144.318 1961.49 144.318 Q1966.21 144.318 1969.15 148.068 Q1972.11 151.818 1972.11 157.929 Q1972.11 164.04 1969.15 167.79 Q1966.21 171.54 1961.49 171.54 Q1958.64 171.54 1956.58 170.429 Q1954.54 169.295 1953.2 166.98 L1953.2 170.869 L1948.92 170.869 L1948.92 134.85 L1953.2 134.85 L1953.2 148.878 Z" fill="#000000" fill-rule="evenodd" fill-opacity="1" /><path clip-path="url(#clip530)" d="M2001.35 156.841 L2001.35 158.924 L1981.76 158.924 Q1982.04 163.322 1984.4 165.637 Q1986.79 167.929 1991.02 167.929 Q1993.48 167.929 1995.77 167.327 Q1998.08 166.725 2000.35 165.521 L2000.35 169.549 Q1998.06 170.521 1995.65 171.031 Q1993.24 171.54 1990.77 171.54 Q1984.56 171.54 1980.93 167.929 Q1977.32 164.318 1977.32 158.16 Q1977.32 151.795 1980.74 148.068 Q1984.19 144.318 1990.03 144.318 Q1995.26 144.318 1998.29 147.697 Q2001.35 151.054 2001.35 156.841 M1997.09 155.591 Q1997.04 152.096 1995.12 150.012 Q1993.22 147.929 1990.07 147.929 Q1986.51 147.929 1984.36 149.943 Q1982.23 151.957 1981.9 155.614 L1997.09 155.591 Z" fill="#000000" fill-rule="evenodd" fill-opacity="1" /><path clip-path="url(#clip530)" d="M2023.36 148.924 Q2022.64 148.508 2021.79 148.322 Q2020.95 148.114 2019.93 148.114 Q2016.32 148.114 2014.38 150.475 Q2012.46 152.813 2012.46 157.211 L2012.46 170.869 L2008.18 170.869 L2008.18 144.943 L2012.46 144.943 L2012.46 148.971 Q2013.8 146.609 2015.95 145.475 Q2018.11 144.318 2021.18 144.318 Q2021.62 144.318 2022.16 144.387 Q2022.69 144.434 2023.34 144.549 L2023.36 148.924 Z" fill="#000000" fill-rule="evenodd" fill-opacity="1" /><polyline clip-path="url(#clip530)" style="stroke:#e26f46; stroke-linecap:butt; stroke-linejoin:round; stroke-width:4; stroke-opacity:1; fill:none" points="
  1491.79,214.069 1638.24,214.069 
  "/>
<path clip-path="url(#clip530)" d="M1662.64 196.789 L1684.5 196.789 L1684.5 200.724 L1667.32 200.724 L1667.32 210.955 L1683.78 210.955 L1683.78 214.89 L1667.32 214.89 L1667.32 227.413 L1684.91 227.413 L1684.91 231.349 L1662.64 231.349 L1662.64 196.789 Z" fill="#000000" fill-rule="evenodd" fill-opacity="1" /><path clip-path="url(#clip530)" d="M1713.96 205.423 L1704.59 218.039 L1714.45 231.349 L1709.43 231.349 L1701.88 221.163 L1694.33 231.349 L1689.31 231.349 L1699.38 217.784 L1690.17 205.423 L1695.19 205.423 L1702.07 214.659 L1708.94 205.423 L1713.96 205.423 Z" fill="#000000" fill-rule="evenodd" fill-opacity="1" /><path clip-path="url(#clip530)" d="M1738.29 206.418 L1738.29 210.4 Q1736.49 209.404 1734.66 208.918 Q1732.85 208.409 1731 208.409 Q1726.86 208.409 1724.57 211.048 Q1722.27 213.664 1722.27 218.409 Q1722.27 223.154 1724.57 225.793 Q1726.86 228.409 1731 228.409 Q1732.85 228.409 1734.66 227.923 Q1736.49 227.413 1738.29 226.418 L1738.29 230.353 Q1736.51 231.187 1734.59 231.603 Q1732.69 232.02 1730.54 232.02 Q1724.68 232.02 1721.23 228.339 Q1717.78 224.659 1717.78 218.409 Q1717.78 212.066 1721.26 208.432 Q1724.75 204.798 1730.82 204.798 Q1732.78 204.798 1734.66 205.215 Q1736.53 205.608 1738.29 206.418 Z" fill="#000000" fill-rule="evenodd" fill-opacity="1" /><path clip-path="url(#clip530)" d="M1745.7 205.423 L1749.96 205.423 L1749.96 231.349 L1745.7 231.349 L1745.7 205.423 M1745.7 195.33 L1749.96 195.33 L1749.96 200.724 L1745.7 200.724 L1745.7 195.33 Z" fill="#000000" fill-rule="evenodd" fill-opacity="1" /><path clip-path="url(#clip530)" d="M1763.08 198.062 L1763.08 205.423 L1771.86 205.423 L1771.86 208.733 L1763.08 208.733 L1763.08 222.807 Q1763.08 225.978 1763.94 226.881 Q1764.82 227.784 1767.48 227.784 L1771.86 227.784 L1771.86 231.349 L1767.48 231.349 Q1762.55 231.349 1760.68 229.52 Q1758.8 227.668 1758.8 222.807 L1758.8 208.733 L1755.68 208.733 L1755.68 205.423 L1758.8 205.423 L1758.8 198.062 L1763.08 198.062 Z" fill="#000000" fill-rule="evenodd" fill-opacity="1" /><path clip-path="url(#clip530)" d="M1799.63 217.321 L1799.63 219.404 L1780.05 219.404 Q1780.33 223.802 1782.69 226.117 Q1785.07 228.409 1789.31 228.409 Q1791.76 228.409 1794.06 227.807 Q1796.37 227.205 1798.64 226.001 L1798.64 230.029 Q1796.35 231.001 1793.94 231.511 Q1791.53 232.02 1789.06 232.02 Q1782.85 232.02 1779.22 228.409 Q1775.61 224.798 1775.61 218.64 Q1775.61 212.275 1779.03 208.548 Q1782.48 204.798 1788.32 204.798 Q1793.55 204.798 1796.58 208.177 Q1799.63 211.534 1799.63 217.321 M1795.38 216.071 Q1795.33 212.576 1793.41 210.492 Q1791.51 208.409 1788.36 208.409 Q1784.8 208.409 1782.64 210.423 Q1780.51 212.437 1780.19 216.094 L1795.38 216.071 Z" fill="#000000" fill-rule="evenodd" fill-opacity="1" /><path clip-path="url(#clip530)" d="M1823.69 209.358 L1823.69 195.33 L1827.94 195.33 L1827.94 231.349 L1823.69 231.349 L1823.69 227.46 Q1822.34 229.775 1820.28 230.909 Q1818.25 232.02 1815.38 232.02 Q1810.68 232.02 1807.71 228.27 Q1804.77 224.52 1804.77 218.409 Q1804.77 212.298 1807.71 208.548 Q1810.68 204.798 1815.38 204.798 Q1818.25 204.798 1820.28 205.932 Q1822.34 207.043 1823.69 209.358 M1809.17 218.409 Q1809.17 223.108 1811.09 225.793 Q1813.04 228.455 1816.42 228.455 Q1819.8 228.455 1821.74 225.793 Q1823.69 223.108 1823.69 218.409 Q1823.69 213.71 1821.74 211.048 Q1819.8 208.363 1816.42 208.363 Q1813.04 208.363 1811.09 211.048 Q1809.17 213.71 1809.17 218.409 Z" fill="#000000" fill-rule="evenodd" fill-opacity="1" /><path clip-path="url(#clip530)" d="M1868.31 206.187 L1868.31 210.214 Q1866.51 209.289 1864.56 208.826 Q1862.62 208.363 1860.54 208.363 Q1857.37 208.363 1855.77 209.335 Q1854.19 210.307 1854.19 212.251 Q1854.19 213.733 1855.33 214.589 Q1856.46 215.423 1859.89 216.187 L1861.35 216.511 Q1865.88 217.483 1867.78 219.265 Q1869.7 221.025 1869.7 224.196 Q1869.7 227.807 1866.83 229.913 Q1863.99 232.02 1858.99 232.02 Q1856.9 232.02 1854.63 231.603 Q1852.39 231.21 1849.89 230.4 L1849.89 226.001 Q1852.25 227.228 1854.54 227.853 Q1856.83 228.455 1859.08 228.455 Q1862.09 228.455 1863.71 227.437 Q1865.33 226.395 1865.33 224.52 Q1865.33 222.784 1864.15 221.858 Q1862.99 220.932 1859.03 220.076 L1857.55 219.728 Q1853.59 218.895 1851.83 217.182 Q1850.07 215.446 1850.07 212.437 Q1850.07 208.779 1852.67 206.789 Q1855.26 204.798 1860.03 204.798 Q1862.39 204.798 1864.47 205.145 Q1866.56 205.492 1868.31 206.187 Z" fill="#000000" fill-rule="evenodd" fill-opacity="1" /><path clip-path="url(#clip530)" d="M1880.7 198.062 L1880.7 205.423 L1889.47 205.423 L1889.47 208.733 L1880.7 208.733 L1880.7 222.807 Q1880.7 225.978 1881.56 226.881 Q1882.43 227.784 1885.1 227.784 L1889.47 227.784 L1889.47 231.349 L1885.1 231.349 Q1880.17 231.349 1878.29 229.52 Q1876.42 227.668 1876.42 222.807 L1876.42 208.733 L1873.29 208.733 L1873.29 205.423 L1876.42 205.423 L1876.42 198.062 L1880.7 198.062 Z" fill="#000000" fill-rule="evenodd" fill-opacity="1" /><path clip-path="url(#clip530)" d="M1906.86 218.316 Q1901.69 218.316 1899.7 219.497 Q1897.71 220.677 1897.71 223.525 Q1897.71 225.793 1899.19 227.136 Q1900.7 228.455 1903.27 228.455 Q1906.81 228.455 1908.94 225.955 Q1911.09 223.432 1911.09 219.265 L1911.09 218.316 L1906.86 218.316 M1915.35 216.557 L1915.35 231.349 L1911.09 231.349 L1911.09 227.413 Q1909.63 229.775 1907.46 230.909 Q1905.28 232.02 1902.13 232.02 Q1898.15 232.02 1895.79 229.798 Q1893.45 227.552 1893.45 223.802 Q1893.45 219.427 1896.37 217.205 Q1899.31 214.983 1905.12 214.983 L1911.09 214.983 L1911.09 214.566 Q1911.09 211.627 1909.15 210.029 Q1907.23 208.409 1903.73 208.409 Q1901.51 208.409 1899.4 208.941 Q1897.3 209.474 1895.35 210.539 L1895.35 206.603 Q1897.69 205.701 1899.89 205.261 Q1902.09 204.798 1904.17 204.798 Q1909.8 204.798 1912.57 207.714 Q1915.35 210.631 1915.35 216.557 Z" fill="#000000" fill-rule="evenodd" fill-opacity="1" /><path clip-path="url(#clip530)" d="M1928.34 198.062 L1928.34 205.423 L1937.11 205.423 L1937.11 208.733 L1928.34 208.733 L1928.34 222.807 Q1928.34 225.978 1929.19 226.881 Q1930.07 227.784 1932.74 227.784 L1937.11 227.784 L1937.11 231.349 L1932.74 231.349 Q1927.81 231.349 1925.93 229.52 Q1924.06 227.668 1924.06 222.807 L1924.06 208.733 L1920.93 208.733 L1920.93 205.423 L1924.06 205.423 L1924.06 198.062 L1928.34 198.062 Z" fill="#000000" fill-rule="evenodd" fill-opacity="1" /><path clip-path="url(#clip530)" d="M1964.89 217.321 L1964.89 219.404 L1945.31 219.404 Q1945.58 223.802 1947.94 226.117 Q1950.33 228.409 1954.56 228.409 Q1957.02 228.409 1959.31 227.807 Q1961.62 227.205 1963.89 226.001 L1963.89 230.029 Q1961.6 231.001 1959.19 231.511 Q1956.79 232.02 1954.31 232.02 Q1948.11 232.02 1944.47 228.409 Q1940.86 224.798 1940.86 218.64 Q1940.86 212.275 1944.29 208.548 Q1947.74 204.798 1953.57 204.798 Q1958.8 204.798 1961.83 208.177 Q1964.89 211.534 1964.89 217.321 M1960.63 216.071 Q1960.58 212.576 1958.66 210.492 Q1956.76 208.409 1953.62 208.409 Q1950.05 208.409 1947.9 210.423 Q1945.77 212.437 1945.44 216.094 L1960.63 216.071 Z" fill="#000000" fill-rule="evenodd" fill-opacity="1" /><path clip-path="url(#clip530)" d="M1991.07 227.46 L1991.07 241.21 L1986.79 241.21 L1986.79 205.423 L1991.07 205.423 L1991.07 209.358 Q1992.41 207.043 1994.45 205.932 Q1996.51 204.798 1999.36 204.798 Q2004.08 204.798 2007.02 208.548 Q2009.98 212.298 2009.98 218.409 Q2009.98 224.52 2007.02 228.27 Q2004.08 232.02 1999.36 232.02 Q1996.51 232.02 1994.45 230.909 Q1992.41 229.775 1991.07 227.46 M2005.56 218.409 Q2005.56 213.71 2003.61 211.048 Q2001.69 208.363 1998.31 208.363 Q1994.93 208.363 1992.99 211.048 Q1991.07 213.71 1991.07 218.409 Q1991.07 223.108 1992.99 225.793 Q1994.93 228.455 1998.31 228.455 Q2001.69 228.455 2003.61 225.793 Q2005.56 223.108 2005.56 218.409 Z" fill="#000000" fill-rule="evenodd" fill-opacity="1" /><path clip-path="url(#clip530)" d="M2027.09 208.409 Q2023.66 208.409 2021.67 211.094 Q2019.68 213.756 2019.68 218.409 Q2019.68 223.062 2021.65 225.747 Q2023.64 228.409 2027.09 228.409 Q2030.49 228.409 2032.48 225.724 Q2034.47 223.038 2034.47 218.409 Q2034.47 213.802 2032.48 211.117 Q2030.49 208.409 2027.09 208.409 M2027.09 204.798 Q2032.64 204.798 2035.81 208.409 Q2038.99 212.02 2038.99 218.409 Q2038.99 224.775 2035.81 228.409 Q2032.64 232.02 2027.09 232.02 Q2021.51 232.02 2018.34 228.409 Q2015.19 224.775 2015.19 218.409 Q2015.19 212.02 2018.34 208.409 Q2021.51 204.798 2027.09 204.798 Z" fill="#000000" fill-rule="evenodd" fill-opacity="1" /><path clip-path="url(#clip530)" d="M2050.17 227.46 L2050.17 241.21 L2045.88 241.21 L2045.88 205.423 L2050.17 205.423 L2050.17 209.358 Q2051.51 207.043 2053.55 205.932 Q2055.61 204.798 2058.45 204.798 Q2063.17 204.798 2066.11 208.548 Q2069.08 212.298 2069.08 218.409 Q2069.08 224.52 2066.11 228.27 Q2063.17 232.02 2058.45 232.02 Q2055.61 232.02 2053.55 230.909 Q2051.51 229.775 2050.17 227.46 M2064.66 218.409 Q2064.66 213.71 2062.71 211.048 Q2060.79 208.363 2057.41 208.363 Q2054.03 208.363 2052.09 211.048 Q2050.17 213.71 2050.17 218.409 Q2050.17 223.108 2052.09 225.793 Q2054.03 228.455 2057.41 228.455 Q2060.79 228.455 2062.71 225.793 Q2064.66 223.108 2064.66 218.409 Z" fill="#000000" fill-rule="evenodd" fill-opacity="1" /><path clip-path="url(#clip530)" d="M2075.7 221.117 L2075.7 205.423 L2079.96 205.423 L2079.96 220.955 Q2079.96 224.636 2081.39 226.488 Q2082.83 228.316 2085.7 228.316 Q2089.15 228.316 2091.14 226.117 Q2093.15 223.918 2093.15 220.122 L2093.15 205.423 L2097.41 205.423 L2097.41 231.349 L2093.15 231.349 L2093.15 227.367 Q2091.6 229.728 2089.54 230.886 Q2087.5 232.02 2084.79 232.02 Q2080.33 232.02 2078.01 229.242 Q2075.7 226.464 2075.7 221.117 M2086.42 204.798 L2086.42 204.798 Z" fill="#000000" fill-rule="evenodd" fill-opacity="1" /><path clip-path="url(#clip530)" d="M2106.18 195.33 L2110.44 195.33 L2110.44 231.349 L2106.18 231.349 L2106.18 195.33 Z" fill="#000000" fill-rule="evenodd" fill-opacity="1" /><path clip-path="url(#clip530)" d="M2131.14 218.316 Q2125.98 218.316 2123.98 219.497 Q2121.99 220.677 2121.99 223.525 Q2121.99 225.793 2123.48 227.136 Q2124.98 228.455 2127.55 228.455 Q2131.09 228.455 2133.22 225.955 Q2135.37 223.432 2135.37 219.265 L2135.37 218.316 L2131.14 218.316 M2139.63 216.557 L2139.63 231.349 L2135.37 231.349 L2135.37 227.413 Q2133.92 229.775 2131.74 230.909 Q2129.56 232.02 2126.42 232.02 Q2122.43 232.02 2120.07 229.798 Q2117.73 227.552 2117.73 223.802 Q2117.73 219.427 2120.65 217.205 Q2123.59 214.983 2129.4 214.983 L2135.37 214.983 L2135.37 214.566 Q2135.37 211.627 2133.43 210.029 Q2131.51 208.409 2128.01 208.409 Q2125.79 208.409 2123.68 208.941 Q2121.58 209.474 2119.63 210.539 L2119.63 206.603 Q2121.97 205.701 2124.17 205.261 Q2126.37 204.798 2128.45 204.798 Q2134.08 204.798 2136.85 207.714 Q2139.63 210.631 2139.63 216.557 Z" fill="#000000" fill-rule="evenodd" fill-opacity="1" /><path clip-path="url(#clip530)" d="M2152.62 198.062 L2152.62 205.423 L2161.39 205.423 L2161.39 208.733 L2152.62 208.733 L2152.62 222.807 Q2152.62 225.978 2153.48 226.881 Q2154.35 227.784 2157.02 227.784 L2161.39 227.784 L2161.39 231.349 L2157.02 231.349 Q2152.09 231.349 2150.21 229.52 Q2148.34 227.668 2148.34 222.807 L2148.34 208.733 L2145.21 208.733 L2145.21 205.423 L2148.34 205.423 L2148.34 198.062 L2152.62 198.062 Z" fill="#000000" fill-rule="evenodd" fill-opacity="1" /><path clip-path="url(#clip530)" d="M2166.99 205.423 L2171.25 205.423 L2171.25 231.349 L2166.99 231.349 L2166.99 205.423 M2166.99 195.33 L2171.25 195.33 L2171.25 200.724 L2166.99 200.724 L2166.99 195.33 Z" fill="#000000" fill-rule="evenodd" fill-opacity="1" /><path clip-path="url(#clip530)" d="M2190.21 208.409 Q2186.79 208.409 2184.79 211.094 Q2182.8 213.756 2182.8 218.409 Q2182.8 223.062 2184.77 225.747 Q2186.76 228.409 2190.21 228.409 Q2193.61 228.409 2195.6 225.724 Q2197.6 223.038 2197.6 218.409 Q2197.6 213.802 2195.6 211.117 Q2193.61 208.409 2190.21 208.409 M2190.21 204.798 Q2195.77 204.798 2198.94 208.409 Q2202.11 212.02 2202.11 218.409 Q2202.11 224.775 2198.94 228.409 Q2195.77 232.02 2190.21 232.02 Q2184.63 232.02 2181.46 228.409 Q2178.31 224.775 2178.31 218.409 Q2178.31 212.02 2181.46 208.409 Q2184.63 204.798 2190.21 204.798 Z" fill="#000000" fill-rule="evenodd" fill-opacity="1" /><path clip-path="url(#clip530)" d="M2230.72 215.701 L2230.72 231.349 L2226.46 231.349 L2226.46 215.839 Q2226.46 212.159 2225.03 210.33 Q2223.59 208.502 2220.72 208.502 Q2217.27 208.502 2215.28 210.701 Q2213.29 212.9 2213.29 216.696 L2213.29 231.349 L2209.01 231.349 L2209.01 205.423 L2213.29 205.423 L2213.29 209.451 Q2214.82 207.113 2216.88 205.955 Q2218.96 204.798 2221.67 204.798 Q2226.14 204.798 2228.43 207.576 Q2230.72 210.33 2230.72 215.701 Z" fill="#000000" fill-rule="evenodd" fill-opacity="1" /></svg>
