<?xml version="1.0" encoding="utf-8"?>
<svg xmlns="http://www.w3.org/2000/svg" xmlns:xlink="http://www.w3.org/1999/xlink" width="600" height="400" viewBox="0 0 2400 1600">
<defs>
  <clipPath id="clip570">
    <rect x="0" y="0" width="2400" height="1600"/>
  </clipPath>
</defs>
<path clip-path="url(#clip570)" d="
M0 1600 L2400 1600 L2400 0 L0 0  Z
  " fill="#ffffff" fill-rule="evenodd" fill-opacity="1"/>
<defs>
  <clipPath id="clip571">
    <rect x="480" y="0" width="1681" height="1600"/>
  </clipPath>
</defs>
<path clip-path="url(#clip570)" d="
M156.112 1423.18 L2352.76 1423.18 L2352.76 47.2441 L156.112 47.2441  Z
  " fill="#ffffff" fill-rule="evenodd" fill-opacity="1"/>
<defs>
  <clipPath id="clip572">
    <rect x="156" y="47" width="2198" height="1377"/>
  </clipPath>
</defs>
<polyline clip-path="url(#clip572)" style="stroke:#000000; stroke-linecap:butt; stroke-linejoin:round; stroke-width:2; stroke-opacity:0.1; fill:none" points="
  218.281,1423.18 218.281,47.2441 
  "/>
<polyline clip-path="url(#clip572)" style="stroke:#000000; stroke-linecap:butt; stroke-linejoin:round; stroke-width:2; stroke-opacity:0.1; fill:none" points="
  736.358,1423.18 736.358,47.2441 
  "/>
<polyline clip-path="url(#clip572)" style="stroke:#000000; stroke-linecap:butt; stroke-linejoin:round; stroke-width:2; stroke-opacity:0.1; fill:none" points="
  1254.43,1423.18 1254.43,47.2441 
  "/>
<polyline clip-path="url(#clip572)" style="stroke:#000000; stroke-linecap:butt; stroke-linejoin:round; stroke-width:2; stroke-opacity:0.1; fill:none" points="
  1772.51,1423.18 1772.51,47.2441 
  "/>
<polyline clip-path="url(#clip572)" style="stroke:#000000; stroke-linecap:butt; stroke-linejoin:round; stroke-width:2; stroke-opacity:0.1; fill:none" points="
  2290.59,1423.18 2290.59,47.2441 
  "/>
<polyline clip-path="url(#clip570)" style="stroke:#000000; stroke-linecap:butt; stroke-linejoin:round; stroke-width:4; stroke-opacity:1; fill:none" points="
  156.112,1423.18 2352.76,1423.18 
  "/>
<polyline clip-path="url(#clip570)" style="stroke:#000000; stroke-linecap:butt; stroke-linejoin:round; stroke-width:4; stroke-opacity:1; fill:none" points="
  218.281,1423.18 218.281,1404.28 
  "/>
<polyline clip-path="url(#clip570)" style="stroke:#000000; stroke-linecap:butt; stroke-linejoin:round; stroke-width:4; stroke-opacity:1; fill:none" points="
  736.358,1423.18 736.358,1404.28 
  "/>
<polyline clip-path="url(#clip570)" style="stroke:#000000; stroke-linecap:butt; stroke-linejoin:round; stroke-width:4; stroke-opacity:1; fill:none" points="
  1254.43,1423.18 1254.43,1404.28 
  "/>
<polyline clip-path="url(#clip570)" style="stroke:#000000; stroke-linecap:butt; stroke-linejoin:round; stroke-width:4; stroke-opacity:1; fill:none" points="
  1772.51,1423.18 1772.51,1404.28 
  "/>
<polyline clip-path="url(#clip570)" style="stroke:#000000; stroke-linecap:butt; stroke-linejoin:round; stroke-width:4; stroke-opacity:1; fill:none" points="
  2290.59,1423.18 2290.59,1404.28 
  "/>
<path clip-path="url(#clip570)" d="M195.666 1454.1 Q192.055 1454.1 190.226 1457.66 Q188.42 1461.2 188.42 1468.33 Q188.42 1475.44 190.226 1479.01 Q192.055 1482.55 195.666 1482.55 Q199.3 1482.55 201.105 1479.01 Q202.934 1475.44 202.934 1468.33 Q202.934 1461.2 201.105 1457.66 Q199.3 1454.1 195.666 1454.1 M195.666 1450.39 Q201.476 1450.39 204.531 1455 Q207.61 1459.58 207.61 1468.33 Q207.61 1477.06 204.531 1481.67 Q201.476 1486.25 195.666 1486.25 Q189.856 1486.25 186.777 1481.67 Q183.721 1477.06 183.721 1468.33 Q183.721 1459.58 186.777 1455 Q189.856 1450.39 195.666 1450.39 Z" fill="#000000" fill-rule="evenodd" fill-opacity="1" /><path clip-path="url(#clip570)" d="M215.828 1479.7 L220.712 1479.7 L220.712 1485.58 L215.828 1485.58 L215.828 1479.7 Z" fill="#000000" fill-rule="evenodd" fill-opacity="1" /><path clip-path="url(#clip570)" d="M240.897 1454.1 Q237.286 1454.1 235.457 1457.66 Q233.652 1461.2 233.652 1468.33 Q233.652 1475.44 235.457 1479.01 Q237.286 1482.55 240.897 1482.55 Q244.531 1482.55 246.337 1479.01 Q248.165 1475.44 248.165 1468.33 Q248.165 1461.2 246.337 1457.66 Q244.531 1454.1 240.897 1454.1 M240.897 1450.39 Q246.707 1450.39 249.763 1455 Q252.841 1459.58 252.841 1468.33 Q252.841 1477.06 249.763 1481.67 Q246.707 1486.25 240.897 1486.25 Q235.087 1486.25 232.008 1481.67 Q228.953 1477.06 228.953 1468.33 Q228.953 1459.58 232.008 1455 Q235.087 1450.39 240.897 1450.39 Z" fill="#000000" fill-rule="evenodd" fill-opacity="1" /><path clip-path="url(#clip570)" d="M708.094 1481.64 L724.413 1481.64 L724.413 1485.58 L702.469 1485.58 L702.469 1481.64 Q705.131 1478.89 709.714 1474.26 Q714.321 1469.61 715.501 1468.27 Q717.747 1465.74 718.626 1464.01 Q719.529 1462.25 719.529 1460.56 Q719.529 1457.8 717.585 1456.07 Q715.663 1454.33 712.561 1454.33 Q710.362 1454.33 707.909 1455.09 Q705.478 1455.86 702.7 1457.41 L702.7 1452.69 Q705.524 1451.55 707.978 1450.97 Q710.432 1450.39 712.469 1450.39 Q717.839 1450.39 721.034 1453.08 Q724.228 1455.77 724.228 1460.26 Q724.228 1462.39 723.418 1464.31 Q722.631 1466.2 720.524 1468.8 Q719.946 1469.47 716.844 1472.69 Q713.742 1475.88 708.094 1481.64 Z" fill="#000000" fill-rule="evenodd" fill-opacity="1" /><path clip-path="url(#clip570)" d="M734.228 1479.7 L739.112 1479.7 L739.112 1485.58 L734.228 1485.58 L734.228 1479.7 Z" fill="#000000" fill-rule="evenodd" fill-opacity="1" /><path clip-path="url(#clip570)" d="M749.344 1451.02 L767.7 1451.02 L767.7 1454.96 L753.626 1454.96 L753.626 1463.43 Q754.645 1463.08 755.663 1462.92 Q756.682 1462.73 757.7 1462.73 Q763.487 1462.73 766.867 1465.9 Q770.246 1469.08 770.246 1474.49 Q770.246 1480.07 766.774 1483.17 Q763.302 1486.25 756.983 1486.25 Q754.807 1486.25 752.538 1485.88 Q750.293 1485.51 747.885 1484.77 L747.885 1480.07 Q749.969 1481.2 752.191 1481.76 Q754.413 1482.32 756.89 1482.32 Q760.895 1482.32 763.233 1480.21 Q765.57 1478.1 765.57 1474.49 Q765.57 1470.88 763.233 1468.77 Q760.895 1466.67 756.89 1466.67 Q755.015 1466.67 753.14 1467.08 Q751.288 1467.5 749.344 1468.38 L749.344 1451.02 Z" fill="#000000" fill-rule="evenodd" fill-opacity="1" /><path clip-path="url(#clip570)" d="M1221.6 1451.02 L1239.95 1451.02 L1239.95 1454.96 L1225.88 1454.96 L1225.88 1463.43 Q1226.9 1463.08 1227.92 1462.92 Q1228.94 1462.73 1229.95 1462.73 Q1235.74 1462.73 1239.12 1465.9 Q1242.5 1469.08 1242.5 1474.49 Q1242.5 1480.07 1239.03 1483.17 Q1235.56 1486.25 1229.24 1486.25 Q1227.06 1486.25 1224.79 1485.88 Q1222.55 1485.51 1220.14 1484.77 L1220.14 1480.07 Q1222.22 1481.2 1224.45 1481.76 Q1226.67 1482.32 1229.14 1482.32 Q1233.15 1482.32 1235.49 1480.21 Q1237.83 1478.1 1237.83 1474.49 Q1237.83 1470.88 1235.49 1468.77 Q1233.15 1466.67 1229.14 1466.67 Q1227.27 1466.67 1225.39 1467.08 Q1223.54 1467.5 1221.6 1468.38 L1221.6 1451.02 Z" fill="#000000" fill-rule="evenodd" fill-opacity="1" /><path clip-path="url(#clip570)" d="M1251.71 1479.7 L1256.6 1479.7 L1256.6 1485.58 L1251.71 1485.58 L1251.71 1479.7 Z" fill="#000000" fill-rule="evenodd" fill-opacity="1" /><path clip-path="url(#clip570)" d="M1276.78 1454.1 Q1273.17 1454.1 1271.34 1457.66 Q1269.54 1461.2 1269.54 1468.33 Q1269.54 1475.44 1271.34 1479.01 Q1273.17 1482.55 1276.78 1482.55 Q1280.42 1482.55 1282.22 1479.01 Q1284.05 1475.44 1284.05 1468.33 Q1284.05 1461.2 1282.22 1457.66 Q1280.42 1454.1 1276.78 1454.1 M1276.78 1450.39 Q1282.59 1450.39 1285.65 1455 Q1288.73 1459.58 1288.73 1468.33 Q1288.73 1477.06 1285.65 1481.67 Q1282.59 1486.25 1276.78 1486.25 Q1270.97 1486.25 1267.89 1481.67 Q1264.84 1477.06 1264.84 1468.33 Q1264.84 1459.58 1267.89 1455 Q1270.97 1450.39 1276.78 1450.39 Z" fill="#000000" fill-rule="evenodd" fill-opacity="1" /><path clip-path="url(#clip570)" d="M1738.83 1451.02 L1761.05 1451.02 L1761.05 1453.01 L1748.51 1485.58 L1743.62 1485.58 L1755.43 1454.96 L1738.83 1454.96 L1738.83 1451.02 Z" fill="#000000" fill-rule="evenodd" fill-opacity="1" /><path clip-path="url(#clip570)" d="M1770.17 1479.7 L1775.06 1479.7 L1775.06 1485.58 L1770.17 1485.58 L1770.17 1479.7 Z" fill="#000000" fill-rule="evenodd" fill-opacity="1" /><path clip-path="url(#clip570)" d="M1785.29 1451.02 L1803.64 1451.02 L1803.64 1454.96 L1789.57 1454.96 L1789.57 1463.43 Q1790.59 1463.08 1791.61 1462.92 Q1792.63 1462.73 1793.64 1462.73 Q1799.43 1462.73 1802.81 1465.9 Q1806.19 1469.08 1806.19 1474.49 Q1806.19 1480.07 1802.72 1483.17 Q1799.25 1486.25 1792.93 1486.25 Q1790.75 1486.25 1788.48 1485.88 Q1786.24 1485.51 1783.83 1484.77 L1783.83 1480.07 Q1785.91 1481.2 1788.14 1481.76 Q1790.36 1482.32 1792.83 1482.32 Q1796.84 1482.32 1799.18 1480.21 Q1801.51 1478.1 1801.51 1474.49 Q1801.51 1470.88 1799.18 1468.77 Q1796.84 1466.67 1792.83 1466.67 Q1790.96 1466.67 1789.08 1467.08 Q1787.23 1467.5 1785.29 1468.38 L1785.29 1451.02 Z" fill="#000000" fill-rule="evenodd" fill-opacity="1" /><path clip-path="url(#clip570)" d="M2242.66 1481.64 L2250.3 1481.64 L2250.3 1455.28 L2241.99 1456.95 L2241.99 1452.69 L2250.25 1451.02 L2254.93 1451.02 L2254.93 1481.64 L2262.57 1481.64 L2262.57 1485.58 L2242.66 1485.58 L2242.66 1481.64 Z" fill="#000000" fill-rule="evenodd" fill-opacity="1" /><path clip-path="url(#clip570)" d="M2282.01 1454.1 Q2278.4 1454.1 2276.57 1457.66 Q2274.77 1461.2 2274.77 1468.33 Q2274.77 1475.44 2276.57 1479.01 Q2278.4 1482.55 2282.01 1482.55 Q2285.64 1482.55 2287.45 1479.01 Q2289.28 1475.44 2289.28 1468.33 Q2289.28 1461.2 2287.45 1457.66 Q2285.64 1454.1 2282.01 1454.1 M2282.01 1450.39 Q2287.82 1450.39 2290.88 1455 Q2293.95 1459.58 2293.95 1468.33 Q2293.95 1477.06 2290.88 1481.67 Q2287.82 1486.25 2282.01 1486.25 Q2276.2 1486.25 2273.12 1481.67 Q2270.07 1477.06 2270.07 1468.33 Q2270.07 1459.58 2273.12 1455 Q2276.2 1450.39 2282.01 1450.39 Z" fill="#000000" fill-rule="evenodd" fill-opacity="1" /><path clip-path="url(#clip570)" d="M2302.17 1479.7 L2307.06 1479.7 L2307.06 1485.58 L2302.17 1485.58 L2302.17 1479.7 Z" fill="#000000" fill-rule="evenodd" fill-opacity="1" /><path clip-path="url(#clip570)" d="M2327.24 1454.1 Q2323.63 1454.1 2321.8 1457.66 Q2320 1461.2 2320 1468.33 Q2320 1475.44 2321.8 1479.01 Q2323.63 1482.55 2327.24 1482.55 Q2330.88 1482.55 2332.68 1479.01 Q2334.51 1475.44 2334.51 1468.33 Q2334.51 1461.2 2332.68 1457.66 Q2330.88 1454.1 2327.24 1454.1 M2327.24 1450.39 Q2333.05 1450.39 2336.11 1455 Q2339.19 1459.58 2339.19 1468.33 Q2339.19 1477.06 2336.11 1481.67 Q2333.05 1486.25 2327.24 1486.25 Q2321.43 1486.25 2318.35 1481.67 Q2315.3 1477.06 2315.3 1468.33 Q2315.3 1459.58 2318.35 1455 Q2321.43 1450.39 2327.24 1450.39 Z" fill="#000000" fill-rule="evenodd" fill-opacity="1" /><path clip-path="url(#clip570)" d="M1253.5 1522.27 L1253.5 1532.4 L1265.56 1532.4 L1265.56 1536.95 L1253.5 1536.95 L1253.5 1556.3 Q1253.5 1560.66 1254.67 1561.9 Q1255.88 1563.14 1259.54 1563.14 L1265.56 1563.14 L1265.56 1568.04 L1259.54 1568.04 Q1252.76 1568.04 1250.18 1565.53 Q1247.61 1562.98 1247.61 1556.3 L1247.61 1536.95 L1243.31 1536.95 L1243.31 1532.4 L1247.61 1532.4 L1247.61 1522.27 L1253.5 1522.27 Z" fill="#000000" fill-rule="evenodd" fill-opacity="1" /><polyline clip-path="url(#clip572)" style="stroke:#000000; stroke-linecap:butt; stroke-linejoin:round; stroke-width:2; stroke-opacity:0.1; fill:none" points="
  156.112,1384.24 2352.76,1384.24 
  "/>
<polyline clip-path="url(#clip572)" style="stroke:#000000; stroke-linecap:butt; stroke-linejoin:round; stroke-width:2; stroke-opacity:0.1; fill:none" points="
  156.112,946.642 2352.76,946.642 
  "/>
<polyline clip-path="url(#clip572)" style="stroke:#000000; stroke-linecap:butt; stroke-linejoin:round; stroke-width:2; stroke-opacity:0.1; fill:none" points="
  156.112,509.045 2352.76,509.045 
  "/>
<polyline clip-path="url(#clip572)" style="stroke:#000000; stroke-linecap:butt; stroke-linejoin:round; stroke-width:2; stroke-opacity:0.1; fill:none" points="
  156.112,71.4483 2352.76,71.4483 
  "/>
<polyline clip-path="url(#clip570)" style="stroke:#000000; stroke-linecap:butt; stroke-linejoin:round; stroke-width:4; stroke-opacity:1; fill:none" points="
  156.112,1423.18 156.112,47.2441 
  "/>
<polyline clip-path="url(#clip570)" style="stroke:#000000; stroke-linecap:butt; stroke-linejoin:round; stroke-width:4; stroke-opacity:1; fill:none" points="
  156.112,1384.24 175.01,1384.24 
  "/>
<polyline clip-path="url(#clip570)" style="stroke:#000000; stroke-linecap:butt; stroke-linejoin:round; stroke-width:4; stroke-opacity:1; fill:none" points="
  156.112,946.642 175.01,946.642 
  "/>
<polyline clip-path="url(#clip570)" style="stroke:#000000; stroke-linecap:butt; stroke-linejoin:round; stroke-width:4; stroke-opacity:1; fill:none" points="
  156.112,509.045 175.01,509.045 
  "/>
<polyline clip-path="url(#clip570)" style="stroke:#000000; stroke-linecap:butt; stroke-linejoin:round; stroke-width:4; stroke-opacity:1; fill:none" points="
  156.112,71.4483 175.01,71.4483 
  "/>
<path clip-path="url(#clip570)" d="M62.9365 1370.04 Q59.3254 1370.04 57.4967 1373.6 Q55.6912 1377.14 55.6912 1384.27 Q55.6912 1391.38 57.4967 1394.94 Q59.3254 1398.49 62.9365 1398.49 Q66.5707 1398.49 68.3763 1394.94 Q70.205 1391.38 70.205 1384.27 Q70.205 1377.14 68.3763 1373.6 Q66.5707 1370.04 62.9365 1370.04 M62.9365 1366.33 Q68.7467 1366.33 71.8022 1370.94 Q74.8809 1375.52 74.8809 1384.27 Q74.8809 1393 71.8022 1397.61 Q68.7467 1402.19 62.9365 1402.19 Q57.1264 1402.19 54.0477 1397.61 Q50.9921 1393 50.9921 1384.27 Q50.9921 1375.52 54.0477 1370.94 Q57.1264 1366.33 62.9365 1366.33 Z" fill="#000000" fill-rule="evenodd" fill-opacity="1" /><path clip-path="url(#clip570)" d="M83.0984 1395.64 L87.9827 1395.64 L87.9827 1401.52 L83.0984 1401.52 L83.0984 1395.64 Z" fill="#000000" fill-rule="evenodd" fill-opacity="1" /><path clip-path="url(#clip570)" d="M108.168 1370.04 Q104.557 1370.04 102.728 1373.6 Q100.922 1377.14 100.922 1384.27 Q100.922 1391.38 102.728 1394.94 Q104.557 1398.49 108.168 1398.49 Q111.802 1398.49 113.608 1394.94 Q115.436 1391.38 115.436 1384.27 Q115.436 1377.14 113.608 1373.6 Q111.802 1370.04 108.168 1370.04 M108.168 1366.33 Q113.978 1366.33 117.033 1370.94 Q120.112 1375.52 120.112 1384.27 Q120.112 1393 117.033 1397.61 Q113.978 1402.19 108.168 1402.19 Q102.358 1402.19 99.2789 1397.61 Q96.2234 1393 96.2234 1384.27 Q96.2234 1375.52 99.2789 1370.94 Q102.358 1366.33 108.168 1366.33 Z" fill="#000000" fill-rule="evenodd" fill-opacity="1" /><path clip-path="url(#clip570)" d="M63.9319 932.44 Q60.3208 932.44 58.4921 936.005 Q56.6865 939.547 56.6865 946.676 Q56.6865 953.783 58.4921 957.348 Q60.3208 960.889 63.9319 960.889 Q67.5661 960.889 69.3717 957.348 Q71.2004 953.783 71.2004 946.676 Q71.2004 939.547 69.3717 936.005 Q67.5661 932.44 63.9319 932.44 M63.9319 928.737 Q69.742 928.737 72.7976 933.343 Q75.8763 937.926 75.8763 946.676 Q75.8763 955.403 72.7976 960.01 Q69.742 964.593 63.9319 964.593 Q58.1217 964.593 55.043 960.01 Q51.9875 955.403 51.9875 946.676 Q51.9875 937.926 55.043 933.343 Q58.1217 928.737 63.9319 928.737 Z" fill="#000000" fill-rule="evenodd" fill-opacity="1" /><path clip-path="url(#clip570)" d="M84.0938 958.042 L88.978 958.042 L88.978 963.922 L84.0938 963.922 L84.0938 958.042 Z" fill="#000000" fill-rule="evenodd" fill-opacity="1" /><path clip-path="url(#clip570)" d="M99.2095 929.362 L117.566 929.362 L117.566 933.297 L103.492 933.297 L103.492 941.769 Q104.51 941.422 105.529 941.26 Q106.547 941.075 107.566 941.075 Q113.353 941.075 116.733 944.246 Q120.112 947.417 120.112 952.834 Q120.112 958.412 116.64 961.514 Q113.168 964.593 106.848 964.593 Q104.672 964.593 102.404 964.223 Q100.159 963.852 97.7511 963.111 L97.7511 958.412 Q99.8345 959.547 102.057 960.102 Q104.279 960.658 106.756 960.658 Q110.76 960.658 113.098 958.551 Q115.436 956.445 115.436 952.834 Q115.436 949.223 113.098 947.116 Q110.76 945.01 106.756 945.01 Q104.881 945.01 103.006 945.426 Q101.154 945.843 99.2095 946.723 L99.2095 929.362 Z" fill="#000000" fill-rule="evenodd" fill-opacity="1" /><path clip-path="url(#clip570)" d="M53.7467 522.39 L61.3856 522.39 L61.3856 496.024 L53.0754 497.691 L53.0754 493.432 L61.3393 491.765 L66.0152 491.765 L66.0152 522.39 L73.654 522.39 L73.654 526.325 L53.7467 526.325 L53.7467 522.39 Z" fill="#000000" fill-rule="evenodd" fill-opacity="1" /><path clip-path="url(#clip570)" d="M83.0984 520.445 L87.9827 520.445 L87.9827 526.325 L83.0984 526.325 L83.0984 520.445 Z" fill="#000000" fill-rule="evenodd" fill-opacity="1" /><path clip-path="url(#clip570)" d="M108.168 494.844 Q104.557 494.844 102.728 498.408 Q100.922 501.95 100.922 509.08 Q100.922 516.186 102.728 519.751 Q104.557 523.293 108.168 523.293 Q111.802 523.293 113.608 519.751 Q115.436 516.186 115.436 509.08 Q115.436 501.95 113.608 498.408 Q111.802 494.844 108.168 494.844 M108.168 491.14 Q113.978 491.14 117.033 495.746 Q120.112 500.33 120.112 509.08 Q120.112 517.806 117.033 522.413 Q113.978 526.996 108.168 526.996 Q102.358 526.996 99.2789 522.413 Q96.2234 517.806 96.2234 509.08 Q96.2234 500.33 99.2789 495.746 Q102.358 491.14 108.168 491.14 Z" fill="#000000" fill-rule="evenodd" fill-opacity="1" /><path clip-path="url(#clip570)" d="M54.7421 84.7931 L62.381 84.7931 L62.381 58.4275 L54.0708 60.0942 L54.0708 55.835 L62.3347 54.1683 L67.0106 54.1683 L67.0106 84.7931 L74.6494 84.7931 L74.6494 88.7283 L54.7421 88.7283 L54.7421 84.7931 Z" fill="#000000" fill-rule="evenodd" fill-opacity="1" /><path clip-path="url(#clip570)" d="M84.0938 82.8487 L88.978 82.8487 L88.978 88.7283 L84.0938 88.7283 L84.0938 82.8487 Z" fill="#000000" fill-rule="evenodd" fill-opacity="1" /><path clip-path="url(#clip570)" d="M99.2095 54.1683 L117.566 54.1683 L117.566 58.1035 L103.492 58.1035 L103.492 66.5756 Q104.51 66.2284 105.529 66.0664 Q106.547 65.8812 107.566 65.8812 Q113.353 65.8812 116.733 69.0525 Q120.112 72.2238 120.112 77.6404 Q120.112 83.2191 116.64 86.3209 Q113.168 89.3996 106.848 89.3996 Q104.672 89.3996 102.404 89.0292 Q100.159 88.6589 97.7511 87.9181 L97.7511 83.2191 Q99.8345 84.3533 102.057 84.9089 Q104.279 85.4644 106.756 85.4644 Q110.76 85.4644 113.098 83.358 Q115.436 81.2515 115.436 77.6404 Q115.436 74.0293 113.098 71.9228 Q110.76 69.8164 106.756 69.8164 Q104.881 69.8164 103.006 70.233 Q101.154 70.6497 99.2095 71.5293 L99.2095 54.1683 Z" fill="#000000" fill-rule="evenodd" fill-opacity="1" /><polyline clip-path="url(#clip572)" style="stroke:#009af9; stroke-linecap:butt; stroke-linejoin:round; stroke-width:4; stroke-opacity:1; fill:none" points="
  218.281,1384.24 218.302,1384.24 218.509,1384.24 219.238,1384.24 220.307,1384.24 221.675,1384.23 223.419,1384.2 225.517,1384.13 227.991,1383.99 230.846,1383.72 
  234.127,1383.23 237.885,1382.39 242.197,1381.03 247.152,1378.85 252.854,1375.46 259.422,1370.34 266.998,1362.73 275.739,1351.67 285.83,1335.95 297.466,1314.09 
  310.847,1284.51 326.14,1245.71 343.454,1196.63 362.838,1137.02 384.325,1067.55 407.924,989.919 433.688,906.518 461.742,820.125 492.319,733.469 525.719,649.016 
  562.231,568.86 602.113,494.445 645.973,426.016 695.363,362.63 753.06,303.215 827.483,244.74 893.743,205.927 980.914,168.862 1071.66,142.351 1195.66,119.232 
  1301.29,107.154 1425.87,98.4221 1539.02,93.5907 1643.74,90.8134 1748.41,89.0655 1857.31,87.8178 1955.68,87.1743 2053.75,86.7436 2158.36,86.3759 2259.99,86.2265 
  2290.59,86.1857 
  "/>
<polyline clip-path="url(#clip572)" style="stroke:#e26f46; stroke-linecap:butt; stroke-linejoin:round; stroke-width:4; stroke-opacity:1; fill:none" points="
  218.281,1384.24 218.302,1383.89 218.509,1380.4 219.238,1368.23 220.307,1350.73 221.675,1328.87 223.419,1301.9 225.517,1270.75 227.991,1235.75 230.846,1197.61 
  234.127,1156.65 237.885,1113.26 242.197,1067.84 247.152,1021 252.854,973.563 259.422,926.652 266.998,881.638 275.739,840.133 285.83,803.899 297.466,774.702 
  310.847,754.075 326.14,742.977 343.454,741.423 362.838,748.288 384.325,761.47 407.924,778.303 433.688,796.103 461.742,812.629 492.319,826.395 525.719,836.775 
  562.231,843.955 602.113,848.725 645.973,852.093 695.363,854.867 753.06,857.446 827.483,859.979 893.743,861.57 980.914,863.01 1071.66,863.995 1195.66,864.851 
  1301.29,865.277 1425.87,865.571 1539.02,865.79 1643.74,865.838 1748.41,865.902 1857.31,866.006 1955.68,865.952 2053.75,865.995 2158.36,866.043 2259.99,865.983 
  2290.59,865.997 
  "/>
<path clip-path="url(#clip570)" d="
M1471.46 248.629 L2279.53 248.629 L2279.53 93.1086 L1471.46 93.1086  Z
  " fill="#ffffff" fill-rule="evenodd" fill-opacity="1"/>
<polyline clip-path="url(#clip570)" style="stroke:#000000; stroke-linecap:butt; stroke-linejoin:round; stroke-width:4; stroke-opacity:1; fill:none" points="
  1471.46,248.629 2279.53,248.629 2279.53,93.1086 1471.46,93.1086 1471.46,248.629 
  "/>
<polyline clip-path="url(#clip570)" style="stroke:#009af9; stroke-linecap:butt; stroke-linejoin:round; stroke-width:4; stroke-opacity:1; fill:none" points="
  1495.46,144.949 1639.46,144.949 
  "/>
<path clip-path="url(#clip570)" d="M1668.13 131.511 L1668.13 144.497 L1674.01 144.497 Q1677.28 144.497 1679.06 142.807 Q1680.84 141.118 1680.84 137.993 Q1680.84 134.891 1679.06 133.201 Q1677.28 131.511 1674.01 131.511 L1668.13 131.511 M1663.46 127.669 L1674.01 127.669 Q1679.82 127.669 1682.79 130.307 Q1685.77 132.923 1685.77 137.993 Q1685.77 143.108 1682.79 145.724 Q1679.82 148.34 1674.01 148.34 L1668.13 148.34 L1668.13 162.229 L1663.46 162.229 L1663.46 127.669 Z" fill="#000000" fill-rule="evenodd" fill-opacity="1" /><path clip-path="url(#clip570)" d="M1713.41 146.581 L1713.41 162.229 L1709.15 162.229 L1709.15 146.719 Q1709.15 143.039 1707.72 141.21 Q1706.28 139.382 1703.41 139.382 Q1699.96 139.382 1697.97 141.581 Q1695.98 143.78 1695.98 147.576 L1695.98 162.229 L1691.7 162.229 L1691.7 126.21 L1695.98 126.21 L1695.98 140.331 Q1697.51 137.993 1699.57 136.835 Q1701.65 135.678 1704.36 135.678 Q1708.83 135.678 1711.12 138.456 Q1713.41 141.21 1713.41 146.581 Z" fill="#000000" fill-rule="evenodd" fill-opacity="1" /><path clip-path="url(#clip570)" d="M1731.95 139.289 Q1728.53 139.289 1726.54 141.974 Q1724.55 144.636 1724.55 149.289 Q1724.55 153.942 1726.51 156.627 Q1728.5 159.289 1731.95 159.289 Q1735.36 159.289 1737.35 156.604 Q1739.34 153.918 1739.34 149.289 Q1739.34 144.682 1737.35 141.997 Q1735.36 139.289 1731.95 139.289 M1731.95 135.678 Q1737.51 135.678 1740.68 139.289 Q1743.85 142.9 1743.85 149.289 Q1743.85 155.655 1740.68 159.289 Q1737.51 162.9 1731.95 162.9 Q1726.38 162.9 1723.2 159.289 Q1720.06 155.655 1720.06 149.289 Q1720.06 142.9 1723.2 139.289 Q1726.38 135.678 1731.95 135.678 Z" fill="#000000" fill-rule="evenodd" fill-opacity="1" /><path clip-path="url(#clip570)" d="M1755.12 128.942 L1755.12 136.303 L1763.9 136.303 L1763.9 139.613 L1755.12 139.613 L1755.12 153.687 Q1755.12 156.858 1755.98 157.761 Q1756.86 158.664 1759.52 158.664 L1763.9 158.664 L1763.9 162.229 L1759.52 162.229 Q1754.59 162.229 1752.72 160.4 Q1750.84 158.548 1750.84 153.687 L1750.84 139.613 L1747.72 139.613 L1747.72 136.303 L1750.84 136.303 L1750.84 128.942 L1755.12 128.942 Z" fill="#000000" fill-rule="evenodd" fill-opacity="1" /><path clip-path="url(#clip570)" d="M1779.55 139.289 Q1776.12 139.289 1774.13 141.974 Q1772.14 144.636 1772.14 149.289 Q1772.14 153.942 1774.11 156.627 Q1776.1 159.289 1779.55 159.289 Q1782.95 159.289 1784.94 156.604 Q1786.93 153.918 1786.93 149.289 Q1786.93 144.682 1784.94 141.997 Q1782.95 139.289 1779.55 139.289 M1779.55 135.678 Q1785.1 135.678 1788.27 139.289 Q1791.44 142.9 1791.44 149.289 Q1791.44 155.655 1788.27 159.289 Q1785.1 162.9 1779.55 162.9 Q1773.97 162.9 1770.8 159.289 Q1767.65 155.655 1767.65 149.289 Q1767.65 142.9 1770.8 139.289 Q1773.97 135.678 1779.55 135.678 Z" fill="#000000" fill-rule="evenodd" fill-opacity="1" /><path clip-path="url(#clip570)" d="M1820.06 146.581 L1820.06 162.229 L1815.8 162.229 L1815.8 146.719 Q1815.8 143.039 1814.36 141.21 Q1812.93 139.382 1810.06 139.382 Q1806.61 139.382 1804.62 141.581 Q1802.62 143.78 1802.62 147.576 L1802.62 162.229 L1798.34 162.229 L1798.34 136.303 L1802.62 136.303 L1802.62 140.331 Q1804.15 137.993 1806.21 136.835 Q1808.3 135.678 1811 135.678 Q1815.47 135.678 1817.76 138.456 Q1820.06 141.21 1820.06 146.581 Z" fill="#000000" fill-rule="evenodd" fill-opacity="1" /><path clip-path="url(#clip570)" d="M1865.17 146.581 L1865.17 162.229 L1860.91 162.229 L1860.91 146.719 Q1860.91 143.039 1859.48 141.21 Q1858.04 139.382 1855.17 139.382 Q1851.72 139.382 1849.73 141.581 Q1847.74 143.78 1847.74 147.576 L1847.74 162.229 L1843.46 162.229 L1843.46 136.303 L1847.74 136.303 L1847.74 140.331 Q1849.27 137.993 1851.33 136.835 Q1853.41 135.678 1856.12 135.678 Q1860.59 135.678 1862.88 138.456 Q1865.17 141.21 1865.17 146.581 Z" fill="#000000" fill-rule="evenodd" fill-opacity="1" /><path clip-path="url(#clip570)" d="M1873.23 151.997 L1873.23 136.303 L1877.49 136.303 L1877.49 151.835 Q1877.49 155.516 1878.92 157.368 Q1880.36 159.196 1883.23 159.196 Q1886.68 159.196 1888.67 156.997 Q1890.68 154.798 1890.68 151.002 L1890.68 136.303 L1894.94 136.303 L1894.94 162.229 L1890.68 162.229 L1890.68 158.247 Q1889.13 160.608 1887.07 161.766 Q1885.03 162.9 1882.32 162.9 Q1877.86 162.9 1875.54 160.122 Q1873.23 157.344 1873.23 151.997 M1883.94 135.678 L1883.94 135.678 Z" fill="#000000" fill-rule="evenodd" fill-opacity="1" /><path clip-path="url(#clip570)" d="M1923.9 141.28 Q1925.49 138.409 1927.72 137.044 Q1929.94 135.678 1932.95 135.678 Q1937 135.678 1939.2 138.525 Q1941.4 141.349 1941.4 146.581 L1941.4 162.229 L1937.11 162.229 L1937.11 146.719 Q1937.11 142.993 1935.8 141.187 Q1934.48 139.382 1931.77 139.382 Q1928.46 139.382 1926.54 141.581 Q1924.61 143.78 1924.61 147.576 L1924.61 162.229 L1920.33 162.229 L1920.33 146.719 Q1920.33 142.969 1919.01 141.187 Q1917.69 139.382 1914.94 139.382 Q1911.68 139.382 1909.75 141.604 Q1907.83 143.803 1907.83 147.576 L1907.83 162.229 L1903.55 162.229 L1903.55 136.303 L1907.83 136.303 L1907.83 140.331 Q1909.29 137.946 1911.33 136.812 Q1913.36 135.678 1916.17 135.678 Q1918.99 135.678 1920.96 137.113 Q1922.95 138.548 1923.9 141.28 Z" fill="#000000" fill-rule="evenodd" fill-opacity="1" /><path clip-path="url(#clip570)" d="M1968.5 149.289 Q1968.5 144.59 1966.56 141.928 Q1964.64 139.243 1961.26 139.243 Q1957.88 139.243 1955.93 141.928 Q1954.01 144.59 1954.01 149.289 Q1954.01 153.988 1955.93 156.673 Q1957.88 159.335 1961.26 159.335 Q1964.64 159.335 1966.56 156.673 Q1968.5 153.988 1968.5 149.289 M1954.01 140.238 Q1955.36 137.923 1957.39 136.812 Q1959.45 135.678 1962.3 135.678 Q1967.02 135.678 1969.96 139.428 Q1972.92 143.178 1972.92 149.289 Q1972.92 155.4 1969.96 159.15 Q1967.02 162.9 1962.3 162.9 Q1959.45 162.9 1957.39 161.789 Q1955.36 160.655 1954.01 158.34 L1954.01 162.229 L1949.73 162.229 L1949.73 126.21 L1954.01 126.21 L1954.01 140.238 Z" fill="#000000" fill-rule="evenodd" fill-opacity="1" /><path clip-path="url(#clip570)" d="M2002.16 148.201 L2002.16 150.284 L1982.58 150.284 Q1982.86 154.682 1985.22 156.997 Q1987.6 159.289 1991.84 159.289 Q1994.29 159.289 1996.58 158.687 Q1998.9 158.085 2001.17 156.881 L2001.17 160.909 Q1998.87 161.881 1996.47 162.391 Q1994.06 162.9 1991.58 162.9 Q1985.38 162.9 1981.74 159.289 Q1978.13 155.678 1978.13 149.52 Q1978.13 143.155 1981.56 139.428 Q1985.01 135.678 1990.84 135.678 Q1996.07 135.678 1999.11 139.057 Q2002.16 142.414 2002.16 148.201 M1997.9 146.951 Q1997.86 143.456 1995.93 141.372 Q1994.04 139.289 1990.89 139.289 Q1987.32 139.289 1985.17 141.303 Q1983.04 143.317 1982.72 146.974 L1997.9 146.951 Z" fill="#000000" fill-rule="evenodd" fill-opacity="1" /><path clip-path="url(#clip570)" d="M2024.17 140.284 Q2023.46 139.868 2022.6 139.682 Q2021.77 139.474 2020.75 139.474 Q2017.14 139.474 2015.19 141.835 Q2013.27 144.173 2013.27 148.571 L2013.27 162.229 L2008.99 162.229 L2008.99 136.303 L2013.27 136.303 L2013.27 140.331 Q2014.61 137.969 2016.77 136.835 Q2018.92 135.678 2022 135.678 Q2022.44 135.678 2022.97 135.747 Q2023.5 135.794 2024.15 135.909 L2024.17 140.284 Z" fill="#000000" fill-rule="evenodd" fill-opacity="1" /><polyline clip-path="url(#clip570)" style="stroke:#e26f46; stroke-linecap:butt; stroke-linejoin:round; stroke-width:4; stroke-opacity:1; fill:none" points="
  1495.46,196.789 1639.46,196.789 
  "/>
<path clip-path="url(#clip570)" d="M1663.46 179.509 L1685.31 179.509 L1685.31 183.444 L1668.13 183.444 L1668.13 193.675 L1684.59 193.675 L1684.59 197.61 L1668.13 197.61 L1668.13 210.133 L1685.73 210.133 L1685.73 214.069 L1663.46 214.069 L1663.46 179.509 Z" fill="#000000" fill-rule="evenodd" fill-opacity="1" /><path clip-path="url(#clip570)" d="M1714.78 188.143 L1705.4 200.759 L1715.26 214.069 L1710.24 214.069 L1702.69 203.883 L1695.15 214.069 L1690.13 214.069 L1700.19 200.504 L1690.98 188.143 L1696 188.143 L1702.88 197.379 L1709.75 188.143 L1714.78 188.143 Z" fill="#000000" fill-rule="evenodd" fill-opacity="1" /><path clip-path="url(#clip570)" d="M1739.11 189.138 L1739.11 193.12 Q1737.3 192.124 1735.47 191.638 Q1733.67 191.129 1731.81 191.129 Q1727.67 191.129 1725.38 193.768 Q1723.09 196.384 1723.09 201.129 Q1723.09 205.874 1725.38 208.513 Q1727.67 211.129 1731.81 211.129 Q1733.67 211.129 1735.47 210.643 Q1737.3 210.133 1739.11 209.138 L1739.11 213.073 Q1737.32 213.907 1735.4 214.323 Q1733.5 214.74 1731.35 214.74 Q1725.5 214.74 1722.05 211.059 Q1718.6 207.379 1718.6 201.129 Q1718.6 194.786 1722.07 191.152 Q1725.56 187.518 1731.63 187.518 Q1733.6 187.518 1735.47 187.935 Q1737.35 188.328 1739.11 189.138 Z" fill="#000000" fill-rule="evenodd" fill-opacity="1" /><path clip-path="url(#clip570)" d="M1746.51 188.143 L1750.77 188.143 L1750.77 214.069 L1746.51 214.069 L1746.51 188.143 M1746.51 178.05 L1750.77 178.05 L1750.77 183.444 L1746.51 183.444 L1746.51 178.05 Z" fill="#000000" fill-rule="evenodd" fill-opacity="1" /><path clip-path="url(#clip570)" d="M1763.9 180.782 L1763.9 188.143 L1772.67 188.143 L1772.67 191.453 L1763.9 191.453 L1763.9 205.527 Q1763.9 208.698 1764.75 209.601 Q1765.63 210.504 1768.3 210.504 L1772.67 210.504 L1772.67 214.069 L1768.3 214.069 Q1763.37 214.069 1761.49 212.24 Q1759.62 210.388 1759.62 205.527 L1759.62 191.453 L1756.49 191.453 L1756.49 188.143 L1759.62 188.143 L1759.62 180.782 L1763.9 180.782 Z" fill="#000000" fill-rule="evenodd" fill-opacity="1" /><path clip-path="url(#clip570)" d="M1800.45 200.041 L1800.45 202.124 L1780.87 202.124 Q1781.14 206.522 1783.5 208.837 Q1785.89 211.129 1790.12 211.129 Q1792.58 211.129 1794.87 210.527 Q1797.18 209.925 1799.45 208.721 L1799.45 212.749 Q1797.16 213.721 1794.75 214.231 Q1792.35 214.74 1789.87 214.74 Q1783.67 214.74 1780.03 211.129 Q1776.42 207.518 1776.42 201.36 Q1776.42 194.995 1779.85 191.268 Q1783.3 187.518 1789.13 187.518 Q1794.36 187.518 1797.39 190.897 Q1800.45 194.254 1800.45 200.041 M1796.19 198.791 Q1796.14 195.296 1794.22 193.212 Q1792.32 191.129 1789.18 191.129 Q1785.61 191.129 1783.46 193.143 Q1781.33 195.157 1781 198.814 L1796.19 198.791 Z" fill="#000000" fill-rule="evenodd" fill-opacity="1" /><path clip-path="url(#clip570)" d="M1824.5 192.078 L1824.5 178.05 L1828.76 178.05 L1828.76 214.069 L1824.5 214.069 L1824.5 210.18 Q1823.16 212.495 1821.1 213.629 Q1819.06 214.74 1816.19 214.74 Q1811.49 214.74 1808.53 210.99 Q1805.59 207.24 1805.59 201.129 Q1805.59 195.018 1808.53 191.268 Q1811.49 187.518 1816.19 187.518 Q1819.06 187.518 1821.1 188.652 Q1823.16 189.763 1824.5 192.078 M1809.99 201.129 Q1809.99 205.828 1811.91 208.513 Q1813.85 211.175 1817.23 211.175 Q1820.61 211.175 1822.56 208.513 Q1824.5 205.828 1824.5 201.129 Q1824.5 196.43 1822.56 193.768 Q1820.61 191.083 1817.23 191.083 Q1813.85 191.083 1811.91 193.768 Q1809.99 196.43 1809.99 201.129 Z" fill="#000000" fill-rule="evenodd" fill-opacity="1" /><path clip-path="url(#clip570)" d="M1869.13 188.907 L1869.13 192.934 Q1867.32 192.009 1865.38 191.546 Q1863.43 191.083 1861.35 191.083 Q1858.18 191.083 1856.58 192.055 Q1855.01 193.027 1855.01 194.971 Q1855.01 196.453 1856.14 197.309 Q1857.28 198.143 1860.7 198.907 L1862.16 199.231 Q1866.7 200.203 1868.6 201.985 Q1870.52 203.745 1870.52 206.916 Q1870.52 210.527 1867.65 212.633 Q1864.8 214.74 1859.8 214.74 Q1857.72 214.74 1855.45 214.323 Q1853.2 213.93 1850.7 213.12 L1850.7 208.721 Q1853.06 209.948 1855.36 210.573 Q1857.65 211.175 1859.89 211.175 Q1862.9 211.175 1864.52 210.157 Q1866.14 209.115 1866.14 207.24 Q1866.14 205.504 1864.96 204.578 Q1863.8 203.652 1859.85 202.796 L1858.37 202.448 Q1854.41 201.615 1852.65 199.902 Q1850.89 198.166 1850.89 195.157 Q1850.89 191.499 1853.48 189.509 Q1856.07 187.518 1860.84 187.518 Q1863.2 187.518 1865.29 187.865 Q1867.37 188.212 1869.13 188.907 Z" fill="#000000" fill-rule="evenodd" fill-opacity="1" /><path clip-path="url(#clip570)" d="M1881.51 180.782 L1881.51 188.143 L1890.29 188.143 L1890.29 191.453 L1881.51 191.453 L1881.51 205.527 Q1881.51 208.698 1882.37 209.601 Q1883.25 210.504 1885.91 210.504 L1890.29 210.504 L1890.29 214.069 L1885.91 214.069 Q1880.98 214.069 1879.11 212.24 Q1877.23 210.388 1877.23 205.527 L1877.23 191.453 L1874.11 191.453 L1874.11 188.143 L1877.23 188.143 L1877.23 180.782 L1881.51 180.782 Z" fill="#000000" fill-rule="evenodd" fill-opacity="1" /><path clip-path="url(#clip570)" d="M1907.67 201.036 Q1902.51 201.036 1900.52 202.217 Q1898.53 203.397 1898.53 206.245 Q1898.53 208.513 1900.01 209.856 Q1901.51 211.175 1904.08 211.175 Q1907.62 211.175 1909.75 208.675 Q1911.91 206.152 1911.91 201.985 L1911.91 201.036 L1907.67 201.036 M1916.17 199.277 L1916.17 214.069 L1911.91 214.069 L1911.91 210.133 Q1910.45 212.495 1908.27 213.629 Q1906.1 214.74 1902.95 214.74 Q1898.97 214.74 1896.61 212.518 Q1894.27 210.272 1894.27 206.522 Q1894.27 202.147 1897.18 199.925 Q1900.12 197.703 1905.93 197.703 L1911.91 197.703 L1911.91 197.286 Q1911.91 194.347 1909.96 192.749 Q1908.04 191.129 1904.55 191.129 Q1902.32 191.129 1900.22 191.661 Q1898.11 192.194 1896.17 193.259 L1896.17 189.323 Q1898.5 188.421 1900.7 187.981 Q1902.9 187.518 1904.99 187.518 Q1910.61 187.518 1913.39 190.434 Q1916.17 193.351 1916.17 199.277 Z" fill="#000000" fill-rule="evenodd" fill-opacity="1" /><path clip-path="url(#clip570)" d="M1929.15 180.782 L1929.15 188.143 L1937.92 188.143 L1937.92 191.453 L1929.15 191.453 L1929.15 205.527 Q1929.15 208.698 1930.01 209.601 Q1930.89 210.504 1933.55 210.504 L1937.92 210.504 L1937.92 214.069 L1933.55 214.069 Q1928.62 214.069 1926.74 212.24 Q1924.87 210.388 1924.87 205.527 L1924.87 191.453 L1921.74 191.453 L1921.74 188.143 L1924.87 188.143 L1924.87 180.782 L1929.15 180.782 Z" fill="#000000" fill-rule="evenodd" fill-opacity="1" /><path clip-path="url(#clip570)" d="M1965.7 200.041 L1965.7 202.124 L1946.12 202.124 Q1946.4 206.522 1948.76 208.837 Q1951.14 211.129 1955.38 211.129 Q1957.83 211.129 1960.12 210.527 Q1962.44 209.925 1964.71 208.721 L1964.71 212.749 Q1962.42 213.721 1960.01 214.231 Q1957.6 214.74 1955.12 214.74 Q1948.92 214.74 1945.29 211.129 Q1941.67 207.518 1941.67 201.36 Q1941.67 194.995 1945.1 191.268 Q1948.55 187.518 1954.38 187.518 Q1959.61 187.518 1962.65 190.897 Q1965.7 194.254 1965.7 200.041 M1961.44 198.791 Q1961.4 195.296 1959.48 193.212 Q1957.58 191.129 1954.43 191.129 Q1950.86 191.129 1948.71 193.143 Q1946.58 195.157 1946.26 198.814 L1961.44 198.791 Z" fill="#000000" fill-rule="evenodd" fill-opacity="1" /><path clip-path="url(#clip570)" d="M1991.88 210.18 L1991.88 223.93 L1987.6 223.93 L1987.6 188.143 L1991.88 188.143 L1991.88 192.078 Q1993.23 189.763 1995.26 188.652 Q1997.32 187.518 2000.17 187.518 Q2004.89 187.518 2007.83 191.268 Q2010.79 195.018 2010.79 201.129 Q2010.79 207.24 2007.83 210.99 Q2004.89 214.74 2000.17 214.74 Q1997.32 214.74 1995.26 213.629 Q1993.23 212.495 1991.88 210.18 M2006.37 201.129 Q2006.37 196.43 2004.43 193.768 Q2002.51 191.083 1999.13 191.083 Q1995.75 191.083 1993.8 193.768 Q1991.88 196.43 1991.88 201.129 Q1991.88 205.828 1993.8 208.513 Q1995.75 211.175 1999.13 211.175 Q2002.51 211.175 2004.43 208.513 Q2006.37 205.828 2006.37 201.129 Z" fill="#000000" fill-rule="evenodd" fill-opacity="1" /><path clip-path="url(#clip570)" d="M2027.9 191.129 Q2024.48 191.129 2022.48 193.814 Q2020.49 196.476 2020.49 201.129 Q2020.49 205.782 2022.46 208.467 Q2024.45 211.129 2027.9 211.129 Q2031.3 211.129 2033.29 208.444 Q2035.29 205.758 2035.29 201.129 Q2035.29 196.522 2033.29 193.837 Q2031.3 191.129 2027.9 191.129 M2027.9 187.518 Q2033.46 187.518 2036.63 191.129 Q2039.8 194.74 2039.8 201.129 Q2039.8 207.495 2036.63 211.129 Q2033.46 214.74 2027.9 214.74 Q2022.32 214.74 2019.15 211.129 Q2016 207.495 2016 201.129 Q2016 194.74 2019.15 191.129 Q2022.32 187.518 2027.9 187.518 Z" fill="#000000" fill-rule="evenodd" fill-opacity="1" /><path clip-path="url(#clip570)" d="M2050.98 210.18 L2050.98 223.93 L2046.7 223.93 L2046.7 188.143 L2050.98 188.143 L2050.98 192.078 Q2052.32 189.763 2054.36 188.652 Q2056.42 187.518 2059.27 187.518 Q2063.99 187.518 2066.93 191.268 Q2069.89 195.018 2069.89 201.129 Q2069.89 207.24 2066.93 210.99 Q2063.99 214.74 2059.27 214.74 Q2056.42 214.74 2054.36 213.629 Q2052.32 212.495 2050.98 210.18 M2065.47 201.129 Q2065.47 196.43 2063.53 193.768 Q2061.6 191.083 2058.23 191.083 Q2054.85 191.083 2052.9 193.768 Q2050.98 196.43 2050.98 201.129 Q2050.98 205.828 2052.9 208.513 Q2054.85 211.175 2058.23 211.175 Q2061.6 211.175 2063.53 208.513 Q2065.47 205.828 2065.47 201.129 Z" fill="#000000" fill-rule="evenodd" fill-opacity="1" /><path clip-path="url(#clip570)" d="M2076.51 203.837 L2076.51 188.143 L2080.77 188.143 L2080.77 203.675 Q2080.77 207.356 2082.21 209.208 Q2083.64 211.036 2086.51 211.036 Q2089.96 211.036 2091.95 208.837 Q2093.97 206.638 2093.97 202.842 L2093.97 188.143 L2098.22 188.143 L2098.22 214.069 L2093.97 214.069 L2093.97 210.087 Q2092.41 212.448 2090.35 213.606 Q2088.32 214.74 2085.61 214.74 Q2081.14 214.74 2078.83 211.962 Q2076.51 209.184 2076.51 203.837 M2087.23 187.518 L2087.23 187.518 Z" fill="#000000" fill-rule="evenodd" fill-opacity="1" /><path clip-path="url(#clip570)" d="M2107 178.05 L2111.26 178.05 L2111.26 214.069 L2107 214.069 L2107 178.05 Z" fill="#000000" fill-rule="evenodd" fill-opacity="1" /><path clip-path="url(#clip570)" d="M2131.95 201.036 Q2126.79 201.036 2124.8 202.217 Q2122.81 203.397 2122.81 206.245 Q2122.81 208.513 2124.29 209.856 Q2125.79 211.175 2128.36 211.175 Q2131.91 211.175 2134.03 208.675 Q2136.19 206.152 2136.19 201.985 L2136.19 201.036 L2131.95 201.036 M2140.45 199.277 L2140.45 214.069 L2136.19 214.069 L2136.19 210.133 Q2134.73 212.495 2132.55 213.629 Q2130.38 214.74 2127.23 214.74 Q2123.25 214.74 2120.89 212.518 Q2118.55 210.272 2118.55 206.522 Q2118.55 202.147 2121.47 199.925 Q2124.41 197.703 2130.22 197.703 L2136.19 197.703 L2136.19 197.286 Q2136.19 194.347 2134.24 192.749 Q2132.32 191.129 2128.83 191.129 Q2126.6 191.129 2124.5 191.661 Q2122.39 192.194 2120.45 193.259 L2120.45 189.323 Q2122.79 188.421 2124.98 187.981 Q2127.18 187.518 2129.27 187.518 Q2134.89 187.518 2137.67 190.434 Q2140.45 193.351 2140.45 199.277 Z" fill="#000000" fill-rule="evenodd" fill-opacity="1" /><path clip-path="url(#clip570)" d="M2153.43 180.782 L2153.43 188.143 L2162.21 188.143 L2162.21 191.453 L2153.43 191.453 L2153.43 205.527 Q2153.43 208.698 2154.29 209.601 Q2155.17 210.504 2157.83 210.504 L2162.21 210.504 L2162.21 214.069 L2157.83 214.069 Q2152.9 214.069 2151.03 212.24 Q2149.15 210.388 2149.15 205.527 L2149.15 191.453 L2146.03 191.453 L2146.03 188.143 L2149.15 188.143 L2149.15 180.782 L2153.43 180.782 Z" fill="#000000" fill-rule="evenodd" fill-opacity="1" /><path clip-path="url(#clip570)" d="M2167.81 188.143 L2172.07 188.143 L2172.07 214.069 L2167.81 214.069 L2167.81 188.143 M2167.81 178.05 L2172.07 178.05 L2172.07 183.444 L2167.81 183.444 L2167.81 178.05 Z" fill="#000000" fill-rule="evenodd" fill-opacity="1" /><path clip-path="url(#clip570)" d="M2191.03 191.129 Q2187.6 191.129 2185.61 193.814 Q2183.62 196.476 2183.62 201.129 Q2183.62 205.782 2185.59 208.467 Q2187.58 211.129 2191.03 211.129 Q2194.43 211.129 2196.42 208.444 Q2198.41 205.758 2198.41 201.129 Q2198.41 196.522 2196.42 193.837 Q2194.43 191.129 2191.03 191.129 M2191.03 187.518 Q2196.58 187.518 2199.75 191.129 Q2202.92 194.74 2202.92 201.129 Q2202.92 207.495 2199.75 211.129 Q2196.58 214.74 2191.03 214.74 Q2185.45 214.74 2182.28 211.129 Q2179.13 207.495 2179.13 201.129 Q2179.13 194.74 2182.28 191.129 Q2185.45 187.518 2191.03 187.518 Z" fill="#000000" fill-rule="evenodd" fill-opacity="1" /><path clip-path="url(#clip570)" d="M2231.53 198.421 L2231.53 214.069 L2227.28 214.069 L2227.28 198.559 Q2227.28 194.879 2225.84 193.05 Q2224.4 191.222 2221.53 191.222 Q2218.09 191.222 2216.09 193.421 Q2214.1 195.62 2214.1 199.416 L2214.1 214.069 L2209.82 214.069 L2209.82 188.143 L2214.1 188.143 L2214.1 192.171 Q2215.63 189.833 2217.69 188.675 Q2219.78 187.518 2222.48 187.518 Q2226.95 187.518 2229.24 190.296 Q2231.53 193.05 2231.53 198.421 Z" fill="#000000" fill-rule="evenodd" fill-opacity="1" /></svg>
