<?xml version="1.0" encoding="utf-8"?>
<svg xmlns="http://www.w3.org/2000/svg" xmlns:xlink="http://www.w3.org/1999/xlink" width="600" height="400" viewBox="0 0 2400 1600">
<defs>
  <clipPath id="clip940">
    <rect x="0" y="0" width="2400" height="1600"/>
  </clipPath>
</defs>
<path clip-path="url(#clip940)" d="
M0 1600 L2400 1600 L2400 0 L0 0  Z
  " fill="#ffffff" fill-rule="evenodd" fill-opacity="1"/>
<defs>
  <clipPath id="clip941">
    <rect x="480" y="0" width="1681" height="1600"/>
  </clipPath>
</defs>
<path clip-path="url(#clip940)" d="
M86.9921 1505.26 L2352.76 1505.26 L2352.76 47.2441 L86.9921 47.2441  Z
  " fill="#ffffff" fill-rule="evenodd" fill-opacity="1"/>
<defs>
  <clipPath id="clip942">
    <rect x="86" y="47" width="2267" height="1459"/>
  </clipPath>
</defs>
<polyline clip-path="url(#clip942)" style="stroke:#000000; stroke-width:2; stroke-opacity:0.1; fill:none" points="
  151.118,1505.26 151.118,47.2441 
  "/>
<polyline clip-path="url(#clip942)" style="stroke:#000000; stroke-width:2; stroke-opacity:0.1; fill:none" points="
  685.496,1505.26 685.496,47.2441 
  "/>
<polyline clip-path="url(#clip942)" style="stroke:#000000; stroke-width:2; stroke-opacity:0.1; fill:none" points="
  1219.87,1505.26 1219.87,47.2441 
  "/>
<polyline clip-path="url(#clip942)" style="stroke:#000000; stroke-width:2; stroke-opacity:0.1; fill:none" points="
  1754.25,1505.26 1754.25,47.2441 
  "/>
<polyline clip-path="url(#clip942)" style="stroke:#000000; stroke-width:2; stroke-opacity:0.1; fill:none" points="
  2288.63,1505.26 2288.63,47.2441 
  "/>
<polyline clip-path="url(#clip940)" style="stroke:#000000; stroke-width:4; stroke-opacity:1; fill:none" points="
  86.9921,1505.26 2352.76,1505.26 
  "/>
<polyline clip-path="url(#clip940)" style="stroke:#000000; stroke-width:4; stroke-opacity:1; fill:none" points="
  151.118,1505.26 151.118,1487.76 
  "/>
<polyline clip-path="url(#clip940)" style="stroke:#000000; stroke-width:4; stroke-opacity:1; fill:none" points="
  685.496,1505.26 685.496,1487.76 
  "/>
<polyline clip-path="url(#clip940)" style="stroke:#000000; stroke-width:4; stroke-opacity:1; fill:none" points="
  1219.87,1505.26 1219.87,1487.76 
  "/>
<polyline clip-path="url(#clip940)" style="stroke:#000000; stroke-width:4; stroke-opacity:1; fill:none" points="
  1754.25,1505.26 1754.25,1487.76 
  "/>
<polyline clip-path="url(#clip940)" style="stroke:#000000; stroke-width:4; stroke-opacity:1; fill:none" points="
  2288.63,1505.26 2288.63,1487.76 
  "/>
<path clip-path="url(#clip940)" d="M 0 0 M132.634 1534.45 Q129.023 1534.45 127.194 1538.02 Q125.388 1541.56 125.388 1548.69 Q125.388 1555.79 127.194 1559.36 Q129.023 1562.9 132.634 1562.9 Q136.268 1562.9 138.074 1559.36 Q139.902 1555.79 139.902 1548.69 Q139.902 1541.56 138.074 1538.02 Q136.268 1534.45 132.634 1534.45 M132.634 1530.75 Q138.444 1530.75 141.5 1535.35 Q144.578 1539.94 144.578 1548.69 Q144.578 1557.41 141.5 1562.02 Q138.444 1566.6 132.634 1566.6 Q126.824 1566.6 123.745 1562.02 Q120.689 1557.41 120.689 1548.69 Q120.689 1539.94 123.745 1535.35 Q126.824 1530.75 132.634 1530.75 Z" fill="#000000" fill-rule="evenodd" fill-opacity="1" /><path clip-path="url(#clip940)" d="M 0 0 M149.648 1560.05 L154.532 1560.05 L154.532 1565.93 L149.648 1565.93 L149.648 1560.05 Z" fill="#000000" fill-rule="evenodd" fill-opacity="1" /><path clip-path="url(#clip940)" d="M 0 0 M169.601 1534.45 Q165.99 1534.45 164.161 1538.02 Q162.356 1541.56 162.356 1548.69 Q162.356 1555.79 164.161 1559.36 Q165.99 1562.9 169.601 1562.9 Q173.235 1562.9 175.041 1559.36 Q176.87 1555.79 176.87 1548.69 Q176.87 1541.56 175.041 1538.02 Q173.235 1534.45 169.601 1534.45 M169.601 1530.75 Q175.411 1530.75 178.467 1535.35 Q181.546 1539.94 181.546 1548.69 Q181.546 1557.41 178.467 1562.02 Q175.411 1566.6 169.601 1566.6 Q163.791 1566.6 160.712 1562.02 Q157.657 1557.41 157.657 1548.69 Q157.657 1539.94 160.712 1535.35 Q163.791 1530.75 169.601 1530.75 Z" fill="#000000" fill-rule="evenodd" fill-opacity="1" /><path clip-path="url(#clip940)" d="M 0 0 M662.163 1562 L678.482 1562 L678.482 1565.93 L656.538 1565.93 L656.538 1562 Q659.2 1559.24 663.783 1554.61 Q668.389 1549.96 669.57 1548.62 Q671.815 1546.09 672.695 1544.36 Q673.598 1542.6 673.598 1540.91 Q673.598 1538.15 671.653 1536.42 Q669.732 1534.68 666.63 1534.68 Q664.431 1534.68 661.977 1535.45 Q659.547 1536.21 656.769 1537.76 L656.769 1533.04 Q659.593 1531.9 662.047 1531.33 Q664.501 1530.75 666.538 1530.75 Q671.908 1530.75 675.102 1533.43 Q678.297 1536.12 678.297 1540.61 Q678.297 1542.74 677.487 1544.66 Q676.7 1546.56 674.593 1549.15 Q674.014 1549.82 670.913 1553.04 Q667.811 1556.23 662.163 1562 Z" fill="#000000" fill-rule="evenodd" fill-opacity="1" /><path clip-path="url(#clip940)" d="M 0 0 M683.551 1560.05 L688.436 1560.05 L688.436 1565.93 L683.551 1565.93 L683.551 1560.05 Z" fill="#000000" fill-rule="evenodd" fill-opacity="1" /><path clip-path="url(#clip940)" d="M 0 0 M693.551 1531.37 L711.908 1531.37 L711.908 1535.31 L697.834 1535.31 L697.834 1543.78 Q698.852 1543.43 699.871 1543.27 Q700.889 1543.08 701.908 1543.08 Q707.695 1543.08 711.074 1546.26 Q714.454 1549.43 714.454 1554.84 Q714.454 1560.42 710.982 1563.52 Q707.51 1566.6 701.19 1566.6 Q699.014 1566.6 696.746 1566.23 Q694.5 1565.86 692.093 1565.12 L692.093 1560.42 Q694.176 1561.56 696.398 1562.11 Q698.621 1562.67 701.098 1562.67 Q705.102 1562.67 707.44 1560.56 Q709.778 1558.46 709.778 1554.84 Q709.778 1551.23 707.44 1549.13 Q705.102 1547.02 701.098 1547.02 Q699.223 1547.02 697.348 1547.44 Q695.496 1547.85 693.551 1548.73 L693.551 1531.37 Z" fill="#000000" fill-rule="evenodd" fill-opacity="1" /><path clip-path="url(#clip940)" d="M 0 0 M1191.67 1531.37 L1210.02 1531.37 L1210.02 1535.31 L1195.95 1535.31 L1195.95 1543.78 Q1196.97 1543.43 1197.99 1543.27 Q1199.01 1543.08 1200.02 1543.08 Q1205.81 1543.08 1209.19 1546.26 Q1212.57 1549.43 1212.57 1554.84 Q1212.57 1560.42 1209.1 1563.52 Q1205.63 1566.6 1199.31 1566.6 Q1197.13 1566.6 1194.86 1566.23 Q1192.62 1565.86 1190.21 1565.12 L1190.21 1560.42 Q1192.29 1561.56 1194.52 1562.11 Q1196.74 1562.67 1199.21 1562.67 Q1203.22 1562.67 1205.56 1560.56 Q1207.89 1558.46 1207.89 1554.84 Q1207.89 1551.23 1205.56 1549.13 Q1203.22 1547.02 1199.21 1547.02 Q1197.34 1547.02 1195.46 1547.44 Q1193.61 1547.85 1191.67 1548.73 L1191.67 1531.37 Z" fill="#000000" fill-rule="evenodd" fill-opacity="1" /><path clip-path="url(#clip940)" d="M 0 0 M1217.64 1560.05 L1222.52 1560.05 L1222.52 1565.93 L1217.64 1565.93 L1217.64 1560.05 Z" fill="#000000" fill-rule="evenodd" fill-opacity="1" /><path clip-path="url(#clip940)" d="M 0 0 M1237.59 1534.45 Q1233.98 1534.45 1232.15 1538.02 Q1230.35 1541.56 1230.35 1548.69 Q1230.35 1555.79 1232.15 1559.36 Q1233.98 1562.9 1237.59 1562.9 Q1241.23 1562.9 1243.03 1559.36 Q1244.86 1555.79 1244.86 1548.69 Q1244.86 1541.56 1243.03 1538.02 Q1241.23 1534.45 1237.59 1534.45 M1237.59 1530.75 Q1243.4 1530.75 1246.46 1535.35 Q1249.54 1539.94 1249.54 1548.69 Q1249.54 1557.41 1246.46 1562.02 Q1243.4 1566.6 1237.59 1566.6 Q1231.78 1566.6 1228.7 1562.02 Q1225.65 1557.41 1225.65 1548.69 Q1225.65 1539.94 1228.7 1535.35 Q1231.78 1530.75 1237.59 1530.75 Z" fill="#000000" fill-rule="evenodd" fill-opacity="1" /><path clip-path="url(#clip940)" d="M 0 0 M1725.16 1531.37 L1747.38 1531.37 L1747.38 1533.36 L1734.83 1565.93 L1729.95 1565.93 L1741.75 1535.31 L1725.16 1535.31 L1725.16 1531.37 Z" fill="#000000" fill-rule="evenodd" fill-opacity="1" /><path clip-path="url(#clip940)" d="M 0 0 M1752.45 1560.05 L1757.33 1560.05 L1757.33 1565.93 L1752.45 1565.93 L1752.45 1560.05 Z" fill="#000000" fill-rule="evenodd" fill-opacity="1" /><path clip-path="url(#clip940)" d="M 0 0 M1762.45 1531.37 L1780.8 1531.37 L1780.8 1535.31 L1766.73 1535.31 L1766.73 1543.78 Q1767.75 1543.43 1768.77 1543.27 Q1769.78 1543.08 1770.8 1543.08 Q1776.59 1543.08 1779.97 1546.26 Q1783.35 1549.43 1783.35 1554.84 Q1783.35 1560.42 1779.88 1563.52 Q1776.4 1566.6 1770.09 1566.6 Q1767.91 1566.6 1765.64 1566.23 Q1763.4 1565.86 1760.99 1565.12 L1760.99 1560.42 Q1763.07 1561.56 1765.29 1562.11 Q1767.52 1562.67 1769.99 1562.67 Q1774 1562.67 1776.34 1560.56 Q1778.67 1558.46 1778.67 1554.84 Q1778.67 1551.23 1776.34 1549.13 Q1774 1547.02 1769.99 1547.02 Q1768.12 1547.02 1766.24 1547.44 Q1764.39 1547.85 1762.45 1548.73 L1762.45 1531.37 Z" fill="#000000" fill-rule="evenodd" fill-opacity="1" /><path clip-path="url(#clip940)" d="M 0 0 M2247.02 1562 L2254.66 1562 L2254.66 1535.63 L2246.35 1537.3 L2246.35 1533.04 L2254.61 1531.37 L2259.29 1531.37 L2259.29 1562 L2266.93 1562 L2266.93 1565.93 L2247.02 1565.93 L2247.02 1562 Z" fill="#000000" fill-rule="evenodd" fill-opacity="1" /><path clip-path="url(#clip940)" d="M 0 0 M2282 1534.45 Q2278.39 1534.45 2276.56 1538.02 Q2274.75 1541.56 2274.75 1548.69 Q2274.75 1555.79 2276.56 1559.36 Q2278.39 1562.9 2282 1562.9 Q2285.63 1562.9 2287.44 1559.36 Q2289.27 1555.79 2289.27 1548.69 Q2289.27 1541.56 2287.44 1538.02 Q2285.63 1534.45 2282 1534.45 M2282 1530.75 Q2287.81 1530.75 2290.86 1535.35 Q2293.94 1539.94 2293.94 1548.69 Q2293.94 1557.41 2290.86 1562.02 Q2287.81 1566.6 2282 1566.6 Q2276.19 1566.6 2273.11 1562.02 Q2270.05 1557.41 2270.05 1548.69 Q2270.05 1539.94 2273.11 1535.35 Q2276.19 1530.75 2282 1530.75 Z" fill="#000000" fill-rule="evenodd" fill-opacity="1" /><path clip-path="url(#clip940)" d="M 0 0 M2299.01 1560.05 L2303.9 1560.05 L2303.9 1565.93 L2299.01 1565.93 L2299.01 1560.05 Z" fill="#000000" fill-rule="evenodd" fill-opacity="1" /><path clip-path="url(#clip940)" d="M 0 0 M2318.97 1534.45 Q2315.35 1534.45 2313.53 1538.02 Q2311.72 1541.56 2311.72 1548.69 Q2311.72 1555.79 2313.53 1559.36 Q2315.35 1562.9 2318.97 1562.9 Q2322.6 1562.9 2324.41 1559.36 Q2326.23 1555.79 2326.23 1548.69 Q2326.23 1541.56 2324.41 1538.02 Q2322.6 1534.45 2318.97 1534.45 M2318.97 1530.75 Q2324.78 1530.75 2327.83 1535.35 Q2330.91 1539.94 2330.91 1548.69 Q2330.91 1557.41 2327.83 1562.02 Q2324.78 1566.6 2318.97 1566.6 Q2313.16 1566.6 2310.08 1562.02 Q2307.02 1557.41 2307.02 1548.69 Q2307.02 1539.94 2310.08 1535.35 Q2313.16 1530.75 2318.97 1530.75 Z" fill="#000000" fill-rule="evenodd" fill-opacity="1" /><path clip-path="url(#clip940)" d="M 0 0 M1218.94 1592.35 L1218.94 1602.48 L1231 1602.48 L1231 1607.03 L1218.94 1607.03 L1218.94 1626.38 Q1218.94 1630.74 1220.11 1631.98 Q1221.32 1633.22 1224.98 1633.22 L1231 1633.22 L1231 1638.12 L1224.98 1638.12 Q1218.2 1638.12 1215.62 1635.61 Q1213.05 1633.06 1213.05 1626.38 L1213.05 1607.03 L1208.75 1607.03 L1208.75 1602.48 L1213.05 1602.48 L1213.05 1592.35 L1218.94 1592.35 Z" fill="#000000" fill-rule="evenodd" fill-opacity="1" /><polyline clip-path="url(#clip942)" style="stroke:#000000; stroke-width:2; stroke-opacity:0.1; fill:none" points="
  86.9921,1464 2352.76,1464 
  "/>
<polyline clip-path="url(#clip942)" style="stroke:#000000; stroke-width:2; stroke-opacity:0.1; fill:none" points="
  86.9921,1000.29 2352.76,1000.29 
  "/>
<polyline clip-path="url(#clip942)" style="stroke:#000000; stroke-width:2; stroke-opacity:0.1; fill:none" points="
  86.9921,536.593 2352.76,536.593 
  "/>
<polyline clip-path="url(#clip942)" style="stroke:#000000; stroke-width:2; stroke-opacity:0.1; fill:none" points="
  86.9921,72.8922 2352.76,72.8922 
  "/>
<polyline clip-path="url(#clip940)" style="stroke:#000000; stroke-width:4; stroke-opacity:1; fill:none" points="
  86.9921,1505.26 86.9921,47.2441 
  "/>
<polyline clip-path="url(#clip940)" style="stroke:#000000; stroke-width:4; stroke-opacity:1; fill:none" points="
  86.9921,1464 114.181,1464 
  "/>
<polyline clip-path="url(#clip940)" style="stroke:#000000; stroke-width:4; stroke-opacity:1; fill:none" points="
  86.9921,1000.29 114.181,1000.29 
  "/>
<polyline clip-path="url(#clip940)" style="stroke:#000000; stroke-width:4; stroke-opacity:1; fill:none" points="
  86.9921,536.593 114.181,536.593 
  "/>
<polyline clip-path="url(#clip940)" style="stroke:#000000; stroke-width:4; stroke-opacity:1; fill:none" points="
  86.9921,72.8922 114.181,72.8922 
  "/>
<path clip-path="url(#clip940)" d="M 0 0 M2.08035 1449.79 Q-1.53074 1449.79 -3.35943 1453.36 Q-5.16498 1456.9 -5.16498 1464.03 Q-5.16498 1471.14 -3.35943 1474.7 Q-1.53074 1478.24 2.08035 1478.24 Q5.71459 1478.24 7.52014 1474.7 Q9.34883 1471.14 9.34883 1464.03 Q9.34883 1456.9 7.52014 1453.36 Q5.71459 1449.79 2.08035 1449.79 M2.08035 1446.09 Q7.89051 1446.09 10.946 1450.7 Q14.0247 1455.28 14.0247 1464.03 Q14.0247 1472.76 10.946 1477.36 Q7.89051 1481.95 2.08035 1481.95 Q-3.7298 1481.95 -6.80849 1477.36 Q-9.86403 1472.76 -9.86403 1464.03 Q-9.86403 1455.28 -6.80849 1450.7 Q-3.7298 1446.09 2.08035 1446.09 Z" fill="#000000" fill-rule="evenodd" fill-opacity="1" /><path clip-path="url(#clip940)" d="M 0 0 M19.0941 1475.4 L23.9784 1475.4 L23.9784 1481.28 L19.0941 1481.28 L19.0941 1475.4 Z" fill="#000000" fill-rule="evenodd" fill-opacity="1" /><path clip-path="url(#clip940)" d="M 0 0 M39.0477 1449.79 Q35.4367 1449.79 33.608 1453.36 Q31.8024 1456.9 31.8024 1464.03 Q31.8024 1471.14 33.608 1474.7 Q35.4367 1478.24 39.0477 1478.24 Q42.682 1478.24 44.4875 1474.7 Q46.3162 1471.14 46.3162 1464.03 Q46.3162 1456.9 44.4875 1453.36 Q42.682 1449.79 39.0477 1449.79 M39.0477 1446.09 Q44.8579 1446.09 47.9134 1450.7 Q50.9921 1455.28 50.9921 1464.03 Q50.9921 1472.76 47.9134 1477.36 Q44.8579 1481.95 39.0477 1481.95 Q33.2376 1481.95 30.1589 1477.36 Q27.1034 1472.76 27.1034 1464.03 Q27.1034 1455.28 30.1589 1450.7 Q33.2376 1446.09 39.0477 1446.09 Z" fill="#000000" fill-rule="evenodd" fill-opacity="1" /><path clip-path="url(#clip940)" d="M 0 0 M3.07572 986.093 Q-0.535376 986.093 -2.36407 989.658 Q-4.16962 993.199 -4.16962 1000.33 Q-4.16962 1007.44 -2.36407 1011 Q-0.535376 1014.54 3.07572 1014.54 Q6.70996 1014.54 8.5155 1011 Q10.3442 1007.44 10.3442 1000.33 Q10.3442 993.199 8.5155 989.658 Q6.70996 986.093 3.07572 986.093 M3.07572 982.389 Q8.88587 982.389 11.9414 986.996 Q15.0201 991.579 15.0201 1000.33 Q15.0201 1009.06 11.9414 1013.66 Q8.88587 1018.25 3.07572 1018.25 Q-2.73444 1018.25 -5.81313 1013.66 Q-8.86866 1009.06 -8.86866 1000.33 Q-8.86866 991.579 -5.81313 986.996 Q-2.73444 982.389 3.07572 982.389 Z" fill="#000000" fill-rule="evenodd" fill-opacity="1" /><path clip-path="url(#clip940)" d="M 0 0 M20.0895 1011.69 L24.9737 1011.69 L24.9737 1017.57 L20.0895 1017.57 L20.0895 1011.69 Z" fill="#000000" fill-rule="evenodd" fill-opacity="1" /><path clip-path="url(#clip940)" d="M 0 0 M30.0895 983.014 L48.4458 983.014 L48.4458 986.949 L34.3718 986.949 L34.3718 995.422 Q35.3904 995.074 36.4089 994.912 Q37.4274 994.727 38.4459 994.727 Q44.2329 994.727 47.6125 997.898 Q50.9921 1001.07 50.9921 1006.49 Q50.9921 1012.06 47.5199 1015.17 Q44.0477 1018.25 37.7283 1018.25 Q35.5524 1018.25 33.2839 1017.88 Q31.0385 1017.5 28.6311 1016.76 L28.6311 1012.06 Q30.7145 1013.2 32.9367 1013.75 Q35.1589 1014.31 37.6357 1014.31 Q41.6403 1014.31 43.9783 1012.2 Q46.3162 1010.1 46.3162 1006.49 Q46.3162 1002.88 43.9783 1000.77 Q41.6403 998.662 37.6357 998.662 Q35.7607 998.662 33.8857 999.079 Q32.0339 999.496 30.0895 1000.38 L30.0895 983.014 Z" fill="#000000" fill-rule="evenodd" fill-opacity="1" /><path clip-path="url(#clip940)" d="M 0 0 M-5.88257 549.938 L1.75628 549.938 L1.75628 523.572 L-6.55386 525.239 L-6.55386 520.98 L1.70998 519.313 L6.38588 519.313 L6.38588 549.938 L14.0247 549.938 L14.0247 553.873 L-5.88257 553.873 L-5.88257 549.938 Z" fill="#000000" fill-rule="evenodd" fill-opacity="1" /><path clip-path="url(#clip940)" d="M 0 0 M19.0941 547.994 L23.9784 547.994 L23.9784 553.873 L19.0941 553.873 L19.0941 547.994 Z" fill="#000000" fill-rule="evenodd" fill-opacity="1" /><path clip-path="url(#clip940)" d="M 0 0 M39.0477 522.392 Q35.4367 522.392 33.608 525.957 Q31.8024 529.498 31.8024 536.628 Q31.8024 543.734 33.608 547.299 Q35.4367 550.841 39.0477 550.841 Q42.682 550.841 44.4875 547.299 Q46.3162 543.734 46.3162 536.628 Q46.3162 529.498 44.4875 525.957 Q42.682 522.392 39.0477 522.392 M39.0477 518.688 Q44.8579 518.688 47.9134 523.295 Q50.9921 527.878 50.9921 536.628 Q50.9921 545.355 47.9134 549.961 Q44.8579 554.544 39.0477 554.544 Q33.2376 554.544 30.1589 549.961 Q27.1034 545.355 27.1034 536.628 Q27.1034 527.878 30.1589 523.295 Q33.2376 518.688 39.0477 518.688 Z" fill="#000000" fill-rule="evenodd" fill-opacity="1" /><path clip-path="url(#clip940)" d="M 0 0 M-4.8872 86.237 L2.75164 86.237 L2.75164 59.8714 L-5.5585 61.5381 L-5.5585 57.2788 L2.70535 55.6122 L7.38125 55.6122 L7.38125 86.237 L15.0201 86.237 L15.0201 90.1722 L-4.8872 90.1722 L-4.8872 86.237 Z" fill="#000000" fill-rule="evenodd" fill-opacity="1" /><path clip-path="url(#clip940)" d="M 0 0 M20.0895 84.2926 L24.9737 84.2926 L24.9737 90.1722 L20.0895 90.1722 L20.0895 84.2926 Z" fill="#000000" fill-rule="evenodd" fill-opacity="1" /><path clip-path="url(#clip940)" d="M 0 0 M30.0895 55.6122 L48.4458 55.6122 L48.4458 59.5473 L34.3718 59.5473 L34.3718 68.0195 Q35.3904 67.6723 36.4089 67.5103 Q37.4274 67.3251 38.4459 67.3251 Q44.2329 67.3251 47.6125 70.4964 Q50.9921 73.6676 50.9921 79.0843 Q50.9921 84.6629 47.5199 87.7648 Q44.0477 90.8435 37.7283 90.8435 Q35.5524 90.8435 33.2839 90.4731 Q31.0385 90.1027 28.6311 89.362 L28.6311 84.6629 Q30.7145 85.7972 32.9367 86.3528 Q35.1589 86.9083 37.6357 86.9083 Q41.6403 86.9083 43.9783 84.8018 Q46.3162 82.6954 46.3162 79.0843 Q46.3162 75.4732 43.9783 73.3667 Q41.6403 71.2602 37.6357 71.2602 Q35.7607 71.2602 33.8857 71.6769 Q32.0339 72.0936 30.0895 72.9732 L30.0895 55.6122 Z" fill="#000000" fill-rule="evenodd" fill-opacity="1" /><polyline clip-path="url(#clip942)" style="stroke:#009af9; stroke-width:4; stroke-opacity:1; fill:none" points="
  151.118,1464 151.139,1464 151.353,1464 152.105,1463.99 153.207,1463.99 154.618,1463.98 156.417,1463.95 158.581,1463.88 161.132,1463.73 164.078,1463.45 
  167.461,1462.93 171.338,1462.04 175.786,1460.59 180.897,1458.28 186.778,1454.7 193.553,1449.26 201.367,1441.2 210.384,1429.48 220.791,1412.82 232.794,1389.67 
  246.596,1358.32 262.37,1317.2 280.229,1265.19 300.223,1202.03 322.386,1128.42 346.727,1046.15 373.302,957.777 402.239,866.23 433.778,774.405 468.23,684.914 
  505.89,599.976 547.027,521.122 592.267,448.611 643.212,381.444 702.723,318.485 779.489,256.522 847.834,215.393 937.748,176.117 1031.35,148.025 1159.25,123.527 
  1268.21,110.728 1396.7,101.475 1513.42,96.3555 1621.43,93.4124 1729.39,91.5603 1841.72,90.2381 1943.18,89.5562 2044.34,89.0999 2152.24,88.7103 2257.07,88.5519 
  2288.63,88.5087 
  "/>
<polyline clip-path="url(#clip942)" style="stroke:#e26f46; stroke-width:4; stroke-opacity:1; fill:none" points="
  151.118,1464 151.139,1463.62 151.353,1459.92 152.105,1447.03 153.207,1428.48 154.618,1405.32 156.417,1376.74 158.581,1343.73 161.132,1306.65 164.078,1266.24 
  167.461,1222.83 171.338,1176.85 175.786,1128.72 180.897,1079.08 186.778,1028.82 193.553,979.112 201.367,931.413 210.384,887.432 220.791,849.036 232.794,818.098 
  246.596,796.241 262.37,784.48 280.229,782.833 300.223,790.108 322.386,804.076 346.727,821.914 373.302,840.776 402.239,858.287 433.778,872.875 468.23,883.874 
  505.89,891.482 547.027,896.537 592.267,900.105 643.212,903.045 702.723,905.777 779.489,908.461 847.834,910.147 937.748,911.674 1031.35,912.718 1159.25,913.625 
  1268.21,914.076 1396.7,914.388 1513.42,914.62 1621.43,914.671 1729.39,914.739 1841.72,914.848 1943.18,914.791 2044.34,914.837 2152.24,914.888 2257.07,914.824 
  2288.63,914.838 
  "/>
<path clip-path="url(#clip940)" d="
M1517.75 277.285 L2277.23 277.285 L2277.23 95.8446 L1517.75 95.8446  Z
  " fill="#ffffff" fill-rule="evenodd" fill-opacity="1"/>
<polyline clip-path="url(#clip940)" style="stroke:#000000; stroke-width:4; stroke-opacity:1; fill:none" points="
  1517.75,277.285 2277.23,277.285 2277.23,95.8446 1517.75,95.8446 1517.75,277.285 
  "/>
<polyline clip-path="url(#clip940)" style="stroke:#009af9; stroke-width:4; stroke-opacity:1; fill:none" points="
  1542.93,156.325 1693.98,156.325 
  "/>
<path clip-path="url(#clip940)" d="M 0 0 M1723.83 142.887 L1723.83 155.873 L1729.71 155.873 Q1732.97 155.873 1734.75 154.183 Q1736.54 152.494 1736.54 149.369 Q1736.54 146.267 1734.75 144.577 Q1732.97 142.887 1729.71 142.887 L1723.83 142.887 M1719.15 139.045 L1729.71 139.045 Q1735.52 139.045 1738.48 141.683 Q1741.47 144.299 1741.47 149.369 Q1741.47 154.484 1738.48 157.1 Q1735.52 159.716 1729.71 159.716 L1723.83 159.716 L1723.83 173.605 L1719.15 173.605 L1719.15 139.045 Z" fill="#000000" fill-rule="evenodd" fill-opacity="1" /><path clip-path="url(#clip940)" d="M 0 0 M1767.48 157.957 L1767.48 173.605 L1763.23 173.605 L1763.23 158.095 Q1763.23 154.415 1761.79 152.586 Q1760.35 150.758 1757.48 150.758 Q1754.04 150.758 1752.04 152.957 Q1750.05 155.156 1750.05 158.952 L1750.05 173.605 L1745.77 173.605 L1745.77 137.586 L1750.05 137.586 L1750.05 151.707 Q1751.58 149.369 1753.64 148.211 Q1755.73 147.054 1758.43 147.054 Q1762.9 147.054 1765.19 149.832 Q1767.48 152.586 1767.48 157.957 Z" fill="#000000" fill-rule="evenodd" fill-opacity="1" /><path clip-path="url(#clip940)" d="M 0 0 M1782 150.665 Q1778.57 150.665 1776.58 153.35 Q1774.59 156.012 1774.59 160.665 Q1774.59 165.318 1776.56 168.003 Q1778.55 170.665 1782 170.665 Q1785.4 170.665 1787.39 167.98 Q1789.38 165.294 1789.38 160.665 Q1789.38 156.058 1787.39 153.373 Q1785.4 150.665 1782 150.665 M1782 147.054 Q1787.55 147.054 1790.73 150.665 Q1793.9 154.276 1793.9 160.665 Q1793.9 167.031 1790.73 170.665 Q1787.55 174.276 1782 174.276 Q1776.42 174.276 1773.25 170.665 Q1770.1 167.031 1770.1 160.665 Q1770.1 154.276 1773.25 150.665 Q1776.42 147.054 1782 147.054 Z" fill="#000000" fill-rule="evenodd" fill-opacity="1" /><path clip-path="url(#clip940)" d="M 0 0 M1802.58 140.318 L1802.58 147.679 L1811.35 147.679 L1811.35 150.989 L1802.58 150.989 L1802.58 165.063 Q1802.58 168.234 1803.43 169.137 Q1804.31 170.04 1806.97 170.04 L1811.35 170.04 L1811.35 173.605 L1806.97 173.605 Q1802.04 173.605 1800.17 171.776 Q1798.29 169.924 1798.29 165.063 L1798.29 150.989 L1795.17 150.989 L1795.17 147.679 L1798.29 147.679 L1798.29 140.318 L1802.58 140.318 Z" fill="#000000" fill-rule="evenodd" fill-opacity="1" /><path clip-path="url(#clip940)" d="M 0 0 M1825.86 150.665 Q1822.44 150.665 1820.45 153.35 Q1818.46 156.012 1818.46 160.665 Q1818.46 165.318 1820.42 168.003 Q1822.41 170.665 1825.86 170.665 Q1829.27 170.665 1831.26 167.98 Q1833.25 165.294 1833.25 160.665 Q1833.25 156.058 1831.26 153.373 Q1829.27 150.665 1825.86 150.665 M1825.86 147.054 Q1831.42 147.054 1834.59 150.665 Q1837.76 154.276 1837.76 160.665 Q1837.76 167.031 1834.59 170.665 Q1831.42 174.276 1825.86 174.276 Q1820.29 174.276 1817.11 170.665 Q1813.97 167.031 1813.97 160.665 Q1813.97 154.276 1817.11 150.665 Q1820.29 147.054 1825.86 147.054 Z" fill="#000000" fill-rule="evenodd" fill-opacity="1" /><path clip-path="url(#clip940)" d="M 0 0 M1863.78 157.957 L1863.78 173.605 L1859.52 173.605 L1859.52 158.095 Q1859.52 154.415 1858.09 152.586 Q1856.65 150.758 1853.78 150.758 Q1850.33 150.758 1848.34 152.957 Q1846.35 155.156 1846.35 158.952 L1846.35 173.605 L1842.07 173.605 L1842.07 147.679 L1846.35 147.679 L1846.35 151.707 Q1847.88 149.369 1849.94 148.211 Q1852.02 147.054 1854.73 147.054 Q1859.2 147.054 1861.49 149.832 Q1863.78 152.586 1863.78 157.957 Z" fill="#000000" fill-rule="evenodd" fill-opacity="1" /><path clip-path="url(#clip940)" d="M 0 0 M1904.87 157.957 L1904.87 173.605 L1900.61 173.605 L1900.61 158.095 Q1900.61 154.415 1899.17 152.586 Q1897.74 150.758 1894.87 150.758 Q1891.42 150.758 1889.43 152.957 Q1887.44 155.156 1887.44 158.952 L1887.44 173.605 L1883.16 173.605 L1883.16 147.679 L1887.44 147.679 L1887.44 151.707 Q1888.97 149.369 1891.03 148.211 Q1893.11 147.054 1895.82 147.054 Q1900.28 147.054 1902.58 149.832 Q1904.87 152.586 1904.87 157.957 Z" fill="#000000" fill-rule="evenodd" fill-opacity="1" /><path clip-path="url(#clip940)" d="M 0 0 M1908.9 163.373 L1908.9 147.679 L1913.15 147.679 L1913.15 163.211 Q1913.15 166.892 1914.59 168.744 Q1916.03 170.572 1918.9 170.572 Q1922.34 170.572 1924.34 168.373 Q1926.35 166.174 1926.35 162.378 L1926.35 147.679 L1930.61 147.679 L1930.61 173.605 L1926.35 173.605 L1926.35 169.623 Q1924.8 171.984 1922.74 173.142 Q1920.7 174.276 1917.99 174.276 Q1913.53 174.276 1911.21 171.498 Q1908.9 168.72 1908.9 163.373 M1919.61 147.054 L1919.61 147.054 Z" fill="#000000" fill-rule="evenodd" fill-opacity="1" /><path clip-path="url(#clip940)" d="M 0 0 M1955.26 152.656 Q1956.86 149.785 1959.08 148.42 Q1961.3 147.054 1964.31 147.054 Q1968.36 147.054 1970.56 149.901 Q1972.76 152.725 1972.76 157.957 L1972.76 173.605 L1968.48 173.605 L1968.48 158.095 Q1968.48 154.369 1967.16 152.563 Q1965.84 150.758 1963.13 150.758 Q1959.82 150.758 1957.9 152.957 Q1955.98 155.156 1955.98 158.952 L1955.98 173.605 L1951.7 173.605 L1951.7 158.095 Q1951.7 154.345 1950.38 152.563 Q1949.06 150.758 1946.3 150.758 Q1943.04 150.758 1941.12 152.98 Q1939.2 155.179 1939.2 158.952 L1939.2 173.605 L1934.91 173.605 L1934.91 147.679 L1939.2 147.679 L1939.2 151.707 Q1940.65 149.322 1942.69 148.188 Q1944.73 147.054 1947.53 147.054 Q1950.35 147.054 1952.32 148.489 Q1954.31 149.924 1955.26 152.656 Z" fill="#000000" fill-rule="evenodd" fill-opacity="1" /><path clip-path="url(#clip940)" d="M 0 0 M1995.84 160.665 Q1995.84 155.966 1993.9 153.304 Q1991.97 150.619 1988.59 150.619 Q1985.21 150.619 1983.27 153.304 Q1981.35 155.966 1981.35 160.665 Q1981.35 165.364 1983.27 168.049 Q1985.21 170.711 1988.59 170.711 Q1991.97 170.711 1993.9 168.049 Q1995.84 165.364 1995.84 160.665 M1981.35 151.614 Q1982.69 149.299 1984.73 148.188 Q1986.79 147.054 1989.64 147.054 Q1994.36 147.054 1997.3 150.804 Q2000.26 154.554 2000.26 160.665 Q2000.26 166.776 1997.3 170.526 Q1994.36 174.276 1989.64 174.276 Q1986.79 174.276 1984.73 173.165 Q1982.69 172.031 1981.35 169.716 L1981.35 173.605 L1977.07 173.605 L1977.07 137.586 L1981.35 137.586 L1981.35 151.614 Z" fill="#000000" fill-rule="evenodd" fill-opacity="1" /><path clip-path="url(#clip940)" d="M 0 0 M2026.9 159.577 L2026.9 161.66 L2007.32 161.66 Q2007.6 166.058 2009.96 168.373 Q2012.34 170.665 2016.58 170.665 Q2019.03 170.665 2021.33 170.063 Q2023.64 169.461 2025.91 168.257 L2025.91 172.285 Q2023.62 173.257 2021.21 173.767 Q2018.8 174.276 2016.33 174.276 Q2010.12 174.276 2006.49 170.665 Q2002.88 167.054 2002.88 160.896 Q2002.88 154.531 2006.3 150.804 Q2009.75 147.054 2015.58 147.054 Q2020.82 147.054 2023.85 150.433 Q2026.9 153.79 2026.9 159.577 M2022.65 158.327 Q2022.6 154.832 2020.68 152.748 Q2018.78 150.665 2015.63 150.665 Q2012.07 150.665 2009.91 152.679 Q2007.78 154.693 2007.46 158.35 L2022.65 158.327 Z" fill="#000000" fill-rule="evenodd" fill-opacity="1" /><path clip-path="url(#clip940)" d="M 0 0 M2046.39 151.66 Q2045.68 151.244 2044.82 151.058 Q2043.99 150.85 2042.97 150.85 Q2039.36 150.85 2037.41 153.211 Q2035.49 155.549 2035.49 159.947 L2035.49 173.605 L2031.21 173.605 L2031.21 147.679 L2035.49 147.679 L2035.49 151.707 Q2036.83 149.345 2038.99 148.211 Q2041.14 147.054 2044.22 147.054 Q2044.66 147.054 2045.19 147.123 Q2045.72 147.17 2046.37 147.285 L2046.39 151.66 Z" fill="#000000" fill-rule="evenodd" fill-opacity="1" /><polyline clip-path="url(#clip940)" style="stroke:#e26f46; stroke-width:4; stroke-opacity:1; fill:none" points="
  1542.93,216.805 1693.98,216.805 
  "/>
<path clip-path="url(#clip940)" d="M 0 0 M1719.15 199.525 L1741 199.525 L1741 203.46 L1723.83 203.46 L1723.83 213.691 L1740.29 213.691 L1740.29 217.626 L1723.83 217.626 L1723.83 230.149 L1741.42 230.149 L1741.42 234.085 L1719.15 234.085 L1719.15 199.525 Z" fill="#000000" fill-rule="evenodd" fill-opacity="1" /><path clip-path="url(#clip940)" d="M 0 0 M1767.44 208.159 L1758.06 220.775 L1767.92 234.085 L1762.9 234.085 L1755.35 223.899 L1747.81 234.085 L1742.79 234.085 L1752.85 220.52 L1743.64 208.159 L1748.67 208.159 L1755.54 217.395 L1762.42 208.159 L1767.44 208.159 Z" fill="#000000" fill-rule="evenodd" fill-opacity="1" /><path clip-path="url(#clip940)" d="M 0 0 M1790.22 209.154 L1790.22 213.136 Q1788.41 212.14 1786.58 211.654 Q1784.78 211.145 1782.92 211.145 Q1778.78 211.145 1776.49 213.784 Q1774.2 216.4 1774.2 221.145 Q1774.2 225.89 1776.49 228.529 Q1778.78 231.145 1782.92 231.145 Q1784.78 231.145 1786.58 230.659 Q1788.41 230.149 1790.22 229.154 L1790.22 233.089 Q1788.43 233.923 1786.51 234.339 Q1784.61 234.756 1782.46 234.756 Q1776.6 234.756 1773.16 231.075 Q1769.71 227.395 1769.71 221.145 Q1769.71 214.802 1773.18 211.168 Q1776.67 207.534 1782.74 207.534 Q1784.71 207.534 1786.58 207.951 Q1788.46 208.344 1790.22 209.154 Z" fill="#000000" fill-rule="evenodd" fill-opacity="1" /><path clip-path="url(#clip940)" d="M 0 0 M1794.68 208.159 L1798.94 208.159 L1798.94 234.085 L1794.68 234.085 L1794.68 208.159 M1794.68 198.066 L1798.94 198.066 L1798.94 203.46 L1794.68 203.46 L1794.68 198.066 Z" fill="#000000" fill-rule="evenodd" fill-opacity="1" /><path clip-path="url(#clip940)" d="M 0 0 M1807.62 200.798 L1807.62 208.159 L1816.4 208.159 L1816.4 211.469 L1807.62 211.469 L1807.62 225.543 Q1807.62 228.714 1808.48 229.617 Q1809.36 230.52 1812.02 230.52 L1816.4 230.52 L1816.4 234.085 L1812.02 234.085 Q1807.09 234.085 1805.22 232.256 Q1803.34 230.404 1803.34 225.543 L1803.34 211.469 L1800.22 211.469 L1800.22 208.159 L1803.34 208.159 L1803.34 200.798 L1807.62 200.798 Z" fill="#000000" fill-rule="evenodd" fill-opacity="1" /><path clip-path="url(#clip940)" d="M 0 0 M1843.04 220.057 L1843.04 222.14 L1823.46 222.14 Q1823.73 226.538 1826.1 228.853 Q1828.48 231.145 1832.72 231.145 Q1835.17 231.145 1837.46 230.543 Q1839.78 229.941 1842.04 228.737 L1842.04 232.765 Q1839.75 233.737 1837.35 234.247 Q1834.94 234.756 1832.46 234.756 Q1826.26 234.756 1822.62 231.145 Q1819.01 227.534 1819.01 221.376 Q1819.01 215.011 1822.44 211.284 Q1825.89 207.534 1831.72 207.534 Q1836.95 207.534 1839.98 210.913 Q1843.04 214.27 1843.04 220.057 M1838.78 218.807 Q1838.73 215.312 1836.81 213.228 Q1834.91 211.145 1831.77 211.145 Q1828.2 211.145 1826.05 213.159 Q1823.92 215.173 1823.6 218.83 L1838.78 218.807 Z" fill="#000000" fill-rule="evenodd" fill-opacity="1" /><path clip-path="url(#clip940)" d="M 0 0 M1864.57 212.094 L1864.57 198.066 L1868.83 198.066 L1868.83 234.085 L1864.57 234.085 L1864.57 230.196 Q1863.22 232.511 1861.16 233.645 Q1859.13 234.756 1856.26 234.756 Q1851.56 234.756 1848.6 231.006 Q1845.66 227.256 1845.66 221.145 Q1845.66 215.034 1848.6 211.284 Q1851.56 207.534 1856.26 207.534 Q1859.13 207.534 1861.16 208.668 Q1863.22 209.779 1864.57 212.094 M1850.05 221.145 Q1850.05 225.844 1851.97 228.529 Q1853.92 231.191 1857.3 231.191 Q1860.68 231.191 1862.62 228.529 Q1864.57 225.844 1864.57 221.145 Q1864.57 216.446 1862.62 213.784 Q1860.68 211.099 1857.3 211.099 Q1853.92 211.099 1851.97 213.784 Q1850.05 216.446 1850.05 221.145 Z" fill="#000000" fill-rule="evenodd" fill-opacity="1" /><path clip-path="url(#clip940)" d="M 0 0 M1904.89 208.923 L1904.89 212.95 Q1903.09 212.025 1901.14 211.562 Q1899.2 211.099 1897.11 211.099 Q1893.94 211.099 1892.34 212.071 Q1890.77 213.043 1890.77 214.987 Q1890.77 216.469 1891.91 217.325 Q1893.04 218.159 1896.47 218.923 L1897.92 219.247 Q1902.46 220.219 1904.36 222.001 Q1906.28 223.761 1906.28 226.932 Q1906.28 230.543 1903.41 232.649 Q1900.56 234.756 1895.56 234.756 Q1893.48 234.756 1891.21 234.339 Q1888.97 233.946 1886.47 233.136 L1886.47 228.737 Q1888.83 229.964 1891.12 230.589 Q1893.41 231.191 1895.66 231.191 Q1898.66 231.191 1900.28 230.173 Q1901.91 229.131 1901.91 227.256 Q1901.91 225.52 1900.72 224.594 Q1899.57 223.668 1895.61 222.812 L1894.13 222.464 Q1890.17 221.631 1888.41 219.918 Q1886.65 218.182 1886.65 215.173 Q1886.65 211.515 1889.24 209.525 Q1891.84 207.534 1896.6 207.534 Q1898.97 207.534 1901.05 207.881 Q1903.13 208.228 1904.89 208.923 Z" fill="#000000" fill-rule="evenodd" fill-opacity="1" /><path clip-path="url(#clip940)" d="M 0 0 M1914.96 200.798 L1914.96 208.159 L1923.73 208.159 L1923.73 211.469 L1914.96 211.469 L1914.96 225.543 Q1914.96 228.714 1915.82 229.617 Q1916.7 230.52 1919.36 230.52 L1923.73 230.52 L1923.73 234.085 L1919.36 234.085 Q1914.43 234.085 1912.55 232.256 Q1910.68 230.404 1910.68 225.543 L1910.68 211.469 L1907.55 211.469 L1907.55 208.159 L1910.68 208.159 L1910.68 200.798 L1914.96 200.798 Z" fill="#000000" fill-rule="evenodd" fill-opacity="1" /><path clip-path="url(#clip940)" d="M 0 0 M1939.98 221.052 Q1934.82 221.052 1932.83 222.233 Q1930.84 223.413 1930.84 226.261 Q1930.84 228.529 1932.32 229.872 Q1933.83 231.191 1936.4 231.191 Q1939.94 231.191 1942.07 228.691 Q1944.22 226.168 1944.22 222.001 L1944.22 221.052 L1939.98 221.052 M1948.48 219.293 L1948.48 234.085 L1944.22 234.085 L1944.22 230.149 Q1942.76 232.511 1940.59 233.645 Q1938.41 234.756 1935.26 234.756 Q1931.28 234.756 1928.92 232.534 Q1926.58 230.288 1926.58 226.538 Q1926.58 222.163 1929.5 219.941 Q1932.44 217.719 1938.25 217.719 L1944.22 217.719 L1944.22 217.302 Q1944.22 214.363 1942.28 212.765 Q1940.35 211.145 1936.86 211.145 Q1934.64 211.145 1932.53 211.677 Q1930.42 212.21 1928.48 213.275 L1928.48 209.339 Q1930.82 208.437 1933.02 207.997 Q1935.22 207.534 1937.3 207.534 Q1942.92 207.534 1945.7 210.45 Q1948.48 213.367 1948.48 219.293 Z" fill="#000000" fill-rule="evenodd" fill-opacity="1" /><path clip-path="url(#clip940)" d="M 0 0 M1957.16 200.798 L1957.16 208.159 L1965.93 208.159 L1965.93 211.469 L1957.16 211.469 L1957.16 225.543 Q1957.16 228.714 1958.02 229.617 Q1958.9 230.52 1961.56 230.52 L1965.93 230.52 L1965.93 234.085 L1961.56 234.085 Q1956.63 234.085 1954.75 232.256 Q1952.88 230.404 1952.88 225.543 L1952.88 211.469 L1949.75 211.469 L1949.75 208.159 L1952.88 208.159 L1952.88 200.798 L1957.16 200.798 Z" fill="#000000" fill-rule="evenodd" fill-opacity="1" /><path clip-path="url(#clip940)" d="M 0 0 M1992.58 220.057 L1992.58 222.14 L1972.99 222.14 Q1973.27 226.538 1975.63 228.853 Q1978.02 231.145 1982.25 231.145 Q1984.71 231.145 1987 230.543 Q1989.31 229.941 1991.58 228.737 L1991.58 232.765 Q1989.29 233.737 1986.88 234.247 Q1984.47 234.756 1982 234.756 Q1975.79 234.756 1972.16 231.145 Q1968.55 227.534 1968.55 221.376 Q1968.55 215.011 1971.97 211.284 Q1975.42 207.534 1981.26 207.534 Q1986.49 207.534 1989.52 210.913 Q1992.58 214.27 1992.58 220.057 M1988.32 218.807 Q1988.27 215.312 1986.35 213.228 Q1984.45 211.145 1981.3 211.145 Q1977.74 211.145 1975.59 213.159 Q1973.46 215.173 1973.13 218.83 L1988.32 218.807 Z" fill="#000000" fill-rule="evenodd" fill-opacity="1" /><path clip-path="url(#clip940)" d="M 0 0 M2016.23 230.196 L2016.23 243.946 L2011.95 243.946 L2011.95 208.159 L2016.23 208.159 L2016.23 212.094 Q2017.58 209.779 2019.61 208.668 Q2021.67 207.534 2024.52 207.534 Q2029.24 207.534 2032.18 211.284 Q2035.15 215.034 2035.15 221.145 Q2035.15 227.256 2032.18 231.006 Q2029.24 234.756 2024.52 234.756 Q2021.67 234.756 2019.61 233.645 Q2017.58 232.511 2016.23 230.196 M2030.72 221.145 Q2030.72 216.446 2028.78 213.784 Q2026.86 211.099 2023.48 211.099 Q2020.1 211.099 2018.15 213.784 Q2016.23 216.446 2016.23 221.145 Q2016.23 225.844 2018.15 228.529 Q2020.1 231.191 2023.48 231.191 Q2026.86 231.191 2028.78 228.529 Q2030.72 225.844 2030.72 221.145 Z" fill="#000000" fill-rule="evenodd" fill-opacity="1" /><path clip-path="url(#clip940)" d="M 0 0 M2049.66 211.145 Q2046.23 211.145 2044.24 213.83 Q2042.25 216.492 2042.25 221.145 Q2042.25 225.798 2044.22 228.483 Q2046.21 231.145 2049.66 231.145 Q2053.06 231.145 2055.05 228.46 Q2057.04 225.774 2057.04 221.145 Q2057.04 216.538 2055.05 213.853 Q2053.06 211.145 2049.66 211.145 M2049.66 207.534 Q2055.21 207.534 2058.39 211.145 Q2061.56 214.756 2061.56 221.145 Q2061.56 227.511 2058.39 231.145 Q2055.21 234.756 2049.66 234.756 Q2044.08 234.756 2040.91 231.145 Q2037.76 227.511 2037.76 221.145 Q2037.76 214.756 2040.91 211.145 Q2044.08 207.534 2049.66 207.534 Z" fill="#000000" fill-rule="evenodd" fill-opacity="1" /><path clip-path="url(#clip940)" d="M 0 0 M2070.14 230.196 L2070.14 243.946 L2065.86 243.946 L2065.86 208.159 L2070.14 208.159 L2070.14 212.094 Q2071.49 209.779 2073.52 208.668 Q2075.58 207.534 2078.43 207.534 Q2083.15 207.534 2086.09 211.284 Q2089.06 215.034 2089.06 221.145 Q2089.06 227.256 2086.09 231.006 Q2083.15 234.756 2078.43 234.756 Q2075.58 234.756 2073.52 233.645 Q2071.49 232.511 2070.14 230.196 M2084.64 221.145 Q2084.64 216.446 2082.69 213.784 Q2080.77 211.099 2077.39 211.099 Q2074.01 211.099 2072.07 213.784 Q2070.14 216.446 2070.14 221.145 Q2070.14 225.844 2072.07 228.529 Q2074.01 231.191 2077.39 231.191 Q2080.77 231.191 2082.69 228.529 Q2084.64 225.844 2084.64 221.145 Z" fill="#000000" fill-rule="evenodd" fill-opacity="1" /><path clip-path="url(#clip940)" d="M 0 0 M2093.08 223.853 L2093.08 208.159 L2097.34 208.159 L2097.34 223.691 Q2097.34 227.372 2098.78 229.224 Q2100.21 231.052 2103.08 231.052 Q2106.53 231.052 2108.52 228.853 Q2110.54 226.654 2110.54 222.858 L2110.54 208.159 L2114.8 208.159 L2114.8 234.085 L2110.54 234.085 L2110.54 230.103 Q2108.99 232.464 2106.93 233.622 Q2104.89 234.756 2102.18 234.756 Q2097.71 234.756 2095.4 231.978 Q2093.08 229.2 2093.08 223.853 M2103.8 207.534 L2103.8 207.534 Z" fill="#000000" fill-rule="evenodd" fill-opacity="1" /><path clip-path="url(#clip940)" d="M 0 0 M2119.26 198.066 L2123.52 198.066 L2123.52 234.085 L2119.26 234.085 L2119.26 198.066 Z" fill="#000000" fill-rule="evenodd" fill-opacity="1" /><path clip-path="url(#clip940)" d="M 0 0 M2139.77 221.052 Q2134.61 221.052 2132.62 222.233 Q2130.63 223.413 2130.63 226.261 Q2130.63 228.529 2132.11 229.872 Q2133.62 231.191 2136.19 231.191 Q2139.73 231.191 2141.86 228.691 Q2144.01 226.168 2144.01 222.001 L2144.01 221.052 L2139.77 221.052 M2148.27 219.293 L2148.27 234.085 L2144.01 234.085 L2144.01 230.149 Q2142.55 232.511 2140.38 233.645 Q2138.2 234.756 2135.05 234.756 Q2131.07 234.756 2128.71 232.534 Q2126.37 230.288 2126.37 226.538 Q2126.37 222.163 2129.29 219.941 Q2132.23 217.719 2138.04 217.719 L2144.01 217.719 L2144.01 217.302 Q2144.01 214.363 2142.07 212.765 Q2140.14 211.145 2136.65 211.145 Q2134.43 211.145 2132.32 211.677 Q2130.21 212.21 2128.27 213.275 L2128.27 209.339 Q2130.61 208.437 2132.81 207.997 Q2135.01 207.534 2137.09 207.534 Q2142.71 207.534 2145.49 210.45 Q2148.27 213.367 2148.27 219.293 Z" fill="#000000" fill-rule="evenodd" fill-opacity="1" /><path clip-path="url(#clip940)" d="M 0 0 M2156.95 200.798 L2156.95 208.159 L2165.72 208.159 L2165.72 211.469 L2156.95 211.469 L2156.95 225.543 Q2156.95 228.714 2157.81 229.617 Q2158.69 230.52 2161.35 230.52 L2165.72 230.52 L2165.72 234.085 L2161.35 234.085 Q2156.42 234.085 2154.54 232.256 Q2152.67 230.404 2152.67 225.543 L2152.67 211.469 L2149.54 211.469 L2149.54 208.159 L2152.67 208.159 L2152.67 200.798 L2156.95 200.798 Z" fill="#000000" fill-rule="evenodd" fill-opacity="1" /><path clip-path="url(#clip940)" d="M 0 0 M2170.19 208.159 L2174.45 208.159 L2174.45 234.085 L2170.19 234.085 L2170.19 208.159 M2170.19 198.066 L2174.45 198.066 L2174.45 203.46 L2170.19 203.46 L2170.19 198.066 Z" fill="#000000" fill-rule="evenodd" fill-opacity="1" /><path clip-path="url(#clip940)" d="M 0 0 M2188.96 211.145 Q2185.54 211.145 2183.55 213.83 Q2181.56 216.492 2181.56 221.145 Q2181.56 225.798 2183.52 228.483 Q2185.51 231.145 2188.96 231.145 Q2192.37 231.145 2194.36 228.46 Q2196.35 225.774 2196.35 221.145 Q2196.35 216.538 2194.36 213.853 Q2192.37 211.145 2188.96 211.145 M2188.96 207.534 Q2194.52 207.534 2197.69 211.145 Q2200.86 214.756 2200.86 221.145 Q2200.86 227.511 2197.69 231.145 Q2194.52 234.756 2188.96 234.756 Q2183.39 234.756 2180.21 231.145 Q2177.07 227.511 2177.07 221.145 Q2177.07 214.756 2180.21 211.145 Q2183.39 207.534 2188.96 207.534 Z" fill="#000000" fill-rule="evenodd" fill-opacity="1" /><path clip-path="url(#clip940)" d="M 0 0 M2226.88 218.437 L2226.88 234.085 L2222.62 234.085 L2222.62 218.575 Q2222.62 214.895 2221.19 213.066 Q2219.75 211.238 2216.88 211.238 Q2213.43 211.238 2211.44 213.437 Q2209.45 215.636 2209.45 219.432 L2209.45 234.085 L2205.17 234.085 L2205.17 208.159 L2209.45 208.159 L2209.45 212.187 Q2210.98 209.849 2213.04 208.691 Q2215.12 207.534 2217.83 207.534 Q2222.3 207.534 2224.59 210.312 Q2226.88 213.066 2226.88 218.437 Z" fill="#000000" fill-rule="evenodd" fill-opacity="1" /></svg>
