<?xml version="1.0" encoding="utf-8"?>
<svg xmlns="http://www.w3.org/2000/svg" xmlns:xlink="http://www.w3.org/1999/xlink" width="600" height="400" viewBox="0 0 2400 1600">
<defs>
  <clipPath id="clip250">
    <rect x="0" y="0" width="2400" height="1600"/>
  </clipPath>
</defs>
<path clip-path="url(#clip250)" d="
M0 1600 L2400 1600 L2400 0 L0 0  Z
  " fill="#ffffff" fill-rule="evenodd" fill-opacity="1"/>
<defs>
  <clipPath id="clip251">
    <rect x="480" y="0" width="1681" height="1600"/>
  </clipPath>
</defs>
<path clip-path="url(#clip250)" d="
M86.9921 1505.26 L2352.76 1505.26 L2352.76 47.2441 L86.9921 47.2441  Z
  " fill="#ffffff" fill-rule="evenodd" fill-opacity="1"/>
<defs>
  <clipPath id="clip252">
    <rect x="86" y="47" width="2267" height="1459"/>
  </clipPath>
</defs>
<polyline clip-path="url(#clip252)" style="stroke:#000000; stroke-width:2; stroke-opacity:0.1; fill:none" points="
  86.9921,1505.26 86.9921,47.2441 
  "/>
<polyline clip-path="url(#clip252)" style="stroke:#000000; stroke-width:2; stroke-opacity:0.1; fill:none" points="
  653.433,1505.26 653.433,47.2441 
  "/>
<polyline clip-path="url(#clip252)" style="stroke:#000000; stroke-width:2; stroke-opacity:0.1; fill:none" points="
  1219.87,1505.26 1219.87,47.2441 
  "/>
<polyline clip-path="url(#clip252)" style="stroke:#000000; stroke-width:2; stroke-opacity:0.1; fill:none" points="
  1786.31,1505.26 1786.31,47.2441 
  "/>
<polyline clip-path="url(#clip252)" style="stroke:#000000; stroke-width:2; stroke-opacity:0.1; fill:none" points="
  2352.76,1505.26 2352.76,47.2441 
  "/>
<polyline clip-path="url(#clip250)" style="stroke:#000000; stroke-width:4; stroke-opacity:1; fill:none" points="
  86.9921,1505.26 2352.76,1505.26 
  "/>
<polyline clip-path="url(#clip250)" style="stroke:#000000; stroke-width:4; stroke-opacity:1; fill:none" points="
  86.9921,1505.26 86.9921,1487.76 
  "/>
<polyline clip-path="url(#clip250)" style="stroke:#000000; stroke-width:4; stroke-opacity:1; fill:none" points="
  653.433,1505.26 653.433,1487.76 
  "/>
<polyline clip-path="url(#clip250)" style="stroke:#000000; stroke-width:4; stroke-opacity:1; fill:none" points="
  1219.87,1505.26 1219.87,1487.76 
  "/>
<polyline clip-path="url(#clip250)" style="stroke:#000000; stroke-width:4; stroke-opacity:1; fill:none" points="
  1786.31,1505.26 1786.31,1487.76 
  "/>
<polyline clip-path="url(#clip250)" style="stroke:#000000; stroke-width:4; stroke-opacity:1; fill:none" points="
  2352.76,1505.26 2352.76,1487.76 
  "/>
<path clip-path="url(#clip250)" d="M 0 0 M86.9921 1534.45 Q83.381 1534.45 81.5523 1538.02 Q79.7468 1541.56 79.7468 1548.69 Q79.7468 1555.79 81.5523 1559.36 Q83.381 1562.9 86.9921 1562.9 Q90.6264 1562.9 92.4319 1559.36 Q94.2606 1555.79 94.2606 1548.69 Q94.2606 1541.56 92.4319 1538.02 Q90.6264 1534.45 86.9921 1534.45 M86.9921 1530.75 Q92.8023 1530.75 95.8578 1535.35 Q98.9365 1539.94 98.9365 1548.69 Q98.9365 1557.41 95.8578 1562.02 Q92.8023 1566.6 86.9921 1566.6 Q81.182 1566.6 78.1033 1562.02 Q75.0477 1557.41 75.0477 1548.69 Q75.0477 1539.94 78.1033 1535.35 Q81.182 1530.75 86.9921 1530.75 Z" fill="#000000" fill-rule="evenodd" fill-opacity="1" /><path clip-path="url(#clip250)" d="M 0 0 M643.711 1531.37 L662.067 1531.37 L662.067 1535.31 L647.993 1535.31 L647.993 1543.78 Q649.012 1543.43 650.03 1543.27 Q651.049 1543.08 652.067 1543.08 Q657.854 1543.08 661.234 1546.26 Q664.614 1549.43 664.614 1554.84 Q664.614 1560.42 661.141 1563.52 Q657.669 1566.6 651.35 1566.6 Q649.174 1566.6 646.905 1566.23 Q644.66 1565.86 642.253 1565.12 L642.253 1560.42 Q644.336 1561.56 646.558 1562.11 Q648.78 1562.67 651.257 1562.67 Q655.262 1562.67 657.6 1560.56 Q659.938 1558.46 659.938 1554.84 Q659.938 1551.23 657.6 1549.13 Q655.262 1547.02 651.257 1547.02 Q649.382 1547.02 647.507 1547.44 Q645.655 1547.85 643.711 1548.73 L643.711 1531.37 Z" fill="#000000" fill-rule="evenodd" fill-opacity="1" /><path clip-path="url(#clip250)" d="M 0 0 M1194.56 1562 L1202.2 1562 L1202.2 1535.63 L1193.89 1537.3 L1193.89 1533.04 L1202.15 1531.37 L1206.83 1531.37 L1206.83 1562 L1214.47 1562 L1214.47 1565.93 L1194.56 1565.93 L1194.56 1562 Z" fill="#000000" fill-rule="evenodd" fill-opacity="1" /><path clip-path="url(#clip250)" d="M 0 0 M1233.91 1534.45 Q1230.3 1534.45 1228.47 1538.02 Q1226.67 1541.56 1226.67 1548.69 Q1226.67 1555.79 1228.47 1559.36 Q1230.3 1562.9 1233.91 1562.9 Q1237.55 1562.9 1239.35 1559.36 Q1241.18 1555.79 1241.18 1548.69 Q1241.18 1541.56 1239.35 1538.02 Q1237.55 1534.45 1233.91 1534.45 M1233.91 1530.75 Q1239.72 1530.75 1242.78 1535.35 Q1245.86 1539.94 1245.86 1548.69 Q1245.86 1557.41 1242.78 1562.02 Q1239.72 1566.6 1233.91 1566.6 Q1228.1 1566.6 1225.02 1562.02 Q1221.97 1557.41 1221.97 1548.69 Q1221.97 1539.94 1225.02 1535.35 Q1228.1 1530.75 1233.91 1530.75 Z" fill="#000000" fill-rule="evenodd" fill-opacity="1" /><path clip-path="url(#clip250)" d="M 0 0 M1761.5 1562 L1769.14 1562 L1769.14 1535.63 L1760.83 1537.3 L1760.83 1533.04 L1769.09 1531.37 L1773.77 1531.37 L1773.77 1562 L1781.41 1562 L1781.41 1565.93 L1761.5 1565.93 L1761.5 1562 Z" fill="#000000" fill-rule="evenodd" fill-opacity="1" /><path clip-path="url(#clip250)" d="M 0 0 M1790.9 1531.37 L1809.25 1531.37 L1809.25 1535.31 L1795.18 1535.31 L1795.18 1543.78 Q1796.2 1543.43 1797.22 1543.27 Q1798.24 1543.08 1799.25 1543.08 Q1805.04 1543.08 1808.42 1546.26 Q1811.8 1549.43 1811.8 1554.84 Q1811.8 1560.42 1808.33 1563.52 Q1804.86 1566.6 1798.54 1566.6 Q1796.36 1566.6 1794.09 1566.23 Q1791.85 1565.86 1789.44 1565.12 L1789.44 1560.42 Q1791.52 1561.56 1793.75 1562.11 Q1795.97 1562.67 1798.44 1562.67 Q1802.45 1562.67 1804.79 1560.56 Q1807.13 1558.46 1807.13 1554.84 Q1807.13 1551.23 1804.79 1549.13 Q1802.45 1547.02 1798.44 1547.02 Q1796.57 1547.02 1794.69 1547.44 Q1792.84 1547.85 1790.9 1548.73 L1790.9 1531.37 Z" fill="#000000" fill-rule="evenodd" fill-opacity="1" /><path clip-path="url(#clip250)" d="M 0 0 M2331.53 1562 L2347.85 1562 L2347.85 1565.93 L2325.9 1565.93 L2325.9 1562 Q2328.57 1559.24 2333.15 1554.61 Q2337.76 1549.96 2338.94 1548.62 Q2341.18 1546.09 2342.06 1544.36 Q2342.96 1542.6 2342.96 1540.91 Q2342.96 1538.15 2341.02 1536.42 Q2339.1 1534.68 2336 1534.68 Q2333.8 1534.68 2331.34 1535.45 Q2328.91 1536.21 2326.14 1537.76 L2326.14 1533.04 Q2328.96 1531.9 2331.41 1531.33 Q2333.87 1530.75 2335.9 1530.75 Q2341.27 1530.75 2344.47 1533.43 Q2347.66 1536.12 2347.66 1540.61 Q2347.66 1542.74 2346.85 1544.66 Q2346.07 1546.56 2343.96 1549.15 Q2343.38 1549.82 2340.28 1553.04 Q2337.18 1556.23 2331.53 1562 Z" fill="#000000" fill-rule="evenodd" fill-opacity="1" /><path clip-path="url(#clip250)" d="M 0 0 M2367.66 1534.45 Q2364.05 1534.45 2362.22 1538.02 Q2360.42 1541.56 2360.42 1548.69 Q2360.42 1555.79 2362.22 1559.36 Q2364.05 1562.9 2367.66 1562.9 Q2371.3 1562.9 2373.1 1559.36 Q2374.93 1555.79 2374.93 1548.69 Q2374.93 1541.56 2373.1 1538.02 Q2371.3 1534.45 2367.66 1534.45 M2367.66 1530.75 Q2373.47 1530.75 2376.53 1535.35 Q2379.61 1539.94 2379.61 1548.69 Q2379.61 1557.41 2376.53 1562.02 Q2373.47 1566.6 2367.66 1566.6 Q2361.85 1566.6 2358.77 1562.02 Q2355.72 1557.41 2355.72 1548.69 Q2355.72 1539.94 2358.77 1535.35 Q2361.85 1530.75 2367.66 1530.75 Z" fill="#000000" fill-rule="evenodd" fill-opacity="1" /><path clip-path="url(#clip250)" d="M 0 0 M1199.57 1620.08 L1207.37 1642.1 L1218.51 1614.48 L1224.71 1614.48 L1210.29 1650.12 L1210.29 1663.68 L1204.44 1663.68 L1204.44 1650.12 L1195.08 1623.52 Q1193.68 1619.5 1190.66 1619.5 L1189.1 1619.5 L1189.1 1614.48 L1191.32 1614.48 Q1197.59 1614.48 1199.57 1620.08 Z" fill="#000000" fill-rule="evenodd" fill-opacity="1" /><path clip-path="url(#clip250)" d="M 0 0 M1238.59 1604.35 L1238.59 1614.48 L1250.65 1614.48 L1250.65 1619.03 L1238.59 1619.03 L1238.59 1638.38 Q1238.59 1642.74 1239.77 1643.98 Q1240.98 1645.22 1244.64 1645.22 L1250.65 1645.22 L1250.65 1650.12 L1244.64 1650.12 Q1237.86 1650.12 1235.28 1647.61 Q1232.7 1645.06 1232.7 1638.38 L1232.7 1619.03 L1228.4 1619.03 L1228.4 1614.48 L1232.7 1614.48 L1232.7 1604.35 L1238.59 1604.35 Z" fill="#000000" fill-rule="evenodd" fill-opacity="1" /><polyline clip-path="url(#clip252)" style="stroke:#000000; stroke-width:2; stroke-opacity:0.1; fill:none" points="
  86.9921,1464 2352.76,1464 
  "/>
<polyline clip-path="url(#clip252)" style="stroke:#000000; stroke-width:2; stroke-opacity:0.1; fill:none" points="
  86.9921,1098.93 2352.76,1098.93 
  "/>
<polyline clip-path="url(#clip252)" style="stroke:#000000; stroke-width:2; stroke-opacity:0.1; fill:none" points="
  86.9921,733.874 2352.76,733.874 
  "/>
<polyline clip-path="url(#clip252)" style="stroke:#000000; stroke-width:2; stroke-opacity:0.1; fill:none" points="
  86.9921,368.813 2352.76,368.813 
  "/>
<polyline clip-path="url(#clip250)" style="stroke:#000000; stroke-width:4; stroke-opacity:1; fill:none" points="
  86.9921,1505.26 86.9921,47.2441 
  "/>
<polyline clip-path="url(#clip250)" style="stroke:#000000; stroke-width:4; stroke-opacity:1; fill:none" points="
  86.9921,1464 114.181,1464 
  "/>
<polyline clip-path="url(#clip250)" style="stroke:#000000; stroke-width:4; stroke-opacity:1; fill:none" points="
  86.9921,1098.93 114.181,1098.93 
  "/>
<polyline clip-path="url(#clip250)" style="stroke:#000000; stroke-width:4; stroke-opacity:1; fill:none" points="
  86.9921,733.874 114.181,733.874 
  "/>
<polyline clip-path="url(#clip250)" style="stroke:#000000; stroke-width:4; stroke-opacity:1; fill:none" points="
  86.9921,368.813 114.181,368.813 
  "/>
<path clip-path="url(#clip250)" d="M 0 0 M-6.18349 1449.79 Q-9.79459 1449.79 -11.6233 1453.36 Q-13.4288 1456.9 -13.4288 1464.03 Q-13.4288 1471.14 -11.6233 1474.7 Q-9.79459 1478.24 -6.18349 1478.24 Q-2.54925 1478.24 -0.743708 1474.7 Q1.08499 1471.14 1.08499 1464.03 Q1.08499 1456.9 -0.743708 1453.36 Q-2.54925 1449.79 -6.18349 1449.79 M-6.18349 1446.09 Q-0.37334 1446.09 2.6822 1450.7 Q5.76089 1455.28 5.76089 1464.03 Q5.76089 1472.76 2.6822 1477.36 Q-0.37334 1481.95 -6.18349 1481.95 Q-11.9936 1481.95 -15.0723 1477.36 Q-18.1279 1472.76 -18.1279 1464.03 Q-18.1279 1455.28 -15.0723 1450.7 Q-11.9936 1446.09 -6.18349 1446.09 Z" fill="#000000" fill-rule="evenodd" fill-opacity="1" /><path clip-path="url(#clip250)" d="M 0 0 M13.9784 1475.4 L18.8627 1475.4 L18.8627 1481.28 L13.9784 1481.28 L13.9784 1475.4 Z" fill="#000000" fill-rule="evenodd" fill-opacity="1" /><path clip-path="url(#clip250)" d="M 0 0 M39.0477 1449.79 Q35.4367 1449.79 33.608 1453.36 Q31.8024 1456.9 31.8024 1464.03 Q31.8024 1471.14 33.608 1474.7 Q35.4367 1478.24 39.0477 1478.24 Q42.682 1478.24 44.4875 1474.7 Q46.3162 1471.14 46.3162 1464.03 Q46.3162 1456.9 44.4875 1453.36 Q42.682 1449.79 39.0477 1449.79 M39.0477 1446.09 Q44.8579 1446.09 47.9134 1450.7 Q50.9921 1455.28 50.9921 1464.03 Q50.9921 1472.76 47.9134 1477.36 Q44.8579 1481.95 39.0477 1481.95 Q33.2376 1481.95 30.1589 1477.36 Q27.1034 1472.76 27.1034 1464.03 Q27.1034 1455.28 30.1589 1450.7 Q33.2376 1446.09 39.0477 1446.09 Z" fill="#000000" fill-rule="evenodd" fill-opacity="1" /><path clip-path="url(#clip250)" d="M 0 0 M-4.58628 1084.73 Q-8.19737 1084.73 -10.0261 1088.3 Q-11.8316 1091.84 -11.8316 1098.97 Q-11.8316 1106.08 -10.0261 1109.64 Q-8.19737 1113.18 -4.58628 1113.18 Q-0.95204 1113.18 0.853506 1109.64 Q2.6822 1106.08 2.6822 1098.97 Q2.6822 1091.84 0.853506 1088.3 Q-0.95204 1084.73 -4.58628 1084.73 M-4.58628 1081.03 Q1.22387 1081.03 4.27941 1085.64 Q7.3581 1090.22 7.3581 1098.97 Q7.3581 1107.7 4.27941 1112.3 Q1.22387 1116.89 -4.58628 1116.89 Q-10.3964 1116.89 -13.4751 1112.3 Q-16.5307 1107.7 -16.5307 1098.97 Q-16.5307 1090.22 -13.4751 1085.64 Q-10.3964 1081.03 -4.58628 1081.03 Z" fill="#000000" fill-rule="evenodd" fill-opacity="1" /><path clip-path="url(#clip250)" d="M 0 0 M15.5756 1110.33 L20.4599 1110.33 L20.4599 1116.21 L15.5756 1116.21 L15.5756 1110.33 Z" fill="#000000" fill-rule="evenodd" fill-opacity="1" /><path clip-path="url(#clip250)" d="M 0 0 M34.6728 1112.28 L50.9921 1112.28 L50.9921 1116.21 L29.0478 1116.21 L29.0478 1112.28 Q31.7098 1109.52 36.2931 1104.9 Q40.8996 1100.24 42.0801 1098.9 Q44.3255 1096.38 45.2051 1094.64 Q46.1079 1092.88 46.1079 1091.19 Q46.1079 1088.44 44.1635 1086.7 Q42.2422 1084.96 39.1403 1084.96 Q36.9413 1084.96 34.4876 1085.73 Q32.057 1086.49 29.2793 1088.04 L29.2793 1083.32 Q32.1033 1082.19 34.557 1081.61 Q37.0107 1081.03 39.0477 1081.03 Q44.4181 1081.03 47.6125 1083.71 Q50.8069 1086.4 50.8069 1090.89 Q50.8069 1093.02 49.9968 1094.94 Q49.2097 1096.84 47.1033 1099.43 Q46.5246 1100.1 43.4227 1103.32 Q40.3209 1106.52 34.6728 1112.28 Z" fill="#000000" fill-rule="evenodd" fill-opacity="1" /><path clip-path="url(#clip250)" d="M 0 0 M-6.6696 719.672 Q-10.2807 719.672 -12.1094 723.237 Q-13.9149 726.779 -13.9149 733.909 Q-13.9149 741.015 -12.1094 744.58 Q-10.2807 748.121 -6.6696 748.121 Q-3.03536 748.121 -1.22982 744.58 Q0.598877 741.015 0.598877 733.909 Q0.598877 726.779 -1.22982 723.237 Q-3.03536 719.672 -6.6696 719.672 M-6.6696 715.969 Q-0.859448 715.969 2.19609 720.575 Q5.27478 725.159 5.27478 733.909 Q5.27478 742.635 2.19609 747.242 Q-0.859448 751.825 -6.6696 751.825 Q-12.4798 751.825 -15.5584 747.242 Q-18.614 742.635 -18.614 733.909 Q-18.614 725.159 -15.5584 720.575 Q-12.4798 715.969 -6.6696 715.969 Z" fill="#000000" fill-rule="evenodd" fill-opacity="1" /><path clip-path="url(#clip250)" d="M 0 0 M13.4923 745.274 L18.3766 745.274 L18.3766 751.154 L13.4923 751.154 L13.4923 745.274 Z" fill="#000000" fill-rule="evenodd" fill-opacity="1" /><path clip-path="url(#clip250)" d="M 0 0 M41.4088 720.668 L29.6034 739.117 L41.4088 739.117 L41.4088 720.668 M40.182 716.594 L46.0616 716.594 L46.0616 739.117 L50.9921 739.117 L50.9921 743.006 L46.0616 743.006 L46.0616 751.154 L41.4088 751.154 L41.4088 743.006 L25.8071 743.006 L25.8071 738.492 L40.182 716.594 Z" fill="#000000" fill-rule="evenodd" fill-opacity="1" /><path clip-path="url(#clip250)" d="M 0 0 M-6.34553 354.612 Q-9.95662 354.612 -11.7853 358.177 Q-13.5909 361.718 -13.5909 368.848 Q-13.5909 375.954 -11.7853 379.519 Q-9.95662 383.061 -6.34553 383.061 Q-2.71129 383.061 -0.905744 379.519 Q0.92295 375.954 0.92295 368.848 Q0.92295 361.718 -0.905744 358.177 Q-2.71129 354.612 -6.34553 354.612 M-6.34553 350.908 Q-0.535376 350.908 2.52016 355.515 Q5.59885 360.098 5.59885 368.848 Q5.59885 377.575 2.52016 382.181 Q-0.535376 386.764 -6.34553 386.764 Q-12.1557 386.764 -15.2344 382.181 Q-18.2899 377.575 -18.2899 368.848 Q-18.2899 360.098 -15.2344 355.515 Q-12.1557 350.908 -6.34553 350.908 Z" fill="#000000" fill-rule="evenodd" fill-opacity="1" /><path clip-path="url(#clip250)" d="M 0 0 M13.8164 380.213 L18.7006 380.213 L18.7006 386.093 L13.8164 386.093 L13.8164 380.213 Z" fill="#000000" fill-rule="evenodd" fill-opacity="1" /><path clip-path="url(#clip250)" d="M 0 0 M39.4644 366.95 Q36.3163 366.95 34.4644 369.102 Q32.6357 371.255 32.6357 375.005 Q32.6357 378.732 34.4644 380.908 Q36.3163 383.061 39.4644 383.061 Q42.6125 383.061 44.4412 380.908 Q46.2931 378.732 46.2931 375.005 Q46.2931 371.255 44.4412 369.102 Q42.6125 366.95 39.4644 366.95 M48.7468 352.297 L48.7468 356.556 Q46.9875 355.723 45.182 355.283 Q43.3996 354.843 41.6403 354.843 Q37.0107 354.843 34.557 357.968 Q32.1265 361.093 31.7793 367.413 Q33.145 365.399 35.2052 364.334 Q37.2653 363.246 39.7422 363.246 Q44.9505 363.246 47.9597 366.417 Q50.9921 369.565 50.9921 375.005 Q50.9921 380.329 47.844 383.547 Q44.6959 386.764 39.4644 386.764 Q33.4691 386.764 30.2978 382.181 Q27.1265 377.575 27.1265 368.848 Q27.1265 360.653 31.0154 355.792 Q34.9042 350.908 41.4551 350.908 Q43.2144 350.908 44.9968 351.255 Q46.8023 351.603 48.7468 352.297 Z" fill="#000000" fill-rule="evenodd" fill-opacity="1" /><polyline clip-path="url(#clip252)" style="stroke:#009af9; stroke-width:4; stroke-opacity:1; fill:none" points="
  86.9921,1464 89.2156,1461.21 91.4392,1452.99 93.6627,1439.53 95.8862,1421.07 98.1097,1397.88 100.333,1370.24 102.557,1338.44 104.78,1302.81 107.004,1263.69 
  109.227,1221.41 111.451,1176.34 113.674,1128.84 115.898,1079.27 118.121,1028.01 120.345,975.428 122.568,921.891 124.792,867.757 127.015,813.387 129.239,759.131 
  131.462,705.318 133.686,652.271 135.909,600.314 138.133,549.73 140.357,500.787 142.58,453.755 144.804,408.885 147.027,366.375 149.251,326.418 151.474,289.202 
  153.698,254.898 155.921,223.612 158.145,195.443 160.368,170.489 162.592,148.836 164.815,130.506 167.039,115.499 169.262,103.817 171.486,95.4589 173.709,90.3848 
  175.933,88.5087 178.156,89.7428 180.38,93.9994 182.603,101.184 184.827,111.154 187.05,123.755 189.274,138.833 191.497,156.236 193.721,175.785 195.944,197.288 
  198.168,220.553 200.391,245.389 202.615,271.596 204.839,298.966 207.062,327.295 209.286,356.379 211.509,386.01 213.733,415.991 215.956,446.125 218.18,476.214 
  220.403,506.072 222.627,535.523 224.85,564.395 227.074,592.515 229.297,619.735 231.521,645.915 233.744,670.918 235.968,694.613 238.191,716.899 240.415,737.681 
  242.638,756.866 244.862,774.374 247.085,790.155 249.309,804.162 251.532,816.35 253.756,826.694 255.979,835.191 258.203,841.843 260.426,846.651 262.65,849.641 
  264.873,850.854 267.097,850.337 269.321,848.132 271.544,844.301 273.768,838.924 275.991,832.081 278.215,823.85 280.438,814.321 282.662,803.598 284.885,791.783 
  287.109,778.979 289.332,765.291 291.556,750.836 293.779,735.726 296.003,720.073 298.226,703.989 300.45,687.59 302.673,670.99 304.897,654.295 307.12,637.61 
  309.344,621.04 311.567,604.693 313.791,588.663 316.014,573.033 318.238,557.889 320.461,543.314 322.685,529.393 324.908,516.19 327.132,503.759 329.355,492.153 
  331.579,481.423 333.803,471.623 336.026,462.786 338.25,454.93 340.473,448.07 342.697,442.223 344.92,437.404 347.144,433.621 349.367,430.859 351.591,429.099 
  353.814,428.319 356.038,428.502 358.261,429.627 360.485,431.66 362.708,434.556 364.932,438.267 367.155,442.748 369.379,447.953 371.602,453.832 373.826,460.323 
  376.049,467.366 378.273,474.903 380.496,482.872 382.72,491.215 384.943,499.865 387.167,508.757 389.39,517.832 391.614,527.028 393.837,536.284 396.061,545.535 
  398.285,554.727 400.508,563.806 402.732,572.719 404.955,581.414 407.179,589.837 409.402,597.947 411.626,605.706 413.849,613.076 416.073,620.019 418.296,626.499 
  420.52,632.493 422.743,637.981 424.967,642.944 427.19,647.364 429.414,651.223 431.637,654.515 433.861,657.242 436.084,659.404 438.308,661.003 440.531,662.04 
  442.755,662.522 444.978,662.468 447.202,661.897 449.425,660.826 451.649,659.276 453.872,657.264 456.096,654.819 458.319,651.972 460.543,648.753 462.766,645.191 
  464.99,641.318 467.214,637.165 469.437,632.77 471.661,628.167 473.884,623.39 476.108,618.473 478.331,613.451 480.555,608.358 482.778,603.232 485.002,598.104 
  487.225,593.004 489.449,587.962 491.672,583.008 493.896,578.174 496.119,573.49 498.343,568.977 500.566,564.655 502.79,560.546 505.013,556.668 507.237,553.043 
  509.46,549.69 511.684,546.62 513.907,543.841 516.131,541.358 518.354,539.18 520.578,537.312 522.801,535.763 525.025,534.533 527.248,533.618 529.472,533.01 
  531.696,532.705 533.919,532.695 536.143,532.974 538.366,533.536 540.59,534.369 542.813,535.456 545.037,536.783 547.26,538.334 549.484,540.093 551.707,542.046 
  553.931,544.175 556.154,546.46 558.378,548.881 560.601,551.42 562.825,554.057 565.048,556.774 567.272,559.553 569.495,562.374 571.719,565.214 573.942,568.058 
  576.166,570.888 578.389,573.688 580.613,576.442 582.836,579.132 585.06,581.742 587.283,584.256 589.507,586.665 591.73,588.956 593.954,591.122 596.178,593.151 
  598.401,595.033 600.625,596.757 602.848,598.318 605.072,599.713 607.295,600.939 609.519,601.995 611.742,602.879 613.966,603.588 616.189,604.12 618.413,604.478 
  620.636,604.665 622.86,604.688 625.083,604.551 627.307,604.261 629.53,603.823 631.754,603.242 633.977,602.523 636.201,601.678 638.424,600.715 640.648,599.645 
  642.871,598.479 645.095,597.224 647.318,595.892 649.542,594.491 651.765,593.034 653.989,591.533 656.212,589.998 658.436,588.439 660.66,586.866 662.883,585.288 
  665.107,583.716 667.33,582.159 669.554,580.629 671.777,579.135 674.001,577.684 676.224,576.282 678.448,574.937 680.671,573.655 682.895,572.442 685.118,571.305 
  687.342,570.251 689.565,569.285 691.789,568.408 694.012,567.621 696.236,566.927 698.459,566.326 700.683,565.82 702.906,565.412 705.13,565.101 707.353,564.889 
  709.577,564.771 711.8,564.745 714.024,564.807 716.247,564.955 718.471,565.185 720.694,565.494 722.918,565.878 725.141,566.335 727.365,566.859 729.589,567.443 
  731.812,568.082 734.036,568.77 736.259,569.501 738.483,570.271 740.706,571.073 742.93,571.902 745.153,572.752 747.377,573.615 749.6,574.486 751.824,575.359 
  754.047,576.23 756.271,577.093 758.494,577.945 760.718,578.779 762.941,579.591 765.165,580.375 767.388,581.125 769.612,581.84 771.835,582.516 774.059,583.151 
  776.282,583.744 778.506,584.291 780.729,584.79 782.953,585.238 785.176,585.634 787.4,585.976 789.623,586.263 791.847,586.496 794.071,586.677 796.294,586.806 
  798.518,586.883 800.741,586.91 802.965,586.888 805.188,586.816 807.412,586.696 809.635,586.531 811.859,586.325 814.082,586.079 816.306,585.797 818.529,585.481 
  820.753,585.134 822.976,584.759 825.2,584.358 827.423,583.935 829.647,583.493 831.87,583.037 834.094,582.569 836.317,582.093 838.541,581.612 840.764,581.128 
  842.988,580.644 845.211,580.163 847.435,579.689 849.658,579.223 851.882,578.771 854.105,578.335 856.329,577.916 858.553,577.516 860.776,577.137 863,576.779 
  865.223,576.445 867.447,576.136 869.67,575.852 871.894,575.596 874.117,575.37 876.341,575.174 878.564,575.008 880.788,574.871 883.011,574.765 885.235,574.686 
  887.458,574.637 889.682,574.614 891.905,574.62 894.129,574.652 896.352,574.71 898.576,574.794 900.799,574.902 903.023,575.033 905.246,575.184 907.47,575.353 
  909.693,575.541 911.917,575.744 914.14,575.961 916.364,576.192 918.587,576.433 920.811,576.683 923.035,576.942 925.258,577.205 927.482,577.471 929.705,577.738 
  931.929,578.005 934.152,578.27 936.376,578.533 938.599,578.791 940.823,579.044 943.046,579.289 945.27,579.526 947.493,579.753 949.717,579.968 951.94,580.169 
  954.164,580.357 956.387,580.531 958.611,580.69 960.834,580.834 963.058,580.964 965.281,581.078 967.505,581.177 969.728,581.259 971.952,581.326 974.175,581.377 
  976.399,581.41 978.622,581.428 980.846,581.429 983.069,581.416 985.293,581.388 987.516,581.347 989.74,581.293 991.964,581.227 994.187,581.149 996.411,581.06 
  998.634,580.961 1000.86,580.852 1003.08,580.735 1005.3,580.61 1007.53,580.479 1009.75,580.343 1011.98,580.203 1014.2,580.06 1016.42,579.915 1018.65,579.768 
  1020.87,579.62 1023.09,579.473 1025.32,579.326 1027.54,579.182 1029.76,579.04 1031.99,578.902 1034.21,578.77 1036.43,578.643 1038.66,578.524 1040.88,578.41 
  1043.1,578.304 1045.33,578.205 1047.55,578.113 1049.77,578.029 1052,577.953 1054.22,577.885 1056.45,577.826 1058.67,577.775 1060.89,577.734 1063.12,577.701 
  1065.34,577.678 1067.56,577.664 1069.79,577.659 1072.01,577.662 1074.23,577.672 1076.46,577.691 1078.68,577.716 1080.9,577.748 1083.13,577.787 1085.35,577.832 
  1087.57,577.883 1089.8,577.939 1092.02,578 1094.25,578.066 1096.47,578.135 1098.69,578.208 1100.92,578.283 1103.14,578.36 1105.36,578.439 1107.59,578.519 
  1109.81,578.599 1112.03,578.68 1114.26,578.76 1116.48,578.84 1118.7,578.918 1120.93,578.995 1123.15,579.07 1125.37,579.143 1127.6,579.212 1129.82,579.276 
  1132.05,579.337 1134.27,579.393 1136.49,579.446 1138.72,579.494 1140.94,579.538 1143.16,579.577 1145.39,579.612 1147.61,579.643 1149.83,579.669 1152.06,579.691 
  1154.28,579.708 1156.5,579.721 1158.73,579.728 1160.95,579.731 1163.17,579.73 1165.4,579.724 1167.62,579.714 1169.84,579.699 1172.07,579.682 1174.29,579.66 
  1176.52,579.636 1178.74,579.609 1180.96,579.578 1183.19,579.546 1185.41,579.511 1187.63,579.474 1189.86,579.435 1192.08,579.394 1194.3,579.352 1196.53,579.309 
  1198.75,579.266 1200.97,579.222 1203.2,579.179 1205.42,579.136 1207.64,579.094 1209.87,579.052 1212.09,579.012 1214.32,578.972 1216.54,578.933 1218.76,578.896 
  1220.99,578.861 1223.21,578.827 1225.43,578.795 1227.66,578.765 1229.88,578.737 1232.1,578.712 1234.33,578.69 1236.55,578.671 1238.77,578.655 1241,578.641 
  1243.22,578.63 1245.44,578.622 1247.67,578.616 1249.89,578.612 1252.12,578.611 1254.34,578.611 1256.56,578.614 1258.79,578.619 1261.01,578.626 1263.23,578.635 
  1265.46,578.645 1267.68,578.657 1269.9,578.67 1272.13,578.685 1274.35,578.702 1276.57,578.719 1278.8,578.737 1281.02,578.757 1283.24,578.777 1285.47,578.797 
  1287.69,578.819 1289.91,578.84 1292.14,578.862 1294.36,578.884 1296.59,578.907 1298.81,578.929 1301.03,578.951 1303.26,578.973 1305.48,578.994 1307.7,579.015 
  1309.93,579.035 1312.15,579.055 1314.37,579.073 1316.6,579.09 1318.82,579.106 1321.04,579.12 1323.27,579.133 1325.49,579.144 1327.71,579.155 1329.94,579.164 
  1332.16,579.172 1334.39,579.179 1336.61,579.184 1338.83,579.189 1341.06,579.192 1343.28,579.194 1345.5,579.196 1347.73,579.196 1349.95,579.195 1352.17,579.193 
  1354.4,579.19 1356.62,579.187 1358.84,579.182 1361.07,579.176 1363.29,579.17 1365.51,579.163 1367.74,579.156 1369.96,579.148 1372.18,579.139 1374.41,579.13 
  1376.63,579.12 1378.86,579.11 1381.08,579.1 1383.3,579.089 1385.53,579.079 1387.75,579.068 1389.97,579.057 1392.2,579.046 1394.42,579.035 1396.64,579.024 
  1398.87,579.013 1401.09,579.003 1403.31,578.992 1405.54,578.983 1407.76,578.974 1409.98,578.965 1412.21,578.957 1414.43,578.95 1416.66,578.943 1418.88,578.937 
  1421.1,578.931 1423.33,578.926 1425.55,578.922 1427.77,578.918 1430,578.914 1432.22,578.911 1434.44,578.909 1436.67,578.907 1438.89,578.906 1441.11,578.905 
  1443.34,578.904 1445.56,578.905 1447.78,578.905 1450.01,578.906 1452.23,578.908 1454.46,578.91 1456.68,578.912 1458.9,578.914 1461.13,578.917 1463.35,578.92 
  1465.57,578.923 1467.8,578.927 1470.02,578.93 1472.24,578.934 1474.47,578.938 1476.69,578.942 1478.91,578.946 1481.14,578.95 1483.36,578.955 1485.58,578.959 
  1487.81,578.964 1490.03,578.968 1492.25,578.972 1494.48,578.977 1496.7,578.981 1498.93,578.985 1501.15,578.989 1503.37,578.993 1505.6,578.997 1507.82,579 
  1510.04,579.003 1512.27,579.007 1514.49,579.009 1516.71,579.012 1518.94,579.015 1521.16,579.017 1523.38,579.019 1525.61,579.021 1527.83,579.023 1530.05,579.025 
  1532.28,579.026 1534.5,579.027 1536.73,579.028 1538.95,579.029 1541.17,579.03 1543.4,579.031 1545.62,579.031 1547.84,579.031 1550.07,579.031 1552.29,579.031 
  1554.51,579.031 1556.74,579.031 1558.96,579.031 1561.18,579.03 1563.41,579.03 1565.63,579.03 1567.85,579.029 1570.08,579.029 1572.3,579.029 1574.52,579.028 
  1576.75,579.028 1578.97,579.027 1581.2,579.027 1583.42,579.026 1585.64,579.026 1587.87,579.025 1590.09,579.025 1592.31,579.024 1594.54,579.024 1596.76,579.024 
  1598.98,579.023 1601.21,579.023 1603.43,579.022 1605.65,579.022 1607.88,579.022 1610.1,579.021 1612.32,579.021 1614.55,579.021 1616.77,579.02 1619,579.02 
  1621.22,579.02 1623.44,579.02 1625.67,579.02 1627.89,579.02 1630.11,579.02 1632.34,579.02 1634.56,579.019 1636.78,579.019 1639.01,579.019 1641.23,579.018 
  1643.45,579.018 1645.68,579.017 1647.9,579.016 1650.12,579.016 1652.35,579.015 1654.57,579.014 1656.8,579.013 1659.02,579.012 1661.24,579.011 1663.47,579.01 
  1665.69,579.009 1667.91,579.008 1670.14,579.007 1672.36,579.006 1674.58,579.005 1676.81,579.004 1679.03,579.003 1681.25,579.002 1683.48,579.001 1685.7,579 
  1687.92,578.999 1690.15,578.999 1692.37,578.998 1694.59,578.998 1696.82,578.998 1699.04,578.997 1701.27,578.997 1703.49,578.997 1705.71,578.997 1707.94,578.997 
  1710.16,578.998 1712.38,578.998 1714.61,578.998 1716.83,578.998 1719.05,578.999 1721.28,578.999 1723.5,578.999 1725.72,579 1727.95,579 1730.17,579 
  1732.39,579.001 1734.62,579.001 1736.84,579.001 1739.07,579.002 1741.29,579.002 1743.51,579.002 1745.74,579.002 1747.96,579.002 1750.18,579.002 1752.41,579.002 
  1754.63,579.001 1756.85,579.001 1759.08,579.001 1761.3,579 1763.52,579 1765.75,578.999 1767.97,578.999 1770.19,578.999 1772.42,578.999 1774.64,578.998 
  1776.87,578.998 1779.09,578.998 1781.31,578.998 1783.54,578.999 1785.76,578.999 1787.98,578.999 1790.21,578.999 1792.43,578.999 1794.65,578.999 1796.88,579 
  1799.1,579 1801.32,579 1803.55,579 1805.77,579.001 1807.99,579.001 1810.22,579.001 1812.44,579.001 1814.66,579.001 1816.89,579.002 1819.11,579.002 
  1821.34,579.002 1823.56,579.002 1825.78,579.002 1828.01,579.002 1830.23,579.002 1832.45,579.001 1834.68,579.001 1836.9,579.001 1839.12,579.001 1841.35,579 
  1843.57,579 1845.79,579 1848.02,579 1850.24,579 1852.46,579 1854.69,579 1856.91,579 1859.14,579 1861.36,579.001 1863.58,579.001 
  1865.81,579.001 1868.03,579.002 1870.25,579.002 1872.48,579.002 1874.7,579.003 1876.92,579.003 1879.15,579.004 1881.37,579.004 1883.59,579.005 1885.82,579.005 
  1888.04,579.005 1890.26,579.006 1892.49,579.006 1894.71,579.007 1896.93,579.007 1899.16,579.007 1901.38,579.007 1903.61,579.008 1905.83,579.008 1908.05,579.008 
  1910.28,579.008 1912.5,579.008 1914.72,579.008 1916.95,579.008 1919.17,579.007 1921.39,579.007 1923.62,579.006 1925.84,579.006 1928.06,579.005 1930.29,579.004 
  1932.51,579.004 1934.73,579.003 1936.96,579.003 1939.18,579.002 1941.41,579.002 1943.63,579.002 1945.85,579.002 1948.08,579.003 1950.3,579.003 1952.52,579.003 
  1954.75,579.004 1956.97,579.004 1959.19,579.005 1961.42,579.006 1963.64,579.006 1965.86,579.007 1968.09,579.008 1970.31,579.009 1972.53,579.01 1974.76,579.01 
  1976.98,579.011 1979.21,579.012 1981.43,579.013 1983.65,579.013 1985.88,579.014 1988.1,579.015 1990.32,579.015 1992.55,579.016 1994.77,579.016 1996.99,579.016 
  1999.22,579.017 2001.44,579.017 2003.66,579.017 2005.89,579.016 2008.11,579.016 2010.33,579.016 2012.56,579.015 2014.78,579.014 2017,579.013 2019.23,579.012 
  2021.45,579.011 2023.68,579.009 2025.9,579.009 2028.12,579.008 2030.35,579.007 2032.57,579.007 2034.79,579.007 2037.02,579.007 2039.24,579.007 2041.46,579.007 
  2043.69,579.007 2045.91,579.007 2048.13,579.008 2050.36,579.008 2052.58,579.009 2054.8,579.01 2057.03,579.01 2059.25,579.011 2061.48,579.011 2063.7,579.012 
  2065.92,579.013 2068.15,579.013 2070.37,579.014 2072.59,579.015 2074.82,579.015 2077.04,579.015 2079.26,579.016 2081.49,579.016 2083.71,579.016 2085.93,579.016 
  2088.16,579.016 2090.38,579.016 2092.6,579.016 2094.83,579.015 2097.05,579.014 2099.27,579.014 2101.5,579.012 2103.72,579.011 2105.95,579.011 2108.17,579.01 
  2110.39,579.009 2112.62,579.009 2114.84,579.008 2117.06,579.008 2119.29,579.008 2121.51,579.008 2123.73,579.008 2125.96,579.008 2128.18,579.008 2130.4,579.008 
  2132.63,579.008 2134.85,579.008 2137.07,579.009 2139.3,579.009 2141.52,579.009 2143.75,579.01 2145.97,579.01 2148.19,579.01 2150.42,579.01 2152.64,579.011 
  2154.86,579.011 2157.09,579.011 2159.31,579.011 2161.53,579.011 2163.76,579.011 2165.98,579.011 2168.2,579.011 2170.43,579.011 2172.65,579.011 2174.87,579.01 
  2177.1,579.01 2179.32,579.009 2181.55,579.008 2183.77,579.008 2185.99,579.007 2188.22,579.007 2190.44,579.007 2192.66,579.006 2194.89,579.006 2197.11,579.006 
  2199.33,579.006 2201.56,579.006 2203.78,579.006 2206,579.006 2208.23,579.006 2210.45,579.007 2212.67,579.007 2214.9,579.007 2217.12,579.007 2219.34,579.007 
  2221.57,579.008 2223.79,579.008 2226.02,579.008 2228.24,579.008 2230.46,579.009 2232.69,579.009 2234.91,579.009 2237.13,579.009 2239.36,579.009 2241.58,579.009 
  2243.8,579.009 2246.03,579.009 2248.25,579.009 2250.47,579.009 2252.7,579.009 2254.92,579.009 2257.14,579.008 2259.37,579.008 2261.59,579.007 2263.82,579.007 
  2266.04,579.007 2268.26,579.006 2270.49,579.006 2272.71,579.006 2274.93,579.006 2277.16,579.006 2279.38,579.006 2281.6,579.006 2283.83,579.006 2286.05,579.006 
  2288.27,579.007 2290.5,579.007 2292.72,579.007 2294.94,579.007 2297.17,579.008 2299.39,579.008 2301.62,579.008 2303.84,579.008 2306.06,579.009 2308.29,579.009 
  2310.51,579.009 2312.73,579.009 2314.96,579.01 2317.18,579.01 2319.4,579.01 2321.63,579.01 2323.85,579.01 2326.07,579.01 2328.3,579.01 2330.52,579.01 
  2332.74,579.01 2334.97,579.01 2337.19,579.01 2339.41,579.01 2341.64,579.009 2343.86,579.009 2346.09,579.008 2348.31,579.008 2350.53,579.007 2352.76,579.007 
  
  "/>
<path clip-path="url(#clip250)" d="
M1457.4 216.805 L2277.23 216.805 L2277.23 95.8446 L1457.4 95.8446  Z
  " fill="#ffffff" fill-rule="evenodd" fill-opacity="1"/>
<polyline clip-path="url(#clip250)" style="stroke:#000000; stroke-width:4; stroke-opacity:1; fill:none" points="
  1457.4,216.805 2277.23,216.805 2277.23,95.8446 1457.4,95.8446 1457.4,216.805 
  "/>
<polyline clip-path="url(#clip250)" style="stroke:#009af9; stroke-width:4; stroke-opacity:1; fill:none" points="
  1482.58,156.325 1633.63,156.325 
  "/>
<path clip-path="url(#clip250)" d="M 0 0 M1658.8 139.045 L1680.66 139.045 L1680.66 142.98 L1663.48 142.98 L1663.48 153.211 L1679.94 153.211 L1679.94 157.146 L1663.48 157.146 L1663.48 169.669 L1681.07 169.669 L1681.07 173.605 L1658.8 173.605 L1658.8 139.045 Z" fill="#000000" fill-rule="evenodd" fill-opacity="1" /><path clip-path="url(#clip250)" d="M 0 0 M1710.12 147.679 L1700.75 160.295 L1710.61 173.605 L1705.59 173.605 L1698.04 163.419 L1690.49 173.605 L1685.47 173.605 L1695.54 160.04 L1686.33 147.679 L1691.35 147.679 L1698.23 156.915 L1705.1 147.679 L1710.12 147.679 Z" fill="#000000" fill-rule="evenodd" fill-opacity="1" /><path clip-path="url(#clip250)" d="M 0 0 M1734.45 148.674 L1734.45 152.656 Q1732.65 151.66 1730.82 151.174 Q1729.01 150.665 1727.16 150.665 Q1723.02 150.665 1720.73 153.304 Q1718.43 155.92 1718.43 160.665 Q1718.43 165.41 1720.73 168.049 Q1723.02 170.665 1727.16 170.665 Q1729.01 170.665 1730.82 170.179 Q1732.65 169.669 1734.45 168.674 L1734.45 172.609 Q1732.67 173.443 1730.75 173.859 Q1728.85 174.276 1726.7 174.276 Q1720.84 174.276 1717.39 170.595 Q1713.94 166.915 1713.94 160.665 Q1713.94 154.322 1717.42 150.688 Q1720.91 147.054 1726.98 147.054 Q1728.94 147.054 1730.82 147.471 Q1732.69 147.864 1734.45 148.674 Z" fill="#000000" fill-rule="evenodd" fill-opacity="1" /><path clip-path="url(#clip250)" d="M 0 0 M1741.86 147.679 L1746.12 147.679 L1746.12 173.605 L1741.86 173.605 L1741.86 147.679 M1741.86 137.586 L1746.12 137.586 L1746.12 142.98 L1741.86 142.98 L1741.86 137.586 Z" fill="#000000" fill-rule="evenodd" fill-opacity="1" /><path clip-path="url(#clip250)" d="M 0 0 M1759.24 140.318 L1759.24 147.679 L1768.02 147.679 L1768.02 150.989 L1759.24 150.989 L1759.24 165.063 Q1759.24 168.234 1760.1 169.137 Q1760.98 170.04 1763.64 170.04 L1768.02 170.04 L1768.02 173.605 L1763.64 173.605 Q1758.71 173.605 1756.84 171.776 Q1754.96 169.924 1754.96 165.063 L1754.96 150.989 L1751.84 150.989 L1751.84 147.679 L1754.96 147.679 L1754.96 140.318 L1759.24 140.318 Z" fill="#000000" fill-rule="evenodd" fill-opacity="1" /><path clip-path="url(#clip250)" d="M 0 0 M1795.79 159.577 L1795.79 161.66 L1776.21 161.66 Q1776.49 166.058 1778.85 168.373 Q1781.23 170.665 1785.47 170.665 Q1787.92 170.665 1790.22 170.063 Q1792.53 169.461 1794.8 168.257 L1794.8 172.285 Q1792.51 173.257 1790.1 173.767 Q1787.69 174.276 1785.22 174.276 Q1779.01 174.276 1775.38 170.665 Q1771.77 167.054 1771.77 160.896 Q1771.77 154.531 1775.19 150.804 Q1778.64 147.054 1784.48 147.054 Q1789.71 147.054 1792.74 150.433 Q1795.79 153.79 1795.79 159.577 M1791.54 158.327 Q1791.49 154.832 1789.57 152.748 Q1787.67 150.665 1784.52 150.665 Q1780.96 150.665 1778.8 152.679 Q1776.67 154.693 1776.35 158.35 L1791.54 158.327 Z" fill="#000000" fill-rule="evenodd" fill-opacity="1" /><path clip-path="url(#clip250)" d="M 0 0 M1819.85 151.614 L1819.85 137.586 L1824.1 137.586 L1824.1 173.605 L1819.85 173.605 L1819.85 169.716 Q1818.5 172.031 1816.44 173.165 Q1814.41 174.276 1811.54 174.276 Q1806.84 174.276 1803.87 170.526 Q1800.93 166.776 1800.93 160.665 Q1800.93 154.554 1803.87 150.804 Q1806.84 147.054 1811.54 147.054 Q1814.41 147.054 1816.44 148.188 Q1818.5 149.299 1819.85 151.614 M1805.33 160.665 Q1805.33 165.364 1807.25 168.049 Q1809.2 170.711 1812.58 170.711 Q1815.96 170.711 1817.9 168.049 Q1819.85 165.364 1819.85 160.665 Q1819.85 155.966 1817.9 153.304 Q1815.96 150.619 1812.58 150.619 Q1809.2 150.619 1807.25 153.304 Q1805.33 155.966 1805.33 160.665 Z" fill="#000000" fill-rule="evenodd" fill-opacity="1" /><path clip-path="url(#clip250)" d="M 0 0 M1864.47 148.443 L1864.47 152.47 Q1862.67 151.545 1860.72 151.082 Q1858.78 150.619 1856.7 150.619 Q1853.53 150.619 1851.93 151.591 Q1850.35 152.563 1850.35 154.507 Q1850.35 155.989 1851.49 156.845 Q1852.62 157.679 1856.05 158.443 L1857.51 158.767 Q1862.04 159.739 1863.94 161.521 Q1865.86 163.281 1865.86 166.452 Q1865.86 170.063 1862.99 172.169 Q1860.15 174.276 1855.15 174.276 Q1853.06 174.276 1850.79 173.859 Q1848.55 173.466 1846.05 172.656 L1846.05 168.257 Q1848.41 169.484 1850.7 170.109 Q1852.99 170.711 1855.24 170.711 Q1858.25 170.711 1859.87 169.693 Q1861.49 168.651 1861.49 166.776 Q1861.49 165.04 1860.31 164.114 Q1859.15 163.188 1855.19 162.332 L1853.71 161.984 Q1849.75 161.151 1847.99 159.438 Q1846.23 157.702 1846.23 154.693 Q1846.23 151.035 1848.83 149.045 Q1851.42 147.054 1856.19 147.054 Q1858.55 147.054 1860.63 147.401 Q1862.72 147.748 1864.47 148.443 Z" fill="#000000" fill-rule="evenodd" fill-opacity="1" /><path clip-path="url(#clip250)" d="M 0 0 M1876.86 140.318 L1876.86 147.679 L1885.63 147.679 L1885.63 150.989 L1876.86 150.989 L1876.86 165.063 Q1876.86 168.234 1877.72 169.137 Q1878.59 170.04 1881.26 170.04 L1885.63 170.04 L1885.63 173.605 L1881.26 173.605 Q1876.33 173.605 1874.45 171.776 Q1872.58 169.924 1872.58 165.063 L1872.58 150.989 L1869.45 150.989 L1869.45 147.679 L1872.58 147.679 L1872.58 140.318 L1876.86 140.318 Z" fill="#000000" fill-rule="evenodd" fill-opacity="1" /><path clip-path="url(#clip250)" d="M 0 0 M1903.02 160.572 Q1897.85 160.572 1895.86 161.753 Q1893.87 162.933 1893.87 165.781 Q1893.87 168.049 1895.35 169.392 Q1896.86 170.711 1899.43 170.711 Q1902.97 170.711 1905.1 168.211 Q1907.25 165.688 1907.25 161.521 L1907.25 160.572 L1903.02 160.572 M1911.51 158.813 L1911.51 173.605 L1907.25 173.605 L1907.25 169.669 Q1905.79 172.031 1903.62 173.165 Q1901.44 174.276 1898.29 174.276 Q1894.31 174.276 1891.95 172.054 Q1889.61 169.808 1889.61 166.058 Q1889.61 161.683 1892.53 159.461 Q1895.47 157.239 1901.28 157.239 L1907.25 157.239 L1907.25 156.822 Q1907.25 153.883 1905.31 152.285 Q1903.39 150.665 1899.89 150.665 Q1897.67 150.665 1895.56 151.197 Q1893.46 151.73 1891.51 152.795 L1891.51 148.859 Q1893.85 147.957 1896.05 147.517 Q1898.25 147.054 1900.33 147.054 Q1905.96 147.054 1908.73 149.97 Q1911.51 152.887 1911.51 158.813 Z" fill="#000000" fill-rule="evenodd" fill-opacity="1" /><path clip-path="url(#clip250)" d="M 0 0 M1924.5 140.318 L1924.5 147.679 L1933.27 147.679 L1933.27 150.989 L1924.5 150.989 L1924.5 165.063 Q1924.5 168.234 1925.35 169.137 Q1926.23 170.04 1928.9 170.04 L1933.27 170.04 L1933.27 173.605 L1928.9 173.605 Q1923.97 173.605 1922.09 171.776 Q1920.22 169.924 1920.22 165.063 L1920.22 150.989 L1917.09 150.989 L1917.09 147.679 L1920.22 147.679 L1920.22 140.318 L1924.5 140.318 Z" fill="#000000" fill-rule="evenodd" fill-opacity="1" /><path clip-path="url(#clip250)" d="M 0 0 M1961.05 159.577 L1961.05 161.66 L1941.47 161.66 Q1941.74 166.058 1944.1 168.373 Q1946.49 170.665 1950.72 170.665 Q1953.18 170.665 1955.47 170.063 Q1957.78 169.461 1960.05 168.257 L1960.05 172.285 Q1957.76 173.257 1955.35 173.767 Q1952.95 174.276 1950.47 174.276 Q1944.27 174.276 1940.63 170.665 Q1937.02 167.054 1937.02 160.896 Q1937.02 154.531 1940.45 150.804 Q1943.9 147.054 1949.73 147.054 Q1954.96 147.054 1957.99 150.433 Q1961.05 153.79 1961.05 159.577 M1956.79 158.327 Q1956.74 154.832 1954.82 152.748 Q1952.92 150.665 1949.78 150.665 Q1946.21 150.665 1944.06 152.679 Q1941.93 154.693 1941.6 158.35 L1956.79 158.327 Z" fill="#000000" fill-rule="evenodd" fill-opacity="1" /><path clip-path="url(#clip250)" d="M 0 0 M1987.23 169.716 L1987.23 183.466 L1982.95 183.466 L1982.95 147.679 L1987.23 147.679 L1987.23 151.614 Q1988.57 149.299 1990.61 148.188 Q1992.67 147.054 1995.52 147.054 Q2000.24 147.054 2003.18 150.804 Q2006.14 154.554 2006.14 160.665 Q2006.14 166.776 2003.18 170.526 Q2000.24 174.276 1995.52 174.276 Q1992.67 174.276 1990.61 173.165 Q1988.57 172.031 1987.23 169.716 M2001.72 160.665 Q2001.72 155.966 1999.77 153.304 Q1997.85 150.619 1994.47 150.619 Q1991.09 150.619 1989.15 153.304 Q1987.23 155.966 1987.23 160.665 Q1987.23 165.364 1989.15 168.049 Q1991.09 170.711 1994.47 170.711 Q1997.85 170.711 1999.77 168.049 Q2001.72 165.364 2001.72 160.665 Z" fill="#000000" fill-rule="evenodd" fill-opacity="1" /><path clip-path="url(#clip250)" d="M 0 0 M2023.25 150.665 Q2019.82 150.665 2017.83 153.35 Q2015.84 156.012 2015.84 160.665 Q2015.84 165.318 2017.81 168.003 Q2019.8 170.665 2023.25 170.665 Q2026.65 170.665 2028.64 167.98 Q2030.63 165.294 2030.63 160.665 Q2030.63 156.058 2028.64 153.373 Q2026.65 150.665 2023.25 150.665 M2023.25 147.054 Q2028.8 147.054 2031.97 150.665 Q2035.15 154.276 2035.15 160.665 Q2035.15 167.031 2031.97 170.665 Q2028.8 174.276 2023.25 174.276 Q2017.67 174.276 2014.5 170.665 Q2011.35 167.031 2011.35 160.665 Q2011.35 154.276 2014.5 150.665 Q2017.67 147.054 2023.25 147.054 Z" fill="#000000" fill-rule="evenodd" fill-opacity="1" /><path clip-path="url(#clip250)" d="M 0 0 M2046.33 169.716 L2046.33 183.466 L2042.04 183.466 L2042.04 147.679 L2046.33 147.679 L2046.33 151.614 Q2047.67 149.299 2049.71 148.188 Q2051.77 147.054 2054.61 147.054 Q2059.33 147.054 2062.27 150.804 Q2065.24 154.554 2065.24 160.665 Q2065.24 166.776 2062.27 170.526 Q2059.33 174.276 2054.61 174.276 Q2051.77 174.276 2049.71 173.165 Q2047.67 172.031 2046.33 169.716 M2060.82 160.665 Q2060.82 155.966 2058.87 153.304 Q2056.95 150.619 2053.57 150.619 Q2050.19 150.619 2048.25 153.304 Q2046.33 155.966 2046.33 160.665 Q2046.33 165.364 2048.25 168.049 Q2050.19 170.711 2053.57 170.711 Q2056.95 170.711 2058.87 168.049 Q2060.82 165.364 2060.82 160.665 Z" fill="#000000" fill-rule="evenodd" fill-opacity="1" /><path clip-path="url(#clip250)" d="M 0 0 M2071.86 163.373 L2071.86 147.679 L2076.12 147.679 L2076.12 163.211 Q2076.12 166.892 2077.55 168.744 Q2078.99 170.572 2081.86 170.572 Q2085.31 170.572 2087.3 168.373 Q2089.31 166.174 2089.31 162.378 L2089.31 147.679 L2093.57 147.679 L2093.57 173.605 L2089.31 173.605 L2089.31 169.623 Q2087.76 171.984 2085.7 173.142 Q2083.66 174.276 2080.95 174.276 Q2076.49 174.276 2074.17 171.498 Q2071.86 168.72 2071.86 163.373 M2082.58 147.054 L2082.58 147.054 Z" fill="#000000" fill-rule="evenodd" fill-opacity="1" /><path clip-path="url(#clip250)" d="M 0 0 M2102.34 137.586 L2106.6 137.586 L2106.6 173.605 L2102.34 173.605 L2102.34 137.586 Z" fill="#000000" fill-rule="evenodd" fill-opacity="1" /><path clip-path="url(#clip250)" d="M 0 0 M2127.3 160.572 Q2122.14 160.572 2120.14 161.753 Q2118.15 162.933 2118.15 165.781 Q2118.15 168.049 2119.64 169.392 Q2121.14 170.711 2123.71 170.711 Q2127.25 170.711 2129.38 168.211 Q2131.53 165.688 2131.53 161.521 L2131.53 160.572 L2127.3 160.572 M2135.79 158.813 L2135.79 173.605 L2131.53 173.605 L2131.53 169.669 Q2130.08 172.031 2127.9 173.165 Q2125.72 174.276 2122.58 174.276 Q2118.59 174.276 2116.23 172.054 Q2113.89 169.808 2113.89 166.058 Q2113.89 161.683 2116.81 159.461 Q2119.75 157.239 2125.56 157.239 L2131.53 157.239 L2131.53 156.822 Q2131.53 153.883 2129.59 152.285 Q2127.67 150.665 2124.17 150.665 Q2121.95 150.665 2119.84 151.197 Q2117.74 151.73 2115.79 152.795 L2115.79 148.859 Q2118.13 147.957 2120.33 147.517 Q2122.53 147.054 2124.61 147.054 Q2130.24 147.054 2133.01 149.97 Q2135.79 152.887 2135.79 158.813 Z" fill="#000000" fill-rule="evenodd" fill-opacity="1" /><path clip-path="url(#clip250)" d="M 0 0 M2148.78 140.318 L2148.78 147.679 L2157.55 147.679 L2157.55 150.989 L2148.78 150.989 L2148.78 165.063 Q2148.78 168.234 2149.64 169.137 Q2150.51 170.04 2153.18 170.04 L2157.55 170.04 L2157.55 173.605 L2153.18 173.605 Q2148.25 173.605 2146.37 171.776 Q2144.5 169.924 2144.5 165.063 L2144.5 150.989 L2141.37 150.989 L2141.37 147.679 L2144.5 147.679 L2144.5 140.318 L2148.78 140.318 Z" fill="#000000" fill-rule="evenodd" fill-opacity="1" /><path clip-path="url(#clip250)" d="M 0 0 M2163.15 147.679 L2167.41 147.679 L2167.41 173.605 L2163.15 173.605 L2163.15 147.679 M2163.15 137.586 L2167.41 137.586 L2167.41 142.98 L2163.15 142.98 L2163.15 137.586 Z" fill="#000000" fill-rule="evenodd" fill-opacity="1" /><path clip-path="url(#clip250)" d="M 0 0 M2186.37 150.665 Q2182.95 150.665 2180.95 153.35 Q2178.96 156.012 2178.96 160.665 Q2178.96 165.318 2180.93 168.003 Q2182.92 170.665 2186.37 170.665 Q2189.77 170.665 2191.76 167.98 Q2193.76 165.294 2193.76 160.665 Q2193.76 156.058 2191.76 153.373 Q2189.77 150.665 2186.37 150.665 M2186.37 147.054 Q2191.93 147.054 2195.1 150.665 Q2198.27 154.276 2198.27 160.665 Q2198.27 167.031 2195.1 170.665 Q2191.93 174.276 2186.37 174.276 Q2180.79 174.276 2177.62 170.665 Q2174.47 167.031 2174.47 160.665 Q2174.47 154.276 2177.62 150.665 Q2180.79 147.054 2186.37 147.054 Z" fill="#000000" fill-rule="evenodd" fill-opacity="1" /><path clip-path="url(#clip250)" d="M 0 0 M2226.88 157.957 L2226.88 173.605 L2222.62 173.605 L2222.62 158.095 Q2222.62 154.415 2221.19 152.586 Q2219.75 150.758 2216.88 150.758 Q2213.43 150.758 2211.44 152.957 Q2209.45 155.156 2209.45 158.952 L2209.45 173.605 L2205.17 173.605 L2205.17 147.679 L2209.45 147.679 L2209.45 151.707 Q2210.98 149.369 2213.04 148.211 Q2215.12 147.054 2217.83 147.054 Q2222.3 147.054 2224.59 149.832 Q2226.88 152.586 2226.88 157.957 Z" fill="#000000" fill-rule="evenodd" fill-opacity="1" /></svg>
