<?xml version="1.0" encoding="utf-8"?>
<svg xmlns="http://www.w3.org/2000/svg" xmlns:xlink="http://www.w3.org/1999/xlink" width="600" height="400" viewBox="0 0 2400 1600">
<defs>
  <clipPath id="clip730">
    <rect x="0" y="0" width="2400" height="1600"/>
  </clipPath>
</defs>
<path clip-path="url(#clip730)" d="
M0 1600 L2400 1600 L2400 0 L0 0  Z
  " fill="#ffffff" fill-rule="evenodd" fill-opacity="1"/>
<defs>
  <clipPath id="clip731">
    <rect x="480" y="0" width="1681" height="1600"/>
  </clipPath>
</defs>
<path clip-path="url(#clip730)" d="
M249.542 1423.18 L2352.76 1423.18 L2352.76 47.2441 L249.542 47.2441  Z
  " fill="#ffffff" fill-rule="evenodd" fill-opacity="1"/>
<defs>
  <clipPath id="clip732">
    <rect x="249" y="47" width="2104" height="1377"/>
  </clipPath>
</defs>
<polyline clip-path="url(#clip732)" style="stroke:#000000; stroke-linecap:butt; stroke-linejoin:round; stroke-width:2; stroke-opacity:0.1; fill:none" points="
  309.067,1423.18 309.067,47.2441 
  "/>
<polyline clip-path="url(#clip732)" style="stroke:#000000; stroke-linecap:butt; stroke-linejoin:round; stroke-width:2; stroke-opacity:0.1; fill:none" points="
  805.108,1423.18 805.108,47.2441 
  "/>
<polyline clip-path="url(#clip732)" style="stroke:#000000; stroke-linecap:butt; stroke-linejoin:round; stroke-width:2; stroke-opacity:0.1; fill:none" points="
  1301.15,1423.18 1301.15,47.2441 
  "/>
<polyline clip-path="url(#clip732)" style="stroke:#000000; stroke-linecap:butt; stroke-linejoin:round; stroke-width:2; stroke-opacity:0.1; fill:none" points="
  1797.19,1423.18 1797.19,47.2441 
  "/>
<polyline clip-path="url(#clip732)" style="stroke:#000000; stroke-linecap:butt; stroke-linejoin:round; stroke-width:2; stroke-opacity:0.1; fill:none" points="
  2293.23,1423.18 2293.23,47.2441 
  "/>
<polyline clip-path="url(#clip730)" style="stroke:#000000; stroke-linecap:butt; stroke-linejoin:round; stroke-width:4; stroke-opacity:1; fill:none" points="
  249.542,1423.18 2352.76,1423.18 
  "/>
<polyline clip-path="url(#clip730)" style="stroke:#000000; stroke-linecap:butt; stroke-linejoin:round; stroke-width:4; stroke-opacity:1; fill:none" points="
  309.067,1423.18 309.067,1404.28 
  "/>
<polyline clip-path="url(#clip730)" style="stroke:#000000; stroke-linecap:butt; stroke-linejoin:round; stroke-width:4; stroke-opacity:1; fill:none" points="
  805.108,1423.18 805.108,1404.28 
  "/>
<polyline clip-path="url(#clip730)" style="stroke:#000000; stroke-linecap:butt; stroke-linejoin:round; stroke-width:4; stroke-opacity:1; fill:none" points="
  1301.15,1423.18 1301.15,1404.28 
  "/>
<polyline clip-path="url(#clip730)" style="stroke:#000000; stroke-linecap:butt; stroke-linejoin:round; stroke-width:4; stroke-opacity:1; fill:none" points="
  1797.19,1423.18 1797.19,1404.28 
  "/>
<polyline clip-path="url(#clip730)" style="stroke:#000000; stroke-linecap:butt; stroke-linejoin:round; stroke-width:4; stroke-opacity:1; fill:none" points="
  2293.23,1423.18 2293.23,1404.28 
  "/>
<path clip-path="url(#clip730)" d="M263.13 1468.75 L292.805 1468.75 L292.805 1472.69 L263.13 1472.69 L263.13 1468.75 Z" fill="#000000" fill-rule="evenodd" fill-opacity="1" /><path clip-path="url(#clip730)" d="M303.708 1481.64 L311.347 1481.64 L311.347 1455.28 L303.037 1456.95 L303.037 1452.69 L311.301 1451.02 L315.977 1451.02 L315.977 1481.64 L323.615 1481.64 L323.615 1485.58 L303.708 1485.58 L303.708 1481.64 Z" fill="#000000" fill-rule="evenodd" fill-opacity="1" /><path clip-path="url(#clip730)" d="M343.06 1454.1 Q339.449 1454.1 337.62 1457.66 Q335.814 1461.2 335.814 1468.33 Q335.814 1475.44 337.62 1479.01 Q339.449 1482.55 343.06 1482.55 Q346.694 1482.55 348.5 1479.01 Q350.328 1475.44 350.328 1468.33 Q350.328 1461.2 348.5 1457.66 Q346.694 1454.1 343.06 1454.1 M343.06 1450.39 Q348.87 1450.39 351.926 1455 Q355.004 1459.58 355.004 1468.33 Q355.004 1477.06 351.926 1481.67 Q348.87 1486.25 343.06 1486.25 Q337.25 1486.25 334.171 1481.67 Q331.115 1477.06 331.115 1468.33 Q331.115 1459.58 334.171 1455 Q337.25 1450.39 343.06 1450.39 Z" fill="#000000" fill-rule="evenodd" fill-opacity="1" /><path clip-path="url(#clip730)" d="M774.749 1468.75 L804.425 1468.75 L804.425 1472.69 L774.749 1472.69 L774.749 1468.75 Z" fill="#000000" fill-rule="evenodd" fill-opacity="1" /><path clip-path="url(#clip730)" d="M814.564 1451.02 L832.92 1451.02 L832.92 1454.96 L818.846 1454.96 L818.846 1463.43 Q819.865 1463.08 820.883 1462.92 Q821.902 1462.73 822.92 1462.73 Q828.707 1462.73 832.087 1465.9 Q835.467 1469.08 835.467 1474.49 Q835.467 1480.07 831.994 1483.17 Q828.522 1486.25 822.203 1486.25 Q820.027 1486.25 817.758 1485.88 Q815.513 1485.51 813.106 1484.77 L813.106 1480.07 Q815.189 1481.2 817.411 1481.76 Q819.633 1482.32 822.11 1482.32 Q826.115 1482.32 828.453 1480.21 Q830.791 1478.1 830.791 1474.49 Q830.791 1470.88 828.453 1468.77 Q826.115 1466.67 822.11 1466.67 Q820.235 1466.67 818.36 1467.08 Q816.508 1467.5 814.564 1468.38 L814.564 1451.02 Z" fill="#000000" fill-rule="evenodd" fill-opacity="1" /><path clip-path="url(#clip730)" d="M1301.15 1454.1 Q1297.54 1454.1 1295.71 1457.66 Q1293.9 1461.2 1293.9 1468.33 Q1293.9 1475.44 1295.71 1479.01 Q1297.54 1482.55 1301.15 1482.55 Q1304.78 1482.55 1306.59 1479.01 Q1308.42 1475.44 1308.42 1468.33 Q1308.42 1461.2 1306.59 1457.66 Q1304.78 1454.1 1301.15 1454.1 M1301.15 1450.39 Q1306.96 1450.39 1310.01 1455 Q1313.09 1459.58 1313.09 1468.33 Q1313.09 1477.06 1310.01 1481.67 Q1306.96 1486.25 1301.15 1486.25 Q1295.34 1486.25 1292.26 1481.67 Q1289.2 1477.06 1289.2 1468.33 Q1289.2 1459.58 1292.26 1455 Q1295.34 1450.39 1301.15 1450.39 Z" fill="#000000" fill-rule="evenodd" fill-opacity="1" /><path clip-path="url(#clip730)" d="M1787.47 1451.02 L1805.82 1451.02 L1805.82 1454.96 L1791.75 1454.96 L1791.75 1463.43 Q1792.77 1463.08 1793.79 1462.92 Q1794.81 1462.73 1795.82 1462.73 Q1801.61 1462.73 1804.99 1465.9 Q1808.37 1469.08 1808.37 1474.49 Q1808.37 1480.07 1804.9 1483.17 Q1801.43 1486.25 1795.11 1486.25 Q1792.93 1486.25 1790.66 1485.88 Q1788.42 1485.51 1786.01 1484.77 L1786.01 1480.07 Q1788.09 1481.2 1790.32 1481.76 Q1792.54 1482.32 1795.01 1482.32 Q1799.02 1482.32 1801.36 1480.21 Q1803.69 1478.1 1803.69 1474.49 Q1803.69 1470.88 1801.36 1468.77 Q1799.02 1466.67 1795.01 1466.67 Q1793.14 1466.67 1791.26 1467.08 Q1789.41 1467.5 1787.47 1468.38 L1787.47 1451.02 Z" fill="#000000" fill-rule="evenodd" fill-opacity="1" /><path clip-path="url(#clip730)" d="M2267.92 1481.64 L2275.56 1481.64 L2275.56 1455.28 L2267.25 1456.95 L2267.25 1452.69 L2275.51 1451.02 L2280.19 1451.02 L2280.19 1481.64 L2287.83 1481.64 L2287.83 1485.58 L2267.92 1485.58 L2267.92 1481.64 Z" fill="#000000" fill-rule="evenodd" fill-opacity="1" /><path clip-path="url(#clip730)" d="M2307.27 1454.1 Q2303.66 1454.1 2301.83 1457.66 Q2300.02 1461.2 2300.02 1468.33 Q2300.02 1475.44 2301.83 1479.01 Q2303.66 1482.55 2307.27 1482.55 Q2310.9 1482.55 2312.71 1479.01 Q2314.54 1475.44 2314.54 1468.33 Q2314.54 1461.2 2312.71 1457.66 Q2310.9 1454.1 2307.27 1454.1 M2307.27 1450.39 Q2313.08 1450.39 2316.14 1455 Q2319.21 1459.58 2319.21 1468.33 Q2319.21 1477.06 2316.14 1481.67 Q2313.08 1486.25 2307.27 1486.25 Q2301.46 1486.25 2298.38 1481.67 Q2295.33 1477.06 2295.33 1468.33 Q2295.33 1459.58 2298.38 1455 Q2301.46 1450.39 2307.27 1450.39 Z" fill="#000000" fill-rule="evenodd" fill-opacity="1" /><path clip-path="url(#clip730)" d="M1271.91 1526.86 L1258.86 1562.7 L1285 1562.7 L1271.91 1526.86 M1250.14 1568.04 L1268.29 1520.52 L1275.57 1520.52 L1293.69 1568.04 L1250.14 1568.04 Z" fill="#000000" fill-rule="evenodd" fill-opacity="1" /><path clip-path="url(#clip730)" d="M1310.78 1520.52 L1316.19 1520.52 L1299.64 1574.09 L1294.23 1574.09 L1310.78 1520.52 Z" fill="#000000" fill-rule="evenodd" fill-opacity="1" /><path clip-path="url(#clip730)" d="M1322.59 1568.04 L1322.59 1520.52 L1352.15 1520.52 L1352.15 1525.93 L1329.01 1525.93 L1329.01 1568.04 L1322.59 1568.04 Z" fill="#000000" fill-rule="evenodd" fill-opacity="1" /><polyline clip-path="url(#clip732)" style="stroke:#000000; stroke-linecap:butt; stroke-linejoin:round; stroke-width:2; stroke-opacity:0.1; fill:none" points="
  249.542,1386.85 2352.76,1386.85 
  "/>
<polyline clip-path="url(#clip732)" style="stroke:#000000; stroke-linecap:butt; stroke-linejoin:round; stroke-width:2; stroke-opacity:0.1; fill:none" points="
  249.542,1061.68 2352.76,1061.68 
  "/>
<polyline clip-path="url(#clip732)" style="stroke:#000000; stroke-linecap:butt; stroke-linejoin:round; stroke-width:2; stroke-opacity:0.1; fill:none" points="
  249.542,736.518 2352.76,736.518 
  "/>
<polyline clip-path="url(#clip732)" style="stroke:#000000; stroke-linecap:butt; stroke-linejoin:round; stroke-width:2; stroke-opacity:0.1; fill:none" points="
  249.542,411.352 2352.76,411.352 
  "/>
<polyline clip-path="url(#clip732)" style="stroke:#000000; stroke-linecap:butt; stroke-linejoin:round; stroke-width:2; stroke-opacity:0.1; fill:none" points="
  249.542,86.1857 2352.76,86.1857 
  "/>
<polyline clip-path="url(#clip730)" style="stroke:#000000; stroke-linecap:butt; stroke-linejoin:round; stroke-width:4; stroke-opacity:1; fill:none" points="
  249.542,1423.18 249.542,47.2441 
  "/>
<polyline clip-path="url(#clip730)" style="stroke:#000000; stroke-linecap:butt; stroke-linejoin:round; stroke-width:4; stroke-opacity:1; fill:none" points="
  249.542,1386.85 268.44,1386.85 
  "/>
<polyline clip-path="url(#clip730)" style="stroke:#000000; stroke-linecap:butt; stroke-linejoin:round; stroke-width:4; stroke-opacity:1; fill:none" points="
  249.542,1061.68 268.44,1061.68 
  "/>
<polyline clip-path="url(#clip730)" style="stroke:#000000; stroke-linecap:butt; stroke-linejoin:round; stroke-width:4; stroke-opacity:1; fill:none" points="
  249.542,736.518 268.44,736.518 
  "/>
<polyline clip-path="url(#clip730)" style="stroke:#000000; stroke-linecap:butt; stroke-linejoin:round; stroke-width:4; stroke-opacity:1; fill:none" points="
  249.542,411.352 268.44,411.352 
  "/>
<polyline clip-path="url(#clip730)" style="stroke:#000000; stroke-linecap:butt; stroke-linejoin:round; stroke-width:4; stroke-opacity:1; fill:none" points="
  249.542,86.1857 268.44,86.1857 
  "/>
<path clip-path="url(#clip730)" d="M126.205 1372.65 Q122.593 1372.65 120.765 1376.21 Q118.959 1379.75 118.959 1386.88 Q118.959 1393.99 120.765 1397.56 Q122.593 1401.1 126.205 1401.1 Q129.839 1401.1 131.644 1397.56 Q133.473 1393.99 133.473 1386.88 Q133.473 1379.75 131.644 1376.21 Q129.839 1372.65 126.205 1372.65 M126.205 1368.94 Q132.015 1368.94 135.07 1373.55 Q138.149 1378.13 138.149 1386.88 Q138.149 1395.61 135.07 1400.22 Q132.015 1404.8 126.205 1404.8 Q120.394 1404.8 117.316 1400.22 Q114.26 1395.61 114.26 1386.88 Q114.26 1378.13 117.316 1373.55 Q120.394 1368.94 126.205 1368.94 Z" fill="#000000" fill-rule="evenodd" fill-opacity="1" /><path clip-path="url(#clip730)" d="M146.366 1398.25 L151.251 1398.25 L151.251 1404.13 L146.366 1404.13 L146.366 1398.25 Z" fill="#000000" fill-rule="evenodd" fill-opacity="1" /><path clip-path="url(#clip730)" d="M171.436 1372.65 Q167.825 1372.65 165.996 1376.21 Q164.19 1379.75 164.19 1386.88 Q164.19 1393.99 165.996 1397.56 Q167.825 1401.1 171.436 1401.1 Q175.07 1401.1 176.876 1397.56 Q178.704 1393.99 178.704 1386.88 Q178.704 1379.75 176.876 1376.21 Q175.07 1372.65 171.436 1372.65 M171.436 1368.94 Q177.246 1368.94 180.301 1373.55 Q183.38 1378.13 183.38 1386.88 Q183.38 1395.61 180.301 1400.22 Q177.246 1404.8 171.436 1404.8 Q165.626 1404.8 162.547 1400.22 Q159.491 1395.61 159.491 1386.88 Q159.491 1378.13 162.547 1373.55 Q165.626 1368.94 171.436 1368.94 Z" fill="#000000" fill-rule="evenodd" fill-opacity="1" /><path clip-path="url(#clip730)" d="M201.598 1372.65 Q197.987 1372.65 196.158 1376.21 Q194.352 1379.75 194.352 1386.88 Q194.352 1393.99 196.158 1397.56 Q197.987 1401.1 201.598 1401.1 Q205.232 1401.1 207.037 1397.56 Q208.866 1393.99 208.866 1386.88 Q208.866 1379.75 207.037 1376.21 Q205.232 1372.65 201.598 1372.65 M201.598 1368.94 Q207.408 1368.94 210.463 1373.55 Q213.542 1378.13 213.542 1386.88 Q213.542 1395.61 210.463 1400.22 Q207.408 1404.8 201.598 1404.8 Q195.787 1404.8 192.709 1400.22 Q189.653 1395.61 189.653 1386.88 Q189.653 1378.13 192.709 1373.55 Q195.787 1368.94 201.598 1368.94 Z" fill="#000000" fill-rule="evenodd" fill-opacity="1" /><path clip-path="url(#clip730)" d="M127.2 1047.48 Q123.589 1047.48 121.76 1051.05 Q119.955 1054.59 119.955 1061.72 Q119.955 1068.82 121.76 1072.39 Q123.589 1075.93 127.2 1075.93 Q130.834 1075.93 132.64 1072.39 Q134.468 1068.82 134.468 1061.72 Q134.468 1054.59 132.64 1051.05 Q130.834 1047.48 127.2 1047.48 M127.2 1043.78 Q133.01 1043.78 136.066 1048.38 Q139.144 1052.97 139.144 1061.72 Q139.144 1070.45 136.066 1075.05 Q133.01 1079.63 127.2 1079.63 Q121.39 1079.63 118.311 1075.05 Q115.256 1070.45 115.256 1061.72 Q115.256 1052.97 118.311 1048.38 Q121.39 1043.78 127.2 1043.78 Z" fill="#000000" fill-rule="evenodd" fill-opacity="1" /><path clip-path="url(#clip730)" d="M147.362 1073.08 L152.246 1073.08 L152.246 1078.96 L147.362 1078.96 L147.362 1073.08 Z" fill="#000000" fill-rule="evenodd" fill-opacity="1" /><path clip-path="url(#clip730)" d="M166.459 1075.03 L182.778 1075.03 L182.778 1078.96 L160.834 1078.96 L160.834 1075.03 Q163.496 1072.27 168.079 1067.64 Q172.686 1062.99 173.866 1061.65 Q176.112 1059.13 176.991 1057.39 Q177.894 1055.63 177.894 1053.94 Q177.894 1051.19 175.95 1049.45 Q174.028 1047.71 170.927 1047.71 Q168.727 1047.71 166.274 1048.48 Q163.843 1049.24 161.065 1050.79 L161.065 1046.07 Q163.89 1044.94 166.343 1044.36 Q168.797 1043.78 170.834 1043.78 Q176.204 1043.78 179.399 1046.46 Q182.593 1049.15 182.593 1053.64 Q182.593 1055.77 181.783 1057.69 Q180.996 1059.59 178.889 1062.18 Q178.311 1062.85 175.209 1066.07 Q172.107 1069.26 166.459 1075.03 Z" fill="#000000" fill-rule="evenodd" fill-opacity="1" /><path clip-path="url(#clip730)" d="M192.639 1044.4 L210.996 1044.4 L210.996 1048.34 L196.922 1048.34 L196.922 1056.81 Q197.94 1056.46 198.959 1056.3 Q199.977 1056.12 200.996 1056.12 Q206.783 1056.12 210.162 1059.29 Q213.542 1062.46 213.542 1067.88 Q213.542 1073.45 210.07 1076.56 Q206.598 1079.63 200.278 1079.63 Q198.102 1079.63 195.834 1079.26 Q193.588 1078.89 191.181 1078.15 L191.181 1073.45 Q193.264 1074.59 195.487 1075.14 Q197.709 1075.7 200.186 1075.7 Q204.19 1075.7 206.528 1073.59 Q208.866 1071.49 208.866 1067.88 Q208.866 1064.26 206.528 1062.16 Q204.19 1060.05 200.186 1060.05 Q198.311 1060.05 196.436 1060.47 Q194.584 1060.88 192.639 1061.76 L192.639 1044.4 Z" fill="#000000" fill-rule="evenodd" fill-opacity="1" /><path clip-path="url(#clip730)" d="M126.205 722.316 Q122.593 722.316 120.765 725.881 Q118.959 729.423 118.959 736.552 Q118.959 743.659 120.765 747.224 Q122.593 750.765 126.205 750.765 Q129.839 750.765 131.644 747.224 Q133.473 743.659 133.473 736.552 Q133.473 729.423 131.644 725.881 Q129.839 722.316 126.205 722.316 M126.205 718.613 Q132.015 718.613 135.07 723.219 Q138.149 727.802 138.149 736.552 Q138.149 745.279 135.07 749.886 Q132.015 754.469 126.205 754.469 Q120.394 754.469 117.316 749.886 Q114.26 745.279 114.26 736.552 Q114.26 727.802 117.316 723.219 Q120.394 718.613 126.205 718.613 Z" fill="#000000" fill-rule="evenodd" fill-opacity="1" /><path clip-path="url(#clip730)" d="M146.366 747.918 L151.251 747.918 L151.251 753.798 L146.366 753.798 L146.366 747.918 Z" fill="#000000" fill-rule="evenodd" fill-opacity="1" /><path clip-path="url(#clip730)" d="M161.482 719.238 L179.839 719.238 L179.839 723.173 L165.765 723.173 L165.765 731.645 Q166.783 731.298 167.802 731.136 Q168.82 730.95 169.839 730.95 Q175.626 730.95 179.005 734.122 Q182.385 737.293 182.385 742.71 Q182.385 748.288 178.913 751.39 Q175.44 754.469 169.121 754.469 Q166.945 754.469 164.677 754.098 Q162.431 753.728 160.024 752.987 L160.024 748.288 Q162.107 749.423 164.329 749.978 Q166.552 750.534 169.028 750.534 Q173.033 750.534 175.371 748.427 Q177.709 746.321 177.709 742.71 Q177.709 739.099 175.371 736.992 Q173.033 734.886 169.028 734.886 Q167.153 734.886 165.278 735.302 Q163.427 735.719 161.482 736.599 L161.482 719.238 Z" fill="#000000" fill-rule="evenodd" fill-opacity="1" /><path clip-path="url(#clip730)" d="M201.598 722.316 Q197.987 722.316 196.158 725.881 Q194.352 729.423 194.352 736.552 Q194.352 743.659 196.158 747.224 Q197.987 750.765 201.598 750.765 Q205.232 750.765 207.037 747.224 Q208.866 743.659 208.866 736.552 Q208.866 729.423 207.037 725.881 Q205.232 722.316 201.598 722.316 M201.598 718.613 Q207.408 718.613 210.463 723.219 Q213.542 727.802 213.542 736.552 Q213.542 745.279 210.463 749.886 Q207.408 754.469 201.598 754.469 Q195.787 754.469 192.709 749.886 Q189.653 745.279 189.653 736.552 Q189.653 727.802 192.709 723.219 Q195.787 718.613 201.598 718.613 Z" fill="#000000" fill-rule="evenodd" fill-opacity="1" /><path clip-path="url(#clip730)" d="M127.2 397.15 Q123.589 397.15 121.76 400.715 Q119.955 404.257 119.955 411.386 Q119.955 418.493 121.76 422.058 Q123.589 425.599 127.2 425.599 Q130.834 425.599 132.64 422.058 Q134.468 418.493 134.468 411.386 Q134.468 404.257 132.64 400.715 Q130.834 397.15 127.2 397.15 M127.2 393.447 Q133.01 393.447 136.066 398.053 Q139.144 402.636 139.144 411.386 Q139.144 420.113 136.066 424.72 Q133.01 429.303 127.2 429.303 Q121.39 429.303 118.311 424.72 Q115.256 420.113 115.256 411.386 Q115.256 402.636 118.311 398.053 Q121.39 393.447 127.2 393.447 Z" fill="#000000" fill-rule="evenodd" fill-opacity="1" /><path clip-path="url(#clip730)" d="M147.362 422.752 L152.246 422.752 L152.246 428.632 L147.362 428.632 L147.362 422.752 Z" fill="#000000" fill-rule="evenodd" fill-opacity="1" /><path clip-path="url(#clip730)" d="M161.251 394.072 L183.473 394.072 L183.473 396.062 L170.927 428.632 L166.042 428.632 L177.848 398.007 L161.251 398.007 L161.251 394.072 Z" fill="#000000" fill-rule="evenodd" fill-opacity="1" /><path clip-path="url(#clip730)" d="M192.639 394.072 L210.996 394.072 L210.996 398.007 L196.922 398.007 L196.922 406.479 Q197.94 406.132 198.959 405.97 Q199.977 405.785 200.996 405.785 Q206.783 405.785 210.162 408.956 Q213.542 412.127 213.542 417.544 Q213.542 423.122 210.07 426.224 Q206.598 429.303 200.278 429.303 Q198.102 429.303 195.834 428.933 Q193.588 428.562 191.181 427.821 L191.181 423.122 Q193.264 424.257 195.487 424.812 Q197.709 425.368 200.186 425.368 Q204.19 425.368 206.528 423.261 Q208.866 421.155 208.866 417.544 Q208.866 413.933 206.528 411.826 Q204.19 409.72 200.186 409.72 Q198.311 409.72 196.436 410.136 Q194.584 410.553 192.639 411.433 L192.639 394.072 Z" fill="#000000" fill-rule="evenodd" fill-opacity="1" /><path clip-path="url(#clip730)" d="M117.015 99.5305 L124.654 99.5305 L124.654 73.1649 L116.343 74.8316 L116.343 70.5723 L124.607 68.9057 L129.283 68.9057 L129.283 99.5305 L136.922 99.5305 L136.922 103.466 L117.015 103.466 L117.015 99.5305 Z" fill="#000000" fill-rule="evenodd" fill-opacity="1" /><path clip-path="url(#clip730)" d="M146.366 97.5861 L151.251 97.5861 L151.251 103.466 L146.366 103.466 L146.366 97.5861 Z" fill="#000000" fill-rule="evenodd" fill-opacity="1" /><path clip-path="url(#clip730)" d="M171.436 71.9844 Q167.825 71.9844 165.996 75.5492 Q164.19 79.0908 164.19 86.2204 Q164.19 93.3268 165.996 96.8916 Q167.825 100.433 171.436 100.433 Q175.07 100.433 176.876 96.8916 Q178.704 93.3268 178.704 86.2204 Q178.704 79.0908 176.876 75.5492 Q175.07 71.9844 171.436 71.9844 M171.436 68.2807 Q177.246 68.2807 180.301 72.8871 Q183.38 77.4704 183.38 86.2204 Q183.38 94.9472 180.301 99.5537 Q177.246 104.137 171.436 104.137 Q165.626 104.137 162.547 99.5537 Q159.491 94.9472 159.491 86.2204 Q159.491 77.4704 162.547 72.8871 Q165.626 68.2807 171.436 68.2807 Z" fill="#000000" fill-rule="evenodd" fill-opacity="1" /><path clip-path="url(#clip730)" d="M201.598 71.9844 Q197.987 71.9844 196.158 75.5492 Q194.352 79.0908 194.352 86.2204 Q194.352 93.3268 196.158 96.8916 Q197.987 100.433 201.598 100.433 Q205.232 100.433 207.037 96.8916 Q208.866 93.3268 208.866 86.2204 Q208.866 79.0908 207.037 75.5492 Q205.232 71.9844 201.598 71.9844 M201.598 68.2807 Q207.408 68.2807 210.463 72.8871 Q213.542 77.4704 213.542 86.2204 Q213.542 94.9472 210.463 99.5537 Q207.408 104.137 201.598 104.137 Q195.787 104.137 192.709 99.5537 Q189.653 94.9472 189.653 86.2204 Q189.653 77.4704 192.709 72.8871 Q195.787 68.2807 201.598 68.2807 Z" fill="#000000" fill-rule="evenodd" fill-opacity="1" /><path clip-path="url(#clip730)" d="M16.4842 755.312 L16.4842 715.112 L21.895 715.112 L21.895 731.981 L64.0042 731.981 L64.0042 738.443 L21.895 738.443 L21.895 755.312 L16.4842 755.312 Z" fill="#000000" fill-rule="evenodd" fill-opacity="1" /><polyline clip-path="url(#clip732)" style="stroke:#009af9; stroke-linecap:butt; stroke-linejoin:round; stroke-width:4; stroke-opacity:1; fill:none" points="
  309.067,679.074 314.027,675.257 318.988,671.418 323.948,667.558 328.909,663.677 333.869,659.774 338.829,655.85 343.79,651.904 348.75,647.937 353.711,643.948 
  358.671,639.938 363.631,635.907 368.592,631.854 373.552,627.78 378.513,623.685 383.473,619.568 388.434,615.43 393.394,611.27 398.354,607.09 403.315,602.888 
  408.275,598.666 413.236,594.422 418.196,590.158 423.156,585.872 428.117,581.566 433.077,577.24 438.038,572.893 442.998,568.525 447.958,564.138 452.919,559.73 
  457.879,555.302 462.84,550.854 467.8,546.386 472.76,541.899 477.721,537.392 482.681,532.867 487.642,528.322 492.602,523.758 497.563,519.176 502.523,514.575 
  507.483,509.956 512.444,505.319 517.404,500.664 522.365,495.992 527.325,491.303 532.285,486.596 537.246,481.873 542.206,477.134 547.167,472.379 552.127,467.608 
  557.087,462.822 562.048,458.02 567.008,453.205 571.969,448.374 576.929,443.531 581.89,438.673 586.85,433.803 591.81,428.921 596.771,424.026 601.731,419.119 
  606.692,414.202 611.652,409.274 616.612,404.336 621.573,399.388 626.533,394.432 631.494,389.467 636.454,384.494 641.414,379.515 646.375,374.529 651.335,369.537 
  656.296,364.54 661.256,359.539 666.216,354.534 671.177,349.527 676.137,344.517 681.098,339.506 686.058,334.495 691.019,329.484 695.979,324.475 700.939,319.468 
  705.9,314.464 710.86,309.464 715.821,304.47 720.781,299.482 725.741,294.501 730.702,289.529 735.662,284.567 740.623,279.616 745.583,274.676 750.543,269.75 
  755.504,264.839 760.464,259.944 765.425,255.066 770.385,250.207 775.346,245.368 780.306,240.552 785.266,235.758 790.227,230.99 795.187,226.249 800.148,221.536 
  805.108,216.854 810.068,212.204 815.029,207.588 819.989,203.008 824.95,198.466 829.91,193.965 834.87,189.506 839.831,185.093 844.791,180.726 849.752,176.41 
  854.712,172.145 859.672,167.936 864.633,163.784 869.593,159.693 874.554,155.666 879.514,151.705 884.475,147.814 889.435,143.996 894.395,140.256 899.356,136.595 
  904.316,133.019 909.277,129.531 914.237,126.135 919.197,122.836 924.158,119.639 929.118,116.547 934.079,113.566 939.039,110.701 943.999,107.958 948.96,105.343 
  953.92,102.861 958.881,100.519 963.841,98.3236 968.801,96.2817 973.762,94.4009 978.722,92.6893 983.683,91.1552 988.643,89.8075 993.604,88.6554 998.564,87.7089 
  1003.52,86.9784 1008.48,86.4753 1013.45,86.2115 1018.41,86.1998 1023.37,86.4539 1028.33,86.9882 1033.29,87.8179 1038.25,88.9597 1043.21,90.4312 1048.17,92.2515 
  1053.13,94.441 1058.09,97.0218 1063.05,100.017 1068.01,103.452 1072.97,107.354 1077.93,111.752 1082.89,116.678 1087.85,122.167 1092.81,128.254 1097.77,134.979 
  1102.73,142.387 1107.69,150.522 1112.65,159.435 1117.61,169.18 1122.57,179.817 1127.53,191.408 1132.5,204.021 1137.46,217.731 1142.42,232.617 1147.38,248.762 
  1152.34,266.26 1157.3,285.206 1162.26,305.704 1167.22,327.863 1172.18,351.798 1177.14,377.626 1182.1,405.468 1187.06,435.446 1192.02,467.68 1196.98,502.282 
  1201.94,539.355 1206.9,578.98 1211.86,621.212 1216.82,666.067 1221.78,713.51 1226.74,763.434 1231.7,815.649 1236.66,869.857 1241.62,925.632 1246.58,982.403 
  1251.54,1039.44 1256.51,1095.85 1261.47,1150.57 1266.43,1202.43 1271.39,1250.14 1276.35,1292.39 1281.31,1327.92 1286.27,1355.62 1291.23,1374.59 1296.19,1384.21 
  1301.15,1384.24 1306.11,1374.76 1311.07,1356.21 1316.03,1329.31 1320.99,1295.03 1325.95,1254.47 1330.91,1208.82 1335.87,1159.27 1340.83,1106.96 1345.79,1052.95 
  1350.75,998.167 1355.71,943.418 1360.67,889.368 1365.63,836.554 1370.59,785.389 1375.56,736.182 1380.52,689.146 1385.48,644.417 1390.44,602.069 1395.4,562.123 
  1400.36,524.561 1405.32,489.333 1410.28,456.37 1415.24,425.585 1420.2,396.881 1425.16,370.157 1430.12,345.306 1435.08,322.225 1440.04,300.81 1445,280.959 
  1449.96,262.577 1454.92,245.569 1459.88,229.849 1464.84,215.334 1469.8,201.945 1474.76,189.611 1479.72,178.263 1484.68,167.838 1489.64,158.276 1494.6,149.523 
  1499.57,141.527 1504.53,134.24 1509.49,127.62 1514.45,121.625 1519.41,116.217 1524.37,111.36 1529.33,107.023 1534.29,103.173 1539.25,99.7843 1544.21,96.829 
  1549.17,94.2831 1554.13,92.1238 1559.09,90.3299 1564.05,88.8812 1569.01,87.7592 1573.97,86.9465 1578.93,86.427 1583.89,86.1857 1588.85,86.2083 1593.81,86.4815 
  1598.77,86.9927 1603.73,87.73 1608.69,88.6823 1613.65,89.8391 1618.62,91.1909 1623.58,92.7283 1628.54,94.4427 1633.5,96.3256 1638.46,98.3692 1643.42,100.566 
  1648.38,102.909 1653.34,105.391 1658.3,108.007 1663.26,110.75 1668.22,113.615 1673.18,116.596 1678.14,119.687 1683.1,122.884 1688.06,126.182 1693.02,129.577 
  1697.98,133.065 1702.94,136.64 1707.9,140.3 1712.86,144.04 1717.82,147.856 1722.78,151.746 1727.74,155.706 1732.7,159.732 1737.67,163.822 1742.63,167.973 
  1747.59,172.181 1752.55,176.445 1757.51,180.76 1762.47,185.126 1767.43,189.538 1772.39,193.996 1777.35,198.496 1782.31,203.037 1787.27,207.616 1792.23,212.231 
  1797.19,216.881 1802.15,221.562 1807.11,226.274 1812.07,231.014 1817.03,235.782 1821.99,240.574 1826.95,245.39 1831.91,250.228 1836.87,255.086 1841.83,259.964 
  1846.79,264.858 1851.75,269.769 1856.71,274.694 1861.68,279.633 1866.64,284.584 1871.6,289.546 1876.56,294.517 1881.52,299.497 1886.48,304.485 1891.44,309.478 
  1896.4,314.478 1901.36,319.481 1906.32,324.488 1911.28,329.496 1916.24,334.507 1921.2,339.518 1926.16,344.528 1931.12,349.538 1936.08,354.545 1941.04,359.549 
  1946,364.55 1950.96,369.546 1955.92,374.538 1960.88,379.524 1965.84,384.503 1970.8,389.475 1975.76,394.44 1980.73,399.396 1985.69,404.343 1990.65,409.281 
  1995.61,414.209 2000.57,419.126 2005.53,424.032 2010.49,428.927 2015.45,433.809 2020.41,438.679 2025.37,443.536 2030.33,448.38 2035.29,453.21 2040.25,458.026 
  2045.21,462.827 2050.17,467.613 2055.13,472.384 2060.09,477.139 2065.05,481.878 2070.01,486.6 2074.97,491.307 2079.93,495.996 2084.89,500.668 2089.85,505.323 
  2094.81,509.959 2099.77,514.578 2104.74,519.179 2109.7,523.761 2114.66,528.325 2119.62,532.87 2124.58,537.395 2129.54,541.902 2134.5,546.389 2139.46,550.856 
  2144.42,555.304 2149.38,559.732 2154.34,564.14 2159.3,568.528 2164.26,572.895 2169.22,577.242 2174.18,581.569 2179.14,585.875 2184.1,590.16 2189.06,594.424 
  2194.02,598.668 2198.98,602.89 2203.94,607.092 2208.9,611.272 2213.86,615.431 2218.82,619.569 2223.79,623.686 2228.75,627.782 2233.71,631.856 2238.67,635.908 
  2243.63,639.94 2248.59,643.95 2253.55,647.938 2258.51,651.905 2263.47,655.851 2268.43,659.775 2273.39,663.678 2278.35,667.559 2283.31,671.419 2288.27,675.258 
  2293.23,679.075 
  "/>
</svg>
