<?xml version="1.0" encoding="utf-8"?>
<svg xmlns="http://www.w3.org/2000/svg" xmlns:xlink="http://www.w3.org/1999/xlink" width="500" height="300" viewBox="0 0 2000 1200">
<defs>
  <clipPath id="clip180">
    <rect x="0" y="0" width="2000" height="1200"/>
  </clipPath>
</defs>
<path clip-path="url(#clip180)" d="
M0 1200 L2000 1200 L2000 0 L0 0  Z
  " fill="#ffffff" fill-rule="evenodd" fill-opacity="1"/>
<defs>
  <clipPath id="clip181">
    <rect x="400" y="0" width="1401" height="1200"/>
  </clipPath>
</defs>
<path clip-path="url(#clip180)" d="
M182.274 1035.39 L1952.76 1035.39 L1952.76 47.2441 L182.274 47.2441  Z
  " fill="#ffffff" fill-rule="evenodd" fill-opacity="1"/>
<defs>
  <clipPath id="clip182">
    <rect x="182" y="47" width="1771" height="989"/>
  </clipPath>
</defs>
<polyline clip-path="url(#clip182)" style="stroke:#000000; stroke-linecap:butt; stroke-linejoin:round; stroke-width:2; stroke-opacity:0.1; fill:none" points="
  232.382,1035.39 232.382,47.2441 
  "/>
<polyline clip-path="url(#clip182)" style="stroke:#000000; stroke-linecap:butt; stroke-linejoin:round; stroke-width:2; stroke-opacity:0.1; fill:none" points="
  649.948,1035.39 649.948,47.2441 
  "/>
<polyline clip-path="url(#clip182)" style="stroke:#000000; stroke-linecap:butt; stroke-linejoin:round; stroke-width:2; stroke-opacity:0.1; fill:none" points="
  1067.51,1035.39 1067.51,47.2441 
  "/>
<polyline clip-path="url(#clip182)" style="stroke:#000000; stroke-linecap:butt; stroke-linejoin:round; stroke-width:2; stroke-opacity:0.1; fill:none" points="
  1485.08,1035.39 1485.08,47.2441 
  "/>
<polyline clip-path="url(#clip182)" style="stroke:#000000; stroke-linecap:butt; stroke-linejoin:round; stroke-width:2; stroke-opacity:0.1; fill:none" points="
  1902.65,1035.39 1902.65,47.2441 
  "/>
<polyline clip-path="url(#clip180)" style="stroke:#000000; stroke-linecap:butt; stroke-linejoin:round; stroke-width:4; stroke-opacity:1; fill:none" points="
  182.274,1035.39 1952.76,1035.39 
  "/>
<polyline clip-path="url(#clip180)" style="stroke:#000000; stroke-linecap:butt; stroke-linejoin:round; stroke-width:4; stroke-opacity:1; fill:none" points="
  232.382,1035.39 232.382,1016.49 
  "/>
<polyline clip-path="url(#clip180)" style="stroke:#000000; stroke-linecap:butt; stroke-linejoin:round; stroke-width:4; stroke-opacity:1; fill:none" points="
  649.948,1035.39 649.948,1016.49 
  "/>
<polyline clip-path="url(#clip180)" style="stroke:#000000; stroke-linecap:butt; stroke-linejoin:round; stroke-width:4; stroke-opacity:1; fill:none" points="
  1067.51,1035.39 1067.51,1016.49 
  "/>
<polyline clip-path="url(#clip180)" style="stroke:#000000; stroke-linecap:butt; stroke-linejoin:round; stroke-width:4; stroke-opacity:1; fill:none" points="
  1485.08,1035.39 1485.08,1016.49 
  "/>
<polyline clip-path="url(#clip180)" style="stroke:#000000; stroke-linecap:butt; stroke-linejoin:round; stroke-width:4; stroke-opacity:1; fill:none" points="
  1902.65,1035.39 1902.65,1016.49 
  "/>
<path clip-path="url(#clip180)" d="M186.445 1077.76 L216.12 1077.76 L216.12 1081.69 L186.445 1081.69 L186.445 1077.76 Z" fill="#000000" fill-rule="evenodd" fill-opacity="1" /><path clip-path="url(#clip180)" d="M227.023 1090.65 L234.662 1090.65 L234.662 1064.29 L226.352 1065.95 L226.352 1061.69 L234.616 1060.03 L239.292 1060.03 L239.292 1090.65 L246.931 1090.65 L246.931 1094.59 L227.023 1094.59 L227.023 1090.65 Z" fill="#000000" fill-rule="evenodd" fill-opacity="1" /><path clip-path="url(#clip180)" d="M266.375 1063.11 Q262.764 1063.11 260.935 1066.67 Q259.13 1070.21 259.13 1077.34 Q259.13 1084.45 260.935 1088.01 Q262.764 1091.56 266.375 1091.56 Q270.009 1091.56 271.815 1088.01 Q273.643 1084.45 273.643 1077.34 Q273.643 1070.21 271.815 1066.67 Q270.009 1063.11 266.375 1063.11 M266.375 1059.4 Q272.185 1059.4 275.241 1064.01 Q278.319 1068.59 278.319 1077.34 Q278.319 1086.07 275.241 1090.68 Q272.185 1095.26 266.375 1095.26 Q260.565 1095.26 257.486 1090.68 Q254.43 1086.07 254.43 1077.34 Q254.43 1068.59 257.486 1064.01 Q260.565 1059.4 266.375 1059.4 Z" fill="#000000" fill-rule="evenodd" fill-opacity="1" /><path clip-path="url(#clip180)" d="M619.59 1077.76 L649.266 1077.76 L649.266 1081.69 L619.59 1081.69 L619.59 1077.76 Z" fill="#000000" fill-rule="evenodd" fill-opacity="1" /><path clip-path="url(#clip180)" d="M659.404 1060.03 L677.761 1060.03 L677.761 1063.96 L663.687 1063.96 L663.687 1072.44 Q664.705 1072.09 665.724 1071.93 Q666.742 1071.74 667.761 1071.74 Q673.548 1071.74 676.927 1074.91 Q680.307 1078.08 680.307 1083.5 Q680.307 1089.08 676.835 1092.18 Q673.363 1095.26 667.043 1095.26 Q664.867 1095.26 662.599 1094.89 Q660.354 1094.52 657.946 1093.78 L657.946 1089.08 Q660.029 1090.21 662.252 1090.77 Q664.474 1091.32 666.951 1091.32 Q670.955 1091.32 673.293 1089.22 Q675.631 1087.11 675.631 1083.5 Q675.631 1079.89 673.293 1077.78 Q670.955 1075.68 666.951 1075.68 Q665.076 1075.68 663.201 1076.09 Q661.349 1076.51 659.404 1077.39 L659.404 1060.03 Z" fill="#000000" fill-rule="evenodd" fill-opacity="1" /><path clip-path="url(#clip180)" d="M1067.51 1063.11 Q1063.9 1063.11 1062.08 1066.67 Q1060.27 1070.21 1060.27 1077.34 Q1060.27 1084.45 1062.08 1088.01 Q1063.9 1091.56 1067.51 1091.56 Q1071.15 1091.56 1072.95 1088.01 Q1074.78 1084.45 1074.78 1077.34 Q1074.78 1070.21 1072.95 1066.67 Q1071.15 1063.11 1067.51 1063.11 M1067.51 1059.4 Q1073.33 1059.4 1076.38 1064.01 Q1079.46 1068.59 1079.46 1077.34 Q1079.46 1086.07 1076.38 1090.68 Q1073.33 1095.26 1067.51 1095.26 Q1061.7 1095.26 1058.63 1090.68 Q1055.57 1086.07 1055.57 1077.34 Q1055.57 1068.59 1058.63 1064.01 Q1061.7 1059.4 1067.51 1059.4 Z" fill="#000000" fill-rule="evenodd" fill-opacity="1" /><path clip-path="url(#clip180)" d="M1475.36 1060.03 L1493.72 1060.03 L1493.72 1063.96 L1479.64 1063.96 L1479.64 1072.44 Q1480.66 1072.09 1481.68 1071.93 Q1482.7 1071.74 1483.72 1071.74 Q1489.5 1071.74 1492.88 1074.91 Q1496.26 1078.08 1496.26 1083.5 Q1496.26 1089.08 1492.79 1092.18 Q1489.32 1095.26 1483 1095.26 Q1480.82 1095.26 1478.55 1094.89 Q1476.31 1094.52 1473.9 1093.78 L1473.9 1089.08 Q1475.98 1090.21 1478.21 1090.77 Q1480.43 1091.32 1482.91 1091.32 Q1486.91 1091.32 1489.25 1089.22 Q1491.59 1087.11 1491.59 1083.5 Q1491.59 1079.89 1489.25 1077.78 Q1486.91 1075.68 1482.91 1075.68 Q1481.03 1075.68 1479.16 1076.09 Q1477.3 1076.51 1475.36 1077.39 L1475.36 1060.03 Z" fill="#000000" fill-rule="evenodd" fill-opacity="1" /><path clip-path="url(#clip180)" d="M1877.34 1090.65 L1884.97 1090.65 L1884.97 1064.29 L1876.66 1065.95 L1876.66 1061.69 L1884.93 1060.03 L1889.6 1060.03 L1889.6 1090.65 L1897.24 1090.65 L1897.24 1094.59 L1877.34 1094.59 L1877.34 1090.65 Z" fill="#000000" fill-rule="evenodd" fill-opacity="1" /><path clip-path="url(#clip180)" d="M1916.69 1063.11 Q1913.08 1063.11 1911.25 1066.67 Q1909.44 1070.21 1909.44 1077.34 Q1909.44 1084.45 1911.25 1088.01 Q1913.08 1091.56 1916.69 1091.56 Q1920.32 1091.56 1922.13 1088.01 Q1923.96 1084.45 1923.96 1077.34 Q1923.96 1070.21 1922.13 1066.67 Q1920.32 1063.11 1916.69 1063.11 M1916.69 1059.4 Q1922.5 1059.4 1925.55 1064.01 Q1928.63 1068.59 1928.63 1077.34 Q1928.63 1086.07 1925.55 1090.68 Q1922.5 1095.26 1916.69 1095.26 Q1910.88 1095.26 1907.8 1090.68 Q1904.74 1086.07 1904.74 1077.34 Q1904.74 1068.59 1907.8 1064.01 Q1910.88 1059.4 1916.69 1059.4 Z" fill="#000000" fill-rule="evenodd" fill-opacity="1" /><path clip-path="url(#clip180)" d="M1026.62 1175.17 Q1013.41 1175.17 1013.41 1156.27 Q1013.41 1148.79 1018.34 1138.6 L1024.64 1138.6 Q1020.09 1148.79 1020.09 1156.43 Q1020.09 1170.21 1027.16 1170.21 Q1033.62 1170.21 1033.62 1153.09 L1039.03 1153.09 Q1039.03 1170.21 1045.49 1170.21 Q1052.56 1170.21 1052.56 1156.43 Q1052.56 1148.79 1048 1138.6 L1054.31 1138.6 Q1059.24 1148.79 1059.24 1156.27 Q1059.24 1175.17 1046.03 1175.17 Q1037.37 1175.17 1036.32 1165.66 Q1035.02 1175.17 1026.62 1175.17 Z" fill="#000000" fill-rule="evenodd" fill-opacity="1" /><path clip-path="url(#clip180)" d="M1080.25 1126.73 L1085.66 1126.73 L1069.11 1180.3 L1063.7 1180.3 L1080.25 1126.73 Z" fill="#000000" fill-rule="evenodd" fill-opacity="1" /><path clip-path="url(#clip180)" d="M1092.05 1174.25 L1092.05 1126.73 L1121.62 1126.73 L1121.62 1132.14 L1098.48 1132.14 L1098.48 1174.25 L1092.05 1174.25 Z" fill="#000000" fill-rule="evenodd" fill-opacity="1" /><polyline clip-path="url(#clip182)" style="stroke:#000000; stroke-linecap:butt; stroke-linejoin:round; stroke-width:2; stroke-opacity:0.1; fill:none" points="
  182.274,1012.55 1952.76,1012.55 
  "/>
<polyline clip-path="url(#clip182)" style="stroke:#000000; stroke-linecap:butt; stroke-linejoin:round; stroke-width:2; stroke-opacity:0.1; fill:none" points="
  182.274,778.215 1952.76,778.215 
  "/>
<polyline clip-path="url(#clip182)" style="stroke:#000000; stroke-linecap:butt; stroke-linejoin:round; stroke-width:2; stroke-opacity:0.1; fill:none" points="
  182.274,543.88 1952.76,543.88 
  "/>
<polyline clip-path="url(#clip182)" style="stroke:#000000; stroke-linecap:butt; stroke-linejoin:round; stroke-width:2; stroke-opacity:0.1; fill:none" points="
  182.274,309.545 1952.76,309.545 
  "/>
<polyline clip-path="url(#clip182)" style="stroke:#000000; stroke-linecap:butt; stroke-linejoin:round; stroke-width:2; stroke-opacity:0.1; fill:none" points="
  182.274,75.2104 1952.76,75.2104 
  "/>
<polyline clip-path="url(#clip180)" style="stroke:#000000; stroke-linecap:butt; stroke-linejoin:round; stroke-width:4; stroke-opacity:1; fill:none" points="
  182.274,1035.39 182.274,47.2441 
  "/>
<polyline clip-path="url(#clip180)" style="stroke:#000000; stroke-linecap:butt; stroke-linejoin:round; stroke-width:4; stroke-opacity:1; fill:none" points="
  182.274,1012.55 201.172,1012.55 
  "/>
<polyline clip-path="url(#clip180)" style="stroke:#000000; stroke-linecap:butt; stroke-linejoin:round; stroke-width:4; stroke-opacity:1; fill:none" points="
  182.274,778.215 201.172,778.215 
  "/>
<polyline clip-path="url(#clip180)" style="stroke:#000000; stroke-linecap:butt; stroke-linejoin:round; stroke-width:4; stroke-opacity:1; fill:none" points="
  182.274,543.88 201.172,543.88 
  "/>
<polyline clip-path="url(#clip180)" style="stroke:#000000; stroke-linecap:butt; stroke-linejoin:round; stroke-width:4; stroke-opacity:1; fill:none" points="
  182.274,309.545 201.172,309.545 
  "/>
<polyline clip-path="url(#clip180)" style="stroke:#000000; stroke-linecap:butt; stroke-linejoin:round; stroke-width:4; stroke-opacity:1; fill:none" points="
  182.274,75.2104 201.172,75.2104 
  "/>
<path clip-path="url(#clip180)" d="M64.9365 998.349 Q61.3254 998.349 59.4967 1001.91 Q57.6912 1005.46 57.6912 1012.58 Q57.6912 1019.69 59.4967 1023.26 Q61.3254 1026.8 64.9365 1026.8 Q68.5707 1026.8 70.3763 1023.26 Q72.205 1019.69 72.205 1012.58 Q72.205 1005.46 70.3763 1001.91 Q68.5707 998.349 64.9365 998.349 M64.9365 994.645 Q70.7467 994.645 73.8022 999.252 Q76.8809 1003.83 76.8809 1012.58 Q76.8809 1021.31 73.8022 1025.92 Q70.7467 1030.5 64.9365 1030.5 Q59.1264 1030.5 56.0477 1025.92 Q52.9921 1021.31 52.9921 1012.58 Q52.9921 1003.83 56.0477 999.252 Q59.1264 994.645 64.9365 994.645 Z" fill="#000000" fill-rule="evenodd" fill-opacity="1" /><path clip-path="url(#clip180)" d="M85.0984 1023.95 L89.9827 1023.95 L89.9827 1029.83 L85.0984 1029.83 L85.0984 1023.95 Z" fill="#000000" fill-rule="evenodd" fill-opacity="1" /><path clip-path="url(#clip180)" d="M110.168 998.349 Q106.557 998.349 104.728 1001.91 Q102.922 1005.46 102.922 1012.58 Q102.922 1019.69 104.728 1023.26 Q106.557 1026.8 110.168 1026.8 Q113.802 1026.8 115.608 1023.26 Q117.436 1019.69 117.436 1012.58 Q117.436 1005.46 115.608 1001.91 Q113.802 998.349 110.168 998.349 M110.168 994.645 Q115.978 994.645 119.033 999.252 Q122.112 1003.83 122.112 1012.58 Q122.112 1021.31 119.033 1025.92 Q115.978 1030.5 110.168 1030.5 Q104.358 1030.5 101.279 1025.92 Q98.2234 1021.31 98.2234 1012.58 Q98.2234 1003.83 101.279 999.252 Q104.358 994.645 110.168 994.645 Z" fill="#000000" fill-rule="evenodd" fill-opacity="1" /><path clip-path="url(#clip180)" d="M140.33 998.349 Q136.719 998.349 134.89 1001.91 Q133.084 1005.46 133.084 1012.58 Q133.084 1019.69 134.89 1023.26 Q136.719 1026.8 140.33 1026.8 Q143.964 1026.8 145.769 1023.26 Q147.598 1019.69 147.598 1012.58 Q147.598 1005.46 145.769 1001.91 Q143.964 998.349 140.33 998.349 M140.33 994.645 Q146.14 994.645 149.195 999.252 Q152.274 1003.83 152.274 1012.58 Q152.274 1021.31 149.195 1025.92 Q146.14 1030.5 140.33 1030.5 Q134.519 1030.5 131.441 1025.92 Q128.385 1021.31 128.385 1012.58 Q128.385 1003.83 131.441 999.252 Q134.519 994.645 140.33 994.645 Z" fill="#000000" fill-rule="evenodd" fill-opacity="1" /><path clip-path="url(#clip180)" d="M65.9319 764.014 Q62.3208 764.014 60.4921 767.579 Q58.6865 771.12 58.6865 778.25 Q58.6865 785.356 60.4921 788.921 Q62.3208 792.463 65.9319 792.463 Q69.5661 792.463 71.3717 788.921 Q73.2004 785.356 73.2004 778.25 Q73.2004 771.12 71.3717 767.579 Q69.5661 764.014 65.9319 764.014 M65.9319 760.31 Q71.742 760.31 74.7976 764.917 Q77.8763 769.5 77.8763 778.25 Q77.8763 786.977 74.7976 791.583 Q71.742 796.167 65.9319 796.167 Q60.1217 796.167 57.043 791.583 Q53.9875 786.977 53.9875 778.25 Q53.9875 769.5 57.043 764.917 Q60.1217 760.31 65.9319 760.31 Z" fill="#000000" fill-rule="evenodd" fill-opacity="1" /><path clip-path="url(#clip180)" d="M86.0938 789.616 L90.978 789.616 L90.978 795.495 L86.0938 795.495 L86.0938 789.616 Z" fill="#000000" fill-rule="evenodd" fill-opacity="1" /><path clip-path="url(#clip180)" d="M105.191 791.56 L121.51 791.56 L121.51 795.495 L99.566 795.495 L99.566 791.56 Q102.228 788.805 106.811 784.176 Q111.418 779.523 112.598 778.181 Q114.844 775.657 115.723 773.921 Q116.626 772.162 116.626 770.472 Q116.626 767.718 114.682 765.981 Q112.76 764.245 109.658 764.245 Q107.459 764.245 105.006 765.009 Q102.575 765.773 99.7974 767.324 L99.7974 762.602 Q102.621 761.468 105.075 760.889 Q107.529 760.31 109.566 760.31 Q114.936 760.31 118.131 762.995 Q121.325 765.681 121.325 770.171 Q121.325 772.301 120.515 774.222 Q119.728 776.12 117.621 778.713 Q117.043 779.384 113.941 782.602 Q110.839 785.796 105.191 791.56 Z" fill="#000000" fill-rule="evenodd" fill-opacity="1" /><path clip-path="url(#clip180)" d="M131.371 760.935 L149.728 760.935 L149.728 764.87 L135.654 764.87 L135.654 773.343 Q136.672 772.995 137.691 772.833 Q138.709 772.648 139.728 772.648 Q145.515 772.648 148.894 775.819 Q152.274 778.991 152.274 784.407 Q152.274 789.986 148.802 793.088 Q145.33 796.167 139.01 796.167 Q136.834 796.167 134.566 795.796 Q132.32 795.426 129.913 794.685 L129.913 789.986 Q131.996 791.12 134.219 791.676 Q136.441 792.231 138.918 792.231 Q142.922 792.231 145.26 790.125 Q147.598 788.018 147.598 784.407 Q147.598 780.796 145.26 778.69 Q142.922 776.583 138.918 776.583 Q137.043 776.583 135.168 777 Q133.316 777.417 131.371 778.296 L131.371 760.935 Z" fill="#000000" fill-rule="evenodd" fill-opacity="1" /><path clip-path="url(#clip180)" d="M64.9365 529.679 Q61.3254 529.679 59.4967 533.244 Q57.6912 536.785 57.6912 543.915 Q57.6912 551.021 59.4967 554.586 Q61.3254 558.128 64.9365 558.128 Q68.5707 558.128 70.3763 554.586 Q72.205 551.021 72.205 543.915 Q72.205 536.785 70.3763 533.244 Q68.5707 529.679 64.9365 529.679 M64.9365 525.975 Q70.7467 525.975 73.8022 530.582 Q76.8809 535.165 76.8809 543.915 Q76.8809 552.642 73.8022 557.248 Q70.7467 561.832 64.9365 561.832 Q59.1264 561.832 56.0477 557.248 Q52.9921 552.642 52.9921 543.915 Q52.9921 535.165 56.0477 530.582 Q59.1264 525.975 64.9365 525.975 Z" fill="#000000" fill-rule="evenodd" fill-opacity="1" /><path clip-path="url(#clip180)" d="M85.0984 555.281 L89.9827 555.281 L89.9827 561.16 L85.0984 561.16 L85.0984 555.281 Z" fill="#000000" fill-rule="evenodd" fill-opacity="1" /><path clip-path="url(#clip180)" d="M100.214 526.6 L118.57 526.6 L118.57 530.535 L104.496 530.535 L104.496 539.008 Q105.515 538.66 106.534 538.498 Q107.552 538.313 108.571 538.313 Q114.358 538.313 117.737 541.484 Q121.117 544.656 121.117 550.072 Q121.117 555.651 117.645 558.753 Q114.172 561.832 107.853 561.832 Q105.677 561.832 103.409 561.461 Q101.163 561.091 98.7558 560.35 L98.7558 555.651 Q100.839 556.785 103.061 557.341 Q105.284 557.896 107.76 557.896 Q111.765 557.896 114.103 555.79 Q116.441 553.683 116.441 550.072 Q116.441 546.461 114.103 544.355 Q111.765 542.248 107.76 542.248 Q105.885 542.248 104.01 542.665 Q102.159 543.082 100.214 543.961 L100.214 526.6 Z" fill="#000000" fill-rule="evenodd" fill-opacity="1" /><path clip-path="url(#clip180)" d="M140.33 529.679 Q136.719 529.679 134.89 533.244 Q133.084 536.785 133.084 543.915 Q133.084 551.021 134.89 554.586 Q136.719 558.128 140.33 558.128 Q143.964 558.128 145.769 554.586 Q147.598 551.021 147.598 543.915 Q147.598 536.785 145.769 533.244 Q143.964 529.679 140.33 529.679 M140.33 525.975 Q146.14 525.975 149.195 530.582 Q152.274 535.165 152.274 543.915 Q152.274 552.642 149.195 557.248 Q146.14 561.832 140.33 561.832 Q134.519 561.832 131.441 557.248 Q128.385 552.642 128.385 543.915 Q128.385 535.165 131.441 530.582 Q134.519 525.975 140.33 525.975 Z" fill="#000000" fill-rule="evenodd" fill-opacity="1" /><path clip-path="url(#clip180)" d="M65.9319 295.344 Q62.3208 295.344 60.4921 298.909 Q58.6865 302.45 58.6865 309.58 Q58.6865 316.687 60.4921 320.251 Q62.3208 323.793 65.9319 323.793 Q69.5661 323.793 71.3717 320.251 Q73.2004 316.687 73.2004 309.58 Q73.2004 302.45 71.3717 298.909 Q69.5661 295.344 65.9319 295.344 M65.9319 291.64 Q71.742 291.64 74.7976 296.247 Q77.8763 300.83 77.8763 309.58 Q77.8763 318.307 74.7976 322.913 Q71.742 327.497 65.9319 327.497 Q60.1217 327.497 57.043 322.913 Q53.9875 318.307 53.9875 309.58 Q53.9875 300.83 57.043 296.247 Q60.1217 291.64 65.9319 291.64 Z" fill="#000000" fill-rule="evenodd" fill-opacity="1" /><path clip-path="url(#clip180)" d="M86.0938 320.946 L90.978 320.946 L90.978 326.825 L86.0938 326.825 L86.0938 320.946 Z" fill="#000000" fill-rule="evenodd" fill-opacity="1" /><path clip-path="url(#clip180)" d="M99.9826 292.265 L122.205 292.265 L122.205 294.256 L109.658 326.825 L104.774 326.825 L116.58 296.201 L99.9826 296.201 L99.9826 292.265 Z" fill="#000000" fill-rule="evenodd" fill-opacity="1" /><path clip-path="url(#clip180)" d="M131.371 292.265 L149.728 292.265 L149.728 296.201 L135.654 296.201 L135.654 304.673 Q136.672 304.325 137.691 304.163 Q138.709 303.978 139.728 303.978 Q145.515 303.978 148.894 307.15 Q152.274 310.321 152.274 315.737 Q152.274 321.316 148.802 324.418 Q145.33 327.497 139.01 327.497 Q136.834 327.497 134.566 327.126 Q132.32 326.756 129.913 326.015 L129.913 321.316 Q131.996 322.45 134.219 323.006 Q136.441 323.561 138.918 323.561 Q142.922 323.561 145.26 321.455 Q147.598 319.349 147.598 315.737 Q147.598 312.126 145.26 310.02 Q142.922 307.913 138.918 307.913 Q137.043 307.913 135.168 308.33 Q133.316 308.747 131.371 309.626 L131.371 292.265 Z" fill="#000000" fill-rule="evenodd" fill-opacity="1" /><path clip-path="url(#clip180)" d="M55.7467 88.5553 L63.3856 88.5553 L63.3856 62.1897 L55.0754 63.8563 L55.0754 59.5971 L63.3393 57.9304 L68.0152 57.9304 L68.0152 88.5553 L75.654 88.5553 L75.654 92.4904 L55.7467 92.4904 L55.7467 88.5553 Z" fill="#000000" fill-rule="evenodd" fill-opacity="1" /><path clip-path="url(#clip180)" d="M85.0984 86.6108 L89.9827 86.6108 L89.9827 92.4904 L85.0984 92.4904 L85.0984 86.6108 Z" fill="#000000" fill-rule="evenodd" fill-opacity="1" /><path clip-path="url(#clip180)" d="M110.168 61.0091 Q106.557 61.0091 104.728 64.5739 Q102.922 68.1156 102.922 75.2451 Q102.922 82.3516 104.728 85.9164 Q106.557 89.458 110.168 89.458 Q113.802 89.458 115.608 85.9164 Q117.436 82.3516 117.436 75.2451 Q117.436 68.1156 115.608 64.5739 Q113.802 61.0091 110.168 61.0091 M110.168 57.3054 Q115.978 57.3054 119.033 61.9119 Q122.112 66.4952 122.112 75.2451 Q122.112 83.972 119.033 88.5784 Q115.978 93.1617 110.168 93.1617 Q104.358 93.1617 101.279 88.5784 Q98.2234 83.972 98.2234 75.2451 Q98.2234 66.4952 101.279 61.9119 Q104.358 57.3054 110.168 57.3054 Z" fill="#000000" fill-rule="evenodd" fill-opacity="1" /><path clip-path="url(#clip180)" d="M140.33 61.0091 Q136.719 61.0091 134.89 64.5739 Q133.084 68.1156 133.084 75.2451 Q133.084 82.3516 134.89 85.9164 Q136.719 89.458 140.33 89.458 Q143.964 89.458 145.769 85.9164 Q147.598 82.3516 147.598 75.2451 Q147.598 68.1156 145.769 64.5739 Q143.964 61.0091 140.33 61.0091 M140.33 57.3054 Q146.14 57.3054 149.195 61.9119 Q152.274 66.4952 152.274 75.2451 Q152.274 83.972 149.195 88.5784 Q146.14 93.1617 140.33 93.1617 Q134.519 93.1617 131.441 88.5784 Q128.385 83.972 128.385 75.2451 Q128.385 66.4952 131.441 61.9119 Q134.519 57.3054 140.33 57.3054 Z" fill="#000000" fill-rule="evenodd" fill-opacity="1" /><polyline clip-path="url(#clip182)" style="stroke:#009af9; stroke-linecap:butt; stroke-linejoin:round; stroke-width:4; stroke-opacity:1; fill:none" points="
  232.382,1004.91 233.217,1004.89 234.052,1004.88 234.887,1004.86 235.723,1004.84 236.558,1004.83 237.393,1004.81 238.228,1004.79 239.063,1004.78 239.898,1004.76 
  240.733,1004.74 241.568,1004.72 242.404,1004.71 243.239,1004.69 244.074,1004.67 244.909,1004.65 245.744,1004.64 246.579,1004.62 247.414,1004.6 248.25,1004.58 
  249.085,1004.56 249.92,1004.55 250.755,1004.53 251.59,1004.51 252.425,1004.49 253.26,1004.47 254.095,1004.45 254.931,1004.44 255.766,1004.42 256.601,1004.4 
  257.436,1004.38 258.271,1004.36 259.106,1004.34 259.941,1004.32 260.777,1004.31 261.612,1004.29 262.447,1004.27 263.282,1004.25 264.117,1004.23 264.952,1004.21 
  265.787,1004.19 266.622,1004.17 267.458,1004.15 268.293,1004.13 269.128,1004.11 269.963,1004.09 270.798,1004.07 271.633,1004.05 272.468,1004.03 273.303,1004.02 
  274.139,1004 274.974,1003.98 275.809,1003.96 276.644,1003.93 277.479,1003.91 278.314,1003.89 279.149,1003.87 279.985,1003.85 280.82,1003.83 281.655,1003.81 
  282.49,1003.79 283.325,1003.77 284.16,1003.75 284.995,1003.73 285.83,1003.71 286.666,1003.69 287.501,1003.67 288.336,1003.65 289.171,1003.62 290.006,1003.6 
  290.841,1003.58 291.676,1003.56 292.512,1003.54 293.347,1003.52 294.182,1003.5 295.017,1003.47 295.852,1003.45 296.687,1003.43 297.522,1003.41 298.357,1003.39 
  299.193,1003.36 300.028,1003.34 300.863,1003.32 301.698,1003.3 302.533,1003.27 303.368,1003.25 304.203,1003.23 305.039,1003.21 305.874,1003.18 306.709,1003.16 
  307.544,1003.14 308.379,1003.12 309.214,1003.09 310.049,1003.07 310.884,1003.05 311.72,1003.02 312.555,1003 313.39,1002.97 314.225,1002.95 315.06,1002.93 
  315.895,1002.9 316.73,1002.88 317.566,1002.86 318.401,1002.83 319.236,1002.81 320.071,1002.78 320.906,1002.76 321.741,1002.73 322.576,1002.71 323.411,1002.69 
  324.247,1002.66 325.082,1002.64 325.917,1002.61 326.752,1002.59 327.587,1002.56 328.422,1002.54 329.257,1002.51 330.093,1002.48 330.928,1002.46 331.763,1002.43 
  332.598,1002.41 333.433,1002.38 334.268,1002.36 335.103,1002.33 335.938,1002.3 336.774,1002.28 337.609,1002.25 338.444,1002.23 339.279,1002.2 340.114,1002.17 
  340.949,1002.15 341.784,1002.12 342.62,1002.09 343.455,1002.07 344.29,1002.04 345.125,1002.01 345.96,1001.98 346.795,1001.96 347.63,1001.93 348.465,1001.9 
  349.301,1001.87 350.136,1001.85 350.971,1001.82 351.806,1001.79 352.641,1001.76 353.476,1001.73 354.311,1001.71 355.147,1001.68 355.982,1001.65 356.817,1001.62 
  357.652,1001.59 358.487,1001.56 359.322,1001.53 360.157,1001.5 360.992,1001.47 361.828,1001.44 362.663,1001.42 363.498,1001.39 364.333,1001.36 365.168,1001.33 
  366.003,1001.3 366.838,1001.27 367.674,1001.24 368.509,1001.21 369.344,1001.17 370.179,1001.14 371.014,1001.11 371.849,1001.08 372.684,1001.05 373.519,1001.02 
  374.355,1000.99 375.19,1000.96 376.025,1000.93 376.86,1000.89 377.695,1000.86 378.53,1000.83 379.365,1000.8 380.201,1000.77 381.036,1000.73 381.871,1000.7 
  382.706,1000.67 383.541,1000.64 384.376,1000.6 385.211,1000.57 386.046,1000.54 386.882,1000.51 387.717,1000.47 388.552,1000.44 389.387,1000.4 390.222,1000.37 
  391.057,1000.34 391.892,1000.3 392.728,1000.27 393.563,1000.23 394.398,1000.2 395.233,1000.17 396.068,1000.13 396.903,1000.1 397.738,1000.06 398.573,1000.03 
  399.409,999.991 400.244,999.955 401.079,999.92 401.914,999.884 402.749,999.848 403.584,999.812 404.419,999.776 405.255,999.739 406.09,999.703 406.925,999.666 
  407.76,999.629 408.595,999.592 409.43,999.555 410.265,999.518 411.1,999.48 411.936,999.442 412.771,999.405 413.606,999.367 414.441,999.329 415.276,999.29 
  416.111,999.252 416.946,999.213 417.781,999.174 418.617,999.135 419.452,999.096 420.287,999.057 421.122,999.017 421.957,998.978 422.792,998.938 423.627,998.898 
  424.463,998.858 425.298,998.817 426.133,998.777 426.968,998.736 427.803,998.695 428.638,998.654 429.473,998.613 430.308,998.571 431.144,998.53 431.979,998.488 
  432.814,998.446 433.649,998.404 434.484,998.361 435.319,998.319 436.154,998.276 436.99,998.233 437.825,998.19 438.66,998.147 439.495,998.103 440.33,998.059 
  441.165,998.015 442,997.971 442.835,997.927 443.671,997.883 444.506,997.838 445.341,997.793 446.176,997.748 447.011,997.702 447.846,997.657 448.681,997.611 
  449.517,997.565 450.352,997.519 451.187,997.473 452.022,997.426 452.857,997.379 453.692,997.332 454.527,997.285 455.362,997.237 456.198,997.19 457.033,997.142 
  457.868,997.094 458.703,997.045 459.538,996.997 460.373,996.948 461.208,996.899 462.044,996.849 462.879,996.8 463.714,996.75 464.549,996.7 465.384,996.65 
  466.219,996.6 467.054,996.549 467.889,996.498 468.725,996.447 469.56,996.395 470.395,996.344 471.23,996.292 472.065,996.24 472.9,996.187 473.735,996.135 
  474.571,996.082 475.406,996.028 476.241,995.975 477.076,995.921 477.911,995.867 478.746,995.813 479.581,995.759 480.416,995.704 481.252,995.649 482.087,995.594 
  482.922,995.538 483.757,995.482 484.592,995.426 485.427,995.37 486.262,995.313 487.098,995.256 487.933,995.199 488.768,995.142 489.603,995.084 490.438,995.026 
  491.273,994.968 492.108,994.909 492.943,994.85 493.779,994.791 494.614,994.731 495.449,994.672 496.284,994.611 497.119,994.551 497.954,994.49 498.789,994.429 
  499.625,994.368 500.46,994.306 501.295,994.244 502.13,994.182 502.965,994.12 503.8,994.057 504.635,993.994 505.47,993.93 506.306,993.866 507.141,993.802 
  507.976,993.737 508.811,993.673 509.646,993.607 510.481,993.542 511.316,993.476 512.152,993.41 512.987,993.343 513.822,993.276 514.657,993.209 515.492,993.142 
  516.327,993.074 517.162,993.005 517.997,992.937 518.833,992.868 519.668,992.798 520.503,992.729 521.338,992.659 522.173,992.588 523.008,992.517 523.843,992.446 
  524.679,992.375 525.514,992.303 526.349,992.23 527.184,992.158 528.019,992.084 528.854,992.011 529.689,991.937 530.524,991.863 531.36,991.788 532.195,991.713 
  533.03,991.637 533.865,991.561 534.7,991.485 535.535,991.408 536.37,991.331 537.206,991.254 538.041,991.176 538.876,991.097 539.711,991.018 540.546,990.939 
  541.381,990.859 542.216,990.779 543.051,990.698 543.887,990.617 544.722,990.536 545.557,990.454 546.392,990.372 547.227,990.289 548.062,990.205 548.897,990.122 
  549.733,990.037 550.568,989.953 551.403,989.867 552.238,989.782 553.073,989.696 553.908,989.609 554.743,989.522 555.578,989.434 556.414,989.346 557.249,989.257 
  558.084,989.168 558.919,989.079 559.754,988.988 560.589,988.898 561.424,988.806 562.26,988.715 563.095,988.623 563.93,988.53 564.765,988.436 565.6,988.343 
  566.435,988.248 567.27,988.153 568.105,988.058 568.941,987.962 569.776,987.865 570.611,987.768 571.446,987.67 572.281,987.572 573.116,987.473 573.951,987.373 
  574.786,987.273 575.622,987.173 576.457,987.071 577.292,986.969 578.127,986.867 578.962,986.764 579.797,986.66 580.632,986.556 581.468,986.451 582.303,986.345 
  583.138,986.239 583.973,986.132 584.808,986.025 585.643,985.917 586.478,985.808 587.313,985.698 588.149,985.588 588.984,985.477 589.819,985.366 590.654,985.254 
  591.489,985.141 592.324,985.027 593.159,984.913 593.995,984.798 594.83,984.682 595.665,984.566 596.5,984.449 597.335,984.331 598.17,984.212 599.005,984.093 
  599.84,983.973 600.676,983.852 601.511,983.731 602.346,983.608 603.181,983.485 604.016,983.361 604.851,983.237 605.686,983.111 606.522,982.985 607.357,982.858 
  608.192,982.73 609.027,982.601 609.862,982.472 610.697,982.341 611.532,982.21 612.367,982.078 613.203,981.945 614.038,981.811 614.873,981.677 615.708,981.541 
  616.543,981.405 617.378,981.268 618.213,981.129 619.049,980.99 619.884,980.85 620.719,980.709 621.554,980.567 622.389,980.425 623.224,980.281 624.059,980.136 
  624.894,979.991 625.73,979.844 626.565,979.696 627.4,979.548 628.235,979.398 629.07,979.247 629.905,979.096 630.74,978.943 631.576,978.789 632.411,978.635 
  633.246,978.479 634.081,978.322 634.916,978.164 635.751,978.005 636.586,977.845 637.421,977.684 638.257,977.522 639.092,977.358 639.927,977.194 640.762,977.028 
  641.597,976.861 642.432,976.693 643.267,976.524 644.103,976.353 644.938,976.182 645.773,976.009 646.608,975.835 647.443,975.66 648.278,975.483 649.113,975.306 
  649.948,975.127 650.784,974.946 651.619,974.765 652.454,974.582 653.289,974.398 654.124,974.212 654.959,974.026 655.794,973.837 656.63,973.648 657.465,973.457 
  658.3,973.265 659.135,973.071 659.97,972.876 660.805,972.679 661.64,972.481 662.475,972.282 663.311,972.081 664.146,971.879 664.981,971.675 665.816,971.469 
  666.651,971.262 667.486,971.054 668.321,970.844 669.157,970.632 669.992,970.419 670.827,970.204 671.662,969.988 672.497,969.77 673.332,969.55 674.167,969.329 
  675.002,969.106 675.838,968.881 676.673,968.655 677.508,968.426 678.343,968.196 679.178,967.965 680.013,967.731 680.848,967.496 681.684,967.259 682.519,967.02 
  683.354,966.779 684.189,966.536 685.024,966.291 685.859,966.045 686.694,965.796 687.529,965.546 688.365,965.293 689.2,965.039 690.035,964.782 690.87,964.524 
  691.705,964.263 692.54,964 693.375,963.735 694.211,963.469 695.046,963.199 695.881,962.928 696.716,962.655 697.551,962.379 698.386,962.101 699.221,961.821 
  700.056,961.538 700.892,961.253 701.727,960.966 702.562,960.677 703.397,960.385 704.232,960.09 705.067,959.793 705.902,959.494 706.738,959.192 707.573,958.888 
  708.408,958.581 709.243,958.272 710.078,957.96 710.913,957.645 711.748,957.327 712.583,957.007 713.419,956.684 714.254,956.359 715.089,956.03 715.924,955.699 
  716.759,955.365 717.594,955.028 718.429,954.688 719.265,954.345 720.1,954 720.935,953.651 721.77,953.299 722.605,952.944 723.44,952.586 724.275,952.224 
  725.11,951.86 725.946,951.492 726.781,951.121 727.616,950.747 728.451,950.369 729.286,949.988 730.121,949.603 730.956,949.215 731.791,948.824 732.627,948.429 
  733.462,948.03 734.297,947.628 735.132,947.222 735.967,946.813 736.802,946.399 737.637,945.982 738.473,945.561 739.308,945.136 740.143,944.707 740.978,944.274 
  741.813,943.837 742.648,943.396 743.483,942.951 744.318,942.501 745.154,942.047 745.989,941.589 746.824,941.127 747.659,940.66 748.494,940.189 749.329,939.713 
  750.164,939.233 751,938.748 751.835,938.259 752.67,937.764 753.505,937.265 754.34,936.761 755.175,936.252 756.01,935.738 756.845,935.219 757.681,934.695 
  758.516,934.166 759.351,933.631 760.186,933.091 761.021,932.546 761.856,931.995 762.691,931.439 763.527,930.877 764.362,930.309 765.197,929.736 766.032,929.157 
  766.867,928.572 767.702,927.981 768.537,927.384 769.372,926.781 770.208,926.172 771.043,925.556 771.878,924.934 772.713,924.306 773.548,923.671 774.383,923.029 
  775.218,922.381 776.054,921.725 776.889,921.063 777.724,920.394 778.559,919.718 779.394,919.035 780.229,918.344 781.064,917.646 781.899,916.94 782.735,916.227 
  783.57,915.506 784.405,914.777 785.24,914.041 786.075,913.296 786.91,912.544 787.745,911.782 788.581,911.013 789.416,910.235 790.251,909.449 791.086,908.654 
  791.921,907.85 792.756,907.037 793.591,906.215 794.426,905.383 795.262,904.542 796.097,903.692 796.932,902.832 797.767,901.963 798.602,901.083 799.437,900.194 
  800.272,899.294 801.108,898.384 801.943,897.463 802.778,896.532 803.613,895.59 804.448,894.637 805.283,893.673 806.118,892.697 806.953,891.711 807.789,890.712 
  808.624,889.702 809.459,888.679 810.294,887.645 811.129,886.598 811.964,885.539 812.799,884.467 813.635,883.382 814.47,882.284 815.305,881.172 816.14,880.047 
  816.975,878.909 817.81,877.756 818.645,876.59 819.48,875.409 820.316,874.213 821.151,873.003 821.986,871.778 822.821,870.537 823.656,869.281 824.491,868.01 
  825.326,866.722 826.162,865.418 826.997,864.098 827.832,862.761 828.667,861.407 829.502,860.036 830.337,858.647 831.172,857.24 832.007,855.815 832.843,854.372 
  833.678,852.911 834.513,851.43 835.348,849.93 836.183,848.411 837.018,846.872 837.853,845.312 838.689,843.732 839.524,842.131 840.359,840.509 841.194,838.866 
  842.029,837.201 842.864,835.513 843.699,833.803 844.534,832.07 845.37,830.314 846.205,828.534 847.04,826.73 847.875,824.902 848.71,823.049 849.545,821.17 
  850.38,819.266 851.216,817.336 852.051,815.38 852.886,813.396 853.721,811.385 854.556,809.347 855.391,807.28 856.226,805.185 857.061,803.06 857.897,800.906 
  858.732,798.721 859.567,796.506 860.402,794.26 861.237,791.982 862.072,789.673 862.907,787.33 863.743,784.955 864.578,782.545 865.413,780.102 866.248,777.624 
  867.083,775.11 867.918,772.561 868.753,769.975 869.588,767.351 870.424,764.691 871.259,761.992 872.094,759.254 872.929,756.477 873.764,753.659 874.599,750.801 
  875.434,747.902 876.27,744.96 877.105,741.976 877.94,738.949 878.775,735.877 879.61,732.761 880.445,729.6 881.28,726.393 882.115,723.138 882.951,719.837 
  883.786,716.487 884.621,713.089 885.456,709.641 886.291,706.143 887.126,702.594 887.961,698.994 888.796,695.341 889.632,691.634 890.467,687.874 891.302,684.06 
  892.137,680.19 892.972,676.264 893.807,672.282 894.642,668.242 895.478,664.144 896.313,659.986 897.148,655.77 897.983,651.493 898.818,647.155 899.653,642.755 
  900.488,638.293 901.323,633.769 902.159,629.18 902.994,624.527 903.829,619.81 904.664,615.026 905.499,610.177 906.334,605.262 907.169,600.279 908.005,595.228 
  908.84,590.11 909.675,584.923 910.51,579.667 911.345,574.342 912.18,568.947 913.015,563.483 913.85,557.948 914.686,552.343 915.521,546.668 916.356,540.923 
  917.191,535.107 918.026,529.22 918.861,523.264 919.696,517.238 920.532,511.141 921.367,504.976 922.202,498.742 923.037,492.439 923.872,486.069 924.707,479.632 
  925.542,473.128 926.377,466.56 927.213,459.927 928.048,453.232 928.883,446.475 929.718,439.659 930.553,432.784 931.388,425.852 932.223,418.865 933.059,411.826 
  933.894,404.736 934.729,397.598 935.564,390.415 936.399,383.189 937.234,375.923 938.069,368.62 938.904,361.284 939.74,353.917 940.575,346.525 941.41,339.11 
  942.245,331.676 943.08,324.229 943.915,316.772 944.75,309.31 945.586,301.849 946.421,294.393 947.256,286.947 948.091,279.518 948.926,272.111 949.761,264.732 
  950.596,257.387 951.431,250.083 952.267,242.827 953.102,235.624 953.937,228.482 954.772,221.409 955.607,214.411 956.442,207.496 957.277,200.672 958.113,193.945 
  958.948,187.325 959.783,180.819 960.618,174.434 961.453,168.179 962.288,162.062 963.123,156.091 963.958,150.274 964.794,144.619 965.629,139.134 966.464,133.827 
  967.299,128.705 968.134,123.777 968.969,119.049 969.804,114.53 970.64,110.225 971.475,106.143 972.31,102.289 973.145,98.6695 973.98,95.2913 974.815,92.1597 
  975.65,89.2799 976.485,86.657 977.321,84.2954 978.156,82.1993 978.991,80.3724 979.826,78.8178 980.661,77.5384 981.496,76.5364 982.331,75.8136 983.167,75.3714 
  984.002,75.2104 984.837,75.3311 985.672,75.7332 986.507,76.4159 987.342,77.378 988.177,78.6179 989.012,80.1333 989.848,81.9215 990.683,83.9793 991.518,86.3031 
  992.353,88.8889 993.188,91.7322 994.023,94.8282 994.858,98.1714 995.694,101.756 996.529,105.577 997.364,109.627 998.199,113.901 999.034,118.39 999.869,123.088 
  1000.7,127.988 1001.54,133.083 1002.37,138.364 1003.21,143.824 1004.04,149.455 1004.88,155.25 1005.72,161.199 1006.55,167.296 1007.39,173.531 1008.22,179.898 
  1009.06,186.387 1009.89,192.992 1010.73,199.704 1011.56,206.514 1012.4,213.417 1013.23,220.403 1014.07,227.466 1014.9,234.599 1015.74,241.793 1016.57,249.042 
  1017.41,256.34 1018.24,263.679 1019.08,271.054 1019.91,278.457 1020.75,285.883 1021.58,293.327 1022.42,300.782 1023.25,308.243 1024.09,315.705 1024.92,323.163 
  1025.76,330.612 1026.59,338.047 1027.43,345.465 1028.26,352.862 1029.1,360.232 1029.93,367.573 1030.77,374.881 1031.6,382.152 1032.44,389.384 1033.27,396.574 
  1034.11,403.718 1034.94,410.815 1035.78,417.862 1036.62,424.856 1037.45,431.796 1038.29,438.679 1039.12,445.504 1039.96,452.269 1040.79,458.974 1041.63,465.615 
  1042.46,472.193 1043.3,478.705 1044.13,485.152 1044.97,491.532 1045.8,497.844 1046.64,504.089 1047.47,510.264 1048.31,516.37 1049.14,522.406 1049.98,528.373 
  1050.81,534.269 1051.65,540.095 1052.48,545.851 1053.32,551.536 1054.15,557.151 1054.99,562.695 1055.82,568.17 1056.66,573.574 1057.49,578.909 1058.33,584.175 
  1059.16,589.372 1060,594.5 1060.83,599.561 1061.67,604.553 1062.5,609.478 1063.34,614.337 1064.17,619.13 1065.01,623.857 1065.84,628.519 1066.68,633.116 
  1067.51,637.65 1068.35,642.121 1069.19,646.53 1070.02,650.876 1070.86,655.162 1071.69,659.387 1072.53,663.553 1073.36,667.659 1074.2,671.707 1075.03,675.698 
  1075.87,679.632 1076.7,683.51 1077.54,687.332 1078.37,691.1 1079.21,694.814 1080.04,698.474 1080.88,702.082 1081.71,705.639 1082.55,709.144 1083.38,712.599 
  1084.22,716.004 1085.05,719.361 1085.89,722.669 1086.72,725.93 1087.56,729.144 1088.39,732.312 1089.23,735.434 1090.06,738.512 1090.9,741.546 1091.73,744.536 
  1092.57,747.484 1093.4,750.389 1094.24,753.253 1095.07,756.076 1095.91,758.859 1096.74,761.603 1097.58,764.307 1098.41,766.973 1099.25,769.602 1100.09,772.193 
  1100.92,774.748 1101.76,777.266 1102.59,779.75 1103.43,782.198 1104.26,784.612 1105.1,786.993 1105.93,789.34 1106.77,791.654 1107.6,793.936 1108.44,796.187 
  1109.27,798.406 1110.11,800.595 1110.94,802.754 1111.78,804.883 1112.61,806.982 1113.45,809.053 1114.28,811.096 1115.12,813.11 1115.95,815.098 1116.79,817.058 
  1117.62,818.992 1118.46,820.9 1119.29,822.782 1120.13,824.638 1120.96,826.47 1121.8,828.278 1122.63,830.061 1123.47,831.821 1124.3,833.557 1125.14,835.27 
  1125.97,836.961 1126.81,838.629 1127.64,840.276 1128.48,841.901 1129.31,843.505 1130.15,845.087 1130.99,846.65 1131.82,848.192 1132.66,849.714 1133.49,851.217 
  1134.33,852.7 1135.16,854.165 1136,855.61 1136.83,857.037 1137.67,858.447 1138.5,859.838 1139.34,861.212 1140.17,862.568 1141.01,863.908 1141.84,865.23 
  1142.68,866.537 1143.51,867.827 1144.35,869.101 1145.18,870.359 1146.02,871.601 1146.85,872.829 1147.69,874.041 1148.52,875.239 1149.36,876.422 1150.19,877.59 
  1151.03,878.745 1151.86,879.885 1152.7,881.012 1153.53,882.126 1154.37,883.225 1155.2,884.312 1156.04,885.386 1156.87,886.447 1157.71,887.496 1158.54,888.532 
  1159.38,889.556 1160.21,890.568 1161.05,891.568 1161.88,892.557 1162.72,893.534 1163.56,894.5 1164.39,895.454 1165.23,896.398 1166.06,897.331 1166.9,898.253 
  1167.73,899.165 1168.57,900.066 1169.4,900.957 1170.24,901.838 1171.07,902.709 1171.91,903.57 1172.74,904.421 1173.58,905.264 1174.41,906.096 1175.25,906.92 
  1176.08,907.734 1176.92,908.539 1177.75,909.336 1178.59,910.123 1179.42,910.902 1180.26,911.673 1181.09,912.435 1181.93,913.189 1182.76,913.935 1183.6,914.673 
  1184.43,915.402 1185.27,916.124 1186.1,916.839 1186.94,917.545 1187.77,918.244 1188.61,918.936 1189.44,919.621 1190.28,920.298 1191.11,920.968 1191.95,921.631 
  1192.78,922.287 1193.62,922.937 1194.46,923.579 1195.29,924.215 1196.13,924.845 1196.96,925.468 1197.8,926.084 1198.63,926.694 1199.47,927.298 1200.3,927.896 
  1201.14,928.488 1201.97,929.074 1202.81,929.654 1203.64,930.228 1204.48,930.796 1205.31,931.359 1206.15,931.916 1206.98,932.467 1207.82,933.013 1208.65,933.554 
  1209.49,934.089 1210.32,934.619 1211.16,935.144 1211.99,935.664 1212.83,936.179 1213.66,936.688 1214.5,937.193 1215.33,937.693 1216.17,938.188 1217,938.678 
  1217.84,939.164 1218.67,939.645 1219.51,940.121 1220.34,940.593 1221.18,941.061 1222.01,941.524 1222.85,941.982 1223.68,942.436 1224.52,942.887 1225.36,943.332 
  1226.19,943.774 1227.03,944.212 1227.86,944.645 1228.7,945.075 1229.53,945.5 1230.37,945.922 1231.2,946.34 1232.04,946.754 1232.87,947.164 1233.71,947.57 
  1234.54,947.973 1235.38,948.372 1236.21,948.768 1237.05,949.16 1237.88,949.548 1238.72,949.933 1239.55,950.315 1240.39,950.693 1241.22,951.068 1242.06,951.439 
  1242.89,951.807 1243.73,952.172 1244.56,952.534 1245.4,952.893 1246.23,953.248 1247.07,953.6 1247.9,953.95 1248.74,954.296 1249.57,954.639 1250.41,954.98 
  1251.24,955.317 1252.08,955.652 1252.91,955.983 1253.75,956.312 1254.58,956.638 1255.42,956.961 1256.26,957.282 1257.09,957.6 1257.93,957.915 1258.76,958.227 
  1259.6,958.537 1260.43,958.844 1261.27,959.149 1262.1,959.451 1262.94,959.751 1263.77,960.048 1264.61,960.343 1265.44,960.635 1266.28,960.925 1267.11,961.212 
  1267.95,961.498 1268.78,961.78 1269.62,962.061 1270.45,962.339 1271.29,962.615 1272.12,962.889 1272.96,963.161 1273.79,963.43 1274.63,963.697 1275.46,963.963 
  1276.3,964.226 1277.13,964.486 1277.97,964.745 1278.8,965.002 1279.64,965.257 1280.47,965.51 1281.31,965.76 1282.14,966.009 1282.98,966.256 1283.81,966.501 
  1284.65,966.744 1285.48,966.985 1286.32,967.225 1287.15,967.462 1287.99,967.698 1288.83,967.931 1289.66,968.163 1290.5,968.394 1291.33,968.622 1292.17,968.849 
  1293,969.074 1293.84,969.297 1294.67,969.519 1295.51,969.739 1296.34,969.957 1297.18,970.174 1298.01,970.389 1298.85,970.602 1299.68,970.814 1300.52,971.024 
  1301.35,971.233 1302.19,971.44 1303.02,971.646 1303.86,971.85 1304.69,972.052 1305.53,972.253 1306.36,972.453 1307.2,972.651 1308.03,972.848 1308.87,973.043 
  1309.7,973.237 1310.54,973.43 1311.37,973.621 1312.21,973.81 1313.04,973.999 1313.88,974.186 1314.71,974.371 1315.55,974.556 1316.38,974.739 1317.22,974.921 
  1318.05,975.101 1318.89,975.28 1319.73,975.458 1320.56,975.635 1321.4,975.81 1322.23,975.984 1323.07,976.157 1323.9,976.329 1324.74,976.499 1325.57,976.669 
  1326.41,976.837 1327.24,977.004 1328.08,977.17 1328.91,977.335 1329.75,977.498 1330.58,977.661 1331.42,977.822 1332.25,977.982 1333.09,978.141 1333.92,978.3 
  1334.76,978.457 1335.59,978.612 1336.43,978.767 1337.26,978.921 1338.1,979.074 1338.93,979.226 1339.77,979.377 1340.6,979.526 1341.44,979.675 1342.27,979.823 
  1343.11,979.97 1343.94,980.115 1344.78,980.26 1345.61,980.404 1346.45,980.547 1347.28,980.689 1348.12,980.83 1348.95,980.97 1349.79,981.11 1350.63,981.248 
  1351.46,981.385 1352.3,981.522 1353.13,981.657 1353.97,981.792 1354.8,981.926 1355.64,982.059 1356.47,982.191 1357.31,982.323 1358.14,982.453 1358.98,982.583 
  1359.81,982.712 1360.65,982.84 1361.48,982.967 1362.32,983.093 1363.15,983.219 1363.99,983.344 1364.82,983.468 1365.66,983.591 1366.49,983.713 1367.33,983.835 
  1368.16,983.956 1369,984.076 1369.83,984.195 1370.67,984.314 1371.5,984.432 1372.34,984.549 1373.17,984.666 1374.01,984.782 1374.84,984.897 1375.68,985.011 
  1376.51,985.125 1377.35,985.238 1378.18,985.35 1379.02,985.461 1379.85,985.572 1380.69,985.683 1381.52,985.792 1382.36,985.901 1383.2,986.009 1384.03,986.117 
  1384.87,986.224 1385.7,986.33 1386.54,986.436 1387.37,986.541 1388.21,986.645 1389.04,986.749 1389.88,986.852 1390.71,986.955 1391.55,987.057 1392.38,987.158 
  1393.22,987.259 1394.05,987.359 1394.89,987.459 1395.72,987.558 1396.56,987.656 1397.39,987.754 1398.23,987.851 1399.06,987.948 1399.9,988.044 1400.73,988.14 
  1401.57,988.235 1402.4,988.329 1403.24,988.423 1404.07,988.516 1404.91,988.609 1405.74,988.702 1406.58,988.793 1407.41,988.885 1408.25,988.975 1409.08,989.066 
  1409.92,989.155 1410.75,989.245 1411.59,989.333 1412.42,989.421 1413.26,989.509 1414.1,989.596 1414.93,989.683 1415.77,989.769 1416.6,989.855 1417.44,989.94 
  1418.27,990.025 1419.11,990.11 1419.94,990.193 1420.78,990.277 1421.61,990.36 1422.45,990.442 1423.28,990.524 1424.12,990.606 1424.95,990.687 1425.79,990.768 
  1426.62,990.848 1427.46,990.928 1428.29,991.007 1429.13,991.086 1429.96,991.164 1430.8,991.242 1431.63,991.32 1432.47,991.397 1433.3,991.474 1434.14,991.551 
  1434.97,991.626 1435.81,991.702 1436.64,991.777 1437.48,991.852 1438.31,991.926 1439.15,992 1439.98,992.074 1440.82,992.147 1441.65,992.22 1442.49,992.292 
  1443.32,992.364 1444.16,992.436 1445,992.507 1445.83,992.578 1446.67,992.649 1447.5,992.719 1448.34,992.789 1449.17,992.858 1450.01,992.927 1450.84,992.996 
  1451.68,993.064 1452.51,993.132 1453.35,993.2 1454.18,993.267 1455.02,993.334 1455.85,993.4 1456.69,993.467 1457.52,993.533 1458.36,993.598 1459.19,993.663 
  1460.03,993.728 1460.86,993.793 1461.7,993.857 1462.53,993.921 1463.37,993.984 1464.2,994.048 1465.04,994.111 1465.87,994.173 1466.71,994.236 1467.54,994.298 
  1468.38,994.359 1469.21,994.421 1470.05,994.482 1470.88,994.542 1471.72,994.603 1472.55,994.663 1473.39,994.723 1474.22,994.782 1475.06,994.842 1475.89,994.901 
  1476.73,994.959 1477.57,995.018 1478.4,995.076 1479.24,995.134 1480.07,995.191 1480.91,995.248 1481.74,995.305 1482.58,995.362 1483.41,995.418 1484.25,995.474 
  1485.08,995.53 1485.92,995.586 1486.75,995.641 1487.59,995.696 1488.42,995.751 1489.26,995.805 1490.09,995.86 1490.93,995.914 1491.76,995.967 1492.6,996.021 
  1493.43,996.074 1494.27,996.127 1495.1,996.18 1495.94,996.232 1496.77,996.284 1497.61,996.336 1498.44,996.388 1499.28,996.439 1500.11,996.491 1500.95,996.542 
  1501.78,996.592 1502.62,996.643 1503.45,996.693 1504.29,996.743 1505.12,996.793 1505.96,996.842 1506.79,996.892 1507.63,996.941 1508.47,996.99 1509.3,997.038 
  1510.14,997.087 1510.97,997.135 1511.81,997.183 1512.64,997.231 1513.48,997.278 1514.31,997.325 1515.15,997.372 1515.98,997.419 1516.82,997.466 1517.65,997.512 
  1518.49,997.559 1519.32,997.604 1520.16,997.65 1520.99,997.696 1521.83,997.741 1522.66,997.786 1523.5,997.831 1524.33,997.876 1525.17,997.921 1526,997.965 
  1526.84,998.009 1527.67,998.053 1528.51,998.097 1529.34,998.14 1530.18,998.184 1531.01,998.227 1531.85,998.27 1532.68,998.313 1533.52,998.355 1534.35,998.398 
  1535.19,998.44 1536.02,998.482 1536.86,998.524 1537.69,998.565 1538.53,998.607 1539.37,998.648 1540.2,998.689 1541.04,998.73 1541.87,998.771 1542.71,998.812 
  1543.54,998.852 1544.38,998.892 1545.21,998.932 1546.05,998.972 1546.88,999.012 1547.72,999.051 1548.55,999.091 1549.39,999.13 1550.22,999.169 1551.06,999.208 
  1551.89,999.246 1552.73,999.285 1553.56,999.323 1554.4,999.361 1555.23,999.399 1556.07,999.437 1556.9,999.475 1557.74,999.512 1558.57,999.55 1559.41,999.587 
  1560.24,999.624 1561.08,999.661 1561.91,999.697 1562.75,999.734 1563.58,999.77 1564.42,999.807 1565.25,999.843 1566.09,999.879 1566.92,999.914 1567.76,999.95 
  1568.59,999.986 1569.43,1000.02 1570.27,1000.06 1571.1,1000.09 1571.94,1000.13 1572.77,1000.16 1573.61,1000.2 1574.44,1000.23 1575.28,1000.26 1576.11,1000.3 
  1576.95,1000.33 1577.78,1000.37 1578.62,1000.4 1579.45,1000.43 1580.29,1000.47 1581.12,1000.5 1581.96,1000.53 1582.79,1000.57 1583.63,1000.6 1584.46,1000.63 
  1585.3,1000.67 1586.13,1000.7 1586.97,1000.73 1587.8,1000.76 1588.64,1000.79 1589.47,1000.83 1590.31,1000.86 1591.14,1000.89 1591.98,1000.92 1592.81,1000.95 
  1593.65,1000.98 1594.48,1001.02 1595.32,1001.05 1596.15,1001.08 1596.99,1001.11 1597.82,1001.14 1598.66,1001.17 1599.49,1001.2 1600.33,1001.23 1601.16,1001.26 
  1602,1001.29 1602.84,1001.32 1603.67,1001.35 1604.51,1001.38 1605.34,1001.41 1606.18,1001.44 1607.01,1001.47 1607.85,1001.5 1608.68,1001.53 1609.52,1001.56 
  1610.35,1001.59 1611.19,1001.62 1612.02,1001.64 1612.86,1001.67 1613.69,1001.7 1614.53,1001.73 1615.36,1001.76 1616.2,1001.79 1617.03,1001.81 1617.87,1001.84 
  1618.7,1001.87 1619.54,1001.9 1620.37,1001.93 1621.21,1001.95 1622.04,1001.98 1622.88,1002.01 1623.71,1002.03 1624.55,1002.06 1625.38,1002.09 1626.22,1002.12 
  1627.05,1002.14 1627.89,1002.17 1628.72,1002.2 1629.56,1002.22 1630.39,1002.25 1631.23,1002.27 1632.06,1002.3 1632.9,1002.33 1633.74,1002.35 1634.57,1002.38 
  1635.41,1002.4 1636.24,1002.43 1637.08,1002.46 1637.91,1002.48 1638.75,1002.51 1639.58,1002.53 1640.42,1002.56 1641.25,1002.58 1642.09,1002.61 1642.92,1002.63 
  1643.76,1002.66 1644.59,1002.68 1645.43,1002.71 1646.26,1002.73 1647.1,1002.76 1647.93,1002.78 1648.77,1002.8 1649.6,1002.83 1650.44,1002.85 1651.27,1002.88 
  1652.11,1002.9 1652.94,1002.92 1653.78,1002.95 1654.61,1002.97 1655.45,1003 1656.28,1003.02 1657.12,1003.04 1657.95,1003.07 1658.79,1003.09 1659.62,1003.11 
  1660.46,1003.13 1661.29,1003.16 1662.13,1003.18 1662.96,1003.2 1663.8,1003.23 1664.64,1003.25 1665.47,1003.27 1666.31,1003.29 1667.14,1003.32 1667.98,1003.34 
  1668.81,1003.36 1669.65,1003.38 1670.48,1003.41 1671.32,1003.43 1672.15,1003.45 1672.99,1003.47 1673.82,1003.49 1674.66,1003.51 1675.49,1003.54 1676.33,1003.56 
  1677.16,1003.58 1678,1003.6 1678.83,1003.62 1679.67,1003.64 1680.5,1003.66 1681.34,1003.68 1682.17,1003.71 1683.01,1003.73 1683.84,1003.75 1684.68,1003.77 
  1685.51,1003.79 1686.35,1003.81 1687.18,1003.83 1688.02,1003.85 1688.85,1003.87 1689.69,1003.89 1690.52,1003.91 1691.36,1003.93 1692.19,1003.95 1693.03,1003.97 
  1693.86,1003.99 1694.7,1004.01 1695.53,1004.03 1696.37,1004.05 1697.21,1004.07 1698.04,1004.09 1698.88,1004.11 1699.71,1004.13 1700.55,1004.15 1701.38,1004.17 
  1702.22,1004.19 1703.05,1004.21 1703.89,1004.23 1704.72,1004.25 1705.56,1004.26 1706.39,1004.28 1707.23,1004.3 1708.06,1004.32 1708.9,1004.34 1709.73,1004.36 
  1710.57,1004.38 1711.4,1004.4 1712.24,1004.41 1713.07,1004.43 1713.91,1004.45 1714.74,1004.47 1715.58,1004.49 1716.41,1004.51 1717.25,1004.52 1718.08,1004.54 
  1718.92,1004.56 1719.75,1004.58 1720.59,1004.6 1721.42,1004.61 1722.26,1004.63 1723.09,1004.65 1723.93,1004.67 1724.76,1004.69 1725.6,1004.7 1726.43,1004.72 
  1727.27,1004.74 1728.11,1004.76 1728.94,1004.77 1729.78,1004.79 1730.61,1004.81 1731.45,1004.82 1732.28,1004.84 1733.12,1004.86 1733.95,1004.88 1734.79,1004.89 
  1735.62,1004.91 1736.46,1004.93 1737.29,1004.94 1738.13,1004.96 1738.96,1004.98 1739.8,1004.99 1740.63,1005.01 1741.47,1005.03 1742.3,1005.04 1743.14,1005.06 
  1743.97,1005.07 1744.81,1005.09 1745.64,1005.11 1746.48,1005.12 1747.31,1005.14 1748.15,1005.16 1748.98,1005.17 1749.82,1005.19 1750.65,1005.2 1751.49,1005.22 
  1752.32,1005.24 1753.16,1005.25 1753.99,1005.27 1754.83,1005.28 1755.66,1005.3 1756.5,1005.31 1757.33,1005.33 1758.17,1005.34 1759.01,1005.36 1759.84,1005.38 
  1760.68,1005.39 1761.51,1005.41 1762.35,1005.42 1763.18,1005.44 1764.02,1005.45 1764.85,1005.47 1765.69,1005.48 1766.52,1005.5 1767.36,1005.51 1768.19,1005.53 
  1769.03,1005.54 1769.86,1005.56 1770.7,1005.57 1771.53,1005.59 1772.37,1005.6 1773.2,1005.61 1774.04,1005.63 1774.87,1005.64 1775.71,1005.66 1776.54,1005.67 
  1777.38,1005.69 1778.21,1005.7 1779.05,1005.72 1779.88,1005.73 1780.72,1005.74 1781.55,1005.76 1782.39,1005.77 1783.22,1005.79 1784.06,1005.8 1784.89,1005.81 
  1785.73,1005.83 1786.56,1005.84 1787.4,1005.86 1788.23,1005.87 1789.07,1005.88 1789.9,1005.9 1790.74,1005.91 1791.58,1005.92 1792.41,1005.94 1793.25,1005.95 
  1794.08,1005.96 1794.92,1005.98 1795.75,1005.99 1796.59,1006.01 1797.42,1006.02 1798.26,1006.03 1799.09,1006.05 1799.93,1006.06 1800.76,1006.07 1801.6,1006.08 
  1802.43,1006.1 1803.27,1006.11 1804.1,1006.12 1804.94,1006.14 1805.77,1006.15 1806.61,1006.16 1807.44,1006.18 1808.28,1006.19 1809.11,1006.2 1809.95,1006.21 
  1810.78,1006.23 1811.62,1006.24 1812.45,1006.25 1813.29,1006.26 1814.12,1006.28 1814.96,1006.29 1815.79,1006.3 1816.63,1006.31 1817.46,1006.33 1818.3,1006.34 
  1819.13,1006.35 1819.97,1006.36 1820.8,1006.38 1821.64,1006.39 1822.48,1006.4 1823.31,1006.41 1824.15,1006.42 1824.98,1006.44 1825.82,1006.45 1826.65,1006.46 
  1827.49,1006.47 1828.32,1006.48 1829.16,1006.5 1829.99,1006.51 1830.83,1006.52 1831.66,1006.53 1832.5,1006.54 1833.33,1006.56 1834.17,1006.57 1835,1006.58 
  1835.84,1006.59 1836.67,1006.6 1837.51,1006.61 1838.34,1006.63 1839.18,1006.64 1840.01,1006.65 1840.85,1006.66 1841.68,1006.67 1842.52,1006.68 1843.35,1006.69 
  1844.19,1006.71 1845.02,1006.72 1845.86,1006.73 1846.69,1006.74 1847.53,1006.75 1848.36,1006.76 1849.2,1006.77 1850.03,1006.78 1850.87,1006.79 1851.7,1006.81 
  1852.54,1006.82 1853.38,1006.83 1854.21,1006.84 1855.05,1006.85 1855.88,1006.86 1856.72,1006.87 1857.55,1006.88 1858.39,1006.89 1859.22,1006.9 1860.06,1006.91 
  1860.89,1006.92 1861.73,1006.94 1862.56,1006.95 1863.4,1006.96 1864.23,1006.97 1865.07,1006.98 1865.9,1006.99 1866.74,1007 1867.57,1007.01 1868.41,1007.02 
  1869.24,1007.03 1870.08,1007.04 1870.91,1007.05 1871.75,1007.06 1872.58,1007.07 1873.42,1007.08 1874.25,1007.09 1875.09,1007.1 1875.92,1007.11 1876.76,1007.12 
  1877.59,1007.13 1878.43,1007.14 1879.26,1007.15 1880.1,1007.16 1880.93,1007.17 1881.77,1007.18 1882.6,1007.19 1883.44,1007.2 1884.28,1007.21 1885.11,1007.22 
  1885.95,1007.23 1886.78,1007.24 1887.62,1007.25 1888.45,1007.26 1889.29,1007.27 1890.12,1007.28 1890.96,1007.29 1891.79,1007.3 1892.63,1007.31 1893.46,1007.32 
  1894.3,1007.33 1895.13,1007.34 1895.97,1007.35 1896.8,1007.36 1897.64,1007.37 1898.47,1007.37 1899.31,1007.38 1900.14,1007.39 1900.98,1007.4 1901.81,1007.41 
  1902.65,1007.42 
  "/>
</svg>
