<?xml version="1.0" encoding="utf-8"?>
<svg xmlns="http://www.w3.org/2000/svg" xmlns:xlink="http://www.w3.org/1999/xlink" width="600" height="300" viewBox="0 0 2400 1200">
<defs>
  <clipPath id="clip060">
    <rect x="0" y="0" width="2400" height="1200"/>
  </clipPath>
</defs>
<path clip-path="url(#clip060)" d="
M0 1200 L2400 1200 L2400 0 L0 0  Z
  " fill="#ffffff" fill-rule="evenodd" fill-opacity="1"/>
<defs>
  <clipPath id="clip061">
    <rect x="480" y="0" width="1681" height="1200"/>
  </clipPath>
</defs>
<path clip-path="url(#clip060)" d="
M237.662 1047.7 L2352.76 1047.7 L2352.76 47.2441 L237.662 47.2441  Z
  " fill="#ffffff" fill-rule="evenodd" fill-opacity="1"/>
<defs>
  <clipPath id="clip062">
    <rect x="237" y="47" width="2116" height="1001"/>
  </clipPath>
</defs>
<polyline clip-path="url(#clip062)" style="stroke:#000000; stroke-linecap:butt; stroke-linejoin:round; stroke-width:2; stroke-opacity:0.1; fill:none" points="
  297.523,1047.7 297.523,47.2441 
  "/>
<polyline clip-path="url(#clip062)" style="stroke:#000000; stroke-linecap:butt; stroke-linejoin:round; stroke-width:2; stroke-opacity:0.1; fill:none" points="
  652.047,1047.7 652.047,47.2441 
  "/>
<polyline clip-path="url(#clip062)" style="stroke:#000000; stroke-linecap:butt; stroke-linejoin:round; stroke-width:2; stroke-opacity:0.1; fill:none" points="
  1006.57,1047.7 1006.57,47.2441 
  "/>
<polyline clip-path="url(#clip062)" style="stroke:#000000; stroke-linecap:butt; stroke-linejoin:round; stroke-width:2; stroke-opacity:0.1; fill:none" points="
  1361.09,1047.7 1361.09,47.2441 
  "/>
<polyline clip-path="url(#clip062)" style="stroke:#000000; stroke-linecap:butt; stroke-linejoin:round; stroke-width:2; stroke-opacity:0.1; fill:none" points="
  1715.62,1047.7 1715.62,47.2441 
  "/>
<polyline clip-path="url(#clip062)" style="stroke:#000000; stroke-linecap:butt; stroke-linejoin:round; stroke-width:2; stroke-opacity:0.1; fill:none" points="
  2070.14,1047.7 2070.14,47.2441 
  "/>
<polyline clip-path="url(#clip060)" style="stroke:#000000; stroke-linecap:butt; stroke-linejoin:round; stroke-width:4; stroke-opacity:1; fill:none" points="
  237.662,1047.7 2352.76,1047.7 
  "/>
<polyline clip-path="url(#clip060)" style="stroke:#000000; stroke-linecap:butt; stroke-linejoin:round; stroke-width:4; stroke-opacity:1; fill:none" points="
  297.523,1047.7 297.523,1028.8 
  "/>
<polyline clip-path="url(#clip060)" style="stroke:#000000; stroke-linecap:butt; stroke-linejoin:round; stroke-width:4; stroke-opacity:1; fill:none" points="
  652.047,1047.7 652.047,1028.8 
  "/>
<polyline clip-path="url(#clip060)" style="stroke:#000000; stroke-linecap:butt; stroke-linejoin:round; stroke-width:4; stroke-opacity:1; fill:none" points="
  1006.57,1047.7 1006.57,1028.8 
  "/>
<polyline clip-path="url(#clip060)" style="stroke:#000000; stroke-linecap:butt; stroke-linejoin:round; stroke-width:4; stroke-opacity:1; fill:none" points="
  1361.09,1047.7 1361.09,1028.8 
  "/>
<polyline clip-path="url(#clip060)" style="stroke:#000000; stroke-linecap:butt; stroke-linejoin:round; stroke-width:4; stroke-opacity:1; fill:none" points="
  1715.62,1047.7 1715.62,1028.8 
  "/>
<polyline clip-path="url(#clip060)" style="stroke:#000000; stroke-linecap:butt; stroke-linejoin:round; stroke-width:4; stroke-opacity:1; fill:none" points="
  2070.14,1047.7 2070.14,1028.8 
  "/>
<path clip-path="url(#clip060)" d="M259.827 1078.62 Q256.216 1078.62 254.387 1082.18 Q252.581 1085.72 252.581 1092.85 Q252.581 1099.96 254.387 1103.53 Q256.216 1107.07 259.827 1107.07 Q263.461 1107.07 265.266 1103.53 Q267.095 1099.96 267.095 1092.85 Q267.095 1085.72 265.266 1082.18 Q263.461 1078.62 259.827 1078.62 M259.827 1074.91 Q265.637 1074.91 268.692 1079.52 Q271.771 1084.1 271.771 1092.85 Q271.771 1101.58 268.692 1106.19 Q265.637 1110.77 259.827 1110.77 Q254.016 1110.77 250.938 1106.19 Q247.882 1101.58 247.882 1092.85 Q247.882 1084.1 250.938 1079.52 Q254.016 1074.91 259.827 1074.91 Z" fill="#000000" fill-rule="evenodd" fill-opacity="1" /><path clip-path="url(#clip060)" d="M279.989 1104.22 L284.873 1104.22 L284.873 1110.1 L279.989 1110.1 L279.989 1104.22 Z" fill="#000000" fill-rule="evenodd" fill-opacity="1" /><path clip-path="url(#clip060)" d="M305.058 1078.62 Q301.447 1078.62 299.618 1082.18 Q297.813 1085.72 297.813 1092.85 Q297.813 1099.96 299.618 1103.53 Q301.447 1107.07 305.058 1107.07 Q308.692 1107.07 310.498 1103.53 Q312.326 1099.96 312.326 1092.85 Q312.326 1085.72 310.498 1082.18 Q308.692 1078.62 305.058 1078.62 M305.058 1074.91 Q310.868 1074.91 313.924 1079.52 Q317.002 1084.1 317.002 1092.85 Q317.002 1101.58 313.924 1106.19 Q310.868 1110.77 305.058 1110.77 Q299.248 1110.77 296.169 1106.19 Q293.113 1101.58 293.113 1092.85 Q293.113 1084.1 296.169 1079.52 Q299.248 1074.91 305.058 1074.91 Z" fill="#000000" fill-rule="evenodd" fill-opacity="1" /><path clip-path="url(#clip060)" d="M335.22 1078.62 Q331.609 1078.62 329.78 1082.18 Q327.974 1085.72 327.974 1092.85 Q327.974 1099.96 329.78 1103.53 Q331.609 1107.07 335.22 1107.07 Q338.854 1107.07 340.66 1103.53 Q342.488 1099.96 342.488 1092.85 Q342.488 1085.72 340.66 1082.18 Q338.854 1078.62 335.22 1078.62 M335.22 1074.91 Q341.03 1074.91 344.085 1079.52 Q347.164 1084.1 347.164 1092.85 Q347.164 1101.58 344.085 1106.19 Q341.03 1110.77 335.22 1110.77 Q329.41 1110.77 326.331 1106.19 Q323.275 1101.58 323.275 1092.85 Q323.275 1084.1 326.331 1079.52 Q329.41 1074.91 335.22 1074.91 Z" fill="#000000" fill-rule="evenodd" fill-opacity="1" /><path clip-path="url(#clip060)" d="M614.964 1078.62 Q611.353 1078.62 609.524 1082.18 Q607.718 1085.72 607.718 1092.85 Q607.718 1099.96 609.524 1103.53 Q611.353 1107.07 614.964 1107.07 Q618.598 1107.07 620.403 1103.53 Q622.232 1099.96 622.232 1092.85 Q622.232 1085.72 620.403 1082.18 Q618.598 1078.62 614.964 1078.62 M614.964 1074.91 Q620.774 1074.91 623.829 1079.52 Q626.908 1084.1 626.908 1092.85 Q626.908 1101.58 623.829 1106.19 Q620.774 1110.77 614.964 1110.77 Q609.153 1110.77 606.075 1106.19 Q603.019 1101.58 603.019 1092.85 Q603.019 1084.1 606.075 1079.52 Q609.153 1074.91 614.964 1074.91 Z" fill="#000000" fill-rule="evenodd" fill-opacity="1" /><path clip-path="url(#clip060)" d="M635.126 1104.22 L640.01 1104.22 L640.01 1110.1 L635.126 1110.1 L635.126 1104.22 Z" fill="#000000" fill-rule="evenodd" fill-opacity="1" /><path clip-path="url(#clip060)" d="M660.195 1078.62 Q656.584 1078.62 654.755 1082.18 Q652.95 1085.72 652.95 1092.85 Q652.95 1099.96 654.755 1103.53 Q656.584 1107.07 660.195 1107.07 Q663.829 1107.07 665.635 1103.53 Q667.463 1099.96 667.463 1092.85 Q667.463 1085.72 665.635 1082.18 Q663.829 1078.62 660.195 1078.62 M660.195 1074.91 Q666.005 1074.91 669.061 1079.52 Q672.139 1084.1 672.139 1092.85 Q672.139 1101.58 669.061 1106.19 Q666.005 1110.77 660.195 1110.77 Q654.385 1110.77 651.306 1106.19 Q648.25 1101.58 648.25 1092.85 Q648.25 1084.1 651.306 1079.52 Q654.385 1074.91 660.195 1074.91 Z" fill="#000000" fill-rule="evenodd" fill-opacity="1" /><path clip-path="url(#clip060)" d="M681.167 1106.16 L688.806 1106.16 L688.806 1079.8 L680.496 1081.47 L680.496 1077.21 L688.76 1075.54 L693.435 1075.54 L693.435 1106.16 L701.074 1106.16 L701.074 1110.1 L681.167 1110.1 L681.167 1106.16 Z" fill="#000000" fill-rule="evenodd" fill-opacity="1" /><path clip-path="url(#clip060)" d="M969.672 1078.62 Q966.061 1078.62 964.233 1082.18 Q962.427 1085.72 962.427 1092.85 Q962.427 1099.96 964.233 1103.53 Q966.061 1107.07 969.672 1107.07 Q973.307 1107.07 975.112 1103.53 Q976.941 1099.96 976.941 1092.85 Q976.941 1085.72 975.112 1082.18 Q973.307 1078.62 969.672 1078.62 M969.672 1074.91 Q975.483 1074.91 978.538 1079.52 Q981.617 1084.1 981.617 1092.85 Q981.617 1101.58 978.538 1106.19 Q975.483 1110.77 969.672 1110.77 Q963.862 1110.77 960.784 1106.19 Q957.728 1101.58 957.728 1092.85 Q957.728 1084.1 960.784 1079.52 Q963.862 1074.91 969.672 1074.91 Z" fill="#000000" fill-rule="evenodd" fill-opacity="1" /><path clip-path="url(#clip060)" d="M989.834 1104.22 L994.719 1104.22 L994.719 1110.1 L989.834 1110.1 L989.834 1104.22 Z" fill="#000000" fill-rule="evenodd" fill-opacity="1" /><path clip-path="url(#clip060)" d="M1014.9 1078.62 Q1011.29 1078.62 1009.46 1082.18 Q1007.66 1085.72 1007.66 1092.85 Q1007.66 1099.96 1009.46 1103.53 Q1011.29 1107.07 1014.9 1107.07 Q1018.54 1107.07 1020.34 1103.53 Q1022.17 1099.96 1022.17 1092.85 Q1022.17 1085.72 1020.34 1082.18 Q1018.54 1078.62 1014.9 1078.62 M1014.9 1074.91 Q1020.71 1074.91 1023.77 1079.52 Q1026.85 1084.1 1026.85 1092.85 Q1026.85 1101.58 1023.77 1106.19 Q1020.71 1110.77 1014.9 1110.77 Q1009.09 1110.77 1006.01 1106.19 Q1002.96 1101.58 1002.96 1092.85 Q1002.96 1084.1 1006.01 1079.52 Q1009.09 1074.91 1014.9 1074.91 Z" fill="#000000" fill-rule="evenodd" fill-opacity="1" /><path clip-path="url(#clip060)" d="M1039.09 1106.16 L1055.41 1106.16 L1055.41 1110.1 L1033.47 1110.1 L1033.47 1106.16 Q1036.13 1103.41 1040.71 1098.78 Q1045.32 1094.13 1046.5 1092.79 Q1048.75 1090.26 1049.63 1088.53 Q1050.53 1086.77 1050.53 1085.08 Q1050.53 1082.32 1048.58 1080.59 Q1046.66 1078.85 1043.56 1078.85 Q1041.36 1078.85 1038.91 1079.61 Q1036.48 1080.38 1033.7 1081.93 L1033.7 1077.21 Q1036.52 1076.07 1038.98 1075.49 Q1041.43 1074.91 1043.47 1074.91 Q1048.84 1074.91 1052.03 1077.6 Q1055.23 1080.29 1055.23 1084.78 Q1055.23 1086.91 1054.42 1088.83 Q1053.63 1090.72 1051.52 1093.32 Q1050.95 1093.99 1047.84 1097.21 Q1044.74 1100.4 1039.09 1106.16 Z" fill="#000000" fill-rule="evenodd" fill-opacity="1" /><path clip-path="url(#clip060)" d="M1323.72 1078.62 Q1320.11 1078.62 1318.28 1082.18 Q1316.48 1085.72 1316.48 1092.85 Q1316.48 1099.96 1318.28 1103.53 Q1320.11 1107.07 1323.72 1107.07 Q1327.36 1107.07 1329.16 1103.53 Q1330.99 1099.96 1330.99 1092.85 Q1330.99 1085.72 1329.16 1082.18 Q1327.36 1078.62 1323.72 1078.62 M1323.72 1074.91 Q1329.53 1074.91 1332.59 1079.52 Q1335.67 1084.1 1335.67 1092.85 Q1335.67 1101.58 1332.59 1106.19 Q1329.53 1110.77 1323.72 1110.77 Q1317.91 1110.77 1314.83 1106.19 Q1311.78 1101.58 1311.78 1092.85 Q1311.78 1084.1 1314.83 1079.52 Q1317.91 1074.91 1323.72 1074.91 Z" fill="#000000" fill-rule="evenodd" fill-opacity="1" /><path clip-path="url(#clip060)" d="M1343.88 1104.22 L1348.77 1104.22 L1348.77 1110.1 L1343.88 1110.1 L1343.88 1104.22 Z" fill="#000000" fill-rule="evenodd" fill-opacity="1" /><path clip-path="url(#clip060)" d="M1368.95 1078.62 Q1365.34 1078.62 1363.51 1082.18 Q1361.71 1085.72 1361.71 1092.85 Q1361.71 1099.96 1363.51 1103.53 Q1365.34 1107.07 1368.95 1107.07 Q1372.59 1107.07 1374.39 1103.53 Q1376.22 1099.96 1376.22 1092.85 Q1376.22 1085.72 1374.39 1082.18 Q1372.59 1078.62 1368.95 1078.62 M1368.95 1074.91 Q1374.76 1074.91 1377.82 1079.52 Q1380.9 1084.1 1380.9 1092.85 Q1380.9 1101.58 1377.82 1106.19 Q1374.76 1110.77 1368.95 1110.77 Q1363.14 1110.77 1360.06 1106.19 Q1357.01 1101.58 1357.01 1092.85 Q1357.01 1084.1 1360.06 1079.52 Q1363.14 1074.91 1368.95 1074.91 Z" fill="#000000" fill-rule="evenodd" fill-opacity="1" /><path clip-path="url(#clip060)" d="M1403.28 1091.47 Q1406.64 1092.18 1408.51 1094.45 Q1410.41 1096.72 1410.41 1100.05 Q1410.41 1105.17 1406.89 1107.97 Q1403.37 1110.77 1396.89 1110.77 Q1394.72 1110.77 1392.4 1110.33 Q1390.11 1109.91 1387.66 1109.06 L1387.66 1104.54 Q1389.6 1105.68 1391.92 1106.26 Q1394.23 1106.84 1396.75 1106.84 Q1401.15 1106.84 1403.44 1105.1 Q1405.76 1103.36 1405.76 1100.05 Q1405.76 1097 1403.61 1095.29 Q1401.48 1093.55 1397.66 1093.55 L1393.63 1093.55 L1393.63 1089.71 L1397.84 1089.71 Q1401.29 1089.71 1403.12 1088.34 Q1404.95 1086.95 1404.95 1084.36 Q1404.95 1081.7 1403.05 1080.29 Q1401.17 1078.85 1397.66 1078.85 Q1395.73 1078.85 1393.54 1079.27 Q1391.34 1079.68 1388.7 1080.56 L1388.7 1076.4 Q1391.36 1075.66 1393.67 1075.29 Q1396.01 1074.91 1398.07 1074.91 Q1403.4 1074.91 1406.5 1077.35 Q1409.6 1079.75 1409.6 1083.87 Q1409.6 1086.74 1407.96 1088.73 Q1406.31 1090.7 1403.28 1091.47 Z" fill="#000000" fill-rule="evenodd" fill-opacity="1" /><path clip-path="url(#clip060)" d="M1677.68 1078.62 Q1674.07 1078.62 1672.24 1082.18 Q1670.43 1085.72 1670.43 1092.85 Q1670.43 1099.96 1672.24 1103.53 Q1674.07 1107.07 1677.68 1107.07 Q1681.31 1107.07 1683.12 1103.53 Q1684.95 1099.96 1684.95 1092.85 Q1684.95 1085.72 1683.12 1082.18 Q1681.31 1078.62 1677.68 1078.62 M1677.68 1074.91 Q1683.49 1074.91 1686.54 1079.52 Q1689.62 1084.1 1689.62 1092.85 Q1689.62 1101.58 1686.54 1106.19 Q1683.49 1110.77 1677.68 1110.77 Q1671.87 1110.77 1668.79 1106.19 Q1665.73 1101.58 1665.73 1092.85 Q1665.73 1084.1 1668.79 1079.52 Q1671.87 1074.91 1677.68 1074.91 Z" fill="#000000" fill-rule="evenodd" fill-opacity="1" /><path clip-path="url(#clip060)" d="M1697.84 1104.22 L1702.72 1104.22 L1702.72 1110.1 L1697.84 1110.1 L1697.84 1104.22 Z" fill="#000000" fill-rule="evenodd" fill-opacity="1" /><path clip-path="url(#clip060)" d="M1722.91 1078.62 Q1719.3 1078.62 1717.47 1082.18 Q1715.66 1085.72 1715.66 1092.85 Q1715.66 1099.96 1717.47 1103.53 Q1719.3 1107.07 1722.91 1107.07 Q1726.54 1107.07 1728.35 1103.53 Q1730.18 1099.96 1730.18 1092.85 Q1730.18 1085.72 1728.35 1082.18 Q1726.54 1078.62 1722.91 1078.62 M1722.91 1074.91 Q1728.72 1074.91 1731.77 1079.52 Q1734.85 1084.1 1734.85 1092.85 Q1734.85 1101.58 1731.77 1106.19 Q1728.72 1110.77 1722.91 1110.77 Q1717.1 1110.77 1714.02 1106.19 Q1710.96 1101.58 1710.96 1092.85 Q1710.96 1084.1 1714.02 1079.52 Q1717.1 1074.91 1722.91 1074.91 Z" fill="#000000" fill-rule="evenodd" fill-opacity="1" /><path clip-path="url(#clip060)" d="M1755.92 1079.61 L1744.11 1098.06 L1755.92 1098.06 L1755.92 1079.61 M1754.69 1075.54 L1760.57 1075.54 L1760.57 1098.06 L1765.5 1098.06 L1765.5 1101.95 L1760.57 1101.95 L1760.57 1110.1 L1755.92 1110.1 L1755.92 1101.95 L1740.32 1101.95 L1740.32 1097.44 L1754.69 1075.54 Z" fill="#000000" fill-rule="evenodd" fill-opacity="1" /><path clip-path="url(#clip060)" d="M2032.94 1078.62 Q2029.33 1078.62 2027.5 1082.18 Q2025.7 1085.72 2025.7 1092.85 Q2025.7 1099.96 2027.5 1103.53 Q2029.33 1107.07 2032.94 1107.07 Q2036.58 1107.07 2038.38 1103.53 Q2040.21 1099.96 2040.21 1092.85 Q2040.21 1085.72 2038.38 1082.18 Q2036.58 1078.62 2032.94 1078.62 M2032.94 1074.91 Q2038.75 1074.91 2041.81 1079.52 Q2044.89 1084.1 2044.89 1092.85 Q2044.89 1101.58 2041.81 1106.19 Q2038.75 1110.77 2032.94 1110.77 Q2027.13 1110.77 2024.05 1106.19 Q2021 1101.58 2021 1092.85 Q2021 1084.1 2024.05 1079.52 Q2027.13 1074.91 2032.94 1074.91 Z" fill="#000000" fill-rule="evenodd" fill-opacity="1" /><path clip-path="url(#clip060)" d="M2053.1 1104.22 L2057.99 1104.22 L2057.99 1110.1 L2053.1 1110.1 L2053.1 1104.22 Z" fill="#000000" fill-rule="evenodd" fill-opacity="1" /><path clip-path="url(#clip060)" d="M2078.17 1078.62 Q2074.56 1078.62 2072.73 1082.18 Q2070.93 1085.72 2070.93 1092.85 Q2070.93 1099.96 2072.73 1103.53 Q2074.56 1107.07 2078.17 1107.07 Q2081.81 1107.07 2083.61 1103.53 Q2085.44 1099.96 2085.44 1092.85 Q2085.44 1085.72 2083.61 1082.18 Q2081.81 1078.62 2078.17 1078.62 M2078.17 1074.91 Q2083.98 1074.91 2087.04 1079.52 Q2090.12 1084.1 2090.12 1092.85 Q2090.12 1101.58 2087.04 1106.19 Q2083.98 1110.77 2078.17 1110.77 Q2072.36 1110.77 2069.28 1106.19 Q2066.23 1101.58 2066.23 1092.85 Q2066.23 1084.1 2069.28 1079.52 Q2072.36 1074.91 2078.17 1074.91 Z" fill="#000000" fill-rule="evenodd" fill-opacity="1" /><path clip-path="url(#clip060)" d="M2098.38 1075.54 L2116.74 1075.54 L2116.74 1079.48 L2102.66 1079.48 L2102.66 1087.95 Q2103.68 1087.6 2104.7 1087.44 Q2105.72 1087.25 2106.74 1087.25 Q2112.53 1087.25 2115.9 1090.42 Q2119.28 1093.6 2119.28 1099.01 Q2119.28 1104.59 2115.81 1107.69 Q2112.34 1110.77 2106.02 1110.77 Q2103.84 1110.77 2101.58 1110.4 Q2099.33 1110.03 2096.92 1109.29 L2096.92 1104.59 Q2099.01 1105.72 2101.23 1106.28 Q2103.45 1106.84 2105.93 1106.84 Q2109.93 1106.84 2112.27 1104.73 Q2114.61 1102.62 2114.61 1099.01 Q2114.61 1095.4 2112.27 1093.29 Q2109.93 1091.19 2105.93 1091.19 Q2104.05 1091.19 2102.18 1091.6 Q2100.33 1092.02 2098.38 1092.9 L2098.38 1075.54 Z" fill="#000000" fill-rule="evenodd" fill-opacity="1" /><path clip-path="url(#clip060)" d="M1275.51 1146.79 L1275.51 1156.92 L1287.57 1156.92 L1287.57 1161.47 L1275.51 1161.47 L1275.51 1180.82 Q1275.51 1185.18 1276.68 1186.42 Q1277.89 1187.66 1281.55 1187.66 L1287.57 1187.66 L1287.57 1192.56 L1281.55 1192.56 Q1274.78 1192.56 1272.2 1190.05 Q1269.62 1187.5 1269.62 1180.82 L1269.62 1161.47 L1265.32 1161.47 L1265.32 1156.92 L1269.62 1156.92 L1269.62 1146.79 L1275.51 1146.79 Z" fill="#000000" fill-rule="evenodd" fill-opacity="1" /><path clip-path="url(#clip060)" d="M1295.53 1192.56 L1295.53 1145.04 L1325.1 1145.04 L1325.1 1150.45 L1301.96 1150.45 L1301.96 1192.56 L1295.53 1192.56 Z" fill="#000000" fill-rule="evenodd" fill-opacity="1" /><polyline clip-path="url(#clip062)" style="stroke:#000000; stroke-linecap:butt; stroke-linejoin:round; stroke-width:2; stroke-opacity:0.1; fill:none" points="
  237.662,1019.39 2352.76,1019.39 
  "/>
<polyline clip-path="url(#clip062)" style="stroke:#000000; stroke-linecap:butt; stroke-linejoin:round; stroke-width:2; stroke-opacity:0.1; fill:none" points="
  237.662,779.151 2352.76,779.151 
  "/>
<polyline clip-path="url(#clip062)" style="stroke:#000000; stroke-linecap:butt; stroke-linejoin:round; stroke-width:2; stroke-opacity:0.1; fill:none" points="
  237.662,538.916 2352.76,538.916 
  "/>
<polyline clip-path="url(#clip062)" style="stroke:#000000; stroke-linecap:butt; stroke-linejoin:round; stroke-width:2; stroke-opacity:0.1; fill:none" points="
  237.662,298.682 2352.76,298.682 
  "/>
<polyline clip-path="url(#clip062)" style="stroke:#000000; stroke-linecap:butt; stroke-linejoin:round; stroke-width:2; stroke-opacity:0.1; fill:none" points="
  237.662,58.4479 2352.76,58.4479 
  "/>
<polyline clip-path="url(#clip060)" style="stroke:#000000; stroke-linecap:butt; stroke-linejoin:round; stroke-width:4; stroke-opacity:1; fill:none" points="
  237.662,1047.7 237.662,47.2441 
  "/>
<polyline clip-path="url(#clip060)" style="stroke:#000000; stroke-linecap:butt; stroke-linejoin:round; stroke-width:4; stroke-opacity:1; fill:none" points="
  237.662,1019.39 256.56,1019.39 
  "/>
<polyline clip-path="url(#clip060)" style="stroke:#000000; stroke-linecap:butt; stroke-linejoin:round; stroke-width:4; stroke-opacity:1; fill:none" points="
  237.662,779.151 256.56,779.151 
  "/>
<polyline clip-path="url(#clip060)" style="stroke:#000000; stroke-linecap:butt; stroke-linejoin:round; stroke-width:4; stroke-opacity:1; fill:none" points="
  237.662,538.916 256.56,538.916 
  "/>
<polyline clip-path="url(#clip060)" style="stroke:#000000; stroke-linecap:butt; stroke-linejoin:round; stroke-width:4; stroke-opacity:1; fill:none" points="
  237.662,298.682 256.56,298.682 
  "/>
<polyline clip-path="url(#clip060)" style="stroke:#000000; stroke-linecap:butt; stroke-linejoin:round; stroke-width:4; stroke-opacity:1; fill:none" points="
  237.662,58.4479 256.56,58.4479 
  "/>
<path clip-path="url(#clip060)" d="M114.325 1005.18 Q110.713 1005.18 108.885 1008.75 Q107.079 1012.29 107.079 1019.42 Q107.079 1026.53 108.885 1030.09 Q110.713 1033.63 114.325 1033.63 Q117.959 1033.63 119.764 1030.09 Q121.593 1026.53 121.593 1019.42 Q121.593 1012.29 119.764 1008.75 Q117.959 1005.18 114.325 1005.18 M114.325 1001.48 Q120.135 1001.48 123.19 1006.09 Q126.269 1010.67 126.269 1019.42 Q126.269 1028.15 123.19 1032.75 Q120.135 1037.34 114.325 1037.34 Q108.514 1037.34 105.436 1032.75 Q102.38 1028.15 102.38 1019.42 Q102.38 1010.67 105.436 1006.09 Q108.514 1001.48 114.325 1001.48 Z" fill="#000000" fill-rule="evenodd" fill-opacity="1" /><path clip-path="url(#clip060)" d="M134.486 1030.79 L139.371 1030.79 L139.371 1036.67 L134.486 1036.67 L134.486 1030.79 Z" fill="#000000" fill-rule="evenodd" fill-opacity="1" /><path clip-path="url(#clip060)" d="M159.556 1005.18 Q155.945 1005.18 154.116 1008.75 Q152.31 1012.29 152.31 1019.42 Q152.31 1026.53 154.116 1030.09 Q155.945 1033.63 159.556 1033.63 Q163.19 1033.63 164.996 1030.09 Q166.824 1026.53 166.824 1019.42 Q166.824 1012.29 164.996 1008.75 Q163.19 1005.18 159.556 1005.18 M159.556 1001.48 Q165.366 1001.48 168.421 1006.09 Q171.5 1010.67 171.5 1019.42 Q171.5 1028.15 168.421 1032.75 Q165.366 1037.34 159.556 1037.34 Q153.746 1037.34 150.667 1032.75 Q147.611 1028.15 147.611 1019.42 Q147.611 1010.67 150.667 1006.09 Q153.746 1001.48 159.556 1001.48 Z" fill="#000000" fill-rule="evenodd" fill-opacity="1" /><path clip-path="url(#clip060)" d="M189.718 1005.18 Q186.107 1005.18 184.278 1008.75 Q182.472 1012.29 182.472 1019.42 Q182.472 1026.53 184.278 1030.09 Q186.107 1033.63 189.718 1033.63 Q193.352 1033.63 195.157 1030.09 Q196.986 1026.53 196.986 1019.42 Q196.986 1012.29 195.157 1008.75 Q193.352 1005.18 189.718 1005.18 M189.718 1001.48 Q195.528 1001.48 198.583 1006.09 Q201.662 1010.67 201.662 1019.42 Q201.662 1028.15 198.583 1032.75 Q195.528 1037.34 189.718 1037.34 Q183.907 1037.34 180.829 1032.75 Q177.773 1028.15 177.773 1019.42 Q177.773 1010.67 180.829 1006.09 Q183.907 1001.48 189.718 1001.48 Z" fill="#000000" fill-rule="evenodd" fill-opacity="1" /><path clip-path="url(#clip060)" d="M115.32 764.949 Q111.709 764.949 109.88 768.514 Q108.075 772.056 108.075 779.185 Q108.075 786.292 109.88 789.857 Q111.709 793.398 115.32 793.398 Q118.954 793.398 120.76 789.857 Q122.588 786.292 122.588 779.185 Q122.588 772.056 120.76 768.514 Q118.954 764.949 115.32 764.949 M115.32 761.246 Q121.13 761.246 124.186 765.852 Q127.264 770.436 127.264 779.185 Q127.264 787.912 124.186 792.519 Q121.13 797.102 115.32 797.102 Q109.51 797.102 106.431 792.519 Q103.376 787.912 103.376 779.185 Q103.376 770.436 106.431 765.852 Q109.51 761.246 115.32 761.246 Z" fill="#000000" fill-rule="evenodd" fill-opacity="1" /><path clip-path="url(#clip060)" d="M135.482 790.551 L140.366 790.551 L140.366 796.431 L135.482 796.431 L135.482 790.551 Z" fill="#000000" fill-rule="evenodd" fill-opacity="1" /><path clip-path="url(#clip060)" d="M154.579 792.496 L170.898 792.496 L170.898 796.431 L148.954 796.431 L148.954 792.496 Q151.616 789.741 156.199 785.111 Q160.806 780.459 161.986 779.116 Q164.232 776.593 165.111 774.857 Q166.014 773.098 166.014 771.408 Q166.014 768.653 164.07 766.917 Q162.148 765.181 159.047 765.181 Q156.847 765.181 154.394 765.945 Q151.963 766.709 149.185 768.26 L149.185 763.537 Q152.01 762.403 154.463 761.824 Q156.917 761.246 158.954 761.246 Q164.324 761.246 167.519 763.931 Q170.713 766.616 170.713 771.107 Q170.713 773.236 169.903 775.158 Q169.116 777.056 167.009 779.648 Q166.431 780.32 163.329 783.537 Q160.227 786.732 154.579 792.496 Z" fill="#000000" fill-rule="evenodd" fill-opacity="1" /><path clip-path="url(#clip060)" d="M180.759 761.871 L199.116 761.871 L199.116 765.806 L185.042 765.806 L185.042 774.278 Q186.06 773.931 187.079 773.769 Q188.097 773.584 189.116 773.584 Q194.903 773.584 198.282 776.755 Q201.662 779.926 201.662 785.343 Q201.662 790.922 198.19 794.023 Q194.718 797.102 188.398 797.102 Q186.222 797.102 183.954 796.732 Q181.708 796.361 179.301 795.621 L179.301 790.922 Q181.384 792.056 183.607 792.611 Q185.829 793.167 188.306 793.167 Q192.31 793.167 194.648 791.06 Q196.986 788.954 196.986 785.343 Q196.986 781.732 194.648 779.625 Q192.31 777.519 188.306 777.519 Q186.431 777.519 184.556 777.935 Q182.704 778.352 180.759 779.232 L180.759 761.871 Z" fill="#000000" fill-rule="evenodd" fill-opacity="1" /><path clip-path="url(#clip060)" d="M114.325 524.715 Q110.713 524.715 108.885 528.28 Q107.079 531.822 107.079 538.951 Q107.079 546.058 108.885 549.622 Q110.713 553.164 114.325 553.164 Q117.959 553.164 119.764 549.622 Q121.593 546.058 121.593 538.951 Q121.593 531.822 119.764 528.28 Q117.959 524.715 114.325 524.715 M114.325 521.011 Q120.135 521.011 123.19 525.618 Q126.269 530.201 126.269 538.951 Q126.269 547.678 123.19 552.284 Q120.135 556.868 114.325 556.868 Q108.514 556.868 105.436 552.284 Q102.38 547.678 102.38 538.951 Q102.38 530.201 105.436 525.618 Q108.514 521.011 114.325 521.011 Z" fill="#000000" fill-rule="evenodd" fill-opacity="1" /><path clip-path="url(#clip060)" d="M134.486 550.317 L139.371 550.317 L139.371 556.196 L134.486 556.196 L134.486 550.317 Z" fill="#000000" fill-rule="evenodd" fill-opacity="1" /><path clip-path="url(#clip060)" d="M149.602 521.636 L167.959 521.636 L167.959 525.572 L153.885 525.572 L153.885 534.044 Q154.903 533.697 155.922 533.535 Q156.94 533.349 157.959 533.349 Q163.746 533.349 167.125 536.521 Q170.505 539.692 170.505 545.109 Q170.505 550.687 167.033 553.789 Q163.56 556.868 157.241 556.868 Q155.065 556.868 152.797 556.497 Q150.551 556.127 148.144 555.386 L148.144 550.687 Q150.227 551.821 152.449 552.377 Q154.672 552.933 157.148 552.933 Q161.153 552.933 163.491 550.826 Q165.829 548.72 165.829 545.109 Q165.829 541.497 163.491 539.391 Q161.153 537.285 157.148 537.285 Q155.273 537.285 153.398 537.701 Q151.547 538.118 149.602 538.997 L149.602 521.636 Z" fill="#000000" fill-rule="evenodd" fill-opacity="1" /><path clip-path="url(#clip060)" d="M189.718 524.715 Q186.107 524.715 184.278 528.28 Q182.472 531.822 182.472 538.951 Q182.472 546.058 184.278 549.622 Q186.107 553.164 189.718 553.164 Q193.352 553.164 195.157 549.622 Q196.986 546.058 196.986 538.951 Q196.986 531.822 195.157 528.28 Q193.352 524.715 189.718 524.715 M189.718 521.011 Q195.528 521.011 198.583 525.618 Q201.662 530.201 201.662 538.951 Q201.662 547.678 198.583 552.284 Q195.528 556.868 189.718 556.868 Q183.907 556.868 180.829 552.284 Q177.773 547.678 177.773 538.951 Q177.773 530.201 180.829 525.618 Q183.907 521.011 189.718 521.011 Z" fill="#000000" fill-rule="evenodd" fill-opacity="1" /><path clip-path="url(#clip060)" d="M115.32 284.481 Q111.709 284.481 109.88 288.046 Q108.075 291.587 108.075 298.717 Q108.075 305.823 109.88 309.388 Q111.709 312.93 115.32 312.93 Q118.954 312.93 120.76 309.388 Q122.588 305.823 122.588 298.717 Q122.588 291.587 120.76 288.046 Q118.954 284.481 115.32 284.481 M115.32 280.777 Q121.13 280.777 124.186 285.384 Q127.264 289.967 127.264 298.717 Q127.264 307.444 124.186 312.05 Q121.13 316.633 115.32 316.633 Q109.51 316.633 106.431 312.05 Q103.376 307.444 103.376 298.717 Q103.376 289.967 106.431 285.384 Q109.51 280.777 115.32 280.777 Z" fill="#000000" fill-rule="evenodd" fill-opacity="1" /><path clip-path="url(#clip060)" d="M135.482 310.083 L140.366 310.083 L140.366 315.962 L135.482 315.962 L135.482 310.083 Z" fill="#000000" fill-rule="evenodd" fill-opacity="1" /><path clip-path="url(#clip060)" d="M149.371 281.402 L171.593 281.402 L171.593 283.393 L159.047 315.962 L154.162 315.962 L165.968 285.337 L149.371 285.337 L149.371 281.402 Z" fill="#000000" fill-rule="evenodd" fill-opacity="1" /><path clip-path="url(#clip060)" d="M180.759 281.402 L199.116 281.402 L199.116 285.337 L185.042 285.337 L185.042 293.81 Q186.06 293.462 187.079 293.3 Q188.097 293.115 189.116 293.115 Q194.903 293.115 198.282 296.286 Q201.662 299.458 201.662 304.874 Q201.662 310.453 198.19 313.555 Q194.718 316.633 188.398 316.633 Q186.222 316.633 183.954 316.263 Q181.708 315.893 179.301 315.152 L179.301 310.453 Q181.384 311.587 183.607 312.143 Q185.829 312.698 188.306 312.698 Q192.31 312.698 194.648 310.592 Q196.986 308.485 196.986 304.874 Q196.986 301.263 194.648 299.157 Q192.31 297.05 188.306 297.05 Q186.431 297.05 184.556 297.467 Q182.704 297.884 180.759 298.763 L180.759 281.402 Z" fill="#000000" fill-rule="evenodd" fill-opacity="1" /><path clip-path="url(#clip060)" d="M105.135 71.7927 L112.774 71.7927 L112.774 45.4271 L104.463 47.0938 L104.463 42.8345 L112.727 41.1679 L117.403 41.1679 L117.403 71.7927 L125.042 71.7927 L125.042 75.7279 L105.135 75.7279 L105.135 71.7927 Z" fill="#000000" fill-rule="evenodd" fill-opacity="1" /><path clip-path="url(#clip060)" d="M134.486 69.8483 L139.371 69.8483 L139.371 75.7279 L134.486 75.7279 L134.486 69.8483 Z" fill="#000000" fill-rule="evenodd" fill-opacity="1" /><path clip-path="url(#clip060)" d="M159.556 44.2466 Q155.945 44.2466 154.116 47.8114 Q152.31 51.353 152.31 58.4826 Q152.31 65.5891 154.116 69.1538 Q155.945 72.6955 159.556 72.6955 Q163.19 72.6955 164.996 69.1538 Q166.824 65.5891 166.824 58.4826 Q166.824 51.353 164.996 47.8114 Q163.19 44.2466 159.556 44.2466 M159.556 40.5429 Q165.366 40.5429 168.421 45.1493 Q171.5 49.7327 171.5 58.4826 Q171.5 67.2094 168.421 71.8159 Q165.366 76.3992 159.556 76.3992 Q153.746 76.3992 150.667 71.8159 Q147.611 67.2094 147.611 58.4826 Q147.611 49.7327 150.667 45.1493 Q153.746 40.5429 159.556 40.5429 Z" fill="#000000" fill-rule="evenodd" fill-opacity="1" /><path clip-path="url(#clip060)" d="M189.718 44.2466 Q186.107 44.2466 184.278 47.8114 Q182.472 51.353 182.472 58.4826 Q182.472 65.5891 184.278 69.1538 Q186.107 72.6955 189.718 72.6955 Q193.352 72.6955 195.157 69.1538 Q196.986 65.5891 196.986 58.4826 Q196.986 51.353 195.157 47.8114 Q193.352 44.2466 189.718 44.2466 M189.718 40.5429 Q195.528 40.5429 198.583 45.1493 Q201.662 49.7327 201.662 58.4826 Q201.662 67.2094 198.583 71.8159 Q195.528 76.3992 189.718 76.3992 Q183.907 76.3992 180.829 71.8159 Q177.773 67.2094 177.773 58.4826 Q177.773 49.7327 180.829 45.1493 Q183.907 40.5429 189.718 40.5429 Z" fill="#000000" fill-rule="evenodd" fill-opacity="1" /><path clip-path="url(#clip060)" d="M31.6902 629.208 L2.66262 620.232 L2.66262 614.821 L31.6902 623.797 L60.7179 614.821 L60.7179 620.232 L31.6902 629.208 Z" fill="#000000" fill-rule="evenodd" fill-opacity="1" /><path clip-path="url(#clip060)" d="M21.1232 589.645 Q21.1232 594.483 24.6243 597.093 Q28.2846 599.83 34.332 599.83 Q40.7295 599.83 44.4217 597.124 Q48.0819 594.387 48.0819 589.645 Q48.0819 584.966 44.3898 582.229 Q40.6977 579.491 34.332 579.491 Q28.5074 579.491 24.6243 582.229 Q21.1232 584.743 21.1232 589.645 M16.4762 589.645 L16.4762 570.198 L22.3327 570.198 L22.3327 576.754 Q27.2979 573.285 34.332 573.285 Q43.0849 573.285 48.0501 577.645 Q53.0472 582.006 53.0472 589.645 Q53.0472 597.315 48.0501 601.644 Q43.0849 606.005 34.332 606.005 Q25.5155 606.005 20.5821 601.644 Q16.4762 598.048 16.4762 589.645 Z" fill="#000000" fill-rule="evenodd" fill-opacity="1" /><path clip-path="url(#clip060)" d="M46.7133 555.779 L46.7133 533.34 L52.1242 533.34 L52.1242 563.514 L46.7133 563.514 Q42.9257 559.853 36.56 553.551 Q30.1625 547.217 28.3164 545.594 Q24.8471 542.507 22.46 541.297 Q20.041 540.056 17.7175 540.056 Q13.9299 540.056 11.5428 542.73 Q9.15564 545.371 9.15564 549.636 Q9.15564 552.66 10.206 556.034 Q11.2563 559.376 13.3888 563.195 L6.89581 563.195 Q5.33621 559.312 4.5405 555.938 Q3.74479 552.565 3.74479 549.764 Q3.74479 542.379 7.4369 537.987 Q11.129 533.595 17.3037 533.595 Q20.232 533.595 22.8737 534.709 Q25.4837 535.791 29.0485 538.687 Q29.9715 539.483 34.3957 543.748 Q38.788 548.013 46.7133 555.779 Z" fill="#000000" fill-rule="evenodd" fill-opacity="1" /><path clip-path="url(#clip060)" d="M46.7133 514.307 L46.7133 491.868 L52.1242 491.868 L52.1242 522.041 L46.7133 522.041 Q42.9257 518.381 36.56 512.079 Q30.1625 505.745 28.3164 504.122 Q24.8471 501.034 22.46 499.825 Q20.041 498.583 17.7175 498.583 Q13.9299 498.583 11.5428 501.257 Q9.15564 503.899 9.15564 508.164 Q9.15564 511.187 10.206 514.561 Q11.2563 517.903 13.3888 521.723 L6.89581 521.723 Q5.33621 517.84 4.5405 514.466 Q3.74479 511.092 3.74479 508.291 Q3.74479 500.907 7.4369 496.514 Q11.129 492.122 17.3037 492.122 Q20.232 492.122 22.8737 493.236 Q25.4837 494.318 29.0485 497.215 Q29.9715 498.01 34.3957 502.275 Q38.788 506.54 46.7133 514.307 Z" fill="#000000" fill-rule="evenodd" fill-opacity="1" /><path clip-path="url(#clip060)" d="M31.6902 465.736 L60.7179 474.712 L60.7179 480.123 L31.6902 471.147 L2.66262 480.123 L2.66262 474.712 L31.6902 465.736 Z" fill="#000000" fill-rule="evenodd" fill-opacity="1" /><polyline clip-path="url(#clip062)" style="stroke:#009af9; stroke-linecap:butt; stroke-linejoin:round; stroke-width:4; stroke-opacity:1; fill:none" points="
  297.523,1019.39 301.068,1018.78 310.765,1011.03 326.495,979.848 346.381,909.842 371.656,780.11 402.029,586.055 437.95,560.722 459.073,560.996 670.303,563.719 
  1369.16,572.613 1759.55,577.506 1984.4,580.3 2113.18,581.892 2147.1,582.31 2179.78,582.713 2214.41,379.759 2229.34,291.547 2279.22,94.3985 2285.62,83.4592 
  2289.11,79.062 2291,77.1494 2292,76.2673 2292.51,75.8522 2292.75,75.6629 2292.85,75.5848 2292.89,75.5589 2292.89,75.5651 
  "/>
</svg>
